<svg xmlns="http://www.w3.org/2000/svg" width="81" height="60" viewBox="0 0 81 60"><defs><style>.a{fill:none;}.b{fill:#100f0c;}.c{fill:#161310;}.d{fill:#fff;}</style></defs><g transform="translate(-0.12 0.262)"><g transform="translate(0)"><rect class="a" width="81" height="60" rx="7" transform="translate(0.12 -0.262)"/></g><g transform="translate(15.573 17.156)"><g transform="translate(47.69 22.625)"><g transform="translate(1.785 0.04)"><path class="b" d="M-599.824,2034.021l.039-1.685.754.019a.743.743,0,0,1,.337.06.353.353,0,0,1,.178.158.548.548,0,0,1,.06.258.4.4,0,0,1-.119.3.6.6,0,0,1-.357.158,1.1,1.1,0,0,0,.139.079,1.23,1.23,0,0,1,.179.238l.278.476h-.278l-.218-.357c-.06-.1-.119-.178-.159-.238a.341.341,0,0,0-.119-.119c-.04-.02-.06-.039-.1-.039a.349.349,0,0,1-.119-.02h-.258l-.02.753Zm.238-.952.476.02a.824.824,0,0,0,.238-.02.358.358,0,0,0,.139-.1.212.212,0,0,0,.04-.158.255.255,0,0,0-.08-.2.356.356,0,0,0-.277-.079l-.536-.02Z" transform="translate(599.824 -2032.336)"/></g><path class="b" d="M-602.729,2033.957l.04-1.686h.337l.377,1.209c.039.119.059.2.079.258.02-.059.06-.158.1-.277l.436-1.17h.3l-.039,1.685h-.218l.039-1.407-.515,1.407h-.2l-.456-1.448-.04,1.448Z" transform="translate(602.729 -2032.271)"/></g><g transform="translate(0 3.133)"><g transform="translate(40.155)"><path class="b" d="M-613.843,2000.545h1.645l-.277.377h-1.15l-.218.3h1.11l-.278.357h-1.11l-.4.555h-.476Z" transform="translate(614.993 -2000.545)"/><path class="b" d="M-610.68,2000.545h.753l-.178,1.012,1.288-1.012h.734l-1.13,1.586h-.476l.813-1.13h-.02l-1.448,1.13h-.377l.179-1.13h0l-.833,1.13h-.456Z" transform="translate(613.773 -2000.545)"/></g><path class="c" d="M-632.284,2005.443a10.162,10.162,0,0,0-7.118-2.737h-2.122l1.746-2.161h-11.1l-3.906,4.838-2.182-2.7H-670.2a10.173,10.173,0,0,0-7.138,2.756,9.042,9.042,0,0,0-3.014,6.781,9.042,9.042,0,0,0,3.014,6.782,10.23,10.23,0,0,0,7.059,2.736h2.2l-1.745,2.161h11.1l3.926-4.838,2.181,2.677h13.345a10.222,10.222,0,0,0,7.019-2.736,9,9,0,0,0,3.014-6.782A9.016,9.016,0,0,0-632.284,2005.443Z" transform="translate(680.35 -2000.545)"/><g transform="translate(1.825 3.946)"><path class="d" d="M-615.968,2012.612h-4.382a6.6,6.6,0,0,0-4.283,1.249,4.183,4.183,0,0,0-1.527,3.411,4.547,4.547,0,0,0,1.963,3.668,7.464,7.464,0,0,0,4.7,1.527h1.011a8.3,8.3,0,0,0,5.909-2.281,7.241,7.241,0,0,0,2.459-5.473,7.071,7.071,0,0,0-2.459-5.453,8.37,8.37,0,0,0-5.909-2.261h-3.748l-3.887,4.72h7.654A3.718,3.718,0,0,1-615.968,2012.612Zm-2.558,5.413a3.4,3.4,0,0,1-1.645-.337c-.377-.238-.575-.5-.575-.773,0-.5.4-.754,1.19-.754h4.323A3.445,3.445,0,0,1-618.526,2018.025Z" transform="translate(657.629 -2006.98)"/><path class="d" d="M-674.942,2020.174a8.369,8.369,0,0,0,5.909,2.26h3.768l3.887-4.719h-7.654a3.751,3.751,0,0,1-2.518-.912h4.382a6.638,6.638,0,0,0,4.283-1.249,4.169,4.169,0,0,0,1.527-3.391,4.466,4.466,0,0,0-1.964-3.668,7.424,7.424,0,0,0-4.7-1.527h-1.011a8.3,8.3,0,0,0-5.909,2.281,7.191,7.191,0,0,0-2.438,5.473A7.017,7.017,0,0,0-674.942,2020.174Zm5.929-8.785a3.4,3.4,0,0,1,1.645.337c.377.238.575.476.575.774,0,.5-.4.734-1.189.734h-4.342A3.512,3.512,0,0,1-669.012,2011.39Z" transform="translate(677.381 -2006.968)"/></g><path class="d" d="M-636.259,2021.118l-6.306-7.773,8.011-9.895h-6.484l-4.779,5.889-3.054-3.768h-6.5l6.306,7.773-8.011,9.895h6.484l4.779-5.889,3.054,3.768Z" transform="translate(671.377 -2001.665)"/></g><g transform="translate(4.462)"><path class="b" d="M-664.383,1996a1.845,1.845,0,0,0-1.586-.556,2.87,2.87,0,0,0-2.479,1.11.814.814,0,0,0-.1-.674,1.06,1.06,0,0,0-.912-.337h-2.419l-1.21,3.669h1.111l.416-1.269h1.428a1.578,1.578,0,0,0,1.249-.555,1.464,1.464,0,0,0,.1,1.349,1.847,1.847,0,0,0,1.586.555,2.739,2.739,0,0,0,2.875-1.923A1.418,1.418,0,0,0-664.383,1996Zm-5.255.733c-.139.4-.4.436-.734.436h-.912l.278-.833h1.071c.139,0,.278,0,.317.079C-669.578,1996.477-669.578,1996.577-669.638,1996.735Zm4.164.615a1.607,1.607,0,0,1-1.487,1.131.788.788,0,0,1-.674-.258.918.918,0,0,1-.04-.833,1.606,1.606,0,0,1,1.487-1.13.789.789,0,0,1,.674.258A.917.917,0,0,1-665.473,1997.349Z" transform="translate(673.088 -1995.446)"/><path class="b" d="M-647.588,1996.42l.278-.813h-8.071l-.773,2.32-.992-2.32h-1.209l-1.21,3.668h1.091l.773-2.34,1.051,2.34h1.15l.932-2.855h1.229l-.952,2.855h1.13l.932-2.855h1.19l-.932,2.855h3.47l.278-.813h-2.36l.218-.674h2.2l.258-.793h-2.2l.178-.575Z" transform="translate(667.873 -1995.508)"/></g></g></g></svg>