<svg xmlns="http://www.w3.org/2000/svg" width="81" height="60" viewBox="0 0 81 60"><defs><style>.a{fill:none;}.b{fill:#0f0e0b;}.c{fill:#d90010;}</style></defs><g transform="translate(-0.467 0.262)"><g transform="translate(0)"><rect class="a" width="81" height="60" rx="7" transform="translate(0.467 -0.262)"/></g><g transform="translate(12.859 17.924)"><g transform="translate(0)"><g transform="translate(52.837 7.025)"><g transform="translate(1.655 0.02)"><path class="b" d="M-461.961,2011.565l.041-1.574.686.02a1.257,1.257,0,0,1,.322.04c.081.021.121.081.162.161a.535.535,0,0,1,.061.242.4.4,0,0,1-.121.283.543.543,0,0,1-.343.141.311.311,0,0,1,.121.081.637.637,0,0,1,.161.222l.262.424h-.262l-.2-.323c-.061-.1-.1-.161-.141-.222a.464.464,0,0,0-.1-.1c-.041-.02-.061-.04-.1-.04h-.364l-.02.706Zm.222-.868h.444a.691.691,0,0,0,.222-.02c.06-.02.1-.041.121-.1a.3.3,0,0,0,.04-.141.2.2,0,0,0-.08-.181.447.447,0,0,0-.263-.081l-.5-.02Z" transform="translate(461.961 -2009.991)"/></g><path class="b" d="M-464.522,2011.534l.04-1.574h.3l.343,1.11a.7.7,0,0,1,.06.242c.021-.06.041-.141.081-.242l.4-1.09h.282l-.04,1.574h-.2l.02-1.312-.485,1.312h-.182l-.424-1.353-.02,1.333Z" transform="translate(464.522 -2009.96)"/></g><g transform="translate(0 1.756)"><path class="c" d="M-525.006,2001.807h2.947l-4.2,16.148h-2.987Z" transform="translate(540.26 -2001.807)"/><g transform="translate(0 0)"><path class="c" d="M-528.087,2033.959l-.485.141v-.423l-.282-.2v-.383l-.485-.384.182-.948s3.653-2.5,12.615-3.129c9.245-.646,13-.626,15.32-.343,2.3.283,5.854,1.009,5.854,1.009l1.433-.04-.041.282.384-.142.04.343.586-.1-.525.282.625.343-1.534-.06-.242.141,1.05.384.908-.1-.1.2a6.082,6.082,0,0,1,1.575.2c.565.2-.626.1-.626.1a7.026,7.026,0,0,1,1.494.525c.343.242-2.644-.384-3.31-.525s-7.1-.667-8.3-.767a121.266,121.266,0,0,0-12.534.141c-2.543.343-8.155,1.191-11.223,2.443-3.048,1.231-2.382,1.009-2.382,1.009" transform="translate(540.293 -2011.11)"/><path class="c" d="M-517.719,2015.218a2.912,2.912,0,0,0,.222,2.1,1.527,1.527,0,0,0,1.332.686,2.14,2.14,0,0,0,1.554-.666,3.911,3.911,0,0,0,.929-2.159,2.832,2.832,0,0,0-.222-2.059,1.487,1.487,0,0,0-1.292-.666,2.129,2.129,0,0,0-1.574.686,3.515,3.515,0,0,0-.949,2.079m-4.077,0a6.346,6.346,0,0,1,2.3-4,7.1,7.1,0,0,1,4.683-1.575c2.12,0,3.633.626,4.5,1.857a4.755,4.755,0,0,1,.706,3.674,6.341,6.341,0,0,1-2.3,4.016,7.171,7.171,0,0,1-4.764,1.575,5.424,5.424,0,0,1-3.916-1.292,4.654,4.654,0,0,1-1.211-4.259" transform="translate(537.655 -2004.581)"/><path class="c" d="M-479.411,2015.218a2.909,2.909,0,0,0,.222,2.1,1.515,1.515,0,0,0,1.312.686,2.172,2.172,0,0,0,1.554-.666,3.908,3.908,0,0,0,.909-2.159,2.832,2.832,0,0,0-.222-2.059,1.464,1.464,0,0,0-1.292-.666,2.162,2.162,0,0,0-1.574.686,3.5,3.5,0,0,0-.909,2.079m-4.057,0a6.409,6.409,0,0,1,2.281-4,7.009,7.009,0,0,1,4.663-1.575c2.119,0,3.613.626,4.481,1.857a4.752,4.752,0,0,1,.687,3.674,6.411,6.411,0,0,1-2.281,4.016,7.1,7.1,0,0,1-4.724,1.575,5.4,5.4,0,0,1-3.9-1.292,4.657,4.657,0,0,1-1.212-4.259" transform="translate(524.094 -2004.581)"/><path class="c" d="M-537.174,2025.8h-3.008l1.312-5.067h-2.18a5.424,5.424,0,0,1-3.916-1.292,4.454,4.454,0,0,1-1.231-4.218,6.345,6.345,0,0,1,2.3-4,7.1,7.1,0,0,1,4.683-1.575H-533l-.727,2.806h-5.894a2.129,2.129,0,0,0-1.574.686,3.763,3.763,0,0,0-.929,2.079,2.913,2.913,0,0,0,.222,2.1,1.527,1.527,0,0,0,1.333.686h5.409Z" transform="translate(546.291 -2004.581)"/><path class="c" d="M-500.776,2001.807h2.987l-1.312,5.066h2.18a5.421,5.421,0,0,1,3.916,1.292,4.456,4.456,0,0,1,1.232,4.219,6.348,6.348,0,0,1-2.3,4,7.1,7.1,0,0,1-4.683,1.574h-6.217l.727-2.806h5.914a2.126,2.126,0,0,0,1.574-.686,3.758,3.758,0,0,0,.929-2.079,2.914,2.914,0,0,0-.222-2.1,1.526,1.526,0,0,0-1.332-.686h-5.409Z" transform="translate(531.672 -2001.807)"/></g></g><g transform="translate(4.071)"><path class="b" d="M-539.991,2005.609l1.009-3.432h-.585l.283-.989h.585l.06-.222a2.708,2.708,0,0,1,.888-1.453,2.124,2.124,0,0,1,1.312-.424,1.821,1.821,0,0,1,.686.1l-.323,1.03a1.1,1.1,0,0,0-.4-.081.959.959,0,0,0-.848.808l-.061.222h.888l-.322,1.009h-.868l-.989,3.432Z" transform="translate(539.991 -1999.089)"/><path class="b" d="M-535.586,2006.692l.868-2.987c.162-.565.282-1.03.363-1.433h1.11l-.162.706h.021a2.092,2.092,0,0,1,1.615-.828.851.851,0,0,1,.969.848,2.119,2.119,0,0,1,1.615-.848c.686,0,1.029.445.969,1.191a7.065,7.065,0,0,1-.141.767l-.747,2.584h-1.272l.686-2.423a2.726,2.726,0,0,0,.121-.525c.041-.3-.081-.525-.383-.525-.444,0-.929.586-1.191,1.473l-.585,2H-533l.706-2.423c.041-.182.081-.343.1-.5.04-.3-.041-.545-.364-.545-.444,0-.989.605-1.231,1.493l-.565,1.979Z" transform="translate(538.432 -2000.172)"/></g></g></g></g></svg>