<svg xmlns="http://www.w3.org/2000/svg" width="81" height="59" viewBox="0 0 81 59"><defs><style>.a{fill:none;}.b{fill:#004593;}.c{fill:#ffe500;}.d{fill:#fff;}</style></defs><g transform="translate(-0.081 0.262)"><g transform="translate(0)"><rect class="a" width="81" height="59" rx="7" transform="translate(0.081 -0.262)"/></g><g transform="translate(11.152 14.733)"><g transform="translate(55.126 6.505)"><g transform="translate(1.63)"><path class="b" d="M-458.377,2107.1l-.257-1.544.686-.108a.787.787,0,0,1,.322,0,.312.312,0,0,1,.193.129.41.41,0,0,1,.107.214.372.372,0,0,1-.064.3.531.531,0,0,1-.3.193.348.348,0,0,1,.129.064c.064.043.129.107.214.172l.343.385-.257.043-.257-.279c-.086-.086-.129-.15-.172-.193a.441.441,0,0,0-.129-.086.191.191,0,0,0-.107-.022.228.228,0,0,0-.107.022l-.236.043.107.686Zm.065-.9.429-.064a1.33,1.33,0,0,0,.214-.064.262.262,0,0,0,.108-.107.323.323,0,0,0,.021-.15.293.293,0,0,0-.107-.172.341.341,0,0,0-.258-.021l-.493.085Z" transform="translate(458.634 -2105.428)"/></g><g transform="translate(0 0.145)"><path class="b" d="M-460.772,2107.422l-.257-1.544.3-.043.536,1.03.107.215a1.624,1.624,0,0,1,.043-.258l.193-1.137.279-.043.257,1.544-.193.043-.214-1.287-.214,1.352-.193.021-.665-1.244.215,1.308Z" transform="translate(461.029 -2105.641)"/></g></g><path class="b" d="M-484.688,2110.071l-3.453.687h-.022l.322-1.437.129-.021.773-.15.172-.772.472-2.06.15-.686-.515-.472-1.372-1.287-.451-.428-.622.128-8.644,1.695-2.359.451.043.042-3.11.558a8.481,8.481,0,0,0-1.18.343l.043-.15h-.043a4.774,4.774,0,0,0,.429-1.18l.15-.622.451-1.866-1.458.3.579-2.638.408-1.8-1.823.344-5.084.965a3.178,3.178,0,0,0-1.265.557l.665-2.852.429-1.845-1.845.344-4.226.793-2.166.407,1.5,1.631.687.751-1.223,5.812-.729.15-5.47,1.116-.472.085-.279.386-4.011,5.62-1.63-3.818-.386-.923-.987.194-5.9,1.158-2.359.472,1.759,1.63,1.115,1.051-3.839,13.127-.687,2.316,2.274-.836,5.319-1.93.644-.237.129-.686.879-4.419,1.716,2.788.944,1.545,1.073-1.458,1.909-2.573-.322,1.823-.322,1.781,1.759-.365c1.18-.236,2.467-.493,3.282-.665l-.794,3.475-.536,2.273,2.166-.858,12.227-4.869a4.076,4.076,0,0,0,2.166-3.067c.021-.043.021-.107.043-.171a18.914,18.914,0,0,0,.557-2.23l.493.45.451.408.6-.128,4.44-.88a5.561,5.561,0,0,0,1.566-.536l.043.236,1.844-.365,3.046-.6a4.914,4.914,0,0,0,1.887-.687l-.021.043,1.973-.386a1.485,1.485,0,0,0,.836-.472l-.064.344,1.308-.279c.065-.021.15-.043.236-.064v.021l1.244-.257a1.241,1.241,0,0,0,.3-.086v.021l1.265-.258a1.457,1.457,0,0,0,1.2-1.2l.408-1.952Z" transform="translate(542.023 -2095.872)"/><g transform="translate(1.866 1.566)"><path class="c" d="M-510.224,2124.972l1.265,1.158,4.848-.965c1.587-.3,2.081-1.116,2.4-2.681l.214-.837-3.089.6-.257,1.008-1.866.365.408-1.909,5-.987.836-3.646-1.523-1.415-4.955.987a2.483,2.483,0,0,0-1.33.686,3.649,3.649,0,0,0-.622,1.63Zm4.741-6.649,1.93-.408-.343,1.459-1.931.408Z" transform="translate(530.001 -2103.759)"/><path class="c" d="M-481.909,2111.692l-4.525.9a2.74,2.74,0,0,0-2.574,2.488c-.472,2.531-1.052,4.548-1.33,5.9l1.308,1.2,4.44-.879a3.266,3.266,0,0,0,2.9-2.66l1.287-5.577Zm-3,7.593-1.952.387,1.244-5.362,1.952-.386Z" transform="translate(523.65 -2102.49)"/><path class="c" d="M-468.054,2108.856l-8.644,1.694,1.523,1.438-1.2,5.255-.536,2.4,3.068-.6c1.973-.343,2.059-1.03,2.36-2.552l.214-.9-1.48.3.987-4.333,1.823-.364-.387,1.651,3.2-.643.472-2.06Z" transform="translate(519.362 -2101.585)"/><path class="c" d="M-501.993,2114.876l1.566,1.458-2.038,8.88-9.373,2-1.223,5.277,12.227-4.869c.858-.343,1.137-1.2,1.459-2.273a23.458,23.458,0,0,0,.687-2.724l2.037-8.817Z" transform="translate(530.907 -2103.165)"/><path class="c" d="M-521.177,2126.867c.214-.986.171-.578.493-2.08l.108-.386,1.158-5.1c.772-3.325,1.416-6.135,1.63-7.1l-5.469,1.115-5.277,7.422L-531,2114.9l-5.9,1.158,1.673,1.565-4.054,13.857,5.32-1.93,1.48-7.486,3.347,5.427,5-6.756-1.223,6.949S-521.156,2126.825-521.177,2126.867Z" transform="translate(539.281 -2102.651)"/><path class="c" d="M-502.308,2107.481l.15-.621-.987.193,2.081-8.88-4.226.793,1.116,1.223-1.63,7.765-.386,1.824,1.93-.365A2.321,2.321,0,0,0-502.308,2107.481Z" transform="translate(528.712 -2098.172)"/><path class="c" d="M-498.617,2110.056l5.234-.965a2.29,2.29,0,0,0,1.8-2l.15-.622-1.416.279.986-4.483-5.083.965a2.026,2.026,0,0,0-1.008.536,2.222,2.222,0,0,0-.708,1.136l-.944,4.29Zm2.552-5.406,1.458-.279-.879,3.625-1.394.258Z" transform="translate(526.609 -2099.481)"/><g transform="translate(48.841 12.376)"><path class="d" d="M-467.521,2121.14l.622-.129a.913.913,0,0,0,.729-.772l.065-.235.257-1.181.579-.107.15-.644-.6.128.214-1.029.6-.128.15-.687-.9.171a.914.914,0,0,0-.729.773l-.214,1.073-.343.064-.108.644.365-.064-.322,1.394Z" transform="translate(467.521 -2116.356)"/><path class="d" d="M-460.031,2117.711l-3.6.708-.107.622-.258,1.351-.15.729.386-.086a.9.9,0,0,0,.687-.751l.064-.236.257-1.222.622-.128-.515,2.1.343-.064a.916.916,0,0,0,.73-.73l.064-.278.257-1.223.622-.129-.451,2.124.344-.064a.889.889,0,0,0,.729-.73l.065-.235.278-1.395Z" transform="translate(466.444 -2116.789)"/></g></g></g></g></svg>