<svg xmlns="http://www.w3.org/2000/svg" xmlns:xlink="http://www.w3.org/1999/xlink" width="139.999" height="96.06" viewBox="0 0 139.999 96.06"><defs><style>.a{fill:#fff;}.b{fill:#0f0e0b;}.c{filter:url(#a);}</style><filter id="a" x="0" y="0" width="139.999" height="96.06" filterUnits="userSpaceOnUse"><feOffset dy="8" input="SourceAlpha"/><feGaussianBlur stdDeviation="2.5" result="b"/><feFlood flood-opacity="0.161"/><feComposite operator="in" in2="b"/><feComposite in="SourceGraphic"/></filter></defs><g transform="translate(-1018.683 -1645.777)"><g class="c" transform="matrix(1, 0, 0, 1, 1018.68, 1645.78)"><path class="a" d="M-688.687,2088.732A15.283,15.283,0,0,0-693.276,2099L-697,2139.431a13.5,13.5,0,0,0,13.505,13.505l80.427.869a4.826,4.826,0,0,0,.814.056,9.626,9.626,0,0,0,1.8-.175,23.8,23.8,0,0,0,4.048-1.122,30.5,30.5,0,0,0,7.186-3.5,25.668,25.668,0,0,0,6.4-6.611,47.828,47.828,0,0,0,5.825-11.336c4.636-12.822,6.223-25.5,4.011-37.973a28.269,28.269,0,0,0-3.741-10.113,15.5,15.5,0,0,0-8.876-6.686,63.009,63.009,0,0,0-13.219-2.435,181.284,181.284,0,0,0-27.106-.193,259.53,259.53,0,0,0-35.366,4.406A151.037,151.037,0,0,0-676.913,2082a46.148,46.148,0,0,0-4.62,1.668,29.44,29.44,0,0,0-6.526,4.347" transform="translate(704.5 -2073.3)"/></g><g transform="translate(1723.181 -427.524)"><rect class="b" width="61.84" height="0.591" transform="translate(-654.298 2111.127)"/><path class="b" d="M-666.023,2115.055l-.561.088-1.033-3.721a13.078,13.078,0,0,0-3.16-.443,6.623,6.623,0,0,0-5.434,2.422,9.469,9.469,0,0,0-1.979,6.261,9.38,9.38,0,0,0,2.245,6.585,7.994,7.994,0,0,0,6.261,2.451,14.7,14.7,0,0,0,4.725-.856l.147.65a10.909,10.909,0,0,1-6.29,1.919,9.928,9.928,0,0,1-7.353-2.776,9.88,9.88,0,0,1-2.806-7.324,9.8,9.8,0,0,1,3.1-7.648,11.616,11.616,0,0,1,8.062-2.835,21.531,21.531,0,0,1,4.873.59l.088.118Z"/><path class="b" d="M-663.63,2110.093l-.06-.472c1.654-.325,3.19-.65,4.607-1l.119.118q-.089,2.3-.089,6.379v9.184c0,1.683,0,3.042.03,4.046a.511.511,0,0,0,.383.5l1.536.473.03.59c-1.27-.029-2.363-.029-3.308-.029-.915,0-2.008.029-3.278.029l-.059-.59,1.595-.473a.534.534,0,0,0,.384-.443c.029-1.063.029-2.244.029-3.544v-5.788c0-3.485-.029-6.29-.059-8.417Z"/><path class="b" d="M-655.037,2117.683a12.5,12.5,0,0,1,4.873-1.211,4.986,4.986,0,0,1,3.426,1.122,4.186,4.186,0,0,1,1.24,3.249l-.059,5.877c0,.472,0,.856.03,1.152a1.182,1.182,0,0,0,.265.679,1.255,1.255,0,0,0,.621.325,8.228,8.228,0,0,0,1.092.118l.059.561a14.567,14.567,0,0,1-1.476.472,6.528,6.528,0,0,1-1.182.237,1.883,1.883,0,0,1-1.89-1.418,6.55,6.55,0,0,1-3.75,1.418,4.9,4.9,0,0,1-3.19-.975,3.335,3.335,0,0,1-1.21-2.717,3.367,3.367,0,0,1,1.949-3.189,13.637,13.637,0,0,1,6.083-1.034l.03-1.093a3.055,3.055,0,0,0-.8-2.333,3.592,3.592,0,0,0-2.51-.767,13.6,13.6,0,0,0-3.219.472Zm6.852,5.818a9.545,9.545,0,0,0-4.046.59,2.2,2.2,0,0,0-1.093,2.038,2.246,2.246,0,0,0,.709,1.89,3,3,0,0,0,1.949.561,5.852,5.852,0,0,0,2.451-.5Z"/><path class="b" d="M-635.575,2117.919a6.8,6.8,0,0,0-1.772-.236,4.04,4.04,0,0,0-2.126.5,1.6,1.6,0,0,0-.8,1.418,1.776,1.776,0,0,0,.532,1.358,5.757,5.757,0,0,0,1.978.975l1.152.384a8.243,8.243,0,0,1,2.865,1.506,2.9,2.9,0,0,1,.915,2.244,3.565,3.565,0,0,1-1.535,3.071,6.357,6.357,0,0,1-3.84,1.123,12.063,12.063,0,0,1-4.4-.886,33.671,33.671,0,0,0,.768-3.574l.561-.088,1,3.041a5.712,5.712,0,0,0,2.038.3,3.672,3.672,0,0,0,2.1-.532,1.706,1.706,0,0,0,.8-1.506,1.915,1.915,0,0,0-.531-1.417,4.431,4.431,0,0,0-1.684-.916l-1.476-.5a5.547,5.547,0,0,1-2.629-1.536,3.453,3.453,0,0,1-.738-2.215,3.451,3.451,0,0,1,1.418-2.923,5.95,5.95,0,0,1,3.691-1.063,11.711,11.711,0,0,1,3.9.62c-.266,1.063-.5,2.215-.709,3.4l-.531.089Z"/><path class="b" d="M-624.442,2117.919a6.784,6.784,0,0,0-1.772-.236,4.042,4.042,0,0,0-2.126.5,1.6,1.6,0,0,0-.8,1.418,1.779,1.779,0,0,0,.531,1.358,5.765,5.765,0,0,0,1.979.975l1.152.384a8.247,8.247,0,0,1,2.864,1.506,2.9,2.9,0,0,1,.916,2.244,3.563,3.563,0,0,1-1.536,3.071,6.354,6.354,0,0,1-3.839,1.123,12.059,12.059,0,0,1-4.4-.886,33.93,33.93,0,0,0,.768-3.574l.561-.088,1,3.041a5.706,5.706,0,0,0,2.037.3,3.67,3.67,0,0,0,2.1-.532,1.7,1.7,0,0,0,.8-1.506,1.915,1.915,0,0,0-.532-1.417,4.418,4.418,0,0,0-1.683-.916l-1.477-.5a5.538,5.538,0,0,1-2.628-1.536,3.448,3.448,0,0,1-.739-2.215,3.453,3.453,0,0,1,1.418-2.923,5.953,5.953,0,0,1,3.692-1.063,11.72,11.72,0,0,1,3.9.62c-.266,1.063-.5,2.215-.709,3.4l-.532.089Z"/><path class="b" d="M-620.573,2117.476c1.654-.3,3.16-.649,4.577-.974l.119.088c-.059,1.211-.089,2.57-.089,4.046v5.405c0,1.122,0,1.919.03,2.333a.554.554,0,0,0,.354.5l1.624.472.03.591c-1.3-.03-2.422-.03-3.337-.03s-2.009.03-3.278.03l-.059-.591,1.624-.472a.509.509,0,0,0,.354-.443c.03-.355.03-.975.03-1.861v-4.725c0-1.24-.03-2.363-.059-3.4l-1.861-.5Zm4.755-5.965a1.56,1.56,0,0,1-.473,1.211,1.6,1.6,0,0,1-1.211.472,1.554,1.554,0,0,1-1.151-.443,1.555,1.555,0,0,1-.443-1.152,1.556,1.556,0,0,1,.472-1.21,1.722,1.722,0,0,1,1.24-.443,1.591,1.591,0,0,1,1.123.413A1.472,1.472,0,0,1-615.818,2111.511Z"/><path class="b" d="M-601.879,2128.876a8.619,8.619,0,0,1-2.156,1,8.675,8.675,0,0,1-2.569.413,6.676,6.676,0,0,1-4.873-1.772,6.361,6.361,0,0,1-1.831-4.754,6.9,6.9,0,0,1,2.067-5.228,7.294,7.294,0,0,1,5.257-2.008,10.015,10.015,0,0,1,4.016.857c-.325,1.27-.591,2.539-.827,3.868l-.561.089-1.152-3.4a4.542,4.542,0,0,0-1.476-.236,4.019,4.019,0,0,0-3.278,1.476,5.93,5.93,0,0,0-1.182,3.869,5.808,5.808,0,0,0,1.329,4.193,5.7,5.7,0,0,0,4.253,1.359,16.712,16.712,0,0,0,2.865-.266Z"/><path class="b" d="M-593.581,2117.919a6.79,6.79,0,0,0-1.772-.236,4.042,4.042,0,0,0-2.126.5,1.6,1.6,0,0,0-.8,1.418,1.779,1.779,0,0,0,.531,1.358,5.764,5.764,0,0,0,1.979.975l1.152.384a8.247,8.247,0,0,1,2.864,1.506,2.9,2.9,0,0,1,.916,2.244,3.563,3.563,0,0,1-1.536,3.071,6.357,6.357,0,0,1-3.839,1.123,12.059,12.059,0,0,1-4.4-.886,33.905,33.905,0,0,0,.767-3.574l.561-.088,1.005,3.041a5.7,5.7,0,0,0,2.037.3,3.672,3.672,0,0,0,2.1-.532,1.7,1.7,0,0,0,.8-1.506,1.915,1.915,0,0,0-.531-1.417,4.434,4.434,0,0,0-1.683-.916l-1.477-.5a5.537,5.537,0,0,1-2.628-1.536,3.447,3.447,0,0,1-.739-2.215,3.454,3.454,0,0,1,1.418-2.923,5.952,5.952,0,0,1,3.691-1.063,11.721,11.721,0,0,1,3.9.62c-.266,1.063-.5,2.215-.709,3.4l-.532.089Z"/></g></g></svg>