<svg xmlns="http://www.w3.org/2000/svg" xmlns:xlink="http://www.w3.org/1999/xlink" width="73.955" height="24.336" viewBox="0 0 73.955 24.336"><defs><style>.a{fill:none;}.b{fill:#1a1818;stroke:#fff;stroke-miterlimit:10;stroke-width:0.218px;}.c{clip-path:url(#a);}.d{fill:url(#b);}.e{fill:url(#c);}.f{fill:url(#d);}.g{fill:url(#e);}.h{fill:#f9f9f9;}.i{fill:#fff;font-size:5px;font-family:MyriadPro-Regular, Myriad Pro;}</style><clipPath id="a"><path class="a" d="M48.837,39.65l-3.316-1.917-6.415-3.7c-.36-.2-.706-.086-.706.346V49.468c0,.317.259.461.562.288l6.559-3.791,3.33-1.917L52.037,42.2c.375-.216.346-.519.029-.678Z" transform="translate(-38.4 -33.932)"/></clipPath><linearGradient id="b" x1="0.5" x2="0.5" y2="1" gradientUnits="objectBoundingBox"><stop offset="0" stop-color="#006aa2"/><stop offset="0.34" stop-color="#2f8da7"/><stop offset="0.79" stop-color="#66b6ad"/><stop offset="1" stop-color="#7cc6af"/></linearGradient><linearGradient id="c" x1="-0.001" y1="0.5" x2="1.001" y2="0.5" gradientUnits="objectBoundingBox"><stop offset="0" stop-color="#4ab59d"/><stop offset="1" stop-color="#dfe385"/></linearGradient><linearGradient id="d" x1="0.5" y1="-0.001" x2="0.5" y2="1.001" gradientUnits="objectBoundingBox"><stop offset="0" stop-color="#e4282d"/><stop offset="0.32" stop-color="#bb2e4f"/><stop offset="0.78" stop-color="#84357b"/><stop offset="1" stop-color="#6e388d"/></linearGradient><linearGradient id="e" x1="0.5" y1="0.002" x2="0.5" y2="0.999" gradientUnits="objectBoundingBox"><stop offset="0" stop-color="#f07165"/><stop offset="0.66" stop-color="#fba460"/><stop offset="1" stop-color="#ffba5e"/></linearGradient></defs><g transform="translate(0.109 0.109)"><g transform="translate(0 0)"><path class="b" d="M73.737,20.86a3.258,3.258,0,0,1-3.258,3.258H3.258A3.258,3.258,0,0,1,0,20.86V3.258A3.258,3.258,0,0,1,3.258,0H70.479a3.258,3.258,0,0,1,3.258,3.258Z"/><g transform="translate(5.536 4.892)"><g class="c"><path class="d" d="M38.4,32.2V48.533l8.231-8.159Z" transform="translate(-38.4 -32.45)"/><path class="e" d="M48.837,37.826l-3.316-1.917L38.4,31.8v.058l8.231,8.174Z" transform="translate(-38.4 -32.107)"/><path class="f" d="M38.4,97.059v.058l7.121-4.109,3.316-1.917L46.631,88.9Z" transform="translate(-38.4 -80.976)"/><path class="g" d="M97.706,73.6,95.5,75.806,97.706,78l3.806-2.191Z" transform="translate(-87.269 -67.881)"/></g></g><g transform="translate(55.17 10.668)"><path class="h" d="M384.92,92.113a2.062,2.062,0,0,1-.85-.173,1.6,1.6,0,0,1-.649-.533h-.058a6.369,6.369,0,0,1,.058.793V94.16H382.7V87.284h.591l.1.649h.029a1.672,1.672,0,0,1,.649-.562,1.961,1.961,0,0,1,.851-.173,1.734,1.734,0,0,1,1.456.649,2.959,2.959,0,0,1,.519,1.816,2.838,2.838,0,0,1-.519,1.816A1.759,1.759,0,0,1,384.92,92.113Zm-.1-4.31a1.259,1.259,0,0,0-1.052.4,2.139,2.139,0,0,0-.332,1.283v.159a2.381,2.381,0,0,0,.332,1.427,1.259,1.259,0,0,0,1.067.432,1.11,1.11,0,0,0,.966-.5,2.883,2.883,0,0,0,0-2.739,1.153,1.153,0,0,0-.995-.461Z" transform="translate(-382.7 -85.294)"/><path class="h" d="M419.021,80.732H418.3V74h.721Z" transform="translate(-413.168 -74)"/><path class="h" d="M432.557,92.029l-.144-.678h-.029a1.99,1.99,0,0,1-.706.605,2.148,2.148,0,0,1-.879.159,1.607,1.607,0,0,1-1.11-.36,1.326,1.326,0,0,1-.4-1.038q0-1.442,2.307-1.514l.807-.029v-.288a1.167,1.167,0,0,0-.245-.822,1.006,1.006,0,0,0-.764-.259,3.128,3.128,0,0,0-1.341.36l-.231-.548a3.387,3.387,0,0,1,.764-.3,3.33,3.33,0,0,1,.836-.115,1.8,1.8,0,0,1,1.254.375,1.586,1.586,0,0,1,.4,1.211v3.244Zm-1.629-.5a1.456,1.456,0,0,0,1.052-.375,1.37,1.37,0,0,0,.389-1.038V89.68l-.721.029a2.512,2.512,0,0,0-1.24.274.807.807,0,0,0-.375.735.735.735,0,0,0,.231.591A.98.98,0,0,0,430.928,91.525Z" transform="translate(-422.567 -85.297)"/><path class="h" d="M458.6,87.8h.764l1.038,2.71a10.337,10.337,0,0,1,.418,1.341h.029q.058-.216.231-.75t1.182-3.287h.778l-2.047,5.406a2.666,2.666,0,0,1-.706,1.139,1.514,1.514,0,0,1-.995.332,2.9,2.9,0,0,1-.649-.072v-.577a2.508,2.508,0,0,0,.533.058,1.1,1.1,0,0,0,1.052-.836l.259-.678Z" transform="translate(-447.658 -85.811)"/></g><g transform="translate(22.373 10.134)"><path class="h" d="M283.69,88.675a1.672,1.672,0,0,1,.706,1.341,1.69,1.69,0,0,1-.836,1.413.705.705,0,0,0-.274.49.548.548,0,0,0,.259.432l.36.274a1.756,1.756,0,0,1,.836,1.4c0,.937-.908,1.874-2.609,1.874-1.442,0-2.134-.692-2.134-1.427a1.412,1.412,0,0,1,.764-1.211,4.68,4.68,0,0,1,1.9-.461,1,1,0,0,1-.3-.678.893.893,0,0,1,.1-.389h-.317a1.562,1.562,0,0,1-1.643-1.557,1.788,1.788,0,0,1,.634-1.326,2.726,2.726,0,0,1,1.773-.548h2.047l-.634.36Zm-.706,4.411h-.231a3.965,3.965,0,0,0-1.038.159,1.108,1.108,0,0,0-.851,1.024c0,.706.692,1.211,1.744,1.211s1.456-.461,1.456-1.067S283.748,93.619,282.984,93.086Zm.288-1.888a1.009,1.009,0,0,0,.245-.721c0-.721-.432-1.831-1.254-1.831a.923.923,0,0,0-.692.332,1.153,1.153,0,0,0-.216.735c0,.663.389,1.773,1.24,1.773A1.024,1.024,0,0,0,283.272,91.2Z" transform="translate(-262.009 -85.705)"/><path class="h" d="M247.822,92.24a2.335,2.335,0,0,1-2.422-2.335,2.46,2.46,0,0,1,2.566-2.407,2.321,2.321,0,0,1,2.364,2.335A2.414,2.414,0,0,1,247.822,92.24Zm1.24-.807a1.787,1.787,0,0,0,.3-1.1c0-.879-.418-2.537-1.643-2.537a1.384,1.384,0,0,0-.894.332,1.491,1.491,0,0,0-.461,1.211c0,.98.49,2.595,1.687,2.595a1.269,1.269,0,0,0,1.009-.5Z" transform="translate(-232.397 -85.018)"/><path class="h" d="M210.522,92.24a2.335,2.335,0,0,1-2.422-2.335,2.46,2.46,0,0,1,2.566-2.407,2.321,2.321,0,0,1,2.364,2.335A2.414,2.414,0,0,1,210.522,92.24Zm1.24-.807a1.8,1.8,0,0,0,.3-1.1c0-.879-.418-2.537-1.643-2.537a1.384,1.384,0,0,0-.894.332,1.491,1.491,0,0,0-.461,1.211c0,.98.49,2.595,1.687,2.595A1.269,1.269,0,0,0,211.762,91.433Z" transform="translate(-200.474 -85.018)"/><path class="h" d="M162.076,78.733l-1.427.332a10.567,10.567,0,0,1-1.643.173,3.544,3.544,0,0,1-3.806-3.6,3.772,3.772,0,0,1,4.022-3.734,5.737,5.737,0,0,1,1.528.216,3.892,3.892,0,0,1,1.312.62l-.822.764-.346.086.245-.4a2.842,2.842,0,0,0-2.134-.937,2.76,2.76,0,0,0-2.768,2.941,3.624,3.624,0,0,0,3.546,3.647,2.97,2.97,0,0,0,1.269-.245V76.974l-1.5.087.793-.432h2.119l-.259.245a.231.231,0,0,0-.1.159c-.014.086-.014.375-.014.476Z" transform="translate(-155.2 -71.669)"/><path class="h" d="M314.919,77.075c-.332-.029-.4-.086-.4-.476V70.891c.043-.346.144-.4.447-.591H313.55l-.75.36h.764v6.156c0,.2-.043.231-.274.533h1.759l.375-.216Z" transform="translate(-290.081 -70.3)"/><path class="h" d="M334.118,91.71l-.332.173a2.307,2.307,0,0,1-.966.187,2.119,2.119,0,0,1-1.312-.389,2.537,2.537,0,0,1-1.009-2.09,2.256,2.256,0,0,1,2.263-2.292,1.932,1.932,0,0,1,1.024.274,1.644,1.644,0,0,1,.692.98l-2.321.966-.764.058a2.2,2.2,0,0,0,2.047,1.989,2.566,2.566,0,0,0,1.211-.346Zm-.937-2.955c.187-.072.288-.13.288-.274a.988.988,0,0,0-.98-.851c-.533,0-1.139.3-1.139,1.37,0,.173.014.346.029.519Z" transform="translate(-305.229 -84.848)"/><g transform="translate(29.553 2.465)"><path class="h" d="M360.5,87.472v.649h-.086v-.649H360.2V87.4h.5v.072Z" transform="translate(-360.2 -87.4)"/><path class="h" d="M365.233,88.121v-.663h0l-.2.663h-.058l-.2-.663h0v.663H364.7V87.4h.13l.187.577h0l.187-.577h.13v.721Z" transform="translate(-364.051 -87.4)"/></g></g><text class="i" transform="translate(22.357 7.4)"><tspan x="0" y="0">Disponible en</tspan></text></g></g></svg>