<svg xmlns="http://www.w3.org/2000/svg" xmlns:xlink="http://www.w3.org/1999/xlink" width="142.999" height="98.56" viewBox="0 0 142.999 98.56"><defs><style>.a{fill:#fff;}.b{fill:#007cc3;}.c{fill:#e61335;}.d{fill:#0e0d0d;}.e{fill:#0b0b0b;}.f{fill:#121111;}.g{filter:url(#a);}</style><filter id="a" x="0" y="0" width="142.999" height="98.56" filterUnits="userSpaceOnUse"><feOffset dy="3" input="SourceAlpha"/><feGaussianBlur stdDeviation="3" result="b"/><feFlood flood-opacity="0.161"/><feComposite operator="in" in2="b"/><feComposite in="SourceGraphic"/></filter></defs><g transform="translate(-889.442 -1181.942)"><g class="g" transform="matrix(1, 0, 0, 1, 889.44, 1181.94)"><path class="a" d="M-823.812,1831.859a15.283,15.283,0,0,0-4.589,10.263l-3.722,40.436a13.5,13.5,0,0,0,13.505,13.505l80.427.869a4.82,4.82,0,0,0,.814.056,9.607,9.607,0,0,0,1.8-.175,23.821,23.821,0,0,0,4.049-1.122,30.518,30.518,0,0,0,7.185-3.505,25.649,25.649,0,0,0,6.4-6.611,47.866,47.866,0,0,0,5.826-11.336c4.635-12.822,6.222-25.5,4.01-37.973a28.265,28.265,0,0,0-3.74-10.113,15.508,15.508,0,0,0-8.876-6.686,63.02,63.02,0,0,0-13.22-2.435,181.3,181.3,0,0,0-27.106-.193,259.491,259.491,0,0,0-35.366,4.406,151.13,151.13,0,0,0-15.621,3.881,46.209,46.209,0,0,0-4.62,1.668,29.436,29.436,0,0,0-6.526,4.347" transform="translate(841.12 -1810.43)"/></g><g transform="translate(1730.565 -628.487)"><path class="b" d="M-772.428,1829.758a.373.373,0,0,0,.313.206,8.924,8.924,0,0,1,6.489,4.8,8.794,8.794,0,0,1,.993,5.006,8.973,8.973,0,0,1-2.6,5.691,9.08,9.08,0,0,1-5.016,2.663,8.811,8.811,0,0,1-5.106-.558,9.137,9.137,0,0,1-4.812-4.426,8.838,8.838,0,0,1-.894-5.151,9.242,9.242,0,0,1,1.827-4.592,8.831,8.831,0,0,1,5.684-3.457c.124-.021.18-.068.183-.186Z"/><path class="c" d="M-765.51,1858.27c0,2.632-.008,5.265.008,7.9,0,.368-.077.482-.468.481q-7.9-.021-15.8,0c-.424,0-.486-.14-.486-.514q.016-7.846,0-15.693c0-.409.084-.536.518-.535q7.847.025,15.694,0c.472,0,.541.15.539.569C-765.52,1853.073-765.511,1855.671-765.51,1858.27Z"/><path class="d" d="M-785.255,1876.005c-.532.818-1.049,1.611-1.564,2.405-.377.58-.375.58-.757.005-.52-.783-1.042-1.563-1.567-2.352-.132.071-.066.2-.066.3-.005,1.221-.012,2.443,0,3.665,0,.281-.045.409-.364.39-.481-.028-.966-.014-1.449,0-.2,0-.3-.018-.3-.267q.013-3.6,0-7.2c0-.2.061-.274.266-.27q.873.016,1.747,0a.508.508,0,0,1,.459.315c.485.791.971,1.581,1.445,2.378.145.246.226.331.411.02.5-.845,1.04-1.669,1.545-2.514a.363.363,0,0,1,.373-.2c.554.007,1.108.013,1.662,0,.265-.008.368.053.366.35q-.02,3.516,0,7.032c0,.269-.055.377-.347.362-.481-.025-.967-.023-1.449,0-.265.011-.333-.069-.33-.332.015-1.208.009-2.415,0-3.623A.589.589,0,0,0-785.255,1876.005Z"/><path class="d" d="M-751.647,1876.826c0-1.308.014-2.5-.008-3.683-.007-.359.057-.514.456-.478a11.257,11.257,0,0,0,1.363,0c.248-.009.309.083.309.32q-.012,3.517,0,7.035c0,.3-.1.384-.4.388-1.531.02-1.522.019-2.524-1.318-.722-.962-1.472-1.9-2.284-2.944v.767c0,1.023-.009,2.046.006,3.069,0,.3-.063.444-.4.426-.468-.025-.939-.017-1.407,0-.234.007-.318-.053-.318-.3q.014-3.561,0-7.12c0-.243.071-.331.313-.317a3.311,3.311,0,0,0,.808,0c.7-.135,1.068.256,1.442.761C-753.454,1874.547-752.577,1875.633-751.647,1876.826Z"/><path class="e" d="M-766,1877.665c0,.455-.015.91.007,1.364a.58.58,0,0,1-.26.538,4.978,4.978,0,0,1-5.438.337,3.663,3.663,0,0,1-1.83-3.149,3.866,3.866,0,0,1,1.683-3.487,4.73,4.73,0,0,1,5.285.13c.22.17.275.284.095.5-.291.343-.579.687-.859,1.039-.148.187-.286.132-.43.012a2.433,2.433,0,0,0-1.311-.523,2.137,2.137,0,0,0-2.159,2.976,2.179,2.179,0,0,0,2.967,1.133,1,1,0,0,0,.277-1.032c-.072-.092-.184-.057-.28-.059-.341,0-.682-.01-1.023,0-.189.007-.261-.063-.236-.245,0-.014,0-.028,0-.043.007-.41-.141-.945.063-1.2s.772-.07,1.178-.08c.654-.015,1.307.005,1.961-.008.234-.006.326.053.316.3C-766.01,1876.67-766,1877.168-766,1877.665Z"/><path class="d" d="M-764.539,1876.521c0-1.166.009-2.331-.007-3.5,0-.281.075-.358.354-.356q2.771.016,5.542,0c.275,0,.378.065.357.354a7.6,7.6,0,0,0,0,1.108c.024.315-.1.371-.386.367-1.123-.015-2.246.005-3.368-.013-.306-.005-.416.057-.407.391.023.76,0,.761.749.761.81,0,1.62.008,2.43-.005.241-.005.325.066.312.31a10.5,10.5,0,0,0,0,1.065c.014.277-.084.378-.365.374-.938-.013-1.876-.005-2.814-.005-.082,0-.229-.031-.238-.008a2.549,2.549,0,0,0-.047,1.092c.019.234.272.148.427.149,1.123.006,2.246.013,3.368,0,.313-.005.449.084.413.408-.05.446.2,1.019-.1,1.309-.278.268-.84.077-1.276.08-1.507.01-3.013-.007-4.519.012-.35,0-.433-.109-.427-.44C-764.528,1878.823-764.539,1877.672-764.539,1876.521Z"/><path class="e" d="M-782.3,1880.405c.354-.852.682-1.655,1.021-2.454.714-1.681,1.442-3.356,2.141-5.044a.411.411,0,0,1,.469-.3,10.12,10.12,0,0,0,1.278-.006c.363-.035.507.15.623.431q.659,1.6,1.326,3.194c.523,1.243,1.055,2.482,1.577,3.726.189.449.182.452-.294.452h-.98c-.838,0-.873.011-1.125-.807a.715.715,0,0,0-.867-.6c-.693.048-1.392.022-2.088.008a.381.381,0,0,0-.431.3c-.128.369-.2.857-.471,1.046s-.74.049-1.123.052C-781.577,1880.407-781.913,1880.405-782.3,1880.405Zm4.28-5.287c-.307.792-.578,1.49-.863,2.223.537,0,1.019,0,1.5,0,.124,0,.279.03.187-.194C-777.458,1876.5-777.717,1875.856-778.017,1875.118Z"/><path class="e" d="M-793.085,1876.543c0,1.177-.007,2.355.005,3.533,0,.249-.046.35-.322.337-.5-.025-.994-.019-1.489,0-.228.007-.283-.067-.282-.287q.01-3.576,0-7.152c0-.254.09-.309.32-.3.482.014.966.02,1.447,0,.273-.012.33.088.328.342C-793.092,1874.187-793.085,1875.365-793.085,1876.543Z"/><path class="f" d="M-757.945,1888.576a2.652,2.652,0,0,1-2.75-2.724,2.677,2.677,0,0,1,2.743-2.708,2.671,2.671,0,0,1,2.779,2.708A2.709,2.709,0,0,1-757.945,1888.576Zm1.775-2.723a1.793,1.793,0,0,0-1.749-1.88,1.758,1.758,0,0,0-1.829,1.89,1.754,1.754,0,0,0,1.779,1.913A1.706,1.706,0,0,0-756.17,1885.853Z"/><path class="d" d="M-753.326,1884.833v2.588a5.219,5.219,0,0,0,.005.638c.044.347-.066.469-.433.451-.3-.014-.416-.051-.412-.391.021-1.491.007-2.982.013-4.473,0-.154-.084-.4.158-.416s.528-.151.744.127c.754.979,1.516,1.95,2.276,2.925l.441.567c.144-.073.074-.2.075-.3.005-1.008.023-2.017-.007-3.024-.011-.388.213-.315.428-.314s.441-.086.435.306c-.023,1.5-.006,3.01-.015,4.515,0,.151.106.406-.1.439-.255.041-.561.138-.782-.149q-1.3-1.7-2.619-3.4C-753.152,1884.881-753.168,1884.822-753.326,1884.833Z"/><path class="d" d="M-780.86,1885.876c0-.768.009-1.534-.005-2.3-.006-.277.083-.372.364-.369,1.066.013,2.131.02,3.2,0,.327-.008.345.144.318.378-.024.208.127.5-.309.481-.78-.028-1.562,0-2.342-.014-.27-.007-.326.08-.327.336,0,1.048-.012,1.048,1.015,1.048.455,0,.911.025,1.364-.007.388-.028.307.218.315.434.01.236.037.441-.33.425-.666-.029-1.335,0-2-.013-.264-.007-.4.044-.359.343.045.361-.156.846.086,1.056.2.179.674.058,1.027.062.54,0,1.08.022,1.619-.007.319-.018.344.131.326.375-.015.2.065.414-.3.406-1.121-.025-2.244-.018-3.366,0-.267,0-.3-.11-.294-.328C-780.855,1887.41-780.86,1886.643-780.86,1885.876Z"/><path class="f" d="M-790.8,1885.875c0-.768.01-1.535-.005-2.3-.006-.282.093-.369.37-.366,1.066.012,2.133.022,3.2,0,.372-.009.329.2.324.426s.06.45-.322.435c-.767-.029-1.536.006-2.3-.015-.289-.009-.346.087-.345.356,0,1.028-.005,1.028,1.032,1.028.455,0,.911.018,1.364-.005.389-.021.259.249.262.428s.114.44-.267.428c-.682-.022-1.365,0-2.047-.011-.237,0-.371.021-.344.313.034.365-.113.845.07,1.07s.692.065,1.057.074c.54.013,1.081.023,1.619,0,.324-.016.293.169.287.37s.069.418-.292.411c-1.122-.022-2.246-.017-3.369,0-.264,0-.3-.1-.293-.326C-790.8,1887.41-790.8,1886.643-790.8,1885.875Z"/><path class="f" d="M-765.719,1888.576a3.507,3.507,0,0,1-1.968-.639c-.292-.2-.139-.308,0-.449s.165-.5.524-.224a2,2,0,0,0,1.84.464c.276-.08.522-.209.55-.553a.639.639,0,0,0-.479-.709c-.5-.184-1.031-.245-1.526-.46a1.326,1.326,0,0,1-.955-1.424,1.6,1.6,0,0,1,1.261-1.359,3.021,3.021,0,0,1,2.14.372c.19.111.376.249.133.482-.154.146-.167.512-.568.249a1.716,1.716,0,0,0-1.682-.244.549.549,0,0,0-.374.557.545.545,0,0,0,.4.539c.463.151.936.275,1.391.445.952.356,1.308.865,1.181,1.64a1.7,1.7,0,0,1-1.776,1.313Z"/><path class="f" d="M-776.141,1883.211a4.434,4.434,0,0,0,.508,0c.371-.047.547.1.68.463.44,1.2.927,2.377,1.429,3.646.345-.877.661-1.679.977-2.481.154-.392.342-.774.458-1.177a.53.53,0,0,1,.671-.452,3.369,3.369,0,0,0,.467,0c-.283.709-.542,1.373-.813,2.032-.4.975-.813,1.945-1.215,2.919-.1.238-.171.444-.516.427a.56.56,0,0,1-.594-.4C-774.746,1886.544-775.434,1884.916-776.141,1883.211Z"/><path class="f" d="M-794.373,1886.244c0-.625-.016-1.25.008-1.873.01-.277-.085-.336-.337-.321-.354.02-.71-.007-1.064.009-.238.011-.355-.064-.311-.31.036-.205-.142-.535.274-.536q1.9-.008,3.79,0c.422,0,.227.337.268.54.048.244-.068.319-.308.306-.339-.018-.683.023-1.02-.012s-.388.1-.384.4c.017,1.22-.01,2.441.018,3.662.009.378-.15.409-.444.391-.264-.016-.531.065-.5-.385C-794.341,1887.495-794.373,1886.869-794.373,1886.244Z"/><path class="f" d="M-785.6,1885.9c0-.782.016-1.564-.007-2.345-.013-.44.278-.328.515-.344s.427-.032.42.331c-.023,1.25,0,2.5-.017,3.751,0,.308.087.377.379.368.7-.022,1.393.01,2.088-.014.422-.013.341.258.365.508.029.294-.093.353-.363.35q-1.514-.023-3.027,0c-.268,0-.369-.054-.361-.346C-785.591,1887.406-785.6,1886.652-785.6,1885.9Z"/><path class="e" d="M-761.787,1885.863c0,.78-.019,1.561.009,2.34.013.365-.208.313-.406.287s-.51.177-.506-.273q.018-2.34,0-4.679c0-.488.345-.284.57-.325.244-.044.348.029.34.311C-761.8,1884.3-761.787,1885.083-761.787,1885.863Z"/><path class="e" d="M-769.13,1885.916c0,.752-.023,1.506.01,2.257.018.418-.241.318-.463.323s-.467.074-.461-.332c.023-1.533.02-3.067,0-4.6-.005-.384.214-.351.466-.356s.465-.009.453.365C-769.147,1884.354-769.13,1885.135-769.13,1885.916Z"/><path class="f" d="M-757.709,1882.721c-.165-.016-.432.021-.474-.06-.092-.177.164-.283.234-.443.225-.521.664-.562,1.147-.5.108.014.245-.022.171.177A1.423,1.423,0,0,1-757.709,1882.721Z"/></g></g></svg>