<svg xmlns="http://www.w3.org/2000/svg" xmlns:xlink="http://www.w3.org/1999/xlink" width="148.84" height="102.324" viewBox="0 0 148.84 102.324">
  <defs>
    <filter id="Trazado_2277" x="0" y="0" width="148.84" height="102.324" filterUnits="userSpaceOnUse">
      <feOffset dy="3" input="SourceAlpha"/>
      <feGaussianBlur stdDeviation="3" result="blur"/>
      <feFlood flood-opacity="0.161"/>
      <feComposite operator="in" in2="blur"/>
      <feComposite in="SourceGraphic"/>
    </filter>
  </defs>
  <g id="IMAGEN_3.2" transform="translate(-778 -1349)">
    <g transform="matrix(1, 0, 0, 1, 778, 1349)" filter="url(#Trazado_2277)">
      <path id="Trazado_2277-2" data-name="Trazado 2277" d="M-1097.866,1638.639a15.993,15.993,0,0,0-4.8,10.742l-3.9,42.326a14.135,14.135,0,0,0,14.136,14.136l84.185.91a5.1,5.1,0,0,0,.852.058,10.086,10.086,0,0,0,1.881-.183,24.86,24.86,0,0,0,4.238-1.174,31.988,31.988,0,0,0,7.521-3.669,26.846,26.846,0,0,0,6.7-6.92,50.062,50.062,0,0,0,6.1-11.865c4.852-13.422,6.513-26.692,4.2-39.748a29.582,29.582,0,0,0-3.916-10.585,16.216,16.216,0,0,0-9.29-7,65.926,65.926,0,0,0-13.838-2.549,189.636,189.636,0,0,0-28.372-.2,271.607,271.607,0,0,0-37.019,4.612,158.232,158.232,0,0,0-16.351,4.062,48.247,48.247,0,0,0-4.836,1.746,30.8,30.8,0,0,0-6.831,4.55" transform="translate(1115.56 -1616.49)" fill="#fff"/>
    </g>
    <text id="IMAGEN_3.2-2" data-name="IMAGEN
3.2" transform="translate(852 1393)" fill="#1c2232" font-size="20" font-family="Arial-Black, Arial Black" font-weight="800"><tspan x="-44.81" y="0">IMAGEN</tspan><tspan x="-16.67" y="24">3.2</tspan></text>
  </g>
</svg>
