<svg xmlns="http://www.w3.org/2000/svg" xmlns:xlink="http://www.w3.org/1999/xlink" width="143" height="98.56" viewBox="0 0 143 98.56"><defs><style>.a{fill:#fff;}.b{fill:#5d1d7d;}.c{filter:url(#a);}</style><filter id="a" x="0" y="0" width="143" height="98.56" filterUnits="userSpaceOnUse"><feOffset dy="3" input="SourceAlpha"/><feGaussianBlur stdDeviation="3" result="b"/><feFlood flood-opacity="0.161"/><feComposite operator="in" in2="b"/><feComposite in="SourceGraphic"/></filter></defs><g transform="translate(-1024.336 -1180.589)"><g class="c" transform="matrix(1, 0, 0, 1, 1024.34, 1180.59)"><path class="a" d="M-688.918,1830.506a15.287,15.287,0,0,0-4.588,10.263l-3.723,40.437a13.506,13.506,0,0,0,13.505,13.505l80.428.869a4.906,4.906,0,0,0,.813.055,9.589,9.589,0,0,0,1.8-.175,23.82,23.82,0,0,0,4.049-1.122,30.514,30.514,0,0,0,7.185-3.505,25.656,25.656,0,0,0,6.4-6.611,47.88,47.88,0,0,0,5.825-11.335c4.635-12.823,6.223-25.5,4.01-37.974a28.232,28.232,0,0,0-3.74-10.112,15.5,15.5,0,0,0-8.876-6.687,63.027,63.027,0,0,0-13.22-2.435,181.286,181.286,0,0,0-27.1-.193,259.544,259.544,0,0,0-35.367,4.406,151.442,151.442,0,0,0-15.621,3.881,46.292,46.292,0,0,0-4.62,1.668,29.481,29.481,0,0,0-6.526,4.347" transform="translate(706.23 -1809.08)"/></g><g transform="translate(1730.565 -628.487)"><path class="b" d="M-654.349,1849.459h1.668l0,10.412h-1.669Z"/><path class="b" d="M-652.677,1859.961h-1.669a.089.089,0,0,1-.091-.09l0-10.412a.09.09,0,0,1,.092-.091h1.668a.087.087,0,0,1,.089.09l0,10.412A.089.089,0,0,1-652.677,1859.961Zm-1.579-.177h1.487l0-10.235h-1.487Z"/><path class="b" d="M-648.8,1852.2v.977a3.408,3.408,0,0,1,2.5-1.125,2.9,2.9,0,0,1,1.443.371,2.479,2.479,0,0,1,1.014,1.015,4.5,4.5,0,0,1,.351,2.048l0,4.385h-1.645V1855.5a2.811,2.811,0,0,0-.39-1.68,1.541,1.541,0,0,0-1.3-.5,2.4,2.4,0,0,0-1.975,1.076v5.478h-1.678l0-7.674Z"/><path class="b" d="M-643.489,1859.958h-1.645a.089.089,0,0,1-.09-.09V1855.5a2.775,2.775,0,0,0-.369-1.628,1.477,1.477,0,0,0-1.232-.466,2.313,2.313,0,0,0-1.884,1.019l0,5.445a.089.089,0,0,1-.091.09h-1.678a.089.089,0,0,1-.092-.09l0-7.674a.088.088,0,0,1,.092-.087h1.678a.089.089,0,0,1,.091.088v.764a3.447,3.447,0,0,1,2.411-1,3.048,3.048,0,0,1,1.487.38,2.594,2.594,0,0,1,1.051,1.056,4.637,4.637,0,0,1,.36,2.089v4.385A.09.09,0,0,1-643.489,1859.958Zm-1.556-.177h1.462v-4.3a4.5,4.5,0,0,0-.335-2,2.441,2.441,0,0,0-.981-.98,2.822,2.822,0,0,0-1.4-.36,3.347,3.347,0,0,0-2.44,1.1.091.091,0,0,1-.1.022.1.1,0,0,1-.055-.085v-.885h-1.5l0,7.494h1.5l0-5.391a.1.1,0,0,1,.018-.055,2.506,2.506,0,0,1,2.048-1.111,1.629,1.629,0,0,1,1.373.54,2.882,2.882,0,0,1,.407,1.734Z"/><path class="b" d="M-624.237,1852.188v.977a3.424,3.424,0,0,1,2.5-1.126,2.924,2.924,0,0,1,1.444.371,2.5,2.5,0,0,1,1.016,1.015,4.527,4.527,0,0,1,.35,2.049v4.385h-1.645l0-4.369a2.817,2.817,0,0,0-.386-1.68,1.549,1.549,0,0,0-1.3-.5,2.418,2.418,0,0,0-1.98,1.076l0,5.478h-1.678l0-7.674Z"/><path class="b" d="M-618.924,1859.95h-1.645a.089.089,0,0,1-.089-.09v-4.369a2.735,2.735,0,0,0-.371-1.627,1.468,1.468,0,0,0-1.227-.467,2.321,2.321,0,0,0-1.888,1.019l0,5.445a.09.09,0,0,1-.092.09h-1.678a.089.089,0,0,1-.089-.09l0-7.674a.088.088,0,0,1,.089-.087h1.678a.089.089,0,0,1,.091.088v.764a3.448,3.448,0,0,1,2.41-1,3.061,3.061,0,0,1,1.489.379,2.608,2.608,0,0,1,1.051,1.057,4.605,4.605,0,0,1,.359,2.089v4.385A.09.09,0,0,1-618.924,1859.95Zm-1.552-.178h1.462v-4.3a4.474,4.474,0,0,0-.338-2,2.438,2.438,0,0,0-.981-.981,2.843,2.843,0,0,0-1.4-.359,3.335,3.335,0,0,0-2.435,1.1.1.1,0,0,1-.1.022.092.092,0,0,1-.058-.085v-.884h-1.5l0,7.493h1.5l0-5.391a.09.09,0,0,1,.018-.054,2.513,2.513,0,0,1,2.051-1.113,1.64,1.64,0,0,1,1.371.538,2.911,2.911,0,0,1,.409,1.736Z"/><path class="b" d="M-641.637,1854.848a2.349,2.349,0,0,1,.9-1.94,3.827,3.827,0,0,1,2.448-.716h3.161v1.185h-1.549a3.294,3.294,0,0,1,.624.833,2.036,2.036,0,0,1,.175.86,2.3,2.3,0,0,1-.342,1.182,2.406,2.406,0,0,1-.878.888,5.361,5.361,0,0,1-1.763.49c-.575.084-.689.227-.733.358-.056.171-.083.354.122.483s.861-.173,1.436-.181a3.971,3.971,0,0,1,1.367.2,2.272,2.272,0,0,1,.778.424,1.849,1.849,0,0,1,.694,1.316,2,2,0,0,1-.783,1.835,4.575,4.575,0,0,1-2.513.921,4.66,4.66,0,0,1-2.677-.373,2.023,2.023,0,0,1-1.16-1.644c-.11-1.032.467-1.737,1.7-2.2-.2.074-.358-.264-.331-.584.023-.243-.087-.27.131-.472a2.09,2.09,0,0,1,.889-.44A2.525,2.525,0,0,1-641.637,1854.848Zm2.342,4.652a2.216,2.216,0,0,0-1.215.454.974.974,0,0,0-.4.882q.123,1.18,2.249.952a3.392,3.392,0,0,0,1.524-.459.916.916,0,0,0,.461-.893c-.038-.352-.3-.617-.788-.792A4.2,4.2,0,0,0-639.295,1859.5Zm.51-5.988a1.45,1.45,0,0,0-1.052.418,1.34,1.34,0,0,0-.431,1,1.267,1.267,0,0,0,.424.977,1.534,1.534,0,0,0,1.075.39,1.515,1.515,0,0,0,1.072-.4,1.282,1.282,0,0,0,.429-.989,1.311,1.311,0,0,0-.433-1A1.535,1.535,0,0,0-638.785,1853.512Z"/><path class="b" d="M-639.732,1863.1a3.893,3.893,0,0,1-1.488-.406,2.112,2.112,0,0,1-1.2-1.715,2.066,2.066,0,0,1,1.532-2.2.838.838,0,0,1-.161-.6.82.82,0,0,1,.306-.568,1.151,1.151,0,0,1,.553-.355,2.567,2.567,0,0,1-1.532-2.408,2.438,2.438,0,0,1,.93-2.01,3.918,3.918,0,0,1,2.5-.733h3.161a.088.088,0,0,1,.09.087v1.185a.087.087,0,0,1-.089.09h-1.341a2.951,2.951,0,0,1,.495.707,2.054,2.054,0,0,1,.185.9,2.421,2.421,0,0,1-.353,1.228,2.535,2.535,0,0,1-.912.919,5.357,5.357,0,0,1-1.8.5c-.575.085-.638.227-.661.3-.064.2-.041.3.086.38a.183.183,0,0,0,.065.017,2.1,2.1,0,0,0,.51-.083,3.91,3.91,0,0,1,.811-.131c.165,0,.325.005.478.016a4.143,4.143,0,0,1,.919.188,2.444,2.444,0,0,1,.807.437,1.984,1.984,0,0,1,.727,1.382,2.093,2.093,0,0,1-.815,1.911,4.688,4.688,0,0,1-2.563.943A6.386,6.386,0,0,1-639.732,1863.1Zm-.868-4.246c-1.225.46-1.748,1.131-1.645,2.109a1.906,1.906,0,0,0,1.112,1.57,4.572,4.572,0,0,0,2.626.365,4.525,4.525,0,0,0,2.466-.9,1.912,1.912,0,0,0,.751-1.759,1.8,1.8,0,0,0-.66-1.256,2.224,2.224,0,0,0-.749-.4,3.6,3.6,0,0,0-.882-.18,3.621,3.621,0,0,0-.46-.016,3.493,3.493,0,0,0-.771.123c-.324.077-.58.128-.713.041a.456.456,0,0,1-.158-.584c.068-.21.257-.342.8-.421a5.2,5.2,0,0,0,1.73-.481,2.319,2.319,0,0,0,.848-.855,2.209,2.209,0,0,0,.33-1.136,1.942,1.942,0,0,0-.168-.82,3.145,3.145,0,0,0-.609-.81.089.089,0,0,1-.018-.1.1.1,0,0,1,.085-.054h1.46v-1h-3.072a3.735,3.735,0,0,0-2.391.7,2.265,2.265,0,0,0-.862,1.866,2.417,2.417,0,0,0,1.64,2.342.081.081,0,0,1,.052.09.088.088,0,0,1-.065.082,1.934,1.934,0,0,0-.85.421c-.2.183-.082.194-.1.41-.023.253.081.488.178.5a.119.119,0,0,0,.03,0h0a.09.09,0,0,1,.118.049.091.091,0,0,1-.054.117Zm.97,3.05h0c-.84-.076-1.3-.428-1.366-1.059a1.056,1.056,0,0,1,.428-.958,2.325,2.325,0,0,1,1.263-.476,4.291,4.291,0,0,1,1.874.15c.521.188.808.48.848.865a1,1,0,0,1-.5.978,3.519,3.519,0,0,1-1.566.476A5.521,5.521,0,0,1-639.63,1861.9Zm1.36-2.332a5.148,5.148,0,0,0-1.016.019,2.124,2.124,0,0,0-1.165.435.877.877,0,0,0-.366.8c.078.729.789,1.015,2.149.87a3.292,3.292,0,0,0,1.483-.443.829.829,0,0,0,.423-.808c-.033-.316-.272-.552-.728-.718A3.131,3.131,0,0,0-638.27,1859.571Zm-.5-3.184a1.633,1.633,0,0,1-1.136-.409,1.371,1.371,0,0,1-.455-1.046,1.434,1.434,0,0,1,.462-1.068,1.554,1.554,0,0,1,1.113-.443,1.63,1.63,0,0,1,1.145.423,1.4,1.4,0,0,1,.462,1.068,1.377,1.377,0,0,1-.456,1.054A1.611,1.611,0,0,1-638.769,1856.387Zm-.016-2.785a1.372,1.372,0,0,0-.989.393,1.249,1.249,0,0,0-.405.937,1.164,1.164,0,0,0,.4.909,1.444,1.444,0,0,0,1.013.366,1.424,1.424,0,0,0,1.013-.372,1.2,1.2,0,0,0,.4-.923,1.217,1.217,0,0,0-.406-.934A1.442,1.442,0,0,0-638.785,1853.6Z"/><path class="b" d="M-628.909,1859.778a5.9,5.9,0,0,1-1.615.205,3.654,3.654,0,0,1-2.052-.526,3.842,3.842,0,0,1-1.255-1.414,4.332,4.332,0,0,1-.472-2.056,4.082,4.082,0,0,1,.992-2.848,3.319,3.319,0,0,1,2.576-1.1,3.034,3.034,0,0,1,2.437,1.066,4.267,4.267,0,0,1,.909,2.859v.191l-5.4,0a2.512,2.512,0,0,0,.741,1.753,2.422,2.422,0,0,0,1.754.649s2.384-.148,2.626-.509v1.2A8.934,8.934,0,0,1-628.909,1859.778Zm-3.842-4.523,3.863,0a2.133,2.133,0,0,0-.545-1.4,1.73,1.73,0,0,0-1.3-.493,1.86,1.86,0,0,0-1.336.494A2.418,2.418,0,0,0-632.751,1855.255Z"/><path class="b" d="M-630.524,1860.071a3.687,3.687,0,0,1-2.1-.543,3.912,3.912,0,0,1-1.285-1.444,4.443,4.443,0,0,1-.484-2.1,4.2,4.2,0,0,1,1.015-2.909,3.415,3.415,0,0,1,2.643-1.126,3.135,3.135,0,0,1,2.506,1.1,4.36,4.36,0,0,1,.931,2.919v.191a.094.094,0,0,1-.09.093l-5.3,0a2.375,2.375,0,0,0,.705,1.591,2.347,2.347,0,0,0,1.693.628,6.913,6.913,0,0,0,2.552-.47.088.088,0,0,1,.1-.033.09.09,0,0,1,.064.084v1.2a.092.092,0,0,1-.051.082,9.214,9.214,0,0,1-1.262.528A6.062,6.062,0,0,1-630.524,1860.071Zm-.211-7.938a3.232,3.232,0,0,0-2.508,1.068,4.013,4.013,0,0,0-.969,2.786,4.268,4.268,0,0,0,.461,2.015,3.774,3.774,0,0,0,1.225,1.381,3.579,3.579,0,0,0,2,.508,6.036,6.036,0,0,0,1.589-.2,8.548,8.548,0,0,0,1.181-.491v-.97a9.649,9.649,0,0,1-2.531.419h0a2.562,2.562,0,0,1-1.824-.671,2.609,2.609,0,0,1-.764-1.813.088.088,0,0,1,.025-.066.086.086,0,0,1,.064-.03l5.3,0v-.1a4.2,4.2,0,0,0-.886-2.8A2.959,2.959,0,0,0-630.735,1852.133Zm1.847,3.207-3.863,0a.087.087,0,0,1-.068-.03.089.089,0,0,1-.021-.077,2.529,2.529,0,0,1,.706-1.45,1.973,1.973,0,0,1,1.4-.517,1.839,1.839,0,0,1,1.366.519,2.229,2.229,0,0,1,.57,1.458.1.1,0,0,1-.027.071A.089.089,0,0,1-628.888,1855.34Zm-3.755-.176h3.655a1.987,1.987,0,0,0-.51-1.248,1.651,1.651,0,0,0-1.237-.463,1.78,1.78,0,0,0-1.275.464A2.293,2.293,0,0,0-632.643,1855.164Z"/><path class="b" d="M-617.117,1852.186h1.518l0,7.673h-1.518Z"/><path class="b" d="M-615.6,1859.949h-1.518a.089.089,0,0,1-.092-.09l0-7.673a.09.09,0,0,1,.092-.088h1.518a.089.089,0,0,1,.089.088l0,7.673A.089.089,0,0,1-615.6,1859.949Zm-1.428-.178h1.335l0-7.493h-1.335Z"/><path class="b" d="M-610.634,1852.17a3.246,3.246,0,0,1,2.532,1.129,4.1,4.1,0,0,1,1.008,2.84,3.884,3.884,0,0,1-1.022,2.756,3.375,3.375,0,0,1-2.572,1.1,3.245,3.245,0,0,1-2.511-1.114,3.98,3.98,0,0,1-1.011-2.776,4.022,4.022,0,0,1,1.02-2.811A3.307,3.307,0,0,1-610.634,1852.17Zm-.074,1.365a1.953,1.953,0,0,0-1.557.718,2.72,2.72,0,0,0-.609,1.825,2.592,2.592,0,0,0,.623,1.8,2.061,2.061,0,0,0,1.6.695,2.027,2.027,0,0,0,1.593-.7,2.64,2.64,0,0,0,.618-1.808,2.611,2.611,0,0,0-.645-1.808A2.1,2.1,0,0,0-610.708,1853.535Z"/><path class="b" d="M-610.688,1860.081a3.329,3.329,0,0,1-2.576-1.144,4.075,4.075,0,0,1-1.035-2.836,4.127,4.127,0,0,1,1.041-2.871,3.41,3.41,0,0,1,2.624-1.151,3.35,3.35,0,0,1,2.6,1.16,4.209,4.209,0,0,1,1.031,2.9,3.986,3.986,0,0,1-1.046,2.816A3.471,3.471,0,0,1-610.688,1860.081Zm.054-7.821a3.236,3.236,0,0,0-2.49,1.09,3.956,3.956,0,0,0-.994,2.751,3.9,3.9,0,0,0,.986,2.713,3.156,3.156,0,0,0,2.444,1.084,3.289,3.289,0,0,0,2.505-1.069,3.793,3.793,0,0,0,1-2.69,4.045,4.045,0,0,0-.985-2.782A3.175,3.175,0,0,0-610.634,1852.26Zm-.013,6.4a2.148,2.148,0,0,1-1.67-.729,2.688,2.688,0,0,1-.648-1.857,2.829,2.829,0,0,1,.63-1.884,2.057,2.057,0,0,1,1.627-.749,2.2,2.2,0,0,1,1.694.748,2.7,2.7,0,0,1,.668,1.867,2.74,2.74,0,0,1-.64,1.868A2.128,2.128,0,0,1-610.647,1858.664Zm-.061-5.036a1.878,1.878,0,0,0-1.489.683,2.651,2.651,0,0,0-.586,1.767,2.515,2.515,0,0,0,.6,1.739,1.972,1.972,0,0,0,1.535.666,1.948,1.948,0,0,0,1.525-.675,2.551,2.551,0,0,0,.6-1.748,2.53,2.53,0,0,0-.623-1.747A2.015,2.015,0,0,0-610.708,1853.628Z"/><path class="b" d="M-604.147,1849.442l9.011,0v1.325h-3.7l0,9.088h-1.678l0-9.088-3.633,0Z"/><path class="b" d="M-598.834,1859.943h-1.678a.088.088,0,0,1-.088-.09l0-8.995h-3.543a.091.091,0,0,1-.09-.092v-1.325a.089.089,0,0,1,.09-.09l9.011,0a.087.087,0,0,1,.088.09v1.325a.088.088,0,0,1-.088.092h-3.61l0,9A.089.089,0,0,1-598.834,1859.943Zm-1.585-.177h1.494l0-9a.091.091,0,0,1,.092-.087h3.61v-1.148l-8.83,0v1.147h3.542a.091.091,0,0,1,.092.087Z"/><path class="b" d="M-653.849,1863.292h.635l0,4.44h-.636Z"/><path class="b" d="M-651.728,1864.808v.376a1.156,1.156,0,0,1,.879-.432.986.986,0,0,1,.51.14.961.961,0,0,1,.356.387,1.855,1.855,0,0,1,.123.781v1.671h-.578v-1.663a1.127,1.127,0,0,0-.139-.641.521.521,0,0,0-.457-.194.829.829,0,0,0-.7.413v2.086h-.593v-2.924Z"/><path class="b" d="M-649.194,1867.521v-.62a2.959,2.959,0,0,0,.5.278,1.239,1.239,0,0,0,.432.107.541.541,0,0,0,.311-.093.249.249,0,0,0,.129-.21.277.277,0,0,0-.084-.21,1.753,1.753,0,0,0-.364-.243,2.611,2.611,0,0,1-.732-.536.749.749,0,0,1-.174-.48.676.676,0,0,1,.262-.552,1.058,1.058,0,0,1,.677-.21,1.829,1.829,0,0,1,.879.242v.568a1.8,1.8,0,0,0-.844-.311.458.458,0,0,0-.271.074.217.217,0,0,0-.1.189.258.258,0,0,0,.094.193,1.558,1.558,0,0,0,.329.224l.206.118c.488.275.73.581.731.912a.73.73,0,0,1-.28.592,1.117,1.117,0,0,1-.724.23,1.7,1.7,0,0,1-.462-.057A2.859,2.859,0,0,1-649.194,1867.521Z"/><path class="b" d="M-646.586,1869.224v-4.418h1.014a1.752,1.752,0,0,1,1.21.39,1.378,1.378,0,0,1,.433,1.085,1.483,1.483,0,0,1-.406,1.078,1.382,1.382,0,0,1-1.042.424,1.762,1.762,0,0,1-.616-.126v1.568Zm1-3.878h-.407v1.8a1.213,1.213,0,0,0,.557.139.863.863,0,0,0,.664-.284,1.034,1.034,0,0,0,.259-.73,1.02,1.02,0,0,0-.122-.505.72.72,0,0,0-.333-.316A1.4,1.4,0,0,0-645.587,1865.346Z"/><path class="b" d="M-642.995,1863.576a.328.328,0,0,1,.244.1.319.319,0,0,1,.1.24.317.317,0,0,1-.1.24.334.334,0,0,1-.244.1.323.323,0,0,1-.235-.1.328.328,0,0,1-.1-.24.33.33,0,0,1,.1-.238A.32.32,0,0,1-642.995,1863.576Zm-.287,1.228h.579v2.925h-.579Z"/><path class="b" d="M-641.247,1864.8v.672l.031-.05c.28-.453.56-.677.838-.677a1.028,1.028,0,0,1,.684.33l-.305.508a.839.839,0,0,0-.557-.283.59.59,0,0,0-.486.264,1.006,1.006,0,0,0-.205.634v1.527h-.582V1864.8Z"/><path class="b" d="M-637.452,1865.971v1.243c0,.1.035.15.1.15a.719.719,0,0,0,.328-.159v.356a1.712,1.712,0,0,1-.318.172.721.721,0,0,1-.25.046c-.244,0-.392-.1-.436-.292a1.266,1.266,0,0,1-.784.287.705.705,0,0,1-.511-.2.69.69,0,0,1-.2-.508.712.712,0,0,1,.2-.491,1.316,1.316,0,0,1,.565-.347l.74-.254v-.156a.467.467,0,0,0-.53-.529,1.267,1.267,0,0,0-.918.491v-.633a1.2,1.2,0,0,1,.968-.4,1.126,1.126,0,0,1,.761.246.809.809,0,0,1,.171.213.728.728,0,0,1,.1.262A4.073,4.073,0,0,1-637.452,1865.971Zm-.568,1.178v-.866l-.39.15a1.3,1.3,0,0,0-.417.238.387.387,0,0,0-.122.295.4.4,0,0,0,.118.3.41.41,0,0,0,.3.113A.723.723,0,0,0-638.02,1867.149Z"/><path class="b" d="M-634.317,1867.046v.571a2.479,2.479,0,0,1-.853.161,1.492,1.492,0,0,1-1.1-.406,1.48,1.48,0,0,1-.407-1.09,1.565,1.565,0,0,1,.4-1.111,1.369,1.369,0,0,1,1.047-.424,1.673,1.673,0,0,1,.4.041,2.943,2.943,0,0,1,.444.158v.62a1.546,1.546,0,0,0-.812-.281.836.836,0,0,0-.644.276.986.986,0,0,0-.251.7.943.943,0,0,0,.271.713,1,1,0,0,0,.733.265A1.915,1.915,0,0,0-634.317,1867.046Z"/><path class="b" d="M-633.361,1863.573a.328.328,0,0,1,.243.1.32.32,0,0,1,.1.241.318.318,0,0,1-.1.24.332.332,0,0,1-.243.1.333.333,0,0,1-.238-.1.338.338,0,0,1-.1-.24.338.338,0,0,1,.1-.238A.332.332,0,0,1-633.361,1863.573Zm-.288,1.228h.58v2.925h-.58Z"/><path class="b" d="M-630.837,1864.8a1.529,1.529,0,0,1,1.111.428,1.445,1.445,0,0,1,.442,1.081,1.378,1.378,0,0,1-.445,1.052,1.6,1.6,0,0,1-1.131.418,1.521,1.521,0,0,1-1.1-.423,1.415,1.415,0,0,1-.44-1.06,1.43,1.43,0,0,1,.444-1.072A1.566,1.566,0,0,1-630.837,1864.8Zm-.03.521a.907.907,0,0,0-.683.274.94.94,0,0,0-.265.693.91.91,0,0,0,.272.686.961.961,0,0,0,.7.264.949.949,0,0,0,.7-.268.923.923,0,0,0,.274-.688.911.911,0,0,0-.282-.688A.99.99,0,0,0-630.867,1865.319Zm.676-2.1-.718.953h-.356l.428-.953Z"/><path class="b" d="M-628.065,1864.8v.376a1.163,1.163,0,0,1,.883-.431.968.968,0,0,1,.506.139.961.961,0,0,1,.359.387,1.862,1.862,0,0,1,.121.782v1.67h-.577v-1.662a1.144,1.144,0,0,0-.135-.642.525.525,0,0,0-.459-.193.836.836,0,0,0-.7.412v2.086h-.589V1864.8Z"/><path class="b" d="M-623.616,1869.217l0-4.419h1.014a1.753,1.753,0,0,1,1.212.39,1.381,1.381,0,0,1,.431,1.084,1.483,1.483,0,0,1-.405,1.078,1.379,1.379,0,0,1-1.041.424,1.793,1.793,0,0,1-.62-.125v1.567Zm1-3.879h-.411v1.8a1.221,1.221,0,0,0,.561.139.853.853,0,0,0,.662-.284,1.027,1.027,0,0,0,.259-.729,1.01,1.01,0,0,0-.123-.505.694.694,0,0,0-.333-.317A1.4,1.4,0,0,0-622.616,1865.338Z"/><path class="b" d="M-618.489,1865.965v1.243c0,.1.035.15.1.15a.712.712,0,0,0,.327-.159v.355a1.894,1.894,0,0,1-.314.173.727.727,0,0,1-.251.046c-.247,0-.4-.1-.439-.292a1.251,1.251,0,0,1-.785.287.71.71,0,0,1-.51-.2.684.684,0,0,1-.2-.508.7.7,0,0,1,.2-.491,1.289,1.289,0,0,1,.563-.347l.74-.254v-.156a.468.468,0,0,0-.527-.53,1.265,1.265,0,0,0-.921.492v-.633a1.2,1.2,0,0,1,.968-.4,1.126,1.126,0,0,1,.76.246.756.756,0,0,1,.17.213.729.729,0,0,1,.1.262A3.526,3.526,0,0,1-618.489,1865.965Zm-.567,1.177v-.865l-.386.15a1.283,1.283,0,0,0-.418.238.385.385,0,0,0-.124.295.4.4,0,0,0,.117.3.418.418,0,0,0,.3.112A.715.715,0,0,0-619.056,1867.142Z"/><path class="b" d="M-616.927,1864.8v.672l.031-.049c.28-.454.559-.678.839-.678a1.032,1.032,0,0,1,.684.33l-.306.508a.841.841,0,0,0-.56-.283.589.589,0,0,0-.483.265,1.009,1.009,0,0,0-.205.633v1.526h-.582V1864.8Z"/><path class="b" d="M-613.132,1865.963v1.243c0,.1.036.15.1.15a.723.723,0,0,0,.328-.158v.355a1.771,1.771,0,0,1-.318.172.7.7,0,0,1-.25.046c-.247,0-.392-.1-.437-.292a1.256,1.256,0,0,1-.786.288.708.708,0,0,1-.507-.2.694.694,0,0,1-.205-.508.709.709,0,0,1,.2-.491,1.284,1.284,0,0,1,.566-.347l.74-.255v-.155a.469.469,0,0,0-.529-.53,1.265,1.265,0,0,0-.92.492v-.634a1.2,1.2,0,0,1,.969-.4,1.124,1.124,0,0,1,.76.246.835.835,0,0,1,.172.213.714.714,0,0,1,.1.262A3.857,3.857,0,0,1-613.132,1865.963Zm-.568,1.177v-.865l-.389.151a1.291,1.291,0,0,0-.418.237.4.4,0,0,0-.121.3.408.408,0,0,0,.114.3.428.428,0,0,0,.3.111A.713.713,0,0,0-613.7,1867.14Z"/><path class="b" d="M-608.547,1865.962v1.242c0,.1.034.151.1.151a.716.716,0,0,0,.325-.159v.355a1.806,1.806,0,0,1-.315.172.71.71,0,0,1-.25.047c-.249,0-.4-.1-.437-.292a1.265,1.265,0,0,1-.786.287.71.71,0,0,1-.51-.2.69.69,0,0,1-.2-.508.723.723,0,0,1,.2-.492,1.311,1.311,0,0,1,.566-.347l.741-.254v-.155a.467.467,0,0,0-.527-.53,1.269,1.269,0,0,0-.924.492v-.634a1.206,1.206,0,0,1,.972-.4,1.124,1.124,0,0,1,.757.245.774.774,0,0,1,.173.213.759.759,0,0,1,.1.262A4.082,4.082,0,0,1-608.547,1865.962Zm-.567,1.177v-.866l-.388.151a1.247,1.247,0,0,0-.418.237.384.384,0,0,0-.124.3.394.394,0,0,0,.118.3.416.416,0,0,0,.3.112A.723.723,0,0,0-609.114,1867.139Z"/><path class="b" d="M-607.705,1869.211l0-4.418h1.013a1.743,1.743,0,0,1,1.21.39,1.38,1.38,0,0,1,.434,1.084,1.481,1.481,0,0,1-.406,1.078,1.379,1.379,0,0,1-1.04.424,1.78,1.78,0,0,1-.62-.125v1.567Zm1-3.878h-.411v1.8a1.23,1.23,0,0,0,.559.139.862.862,0,0,0,.664-.284,1.04,1.04,0,0,0,.256-.729,1.009,1.009,0,0,0-.12-.506.71.71,0,0,0-.333-.316A1.412,1.412,0,0,0-606.706,1865.333Z"/><path class="b" d="M-603.795,1864.792v.671l.032-.049c.281-.453.561-.677.838-.677a1.029,1.029,0,0,1,.684.33l-.3.508a.856.856,0,0,0-.559-.284.594.594,0,0,0-.486.265,1.012,1.012,0,0,0-.2.634v1.526h-.582v-2.924Z"/><path class="b" d="M-599.476,1866.306h-2.055a.95.95,0,0,0,.282.667.932.932,0,0,0,.669.248,1.713,1.713,0,0,0,1.054-.358v.568a1.993,1.993,0,0,1-.528.254,2.3,2.3,0,0,1-.615.077,1.393,1.393,0,0,1-.784-.2,1.464,1.464,0,0,1-.476-.538,1.639,1.639,0,0,1-.18-.781,1.559,1.559,0,0,1,.376-1.087,1.256,1.256,0,0,1,.983-.418,1.157,1.157,0,0,1,.928.407,1.613,1.613,0,0,1,.346,1.089Zm-2.044-.346h1.472a.8.8,0,0,0-.206-.535.672.672,0,0,0-.5-.188.723.723,0,0,0-.51.188A.944.944,0,0,0-601.52,1865.96Z"/><path class="b" d="M-598.271,1864.79v.377a1.15,1.15,0,0,1,.878-.432.981.981,0,0,1,.511.139.985.985,0,0,1,.358.387,1.879,1.879,0,0,1,.122.782v1.671h-.577v-1.663a1.142,1.142,0,0,0-.138-.642.519.519,0,0,0-.457-.193.829.829,0,0,0-.7.412v2.086h-.592v-2.925Z"/><path class="b" d="M-593.642,1863.273h.58v4.44H-594.3a1.349,1.349,0,0,1-1.035-.407,1.535,1.535,0,0,1-.385-1.1,1.455,1.455,0,0,1,.4-1.062,1.376,1.376,0,0,1,1.035-.418,1.9,1.9,0,0,1,.636.123Zm0,3.946v-1.855a1.231,1.231,0,0,0-.547-.136.885.885,0,0,0-.689.285,1.1,1.1,0,0,0-.256.761,1.018,1.018,0,0,0,.222.7.694.694,0,0,0,.285.2,1.842,1.842,0,0,0,.535.052Z"/><path class="b" d="M-589.784,1866.3h-2.058a.95.95,0,0,0,.283.666.929.929,0,0,0,.668.249,1.731,1.731,0,0,0,1.056-.358v.568a1.99,1.99,0,0,1-.531.254,2.263,2.263,0,0,1-.612.077,1.392,1.392,0,0,1-.784-.2,1.449,1.449,0,0,1-.477-.538,1.667,1.667,0,0,1-.181-.781,1.546,1.546,0,0,1,.378-1.087,1.257,1.257,0,0,1,.982-.418,1.157,1.157,0,0,1,.929.407,1.614,1.614,0,0,1,.347,1.089Zm-2.044-.347h1.472a.826.826,0,0,0-.208-.535.668.668,0,0,0-.5-.188.719.719,0,0,0-.509.188A.948.948,0,0,0-591.828,1865.956Z"/><path class="b" d="M-588.538,1864.787v.672l.031-.05c.278-.453.557-.677.839-.677a1.035,1.035,0,0,1,.684.33l-.306.508a.852.852,0,0,0-.56-.284.591.591,0,0,0-.483.266,1,1,0,0,0-.205.633v1.526h-.585v-2.924Z"/><path class="b" d="M-592.371,1860.042l-3.486-7.918h1.52l2.755,6.214,2.085-6.216h1.411l-2.86,7.92Z"/><path class="b" d="M-590.853,1860.178h-1.607l-.034-.082-3.571-8.11h1.817l2.647,5.977,2.009-5.979h1.7Zm-1.429-.27h1.242l2.761-7.65H-589.4l-2.17,6.451-2.859-6.449h-1.224Z"/><path class="b" d="M-672.962,1858.706a1.64,1.64,0,0,1-.3.024,1.976,1.976,0,0,1-1.5-.687l-5.777-6.675a1.981,1.981,0,0,1,.2-2.8,1.984,1.984,0,0,1,2.8.2l3.748,4.327a106.284,106.284,0,0,1,5.817-10.813,13.662,13.662,0,0,0-5.294-1.061,13.717,13.717,0,0,0-13.71,13.721,13.713,13.713,0,0,0,13.719,13.707,13.712,13.712,0,0,0,13.711-13.716,13.671,13.671,0,0,0-5.034-10.61,113.072,113.072,0,0,0-6.857,13.2A1.981,1.981,0,0,1-672.962,1858.706Z"/><path class="b" d="M-658.627,1836.983a1.988,1.988,0,0,0,.23-2.8,1.985,1.985,0,0,0-2.8-.231,39.929,39.929,0,0,0-6.785,8.334,13.623,13.623,0,0,1,3.392,2.041A35.622,35.622,0,0,1-658.627,1836.983Z"/><rect class="b" width="1.518" height="1.682" transform="translate(-617.118 1849.075)"/><path class="b" d="M-615.6,1850.847h-1.519a.091.091,0,0,1-.091-.09v-1.682a.09.09,0,0,1,.092-.09h1.518a.089.089,0,0,1,.089.089v1.682A.09.09,0,0,1-615.6,1850.847Zm-1.428-.18h1.335v-1.505h-1.335Z"/></g></g></svg>