<svg xmlns="http://www.w3.org/2000/svg" xmlns:xlink="http://www.w3.org/1999/xlink" width="139.999" height="96.06" viewBox="0 0 139.999 96.06"><defs><style>.a{fill:#fff;}.b{fill:#7cad14;}.c{fill:url(#c);}.d{fill:url(#d);}.e{fill:url(#e);}.f{fill:url(#f);}.g{fill:url(#g);}.h{fill:url(#h);}.i{filter:url(#a);}</style><filter id="a" x="0" y="0" width="139.999" height="96.06" filterUnits="userSpaceOnUse"><feOffset dy="8" input="SourceAlpha"/><feGaussianBlur stdDeviation="2.5" result="b"/><feFlood flood-opacity="0.161"/><feComposite operator="in" in2="b"/><feComposite in="SourceGraphic"/></filter><linearGradient id="c" x1="49.974" y1="-44.48" x2="50.201" y2="-44.934" gradientUnits="objectBoundingBox"><stop offset="0" stop-color="#db0050"/><stop offset="1" stop-color="#d90012"/></linearGradient><linearGradient id="d" x1="51.564" y1="-41.276" x2="51.806" y2="-41.756" xlink:href="#c"/><linearGradient id="e" x1="40.333" y1="-44.588" x2="40.52" y2="-45.048" xlink:href="#c"/><linearGradient id="f" x1="74.65" y1="-43.998" x2="75" y2="-44.453" xlink:href="#c"/><linearGradient id="g" x1="38.088" y1="-40.831" x2="38.267" y2="-41.256" xlink:href="#c"/><linearGradient id="h" x1="51.73" y1="-43.142" x2="51.976" y2="-43.593" xlink:href="#c"/></defs><g transform="translate(1116.681 -2073.301)"><g class="i" transform="matrix(1, 0, 0, 1, -1116.68, 2073.3)"><path class="a" d="M-1100.87,2088.732a15.283,15.283,0,0,0-4.589,10.263l-3.722,40.436a13.5,13.5,0,0,0,13.505,13.505l80.427.869a4.827,4.827,0,0,0,.814.056,9.618,9.618,0,0,0,1.8-.175,23.811,23.811,0,0,0,4.049-1.122,30.514,30.514,0,0,0,7.185-3.5,25.651,25.651,0,0,0,6.4-6.611,47.871,47.871,0,0,0,5.826-11.336c4.635-12.822,6.222-25.5,4.01-37.973a28.267,28.267,0,0,0-3.74-10.113,15.507,15.507,0,0,0-8.876-6.686,63.031,63.031,0,0,0-13.22-2.435,181.284,181.284,0,0,0-27.106-.193,259.528,259.528,0,0,0-35.366,4.406A151.09,151.09,0,0,0-1089.1,2082a46.137,46.137,0,0,0-4.62,1.668,29.436,29.436,0,0,0-6.526,4.347" transform="translate(1116.68 -2073.3)"/></g><path class="b" d="M-1066.178,2105.436c.092-.248.185-.588.34-1.021s.278-.9.4-1.329.247-.773.309-1.02h-.464a.439.439,0,0,1-.247-.278c-.031-.093-.093-.34-.186-.711.649-.247,1.3-.495,1.948-.773s1.205-.495,1.638-.711c.433-.185.835-.34,1.237-.5a6.084,6.084,0,0,1,1.174-.309,5.676,5.676,0,0,1,1.021-.093c.03.031.061.093.123.155a2.791,2.791,0,0,0,.309.309,2,2,0,0,1,.217.309.492.492,0,0,1,.092.186c.031.062.062.185.155.371-1.051.247-1.917.494-2.689.742-.742.247-1.268.432-1.608.587a1.707,1.707,0,0,0-.556.309c-.155.309-.371.8-.65,1.422a16.154,16.154,0,0,0-.649,1.762l3.122-.958a.844.844,0,0,1,.217.247c.031.124.093.217.124.34a5.841,5.841,0,0,1,.494.68l-4.42,1.639-1.423,5.471a2.5,2.5,0,0,1-.989-.34,1.051,1.051,0,0,1-.556-.556l.093-.556c.03-.155.061-.371.123-.619s.093-.494.155-.8c.062-.279.123-.619.185-.959a5.052,5.052,0,0,1,.186-.68c.062-.185.123-.34.185-.525s.124-.31.155-.433a.24.24,0,0,1,.031-.093.538.538,0,0,0-.031-.185,1.937,1.937,0,0,0-.34-.742c.062-.031.092-.031.123-.062h.031c-.031,0-.031.031-.062.031s-.03.031-.061.031Z"/><path class="b" d="M-1058.388,2103.89a24.6,24.6,0,0,1,.711-2.473q.463-1.392.927-2.5c.309-.742.495-1.113.588-1.144a.685.685,0,0,0,.278-.031,3.194,3.194,0,0,1,.371-.093,1.133,1.133,0,0,1,.34-.092,1.056,1.056,0,0,1,.278-.031l-3.03,12.18a1.5,1.5,0,0,1-.8-.093,7.331,7.331,0,0,1-.742-.556c.154-.8.278-1.515.371-2.072s.185-.958.247-1.205.124-.526.186-.835A7.436,7.436,0,0,0-1058.388,2103.89Z"/><path class="b" d="M-1053.875,2097.985c.371-.185.8-.37,1.237-.556.432-.155.927-.309,1.453-.464s1.082-.309,1.638-.494,1.144-.34,1.7-.526c.217-.031.34-.031.371.031a1.139,1.139,0,0,1,.217.371,1.046,1.046,0,0,1,.309.124,1.3,1.3,0,0,1,.154.216,1.349,1.349,0,0,0,.186.217c-.062.03-.309.123-.68.309s-.773.34-1.144.525-.8.34-1.268.526-.927.34-1.36.525l-.649,2.442,3.215-.9a.451.451,0,0,1,.216.371.232.232,0,0,0,.062.154c.031.031.093.124.217.279a.779.779,0,0,1,.216.371c-.742.371-1.515.711-2.349,1.051a10.469,10.469,0,0,1-2.01.649c-.154.371-.278.68-.4.989-.123.278-.247.618-.371.958a6.308,6.308,0,0,0-.278,1.021,5.409,5.409,0,0,0-.123.958q.277-.093.927-.371c.4-.155.742-.309.989-.4s.526-.185.835-.278a5.351,5.351,0,0,1,.9-.217,4.367,4.367,0,0,1,1.391-.061,2.088,2.088,0,0,1,.248.587,2.254,2.254,0,0,0,.154.525l-6.8,2.381a.738.738,0,0,0-.525-.588,7.657,7.657,0,0,1-.062-1.669,5.3,5.3,0,0,1,.278-1.453,9.753,9.753,0,0,1,.495-1.422,10.125,10.125,0,0,0,.34-.958c-.062-.124-.155-.278-.278-.526a3.7,3.7,0,0,0-.248-.4c.155-.092.34-.154.526-.247a3.22,3.22,0,0,0,.433-.185c.092-.309.185-.526.216-.68s.155-.557.34-1.175.278-.989.309-1.082h-.371a.184.184,0,0,1-.123-.031.61.61,0,0,1-.34-.34A5.842,5.842,0,0,1-1053.875,2097.985Z"/><path class="b" d="M-1046.208,2099.624a2.1,2.1,0,0,1,.34-1.391,5.779,5.779,0,0,1,1.638-1.608,11.081,11.081,0,0,1,3.03-1.453c.34-.092.556-.185.618-.185a1.563,1.563,0,0,1,1.02.124,2.186,2.186,0,0,1,.773.927,2.44,2.44,0,0,1-.773,1.144,3.322,3.322,0,0,1-1.546.773.913.913,0,0,0-.247-.217.707.707,0,0,1-.216-.247c-.031-.124.062-.309.278-.526-.309.124-.618.279-.989.433a10.109,10.109,0,0,0-.99.526,2.678,2.678,0,0,0-.772.649.966.966,0,0,0-.279.773c.093.123.34.216.8.216.433,0,.958.031,1.577.062a4.052,4.052,0,0,1,1.329.216,2.026,2.026,0,0,1,1.329,1.391,4.027,4.027,0,0,1-.432,2.072,5.432,5.432,0,0,1-1.206,1.545,10.379,10.379,0,0,1-2.071,1.484,7.061,7.061,0,0,1-2.164.835,2.892,2.892,0,0,1-1.268,0,1.379,1.379,0,0,1-1.144-1.113,1.918,1.918,0,0,1,.124-1.082,3.464,3.464,0,0,1,.711-1.082,3.685,3.685,0,0,1,1.082-.773.888.888,0,0,1,.309.186.879.879,0,0,1,.186.309,2.478,2.478,0,0,0-.68.711,1.91,1.91,0,0,0-.279.927c.093.124.279.124.557.093a7.8,7.8,0,0,0,2.257-.958,6.951,6.951,0,0,0,1.051-.681,3.238,3.238,0,0,0,.711-.865,1.956,1.956,0,0,0,.216-1.113c-.062-.155-.309-.247-.742-.278q-.7-.047-1.669-.186a4.429,4.429,0,0,1-1.67-.463A1.9,1.9,0,0,1-1046.208,2099.624Z"/><path class="b" d="M-1038.233,2095.358c1.453-.618,2.721-1.082,3.8-1.484,1.082-.371,2.5-.835,4.2-1.36a.764.764,0,0,1,.247.031c.093.031.217.092.34.123.093.093.155.186.248.279a1.7,1.7,0,0,1,.216.278,1.824,1.824,0,0,1,.124.247q-.882.371-1.484.649c-.371.186-.8.371-1.237.588s-.865.432-1.267.618c-.031.124-.093.371-.217.742-.092.371-.216.989-.4,1.855-.062.371-.186.9-.341,1.576s-.278,1.237-.37,1.639-.217.927-.341,1.514-.278,1.268-.4,2.01a1.559,1.559,0,0,1-.526-.155c-.216-.123-.371-.185-.4-.216-.093-.031-.216-.031-.309-.062a1.452,1.452,0,0,1-.216-.093c-.062-.031-.093-.062-.093-.123l1.7-8.192c-.433.123-.865.247-1.2.34a15.582,15.582,0,0,0-1.484.587.419.419,0,0,1-.186-.216c-.031-.093-.062-.248-.123-.433a.281.281,0,0,0-.093-.217.311.311,0,0,0-.124-.154.428.428,0,0,1-.093-.124c-.03-.031-.03-.062-.061-.093C-1038.233,2095.512-1038.233,2095.451-1038.233,2095.358Z"/><path class="b" d="M-1026.053,2091.339s.062-.031.217-.093c.123-.061.247-.092.309-.123.062,0,.093,0,.123.031l.248,11.221a3.722,3.722,0,0,0-.742.248c-.4.154-.618.247-.618.247a3.256,3.256,0,0,1-.588-1.36,4.083,4.083,0,0,1-.062-.9c0-.34.031-.835.093-1.453a6.956,6.956,0,0,0-1.236.557c-.464.216-.866.4-1.3.556a5.255,5.255,0,0,1-.278.835c-.093.309-.247.68-.433,1.144a9.247,9.247,0,0,1-.587,1.236,3.562,3.562,0,0,1-.588.773,1.351,1.351,0,0,0-.37-.34,2.759,2.759,0,0,1-.371-.278.623.623,0,0,1-.124-.248,2.054,2.054,0,0,1,.031-.865,11.722,11.722,0,0,1,.371-1.144,6.291,6.291,0,0,0,.34-.958.2.2,0,0,0,0-.186.266.266,0,0,0-.093-.185c-.062-.062-.093-.124-.185-.217l-.248-.247c.279-.093.526-.216.742-.309s.371-.186.433-.217c.031-.123.124-.309.216-.556s.248-.587.433-.958c.958-1.824,1.608-3.061,1.948-3.741.34-.649.649-1.144.865-1.515a6.085,6.085,0,0,1,.835-1.02h.371C-1026.146,2091.308-1026.053,2091.308-1026.053,2091.339Zm-.9,2.226-2.01,4.575,1.793-.649Z"/><path class="c" d="M-1080.646,2115.977a3.154,3.154,0,0,0,.649-.247,2.91,2.91,0,0,1,.557-.186,4.619,4.619,0,0,1,.618-.061l-6.028,20.773q.047,0,.927-.278c.619-.185,1.3-.371,2.041-.587.741-.186,1.7-.433,2.875-.68s1.576-.464,3.338-.773a13.175,13.175,0,0,0,1.144,1.515c.124.309.9.772,1.02,1.36a16.6,16.6,0,0,1-1.7.649c-.68.216-1.515.464-2.535.773-1.02.278-1.979.525-2.813.711-.866.185-1.7.371-2.5.494a28.643,28.643,0,0,1-4.977.526c-.278-.464-.557-.742-.8-.8a32.4,32.4,0,0,1,.866-4.359c.587-2.658,1.329-5.471,2.194-8.439a67.728,67.728,0,0,1,2.783-7.883l.371-.835c.123-.278.247-.587.4-.989.154-.062.34-.154.525-.247s.371-.155.556-.247A1.184,1.184,0,0,1-1080.646,2115.977Z"/><path class="d" d="M-1060.49,2113.72s.154-.061.4-.154a5.607,5.607,0,0,1,.587-.186c.124-.031.216,0,.216.062l-.463,19.939a11.566,11.566,0,0,0-1.422.433c-.8.247-1.206.4-1.206.4a6.13,6.13,0,0,1-1.02-2.411,8.822,8.822,0,0,1-.062-1.608c.031-.587.124-1.453.247-2.6a17.168,17.168,0,0,0-2.411.927,15.577,15.577,0,0,1-2.5.927,13.433,13.433,0,0,1-.587,1.484q-.326.789-.928,2.041a22.685,22.685,0,0,1-1.2,2.163,5.388,5.388,0,0,1-1.175,1.361,2.779,2.779,0,0,0-.68-.619c-.34-.247-.588-.4-.68-.494a.816.816,0,0,1-.217-.464,3.656,3.656,0,0,1,.124-1.515,14.344,14.344,0,0,1,.835-2.04l.742-1.669a.515.515,0,0,0,.031-.309.945.945,0,0,0-.155-.371,3.271,3.271,0,0,0-.309-.371c-.124-.124-.278-.279-.433-.464.526-.186.989-.34,1.422-.526a6.272,6.272,0,0,0,.835-.371c.092-.185.247-.525.463-.958s.526-1.02.9-1.669c1.947-3.215,3.277-5.41,3.988-6.554a31.119,31.119,0,0,1,1.762-2.627,17.119,17.119,0,0,1,1.638-1.793,4.512,4.512,0,0,1,.68,0C-1060.707,2113.659-1060.49,2113.69-1060.49,2113.72Zm-1.917,3.926-4.173,8.038,3.431-1.051Z"/><path class="e" d="M-1057.8,2114.246c2.968-1.113,5.565-2.04,7.79-2.72s5.1-1.515,8.594-2.5a.64.64,0,0,1,.464.092,2.335,2.335,0,0,0,.711.248c.155.185.309.4.464.587a7.161,7.161,0,0,1,.432.587,1.343,1.343,0,0,1,.217.5c-1.237.464-2.226.9-3,1.206q-1.159.51-2.5,1.112c-.9.433-1.762.8-2.566,1.175-.092.217-.247.742-.463,1.484-.217.773-.526,2.009-.9,3.71-.185.742-.433,1.793-.773,3.153s-.618,2.442-.834,3.277-.464,1.824-.773,3-.618,2.5-.958,4.019a2.6,2.6,0,0,1-1.082-.371c-.464-.247-.711-.4-.8-.433-.217-.062-.4-.092-.587-.154a1.965,1.965,0,0,1-.433-.186.294.294,0,0,1-.186-.216l3.988-16.446c-.9.216-1.731.4-2.473.618s-1.762.587-3.06,1.051a.766.766,0,0,1-.34-.464,6.524,6.524,0,0,1-.186-.865,1.623,1.623,0,0,0-.155-.464c-.092-.123-.154-.247-.216-.309a1.336,1.336,0,0,0-.185-.216.335.335,0,0,1-.093-.217C-1057.8,2114.524-1057.8,2114.431-1057.8,2114.246Z"/><path class="f" d="M-1040.891,2119.563c.371-1.422.9-3.091,1.576-4.946q1.02-2.829,2.041-5.008c.649-1.453,1.082-2.226,1.267-2.257a3.173,3.173,0,0,0,.587-.031c.186-.031.4-.092.742-.185.31-.093.557-.155.711-.186a4.193,4.193,0,0,1,.557-.031l-6.925,24.391a3.231,3.231,0,0,1-1.607-.216,7.469,7.469,0,0,1-1.422-1.206c.34-1.638.649-3.029.9-4.142s.433-1.917.557-2.411.278-1.052.463-1.7C-1041.293,2121.016-1041.108,2120.3-1040.891,2119.563Z"/><path class="g" d="M-1023.456,2118.728a19.469,19.469,0,0,0,.8-2.905c.278-1.3.649-2.844,1.051-4.607s.865-3.369,1.329-4.822a19.921,19.921,0,0,1,1.638-3.71,1.458,1.458,0,0,1,.711.093,2.465,2.465,0,0,0,.495.155c.309,0,.587-.031.8-.031a2.5,2.5,0,0,1,.525.031l-5.657,23.339a6.317,6.317,0,0,1-2.164-.031,1.868,1.868,0,0,1-1.267-.68,15.652,15.652,0,0,1-.928-2.442c-.278-.958-.587-2.133-.927-3.617q-.51-2.179-1.02-4.915c-.371-1.824-.557-2.751-.557-2.844l-3.956,17.064a4.522,4.522,0,0,1-1.732-.494,1.258,1.258,0,0,0-.432-.093,1.741,1.741,0,0,1-.557-.155.477.477,0,0,1-.247-.34q-.279-4.034,2.968-14.745c.37-1.175.741-2.35,1.143-3.525.4-1.205.742-2.164.99-2.936a2.914,2.914,0,0,1,1.36-1.082,11.745,11.745,0,0,1,2.287-.557Z"/><path class="h" d="M-1005.743,2100.3s.155-.062.4-.155a2.432,2.432,0,0,1,.588-.185c.123,0,.216,0,.216.093l-.247,21.3c-.155.031-.649.186-1.422.433a10.57,10.57,0,0,0-1.206.433,6.5,6.5,0,0,1-1.051-2.6,7.8,7.8,0,0,1-.062-1.731c.031-.649.124-1.546.247-2.752a19.547,19.547,0,0,0-2.411.959,16.739,16.739,0,0,1-2.473.958c-.154.495-.34,1.02-.556,1.608s-.526,1.3-.928,2.164a17.475,17.475,0,0,1-1.205,2.287,6.092,6.092,0,0,1-1.175,1.453,2.5,2.5,0,0,0-.711-.649,7.875,7.875,0,0,1-.68-.526.736.736,0,0,1-.217-.494,3.783,3.783,0,0,1,.124-1.639,18.552,18.552,0,0,1,.8-2.164c.371-.9.618-1.483.711-1.793a.61.61,0,0,0,.031-.34.957.957,0,0,0-.155-.371c-.093-.123-.185-.247-.309-.4s-.278-.309-.433-.494c.526-.186.99-.371,1.422-.526q.65-.278.835-.371c.093-.216.216-.556.433-1.051.216-.463.525-1.082.9-1.793,1.917-3.431,3.215-5.75,3.926-6.986s1.3-2.164,1.731-2.813a15.1,15.1,0,0,1,1.639-1.917h.68C-1005.928,2100.242-1005.743,2100.273-1005.743,2100.3Zm-1.885,4.142-4.112,8.563,3.432-1.112Z"/></g></svg>