<svg xmlns="http://www.w3.org/2000/svg" width="184.803" height="54.853" viewBox="0 0 184.803 54.853"><defs><style>.a{fill:#7bb739;}.b{fill:#5d1e77;}</style></defs><path class="a" d="M448.007,250.872H420.538a1.94,1.94,0,0,0-1.959,1.915v2.9a1.94,1.94,0,0,0,1.959,1.915h9.87v29.488a1.94,1.94,0,0,0,1.959,1.916h3.784a1.94,1.94,0,0,0,1.959-1.916V257.607h9.9a1.939,1.939,0,0,0,1.959-1.915v-2.9A1.94,1.94,0,0,0,448.007,250.872Z" transform="translate(-319.838 -234.405)"/><path class="a" d="M505.063,276.786l9.487-24.667a1.966,1.966,0,0,1,1.836-1.247h4.287a1.966,1.966,0,0,1,1.614.833,1.88,1.88,0,0,1,.208,1.781L508.732,287.8a1.975,1.975,0,0,1-1.824,1.215h-3.733a1.972,1.972,0,0,1-1.826-1.223L487.73,253.481a1.876,1.876,0,0,1,.212-1.778,1.971,1.971,0,0,1,1.614-.831H493.7a1.962,1.962,0,0,1,1.843,1.268Z" transform="translate(-355.328 -234.405)"/><path class="b" d="M511.076,230.1a18.679,18.679,0,0,0-2.475-6.69,10.253,10.253,0,0,0-5.871-4.423,41.675,41.675,0,0,0-8.745-1.611,119.911,119.911,0,0,0-17.931-.128,171.6,171.6,0,0,0-23.4,2.915,100.014,100.014,0,0,0-10.334,2.567c-1.019.366-2.047.714-3.056,1.1a24.161,24.161,0,0,0-4.325,2.108,13.228,13.228,0,0,0-2.584,2.162,101.218,101.218,0,0,1,9.915-2.445,171.672,171.672,0,0,1,23.4-2.914,119.972,119.972,0,0,1,17.931.127,41.7,41.7,0,0,1,8.745,1.611,10.255,10.255,0,0,1,5.871,4.424,18.68,18.68,0,0,1,2.475,6.69c1.464,8.251.413,16.638-2.653,25.12a31.652,31.652,0,0,1-3.854,7.5,21.332,21.332,0,0,1-1.736,2.172c1.051-.291,2.356-.642,3.392-1.011a18.328,18.328,0,0,0,4.493-2.283,16.978,16.978,0,0,0,4.235-4.374,31.656,31.656,0,0,0,3.854-7.5C511.489,246.736,512.539,238.349,511.076,230.1Z" transform="translate(-326.925 -216.975)"/><path class="b" d="M389.931,250.911h-4.064l-.07-8.516a1.9,1.9,0,0,0-1.859-1.918h-1.381a3.534,3.534,0,0,0-1.575.371l-3.1,1.544a1.942,1.942,0,0,0-1.056,1.744v6.774H374.21a1.239,1.239,0,0,0-1.239,1.239v1.321h0v.935c0,1.068.336,1.934,1.363,1.934h2.5v17.393q0,4.924.642,6.458a5.2,5.2,0,0,0,2.22,2.477,8.7,8.7,0,0,0,4.44.942h5.725a1.664,1.664,0,0,0,1.751-1.193,5.054,5.054,0,0,0,.071-.822c.15-3.237-1.646-3-1.646-3-.882,0-2.37-.116-2.37-.116a2.381,2.381,0,0,1-.61-.237,2.251,2.251,0,0,1-.906-1.064,11.029,11.029,0,0,1-.277-3.144v-17.7h3.908a1.368,1.368,0,0,0,1.368-1.379l-.022-2.869A1.19,1.19,0,0,0,389.931,250.911Z" transform="translate(-296.385 -229.06)"/><path class="b" d="M327.551,283.731a1.751,1.751,0,0,0-1.565.988,9.18,9.18,0,0,1-2.67,3.389,7.2,7.2,0,0,1-.838.537,5.053,5.053,0,0,1-4.785-.022,9.161,9.161,0,0,1-2.293-1.76,12.067,12.067,0,0,1-2.971-7.609.5.5,0,0,1,.5-.536h22.115a1.449,1.449,0,0,0,1.449-1.449v-.01q0-7.992-4.1-12.4a13.8,13.8,0,0,0-10.575-4.406h-3.966a14.2,14.2,0,0,0-10.879,4.5q-4.194,4.5-4.194,12.642,0,7.871,4.148,12.232t11.229,4.361h3.966a14.894,14.894,0,0,0,9.238-2.735,13.355,13.355,0,0,0,4.525-6.318,1.039,1.039,0,0,0-.985-1.375Zm-12.014-16.257a8.8,8.8,0,0,1,1.779-1.361,4.946,4.946,0,0,1,4.933-.079,8.8,8.8,0,0,1,2.434,2.077,10.077,10.077,0,0,1,1.961,5.166.83.83,0,0,1-.82.942H313.177a.442.442,0,0,1-.442-.48A9.8,9.8,0,0,1,315.537,267.474Z" transform="translate(-260.29 -239.332)"/><path class="b" d="M216.892,281.737h6.119a1.919,1.919,0,0,0,1.919-1.919V254.277a.645.645,0,0,1,1.184-.354l17.152,26.169a3.64,3.64,0,0,0,3.044,1.644h4.666c2.988,0,3.371-1.977,3.371-4.415V238.91a2.184,2.184,0,0,0-2.184-2.184h-5.472a1.95,1.95,0,0,0-1.95,1.952l.037,25.429a.558.558,0,0,1-1.023.31l-16.427-24.68a6.752,6.752,0,0,0-5.622-3.011h-4.535a1.851,1.851,0,0,0-1.851,1.851v41.589A1.571,1.571,0,0,0,216.892,281.737Z" transform="translate(-215.321 -227.131)"/></svg>