<svg xmlns="http://www.w3.org/2000/svg" width="178.27" height="52.913" viewBox="0 0 178.27 52.913"><defs><style>.a{fill:#00809d;}.b{fill:#090d15;}.c{fill:#df1126;}</style></defs><g transform="translate(-378.587 -1547.847)"><path class="a" d="M556.722,1573.99H530.8a1.83,1.83,0,0,0-1.848,1.807v2.741a1.83,1.83,0,0,0,1.848,1.807h9.314v27.826a1.831,1.831,0,0,0,1.848,1.809h3.57a1.831,1.831,0,0,0,1.848-1.809v-27.826h9.339a1.83,1.83,0,0,0,1.848-1.807V1575.8A1.83,1.83,0,0,0,556.722,1573.99Z" transform="translate(-54.395 -9.457)"/><path class="a" d="M595.005,1598.444l8.951-23.277a1.857,1.857,0,0,1,1.733-1.177h4.045a1.853,1.853,0,0,1,1.523.786,1.773,1.773,0,0,1,.2,1.681l-12.988,32.375a1.863,1.863,0,0,1-1.721,1.147h-3.523a1.861,1.861,0,0,1-1.723-1.155l-12.851-32.373a1.772,1.772,0,0,1,.2-1.678,1.861,1.861,0,0,1,1.523-.784h3.911a1.851,1.851,0,0,1,1.739,1.2Z" transform="translate(-72.328 -9.457)"/><path class="b" d="M613.875,1560.506a18.023,18.023,0,0,0-2.387-6.453,9.89,9.89,0,0,0-5.664-4.267,40.209,40.209,0,0,0-8.436-1.554,115.744,115.744,0,0,0-17.3-.123,165.64,165.64,0,0,0-22.568,2.812,96.506,96.506,0,0,0-9.968,2.477c-.984.353-1.975.689-2.949,1.064a23.327,23.327,0,0,0-4.171,2.034,12.747,12.747,0,0,0-2.493,2.085,97.647,97.647,0,0,1,9.565-2.358,165.58,165.58,0,0,1,22.568-2.812,115.678,115.678,0,0,1,17.3.123,40.224,40.224,0,0,1,8.436,1.554,9.889,9.889,0,0,1,5.664,4.267,18.029,18.029,0,0,1,2.387,6.453c1.412,7.96.4,16.049-2.559,24.232a30.517,30.517,0,0,1-3.717,7.233,20.549,20.549,0,0,1-1.675,2.1c1.013-.28,2.273-.619,3.272-.975a17.659,17.659,0,0,0,4.334-2.2,16.361,16.361,0,0,0,4.085-4.219,30.537,30.537,0,0,0,3.718-7.234C614.274,1576.555,615.287,1568.465,613.875,1560.506Z" transform="translate(-57.647 0)"/><path class="c" d="M510.7,1575.167h-3.919l-.067-8.215a1.83,1.83,0,0,0-1.793-1.85h-1.331a3.4,3.4,0,0,0-1.52.358l-2.991,1.49a1.874,1.874,0,0,0-1.019,1.682v6.535h-2.524a1.2,1.2,0,0,0-1.2,1.2v1.274h0v.9a1.831,1.831,0,0,0,1.793,1.866h1.929v16.777q0,4.751.62,6.23a5.013,5.013,0,0,0,2.141,2.389,8.394,8.394,0,0,0,4.283.909h5.523a1.78,1.78,0,0,0,1.69-1.4,2.809,2.809,0,0,0,.069-.542c.145-3.122-1.589-2.891-1.589-2.891-.851,0-2.286-.112-2.286-.112a2.283,2.283,0,0,1-.588-.228,2.173,2.173,0,0,1-.874-1.026,10.638,10.638,0,0,1-.267-3.034V1580.4h3.769a1.32,1.32,0,0,0,1.321-1.33l-.022-2.768A1.148,1.148,0,0,0,510.7,1575.167Z" transform="translate(-41.872 -6.242)"/><path class="c" d="M466.7,1602.224a1.689,1.689,0,0,0-1.509.953,8.864,8.864,0,0,1-2.576,3.27,6.963,6.963,0,0,1-.809.517,4.874,4.874,0,0,1-4.615-.021,8.836,8.836,0,0,1-2.212-1.7,11.638,11.638,0,0,1-2.866-7.34.481.481,0,0,1,.479-.516h21.333a1.4,1.4,0,0,0,1.4-1.4v-.01q0-7.709-3.958-11.96a13.31,13.31,0,0,0-10.2-4.25h-3.826a13.693,13.693,0,0,0-10.495,4.338q-4.045,4.339-4.045,12.195,0,7.592,4,11.8t10.832,4.207h3.826a14.363,14.363,0,0,0,8.911-2.638,12.882,12.882,0,0,0,4.365-6.095,1,1,0,0,0-.95-1.327Zm-11.59-15.682a8.512,8.512,0,0,1,1.717-1.312,4.769,4.769,0,0,1,4.758-.076,8.489,8.489,0,0,1,2.348,2,9.723,9.723,0,0,1,1.891,4.984.8.8,0,0,1-.79.908h-12.2a.427.427,0,0,1-.426-.463A9.455,9.455,0,0,1,455.109,1586.541Z" transform="translate(-23.228 -11.549)"/><path class="c" d="M380.065,1605.768h5.758a1.829,1.829,0,0,0,1.806-1.851v-24.638a.6.6,0,0,1,1.115-.341l16.139,25.244a3.4,3.4,0,0,0,2.864,1.587h4.391c2.812,0,3.173-1.907,3.173-4.26v-37.053a2.082,2.082,0,0,0-2.055-2.107h-5.149a1.859,1.859,0,0,0-1.835,1.884l.035,24.529a.523.523,0,0,1-.962.3l-15.458-23.808a6.313,6.313,0,0,0-5.289-2.9h-4.267a1.764,1.764,0,0,0-1.742,1.786v40.118A1.5,1.5,0,0,0,380.065,1605.768Z" transform="translate(0 -5.246)"/></g></svg>