<svg xmlns="http://www.w3.org/2000/svg" width="147.143" height="43.674" viewBox="0 0 147.143 43.674"><defs><style>.a{fill:#fafafa;}</style></defs><g transform="translate(-378.587 -1547.847)"><path class="a" d="M551.873,1573.99H530.479a1.511,1.511,0,0,0-1.526,1.491v2.262a1.51,1.51,0,0,0,1.526,1.492h7.688V1602.2a1.512,1.512,0,0,0,1.526,1.493h2.947a1.512,1.512,0,0,0,1.526-1.493v-22.967h7.709a1.511,1.511,0,0,0,1.526-1.492v-2.262A1.511,1.511,0,0,0,551.873,1573.99Z" transform="translate(-71.152 -12.371)"/><path class="a" d="M592.127,1594.174l7.388-19.213a1.533,1.533,0,0,1,1.43-.971h3.339a1.529,1.529,0,0,1,1.257.649,1.463,1.463,0,0,1,.162,1.387l-10.72,26.722a1.538,1.538,0,0,1-1.42.947h-2.907a1.536,1.536,0,0,1-1.422-.953l-10.607-26.72a1.463,1.463,0,0,1,.165-1.385,1.537,1.537,0,0,1,1.258-.647h3.228a1.528,1.528,0,0,1,1.436.988Z" transform="translate(-94.609 -12.371)"/><path class="a" d="M600.617,1558.3a14.877,14.877,0,0,0-1.97-5.327,8.163,8.163,0,0,0-4.675-3.522,33.192,33.192,0,0,0-6.963-1.283,95.542,95.542,0,0,0-14.277-.1,136.719,136.719,0,0,0-18.628,2.321,79.613,79.613,0,0,0-8.228,2.045c-.812.291-1.63.568-2.434.878a19.251,19.251,0,0,0-3.443,1.679,10.521,10.521,0,0,0-2.058,1.721,80.6,80.6,0,0,1,7.895-1.947,136.656,136.656,0,0,1,18.628-2.321,95.46,95.46,0,0,1,14.277.1,33.2,33.2,0,0,1,6.963,1.283,8.163,8.163,0,0,1,4.675,3.522,14.882,14.882,0,0,1,1.97,5.327,38.445,38.445,0,0,1-2.112,20,25.186,25.186,0,0,1-3.068,5.97,16.961,16.961,0,0,1-1.382,1.729c.837-.231,1.876-.511,2.7-.8a14.575,14.575,0,0,0,3.578-1.818,13.506,13.506,0,0,0,3.372-3.482,25.2,25.2,0,0,0,3.069-5.971A38.448,38.448,0,0,0,600.617,1558.3Z" transform="translate(-75.406 0)"/><path class="a" d="M507.841,1573.41h-3.235l-.055-6.781a1.51,1.51,0,0,0-1.48-1.527h-1.1a2.806,2.806,0,0,0-1.254.3l-2.469,1.23a1.547,1.547,0,0,0-.841,1.389v5.394h-2.084a.987.987,0,0,0-.987.987v1.051h0v.744a1.511,1.511,0,0,0,1.48,1.54h1.592v13.848a16.178,16.178,0,0,0,.512,5.142,4.138,4.138,0,0,0,1.767,1.972,6.929,6.929,0,0,0,3.535.75h4.558a1.469,1.469,0,0,0,1.395-1.157,2.318,2.318,0,0,0,.057-.447c.12-2.577-1.311-2.386-1.311-2.386-.7,0-1.887-.092-1.887-.092a1.886,1.886,0,0,1-.486-.188,1.793,1.793,0,0,1-.721-.847,8.782,8.782,0,0,1-.221-2.5v-14.09h3.111a1.09,1.09,0,0,0,1.09-1.1l-.018-2.284A.948.948,0,0,0,507.841,1573.41Z" transform="translate(-54.771 -8.165)"/><path class="a" d="M462.526,1598.3a1.394,1.394,0,0,0-1.246.787,7.316,7.316,0,0,1-2.126,2.7,5.765,5.765,0,0,1-.668.427,4.023,4.023,0,0,1-3.809-.018,7.291,7.291,0,0,1-1.825-1.4,9.606,9.606,0,0,1-2.366-6.058.4.4,0,0,1,.4-.426h17.608a1.155,1.155,0,0,0,1.154-1.154v-.008q0-6.363-3.267-9.872a10.986,10.986,0,0,0-8.42-3.508H454.8a11.3,11.3,0,0,0-8.662,3.581q-3.339,3.581-3.339,10.065,0,6.267,3.3,9.739a11.751,11.751,0,0,0,8.94,3.472H458.2a11.855,11.855,0,0,0,7.355-2.178,10.632,10.632,0,0,0,3.6-5.03.827.827,0,0,0-.784-1.1Zm-9.566-12.944a7.029,7.029,0,0,1,1.417-1.083,3.937,3.937,0,0,1,3.927-.063,7.006,7.006,0,0,1,1.938,1.654,8.026,8.026,0,0,1,1.561,4.114.661.661,0,0,1-.652.75h-10.07a.352.352,0,0,1-.352-.382A7.8,7.8,0,0,1,452.96,1585.359Z" transform="translate(-30.384 -15.106)"/><path class="a" d="M379.807,1598.187h4.753a1.51,1.51,0,0,0,1.49-1.528v-20.336a.5.5,0,0,1,.92-.281l13.321,20.836a2.81,2.81,0,0,0,2.364,1.31h3.624c2.321,0,2.619-1.574,2.619-3.516v-30.584a1.718,1.718,0,0,0-1.7-1.739h-4.25a1.534,1.534,0,0,0-1.515,1.555l.029,20.246a.432.432,0,0,1-.794.247l-12.759-19.651a5.21,5.21,0,0,0-4.366-2.4h-3.522a1.456,1.456,0,0,0-1.438,1.474v33.114A1.236,1.236,0,0,0,379.807,1598.187Z" transform="translate(0 -6.862)"/></g></svg>