<svg xmlns="http://www.w3.org/2000/svg" xmlns:xlink="http://www.w3.org/1999/xlink" width="167.011" height="62.229" viewBox="0 0 167.011 62.229"><defs><style>.a{fill:#82d3e8;}.b{filter:url(#k);}.c{filter:url(#i);}.d{filter:url(#g);}.e{filter:url(#e);}.f{filter:url(#c);}.g{filter:url(#a);}</style><filter id="a" x="80.219" y="13.947" width="42.756" height="48.083" filterUnits="userSpaceOnUse"><feOffset dy="3" input="SourceAlpha"/><feGaussianBlur stdDeviation="3" result="b"/><feFlood flood-color="#0100c0"/><feComposite operator="in" in2="b"/><feComposite in="SourceGraphic"/></filter><filter id="c" x="106.665" y="13.947" width="45.632" height="48.083" filterUnits="userSpaceOnUse"><feOffset dy="3" input="SourceAlpha"/><feGaussianBlur stdDeviation="3" result="d"/><feFlood flood-color="#0100c0"/><feComposite operator="in" in2="d"/><feComposite in="SourceGraphic"/></filter><filter id="e" x="85.015" y="0" width="81.996" height="61.065" filterUnits="userSpaceOnUse"><feOffset dy="3" input="SourceAlpha"/><feGaussianBlur stdDeviation="3" result="f"/><feFlood flood-color="#0100c0"/><feComposite operator="in" in2="f"/><feComposite in="SourceGraphic"/></filter><filter id="g" x="61.751" y="9.206" width="33.093" height="52.778" filterUnits="userSpaceOnUse"><feOffset dy="3" input="SourceAlpha"/><feGaussianBlur stdDeviation="3" result="h"/><feFlood flood-color="#0100c0"/><feComposite operator="in" in2="h"/><feComposite in="SourceGraphic"/></filter><filter id="i" x="34.256" y="17.031" width="45.187" height="45.198" filterUnits="userSpaceOnUse"><feOffset dy="3" input="SourceAlpha"/><feGaussianBlur stdDeviation="3" result="j"/><feFlood flood-color="#0100c0"/><feComposite operator="in" in2="j"/><feComposite in="SourceGraphic"/></filter><filter id="k" x="0" y="7.736" width="48.696" height="54.293" filterUnits="userSpaceOnUse"><feOffset dy="3" input="SourceAlpha"/><feGaussianBlur stdDeviation="3" result="l"/><feFlood flood-color="#0100c0"/><feComposite operator="in" in2="l"/><feComposite in="SourceGraphic"/></filter></defs><g transform="translate(9 6)"><g class="g" transform="matrix(1, 0, 0, 1, -9, -6)"><path class="a" d="M552.164,1573.99H530.5a1.53,1.53,0,0,0-1.545,1.51v2.291a1.53,1.53,0,0,0,1.545,1.511h7.785v23.259a1.531,1.531,0,0,0,1.545,1.512h2.984a1.531,1.531,0,0,0,1.545-1.512V1579.3h7.807a1.53,1.53,0,0,0,1.545-1.511V1575.5A1.53,1.53,0,0,0,552.164,1573.99Z" transform="translate(-439.73 -1554.04)"/></g><g class="f" transform="matrix(1, 0, 0, 1, -9, -6)"><path class="a" d="M592.3,1594.43l7.482-19.456a1.553,1.553,0,0,1,1.448-.984h3.381a1.549,1.549,0,0,1,1.273.657,1.482,1.482,0,0,1,.164,1.405l-10.856,27.061a1.557,1.557,0,0,1-1.438.959h-2.944a1.556,1.556,0,0,1-1.44-.965l-10.742-27.06a1.481,1.481,0,0,1,.167-1.4,1.556,1.556,0,0,1,1.273-.655h3.269a1.547,1.547,0,0,1,1.454,1Z" transform="translate(-462.86 -1554.04)"/></g><g class="e" transform="matrix(1, 0, 0, 1, -9, -6)"><path class="a" d="M601.412,1558.428a15.063,15.063,0,0,0-2-5.394,8.267,8.267,0,0,0-4.734-3.566,33.618,33.618,0,0,0-7.051-1.3,96.754,96.754,0,0,0-14.458-.1,138.455,138.455,0,0,0-18.864,2.35,80.684,80.684,0,0,0-8.332,2.071c-.822.295-1.651.576-2.465.889a19.494,19.494,0,0,0-3.486,1.7,10.653,10.653,0,0,0-2.084,1.743,81.587,81.587,0,0,1,7.995-1.971,138.394,138.394,0,0,1,18.864-2.35,96.7,96.7,0,0,1,14.458.1,33.624,33.624,0,0,1,7.051,1.3,8.266,8.266,0,0,1,4.734,3.566,15.072,15.072,0,0,1,2,5.394,38.933,38.933,0,0,1-2.139,20.255,25.509,25.509,0,0,1-3.107,6.046,17.187,17.187,0,0,1-1.4,1.751c.847-.234,1.9-.517,2.735-.815a14.762,14.762,0,0,0,3.623-1.841,13.675,13.675,0,0,0,3.414-3.526,25.525,25.525,0,0,0,3.108-6.047A38.937,38.937,0,0,0,601.412,1558.428Z" transform="translate(-443.93 -1541.85)"/></g><g class="d" transform="matrix(1, 0, 0, 1, -9, -6)"><path class="a" d="M508.013,1573.515h-3.276l-.056-6.867a1.53,1.53,0,0,0-1.5-1.547h-1.113a2.844,2.844,0,0,0-1.27.3l-2.5,1.245a1.566,1.566,0,0,0-.851,1.406v5.462h-2.11a1,1,0,0,0-1,1v1.065h0v.754a1.53,1.53,0,0,0,1.5,1.559h1.612v14.024a16.384,16.384,0,0,0,.518,5.208,4.191,4.191,0,0,0,1.79,2,7.017,7.017,0,0,0,3.58.76h4.616a1.488,1.488,0,0,0,1.412-1.172,2.351,2.351,0,0,0,.058-.453c.121-2.61-1.328-2.417-1.328-2.417-.711,0-1.91-.093-1.91-.093a1.912,1.912,0,0,1-.492-.19,1.816,1.816,0,0,1-.73-.858,8.894,8.894,0,0,1-.223-2.536v-14.269h3.151a1.1,1.1,0,0,0,1.1-1.112l-.019-2.313A.96.96,0,0,0,508.013,1573.515Z" transform="translate(-423.58 -1549.9)"/></g><g class="c" transform="matrix(1, 0, 0, 1, -9, -6)"><path class="a" d="M462.776,1598.538a1.412,1.412,0,0,0-1.262.8,7.41,7.41,0,0,1-2.153,2.733,5.827,5.827,0,0,1-.676.432,4.074,4.074,0,0,1-3.858-.018,7.387,7.387,0,0,1-1.849-1.42,9.728,9.728,0,0,1-2.4-6.135.4.4,0,0,1,.4-.432h17.831a1.169,1.169,0,0,0,1.169-1.168v-.008q0-6.444-3.308-10a11.126,11.126,0,0,0-8.527-3.552h-3.2a11.445,11.445,0,0,0-8.772,3.626q-3.381,3.627-3.381,10.193,0,6.346,3.344,9.862a11.9,11.9,0,0,0,9.054,3.516h3.2a12.006,12.006,0,0,0,7.449-2.205,10.767,10.767,0,0,0,3.649-5.094.838.838,0,0,0-.794-1.109Zm-9.688-13.108a7.118,7.118,0,0,1,1.435-1.1,3.987,3.987,0,0,1,3.977-.063,7.1,7.1,0,0,1,1.963,1.675,8.127,8.127,0,0,1,1.581,4.166.669.669,0,0,1-.66.759h-10.2a.357.357,0,0,1-.356-.387A7.9,7.9,0,0,1,453.089,1585.43Z" transform="translate(-399.54 -1556.74)"/></g><g class="b" transform="matrix(1, 0, 0, 1, -9, -6)"><path class="a" d="M379.823,1598.641h4.813a1.529,1.529,0,0,0,1.509-1.547V1576.5a.506.506,0,0,1,.932-.285l13.49,21.1a2.846,2.846,0,0,0,2.394,1.326h3.67c2.351,0,2.652-1.594,2.652-3.56v-30.972a1.74,1.74,0,0,0-1.718-1.761h-4.3a1.554,1.554,0,0,0-1.534,1.575l.029,20.5a.437.437,0,0,1-.8.25l-12.921-19.9a5.277,5.277,0,0,0-4.421-2.428h-3.567a1.475,1.475,0,0,0-1.456,1.493v33.534A1.251,1.251,0,0,0,379.823,1598.641Z" transform="translate(-369.59 -1548.61)"/></g></g></svg>