<svg xmlns="http://www.w3.org/2000/svg" xmlns:xlink="http://www.w3.org/1999/xlink" width="148.84" height="102.324" viewBox="0 0 148.84 102.324"><defs><style>.a{fill:#fff;}.b{fill:#002d5e;}.c{fill:#29cbb9;}.d{filter:url(#a);}</style><filter id="a" x="0" y="0" width="148.84" height="102.324" filterUnits="userSpaceOnUse"><feOffset dy="3" input="SourceAlpha"/><feGaussianBlur stdDeviation="3" result="b"/><feFlood flood-opacity="0.161"/><feComposite operator="in" in2="b"/><feComposite in="SourceGraphic"/></filter></defs><g transform="translate(-615 -988)"><g class="d" transform="matrix(1, 0, 0, 1, 615, 988)"><path class="a" d="M-1097.866,1638.639a15.993,15.993,0,0,0-4.8,10.742l-3.9,42.326a14.135,14.135,0,0,0,14.136,14.136l84.185.91a5.1,5.1,0,0,0,.852.058,10.086,10.086,0,0,0,1.881-.183,24.86,24.86,0,0,0,4.238-1.174,31.988,31.988,0,0,0,7.521-3.669,26.846,26.846,0,0,0,6.7-6.92,50.062,50.062,0,0,0,6.1-11.865c4.852-13.422,6.513-26.692,4.2-39.748a29.582,29.582,0,0,0-3.916-10.585,16.216,16.216,0,0,0-9.29-7,65.926,65.926,0,0,0-13.838-2.549,189.636,189.636,0,0,0-28.372-.2,271.607,271.607,0,0,0-37.019,4.612,158.232,158.232,0,0,0-16.351,4.062,48.247,48.247,0,0,0-4.836,1.746,30.8,30.8,0,0,0-6.831,4.55" transform="translate(1115.56 -1616.49)"/></g><g transform="translate(1730.565 -628.487)"><path class="b" d="M-1024.8,1668.874a8.485,8.485,0,0,0-2.05-1.485,17.79,17.79,0,0,0-2.756-1.147,10.209,10.209,0,0,1-1.883-.775,1.154,1.154,0,0,1-.638-1.046,1.329,1.329,0,0,1,.759-1.249,3.573,3.573,0,0,1,1.7-.4h.021a7.551,7.551,0,0,1,3.121.739,7.743,7.743,0,0,1,2.289,1.6l3.171-5.648a6.894,6.894,0,0,0-1.585-1.214,12.326,12.326,0,0,0-2.058-.928,15.174,15.174,0,0,0-2.362-.607,14.609,14.609,0,0,0-2.53-.22,13.235,13.235,0,0,0-4.268.658,11.284,11.284,0,0,0-2.105.957l.537-.938h-9.082l-7.244,15.1h-.137l-1.088-15.1h-17.535l-6.258,13.2h-.17l-2.109-13.2h-10.034l-4.251,24.082H-1086l2.075-13.946h.17l2.143,13.946h5.544l7.109-13.946h.2l-2.687,13.946h7.653l3.194-18.089,2.606,18.089h8.776l9.089-15.89a6.2,6.2,0,0,0,.468,2.383,5.414,5.414,0,0,0,1.3,1.821,7.876,7.876,0,0,0,1.956,1.3,18.7,18.7,0,0,0,2.412.944,7.369,7.369,0,0,1,2.21.978,1.368,1.368,0,0,1,.591,1.08,1.226,1.226,0,0,1-.709,1.13,3.931,3.931,0,0,1-1.889.388,5.166,5.166,0,0,1-1.181-.152q-.385-.092-.766-.219h0a7.843,7.843,0,0,1-1.926-.993,7.418,7.418,0,0,1-2.277-2.5l-3.589,6.425c1.793,2.111,5.141,3.6,9.029,3.764h.044c.234.01.468.014.7.014a15.069,15.069,0,0,0,3.672-.472,11.354,11.354,0,0,0,3.445-1.484,8.329,8.329,0,0,0,2.57-2.632,7.257,7.257,0,0,0,1.008-3.913,6.205,6.205,0,0,0-.454-2.429,5.981,5.981,0,0,0-1.294-1.923"/><path class="c" d="M-997.513,1662.787l-4.333,10.217h-.13l-.652-10.217h-9.188l.546-3.331h-6.181l-4.638,8.221h2.542l-1.261,7.539q-.066.422-.114.913c-.033.327-.049.62-.049.877a4.831,4.831,0,0,0,.505,2.353,3.952,3.952,0,0,0,1.319,1.439,5.319,5.319,0,0,0,1.857.737,10.633,10.633,0,0,0,2.118.211,13.061,13.061,0,0,0,2.086-.175,4.132,4.132,0,0,0,1.5-.457l.88-5.407q-.261.07-.652.14a4.3,4.3,0,0,1-.781.071,1.818,1.818,0,0,1-1.059-.264,1.238,1.238,0,0,1-.375-1.07c0-.117.005-.269.016-.457s.027-.351.049-.491l1-5.959h2.96l2.132,13.577h7.95l10.036-18.467Z"/></g></g></svg>