<svg xmlns="http://www.w3.org/2000/svg" xmlns:xlink="http://www.w3.org/1999/xlink" width="143" height="98.56" viewBox="0 0 143 98.56"><defs><style>.a{fill:#fff;}.b,.c{fill:#116155;}.c{font-size:28.23px;font-family:Helvetica;letter-spacing:0.04em;}.d{filter:url(#a);}</style><filter id="a" x="0" y="0" width="143" height="98.56" filterUnits="userSpaceOnUse"><feOffset dy="3" input="SourceAlpha"/><feGaussianBlur stdDeviation="3" result="b"/><feFlood flood-opacity="0.161"/><feComposite operator="in" in2="b"/><feComposite in="SourceGraphic"/></filter></defs><g transform="translate(-617.92 -1087.403)"><g class="d" transform="matrix(1, 0, 0, 1, 617.92, 1087.4)"><path class="a" d="M-1095.334,1737.32a15.287,15.287,0,0,0-4.588,10.263l-3.723,40.437a13.505,13.505,0,0,0,13.505,13.505l80.427.869a4.97,4.97,0,0,0,.814.056,9.755,9.755,0,0,0,1.8-.175,23.823,23.823,0,0,0,4.049-1.122,30.591,30.591,0,0,0,7.185-3.505,25.636,25.636,0,0,0,6.4-6.612,47.845,47.845,0,0,0,5.826-11.335c4.635-12.822,6.223-25.5,4.01-37.974a28.242,28.242,0,0,0-3.74-10.112,15.5,15.5,0,0,0-8.876-6.687,63.027,63.027,0,0,0-13.22-2.435,181.413,181.413,0,0,0-27.106-.193,259.471,259.471,0,0,0-35.366,4.406,151.412,151.412,0,0,0-15.621,3.881,46.277,46.277,0,0,0-4.62,1.668,29.452,29.452,0,0,0-6.526,4.348" transform="translate(1112.65 -1715.89)"/></g><g transform="translate(1730.565 -628.487)"><path class="b" d="M-1048.463,1744.071a2.863,2.863,0,0,1,1.687-.513,2.337,2.337,0,0,1,1.609.582,2.056,2.056,0,0,1,.661,1.612l.03,42.3a2.195,2.195,0,0,1-.661,1.613,2.188,2.188,0,0,1-1.609.663,2.191,2.191,0,0,1-1.615-.66,2.195,2.195,0,0,1-.661-1.613l-.03-38.117-5.272,3.228a2.158,2.158,0,0,1-1.171.369,2.337,2.337,0,0,1-1.538-.622,2.066,2.066,0,0,1-.738-1.651,2.461,2.461,0,0,1,.252-1.1,2.3,2.3,0,0,1,.847-.88Z"/><path class="b" d="M-1046.746,1793.4a5.239,5.239,0,0,1-3.8-1.567,5.241,5.241,0,0,1-1.555-3.781l-.024-32.631-.6.363a5.309,5.309,0,0,1-6.305-.532,5.156,5.156,0,0,1-1.82-3.966,5.587,5.587,0,0,1,.565-2.48,5.386,5.386,0,0,1,1.969-2.126l8.149-5.173a5.9,5.9,0,0,1,7.038.336,5.143,5.143,0,0,1,1.694,3.909l.03,42.294a5.249,5.249,0,0,1-1.562,3.79A5.231,5.231,0,0,1-1046.746,1793.4Z"/><text class="c" transform="translate(-1018.903 1792.541) rotate(-90)"><tspan x="0" y="0">UNO</tspan></text></g></g></svg>