<svg xmlns="http://www.w3.org/2000/svg" xmlns:xlink="http://www.w3.org/1999/xlink" width="138" height="110" viewBox="0 0 138 110"><defs><style>.a{fill:none;}.b{fill:url(#a);}.c{clip-path:url(#d);}.d{fill:#dd1a1d;}.e{clip-path:url(#e);}.f{filter:url(#b);}</style><linearGradient id="a" x1="0.5" y1="0.31" x2="0.5" y2="1" gradientUnits="objectBoundingBox"><stop offset="0" stop-color="#fff"/><stop offset="1" stop-color="#bfbfbf"/></linearGradient><filter id="b" x="0" y="0" width="138" height="110" filterUnits="userSpaceOnUse"><feOffset dy="3" input="SourceAlpha"/><feGaussianBlur stdDeviation="4" result="c"/><feFlood flood-opacity="0.424"/><feComposite operator="in" in2="c"/><feComposite in="SourceGraphic"/></filter><clipPath id="d"><rect class="a" width="95" height="18.973"/></clipPath><clipPath id="e"><rect class="a" width="95.001" height="18.973"/></clipPath></defs><g transform="translate(-834 -1018)"><g transform="translate(846 1027)"><g class="f" transform="matrix(1, 0, 0, 1, -12, -9)"><rect class="b" width="114" height="86" rx="5" transform="translate(12 9)"/></g></g><g transform="translate(717.98 618.394)"><g transform="translate(137.02 442.606)"><g class="c"><path class="d" d="M138.2,442.61l-.648,5.331h16.306l.652-5.331Z" transform="translate(-135.888 -442.596)"/><g transform="translate(0 0.001)"><g class="e"><path class="d" d="M173.883,447.944H155.476l.66-5.33s10.44-.013,13.818,0c2.184.013,4.362.987,4.035,4.5Z" transform="translate(-97.474 -442.601)"/><path class="d" d="M156.35,444.962h6.255l-1.4,11.559h-6.25Z" transform="translate(-98.599 -437.556)"/><path class="d" d="M160.217,444.962h6.257l-1.407,11.559h-6.25Z" transform="translate(-90.313 -437.556)"/><path class="d" d="M138.425,444.962h16.31l-.525,4.331H144.151l-.286,2.212h10.07l-.61,5.016h-16.3Z" transform="translate(-137.02 -437.556)"/><path class="d" d="M150.337,444.963l-1.417,11.559h6.254l.893-7.228h7.272c2.15-.016,4.164-1.138,4.6-4.331Z" transform="translate(-111.522 -437.555)"/><path class="d" d="M176.841,442.606h-28.7a5.021,5.021,0,0,0-4.846,4.324l-.126,1.04h37.348l.126-1.04a3.751,3.751,0,0,0-3.8-4.324" transform="translate(-123.849 -442.605)"/><path class="d" d="M156.548,456.524c-.361.013-13.906,0-13.906,0l.607-5.016h12.26l.264-2.212h-8a2.033,2.033,0,0,1-.229-.009,3.725,3.725,0,0,1-3.539-3.627c-.009-.308.025-.694.025-.694s13.922,0,14,0c2.2.022,4.045,1.147,3.891,4.17l-.393,3.168a4.666,4.666,0,0,1-4.984,4.221" transform="translate(-124.974 -437.557)"/><path class="d" d="M174.784,442.611c-2.555,0-8.972,0-10.648,0l-.515,4.233h9.164a.625.625,0,0,1,.663.713s0,.33-.044.779a4.847,4.847,0,0,1-.138.7c-.113.362-.368.622-1.065.676-2.668,0-5.044,0-5.044,0l-.528,4.277h5.22c.437,0,.723.371.713.877a4.957,4.957,0,0,1-.009.691,5.386,5.386,0,0,1-.145.852.894.894,0,0,1-.864.789l-9.183,0-.531,4.365c1.531,0,7.63.01,10.578,0a4.8,4.8,0,0,0,4.975-3.608h0a17.653,17.653,0,0,0,.465-2.96c.013-.141.031-.459.031-.459v0a2.739,2.739,0,0,0-1.4-2.75,3.766,3.766,0,0,0,2.124-2.888,13.973,13.973,0,0,0,.239-2.059h0c.192-3.294-1.826-4.233-4.063-4.233" transform="translate(-83.859 -442.598)"/></g></g></g></g></g></g></svg>