<svg xmlns="http://www.w3.org/2000/svg" xmlns:xlink="http://www.w3.org/1999/xlink" width="138" height="110" viewBox="0 0 138 110"><defs><style>.a{fill:url(#a);}.b{fill:#d90017;}.c{filter:url(#b);}</style><linearGradient id="a" x1="0.5" y1="0.31" x2="0.5" y2="1" gradientUnits="objectBoundingBox"><stop offset="0" stop-color="#fff"/><stop offset="1" stop-color="#bfbfbf"/></linearGradient><filter id="b" x="0" y="0" width="138" height="110" filterUnits="userSpaceOnUse"><feOffset dy="3" input="SourceAlpha"/><feGaussianBlur stdDeviation="4" result="c"/><feFlood flood-opacity="0.424"/><feComposite operator="in" in2="c"/><feComposite in="SourceGraphic"/></filter></defs><g transform="translate(-511 -1156)"><g transform="translate(523 1165)"><g class="c" transform="matrix(1, 0, 0, 1, -12, -9)"><rect class="a" width="114" height="86" rx="5" transform="translate(12 9)"/></g></g><g transform="translate(260.694 731.038)"><g transform="translate(344.464 491.753)"><path class="b" d="M313.3,470.381v.231h-.442v1.172h-.288v-1.172h-.442v-.231Zm1.519,1.4-.057-.829c0-.107,0-.241-.015-.395h-.007c-.032.132-.074.3-.112.422l-.256.777h-.3l-.248-.794c-.025-.1-.067-.273-.094-.4h-.017c0,.134,0,.266-.005.395l-.057.829h-.273l.107-1.4h.415l.246.68c.035.117.06.213.089.358h.015a2.762,2.762,0,0,1,.092-.345l.246-.693h.4l.112,1.4Z" transform="translate(-312.124 -470.381)"/></g><g transform="translate(290.306 455.962)"><path class="b" d="M291.894,473.564c.01,4.106,2.8,8.529,8.936,8.529h7.395a.9.9,0,0,0,.891-.891V465.889a1.534,1.534,0,0,1,1.005-1.561,1.507,1.507,0,0,1,1.666.618l.015.027c2.055,3.368,10.2,16.405,10.46,16.83a.638.638,0,0,0,.685.3c.256-.072.417-.38.417-.794V465.894a1.522,1.522,0,0,1,1-1.559,1.479,1.479,0,0,1,1.656.621l.02.017c2.053,3.368,10.192,16.408,10.46,16.83a.646.646,0,0,0,.7.308c.256-.077.417-.385.417-.8V460.989h-3.157v11.865s-1.9-3.222-5.146-8.78c-3.167-5.446-9.149-3.195-9.149,1.489v7.288s-1.849-3.224-5.086-8.782c-3.162-5.446-9.157-3.192-9.162,1.492V478.1a.819.819,0,0,1-.817.851h-3.92c-8.477.012-7.72-10.837-.5-10.842,3.2-.007,4.324,0,4.324,0v-3.143h-4.5A8.35,8.35,0,0,0,291.894,473.564Z" transform="translate(-287.952 -448.657)"/><path class="b" d="M340.775,460.933v20.322a1.488,1.488,0,0,1-.971,1.559,1.3,1.3,0,0,1-.407.065,1.5,1.5,0,0,1-1.2-.678l0-.02c-.087-.137-8.375-13.4-10.48-16.839a.69.69,0,0,0-.755-.3.769.769,0,0,0-.439.8v15.415a1.507,1.507,0,0,1-.973,1.561,1.4,1.4,0,0,1-1.581-.621l-.017-.012c-.082-.137-8.37-13.407-10.473-16.839a.675.675,0,0,0-.75-.3c-.29.087-.447.387-.447.792v15.313a1.692,1.692,0,0,1-1.7,1.688h-7.395c-6.685,0-9.725-4.845-9.728-9.326a9.107,9.107,0,0,1,9.41-9.4h4.5v-3.18h-3.927c-17.624,0-17.47,25.113.233,25.123h6.908c2.971,0,4.893-1.76,4.888-5.012v-6.362s3.88,6.426,5.406,8.944c2.584,4.279,8.854,3.435,8.837-1.906v-7.037s3.872,6.429,5.389,8.948c2.6,4.277,8.854,3.438,8.839-1.911V460.933Z" transform="translate(-290.306 -448.601)"/><path class="b" d="M322.223,462.265c-2.894.079-4.925-.73-8.015-1.954l-.3-.124c-3-1.192-4.989-1.973-7.75-1.906a7.652,7.652,0,0,0-7.541,5.409h1.229a7.857,7.857,0,0,1,1.536-2.261,5.939,5.939,0,0,1,4.049-1.326,8.628,8.628,0,0,1,1.968.256,14.214,14.214,0,0,1,1.931.571l2.343.931c.839.325,1.467.6,2.11.827l.3.132a25.321,25.321,0,0,0,3.435,1.015,14.683,14.683,0,0,0,3.279.375,11.844,11.844,0,0,0,6.541-1.939,10.649,10.649,0,0,0,4.292-6.1h-1.177l-.04.132A8.411,8.411,0,0,1,322.223,462.265Z" transform="translate(-277.991 -455.66)"/><path class="b" d="M299.081,463.893a8.418,8.418,0,0,1,8.174-5.967c2.907-.072,4.937.732,8.013,1.954l.315.124c3,1.194,4.987,1.986,7.759,1.911a7.639,7.639,0,0,0,7.539-5.446H329.65a7.751,7.751,0,0,1-1.541,2.264,5.9,5.9,0,0,1-4.051,1.33,8.906,8.906,0,0,1-1.968-.256,18.213,18.213,0,0,1-1.926-.566l-2.338-.938-.261-.092-2.013-.77a28.308,28.308,0,0,0-3.577-1.115,15.057,15.057,0,0,0-3.267-.365,11.819,11.819,0,0,0-6.548,1.934,10.754,10.754,0,0,0-4.3,6.1h1.206Z" transform="translate(-279.116 -455.962)"/></g></g></g></svg>