<svg xmlns="http://www.w3.org/2000/svg" width="96" height="94" viewBox="0 0 96 94"><defs><style>.a,.c{fill:#fff;}.a{stroke:#b1b1b1;stroke-width:0.5px;}.b{fill:#ee2e24;}.d{stroke:none;}.e{fill:none;}</style></defs><g transform="translate(-1292 -453)"><g class="a" transform="translate(1292 453)"><rect class="d" width="96" height="94"/><rect class="e" x="0.25" y="0.25" width="95.5" height="93.5"/></g><g transform="translate(927.672 667.041)"><path class="b" d="M412.211-191.041c7.616.113,14.113,2.811,19.178,8.569a23.007,23.007,0,0,1-1.947,32.4,25.8,25.8,0,0,1-35.913-1.481c-11.107-11.925-6.726-31.021,8.594-37.462A25.5,25.5,0,0,1,412.211-191.041Zm2.02,22.537v15.609c3.171,0,6.256.12,9.327-.041a4.322,4.322,0,0,0,4.1-3.552c.513-1.97-.121-3.381-1.873-4.664a10.324,10.324,0,0,0,1.358-2.479,3.775,3.775,0,0,0-3.61-4.819C420.469-168.683,417.376-168.5,414.232-168.5Zm-16.856,15.614c3.157,0,6.244.144,9.31-.048a4.332,4.332,0,0,0,4.138-3.639,3.968,3.968,0,0,0-2.191-4.72,3.371,3.371,0,0,0,1.745-2.639c.244-2.658-1.456-4.515-4.342-4.623-1.76-.066-3.523-.018-5.285-.021-1.1,0-2.207,0-3.374,0Zm19.756-26.226a3.658,3.658,0,0,0,1.6-4.112,3.747,3.747,0,0,0-2.984-2.921,7.6,7.6,0,0,0-1.807-.258c-2.444-.029-4.887-.018-7.331-.011a6.121,6.121,0,0,0-.8.1v15.643c3.141,0,6.2.114,9.24-.038a4.476,4.476,0,0,0,4.191-3.6C419.708-176.277,419.087-177.721,417.132-179.115Z"/><path class="c" d="M480.46-113.185c3.144,0,6.237-.18,9.3.054a3.775,3.775,0,0,1,3.61,4.819,10.324,10.324,0,0,1-1.358,2.479c1.752,1.283,2.386,2.695,1.873,4.664a4.322,4.322,0,0,1-4.1,3.552c-3.071.161-6.156.041-9.327.041Zm3.467,8.868v3.982c1.578,0,3.084.07,4.58-.022a1.809,1.809,0,0,0,1.837-2.08c-.006-1.156-.591-1.8-1.9-1.864C486.976-104.373,485.5-104.318,483.927-104.318Zm-.021-2.879c1.638,0,3.148.054,4.651-.021a1.45,1.45,0,0,0,1.491-1.53,1.383,1.383,0,0,0-1.422-1.562c-1.561-.067-3.128-.018-4.719-.018Z" transform="translate(-66.228 -55.318)"/><path class="c" d="M422.11-97.63v-15.69c1.167,0,2.271,0,3.374,0,1.762,0,3.526-.045,5.285.021,2.886.108,4.586,1.966,4.342,4.623a3.371,3.371,0,0,1-1.745,2.639,3.968,3.968,0,0,1,2.191,4.72,4.332,4.332,0,0,1-4.138,3.639C428.354-97.486,425.267-97.63,422.11-97.63Zm3.426-2.763c1.612,0,3.111.064,4.6-.02a1.834,1.834,0,0,0,1.882-1.937,1.625,1.625,0,0,0-1.55-1.942c-1.621-.118-3.258-.03-4.933-.03Zm.014-6.865c1.648,0,3.158.053,4.662-.02a1.439,1.439,0,0,0,1.481-1.535,1.38,1.38,0,0,0-1.426-1.558c-1.562-.068-3.13-.019-4.717-.019Z" transform="translate(-24.734 -55.259)"/><path class="c" d="M462.634-167.753c1.954,1.394,2.575,2.838,2.111,4.8a4.476,4.476,0,0,1-4.191,3.6c-3.042.152-6.1.038-9.24.038v-15.643a6.118,6.118,0,0,1,.8-.1c2.444-.007,4.888-.019,7.331.011a7.6,7.6,0,0,1,1.807.258,3.747,3.747,0,0,1,2.984,2.921A3.658,3.658,0,0,1,462.634-167.753Zm-7.882,5.614c1.663,0,3.205.062,4.74-.021a1.748,1.748,0,0,0,1.71-1.96c.019-1.086-.428-1.779-1.514-1.853-1.628-.112-3.269-.029-4.936-.029Zm.041-9.9v3.25c1.732-.093,3.371-.119,4.994-.294.832-.09,1.151-.8,1.1-1.6a1.271,1.271,0,0,0-1.266-1.344C458.027-172.071,456.428-172.038,454.794-172.038Z" transform="translate(-45.502 -11.362)"/><path class="b" d="M492.462-82.376c1.576,0,3.049-.055,4.515.016,1.311.064,1.9.707,1.9,1.864a1.809,1.809,0,0,1-1.837,2.08c-1.5.092-3,.022-4.58.022Z" transform="translate(-74.763 -77.26)"/><path class="b" d="M492.389-100.04v-3.131c1.591,0,3.158-.048,4.719.018a1.383,1.383,0,0,1,1.422,1.562,1.45,1.45,0,0,1-1.491,1.53C495.537-99.986,494.027-100.04,492.389-100.04Z" transform="translate(-74.711 -62.474)"/><path class="b" d="M433.971-78.287v-3.93c1.675,0,3.312-.088,4.933.03a1.625,1.625,0,0,1,1.55,1.942,1.834,1.834,0,0,1-1.882,1.937C437.082-78.223,435.583-78.287,433.971-78.287Z" transform="translate(-33.169 -77.365)"/><path class="b" d="M434.021-100.052v-3.132c1.587,0,3.155-.049,4.717.019a1.38,1.38,0,0,1,1.426,1.558,1.439,1.439,0,0,1-1.481,1.535C437.179-100,435.669-100.052,434.021-100.052Z" transform="translate(-33.204 -62.465)"/><path class="b" d="M463.217-139.905v-3.863c1.667,0,3.308-.083,4.936.029,1.085.075,1.533.767,1.514,1.853a1.748,1.748,0,0,1-1.71,1.96C466.422-139.843,464.88-139.905,463.217-139.905Z" transform="translate(-53.966 -33.595)"/><path class="b" d="M463.36-164.621c1.635,0,3.233-.033,4.83.014a1.271,1.271,0,0,1,1.266,1.344c.051.8-.269,1.508-1.1,1.6-1.623.176-3.263.2-4.994.294Z" transform="translate(-54.068 -18.78)"/></g></g></svg>