<svg xmlns="http://www.w3.org/2000/svg" width="94" height="94" viewBox="0 0 94 94"><defs><style>.a,.e,.f{fill:#fff;}.a{stroke:#b1b1b1;stroke-width:0.5px;}.b{fill:#42a62a;}.c{fill:#e42a20;}.c,.d,.e{fill-rule:evenodd;}.d{fill:#ffdc00;}.g{stroke:none;}.h{fill:none;}</style></defs><g transform="translate(-1292 -347)"><g class="a" transform="translate(1292 347)"><rect class="g" width="94" height="94"/><rect class="h" x="0.25" y="0.25" width="93.5" height="93.5"/></g><g transform="translate(1269.063 204.312)"><rect class="b" width="73.209" height="24.103" transform="translate(32.937 181.496)"/><path class="c" d="M99.817,341.731v-1.095H37.811a25.765,25.765,0,0,1-11.2-2.192v3.287Z" transform="translate(6.329 -137.085)"/><path class="d" d="M99.817,248.806v-1.1H43.843c-5.978-.86-13.825-6.845-17.235-13.147v12.052a20.479,20.479,0,0,0,8.618,2.191Z" transform="translate(6.329 -46.351)"/><g transform="translate(45.347 186.021)"><g transform="translate(0 0)"><g transform="translate(19.47 3.402)"><path class="e" d="M486.646,255.761l.06-1.076a1.05,1.05,0,0,0-1.352.616.967.967,0,0,0-.034.11v-.734H484.3v3.917h1.145V256.6a.984.984,0,0,1,1.205-.838" transform="translate(-466.279 -253.29)"/><path class="e" d="M437.605,255.761l.06-1.076a1.05,1.05,0,0,0-1.352.616,1,1,0,0,0-.034.11v-.734h-1.024v3.917H436.4V256.6a1.044,1.044,0,0,1,.019-.106.986.986,0,0,1,1.186-.732" transform="translate(-423.444 -253.29)"/><path class="e" d="M416.657,255.761l.06-1.076a1.05,1.05,0,0,0-1.351.616,1,1,0,0,0-.034.11v-.734h-1.024v3.917h1.145V256.6a1,1,0,0,1,.019-.106.985.985,0,0,1,1.186-.732" transform="translate(-405.147 -253.29)"/><path class="e" d="M385.485,258.043v-3.917H384.34v2.146a.633.633,0,0,1-1.265,0v-2.146H381.93v2.744a1.339,1.339,0,0,0,1.313,1.293,1.471,1.471,0,0,0,1.218-.8v.68Z" transform="translate(-376.868 -252.861)"/><path class="f" d="M457.516,254.874a1.536,1.536,0,0,0-.107-.336,1.632,1.632,0,0,0-2.871-.08,2.127,2.127,0,0,0,.982,3.1,2.411,2.411,0,0,0,1.832,0v-.964a1.217,1.217,0,0,1-1.988-.482h2.291a4.38,4.38,0,0,0-.138-1.239m-.887.456h-1.265a.78.78,0,0,1,.214-.617.6.6,0,0,1,.844.013.759.759,0,0,1,.208.6" transform="translate(-439.999 -252.437)"/><path class="f" d="M345.068,244.128h-1.446l-1.687,5.3h1.205l.371-1.145h1.669l.31,1.145h1.265Zm-1.283,3.314.56-2.049.56,2.049Z" transform="translate(-341.934 -244.128)"/><path class="f" d="M507.122,256.711v-1.46a1.642,1.642,0,0,0-.7-1.372,2.388,2.388,0,0,0-2.183.072v.9a1.7,1.7,0,0,1,1.387-.187.588.588,0,0,1,.42.549,3.234,3.234,0,0,0-1.141.04,1.27,1.27,0,0,0-1.074,1.441,1.25,1.25,0,0,0,.045.2,1.2,1.2,0,0,0,2.241.16l.049.633h1.024Zm-1.075-.5a.921.921,0,0,1-.389.572.6.6,0,0,1-.549.023.491.491,0,0,1-.137-.617.619.619,0,0,1,.572-.252l.526,0c0,.069-.013.2-.023.27" transform="translate(-483.328 -252.445)"/></g><g transform="translate(0 2.86)"><path class="f" d="M318.65,252.69H318.6a2.074,2.074,0,0,0-1.07.3v.663a1.342,1.342,0,0,1,1.006-.451.646.646,0,0,1,.671.435,2.634,2.634,0,0,1,.076.619l-1,.152a1.567,1.567,0,0,0-.618.235,1.453,1.453,0,0,0-.371,1.676,1.087,1.087,0,0,0,1.992-.14v.608h.542v-2.851a1.21,1.21,0,0,0-1.171-1.247m0,3.617a.659.659,0,0,1-.841-.258,1,1,0,0,1,0-.8.8.8,0,0,1,.516-.334l.953-.117v.46a1.165,1.165,0,0,1-.628,1.048" transform="translate(-300.827 -251.063)"/><path class="f" d="M268.931,253.649a1.359,1.359,0,0,0-2.594,0,4.71,4.71,0,0,0,.05,2.3,1.619,1.619,0,0,0,2.422.663v-.663a1.156,1.156,0,0,1-1.854-.207,4.087,4.087,0,0,1-.124-.757h2.22a7.023,7.023,0,0,0-.119-1.337m-2.1.795a4.985,4.985,0,0,1,.086-.634.756.756,0,0,1,1.427-.01c.029.162.067.48.078.644Z" transform="translate(-256.33 -251.069)"/><path class="f" d="M242.327,239.844v1.9a1.456,1.456,0,0,0-2.223.721,5.007,5.007,0,0,0,0,2.239,1.456,1.456,0,0,0,2.223.72v.269h.542v-5.845Zm-.044,4.688a.854.854,0,0,1-1.6,0,4.4,4.4,0,0,1,0-1.9.854.854,0,0,1,1.6,0,4.4,4.4,0,0,1,0,1.9" transform="translate(-233.41 -239.844)"/><path class="f" d="M293.454,257.37v-3.6h-.442v.306a1.4,1.4,0,0,0-2.327.522,4.042,4.042,0,0,0-.052,2.238,1.464,1.464,0,0,0,2.379.494,3.122,3.122,0,0,1-.09.776,1.046,1.046,0,0,1-.658.741,1.629,1.629,0,0,1-1.478-.316v.663a2.24,2.24,0,0,0,1.965.027,1.535,1.535,0,0,0,.692-1.15c.011-.177.017-.524.011-.7m-.646-.718a.854.854,0,0,1-1.6,0,4.4,4.4,0,0,1,0-1.9.854.854,0,0,1,1.6,0,4.411,4.411,0,0,1,0,1.9" transform="translate(-277.539 -251.904)"/><path class="f" d="M190.861,247.042a1.549,1.549,0,0,0-.7-1.228,1.469,1.469,0,0,0-.773-2.639h-1.293v5.483h1.293a1.548,1.548,0,0,0,1.476-1.617m-2.166-3.278h.575a.874.874,0,0,1,0,1.747h-.575Zm.674,4.278h-.674v-1.868h.674a.935.935,0,0,1,0,1.868" transform="translate(-188.092 -242.754)"/><path class="f" d="M215.951,253.918a1.552,1.552,0,0,0-3.034,0,4.959,4.959,0,0,0,0,1.775,1.552,1.552,0,0,0,3.034,0,4.953,4.953,0,0,0,0-1.775m-.591,1.656a.95.95,0,0,1-1.852,0,4.353,4.353,0,0,1,0-1.536.95.95,0,0,1,1.852,0,4.353,4.353,0,0,1,0,1.536" transform="translate(-209.706 -251.07)"/></g><g transform="translate(44.537)"><path class="c" d="M546.336,217.624a1.037,1.037,0,0,0-1.549-.055l-1.083,1.175-1.2,1.452-1.152,1.475-.772,1.164a3.091,3.091,0,0,0-.588,1.754l.046,3.12a1.94,1.94,0,0,0,.194.65.245.245,0,0,0,.2.085,1.468,1.468,0,0,0,.495-.375l6.44-7.526.369-.253a.868.868,0,0,1,.923.209l.529.529.207.138Z" transform="translate(-539.993 -217.249)"/><path class="d" d="M588.039,244.113a.944.944,0,0,0-1.244-.161l-.484.415-1.521,1.82L589.4,251.6l.323.207a.529.529,0,0,0,.346-.461l.023-3.525-.046-.53a7.308,7.308,0,0,0-2-3.18" transform="translate(-579.12 -240.429)"/></g></g></g></g></g></svg>