<svg xmlns="http://www.w3.org/2000/svg" width="94" height="94" viewBox="0 0 94 94"><defs><style>.a,.d{fill:#fff;}.a{stroke:#b1b1b1;stroke-width:0.5px;}.b{fill:#003b89;}.c,.e{fill:#d1001f;stroke:#d1001f;}.c,.d,.e{stroke-miterlimit:3.864;fill-rule:evenodd;}.c{stroke-width:2.945px;}.d{stroke:#fff;stroke-width:2.99px;}.e{stroke-width:2.97px;}.f{fill:#161615;}.g{stroke:none;}.h{fill:none;}</style></defs><g transform="translate(0 0.455)"><g class="a" transform="translate(0 -0.455)"><rect class="g" width="94" height="94"/><rect class="h" x="0.25" y="0.25" width="93.5" height="93.5"/></g><g transform="translate(13.443 28.408)"><path class="b" d="M377.485,51.255h2.49v1.253h-1.237v.959h1.237v1.369h-1.192v2.609h-1.3Z" transform="translate(-345.969 -46.594)"/><path class="b" d="M422.239,61.825l.983,0v.492s.189-.6.7-.5v1.367a.6.6,0,0,0-.677.607v2.692l-1.02,0Z" transform="translate(-384.349 -55.639)"/><path class="b" d="M438.2,61.338h.9v.3s.032.077.079-.013a.774.774,0,0,1,.633-.383,1.055,1.055,0,0,1,.67.383s.03.05.072.042a.067.067,0,0,0,.053-.045.829.829,0,0,1,.669-.385c.444,0,.824.528.824,1.059v3.7h-.842V62.735s.023-.464-.326-.464-.336.494-.336.494V65.99h-.856V62.735s.043-.464-.292-.464-.286.464-.286.464v3.257H438.2Z" transform="translate(-398.047 -55.156)"/><path class="b" d="M496.149,63.223h-.823v-.412s.01-.509-.293-.509-.323.52-.323.52v1.864s.027.417.323.417.285-.376.285-.376V64.3h.85v1.047s-.04.775-1.2.775-1.177-.88-1.177-.88V62.5a1.142,1.142,0,0,1,1.2-1.176c1.23,0,1.158.972,1.158.972Z" transform="translate(-445.741 -55.227)"/><path class="b" d="M514.877,61.887h1.056v4.677h-1.06Z" transform="translate(-463.821 -55.714)"/><rect class="b" width="1.036" height="1.197" transform="translate(51.082 4.663)"/><path class="b" d="M552.118,63h.8v-.89s-.021-.786-1.145-.786a1.02,1.02,0,0,0-1.13.992s-.11,1.164.48,1.583a5.883,5.883,0,0,1,.922.8s.234.684-.272.684-.346-.716-.346-.716h-.784v.819s.033.651,1.107.651,1.219-.612,1.219-.805.15-1.2-.425-1.581c0,0-1.055-.7-1.055-1.032s.019-.554.322-.554S552.127,62.391,552.118,63Z" transform="translate(-494.499 -55.227)"/><g transform="translate(60.819 4.693)"><path class="b" d="M585.226,57.414v.217h.76V51.479h-.87v1.937s-.286-.672-.863-.53c-.758.187-.69,1.4-.69,1.4v2.475s0,.679.516.852A1.417,1.417,0,0,0,585.226,57.414Zm-.7-1.247V54.582s-.05-.455.294-.455.263.477.263.477v1.624s.062.393-.272.393S584.526,56.166,584.526,56.166Z" transform="translate(-583.562 -51.479)"/></g><g transform="translate(64.07 6.091)"><path class="b" d="M607.937,64.49v.52s.056.355-.264.345-.287-.285-.287-.285v-.978h1.443V62.646s.062-1.337-1.156-1.337-1.247,1.327-1.247,1.327v2.546s.019.93,1.228.93,1.206-.7,1.206-.7V64.49Zm-.578-1.692s.011-.377.336-.377a.349.349,0,0,1,.343.336v.551h-.687Z" transform="translate(-606.426 -61.309)"/></g><rect class="b" width="1.017" height="6.157" transform="translate(67.28 4.693)"/><g transform="translate(26.282 13.761)"><path class="b" d="M347.153,126.07h2.615l-.4-10.821h-3.263l-5.434,10.818h2.616l1.193-2.267h2.67ZM345.78,121.6l1.01-2.291.109,2.291Z" transform="translate(-340.673 -115.249)"/></g><path class="b" d="M412.748,115.233h2.545l-.309,3.232s0,.054.125,0a3.126,3.126,0,0,1,2.366.054c.883.578.935.991.845,1.677s-.8,5.858-.8,5.858h-2.652l.7-5.3s.09-.576-.288-.576-.5.486-.5.486l-.775,5.391H411.45Z" transform="translate(-375.104 -101.474)"/><path class="b" d="M516.138,137.118h2.488l-.056.252a.113.113,0,0,0,.187-.016,1.62,1.62,0,0,1,1.834-.144l-.27,2.2s-1.912-.163-2.093,1.3-.442,4.016-.442,4.016H515.17Z" transform="translate(-464.076 -120.148)"/><path class="b" d="M552.623,137.118h2.49l-.056.252a.112.112,0,0,0,.185-.016,1.623,1.623,0,0,1,1.835-.144l-.27,2.2s-1.91-.163-2.094,1.3-.441,4.016-.441,4.016h-2.616Z" transform="translate(-495.375 -120.148)"/><g transform="translate(43.698 16.72)"><path class="b" d="M469.212,142.371a11.264,11.264,0,0,0,.6-3.463,2.467,2.467,0,0,0-2.558-2.849c-2.5.053-3.145,1.3-3.5,1.893-.476.806-.6,3.841-.6,3.841a2.666,2.666,0,0,0,2.99,2.4C468.432,144.191,468.794,143.163,469.212,142.371Zm-3.092-.2c-.528-.068-.364-.895-.364-.895l.341-2.3s.2-.853.755-.776.41.895.41.895a22.473,22.473,0,0,1-.378,2.443C466.722,142.019,466.649,142.234,466.12,142.171Z" transform="translate(-463.157 -136.058)"/></g><g transform="translate(61.487 16.72)"><path class="b" d="M594.312,142.371a11.19,11.19,0,0,0,.6-3.463,2.466,2.466,0,0,0-2.555-2.849c-2.5.053-3.146,1.3-3.5,1.893-.476.806-.6,3.841-.6,3.841a2.665,2.665,0,0,0,2.991,2.4C593.531,144.191,593.9,143.163,594.312,142.371Zm-3.093-.2c-.527-.068-.365-.895-.365-.895l.344-2.3s.206-.853.755-.776.407.895.407.895a22.246,22.246,0,0,1-.376,2.443C591.824,142.019,591.746,142.234,591.219,142.171Z" transform="translate(-588.257 -136.058)"/></g><g transform="translate(0 0)"><g transform="translate(0 0.255)"><path class="c" d="M159.444,27.935c5.046-6.951,14.982-9.9,20.165-5.776,5.041,4.013,4.459,10.772-.588,17.717s-14.733,9.152-18.99,5.972C154.723,41.882,154.4,34.881,159.444,27.935Z" transform="translate(-155.846 -20.271)"/></g><g transform="translate(0.843 0)"><path class="d" d="M161.777,40.473l10.466-20.435a15.217,15.217,0,0,1,7.6-1.54l4.634,19.851c-1.492,2.147-3.026,3.966-5.266,4.98l-.666-4.24H167.876L165.2,44.716A9.947,9.947,0,0,1,161.777,40.473Z" transform="translate(-161.777 -18.474)"/><path class="e" d="M222.721,67.454h7.41l-2.224-10.521Z" transform="translate(-214.055 -51.464)"/></g></g><g transform="translate(34.329 6.091)"><path class="b" d="M398.9,61.312a1.353,1.353,0,0,0-1.429,1.541h1.018s-.059-.477.232-.5c.342-.029.318.188.318.188V62.9a3.588,3.588,0,0,0-.879.469,1.679,1.679,0,0,0-.718,2.2c.527,1.112,1.758.209,1.758.209v.3h1V62.554A1.148,1.148,0,0,0,398.9,61.312Zm.143,3.422c0,.291-.168.495-.564.467s-.427-.427-.211-.776a1.2,1.2,0,0,1,.775-.515Z" transform="translate(-397.266 -61.312)"/></g><g transform="translate(44.518 6.091)"><path class="b" d="M470.557,61.312a1.354,1.354,0,0,0-1.428,1.541h1.019s-.059-.477.231-.5c.342-.029.319.188.319.188V62.9a3.55,3.55,0,0,0-.878.469,1.676,1.676,0,0,0-.719,2.2c.526,1.112,1.76.209,1.76.209v.3h1V62.554A1.148,1.148,0,0,0,470.557,61.312Zm.243,3.422c-.006.291-.171.495-.566.467s-.426-.427-.21-.776a1.2,1.2,0,0,1,.776-.515Z" transform="translate(-468.921 -61.312)"/></g><g transform="translate(52.668 6.091)"><path class="b" d="M527.874,61.312a1.355,1.355,0,0,0-1.431,1.541h1.019s-.059-.477.233-.5c.345-.029.318.188.318.188V62.9a3.612,3.612,0,0,0-.88.469,1.681,1.681,0,0,0-.715,2.2c.526,1.112,1.76.209,1.76.209v.3h1V62.554A1.148,1.148,0,0,0,527.874,61.312Zm.24,3.422c0,.291-.168.495-.563.467s-.425-.427-.213-.776a1.2,1.2,0,0,1,.776-.515Z" transform="translate(-526.237 -61.312)"/></g><g transform="translate(0.622 30.253)"><path class="f" d="M160.218,231.231H162.7v.485h-1v4.467h-.486v-4.467h-1Z" transform="translate(-160.218 -231.231)"/><path class="f" d="M185.528,241.172h-3.375a1.408,1.408,0,0,0,.438.981,1.389,1.389,0,0,0,1,.382,1.372,1.372,0,0,0,.759-.216,1.438,1.438,0,0,0,.518-.612h.545a2.14,2.14,0,0,1-.726.952,1.819,1.819,0,0,1-1.082.33,1.883,1.883,0,0,1-1.4-.561,2.07,2.07,0,0,1,0-2.817,1.869,1.869,0,0,1,1.386-.562,1.822,1.822,0,0,1,1.407.578,2.162,2.162,0,0,1,.535,1.53Zm-.537-.4a1.669,1.669,0,0,0-.5-.945,1.4,1.4,0,0,0-.95-.318,1.312,1.312,0,0,0-.919.347,1.451,1.451,0,0,0-.456.916Z" transform="translate(-178.601 -237.937)"/><path class="f" d="M231.232,244.228h-.485v-1.109c0-.072,0-.184.01-.337s.012-.317.024-.5a1.706,1.706,0,0,1-.625.61,1.639,1.639,0,0,1-.829.211,1.815,1.815,0,0,1-1.367-.561,1.913,1.913,0,0,1-.547-1.389,1.94,1.94,0,0,1,.553-1.4,1.826,1.826,0,0,1,1.362-.57,1.66,1.66,0,0,1,.829.21,1.724,1.724,0,0,1,.625.611l-.018-.727h.47Zm-1.892-1.567a1.318,1.318,0,0,0,1-.45,1.56,1.56,0,0,0,.419-1.1,1.455,1.455,0,0,0-.424-1.038,1.309,1.309,0,0,0-.975-.444,1.368,1.368,0,0,0-1.028.445,1.527,1.527,0,0,0-.427,1.1,1.451,1.451,0,0,0,.423,1.058A1.361,1.361,0,0,0,229.34,242.661Z" transform="translate(-217.857 -238.053)"/><path class="f" d="M262.04,239.764h.475v2.124a1.449,1.449,0,0,0,.261.954,1,1,0,0,0,.806.306,1.2,1.2,0,0,0,.571-.129.993.993,0,0,0,.4-.379,1.026,1.026,0,0,0,.124-.346,4.39,4.39,0,0,0,.035-.692v-1.838h.476V243.5h-.476l.021-.494a1.309,1.309,0,0,1-.488.448,1.649,1.649,0,0,1-1.8-.293,1.759,1.759,0,0,1-.4-1.236Z" transform="translate(-247.561 -238.551)"/><path class="f" d="M294.148,241.172h-3.375a1.4,1.4,0,0,0,1.43,1.362,1.371,1.371,0,0,0,.76-.216,1.431,1.431,0,0,0,.517-.612h.545a2.127,2.127,0,0,1-.725.952,1.817,1.817,0,0,1-1.082.33,1.875,1.875,0,0,1-1.4-.561,2.072,2.072,0,0,1,0-2.817,1.869,1.869,0,0,1,1.386-.562,1.827,1.827,0,0,1,1.408.578,2.165,2.165,0,0,1,.534,1.53Zm-.537-.4a1.681,1.681,0,0,0-.5-.945,1.39,1.39,0,0,0-.949-.318,1.317,1.317,0,0,0-.919.347,1.439,1.439,0,0,0-.454.916Z" transform="translate(-271.776 -237.937)"/><path class="f" d="M325.049,239.34v.525a.916.916,0,0,0-.646.27,1.153,1.153,0,0,0-.194.745v2.258h-.475V239.4h.441v.43a1.227,1.227,0,0,1,.391-.371A.98.98,0,0,1,325.049,239.34Z" transform="translate(-300.483 -238.187)"/><path class="f" d="M340.715,241.172h-3.378a1.4,1.4,0,0,0,.439.981,1.386,1.386,0,0,0,.994.382,1.368,1.368,0,0,0,.759-.216,1.419,1.419,0,0,0,.518-.612h.546a2.134,2.134,0,0,1-.726.952,1.82,1.82,0,0,1-1.085.33,1.879,1.879,0,0,1-1.4-.561,2.065,2.065,0,0,1,0-2.817,1.869,1.869,0,0,1,1.386-.562,1.819,1.819,0,0,1,1.406.578,2.168,2.168,0,0,1,.536,1.53Zm-.537-.4a1.674,1.674,0,0,0-.5-.945,1.394,1.394,0,0,0-.951-.318,1.317,1.317,0,0,0-.919.347,1.462,1.462,0,0,0-.455.916Z" transform="translate(-311.718 -237.937)"/><path class="f" d="M372.206,239.847a1.493,1.493,0,0,1,.568-.494,1.666,1.666,0,0,1,.755-.169,1.354,1.354,0,0,1,1.077.436,1.828,1.828,0,0,1,.377,1.237v2.148h-.464v-2.115a1.46,1.46,0,0,0-.257-.944.968.968,0,0,0-.786-.307,1.16,1.16,0,0,0-.557.132.974.974,0,0,0-.383.378,1.144,1.144,0,0,0-.124.348,4.215,4.215,0,0,0-.037.687v1.821h-.455v-2.1a1.474,1.474,0,0,0-.26-.958.993.993,0,0,0-.8-.309,1.223,1.223,0,0,0-.574.132.963.963,0,0,0-.389.378,1.108,1.108,0,0,0-.128.367,3.989,3.989,0,0,0-.039.668v1.821h-.464v-3.739h.471v.419a1.387,1.387,0,0,1,.5-.376,1.782,1.782,0,0,1,1.436.055A1.259,1.259,0,0,1,372.206,239.847Z" transform="translate(-339.537 -238.053)"/><path class="f" d="M416.7,238.9a1.947,1.947,0,0,1,1.947,1.945,2.008,2.008,0,0,1-.556,1.429,1.8,1.8,0,0,1-1.357.587,1.849,1.849,0,0,1-1.382-.577,1.914,1.914,0,0,1-.565-1.393,1.951,1.951,0,0,1,.565-1.4A1.816,1.816,0,0,1,416.7,238.9Zm-.013.465a1.3,1.3,0,0,0-.982.438,1.639,1.639,0,0,0,0,2.169,1.341,1.341,0,0,0,1.026.434,1.325,1.325,0,0,0,1.016-.437,1.582,1.582,0,0,0,.407-1.122,1.446,1.446,0,0,0-.42-1.059A1.427,1.427,0,0,0,416.69,239.367Z" transform="translate(-378.592 -237.811)"/><path class="f" d="M447.711,240.079h-.525a.59.59,0,0,0-.162-.41.556.556,0,0,0-.406-.145.525.525,0,0,0-.391.158.561.561,0,0,0-.153.407.537.537,0,0,0,.062.27.6.6,0,0,0,.2.2,1.681,1.681,0,0,0,.4.161q.258.077.352.116a1.011,1.011,0,0,1,.677,1.033,1.046,1.046,0,0,1-.339.8,1.2,1.2,0,0,1-.853.317,1.123,1.123,0,0,1-.853-.342,1.339,1.339,0,0,1-.338-.93h.5v.013a.845.845,0,0,0,.2.578.639.639,0,0,0,.5.226.657.657,0,0,0,.474-.175.581.581,0,0,0,.187-.448.618.618,0,0,0-.149-.432,1.45,1.45,0,0,0-.534-.307,2.014,2.014,0,0,1-.821-.456.933.933,0,0,1-.185-.6,1.019,1.019,0,0,1,.316-.755,1.051,1.051,0,0,1,1.837.72Z" transform="translate(-404.837 -237.937)"/><path class="f" d="M468.589,259.655h.476v.911h-.476Z" transform="translate(-424.74 -255.613)"/><path class="f" d="M482.157,260.566h.475v-.911h-.475Z" transform="translate(-436.379 -255.613)"/><path class="f" d="M495.723,259.655h.476v.911h-.476Z" transform="translate(-448.016 -255.613)"/><path class="f" d="M521.65,231.231h.485v1.119c0,.064,0,.171-.009.327s-.013.321-.026.506a1.717,1.717,0,0,1,.623-.608,1.661,1.661,0,0,1,.832-.213,1.819,1.819,0,0,1,1.374.569,2,2,0,0,1,.54,1.429,1.86,1.86,0,0,1-.558,1.36,1.835,1.835,0,0,1-1.356.562,1.669,1.669,0,0,1-.834-.208,1.722,1.722,0,0,1-.621-.606l.022.716h-.471Zm1.887,1.577a1.309,1.309,0,0,0-1,.45,1.542,1.542,0,0,0-.416,1.092,1.467,1.467,0,0,0,.423,1.046,1.319,1.319,0,0,0,.979.442,1.37,1.37,0,0,0,1.025-.442,1.521,1.521,0,0,0,.425-1.1,1.456,1.456,0,0,0-.425-1.057A1.364,1.364,0,0,0,523.537,232.808Z" transform="translate(-470.256 -231.231)"/><path class="f" d="M554.355,231.231h.486v.778h-.486Zm0,1.213h.486v3.739h-.486Z" transform="translate(-498.31 -231.231)"/><path class="f" d="M567.119,241.172h-3.375a1.4,1.4,0,0,0,1.432,1.362,1.366,1.366,0,0,0,.758-.216,1.425,1.425,0,0,0,.518-.612H567a2.138,2.138,0,0,1-.727.952,1.818,1.818,0,0,1-1.082.33,1.87,1.87,0,0,1-1.4-.561,2.067,2.067,0,0,1,0-2.817,1.869,1.869,0,0,1,1.386-.562,1.827,1.827,0,0,1,1.408.578,2.161,2.161,0,0,1,.535,1.53Zm-.537-.4a1.689,1.689,0,0,0-.5-.945,1.4,1.4,0,0,0-.951-.318,1.305,1.305,0,0,0-.917.347,1.441,1.441,0,0,0-.456.916Z" transform="translate(-505.93 -237.937)"/><path class="f" d="M599.91,240.857v2.148h-.473v-2.1a1.5,1.5,0,0,0-.253-.969,1,1,0,0,0-.808-.3,1.21,1.21,0,0,0-.571.132.966.966,0,0,0-.389.378,1.073,1.073,0,0,0-.118.333,3.656,3.656,0,0,0-.035.6v1.925h-.475v-3.739h.468v.419a1.4,1.4,0,0,1,.507-.377,1.7,1.7,0,0,1,.667-.125,1.394,1.394,0,0,1,1.1.432A1.816,1.816,0,0,1,599.91,240.857Z" transform="translate(-534.711 -238.053)"/></g><g transform="translate(66.154 33.405)"><path class="f" d="M621.986,253.4a.925.925,0,0,1,.447.118.825.825,0,0,1,.338.334.919.919,0,0,1,.121.454.906.906,0,0,1-.12.449.823.823,0,0,1-.335.335.912.912,0,0,1-.9,0,.823.823,0,0,1-.336-.335.9.9,0,0,1,0-.9.835.835,0,0,1,.339-.334A.924.924,0,0,1,621.986,253.4Zm0,.15a.774.774,0,0,0-.372.1.709.709,0,0,0-.283.28.757.757,0,0,0-.1.378.766.766,0,0,0,.1.375.709.709,0,0,0,.281.278.752.752,0,0,0,.752,0,.7.7,0,0,0,.281-.278.756.756,0,0,0,0-.753.709.709,0,0,0-.283-.28A.777.777,0,0,0,621.986,253.545Zm-.4,1.256v-.975h.336a.784.784,0,0,1,.25.028.241.241,0,0,1,.123.093.249.249,0,0,1,.046.143.256.256,0,0,1-.076.187.309.309,0,0,1-.2.088.3.3,0,0,1,.083.052,1.272,1.272,0,0,1,.144.194l.118.191h-.191l-.087-.154a.788.788,0,0,0-.164-.227.212.212,0,0,0-.126-.036h-.092v.417Zm.159-.55h.191a.32.32,0,0,0,.191-.042.131.131,0,0,0,.049-.108.122.122,0,0,0-.024-.076.139.139,0,0,0-.067-.051.492.492,0,0,0-.159-.017h-.181Z" transform="translate(-621.078 -253.395)"/></g></g></g></svg>