<svg xmlns="http://www.w3.org/2000/svg" width="94" height="94" viewBox="0 0 94 94"><defs><style>.a{fill:#fff;stroke:#b1b1b1;stroke-width:0.5px;}.b{fill:#f6df00;}.c{fill:#0086c8;}.d{fill:#6d9d39;}.e{fill:#6d9e39;}.f{fill:#b90175;}.g{fill:#c96103;}.h{fill:#ab0e17;}.i{fill:#015298;}.j{fill:#ab0f18;}.k{fill:#c96104;}.l{fill:#b80175;}.m{stroke:none;}.n{fill:none;}</style></defs><g transform="translate(-534 -559)"><g class="a" transform="translate(534 559)"><rect class="m" width="94" height="94"/><rect class="n" x="0.25" y="0.25" width="93.5" height="93.5"/></g><g transform="translate(333.961 402.327)"><path class="b" d="M210.442,212.67H206q0-6.761,0-13.522c0-.121.027-.148.148-.148,1.432,0,2.863,0,4.295,0,0,.07,0,.139,0,.209q0,3.181,0,6.362v.2a.348.348,0,0,0,.146-.156q2-2.853,4-5.709a8.833,8.833,0,0,0,.609-.9h4.472l-.012.032q-2.348,3.348-4.7,6.693c-.069.1-.037.161.02.242q.828,1.176,1.652,2.354l3.027,4.314.013.032H215.2c0-.047-.032-.078-.056-.113q-2.3-3.289-4.611-6.577c-.019-.027-.029-.074-.09-.055v.173q0,1.55,0,3.1Q210.445,210.935,210.442,212.67Z" transform="translate(0 0)"/><path class="b" d="M613.992,199.023h4.439c0,.064.005.128.005.193q0,3.2,0,6.4v.174c.073-.012.085-.066.11-.1q2.3-3.273,4.591-6.548c.024-.034.062-.062.055-.111h4.472l-.013.032q-2.351,3.352-4.7,6.7a.152.152,0,0,0,.01.21q2.349,3.344,4.7,6.69l.012.032h-4.472c.008-.05-.031-.078-.055-.111q-2.294-3.275-4.591-6.548c-.025-.036-.037-.09-.11-.1v.174q0,2.844,0,5.688c0,.3,0,.6-.005.9h-4.439Z" transform="translate(-353.3 -0.02)"/><path class="b" d="M418.31,212.69h-2.928c-.035-.012-.069-.026-.105-.035a6.944,6.944,0,0,1-4.031-2.633,7.088,7.088,0,0,1-1.228-2.663c0-.245-.009-.491-.008-.736q0-1.137.008-2.275a.6.6,0,0,0,.022-.059,6.937,6.937,0,0,1,4.168-4.9,11.931,11.931,0,0,1,1.141-.37h2.992c.022.03.056.027.086.035a6.942,6.942,0,0,1,4.882,4.162,9.75,9.75,0,0,1,.371,1.158v2.944a.672.672,0,0,0-.028.074,6.924,6.924,0,0,1-4.17,4.919A9.759,9.759,0,0,1,418.31,212.69Zm-1.47-10.29a3.453,3.453,0,1,0,3.463,3.374A3.467,3.467,0,0,0,416.84,202.4Z" transform="translate(-176.663 -0.02)"/><path class="b" d="M724.3,212.69h-2.928a.536.536,0,0,0-.073-.03,6.93,6.93,0,0,1-4.933-4.177,8.765,8.765,0,0,1-.364-1.143q0-1.485,0-2.969a.388.388,0,0,0,.025-.058,6.927,6.927,0,0,1,4.174-4.921,11.4,11.4,0,0,1,1.139-.369h2.992c.016.027.044.026.069.033a6.933,6.933,0,0,1,4.966,4.334c.128.316.194.651.3.972v2.958a.578.578,0,0,0-.028.074,6.922,6.922,0,0,1-4.009,4.853A8.984,8.984,0,0,1,724.3,212.69Zm-1.463-10.29a3.454,3.454,0,1,0,3.456,3.457A3.467,3.467,0,0,0,722.833,202.4Z" transform="translate(-441.632 -0.02)"/><path class="b" d="M528.794,212.69h-3.507c-.217-.054-.435-.1-.651-.161a7.269,7.269,0,0,1-3.173-1.72c-.068-.064-.147-.113-.065-.236q.832-1.251,1.649-2.511c.062-.094.1-.079.162-.01a4.5,4.5,0,0,0,.657.565,5.589,5.589,0,0,0,4.028,1.082,1.606,1.606,0,0,0,1-.438.7.7,0,0,0-.146-1.155,2.66,2.66,0,0,0-.3-.147,8.617,8.617,0,0,0-1.425-.382,15.846,15.846,0,0,1-2.616-.71,4.187,4.187,0,0,1-1.946-1.394,3.863,3.863,0,0,1-.52-3.449,4.1,4.1,0,0,1,2.644-2.738c.262-.1.536-.176.8-.263h3.281a1.039,1.039,0,0,0,.105.034,7.445,7.445,0,0,1,3.346,1.592c.1.085.119.138.036.254q-.832,1.164-1.646,2.34c-.086.124-.135.116-.242.03a5.776,5.776,0,0,0-3.442-1.3,2.321,2.321,0,0,0-1.18.168.771.771,0,0,0-.451.721.661.661,0,0,0,.439.6,3.284,3.284,0,0,0,.691.259c.758.212,1.536.342,2.3.547a7.744,7.744,0,0,1,2.336.964,3.248,3.248,0,0,1,1.252,1.412,4.354,4.354,0,0,1-.187,3.873,4.073,4.073,0,0,1-2.441,1.944C529.32,212.549,529.055,212.614,528.794,212.69Z" transform="translate(-273.089 -0.02)"/><path class="c" d="M380.091,204.348q0,1.138-.008,2.275c0,.245.005.491.008.736q0,1.766,0,3.532,0,.9-.005,1.8H375.45c0-.048.005-.1.005-.144q0-6.689,0-13.379c0-.048,0-.1-.005-.144h4.632c0,.069.005.139.005.208Q380.09,201.79,380.091,204.348Z" transform="translate(-146.735 -0.02)"/><path class="c" d="M307.921,199.055l.012-.032h4.632c0,.048-.005.1-.005.144q0,6.689,0,13.379c0,.048,0,.1.005.144h-4.632l-.013-.032c0-.053.007-.107.007-.16q0-6.641,0-13.283C307.928,199.162,307.924,199.109,307.921,199.055Z" transform="translate(-88.258 -0.02)"/><path class="b" d="M342.538,212.69c0-.048-.005-.1-.005-.144q0-6.689,0-13.379c0-.048,0-.1.005-.144h4.407c0,.048.005.1.005.144q0,6.689,0,13.379c0,.048,0,.1-.005.144Z" transform="translate(-118.23 -0.02)"/><path class="d" d="M517.267,199.023c-.268.087-.542.16-.8.263a4.1,4.1,0,0,0-2.644,2.738,3.863,3.863,0,0,0,.52,3.449,4.188,4.188,0,0,0,1.946,1.394,15.846,15.846,0,0,0,2.616.71,8.62,8.62,0,0,1,1.425.382,2.655,2.655,0,0,1,.3.147.7.7,0,0,1,.146,1.155,1.606,1.606,0,0,1-1,.438,5.589,5.589,0,0,1-4.028-1.082,4.5,4.5,0,0,1-.657-.565c-.065-.07-.1-.085-.162.01q-.819,1.259-1.649,2.511c-.082.123,0,.173.065.236a7.269,7.269,0,0,0,3.173,1.72c.217.056.434.107.651.161h-5.179c0-.643,0-1.286,0-1.929q0-1.72-.005-3.439v-2.944c0-.379.005-.759.005-1.138q0-2.108,0-4.216Z" transform="translate(-264.972 -0.02)"/><path class="e" d="M553.523,212.69c.261-.076.526-.141.783-.228a4.073,4.073,0,0,0,2.441-1.944,4.354,4.354,0,0,0,.187-3.873,3.248,3.248,0,0,0-1.252-1.412,7.743,7.743,0,0,0-2.336-.964c-.76-.2-1.538-.335-2.3-.547a3.285,3.285,0,0,1-.69-.259.661.661,0,0,1-.439-.6.771.771,0,0,1,.451-.721,2.321,2.321,0,0,1,1.18-.168,5.775,5.775,0,0,1,3.442,1.3c.107.086.157.094.242-.03q.813-1.177,1.646-2.34c.083-.116.065-.169-.036-.254a7.445,7.445,0,0,0-3.346-1.592,1.034,1.034,0,0,1-.105-.034h5.115V212.69Z" transform="translate(-297.818 -0.02)"/><path class="f" d="M651.87,199.023c.008.05-.031.077-.055.111q-2.294,3.275-4.591,6.548c-.026.036-.037.09-.11.1v-.174q0-3.2,0-6.4c0-.064,0-.128-.005-.193Z" transform="translate(-381.978 -0.02)"/><path class="g" d="M243.9,199.023a8.831,8.831,0,0,1-.609.9q-2,2.857-4,5.709a.348.348,0,0,1-.146.156v-.2q0-3.181,0-6.362c0-.07,0-.139,0-.209Z" transform="translate(-28.698 -0.02)"/><path class="f" d="M647.109,257.3c0-.3,0-.6.005-.9q0-2.844,0-5.688v-.174c.073.012.085.066.11.1q2.3,3.273,4.591,6.548c.023.034.062.062.055.111Z" transform="translate(-381.978 -44.629)"/><path class="g" d="M239.14,257.379q0-1.735,0-3.47,0-1.551,0-3.1v-.173c.061-.019.072.028.09.055q2.306,3.288,4.611,6.577c.024.034.057.065.056.113Z" transform="translate(-28.698 -44.709)"/><path class="h" d="M477.294,260.932q0,1.72.005,3.439c0,.643,0,1.286,0,1.929h-5.372a9.762,9.762,0,0,0,1.173-.375,6.924,6.924,0,0,0,4.17-4.919A.671.671,0,0,1,477.294,260.932Z" transform="translate(-230.276 -53.63)"/><path class="i" d="M715.906,261.074a8.755,8.755,0,0,0,.364,1.143,6.93,6.93,0,0,0,4.933,4.177.541.541,0,0,1,.073.03H715.9l-.012-.032c0-.064.007-.128.007-.192q0-2.008,0-4.016C715.9,261.813,715.9,261.443,715.906,261.074Z" transform="translate(-441.54 -53.753)"/><path class="j" d="M410.007,266.543q0-.9.005-1.8,0-1.766,0-3.532a7.089,7.089,0,0,0,1.228,2.663,6.944,6.944,0,0,0,4.031,2.633c.036.009.07.023.105.035Z" transform="translate(-176.66 -53.872)"/><path class="h" d="M477.5,199.023q0,2.108,0,4.216c0,.379,0,.759-.005,1.138a9.745,9.745,0,0,0-.371-1.158,6.942,6.942,0,0,0-4.882-4.162c-.031-.008-.065-.005-.086-.035Z" transform="translate(-230.484 -0.02)"/><path class="i" d="M783.48,204.341c-.11-.321-.177-.656-.3-.972a6.934,6.934,0,0,0-4.966-4.334c-.026-.007-.053-.006-.069-.033q2.606,0,5.211,0c.11,0,.132.022.132.132Q783.477,201.737,783.48,204.341Z" transform="translate(-495.444 0)"/><path class="j" d="M410.016,204.348q0-2.558,0-5.117c0-.069,0-.139-.005-.208h5.34a11.936,11.936,0,0,0-1.141.37,6.938,6.938,0,0,0-4.168,4.9A.576.576,0,0,1,410.016,204.348Z" transform="translate(-176.66 -0.02)"/><path class="i" d="M721.244,199.023a11.4,11.4,0,0,0-1.139.369,6.926,6.926,0,0,0-4.174,4.921.382.382,0,0,1-.025.058c0-.08-.007-.16-.007-.241q0-2.434,0-4.867c0-.069,0-.139-.007-.208l.012-.032Z" transform="translate(-441.54 -0.02)"/><path class="i" d="M777.9,266.285a8.983,8.983,0,0,0,1.335-.444,6.922,6.922,0,0,0,4.009-4.853.588.588,0,0,1,.028-.074q0,2.621,0,5.242c0,.11-.022.132-.132.132Q780.522,266.282,777.9,266.285Zm4.289-1.7a.6.6,0,0,0-.605.6.6.6,0,1,0,1.206,0A.6.6,0,0,0,782.189,264.586Z" transform="translate(-495.236 -53.615)"/><path class="k" d="M277.315,199.264c0,.053.007.107.007.16q0,6.641,0,13.283c0,.053,0,.107-.007.16l-3.027-4.314q-.826-1.177-1.652-2.354c-.056-.08-.089-.143-.02-.242Q274.968,202.613,277.315,199.264Z" transform="translate(-57.652 -0.229)"/><path class="l" d="M685.257,199.264c0,.069.007.139.007.208q0,2.434,0,4.867c0,.08,0,.16.007.241q0,1.485,0,2.969c0,.369-.006.739-.006,1.108q0,2.008,0,4.016c0,.064,0,.128-.007.192q-2.347-3.346-4.7-6.69a.152.152,0,0,1-.01-.21Q682.908,202.618,685.257,199.264Z" transform="translate(-410.906 -0.229)"/><path class="h" d="M438.658,224.212a3.453,3.453,0,1,1-3.452,3.464A3.483,3.483,0,0,1,438.658,224.212Z" transform="translate(-198.481 -21.832)"/><path class="i" d="M744.641,224.212a3.454,3.454,0,1,1-3.459,3.453A3.471,3.471,0,0,1,744.641,224.212Z" transform="translate(-463.44 -21.832)"/><path class="b" d="M805.983,288.3a.6.6,0,0,1,.6.6.6.6,0,1,1-1.206,0A.6.6,0,0,1,805.983,288.3Zm-.466.6a.465.465,0,0,0,.465.471.476.476,0,0,0,.468-.474.485.485,0,0,0-.462-.467A.471.471,0,0,0,805.517,288.9Z" transform="translate(-519.03 -77.331)"/><path class="i" d="M806.419,289.741a.471.471,0,0,1,.47-.469.485.485,0,0,1,.462.467.477.477,0,0,1-.468.474A.465.465,0,0,1,806.419,289.741Zm.749.282c-.076-.149-.074-.148-.018-.318a.242.242,0,0,0,0-.125c-.03-.125-.4-.23-.487-.14a.117.117,0,0,0-.016.074c0,.145,0,.289,0,.434,0,.052,0,.092.073.092s.1-.022.09-.091c0-.032-.022-.083.031-.094s.066.033.083.064C806.977,290.011,807.043,290.069,807.167,290.023Z" transform="translate(-519.932 -78.17)"/><path class="b" d="M808.653,290.889a.177.177,0,0,1-.242-.106c-.017-.031-.039-.073-.083-.064s-.033.062-.031.094c.005.07-.02.092-.09.091s-.073-.04-.073-.092c0-.145,0-.289,0-.434a.116.116,0,0,1,.016-.074c.091-.09.457.015.487.14a.242.242,0,0,1,0,.125C808.58,290.741,808.577,290.74,808.653,290.889Zm-.289-.313c.06,0,.115-.01.116-.068s-.06-.058-.105-.06-.082,0-.08.064S808.328,290.58,808.365,290.576Z" transform="translate(-521.418 -79.036)"/><path class="i" d="M809.4,291.708c-.037,0-.068-.006-.069-.065s.035-.066.08-.064.106-.006.106.06S809.461,291.706,809.4,291.708Z" transform="translate(-522.454 -80.169)"/></g></g></svg>