<svg xmlns="http://www.w3.org/2000/svg" width="94" height="94" viewBox="0 0 94 94"><defs><style>.a,.b{fill:#fff;}.a{stroke:#b1b1b1;stroke-width:0.5px;}.c{fill:#d21220;}.d{stroke:none;}.e{fill:none;}</style></defs><g transform="translate(-859 -347)"><g class="a" transform="translate(859 347)"><rect class="d" width="94" height="94"/><rect class="e" x="0.25" y="0.25" width="93.5" height="93.5"/></g><g transform="translate(546.459 107.792)"><g transform="translate(329.047 268.667)"><path class="b" d="M331.666,270.667h57.723l-8.462,28.559s-2.116,4.533-4.987,4.684-30.372.151-30.372.151-4.382-1.209-5.742-4.835S331.666,270.667,331.666,270.667Z" transform="translate(-330.479 -269.76)"/><path d="M344.013,303.875l-.118-.033c-.072-.051-4.72-1.22-6.35-5.391h0c-.715-1.913-2.737-9.008-4.614-15.713h0c-1.871-6.69-3.571-12.925-3.571-12.926h0l.874-.238-.874.238-.313-1.145h60.124l-8.826,29.786-.029.063a14.578,14.578,0,0,1-1.52,2.455h0a6.205,6.205,0,0,1-4.241,2.751h0c-2.956.153-30.4.151-30.419.152h-.123Zm-9.336-21.626c1.863,6.667,3.92,13.853,4.565,15.565h0c.964,2.691,4.207,4,4.985,4.234h0l.041.013h0c.984,0,7.322,0,13.975-.019h0c7.22-.018,14.851-.058,16.217-.131h0a4.077,4.077,0,0,0,2.579-1.653h0a12.752,12.752,0,0,0,1.551-2.343h0c.024-.048.043-.084.056-.112h0l8.1-27.324h-55.32c.575,2.1,1.867,6.805,3.256,11.769Z" transform="translate(-329.047 -268.667)"/></g><g transform="translate(336.619 274.031)"><path class="c" d="M345.75,280.5h9.86l2.38,17.793s.227,1.36.907,1.36h12.013V304.3H354.476s-1.7.68-2.947-3.513S345.75,280.5,345.75,280.5Z" transform="translate(-345.75 -280.5)"/></g><g transform="translate(348.632 274.144)"><g transform="translate(0 0)"><path class="c" d="M372.25,282.11a1.221,1.221,0,0,1,1.247-1.247c1.247,0,11.56-.113,11.56-.113s1.7.34,1.7,1.813-.453,8.273-.453,8.273,0,.793-1.133.907-5.327.113-5.327.113a.606.606,0,0,0-.673.7c.035.772.34.942.63.942h5.624s.553-.113.553,1.332v2.578a.85.85,0,0,1-.85.524c-.68,0-9.987-.042-9.987-.042s-1.02.113-1.3-1.9S372.25,282.11,372.25,282.11Zm6.658,7.593c0,.567.34.68.879.68s.567-.651.567-.651v-3.91a.747.747,0,0,0-.793-.708.6.6,0,0,0-.652.708Z" transform="translate(-372.25 -280.75)"/></g></g><g transform="translate(363.365 273.88)"><path class="c" d="M406.828,280.318h6.007s.529-.075.264,1.133-2,10.88-2,10.88-.075,1.133.718,1.171,1.1-1.511,1.1-1.511l2.153-11.295a.5.5,0,0,1,.567-.529h6.46s.643.113.265,1.4-5.893,21.23-5.893,21.23-.491,1.7-1.813,1.7h-9.9v-5.1h6.233a2.118,2.118,0,0,0,1.209-1.36c.378-1.1.6-1.964.6-1.964s.189-.718-.227-.831-.755.755-.755.755-.3,1.587-.869,1.625-4.609,0-4.609,0a1.08,1.08,0,0,1-1.02-1.209c.038-1.171,1.133-15.451,1.133-15.451S406.337,280.318,406.828,280.318Z" transform="translate(-404.75 -280.167)"/></g></g></g></svg>