<svg xmlns="http://www.w3.org/2000/svg" width="94" height="94" viewBox="0 0 94 94"><defs><style>.a{fill:#fff;stroke:#b1b1b1;stroke-width:0.5px;}.b{fill:#00809d;}.c{fill:#090d15;}.d{fill:#df1126;}.e{stroke:none;}.f{fill:none;}</style></defs><g class="a"><rect class="e" width="94" height="94"/><rect class="f" x="0.25" y="0.25" width="93.5" height="93.5"/></g><g transform="translate(12.099 36.297)"><path class="b" d="M539.994,1573.99H529.688a.728.728,0,0,0-.735.719v1.09a.727.727,0,0,0,.735.718h3.7v11.063a.728.728,0,0,0,.735.719h1.419a.728.728,0,0,0,.735-.719v-11.063h3.713a.727.727,0,0,0,.735-.718v-1.09A.728.728,0,0,0,539.994,1573.99Z" transform="translate(-490.795 -1567.356)"/><path class="b" d="M585.076,1583.713l3.559-9.255a.739.739,0,0,1,.689-.468h1.608a.737.737,0,0,1,.606.313.705.705,0,0,1,.078.669l-5.164,12.872a.741.741,0,0,1-.684.456h-1.4a.74.74,0,0,1-.685-.459l-5.11-12.872a.7.7,0,0,1,.08-.667.739.739,0,0,1,.606-.312h1.555a.736.736,0,0,1,.692.476Z" transform="translate(-527.787 -1567.356)"/><path class="c" d="M568.133,1552.88a7.174,7.174,0,0,0-.949-2.566,3.931,3.931,0,0,0-2.252-1.7,15.972,15.972,0,0,0-3.354-.618,46.033,46.033,0,0,0-6.878-.049,65.878,65.878,0,0,0-8.973,1.118,38.4,38.4,0,0,0-3.963.985c-.391.14-.785.274-1.172.423a9.268,9.268,0,0,0-1.658.809,5.07,5.07,0,0,0-.991.829,38.88,38.88,0,0,1,3.8-.937,65.78,65.78,0,0,1,8.973-1.118,46,46,0,0,1,6.877.049,15.983,15.983,0,0,1,3.354.618,3.932,3.932,0,0,1,2.252,1.7,7.167,7.167,0,0,1,.949,2.566,18.519,18.519,0,0,1-1.017,9.635,12.146,12.146,0,0,1-1.478,2.876,8.22,8.22,0,0,1-.666.833c.4-.111.9-.246,1.3-.388a7.03,7.03,0,0,0,1.723-.876,6.5,6.5,0,0,0,1.624-1.677,12.133,12.133,0,0,0,1.478-2.876A18.523,18.523,0,0,0,568.133,1552.88Z" transform="translate(-497.503 -1547.847)"/><path class="d" d="M500.841,1569.1h-1.558l-.027-3.266a.727.727,0,0,0-.713-.735h-.529a1.35,1.35,0,0,0-.6.142l-1.189.592a.746.746,0,0,0-.405.669v2.6h-1a.476.476,0,0,0-.475.475v.507h0v.358a.728.728,0,0,0,.713.742h.767v6.671a7.79,7.79,0,0,0,.247,2.477,1.993,1.993,0,0,0,.851.95,3.34,3.34,0,0,0,1.7.361h2.2a.708.708,0,0,0,.672-.557,1.114,1.114,0,0,0,.027-.216c.058-1.241-.632-1.149-.632-1.149-.338,0-.909-.044-.909-.044a.917.917,0,0,1-.234-.09.865.865,0,0,1-.347-.408,4.229,4.229,0,0,1-.106-1.206v-6.788h1.5a.525.525,0,0,0,.525-.529l-.009-1.1A.457.457,0,0,0,500.841,1569.1Z" transform="translate(-464.962 -1560.724)"/><path class="d" d="M452.3,1588.7a.672.672,0,0,0-.6.379,3.521,3.521,0,0,1-1.024,1.3,2.724,2.724,0,0,1-.322.205,1.937,1.937,0,0,1-1.835-.008,3.516,3.516,0,0,1-.879-.675,4.628,4.628,0,0,1-1.14-2.918.191.191,0,0,1,.191-.205h8.482a.556.556,0,0,0,.556-.556v0a6.716,6.716,0,0,0-1.574-4.756,5.292,5.292,0,0,0-4.056-1.69h-1.521a5.443,5.443,0,0,0-4.173,1.725,6.839,6.839,0,0,0-1.608,4.848,6.536,6.536,0,0,0,1.591,4.692,5.662,5.662,0,0,0,4.307,1.672h1.521a5.711,5.711,0,0,0,3.543-1.049,5.12,5.12,0,0,0,1.735-2.423.4.4,0,0,0-.378-.528Zm-4.608-6.235a3.371,3.371,0,0,1,.683-.522,1.9,1.9,0,0,1,1.892-.031,3.383,3.383,0,0,1,.934.8,3.866,3.866,0,0,1,.752,1.982.318.318,0,0,1-.314.361h-4.851a.17.17,0,0,1-.17-.184A3.758,3.758,0,0,1,447.693,1582.462Z" transform="translate(-426.503 -1571.669)"/><path class="d" d="M379.175,1579.612h2.289a.727.727,0,0,0,.718-.736v-9.8a.24.24,0,0,1,.443-.135l6.417,10.037a1.353,1.353,0,0,0,1.139.631h1.746c1.118,0,1.261-.758,1.261-1.694v-14.732a.828.828,0,0,0-.817-.838h-2.047a.739.739,0,0,0-.73.749l.014,9.753a.208.208,0,0,1-.383.119l-6.146-9.466a2.51,2.51,0,0,0-2.1-1.155h-1.7a.7.7,0,0,0-.693.71v15.951A.6.6,0,0,0,379.175,1579.612Z" transform="translate(-378.587 -1558.668)"/></g></svg>