<svg xmlns="http://www.w3.org/2000/svg" width="94" height="94" viewBox="0 0 94 94"><defs><style>.a{fill:#fff;stroke:#b1b1b1;stroke-width:0.5px;}.b{fill:#0060af;}.c{fill:#f48100;}.d{stroke:none;}.e{fill:none;}</style></defs><g transform="translate(-534 -453)"><g class="a" transform="translate(534 453)"><rect class="d" width="94" height="94"/><rect class="e" x="0.25" y="0.25" width="93.5" height="93.5"/></g><g transform="translate(463.464 403.621)"><g transform="translate(80.536 89.379)"><path class="b" d="M88.619,123.482c.049-2.158-1.63-2.856-3.493-2.856-1.765,0-3.677.907-3.677,2.881,0,1.459,1.03,2.022,2.1,2.378,1.213.4,2.108.49,2.108,1.128,0,.575-.65.846-1.177.846a1.482,1.482,0,0,1-.993-.221,1.293,1.293,0,0,1-.331-.993H80.541c-.11,2.232,1.7,3.151,3.714,3.151,1.9,0,3.947-.993,3.947-3.1,0-1.042-.515-1.875-2.035-2.415-.858-.306-2.17-.343-2.17-1.005,0-.576.588-.711,1.042-.711a1.312,1.312,0,0,1,.785.2.8.8,0,0,1,.307.723Zm7.331-.257H93.522l-.552,2.586c-.2.809-.245,2-1.336,2a.634.634,0,0,1-.7-.6,2.638,2.638,0,0,1,.1-.662l.711-3.321H89.318a40.912,40.912,0,0,0-.944,4.83c0,1.213.919,1.691,2.022,1.691a2.6,2.6,0,0,0,2.047-.968h.025l-.2.809h2.353Zm3.445,4.756c-.8,0-.883-.809-.883-1.042,0-.563.2-2.108,1.275-2.108.711,0,.882.5.882,1.128C100.669,126.779,100.363,127.981,99.394,127.981Zm-4.315,3.665h2.427l.576-2.832a1.953,1.953,0,0,0,1.912.932c2.157,0,3.1-2.182,3.1-4.069a2.33,2.33,0,0,0-2.317-2.611,1.945,1.945,0,0,0-1.7.882h-.024l.147-.723H96.844Zm10.689-5.957a1.268,1.268,0,0,1,1.262-1.067.828.828,0,0,1,.919.858,1.2,1.2,0,0,1-.025.208Zm1.74,2.047a1.038,1.038,0,0,1-.956.453c-.76,0-.993-.564-.993-1.238H110.1a3.952,3.952,0,0,0,.123-1.1,2.844,2.844,0,0,0-3.114-2.782,3.66,3.66,0,0,0-3.812,3.873c0,1.546.907,2.808,3.162,2.808,2.746,0,3.224-1.582,3.383-2.01Zm2.659,1.851H112.6l.551-2.66c.282-1.336.8-1.778,1.827-1.778a2.706,2.706,0,0,1,.931.16l.453-2.145a2.6,2.6,0,0,0-.858-.1,2.462,2.462,0,0,0-1.851,1.152h-.024l.208-.993H111.48Zm7.44-1.826c0-.466.38-.674.784-.711a3.519,3.519,0,0,0,1.287-.282c-.147.944-.478,1.545-1.3,1.545C117.988,128.312,117.608,128.2,117.608,127.76Zm.7-2.611a.874.874,0,0,1,.968-.65c.368,0,.76.111.76.552,0,.785-1.091.686-1.778.735-1.826.135-3.077.588-3.077,2.268,0,1.213.969,1.691,2.059,1.691a2.652,2.652,0,0,0,1.961-.772h.024a1.717,1.717,0,0,0,.086.612h2.378c-.1-.294-.049-.073-.1-.564,0-.417.772-3.273.772-4.265,0-1.545-1.936-1.692-3.089-1.692-1.557,0-2.868.392-3.248,2.083Zm4.02,4.437h2.427l.784-3.641a1.009,1.009,0,0,1,1.017-.943c.392,0,.613.184.613.588a3.089,3.089,0,0,1-.1.588l-.735,3.408h2.427l.833-3.849a.881.881,0,0,1,.919-.735.559.559,0,0,1,.625.613,8.842,8.842,0,0,1-.147.931l-.65,3.04h2.427l.772-3.627a6.844,6.844,0,0,0,.147-1.005c0-1.312-.8-1.888-2.035-1.888a2.612,2.612,0,0,0-2.084,1.054c-.159-.784-.883-1.054-1.716-1.054a2.568,2.568,0,0,0-2,.993h-.025l.172-.833h-2.354Zm13.8-1.826c0-.466.38-.674.784-.711a3.52,3.52,0,0,0,1.288-.282c-.147.944-.478,1.545-1.3,1.545C136.509,128.312,136.129,128.2,136.129,127.76Zm.7-2.611a.873.873,0,0,1,.968-.65c.368,0,.76.111.76.552,0,.785-1.091.686-1.777.735-1.827.135-3.076.588-3.076,2.268,0,1.213.968,1.691,2.059,1.691a2.653,2.653,0,0,0,1.961-.772h.024a1.723,1.723,0,0,0,.086.612h2.378c-.1-.294-.049-.073-.1-.564,0-.417.772-3.273.772-4.265,0-1.545-1.937-1.692-3.089-1.692-1.557,0-2.868.392-3.248,2.083Z" transform="translate(-80.536 -116.886)"/><path class="b" d="M631.872,113.221c.584,0,.768.184.768.491s-.369.583-.92.583-.706-.276-.706-.46S631.229,113.221,631.872,113.221Z" transform="translate(-565.133 -110.368)"/><path class="b" d="M496.918,158.6l.614.092s-.46,3.958-7.332,6.32c-5.4,1.81-11.2-.644-11.2-.644l.828-1.411a17.067,17.067,0,0,0,6.995,1.534,13.211,13.211,0,0,0,7.578-2.7A11.672,11.672,0,0,0,496.918,158.6Z" transform="translate(-431.314 -150.315)"/><g transform="translate(60.574 0)"><path class="c" d="M591.608,112.592a3.626,3.626,0,0,0-1.473,1.043c-.429.645-.613,1.749-1.718,1.749s-1.749-1.289-1.749-2.332.951-1.626,2.362-1.626S591.392,111.886,591.608,112.592Z" transform="translate(-586.668 -108.787)"/><path class="c" d="M603.6,92.294a2.624,2.624,0,0,0-2.3-.491c-.43,0-1.043-.214-1.043-.583,0-.859,1.472-1.841,3.621-1.841,1.2,0,1.809.276,1.809.982A2.608,2.608,0,0,1,603.6,92.294Z" transform="translate(-598.628 -89.379)"/><path class="c" d="M646.136,93.649c0-1.811.707-2.731,2.148-2.731a2.492,2.492,0,0,1,2.546,1.963c0,.4-.122.583-.613.583s-1.412-.368-2.056-.368A3.817,3.817,0,0,0,646.136,93.649Z" transform="translate(-639.019 -90.734)"/><path class="c" d="M645.623,114.522c.522-.705,1.1-1.043,2.669-1.043s2.823.613,2.823,1.81-1.872,2.209-2.577,2.209-1.012-.8-1.288-1.35S646.329,114.675,645.623,114.522Z" transform="translate(-638.567 -110.595)"/><path class="c" d="M614.149,124.506a3.042,3.042,0,0,1,2.762,2.7c0,.951-1.779,1.166-2.547,1.166s-3.344-.4-3.344-1.35C611.02,125.7,613.259,124.506,614.149,124.506Z" transform="translate(-608.106 -120.302)"/></g></g><path class="b" d="M587.442,146.665a.733.733,0,1,1,.735.734A.733.733,0,0,1,587.442,146.665Zm1.377,0a.643.643,0,1,0-.642.647A.641.641,0,0,0,588.819,146.665Zm-.278.411h-.119l-.234-.378H588v.378h-.1v-.819h.358a.377.377,0,0,1,.2.04.2.2,0,0,1,.093.176c0,.162-.113.22-.259.225Zm-.383-.457c.115,0,.293.019.293-.148,0-.127-.11-.142-.213-.142H588v.29Z" transform="translate(-446.24 -49.787)"/></g></g></svg>