<svg xmlns="http://www.w3.org/2000/svg" width="96" height="94" viewBox="0 0 96 94"><defs><style>.a,.c{fill:#fff;}.a{stroke:#b1b1b1;stroke-width:0.5px;}.b{fill:#006bb7;}.d{fill:#ffaa1a;}.e{stroke:none;}.f{fill:none;}</style></defs><g transform="translate(-1400 -347)"><g class="a" transform="translate(1400 347)"><rect class="e" width="96" height="94"/><rect class="f" x="0.25" y="0.25" width="95.5" height="93.5"/></g><g transform="translate(1225.667 164.849)"><rect class="b" width="74.717" height="25.3" transform="translate(185.333 216.151)"/><g transform="translate(189.839 219.44)"><g transform="translate(0 3.267)"><path class="c" d="M399.06,267.819a2.575,2.575,0,0,0-2.877-2.891,5.256,5.256,0,0,0-2.538.606l.362,1.236a3.715,3.715,0,0,1,1.851-.52c1.126,0,1.311.638,1.311,1.048v.1c-2.455,0-4.007.846-4.007,2.578a2.044,2.044,0,0,0,2.164,2.049,2.458,2.458,0,0,0,1.974-.877h.042s.281,1.173,1.826.724a9.937,9.937,0,0,1-.107-1.635Zm-1.833,1.624a1.2,1.2,0,0,1-1.284,1.235.837.837,0,0,1-.911-.9c0-.932,1.026-1.19,2.195-1.184Z" transform="translate(-360.812 -262.834)"/><path class="c" d="M210.745,253.118s1.6,6.573,1.86,7.64c.3,1.246.838,1.7,2.39,1.394l1-4.076c.254-1.012.424-1.734.587-2.763h.029a27.02,27.02,0,0,0,.487,2.767s.408,1.85.617,2.822.792,1.584,2.312,1.25l2.387-9.034h-1.927l-.815,3.906c-.219,1.137-.418,2.025-.571,3.065h-.027c-.139-1.03-.317-1.883-.539-2.991l-.848-3.981h-2.008L214.772,257c-.257,1.179-.5,2.131-.65,3.136h-.027c-.157-.946-.365-2.143-.591-3.284,0,0-.539-2.775-.729-3.732Z" transform="translate(-210.745 -253.118)"/><path class="c" d="M280.066,267.819a2.574,2.574,0,0,0-2.877-2.891,5.253,5.253,0,0,0-2.538.606l.361,1.236a3.718,3.718,0,0,1,1.851-.52c1.127,0,1.312.638,1.312,1.048v.1c-2.456,0-4.007.846-4.007,2.578a2.043,2.043,0,0,0,2.163,2.049,2.461,2.461,0,0,0,1.976-.877h.042s.281,1.173,1.826.724a9.893,9.893,0,0,1-.107-1.635Zm-1.833,1.624a1.2,1.2,0,0,1-1.284,1.235.837.837,0,0,1-.911-.9c0-.932,1.026-1.19,2.195-1.184Z" transform="translate(-262.921 -262.834)"/><path class="c" d="M316.165,260.234v-7.116H314.33v9.034h1.834Z" transform="translate(-295.961 -253.118)"/><path class="c" d="M460.03,253.118v6.665a2.8,2.8,0,0,0,.543,1.956,2.033,2.033,0,0,0,1.494.566,4.353,4.353,0,0,0,1.327-.2l-.024-1.433a2.812,2.812,0,0,1-.7.083c-.625,0-.834-.4-.834-1.225v-2.55h1.6v-1.728h-1.6v-2.137Z" transform="translate(-415.823 -253.118)"/><path class="c" d="M433.323,265.081v6.787h1.892v-3.475a2.6,2.6,0,0,1,.041-.5,1.429,1.429,0,0,1,1.5-1.193,3.471,3.471,0,0,1,.546.049V264.97a1.814,1.814,0,0,0-.417-.042,2,2,0,0,0-1.847,1.433h-.052v-1.28Z" transform="translate(-393.852 -262.834)"/><path class="c" d="M331.92,265.081v6.787h1.844v-3.98a1.585,1.585,0,0,1,.087-.556,1.248,1.248,0,0,1,1.121-.869c.744,0,1.092.629,1.092,1.537v3.868h1.842V267.84a1.893,1.893,0,0,1,.077-.55,1.163,1.163,0,0,1,1.107-.827c.754,0,1.116.618,1.116,1.686v3.719h1.844v-4c0-2.108-1.07-2.943-2.279-2.943a2.454,2.454,0,0,0-1.339.369,2.851,2.851,0,0,0-.86.845h-.027a1.936,1.936,0,0,0-1.871-1.214A2.136,2.136,0,0,0,333.7,266h-.027v-.922Z" transform="translate(-310.431 -262.834)"/></g><g transform="translate(50.599 0)"><path class="d" d="M530.241,239.936a.666.666,0,0,0,.706-.434l.361-4.073c0-.4-.472-.733-1.065-.733s-1.063.331-1.063.733l.36,4.073a.665.665,0,0,0,.7.434Z" transform="translate(-523.308 -234.695)"/><path class="d" d="M500.8,256.364a.665.665,0,0,0-.024-.828l-3.348-2.348c-.348-.2-.87.041-1.166.555s-.245,1.086.1,1.287l3.706,1.726a.67.67,0,0,0,.73-.394Z" transform="translate(-496.072 -249.85)"/><path class="d" d="M547,256.362a.67.67,0,0,0,.729.394l3.707-1.726c.349-.2.4-.774.1-1.287s-.82-.756-1.167-.555l-3.348,2.348a.667.667,0,0,0-.023.828Z" transform="translate(-537.864 -249.85)"/><g transform="translate(0 8.641)"><path class="d" d="M530.241,292.938a.666.666,0,0,1,.706.434l.361,4.073c0,.4-.472.733-1.065.733s-1.063-.33-1.063-.733l.36-4.073a.664.664,0,0,1,.7-.434Z" transform="translate(-523.308 -291.25)"/><path class="d" d="M547,283.835a.667.667,0,0,1,.729-.393l3.707,1.724c.349.2.4.776.1,1.289s-.82.755-1.167.555l-3.348-2.346a.669.669,0,0,1-.023-.829Z" transform="translate(-537.864 -283.419)"/><path class="d" d="M500.8,283.835a.667.667,0,0,1-.024.829l-3.348,2.346c-.348.2-.87-.042-1.166-.555s-.245-1.087.1-1.289l3.706-1.724a.667.667,0,0,1,.73.393Z" transform="translate(-496.072 -283.419)"/></g><g transform="translate(14.277 11.492)"><path class="d" d="M577,299.5a.4.4,0,1,1-.418.4.408.408,0,0,1,.416-.4Zm-.005.081a.322.322,0,0,0,.005.645.308.308,0,0,0,.308-.322.312.312,0,0,0-.31-.322Zm-.061.531h-.093v-.4a.775.775,0,0,1,.155-.015.224.224,0,0,1,.14.032.109.109,0,0,1,.039.086.1.1,0,0,1-.083.1v0c.039.012.061.044.073.1a.252.252,0,0,0,.03.1h-.1a.311.311,0,0,1-.032-.1c-.007-.044-.032-.064-.083-.064h-.044Zm0-.226h.044c.051,0,.093-.018.093-.059s-.027-.062-.086-.062a.2.2,0,0,0-.051.005Z" transform="translate(-576.581 -299.5)"/></g></g></g></g></g></svg>