<svg xmlns="http://www.w3.org/2000/svg" width="94" height="94" viewBox="0 0 94 94"><defs><style>.a{fill:#fff;stroke:#b1b1b1;stroke-width:0.5px;}.b{fill:#001378;}.c{fill:#50cc1a;}.d{stroke:none;}.e{fill:none;}</style></defs><g transform="translate(0 -0.029)"><g class="a" transform="translate(0 0.029)"><rect class="d" width="94" height="94"/><rect class="e" x="0.25" y="0.25" width="93.5" height="93.5"/></g><g transform="translate(8.066 29.127)"><g transform="translate(0 0)"><path class="b" d="M2624.9,1090.513a9.316,9.316,0,0,0-.308,6.486c1.037,2.493,3.125,4.259,6.909,4.259a7.781,7.781,0,0,0,5.565-1.911c1.884,3.045,6.341,1.538,6.341,1.538l-.036-3.213h-1.058c-.844,0-1.011-.923-1.011-1.691v-8.527c-2.145-1.037-7.455-1.406-10-.984C2631.3,1086.47,2626.432,1087.07,2624.9,1090.513Zm11.479,5.326a4.393,4.393,0,0,1-3.551,1.495c-2.3,0-3.322-1.2-3.534-2.5s-.352-4.782,4.29-4.782a7.075,7.075,0,0,1,2.794.457Z" transform="translate(-2586.385 -1073.878)"/><path class="b" d="M2543.054,1097.651l5.125-4.894a23.018,23.018,0,0,0,2.732-2.91l-.072-2.737h-15.354v4.055h7.657c-3.288,3.019-8.052,7.658-8.052,7.658v2.714h16.1l-.06-3.886Z" transform="translate(-2514.869 -1074.531)"/><g transform="translate(15.418 32.15)"><path class="c" d="M2510.682,1186.992h2.21v.8h-1.245v.791h.819v.74h-.819v1.464h-.965Z" transform="translate(-2510.682 -1186.908)"/><path class="c" d="M2530.356,1186.992h1.369l1.144,3.792h-.988l-.19-.634h-1.3l-.191.634h-.988Zm.269,2.361h.825l-.292-.976c-.033-.118-.068-.286-.068-.286h-.106a2.854,2.854,0,0,1-.062.286Z" transform="translate(-2525.566 -1186.908)"/><path class="c" d="M2559.9,1189.359l.881,1.425h-1.111l-.8-1.3h-.146v1.3h-.965v-3.792h1.458a1.389,1.389,0,0,1,.948.286,1.323,1.323,0,0,1,.392.987,1.2,1.2,0,0,1-.4.937A1.178,1.178,0,0,1,2559.9,1189.359Zm-.409-1.47a.415.415,0,0,0-.3-.1h-.466v.953h.466a.431.431,0,0,0,.3-.112.526.526,0,0,0,.107-.376A.5.5,0,0,0,2559.49,1187.889Z" transform="translate(-2548.499 -1186.908)"/><path class="c" d="M2585.285,1190.3h-.477l-.617-1.346a2.689,2.689,0,0,1-.118-.348l-.078.005s.034.4.034.561v1.609h-.965v-3.792h1.071l.886,2h.051l.886-2h1.071v3.792h-.965v-1.609c0-.157.034-.561.034-.561l-.079-.005a2.714,2.714,0,0,1-.118.348Z" transform="translate(-2568.821 -1186.908)"/><path class="c" d="M2614.342,1186.992h1.369l1.145,3.792h-.988l-.191-.634h-1.3l-.191.634h-.988Zm.269,2.361h.825l-.292-.976c-.034-.118-.068-.286-.068-.286h-.106a2.917,2.917,0,0,1-.062.286Z" transform="translate(-2593.025 -1186.908)"/><path class="c" d="M2643.317,1190.266a2.255,2.255,0,0,1-1.1.258,1.925,1.925,0,0,1-1.133-.337c-.3-.247-.521-.651-.521-1.643a1.933,1.933,0,0,1,.494-1.587,1.69,1.69,0,0,1,1.161-.393,2.789,2.789,0,0,1,.982.179l-.168.752a2.336,2.336,0,0,0-.662-.112.86.86,0,0,0-.595.2c-.129.123-.236.375-.236.965,0,.617.107.858.253.981a.866.866,0,0,0,.578.174,2.5,2.5,0,0,0,.78-.146Z" transform="translate(-2615.006 -1186.564)"/><path class="c" d="M2664.636,1186.992h.965v3.792h-.965Z" transform="translate(-2634.342 -1186.908)"/><path class="c" d="M2680.608,1186.992h1.369l1.144,3.792h-.987l-.191-.634h-1.3l-.191.634h-.987Zm.269,2.361h.824l-.292-.976c-.033-.118-.067-.286-.067-.286h-.106a2.7,2.7,0,0,1-.062.286Z" transform="translate(-2646.253 -1186.908)"/><path class="c" d="M2709.021,1190.524a3.483,3.483,0,0,1-1.4-.32l.174-.768a2.943,2.943,0,0,0,1.127.269c.27,0,.472-.123.472-.387,0-.185-.1-.309-.332-.365l-.409-.1c-.611-.14-1.077-.381-1.077-1.116,0-.707.477-1.178,1.385-1.178a2.768,2.768,0,0,1,1.145.264l-.263.768a2.233,2.233,0,0,0-.847-.213c-.275,0-.432.14-.432.336a.284.284,0,0,0,.241.292l.455.107c.662.157,1.122.42,1.122,1.15A1.18,1.18,0,0,1,2709.021,1190.524Z" transform="translate(-2668.831 -1186.564)"/></g><path class="b" d="M2445.793,1087.029l-4.034,9.734-3.743-9.734h-5.689l6.266,14.987a4.77,4.77,0,0,1-.668.436,4.435,4.435,0,0,1-1.368.464,10.019,10.019,0,0,1-1.212.132q-.59.025-1.149,0l-.777,3.577q1.148.081,2.889.079a10.876,10.876,0,0,0,4.585-.847,7.7,7.7,0,0,0,2.873-2.2,7.214,7.214,0,0,0,.467-.608,5.2,5.2,0,0,0,.372-.637l6.883-15.383Z" transform="translate(-2432.327 -1074.465)"/><path class="c" d="M2740.223,1035.782v2.85a3.251,3.251,0,1,0,6.5,0v-2.85h2.85a3.251,3.251,0,0,0,0-6.5h-2.85v-2.85a3.251,3.251,0,1,0-6.5,0v2.85h-2.85a3.251,3.251,0,1,0,0,6.5Z" transform="translate(-2674.736 -1023.179)"/><path class="b" d="M2798.115,1055.5a.116.116,0,1,1,.117.117A.117.117,0,0,1,2798.115,1055.5Z" transform="translate(-2726.138 -1049.046)"/><path class="b" d="M2800.445,1055.542a.105.105,0,1,1,.105.106A.106.106,0,0,1,2800.445,1055.542Z" transform="translate(-2728.01 -1049.089)"/><path class="b" d="M2802.776,1055.588a.094.094,0,1,1,.094.094A.094.094,0,0,1,2802.776,1055.588Z" transform="translate(-2729.882 -1049.135)"/><path class="b" d="M2805.106,1055.633a.084.084,0,0,1,.084-.084.084.084,0,0,1,0,.167A.084.084,0,0,1,2805.106,1055.633Z" transform="translate(-2731.753 -1049.18)"/><path class="b" d="M2807.438,1055.678a.072.072,0,1,1,.072.073A.073.073,0,0,1,2807.438,1055.678Z" transform="translate(-2733.627 -1049.224)"/><path class="b" d="M2809.769,1055.723a.061.061,0,0,1,.061-.062.061.061,0,1,1,0,.123A.061.061,0,0,1,2809.769,1055.723Z" transform="translate(-2735.499 -1049.269)"/><path class="b" d="M2812.1,1055.767a.051.051,0,1,1,.051.051A.051.051,0,0,1,2812.1,1055.767Z" transform="translate(-2737.371 -1049.314)"/><path class="b" d="M2814.432,1055.813a.039.039,0,1,1,.039.039A.039.039,0,0,1,2814.432,1055.813Z" transform="translate(-2739.244 -1049.359)"/><path class="b" d="M2816.76,1055.858a.029.029,0,1,1,.029.029A.029.029,0,0,1,2816.76,1055.858Z" transform="translate(-2741.114 -1049.404)"/><path class="b" d="M2798.115,1057.765a.116.116,0,1,1,.117.117A.117.117,0,0,1,2798.115,1057.765Z" transform="translate(-2726.138 -1050.865)"/><path class="b" d="M2800.445,1057.81a.105.105,0,1,1,.105.106A.106.106,0,0,1,2800.445,1057.81Z" transform="translate(-2728.01 -1050.91)"/><path class="b" d="M2802.776,1057.854a.094.094,0,1,1,.094.095A.094.094,0,0,1,2802.776,1057.854Z" transform="translate(-2729.882 -1050.955)"/><path class="b" d="M2805.106,1057.9a.084.084,0,0,1,.084-.083.083.083,0,0,1,0,.167A.084.084,0,0,1,2805.106,1057.9Z" transform="translate(-2731.753 -1051)"/><path class="b" d="M2807.438,1057.944a.072.072,0,1,1,.072.073A.072.072,0,0,1,2807.438,1057.944Z" transform="translate(-2733.627 -1051.045)"/><path class="b" d="M2809.769,1057.989a.061.061,0,0,1,.061-.061.061.061,0,1,1,0,.123A.061.061,0,0,1,2809.769,1057.989Z" transform="translate(-2735.499 -1051.09)"/><path class="b" d="M2812.1,1058.035a.051.051,0,0,1,.1,0,.051.051,0,1,1-.1,0Z" transform="translate(-2737.371 -1051.136)"/><path class="b" d="M2814.432,1058.08a.039.039,0,1,1,.039.04A.039.039,0,0,1,2814.432,1058.08Z" transform="translate(-2739.244 -1051.181)"/><path class="b" d="M2816.76,1058.125a.029.029,0,1,1,.029.029A.029.029,0,0,1,2816.76,1058.125Z" transform="translate(-2741.114 -1051.226)"/><path class="b" d="M2819.093,1058.169a.017.017,0,1,1,.017.018A.017.017,0,0,1,2819.093,1058.169Z" transform="translate(-2742.988 -1051.27)"/><path class="b" d="M2799.254,1056.627a.116.116,0,1,1,.117.116A.117.117,0,0,1,2799.254,1056.627Z" transform="translate(-2727.053 -1049.952)"/><path class="b" d="M2801.583,1056.672a.105.105,0,1,1,.105.105A.105.105,0,0,1,2801.583,1056.672Z" transform="translate(-2728.924 -1049.996)"/><path class="b" d="M2803.913,1056.716a.095.095,0,1,1,.094.095A.095.095,0,0,1,2803.913,1056.716Z" transform="translate(-2730.795 -1050.04)"/><path class="b" d="M2806.243,1056.761a.084.084,0,1,1,.084.084A.084.084,0,0,1,2806.243,1056.761Z" transform="translate(-2732.667 -1050.086)"/><path class="b" d="M2808.571,1056.806a.073.073,0,1,1,.073.073A.073.073,0,0,1,2808.571,1056.806Z" transform="translate(-2734.537 -1050.13)"/><path class="b" d="M2810.9,1056.85a.062.062,0,1,1,.062.062A.062.062,0,0,1,2810.9,1056.85Z" transform="translate(-2736.411 -1050.175)"/><path class="b" d="M2813.233,1056.9a.051.051,0,1,1,.051.051A.051.051,0,0,1,2813.233,1056.9Z" transform="translate(-2738.281 -1050.22)"/><path class="b" d="M2815.563,1056.94a.04.04,0,0,1,.04-.04.04.04,0,1,1-.04.04Z" transform="translate(-2740.153 -1050.265)"/><path class="b" d="M2817.892,1056.984a.029.029,0,1,1,.058,0,.029.029,0,0,1-.058,0Z" transform="translate(-2742.023 -1050.309)"/><path class="b" d="M2798.115,1060.032a.116.116,0,1,1,.117.117A.117.117,0,0,1,2798.115,1060.032Z" transform="translate(-2726.138 -1052.687)"/><path class="b" d="M2800.445,1060.077a.105.105,0,1,1,.105.106A.106.106,0,0,1,2800.445,1060.077Z" transform="translate(-2728.01 -1052.732)"/><path class="b" d="M2802.776,1060.122a.094.094,0,1,1,.094.094A.094.094,0,0,1,2802.776,1060.122Z" transform="translate(-2729.882 -1052.777)"/><path class="b" d="M2805.106,1060.167a.084.084,0,0,1,.084-.083.083.083,0,0,1,0,.167A.084.084,0,0,1,2805.106,1060.167Z" transform="translate(-2731.753 -1052.822)"/><path class="b" d="M2807.438,1060.212a.072.072,0,1,1,.072.073A.072.072,0,0,1,2807.438,1060.212Z" transform="translate(-2733.627 -1052.867)"/><path class="b" d="M2809.769,1060.257a.062.062,0,0,1,.061-.062.062.062,0,1,1,0,.123A.062.062,0,0,1,2809.769,1060.257Z" transform="translate(-2735.499 -1052.911)"/><path class="b" d="M2812.1,1060.3a.051.051,0,1,1,.051.05A.051.051,0,0,1,2812.1,1060.3Z" transform="translate(-2737.371 -1052.957)"/><path class="b" d="M2814.432,1060.347a.039.039,0,1,1,.039.04A.039.039,0,0,1,2814.432,1060.347Z" transform="translate(-2739.244 -1053.002)"/><path class="b" d="M2816.76,1060.391a.029.029,0,1,1,.029.028A.029.029,0,0,1,2816.76,1060.391Z" transform="translate(-2741.114 -1053.046)"/><path class="b" d="M2819.093,1060.437a.017.017,0,1,1,.035,0,.017.017,0,1,1-.035,0Z" transform="translate(-2742.988 -1053.091)"/><path class="b" d="M2799.254,1058.9a.116.116,0,1,1,.117.116A.116.116,0,0,1,2799.254,1058.9Z" transform="translate(-2727.053 -1051.774)"/><path class="b" d="M2801.583,1058.938a.105.105,0,1,1,.105.106A.106.106,0,0,1,2801.583,1058.938Z" transform="translate(-2728.924 -1051.816)"/><path class="b" d="M2803.913,1058.983a.095.095,0,1,1,.094.1A.095.095,0,0,1,2803.913,1058.983Z" transform="translate(-2730.795 -1051.861)"/><path class="b" d="M2806.243,1059.028a.084.084,0,1,1,.084.084A.084.084,0,0,1,2806.243,1059.028Z" transform="translate(-2732.667 -1051.906)"/><path class="b" d="M2808.571,1059.072a.073.073,0,1,1,.073.073A.073.073,0,0,1,2808.571,1059.072Z" transform="translate(-2734.537 -1051.951)"/><path class="b" d="M2810.9,1059.117a.062.062,0,1,1,.062.062A.062.062,0,0,1,2810.9,1059.117Z" transform="translate(-2736.411 -1051.996)"/><path class="b" d="M2813.233,1059.162a.051.051,0,1,1,.051.051A.051.051,0,0,1,2813.233,1059.162Z" transform="translate(-2738.281 -1052.041)"/><path class="b" d="M2815.563,1059.206a.04.04,0,0,1,.04-.04.04.04,0,1,1,0,.08A.04.04,0,0,1,2815.563,1059.206Z" transform="translate(-2740.153 -1052.085)"/><path class="b" d="M2817.892,1059.251a.029.029,0,1,1,.03.029A.029.029,0,0,1,2817.892,1059.251Z" transform="translate(-2742.023 -1052.13)"/><path class="b" d="M2798.115,1062.3a.116.116,0,1,1,.117.117A.117.117,0,0,1,2798.115,1062.3Z" transform="translate(-2726.138 -1054.508)"/><path class="b" d="M2800.445,1062.345a.105.105,0,1,1,.105.105A.106.106,0,0,1,2800.445,1062.345Z" transform="translate(-2728.01 -1054.553)"/><path class="b" d="M2802.776,1062.39a.094.094,0,1,1,.094.094A.094.094,0,0,1,2802.776,1062.39Z" transform="translate(-2729.882 -1054.598)"/><path class="b" d="M2805.106,1062.435a.084.084,0,0,1,.084-.084.083.083,0,1,1-.084.084Z" transform="translate(-2731.753 -1054.643)"/><path class="b" d="M2807.438,1062.479a.072.072,0,1,1,.072.072A.073.073,0,0,1,2807.438,1062.479Z" transform="translate(-2733.627 -1054.687)"/><circle class="b" cx="0.062" cy="0.062" r="0.062" transform="translate(74.27 7.73)"/><path class="b" d="M2812.1,1062.57a.051.051,0,1,1,.051.05A.051.051,0,0,1,2812.1,1062.57Z" transform="translate(-2737.371 -1054.778)"/><path class="b" d="M2814.432,1062.614a.039.039,0,1,1,.039.039A.039.039,0,0,1,2814.432,1062.614Z" transform="translate(-2739.244 -1054.822)"/><path class="b" d="M2816.76,1062.659a.029.029,0,1,1,.029.028A.029.029,0,0,1,2816.76,1062.659Z" transform="translate(-2741.114 -1054.867)"/><path class="b" d="M2819.093,1062.705a.017.017,0,1,1,.035,0,.017.017,0,1,1-.035,0Z" transform="translate(-2742.988 -1054.914)"/><path class="b" d="M2799.254,1061.162a.116.116,0,1,1,.117.117A.117.117,0,0,1,2799.254,1061.162Z" transform="translate(-2727.053 -1053.594)"/><path class="b" d="M2801.583,1061.206a.105.105,0,1,1,.105.106A.105.105,0,0,1,2801.583,1061.206Z" transform="translate(-2728.924 -1053.639)"/><path class="b" d="M2803.913,1061.251a.095.095,0,1,1,.094.095A.095.095,0,0,1,2803.913,1061.251Z" transform="translate(-2730.795 -1053.683)"/><path class="b" d="M2806.243,1061.294a.084.084,0,1,1,.084.084A.084.084,0,0,1,2806.243,1061.294Z" transform="translate(-2732.667 -1053.726)"/><path class="b" d="M2808.571,1061.339a.073.073,0,1,1,.073.073A.073.073,0,0,1,2808.571,1061.339Z" transform="translate(-2734.537 -1053.772)"/><path class="b" d="M2810.9,1061.384a.062.062,0,1,1,.062.062A.061.061,0,0,1,2810.9,1061.384Z" transform="translate(-2736.411 -1053.816)"/><path class="b" d="M2813.233,1061.428a.051.051,0,1,1,.051.051A.051.051,0,0,1,2813.233,1061.428Z" transform="translate(-2738.281 -1053.86)"/><path class="b" d="M2815.563,1061.473a.04.04,0,0,1,.04-.04.04.04,0,1,1,0,.08A.04.04,0,0,1,2815.563,1061.473Z" transform="translate(-2740.153 -1053.906)"/><path class="b" d="M2817.892,1061.518a.029.029,0,1,1,.058,0,.029.029,0,0,1-.058,0Z" transform="translate(-2742.023 -1053.951)"/><path class="b" d="M2798.115,1064.566a.116.116,0,1,1,.117.116A.117.117,0,0,1,2798.115,1064.566Z" transform="translate(-2726.138 -1056.328)"/><path class="b" d="M2800.445,1064.611a.105.105,0,1,1,.105.106A.106.106,0,0,1,2800.445,1064.611Z" transform="translate(-2728.01 -1056.374)"/><path class="b" d="M2802.776,1064.656a.094.094,0,1,1,.094.095A.094.094,0,0,1,2802.776,1064.656Z" transform="translate(-2729.882 -1056.419)"/><path class="b" d="M2805.106,1064.7a.084.084,0,0,1,.084-.084.084.084,0,1,1-.084.084Z" transform="translate(-2731.753 -1056.463)"/><path class="b" d="M2807.438,1064.745a.072.072,0,1,1,.072.073A.073.073,0,0,1,2807.438,1064.745Z" transform="translate(-2733.627 -1056.508)"/><path class="b" d="M2809.769,1064.792a.061.061,0,0,1,.061-.061.061.061,0,1,1,0,.123A.061.061,0,0,1,2809.769,1064.792Z" transform="translate(-2735.499 -1056.555)"/><path class="b" d="M2812.1,1064.836a.051.051,0,0,1,.1,0,.051.051,0,0,1-.1,0Z" transform="translate(-2737.371 -1056.599)"/><path class="b" d="M2814.432,1064.881a.039.039,0,1,1,.039.04A.039.039,0,0,1,2814.432,1064.881Z" transform="translate(-2739.244 -1056.644)"/><path class="b" d="M2816.76,1064.926a.029.029,0,1,1,.029.028A.029.029,0,0,1,2816.76,1064.926Z" transform="translate(-2741.114 -1056.688)"/><path class="b" d="M2819.093,1064.971a.017.017,0,1,1,.017.017A.017.017,0,0,1,2819.093,1064.971Z" transform="translate(-2742.988 -1056.734)"/><path class="b" d="M2799.254,1063.428a.116.116,0,1,1,.117.117A.117.117,0,0,1,2799.254,1063.428Z" transform="translate(-2727.053 -1055.415)"/><path class="b" d="M2801.583,1063.474a.105.105,0,1,1,.105.106A.105.105,0,0,1,2801.583,1063.474Z" transform="translate(-2728.924 -1055.46)"/><path class="b" d="M2803.913,1063.518a.095.095,0,1,1,.094.094A.095.095,0,0,1,2803.913,1063.518Z" transform="translate(-2730.795 -1055.504)"/><path class="b" d="M2806.243,1063.563a.084.084,0,1,1,.084.084A.084.084,0,0,1,2806.243,1063.563Z" transform="translate(-2732.667 -1055.549)"/><path class="b" d="M2808.571,1063.608a.073.073,0,1,1,.073.073A.073.073,0,0,1,2808.571,1063.608Z" transform="translate(-2734.537 -1055.594)"/><path class="b" d="M2810.9,1063.651a.062.062,0,1,1,.062.062A.061.061,0,0,1,2810.9,1063.651Z" transform="translate(-2736.411 -1055.637)"/><path class="b" d="M2813.233,1063.7a.051.051,0,1,1,.051.051A.051.051,0,0,1,2813.233,1063.7Z" transform="translate(-2738.281 -1055.682)"/><path class="b" d="M2815.563,1063.741a.04.04,0,0,1,.04-.04.04.04,0,1,1,0,.08A.04.04,0,0,1,2815.563,1063.741Z" transform="translate(-2740.153 -1055.728)"/><path class="b" d="M2817.892,1063.785a.029.029,0,1,1,.03.029A.029.029,0,0,1,2817.892,1063.785Z" transform="translate(-2742.023 -1055.771)"/><path class="b" d="M2798.115,1066.834a.116.116,0,1,1,.117.117A.117.117,0,0,1,2798.115,1066.834Z" transform="translate(-2726.138 -1058.151)"/><path class="b" d="M2800.445,1066.88a.105.105,0,1,1,.105.105A.105.105,0,0,1,2800.445,1066.88Z" transform="translate(-2728.01 -1058.196)"/><path class="b" d="M2802.776,1066.924a.094.094,0,1,1,.094.095A.095.095,0,0,1,2802.776,1066.924Z" transform="translate(-2729.882 -1058.24)"/><path class="b" d="M2805.106,1066.969a.084.084,0,0,1,.084-.083.084.084,0,0,1,0,.167A.084.084,0,0,1,2805.106,1066.969Z" transform="translate(-2731.753 -1058.285)"/><path class="b" d="M2807.438,1067.014a.072.072,0,1,1,.072.072A.072.072,0,0,1,2807.438,1067.014Z" transform="translate(-2733.627 -1058.331)"/><path class="b" d="M2809.769,1067.059a.061.061,0,0,1,.061-.062.061.061,0,1,1,0,.123A.061.061,0,0,1,2809.769,1067.059Z" transform="translate(-2735.499 -1058.375)"/><path class="b" d="M2812.1,1067.1a.051.051,0,1,1,.051.051A.051.051,0,0,1,2812.1,1067.1Z" transform="translate(-2737.371 -1058.42)"/><path class="b" d="M2814.432,1067.149a.039.039,0,1,1,.078,0,.039.039,0,0,1-.078,0Z" transform="translate(-2739.244 -1058.465)"/><path class="b" d="M2816.76,1067.194a.029.029,0,1,1,.029.028A.029.029,0,0,1,2816.76,1067.194Z" transform="translate(-2741.114 -1058.51)"/><path class="b" d="M2819.093,1067.238a.017.017,0,1,1,.017.017A.018.018,0,0,1,2819.093,1067.238Z" transform="translate(-2742.988 -1058.555)"/><path class="b" d="M2799.254,1065.7a.116.116,0,1,1,.117.117A.117.117,0,0,1,2799.254,1065.7Z" transform="translate(-2727.053 -1057.236)"/><path class="b" d="M2801.583,1065.74a.105.105,0,1,1,.105.106A.105.105,0,0,1,2801.583,1065.74Z" transform="translate(-2728.924 -1057.28)"/><path class="b" d="M2803.913,1065.785a.095.095,0,1,1,.094.095A.095.095,0,0,1,2803.913,1065.785Z" transform="translate(-2730.795 -1057.325)"/><path class="b" d="M2806.243,1065.83a.084.084,0,1,1,.084.084A.084.084,0,0,1,2806.243,1065.83Z" transform="translate(-2732.667 -1057.37)"/><path class="b" d="M2808.571,1065.874a.073.073,0,1,1,.073.073A.073.073,0,0,1,2808.571,1065.874Z" transform="translate(-2734.537 -1057.414)"/><path class="b" d="M2810.9,1065.919a.062.062,0,1,1,.062.062A.061.061,0,0,1,2810.9,1065.919Z" transform="translate(-2736.411 -1057.459)"/><path class="b" d="M2813.233,1065.963a.051.051,0,1,1,.051.051A.051.051,0,0,1,2813.233,1065.963Z" transform="translate(-2738.281 -1057.503)"/><path class="b" d="M2815.563,1066.007a.04.04,0,0,1,.04-.04.04.04,0,1,1,0,.08A.04.04,0,0,1,2815.563,1066.007Z" transform="translate(-2740.153 -1057.547)"/><path class="b" d="M2817.892,1066.052a.029.029,0,1,1,.058,0,.029.029,0,0,1-.058,0Z" transform="translate(-2742.023 -1057.592)"/><path class="b" d="M2798.115,1069.1a.116.116,0,1,1,.117.117A.117.117,0,0,1,2798.115,1069.1Z" transform="translate(-2726.138 -1059.972)"/><path class="b" d="M2800.445,1069.146a.105.105,0,1,1,.105.105A.106.106,0,0,1,2800.445,1069.146Z" transform="translate(-2728.01 -1060.016)"/><path class="b" d="M2802.776,1069.191a.094.094,0,1,1,.094.094A.094.094,0,0,1,2802.776,1069.191Z" transform="translate(-2729.882 -1060.061)"/><path class="b" d="M2805.106,1069.236a.084.084,0,0,1,.084-.084.084.084,0,0,1,0,.167A.084.084,0,0,1,2805.106,1069.236Z" transform="translate(-2731.753 -1060.106)"/><path class="b" d="M2807.438,1069.281a.072.072,0,1,1,.072.073A.072.072,0,0,1,2807.438,1069.281Z" transform="translate(-2733.627 -1060.151)"/><path class="b" d="M2809.769,1069.326a.061.061,0,0,1,.061-.062.061.061,0,1,1,0,.123A.061.061,0,0,1,2809.769,1069.326Z" transform="translate(-2735.499 -1060.196)"/><path class="b" d="M2812.1,1069.37a.051.051,0,1,1,.051.051A.051.051,0,0,1,2812.1,1069.37Z" transform="translate(-2737.371 -1060.241)"/><path class="b" d="M2814.432,1069.416a.039.039,0,1,1,.039.04A.039.039,0,0,1,2814.432,1069.416Z" transform="translate(-2739.244 -1060.287)"/><path class="b" d="M2816.76,1069.461a.029.029,0,0,1,.058,0,.029.029,0,0,1-.058,0Z" transform="translate(-2741.114 -1060.331)"/><path class="b" d="M2819.093,1069.505a.017.017,0,1,1,.017.018A.017.017,0,0,1,2819.093,1069.505Z" transform="translate(-2742.988 -1060.376)"/><path class="b" d="M2799.254,1067.963a.116.116,0,1,1,.117.116A.117.117,0,0,1,2799.254,1067.963Z" transform="translate(-2727.053 -1059.057)"/><path class="b" d="M2801.583,1068.007a.105.105,0,1,1,.105.106A.105.105,0,0,1,2801.583,1068.007Z" transform="translate(-2728.924 -1059.102)"/><path class="b" d="M2803.913,1068.053a.095.095,0,1,1,.094.095A.095.095,0,0,1,2803.913,1068.053Z" transform="translate(-2730.795 -1059.147)"/><path class="b" d="M2806.243,1068.1a.084.084,0,1,1,.084.083A.084.084,0,0,1,2806.243,1068.1Z" transform="translate(-2732.667 -1059.191)"/><path class="b" d="M2808.571,1068.142a.073.073,0,1,1,.073.073A.073.073,0,0,1,2808.571,1068.142Z" transform="translate(-2734.537 -1059.236)"/><path class="b" d="M2810.9,1068.187a.062.062,0,1,1,.062.062A.061.061,0,0,1,2810.9,1068.187Z" transform="translate(-2736.411 -1059.281)"/><path class="b" d="M2813.233,1068.23a.051.051,0,1,1,.051.051A.051.051,0,0,1,2813.233,1068.23Z" transform="translate(-2738.281 -1059.324)"/><path class="b" d="M2815.563,1068.276a.04.04,0,0,1,.04-.04.04.04,0,1,1-.04.04Z" transform="translate(-2740.153 -1059.37)"/><path class="b" d="M2817.892,1068.32a.029.029,0,1,1,.03.029A.029.029,0,0,1,2817.892,1068.32Z" transform="translate(-2742.023 -1059.414)"/><path class="b" d="M2798.115,1071.368a.116.116,0,1,1,.117.117A.117.117,0,0,1,2798.115,1071.368Z" transform="translate(-2726.138 -1061.792)"/><path class="b" d="M2800.445,1071.412a.105.105,0,1,1,.105.106A.106.106,0,0,1,2800.445,1071.412Z" transform="translate(-2728.01 -1061.837)"/><path class="b" d="M2802.776,1071.458a.094.094,0,1,1,.094.094A.094.094,0,0,1,2802.776,1071.458Z" transform="translate(-2729.882 -1061.882)"/><path class="b" d="M2805.106,1071.5a.084.084,0,0,1,.084-.083.083.083,0,0,1,0,.167A.084.084,0,0,1,2805.106,1071.5Z" transform="translate(-2731.753 -1061.927)"/><path class="b" d="M2807.438,1071.548a.072.072,0,1,1,.072.073A.072.072,0,0,1,2807.438,1071.548Z" transform="translate(-2733.627 -1061.972)"/><path class="b" d="M2809.769,1071.592a.061.061,0,0,1,.061-.061.062.062,0,1,1,0,.123A.061.061,0,0,1,2809.769,1071.592Z" transform="translate(-2735.499 -1062.017)"/><path class="b" d="M2812.1,1071.637a.051.051,0,0,1,.1,0,.051.051,0,0,1-.1,0Z" transform="translate(-2737.371 -1062.062)"/><path class="b" d="M2814.432,1071.683a.039.039,0,1,1,.039.04A.039.039,0,0,1,2814.432,1071.683Z" transform="translate(-2739.244 -1062.107)"/><path class="b" d="M2816.76,1071.728a.029.029,0,0,1,.058,0,.029.029,0,1,1-.058,0Z" transform="translate(-2741.114 -1062.152)"/><path class="b" d="M2819.093,1071.772a.017.017,0,0,1,.035,0,.017.017,0,1,1-.035,0Z" transform="translate(-2742.988 -1062.197)"/><path class="b" d="M2799.254,1070.23a.116.116,0,1,1,.117.116A.117.117,0,0,1,2799.254,1070.23Z" transform="translate(-2727.053 -1060.878)"/><path class="b" d="M2801.583,1070.275a.105.105,0,1,1,.105.105A.105.105,0,0,1,2801.583,1070.275Z" transform="translate(-2728.924 -1060.923)"/><path class="b" d="M2803.913,1070.319a.095.095,0,1,1,.094.095A.095.095,0,0,1,2803.913,1070.319Z" transform="translate(-2730.795 -1060.967)"/><path class="b" d="M2806.243,1070.364a.084.084,0,1,1,.084.084A.084.084,0,0,1,2806.243,1070.364Z" transform="translate(-2732.667 -1061.012)"/><path class="b" d="M2808.571,1070.409a.073.073,0,1,1,.073.073A.073.073,0,0,1,2808.571,1070.409Z" transform="translate(-2734.537 -1061.057)"/><path class="b" d="M2810.9,1070.453a.062.062,0,1,1,.062.062A.062.062,0,0,1,2810.9,1070.453Z" transform="translate(-2736.411 -1061.101)"/><path class="b" d="M2813.233,1070.5a.051.051,0,1,1,.051.051A.051.051,0,0,1,2813.233,1070.5Z" transform="translate(-2738.281 -1061.146)"/><path class="b" d="M2815.563,1070.543a.04.04,0,0,1,.04-.04.04.04,0,1,1,0,.08A.04.04,0,0,1,2815.563,1070.543Z" transform="translate(-2740.153 -1061.191)"/><path class="b" d="M2817.892,1070.587a.029.029,0,1,1,.03.029A.029.029,0,0,1,2817.892,1070.587Z" transform="translate(-2742.023 -1061.235)"/><path class="b" d="M2798.115,1073.635a.116.116,0,1,1,.117.117A.117.117,0,0,1,2798.115,1073.635Z" transform="translate(-2726.138 -1063.614)"/><path class="b" d="M2800.445,1073.68a.105.105,0,1,1,.105.106A.106.106,0,0,1,2800.445,1073.68Z" transform="translate(-2728.01 -1063.658)"/><path class="b" d="M2802.776,1073.725a.094.094,0,1,1,.094.094A.094.094,0,0,1,2802.776,1073.725Z" transform="translate(-2729.882 -1063.703)"/><path class="b" d="M2805.106,1073.771a.084.084,0,0,1,.084-.083.084.084,0,0,1,0,.167A.084.084,0,0,1,2805.106,1073.771Z" transform="translate(-2731.753 -1063.748)"/><path class="b" d="M2807.438,1073.815a.072.072,0,1,1,.072.073A.072.072,0,0,1,2807.438,1073.815Z" transform="translate(-2733.627 -1063.794)"/><path class="b" d="M2809.769,1073.86a.061.061,0,0,1,.061-.062.062.062,0,1,1,0,.123A.061.061,0,0,1,2809.769,1073.86Z" transform="translate(-2735.499 -1063.838)"/><path class="b" d="M2812.1,1073.905a.051.051,0,1,1,.051.051A.051.051,0,0,1,2812.1,1073.905Z" transform="translate(-2737.371 -1063.883)"/><path class="b" d="M2814.432,1073.95a.039.039,0,1,1,.039.04A.039.039,0,0,1,2814.432,1073.95Z" transform="translate(-2739.244 -1063.928)"/><path class="b" d="M2816.76,1073.994a.029.029,0,0,1,.058,0,.029.029,0,0,1-.058,0Z" transform="translate(-2741.114 -1063.972)"/><path class="b" d="M2819.093,1074.039a.017.017,0,1,1,.017.018A.018.018,0,0,1,2819.093,1074.039Z" transform="translate(-2742.988 -1064.017)"/><path class="b" d="M2799.254,1072.5a.116.116,0,1,1,.117.116A.117.117,0,0,1,2799.254,1072.5Z" transform="translate(-2727.053 -1062.699)"/><path class="b" d="M2801.583,1072.541a.105.105,0,1,1,.105.105A.106.106,0,0,1,2801.583,1072.541Z" transform="translate(-2728.924 -1062.743)"/><path class="b" d="M2803.913,1072.586a.095.095,0,1,1,.094.095A.095.095,0,0,1,2803.913,1072.586Z" transform="translate(-2730.795 -1062.788)"/><path class="b" d="M2806.243,1072.631a.084.084,0,1,1,.084.084A.084.084,0,0,1,2806.243,1072.631Z" transform="translate(-2732.667 -1062.833)"/><path class="b" d="M2808.571,1072.675a.073.073,0,1,1,.073.073A.073.073,0,0,1,2808.571,1072.675Z" transform="translate(-2734.537 -1062.877)"/><path class="b" d="M2810.9,1072.72a.062.062,0,1,1,.062.062A.061.061,0,0,1,2810.9,1072.72Z" transform="translate(-2736.411 -1062.922)"/><path class="b" d="M2813.233,1072.765a.051.051,0,1,1,.051.051A.051.051,0,0,1,2813.233,1072.765Z" transform="translate(-2738.281 -1062.967)"/><path class="b" d="M2815.563,1072.809a.04.04,0,0,1,.04-.04.04.04,0,1,1-.04.04Z" transform="translate(-2740.153 -1063.011)"/><path class="b" d="M2817.892,1072.854a.029.029,0,1,1,.058,0,.029.029,0,0,1-.058,0Z" transform="translate(-2742.023 -1063.056)"/><path class="b" d="M2798.115,1075.9a.116.116,0,1,1,.117.116A.117.117,0,0,1,2798.115,1075.9Z" transform="translate(-2726.138 -1065.435)"/><path class="b" d="M2800.445,1075.947a.105.105,0,1,1,.105.106A.106.106,0,0,1,2800.445,1075.947Z" transform="translate(-2728.01 -1065.479)"/><path class="b" d="M2802.776,1075.993a.094.094,0,1,1,.094.095A.094.094,0,0,1,2802.776,1075.993Z" transform="translate(-2729.882 -1065.524)"/><path class="b" d="M2805.106,1076.037a.084.084,0,0,1,.084-.083.083.083,0,1,1-.084.083Z" transform="translate(-2731.753 -1065.569)"/><path class="b" d="M2807.438,1076.082a.072.072,0,1,1,.072.072A.073.073,0,0,1,2807.438,1076.082Z" transform="translate(-2733.627 -1065.614)"/><circle class="b" cx="0.062" cy="0.062" r="0.062" transform="translate(74.27 10.407)"/><path class="b" d="M2812.1,1076.173a.051.051,0,1,1,.1,0,.051.051,0,0,1-.1,0Z" transform="translate(-2737.371 -1065.704)"/><path class="b" d="M2814.432,1076.217a.039.039,0,1,1,.039.039A.039.039,0,0,1,2814.432,1076.217Z" transform="translate(-2739.244 -1065.749)"/><path class="b" d="M2816.76,1076.262a.029.029,0,1,1,.029.028A.029.029,0,0,1,2816.76,1076.262Z" transform="translate(-2741.114 -1065.793)"/><path class="b" d="M2819.093,1076.307a.017.017,0,1,1,.017.017A.017.017,0,0,1,2819.093,1076.307Z" transform="translate(-2742.988 -1065.839)"/><path class="b" d="M2799.254,1074.764a.116.116,0,1,1,.117.116A.117.117,0,0,1,2799.254,1074.764Z" transform="translate(-2727.053 -1064.52)"/><path class="b" d="M2801.583,1074.808a.105.105,0,1,1,.105.106A.106.106,0,0,1,2801.583,1074.808Z" transform="translate(-2728.924 -1064.564)"/><path class="b" d="M2803.913,1074.854a.095.095,0,1,1,.094.095A.095.095,0,0,1,2803.913,1074.854Z" transform="translate(-2730.795 -1064.609)"/><path class="b" d="M2806.243,1074.9a.084.084,0,1,1,.084.084A.084.084,0,0,1,2806.243,1074.9Z" transform="translate(-2732.667 -1064.653)"/><path class="b" d="M2808.571,1074.943a.073.073,0,1,1,.073.073A.073.073,0,0,1,2808.571,1074.943Z" transform="translate(-2734.537 -1064.699)"/><path class="b" d="M2810.9,1074.987a.062.062,0,1,1,.062.062A.062.062,0,0,1,2810.9,1074.987Z" transform="translate(-2736.411 -1064.743)"/><path class="b" d="M2813.233,1075.031a.051.051,0,1,1,.051.051A.051.051,0,0,1,2813.233,1075.031Z" transform="translate(-2738.281 -1064.787)"/><path class="b" d="M2815.563,1075.076a.04.04,0,0,1,.04-.04.04.04,0,1,1,0,.08A.04.04,0,0,1,2815.563,1075.076Z" transform="translate(-2740.153 -1064.832)"/><path class="b" d="M2817.892,1075.121a.029.029,0,1,1,.03.029A.029.029,0,0,1,2817.892,1075.121Z" transform="translate(-2742.023 -1064.877)"/><path class="b" d="M2798.115,1078.169a.116.116,0,1,1,.117.116A.117.117,0,0,1,2798.115,1078.169Z" transform="translate(-2726.138 -1067.255)"/><path class="b" d="M2800.445,1078.214a.105.105,0,1,1,.105.105A.105.105,0,0,1,2800.445,1078.214Z" transform="translate(-2728.01 -1067.3)"/><path class="b" d="M2802.776,1078.261a.094.094,0,1,1,.094.094A.094.094,0,0,1,2802.776,1078.261Z" transform="translate(-2729.882 -1067.346)"/><path class="b" d="M2805.106,1078.3a.084.084,0,0,1,.084-.084.084.084,0,1,1-.084.084Z" transform="translate(-2731.753 -1067.389)"/><path class="b" d="M2807.438,1078.349a.072.072,0,1,1,.072.072A.072.072,0,0,1,2807.438,1078.349Z" transform="translate(-2733.627 -1067.435)"/><path class="b" d="M2809.769,1078.394a.061.061,0,0,1,.061-.061.061.061,0,1,1,0,.123A.061.061,0,0,1,2809.769,1078.394Z" transform="translate(-2735.499 -1067.48)"/><path class="b" d="M2812.1,1078.44a.051.051,0,1,1,.051.05A.05.05,0,0,1,2812.1,1078.44Z" transform="translate(-2737.371 -1067.525)"/><path class="b" d="M2814.432,1078.484a.039.039,0,1,1,.039.039A.039.039,0,0,1,2814.432,1078.484Z" transform="translate(-2739.244 -1067.57)"/><path class="b" d="M2816.76,1078.529a.029.029,0,1,1,.029.028A.029.029,0,0,1,2816.76,1078.529Z" transform="translate(-2741.114 -1067.614)"/><path class="b" d="M2819.093,1078.574a.017.017,0,0,1,.035,0,.017.017,0,0,1-.035,0Z" transform="translate(-2742.988 -1067.66)"/><path class="b" d="M2799.254,1077.032a.116.116,0,1,1,.117.116A.117.117,0,0,1,2799.254,1077.032Z" transform="translate(-2727.053 -1066.341)"/><path class="b" d="M2801.583,1077.076a.105.105,0,1,1,.105.106A.105.105,0,0,1,2801.583,1077.076Z" transform="translate(-2728.924 -1066.386)"/><path class="b" d="M2803.913,1077.121a.095.095,0,1,1,.094.094A.095.095,0,0,1,2803.913,1077.121Z" transform="translate(-2730.795 -1066.43)"/><path class="b" d="M2806.243,1077.166a.084.084,0,1,1,.084.084A.084.084,0,0,1,2806.243,1077.166Z" transform="translate(-2732.667 -1066.475)"/><path class="b" d="M2808.571,1077.21a.073.073,0,1,1,.073.073A.073.073,0,0,1,2808.571,1077.21Z" transform="translate(-2734.537 -1066.52)"/><path class="b" d="M2810.9,1077.254a.062.062,0,1,1,.062.062A.061.061,0,0,1,2810.9,1077.254Z" transform="translate(-2736.411 -1066.564)"/><path class="b" d="M2813.233,1077.3a.051.051,0,1,1,.051.051A.051.051,0,0,1,2813.233,1077.3Z" transform="translate(-2738.281 -1066.609)"/><path class="b" d="M2815.563,1077.344a.04.04,0,0,1,.04-.04.04.04,0,1,1,0,.08A.04.04,0,0,1,2815.563,1077.344Z" transform="translate(-2740.153 -1066.654)"/><path class="b" d="M2817.892,1077.387a.029.029,0,1,1,.058,0,.029.029,0,1,1-.058,0Z" transform="translate(-2742.023 -1066.697)"/><path class="b" d="M2798.115,1080.437a.116.116,0,1,1,.117.116A.117.117,0,0,1,2798.115,1080.437Z" transform="translate(-2726.138 -1069.077)"/><path class="b" d="M2800.445,1080.482a.105.105,0,1,1,.105.105A.106.106,0,0,1,2800.445,1080.482Z" transform="translate(-2728.01 -1069.122)"/><path class="b" d="M2802.776,1080.527a.094.094,0,1,1,.094.094A.094.094,0,0,1,2802.776,1080.527Z" transform="translate(-2729.882 -1069.166)"/><path class="b" d="M2805.106,1080.572a.084.084,0,0,1,.084-.083.084.084,0,0,1,0,.167A.084.084,0,0,1,2805.106,1080.572Z" transform="translate(-2731.753 -1069.211)"/><path class="b" d="M2807.438,1080.617a.072.072,0,1,1,.072.073A.072.072,0,0,1,2807.438,1080.617Z" transform="translate(-2733.627 -1069.257)"/><circle class="b" cx="0.062" cy="0.062" r="0.062" transform="translate(74.27 11.299)"/><path class="b" d="M2812.1,1080.707a.051.051,0,1,1,.051.051A.051.051,0,0,1,2812.1,1080.707Z" transform="translate(-2737.371 -1069.346)"/><path class="b" d="M2814.432,1080.752a.039.039,0,1,1,.078,0,.039.039,0,1,1-.078,0Z" transform="translate(-2739.244 -1069.391)"/><path class="b" d="M2816.76,1080.8a.029.029,0,1,1,.029.029A.029.029,0,0,1,2816.76,1080.8Z" transform="translate(-2741.114 -1069.436)"/><path class="b" d="M2819.093,1080.841a.017.017,0,1,1,.035,0,.017.017,0,0,1-.035,0Z" transform="translate(-2742.988 -1069.481)"/><path class="b" d="M2799.254,1079.3a.116.116,0,1,1,.117.117A.116.116,0,0,1,2799.254,1079.3Z" transform="translate(-2727.053 -1068.162)"/><path class="b" d="M2801.583,1079.343a.105.105,0,1,1,.105.106A.105.105,0,0,1,2801.583,1079.343Z" transform="translate(-2728.924 -1068.206)"/><path class="b" d="M2803.913,1079.388a.095.095,0,1,1,.094.095A.095.095,0,0,1,2803.913,1079.388Z" transform="translate(-2730.795 -1068.251)"/><path class="b" d="M2806.243,1079.433a.084.084,0,1,1,.084.084A.084.084,0,0,1,2806.243,1079.433Z" transform="translate(-2732.667 -1068.296)"/><path class="b" d="M2808.571,1079.477a.073.073,0,1,1,.073.073A.073.073,0,0,1,2808.571,1079.477Z" transform="translate(-2734.537 -1068.341)"/><path class="b" d="M2810.9,1079.522a.062.062,0,1,1,.062.062A.061.061,0,0,1,2810.9,1079.522Z" transform="translate(-2736.411 -1068.385)"/><path class="b" d="M2813.233,1079.567a.051.051,0,1,1,.051.051A.051.051,0,0,1,2813.233,1079.567Z" transform="translate(-2738.281 -1068.43)"/><path class="b" d="M2815.563,1079.61a.04.04,0,0,1,.04-.04.04.04,0,1,1-.04.04Z" transform="translate(-2740.153 -1068.474)"/><path class="b" d="M2817.892,1079.655a.029.029,0,1,1,.058,0,.029.029,0,1,1-.058,0Z" transform="translate(-2742.023 -1068.519)"/><path class="b" d="M2798.115,1082.7a.116.116,0,1,1,.117.116A.117.117,0,0,1,2798.115,1082.7Z" transform="translate(-2726.138 -1070.898)"/><path class="b" d="M2800.445,1082.749a.105.105,0,1,1,.105.105A.106.106,0,0,1,2800.445,1082.749Z" transform="translate(-2728.01 -1070.942)"/><path class="b" d="M2802.776,1082.794a.094.094,0,1,1,.094.094A.094.094,0,0,1,2802.776,1082.794Z" transform="translate(-2729.882 -1070.987)"/><path class="b" d="M2805.106,1082.838a.084.084,0,0,1,.084-.083.083.083,0,0,1,0,.167A.084.084,0,0,1,2805.106,1082.838Z" transform="translate(-2731.753 -1071.032)"/><path class="b" d="M2807.438,1082.884a.072.072,0,1,1,.072.072A.073.073,0,0,1,2807.438,1082.884Z" transform="translate(-2733.627 -1071.077)"/><circle class="b" cx="0.062" cy="0.062" r="0.062" transform="translate(74.27 11.745)"/><path class="b" d="M2812.1,1082.974a.051.051,0,0,1,.1,0,.051.051,0,1,1-.1,0Z" transform="translate(-2737.371 -1071.167)"/><path class="b" d="M2814.432,1083.019a.039.039,0,1,1,.039.039A.039.039,0,0,1,2814.432,1083.019Z" transform="translate(-2739.244 -1071.212)"/><path class="b" d="M2816.76,1083.064a.029.029,0,1,1,.029.029A.029.029,0,0,1,2816.76,1083.064Z" transform="translate(-2741.114 -1071.258)"/><path class="b" d="M2819.093,1083.108a.017.017,0,1,1,.017.018A.018.018,0,0,1,2819.093,1083.108Z" transform="translate(-2742.988 -1071.301)"/><path class="b" d="M2799.254,1081.566a.116.116,0,1,1,.117.116A.117.117,0,0,1,2799.254,1081.566Z" transform="translate(-2727.053 -1069.983)"/><path class="b" d="M2801.583,1081.61a.105.105,0,1,1,.105.105A.105.105,0,0,1,2801.583,1081.61Z" transform="translate(-2728.924 -1070.028)"/><path class="b" d="M2803.913,1081.655a.095.095,0,1,1,.094.095A.095.095,0,0,1,2803.913,1081.655Z" transform="translate(-2730.795 -1070.072)"/><path class="b" d="M2806.243,1081.7a.084.084,0,1,1,.084.084A.084.084,0,0,1,2806.243,1081.7Z" transform="translate(-2732.667 -1070.117)"/><path class="b" d="M2808.571,1081.745a.073.073,0,1,1,.073.073A.073.073,0,0,1,2808.571,1081.745Z" transform="translate(-2734.537 -1070.162)"/><path class="b" d="M2810.9,1081.789a.062.062,0,1,1,.062.062A.062.062,0,0,1,2810.9,1081.789Z" transform="translate(-2736.411 -1070.206)"/><path class="b" d="M2813.233,1081.834a.051.051,0,1,1,.051.051A.051.051,0,0,1,2813.233,1081.834Z" transform="translate(-2738.281 -1070.251)"/><path class="b" d="M2815.563,1081.879a.04.04,0,0,1,.04-.04.04.04,0,1,1-.04.04Z" transform="translate(-2740.153 -1070.296)"/><path class="b" d="M2817.892,1081.922a.029.029,0,1,1,.058,0,.029.029,0,0,1-.058,0Z" transform="translate(-2742.023 -1070.34)"/><path class="b" d="M2798.115,1084.971a.116.116,0,1,1,.117.117A.117.117,0,0,1,2798.115,1084.971Z" transform="translate(-2726.138 -1072.718)"/><path class="b" d="M2800.445,1085.015a.105.105,0,1,1,.105.105A.106.106,0,0,1,2800.445,1085.015Z" transform="translate(-2728.01 -1072.763)"/><path class="b" d="M2802.776,1085.06a.094.094,0,1,1,.094.095A.094.094,0,0,1,2802.776,1085.06Z" transform="translate(-2729.882 -1072.808)"/><path class="b" d="M2805.106,1085.106a.084.084,0,0,1,.084-.083.084.084,0,0,1,0,.167A.084.084,0,0,1,2805.106,1085.106Z" transform="translate(-2731.753 -1072.854)"/><path class="b" d="M2807.438,1085.15a.072.072,0,1,1,.072.073A.072.072,0,0,1,2807.438,1085.15Z" transform="translate(-2733.627 -1072.898)"/><path class="b" d="M2809.769,1085.2a.061.061,0,0,1,.061-.061.061.061,0,1,1,0,.123A.061.061,0,0,1,2809.769,1085.2Z" transform="translate(-2735.499 -1072.943)"/><path class="b" d="M2812.1,1085.239a.051.051,0,1,1,.051.051A.051.051,0,0,1,2812.1,1085.239Z" transform="translate(-2737.371 -1072.987)"/><path class="b" d="M2814.432,1085.286a.039.039,0,1,1,.039.04A.039.039,0,0,1,2814.432,1085.286Z" transform="translate(-2739.244 -1073.034)"/><path class="b" d="M2816.76,1085.33a.029.029,0,1,1,.029.029A.029.029,0,0,1,2816.76,1085.33Z" transform="translate(-2741.114 -1073.078)"/><path class="b" d="M2799.254,1083.833a.116.116,0,1,1,.117.116A.117.117,0,0,1,2799.254,1083.833Z" transform="translate(-2727.053 -1071.804)"/><path class="b" d="M2801.583,1083.877a.105.105,0,1,1,.105.106A.105.105,0,0,1,2801.583,1083.877Z" transform="translate(-2728.924 -1071.849)"/><path class="b" d="M2803.913,1083.922a.095.095,0,1,1,.094.094A.095.095,0,0,1,2803.913,1083.922Z" transform="translate(-2730.795 -1071.893)"/><path class="b" d="M2806.243,1083.967a.084.084,0,1,1,.084.084A.084.084,0,0,1,2806.243,1083.967Z" transform="translate(-2732.667 -1071.938)"/><path class="b" d="M2808.571,1084.012a.073.073,0,1,1,.073.073A.073.073,0,0,1,2808.571,1084.012Z" transform="translate(-2734.537 -1071.983)"/><path class="b" d="M2810.9,1084.056a.062.062,0,1,1,.062.062A.062.062,0,0,1,2810.9,1084.056Z" transform="translate(-2736.411 -1072.027)"/><path class="b" d="M2813.233,1084.1a.051.051,0,1,1,.051.051A.051.051,0,0,1,2813.233,1084.1Z" transform="translate(-2738.281 -1072.072)"/><path class="b" d="M2815.563,1084.145a.04.04,0,0,1,.04-.04.04.04,0,1,1-.04.04Z" transform="translate(-2740.153 -1072.116)"/><path class="b" d="M2817.892,1084.19a.029.029,0,1,1,.03.029A.029.029,0,0,1,2817.892,1084.19Z" transform="translate(-2742.023 -1072.161)"/><path class="b" d="M2820.245,1059.314a.014.014,0,0,1,.013-.014.014.014,0,0,1,.014.014.014.014,0,0,1-.014.014A.014.014,0,0,1,2820.245,1059.314Z" transform="translate(-2743.913 -1052.192)"/><path class="b" d="M2820.245,1061.581a.014.014,0,1,1,.013.014A.014.014,0,0,1,2820.245,1061.581Z" transform="translate(-2743.913 -1054.013)"/><path class="b" d="M2820.245,1063.848a.014.014,0,0,1,.013-.014.014.014,0,1,1,0,.028A.014.014,0,0,1,2820.245,1063.848Z" transform="translate(-2743.913 -1055.834)"/><path class="b" d="M2820.245,1066.115a.014.014,0,0,1,.013-.014.014.014,0,0,1,.014.014.014.014,0,0,1-.014.014A.014.014,0,0,1,2820.245,1066.115Z" transform="translate(-2743.913 -1057.655)"/><path class="b" d="M2820.245,1068.382a.014.014,0,0,1,.013-.014.014.014,0,0,1,.014.014.014.014,0,0,1-.014.014A.014.014,0,0,1,2820.245,1068.382Z" transform="translate(-2743.913 -1059.476)"/><path class="b" d="M2820.245,1070.649a.014.014,0,0,1,.013-.014.014.014,0,1,1-.013.014Z" transform="translate(-2743.913 -1061.297)"/><path class="b" d="M2820.245,1072.916a.014.014,0,0,1,.013-.014.014.014,0,1,1-.013.014Z" transform="translate(-2743.913 -1063.118)"/><path class="b" d="M2820.245,1075.184a.014.014,0,0,1,.013-.014.014.014,0,0,1,.014.014.014.014,0,0,1-.014.014A.014.014,0,0,1,2820.245,1075.184Z" transform="translate(-2743.913 -1064.94)"/><path class="b" d="M2820.245,1077.451a.014.014,0,0,1,.013-.014.014.014,0,0,1,.014.014.014.014,0,0,1-.014.014A.014.014,0,0,1,2820.245,1077.451Z" transform="translate(-2743.913 -1066.76)"/><path class="b" d="M2820.245,1079.718a.014.014,0,0,1,.013-.014.014.014,0,1,1,0,.028A.014.014,0,0,1,2820.245,1079.718Z" transform="translate(-2743.913 -1068.581)"/><path class="b" d="M2820.245,1081.985a.014.014,0,0,1,.013-.014.014.014,0,1,1,0,.028A.014.014,0,0,1,2820.245,1081.985Z" transform="translate(-2743.913 -1070.402)"/><path class="b" d="M2795.906,1087.173a.117.117,0,1,1-.116.117A.117.117,0,0,1,2795.906,1087.173Z" transform="translate(-2724.271 -1074.581)"/><path class="b" d="M2795.952,1089.505a.105.105,0,1,1-.105.105A.106.106,0,0,1,2795.952,1089.505Z" transform="translate(-2724.316 -1076.454)"/><path class="b" d="M2796,1091.835a.094.094,0,1,1-.095.095A.094.094,0,0,1,2796,1091.835Z" transform="translate(-2724.36 -1078.325)"/><path class="b" d="M2796.042,1094.167a.083.083,0,1,1-.083.083A.083.083,0,0,1,2796.042,1094.167Z" transform="translate(-2724.406 -1080.199)"/><path class="b" d="M2796.087,1096.5a.073.073,0,1,1-.072.072A.073.073,0,0,1,2796.087,1096.5Z" transform="translate(-2724.451 -1082.071)"/><path class="b" d="M2796.131,1098.828a.062.062,0,0,1,0,.123.062.062,0,0,1,0-.123Z" transform="translate(-2724.495 -1083.943)"/><path class="b" d="M2796.176,1101.159a.051.051,0,1,1-.05.051A.051.051,0,0,1,2796.176,1101.159Z" transform="translate(-2724.541 -1085.815)"/><path class="b" d="M2796.22,1103.49a.04.04,0,1,1-.04.04A.039.039,0,0,1,2796.22,1103.49Z" transform="translate(-2724.585 -1087.687)"/><path class="b" d="M2796.266,1105.821a.029.029,0,1,1-.028.029A.028.028,0,0,1,2796.266,1105.821Z" transform="translate(-2724.63 -1089.559)"/><path class="b" d="M2793.638,1087.173a.117.117,0,1,1-.116.117A.116.116,0,0,1,2793.638,1087.173Z" transform="translate(-2722.448 -1074.581)"/><path class="b" d="M2793.685,1089.505a.105.105,0,1,1-.106.105A.105.105,0,0,1,2793.685,1089.505Z" transform="translate(-2722.495 -1076.454)"/><path class="b" d="M2793.731,1091.835a.094.094,0,1,1-.094.095A.094.094,0,0,1,2793.731,1091.835Z" transform="translate(-2722.541 -1078.325)"/><path class="b" d="M2793.774,1094.167a.083.083,0,1,1,0,.167.083.083,0,1,1,0-.167Z" transform="translate(-2722.583 -1080.199)"/><path class="b" d="M2793.82,1096.5a.073.073,0,0,1,0,.145.073.073,0,1,1,0-.145Z" transform="translate(-2722.629 -1082.071)"/><path class="b" d="M2793.865,1098.828a.062.062,0,1,1-.061.061A.061.061,0,0,1,2793.865,1098.828Z" transform="translate(-2722.676 -1083.943)"/><path class="b" d="M2793.909,1101.159a.051.051,0,1,1-.05.051A.05.05,0,0,1,2793.909,1101.159Z" transform="translate(-2722.72 -1085.815)"/><path class="b" d="M2793.955,1103.49a.04.04,0,1,1-.04.04A.039.039,0,0,1,2793.955,1103.49Z" transform="translate(-2722.764 -1087.687)"/><path class="b" d="M2794,1105.821a.029.029,0,1,1-.029.029A.029.029,0,0,1,2794,1105.821Z" transform="translate(-2722.808 -1089.559)"/><path class="b" d="M2794.045,1108.152a.017.017,0,0,1,.017.018.017.017,0,0,1-.017.017.017.017,0,0,1-.018-.017A.018.018,0,0,1,2794.045,1108.152Z" transform="translate(-2722.854 -1091.432)"/><path class="b" d="M2794.777,1088.311a.117.117,0,1,1-.116.117A.117.117,0,0,1,2794.777,1088.311Z" transform="translate(-2723.363 -1075.495)"/><path class="b" d="M2794.823,1090.641a.106.106,0,1,1-.1.106A.106.106,0,0,1,2794.823,1090.641Z" transform="translate(-2723.409 -1077.366)"/><path class="b" d="M2794.866,1092.972a.095.095,0,1,1-.094.095A.095.095,0,0,1,2794.866,1092.972Z" transform="translate(-2723.453 -1079.239)"/><path class="b" d="M2794.912,1095.3a.084.084,0,1,1-.083.084A.083.083,0,0,1,2794.912,1095.3Z" transform="translate(-2723.499 -1081.11)"/><path class="b" d="M2794.956,1097.632a.073.073,0,1,1-.073.073A.073.073,0,0,1,2794.956,1097.632Z" transform="translate(-2723.542 -1082.982)"/><path class="b" d="M2795,1099.962a.062.062,0,1,1-.061.062A.062.062,0,0,1,2795,1099.962Z" transform="translate(-2723.589 -1084.853)"/><path class="b" d="M2795.045,1102.293a.051.051,0,1,1-.051.051A.051.051,0,0,1,2795.045,1102.293Z" transform="translate(-2723.631 -1086.725)"/><path class="b" d="M2795.089,1104.623a.04.04,0,0,1,0,.08.04.04,0,1,1,0-.08Z" transform="translate(-2723.675 -1088.597)"/><path class="b" d="M2795.135,1106.952a.029.029,0,1,1-.029.029A.029.029,0,0,1,2795.135,1106.952Z" transform="translate(-2723.721 -1090.468)"/><path class="b" d="M2791.373,1087.173a.117.117,0,1,1-.117.117A.116.116,0,0,1,2791.373,1087.173Z" transform="translate(-2720.629 -1074.581)"/><path class="b" d="M2791.417,1089.505a.105.105,0,1,1-.106.105A.105.105,0,0,1,2791.417,1089.505Z" transform="translate(-2720.673 -1076.454)"/><path class="b" d="M2791.462,1091.835a.094.094,0,1,1-.094.095A.095.095,0,0,1,2791.462,1091.835Z" transform="translate(-2720.718 -1078.325)"/><path class="b" d="M2791.508,1094.167a.083.083,0,1,1-.083.083A.083.083,0,0,1,2791.508,1094.167Z" transform="translate(-2720.764 -1080.199)"/><path class="b" d="M2791.552,1096.5a.073.073,0,1,1-.073.072A.072.072,0,0,1,2791.552,1096.5Z" transform="translate(-2720.807 -1082.071)"/><path class="b" d="M2791.6,1098.828a.062.062,0,1,1-.061.061A.061.061,0,0,1,2791.6,1098.828Z" transform="translate(-2720.854 -1083.943)"/><path class="b" d="M2791.643,1101.159a.051.051,0,1,1-.05.051A.051.051,0,0,1,2791.643,1101.159Z" transform="translate(-2720.899 -1085.815)"/><circle class="b" cx="0.04" cy="0.04" r="0.04" transform="translate(70.704 15.803)"/><path class="b" d="M2791.733,1105.821a.029.029,0,1,1,0,.057.029.029,0,1,1,0-.057Z" transform="translate(-2720.988 -1089.559)"/><path class="b" d="M2791.775,1108.152a.018.018,0,0,1,.018.018.018.018,0,0,1-.035,0A.018.018,0,0,1,2791.775,1108.152Z" transform="translate(-2721.032 -1091.432)"/><path class="b" d="M2792.512,1088.311a.117.117,0,1,1-.116.117A.117.117,0,0,1,2792.512,1088.311Z" transform="translate(-2721.544 -1075.495)"/><path class="b" d="M2792.555,1090.641a.106.106,0,1,1-.106.106A.106.106,0,0,1,2792.555,1090.641Z" transform="translate(-2721.586 -1077.366)"/><path class="b" d="M2792.6,1092.972a.095.095,0,1,1-.094.095A.095.095,0,0,1,2792.6,1092.972Z" transform="translate(-2721.634 -1079.239)"/><path class="b" d="M2792.645,1095.3a.084.084,0,1,1-.084.084A.084.084,0,0,1,2792.645,1095.3Z" transform="translate(-2721.677 -1081.11)"/><path class="b" d="M2792.689,1097.632a.073.073,0,1,1-.073.073A.073.073,0,0,1,2792.689,1097.632Z" transform="translate(-2721.721 -1082.982)"/><path class="b" d="M2792.734,1099.962a.062.062,0,1,1,0,.124.062.062,0,0,1,0-.124Z" transform="translate(-2721.766 -1084.853)"/><path class="b" d="M2792.779,1102.293a.051.051,0,1,1-.052.051A.051.051,0,0,1,2792.779,1102.293Z" transform="translate(-2721.81 -1086.725)"/><path class="b" d="M2792.824,1104.623a.04.04,0,1,1-.04.04A.04.04,0,0,1,2792.824,1104.623Z" transform="translate(-2721.856 -1088.597)"/><path class="b" d="M2792.867,1106.952a.029.029,0,1,1,0,.058.029.029,0,0,1,0-.058Z" transform="translate(-2721.899 -1090.468)"/><path class="b" d="M2789.105,1087.173a.117.117,0,1,1-.116.117A.116.116,0,0,1,2789.105,1087.173Z" transform="translate(-2718.808 -1074.581)"/><path class="b" d="M2789.151,1089.505a.105.105,0,1,1-.106.105A.1.1,0,0,1,2789.151,1089.505Z" transform="translate(-2718.853 -1076.454)"/><path class="b" d="M2789.2,1091.835a.094.094,0,1,1-.094.095A.094.094,0,0,1,2789.2,1091.835Z" transform="translate(-2718.898 -1078.325)"/><path class="b" d="M2789.24,1094.167a.083.083,0,1,1-.083.083A.083.083,0,0,1,2789.24,1094.167Z" transform="translate(-2718.942 -1080.199)"/><path class="b" d="M2789.285,1096.5a.073.073,0,1,1-.072.072A.073.073,0,0,1,2789.285,1096.5Z" transform="translate(-2718.988 -1082.071)"/><path class="b" d="M2789.33,1098.828a.062.062,0,0,1,0,.123.062.062,0,0,1,0-.123Z" transform="translate(-2719.032 -1083.943)"/><path class="b" d="M2789.375,1101.159a.051.051,0,1,1-.051.051A.051.051,0,0,1,2789.375,1101.159Z" transform="translate(-2719.077 -1085.815)"/><path class="b" d="M2789.421,1103.49a.04.04,0,1,1-.04.04A.039.039,0,0,1,2789.421,1103.49Z" transform="translate(-2719.123 -1087.687)"/><path class="b" d="M2789.464,1105.821a.029.029,0,1,1-.028.029A.029.029,0,0,1,2789.464,1105.821Z" transform="translate(-2719.167 -1089.559)"/><path class="b" d="M2789.509,1108.152a.018.018,0,0,1,.018.018.017.017,0,0,1-.018.017.018.018,0,0,1-.018-.017A.018.018,0,0,1,2789.509,1108.152Z" transform="translate(-2719.211 -1091.432)"/><path class="b" d="M2790.244,1088.311a.117.117,0,1,1-.117.117A.117.117,0,0,1,2790.244,1088.311Z" transform="translate(-2719.722 -1075.495)"/><path class="b" d="M2790.287,1090.641a.106.106,0,1,1-.106.106A.106.106,0,0,1,2790.287,1090.641Z" transform="translate(-2719.766 -1077.366)"/><path class="b" d="M2790.333,1092.972a.095.095,0,1,1-.094.095A.094.094,0,0,1,2790.333,1092.972Z" transform="translate(-2719.812 -1079.239)"/><path class="b" d="M2790.377,1095.3a.084.084,0,1,1-.084.084A.083.083,0,0,1,2790.377,1095.3Z" transform="translate(-2719.855 -1081.11)"/><path class="b" d="M2790.423,1097.632a.073.073,0,1,1-.073.073A.073.073,0,0,1,2790.423,1097.632Z" transform="translate(-2719.901 -1082.982)"/><path class="b" d="M2790.467,1099.962a.062.062,0,1,1-.062.062A.062.062,0,0,1,2790.467,1099.962Z" transform="translate(-2719.945 -1084.853)"/><path class="b" d="M2790.511,1102.293a.051.051,0,1,1-.05.051A.051.051,0,0,1,2790.511,1102.293Z" transform="translate(-2719.99 -1086.725)"/><path class="b" d="M2790.556,1104.623a.04.04,0,1,1-.04.04A.04.04,0,0,1,2790.556,1104.623Z" transform="translate(-2720.035 -1088.597)"/><path class="b" d="M2790.6,1106.952a.029.029,0,1,1-.029.029A.029.029,0,0,1,2790.6,1106.952Z" transform="translate(-2720.079 -1090.468)"/><path class="b" d="M2786.839,1087.173a.117.117,0,1,1-.116.117A.117.117,0,0,1,2786.839,1087.173Z" transform="translate(-2716.988 -1074.581)"/><path class="b" d="M2786.884,1089.505a.105.105,0,1,1-.106.105A.105.105,0,0,1,2786.884,1089.505Z" transform="translate(-2717.032 -1076.454)"/><path class="b" d="M2786.929,1091.835a.094.094,0,1,1-.095.095A.095.095,0,0,1,2786.929,1091.835Z" transform="translate(-2717.077 -1078.325)"/><path class="b" d="M2786.975,1094.167a.083.083,0,1,1-.083.083A.083.083,0,0,1,2786.975,1094.167Z" transform="translate(-2717.123 -1080.199)"/><path class="b" d="M2787.019,1096.5a.073.073,0,1,1-.073.072A.073.073,0,0,1,2787.019,1096.5Z" transform="translate(-2717.167 -1082.071)"/><circle class="b" cx="0.062" cy="0.062" r="0.062" transform="translate(69.79 14.886)"/><path class="b" d="M2787.107,1101.159a.051.051,0,0,1,0,.1.051.051,0,0,1,0-.1Z" transform="translate(-2717.256 -1085.815)"/><circle class="b" cx="0.04" cy="0.04" r="0.04" transform="translate(69.812 15.803)"/><path class="b" d="M2787.2,1105.821a.029.029,0,1,1,0,.057.029.029,0,0,1,0-.057Z" transform="translate(-2717.346 -1089.559)"/><path class="b" d="M2787.243,1108.152a.018.018,0,0,1,.017.018.017.017,0,0,1-.017.017.018.018,0,0,1-.018-.017A.018.018,0,0,1,2787.243,1108.152Z" transform="translate(-2717.391 -1091.432)"/><path class="b" d="M2787.977,1088.311a.117.117,0,1,1-.117.117A.117.117,0,0,1,2787.977,1088.311Z" transform="translate(-2717.901 -1075.495)"/><path class="b" d="M2788.021,1090.641a.106.106,0,1,1-.105.106A.106.106,0,0,1,2788.021,1090.641Z" transform="translate(-2717.946 -1077.366)"/><path class="b" d="M2788.066,1092.972a.095.095,0,1,1-.095.095A.095.095,0,0,1,2788.066,1092.972Z" transform="translate(-2717.99 -1079.239)"/><path class="b" d="M2788.11,1095.3a.084.084,0,1,1-.083.084A.084.084,0,0,1,2788.11,1095.3Z" transform="translate(-2718.035 -1081.11)"/><path class="b" d="M2788.155,1097.632a.073.073,0,1,1-.073.073A.073.073,0,0,1,2788.155,1097.632Z" transform="translate(-2718.079 -1082.982)"/><path class="b" d="M2788.2,1099.962a.062.062,0,1,1-.062.062A.062.062,0,0,1,2788.2,1099.962Z" transform="translate(-2718.125 -1084.853)"/><path class="b" d="M2788.245,1102.293a.051.051,0,1,1-.051.051A.051.051,0,0,1,2788.245,1102.293Z" transform="translate(-2718.169 -1086.725)"/><path class="b" d="M2788.29,1104.623a.04.04,0,1,1-.04.04A.039.039,0,0,1,2788.29,1104.623Z" transform="translate(-2718.214 -1088.597)"/><path class="b" d="M2788.333,1106.952a.029.029,0,0,1,0,.058.029.029,0,1,1,0-.058Z" transform="translate(-2718.258 -1090.468)"/><path class="b" d="M2784.572,1087.173a.117.117,0,1,1-.117.117A.116.116,0,0,1,2784.572,1087.173Z" transform="translate(-2715.166 -1074.581)"/><path class="b" d="M2784.618,1089.505a.105.105,0,1,1-.106.105A.106.106,0,0,1,2784.618,1089.505Z" transform="translate(-2715.212 -1076.454)"/><path class="b" d="M2784.661,1091.835a.094.094,0,1,1-.094.095A.095.095,0,0,1,2784.661,1091.835Z" transform="translate(-2715.255 -1078.325)"/><path class="b" d="M2784.706,1094.167a.083.083,0,1,1-.083.083A.084.084,0,0,1,2784.706,1094.167Z" transform="translate(-2715.301 -1080.199)"/><path class="b" d="M2784.752,1096.5a.073.073,0,1,1-.072.072A.072.072,0,0,1,2784.752,1096.5Z" transform="translate(-2715.347 -1082.071)"/><path class="b" d="M2784.8,1098.828a.062.062,0,1,1-.061.061A.061.061,0,0,1,2784.8,1098.828Z" transform="translate(-2715.391 -1083.943)"/><path class="b" d="M2784.841,1101.159a.051.051,0,1,1,0,.1.051.051,0,0,1,0-.1Z" transform="translate(-2715.436 -1085.815)"/><path class="b" d="M2784.885,1103.49a.04.04,0,1,1-.039.04A.04.04,0,0,1,2784.885,1103.49Z" transform="translate(-2715.48 -1087.687)"/><path class="b" d="M2784.932,1105.821a.029.029,0,1,1-.029.029A.029.029,0,0,1,2784.932,1105.821Z" transform="translate(-2715.526 -1089.559)"/><path class="b" d="M2784.976,1108.152a.018.018,0,0,1,.017.018.017.017,0,1,1-.034,0A.018.018,0,0,1,2784.976,1108.152Z" transform="translate(-2715.571 -1091.432)"/><path class="b" d="M2785.71,1088.311a.117.117,0,1,1-.117.117A.117.117,0,0,1,2785.71,1088.311Z" transform="translate(-2716.081 -1075.495)"/><path class="b" d="M2785.754,1090.641a.106.106,0,1,1-.106.106A.106.106,0,0,1,2785.754,1090.641Z" transform="translate(-2716.124 -1077.366)"/><path class="b" d="M2785.8,1092.972a.095.095,0,1,1-.094.095A.095.095,0,0,1,2785.8,1092.972Z" transform="translate(-2716.17 -1079.239)"/><path class="b" d="M2785.844,1095.3a.084.084,0,1,1-.084.084A.084.084,0,0,1,2785.844,1095.3Z" transform="translate(-2716.214 -1081.11)"/><path class="b" d="M2785.889,1097.632a.073.073,0,1,1-.073.073A.073.073,0,0,1,2785.889,1097.632Z" transform="translate(-2716.259 -1082.982)"/><path class="b" d="M2785.932,1099.962a.062.062,0,1,1-.062.062A.062.062,0,0,1,2785.932,1099.962Z" transform="translate(-2716.302 -1084.853)"/><path class="b" d="M2785.979,1102.293a.051.051,0,1,1,0,.1.051.051,0,0,1,0-.1Z" transform="translate(-2716.349 -1086.725)"/><path class="b" d="M2786.022,1104.623a.04.04,0,1,1-.041.04A.04.04,0,0,1,2786.022,1104.623Z" transform="translate(-2716.392 -1088.597)"/><path class="b" d="M2786.068,1106.952a.029.029,0,1,1,0,.058.029.029,0,0,1,0-.058Z" transform="translate(-2716.438 -1090.468)"/><path class="b" d="M2782.306,1087.173a.117.117,0,1,1-.116.117A.116.116,0,0,1,2782.306,1087.173Z" transform="translate(-2713.346 -1074.581)"/><path class="b" d="M2782.349,1089.505a.105.105,0,1,1-.106.105A.106.106,0,0,1,2782.349,1089.505Z" transform="translate(-2713.389 -1076.454)"/><path class="b" d="M2782.4,1091.835a.094.094,0,1,1-.094.095A.094.094,0,0,1,2782.4,1091.835Z" transform="translate(-2713.436 -1078.325)"/><path class="b" d="M2782.439,1094.167a.083.083,0,0,1,0,.167.083.083,0,1,1,0-.167Z" transform="translate(-2713.479 -1080.199)"/><path class="b" d="M2782.485,1096.5a.073.073,0,1,1-.073.072A.072.072,0,0,1,2782.485,1096.5Z" transform="translate(-2713.525 -1082.071)"/><path class="b" d="M2782.531,1098.828a.062.062,0,0,1,0,.123.062.062,0,1,1,0-.123Z" transform="translate(-2713.571 -1083.943)"/><path class="b" d="M2782.574,1101.159a.051.051,0,1,1-.051.051A.051.051,0,0,1,2782.574,1101.159Z" transform="translate(-2713.615 -1085.815)"/><path class="b" d="M2782.62,1103.49a.04.04,0,0,1,0,.079.04.04,0,0,1,0-.079Z" transform="translate(-2713.66 -1087.687)"/><path class="b" d="M2782.664,1105.821a.029.029,0,1,1,0,.057.029.029,0,1,1,0-.057Z" transform="translate(-2713.704 -1089.559)"/><path class="b" d="M2782.709,1108.152a.018.018,0,0,1,.018.018.018.018,0,0,1-.018.017.017.017,0,0,1-.017-.017A.017.017,0,0,1,2782.709,1108.152Z" transform="translate(-2713.75 -1091.432)"/><path class="b" d="M2783.442,1088.311a.117.117,0,1,1-.117.117A.117.117,0,0,1,2783.442,1088.311Z" transform="translate(-2714.258 -1075.495)"/><path class="b" d="M2783.489,1090.641a.106.106,0,1,1-.106.106A.106.106,0,0,1,2783.489,1090.641Z" transform="translate(-2714.305 -1077.366)"/><path class="b" d="M2783.532,1092.972a.095.095,0,1,1-.095.095A.095.095,0,0,1,2783.532,1092.972Z" transform="translate(-2714.348 -1079.239)"/><path class="b" d="M2783.578,1095.3a.084.084,0,1,1-.084.084A.083.083,0,0,1,2783.578,1095.3Z" transform="translate(-2714.394 -1081.11)"/><path class="b" d="M2783.621,1097.632a.073.073,0,1,1-.073.073A.073.073,0,0,1,2783.621,1097.632Z" transform="translate(-2714.438 -1082.982)"/><path class="b" d="M2783.667,1099.962a.062.062,0,1,1-.062.062A.062.062,0,0,1,2783.667,1099.962Z" transform="translate(-2714.483 -1084.853)"/><path class="b" d="M2783.71,1102.293a.051.051,0,1,1-.052.051A.051.051,0,0,1,2783.71,1102.293Z" transform="translate(-2714.526 -1086.725)"/><path class="b" d="M2783.757,1104.623a.04.04,0,1,1-.04.04A.04.04,0,0,1,2783.757,1104.623Z" transform="translate(-2714.573 -1088.597)"/><path class="b" d="M2783.8,1106.952a.029.029,0,1,1-.029.029A.029.029,0,0,1,2783.8,1106.952Z" transform="translate(-2714.616 -1090.468)"/><path class="b" d="M2780.037,1087.173a.117.117,0,1,1-.116.117A.116.116,0,0,1,2780.037,1087.173Z" transform="translate(-2711.524 -1074.581)"/><path class="b" d="M2780.084,1089.505a.105.105,0,1,1-.1.105A.106.106,0,0,1,2780.084,1089.505Z" transform="translate(-2711.571 -1076.454)"/><path class="b" d="M2780.126,1091.835a.094.094,0,1,1-.094.095A.095.095,0,0,1,2780.126,1091.835Z" transform="translate(-2711.613 -1078.325)"/><path class="b" d="M2780.172,1094.167a.083.083,0,1,1-.083.083A.083.083,0,0,1,2780.172,1094.167Z" transform="translate(-2711.659 -1080.199)"/><path class="b" d="M2780.217,1096.5a.073.073,0,1,1-.073.072A.073.073,0,0,1,2780.217,1096.5Z" transform="translate(-2711.703 -1082.071)"/><circle class="b" cx="0.062" cy="0.062" r="0.062" transform="translate(68.452 14.886)"/><path class="b" d="M2780.308,1101.159a.051.051,0,1,1-.05.051A.05.05,0,0,1,2780.308,1101.159Z" transform="translate(-2711.795 -1085.815)"/><path class="b" d="M2780.352,1103.49a.04.04,0,1,1-.04.04A.04.04,0,0,1,2780.352,1103.49Z" transform="translate(-2711.838 -1087.687)"/><path class="b" d="M2780.4,1105.821a.029.029,0,1,1,0,.057.029.029,0,0,1,0-.057Z" transform="translate(-2711.884 -1089.559)"/><path class="b" d="M2780.443,1108.152a.018.018,0,0,1,.018.018.017.017,0,0,1-.018.017.017.017,0,0,1-.017-.017A.017.017,0,0,1,2780.443,1108.152Z" transform="translate(-2711.93 -1091.432)"/><path class="b" d="M2781.176,1088.311a.117.117,0,1,1-.116.117A.117.117,0,0,1,2781.176,1088.311Z" transform="translate(-2712.439 -1075.495)"/><path class="b" d="M2781.219,1090.641a.106.106,0,1,1-.105.106A.106.106,0,0,1,2781.219,1090.641Z" transform="translate(-2712.482 -1077.366)"/><path class="b" d="M2781.266,1092.972a.095.095,0,1,1-.094.095A.094.094,0,0,1,2781.266,1092.972Z" transform="translate(-2712.529 -1079.239)"/><path class="b" d="M2781.31,1095.3a.084.084,0,1,1-.083.084A.084.084,0,0,1,2781.31,1095.3Z" transform="translate(-2712.573 -1081.11)"/><path class="b" d="M2781.353,1097.632a.073.073,0,1,1-.073.073A.073.073,0,0,1,2781.353,1097.632Z" transform="translate(-2712.616 -1082.982)"/><path class="b" d="M2781.4,1099.962a.062.062,0,1,1,0,.124.062.062,0,0,1,0-.124Z" transform="translate(-2712.661 -1084.853)"/><path class="b" d="M2781.443,1102.293a.051.051,0,1,1-.051.051A.051.051,0,0,1,2781.443,1102.293Z" transform="translate(-2712.706 -1086.725)"/><path class="b" d="M2781.488,1104.623a.04.04,0,1,1-.04.04A.04.04,0,0,1,2781.488,1104.623Z" transform="translate(-2712.75 -1088.597)"/><path class="b" d="M2781.532,1106.952a.029.029,0,1,1-.029.029A.029.029,0,0,1,2781.532,1106.952Z" transform="translate(-2712.795 -1090.468)"/><path class="b" d="M2777.77,1087.173a.117.117,0,1,1-.117.117A.116.116,0,0,1,2777.77,1087.173Z" transform="translate(-2709.702 -1074.581)"/><path class="b" d="M2777.815,1089.505a.105.105,0,1,1-.105.105A.105.105,0,0,1,2777.815,1089.505Z" transform="translate(-2709.748 -1076.454)"/><path class="b" d="M2777.862,1091.835a.094.094,0,1,1-.094.095A.095.095,0,0,1,2777.862,1091.835Z" transform="translate(-2709.795 -1078.325)"/><path class="b" d="M2777.9,1094.167a.083.083,0,1,1-.083.083A.083.083,0,0,1,2777.9,1094.167Z" transform="translate(-2709.837 -1080.199)"/><path class="b" d="M2777.95,1096.5a.073.073,0,1,1-.072.072A.072.072,0,0,1,2777.95,1096.5Z" transform="translate(-2709.883 -1082.071)"/><path class="b" d="M2777.994,1098.828a.062.062,0,1,1,0,.123.062.062,0,0,1,0-.123Z" transform="translate(-2709.927 -1083.943)"/><path class="b" d="M2778.04,1101.159a.051.051,0,1,1-.051.051A.051.051,0,0,1,2778.04,1101.159Z" transform="translate(-2709.972 -1085.815)"/><path class="b" d="M2778.084,1103.49a.04.04,0,1,1-.039.04A.039.039,0,0,1,2778.084,1103.49Z" transform="translate(-2710.018 -1087.687)"/><path class="b" d="M2778.129,1105.821a.029.029,0,1,1,0,.057.029.029,0,0,1,0-.057Z" transform="translate(-2710.062 -1089.559)"/><path class="b" d="M2778.174,1108.152a.018.018,0,0,1,.018.018.017.017,0,0,1-.035,0A.018.018,0,0,1,2778.174,1108.152Z" transform="translate(-2710.107 -1091.432)"/><path class="b" d="M2778.909,1088.311a.117.117,0,1,1-.116.117A.117.117,0,0,1,2778.909,1088.311Z" transform="translate(-2710.617 -1075.495)"/><path class="b" d="M2778.955,1090.641a.106.106,0,1,1-.105.106A.105.105,0,0,1,2778.955,1090.641Z" transform="translate(-2710.663 -1077.366)"/><path class="b" d="M2779,1092.972a.095.095,0,1,1-.094.095A.1.1,0,0,1,2779,1092.972Z" transform="translate(-2710.706 -1079.239)"/><path class="b" d="M2779.044,1095.3a.084.084,0,1,1-.083.084A.083.083,0,0,1,2779.044,1095.3Z" transform="translate(-2710.753 -1081.11)"/><path class="b" d="M2779.088,1097.632a.073.073,0,1,1-.073.073A.073.073,0,0,1,2779.088,1097.632Z" transform="translate(-2710.796 -1082.982)"/><path class="b" d="M2779.131,1099.962a.062.062,0,1,1-.062.062A.062.062,0,0,1,2779.131,1099.962Z" transform="translate(-2710.84 -1084.853)"/><path class="b" d="M2779.177,1102.293a.051.051,0,1,1,0,.1.051.051,0,0,1,0-.1Z" transform="translate(-2710.885 -1086.725)"/><path class="b" d="M2779.221,1104.623a.04.04,0,1,1-.04.04A.04.04,0,0,1,2779.221,1104.623Z" transform="translate(-2710.929 -1088.597)"/><path class="b" d="M2779.266,1106.952a.029.029,0,1,1-.029.029A.029.029,0,0,1,2779.266,1106.952Z" transform="translate(-2710.975 -1090.468)"/><path class="b" d="M2775.5,1087.173a.117.117,0,1,1-.117.117A.117.117,0,0,1,2775.5,1087.173Z" transform="translate(-2707.883 -1074.581)"/><path class="b" d="M2775.547,1089.505a.105.105,0,1,1-.105.105A.105.105,0,0,1,2775.547,1089.505Z" transform="translate(-2707.926 -1076.454)"/><path class="b" d="M2775.594,1091.835a.094.094,0,1,1-.094.095A.094.094,0,0,1,2775.594,1091.835Z" transform="translate(-2707.972 -1078.325)"/><path class="b" d="M2775.639,1094.167a.083.083,0,1,1-.083.083A.083.083,0,0,1,2775.639,1094.167Z" transform="translate(-2708.018 -1080.199)"/><path class="b" d="M2775.683,1096.5a.073.073,0,1,1-.073.072A.073.073,0,0,1,2775.683,1096.5Z" transform="translate(-2708.062 -1082.071)"/><path class="b" d="M2775.729,1098.828a.062.062,0,0,1,0,.123.062.062,0,0,1,0-.123Z" transform="translate(-2708.107 -1083.943)"/><path class="b" d="M2775.773,1101.159a.051.051,0,1,1-.051.051A.05.05,0,0,1,2775.773,1101.159Z" transform="translate(-2708.151 -1085.815)"/><path class="b" d="M2775.818,1103.49a.04.04,0,1,1-.04.04A.039.039,0,0,1,2775.818,1103.49Z" transform="translate(-2708.196 -1087.687)"/><path class="b" d="M2775.864,1105.821a.029.029,0,1,1-.029.029A.028.028,0,0,1,2775.864,1105.821Z" transform="translate(-2708.242 -1089.559)"/><path class="b" d="M2775.908,1108.152a.017.017,0,0,1,.017.018.017.017,0,0,1-.017.017.017.017,0,0,1-.018-.017A.018.018,0,0,1,2775.908,1108.152Z" transform="translate(-2708.286 -1091.432)"/><path class="b" d="M2776.642,1088.311a.117.117,0,1,1-.116.117A.116.116,0,0,1,2776.642,1088.311Z" transform="translate(-2708.797 -1075.495)"/><path class="b" d="M2776.687,1090.641a.106.106,0,1,1-.106.106A.106.106,0,0,1,2776.687,1090.641Z" transform="translate(-2708.842 -1077.366)"/><path class="b" d="M2776.731,1092.972a.095.095,0,1,1-.095.095A.095.095,0,0,1,2776.731,1092.972Z" transform="translate(-2708.885 -1079.239)"/><path class="b" d="M2776.776,1095.3a.084.084,0,1,1-.084.084A.084.084,0,0,1,2776.776,1095.3Z" transform="translate(-2708.93 -1081.11)"/><path class="b" d="M2776.82,1097.632a.073.073,0,1,1-.074.073A.073.073,0,0,1,2776.82,1097.632Z" transform="translate(-2708.974 -1082.982)"/><path class="b" d="M2776.865,1099.962a.062.062,0,1,1-.062.062A.062.062,0,0,1,2776.865,1099.962Z" transform="translate(-2709.019 -1084.853)"/><path class="b" d="M2776.909,1102.293a.051.051,0,1,1-.051.051A.051.051,0,0,1,2776.909,1102.293Z" transform="translate(-2709.063 -1086.725)"/><path class="b" d="M2776.955,1104.623a.04.04,0,0,1,0,.08.04.04,0,1,1,0-.08Z" transform="translate(-2709.11 -1088.597)"/><path class="b" d="M2777,1106.952a.029.029,0,1,1,0,.058.029.029,0,0,1,0-.058Z" transform="translate(-2709.154 -1090.468)"/><path class="b" d="M2773.236,1087.173a.117.117,0,1,1-.116.117A.117.117,0,0,1,2773.236,1087.173Z" transform="translate(-2706.061 -1074.581)"/><path class="b" d="M2773.282,1089.505a.105.105,0,1,1-.1.105A.105.105,0,0,1,2773.282,1089.505Z" transform="translate(-2706.107 -1076.454)"/><path class="b" d="M2773.325,1091.835a.094.094,0,1,1-.094.095A.094.094,0,0,1,2773.325,1091.835Z" transform="translate(-2706.15 -1078.325)"/><path class="b" d="M2773.371,1094.167a.083.083,0,1,1-.083.083A.083.083,0,0,1,2773.371,1094.167Z" transform="translate(-2706.196 -1080.199)"/><path class="b" d="M2773.417,1096.5a.073.073,0,1,1-.072.072A.072.072,0,0,1,2773.417,1096.5Z" transform="translate(-2706.242 -1082.071)"/><path class="b" d="M2773.461,1098.828a.062.062,0,1,1,0,.123.062.062,0,0,1,0-.123Z" transform="translate(-2706.287 -1083.943)"/><path class="b" d="M2773.506,1101.159a.051.051,0,1,1-.05.051A.051.051,0,0,1,2773.506,1101.159Z" transform="translate(-2706.331 -1085.815)"/><path class="b" d="M2773.552,1103.49a.04.04,0,1,1-.039.04A.04.04,0,0,1,2773.552,1103.49Z" transform="translate(-2706.377 -1087.687)"/><path class="b" d="M2773.595,1105.821a.029.029,0,1,1,0,.057.029.029,0,0,1,0-.057Z" transform="translate(-2706.42 -1089.559)"/><path class="b" d="M2773.641,1108.152a.018.018,0,0,1,.018.018.018.018,0,0,1-.035,0A.018.018,0,0,1,2773.641,1108.152Z" transform="translate(-2706.466 -1091.432)"/><path class="b" d="M2774.374,1088.311a.117.117,0,1,1-.116.117A.117.117,0,0,1,2774.374,1088.311Z" transform="translate(-2706.975 -1075.495)"/><path class="b" d="M2774.42,1090.641a.106.106,0,1,1,0,.211.106.106,0,0,1,0-.211Z" transform="translate(-2707.021 -1077.366)"/><path class="b" d="M2774.464,1092.972a.095.095,0,1,1-.094.095A.1.1,0,0,1,2774.464,1092.972Z" transform="translate(-2707.065 -1079.239)"/><path class="b" d="M2774.509,1095.3a.084.084,0,1,1-.084.084A.083.083,0,0,1,2774.509,1095.3Z" transform="translate(-2707.109 -1081.11)"/><path class="b" d="M2774.553,1097.632a.073.073,0,1,1-.072.073A.073.073,0,0,1,2774.553,1097.632Z" transform="translate(-2707.154 -1082.982)"/><path class="b" d="M2774.6,1099.962a.062.062,0,1,1-.062.062A.062.062,0,0,1,2774.6,1099.962Z" transform="translate(-2707.198 -1084.853)"/><path class="b" d="M2774.643,1102.293a.051.051,0,1,1,0,.1.051.051,0,0,1,0-.1Z" transform="translate(-2707.245 -1086.725)"/><path class="b" d="M2774.686,1104.623a.04.04,0,1,1-.04.04A.04.04,0,0,1,2774.686,1104.623Z" transform="translate(-2707.287 -1088.597)"/><path class="b" d="M2774.733,1106.952a.029.029,0,1,1,0,.058.029.029,0,0,1,0-.058Z" transform="translate(-2707.333 -1090.468)"/><path class="b" d="M2770.971,1087.173a.117.117,0,1,1-.117.117A.116.116,0,0,1,2770.971,1087.173Z" transform="translate(-2704.241 -1074.581)"/><path class="b" d="M2771.014,1089.505a.105.105,0,1,1-.105.105A.105.105,0,0,1,2771.014,1089.505Z" transform="translate(-2704.286 -1076.454)"/><path class="b" d="M2771.061,1091.835a.094.094,0,1,1-.094.095A.095.095,0,0,1,2771.061,1091.835Z" transform="translate(-2704.332 -1078.325)"/><path class="b" d="M2771.1,1094.167a.083.083,0,1,1-.083.083A.083.083,0,0,1,2771.1,1094.167Z" transform="translate(-2704.375 -1080.199)"/><path class="b" d="M2771.149,1096.5a.073.073,0,1,1-.073.072A.072.072,0,0,1,2771.149,1096.5Z" transform="translate(-2704.42 -1082.071)"/><circle class="b" cx="0.062" cy="0.062" r="0.062" transform="translate(66.668 14.886)"/><path class="b" d="M2771.239,1101.159a.051.051,0,1,1-.051.051A.05.05,0,0,1,2771.239,1101.159Z" transform="translate(-2704.509 -1085.815)"/><circle class="b" cx="0.04" cy="0.04" r="0.04" transform="translate(66.69 15.803)"/><path class="b" d="M2771.33,1105.821a.029.029,0,1,1-.029.029A.029.029,0,0,1,2771.33,1105.821Z" transform="translate(-2704.6 -1089.559)"/><path class="b" d="M2771.374,1108.152a.017.017,0,0,1,.017.018.017.017,0,0,1-.017.017.018.018,0,0,1-.018-.017A.018.018,0,0,1,2771.374,1108.152Z" transform="translate(-2704.644 -1091.432)"/><path class="b" d="M2772.108,1088.311a.117.117,0,1,1-.117.117A.117.117,0,0,1,2772.108,1088.311Z" transform="translate(-2705.155 -1075.495)"/><path class="b" d="M2772.153,1090.641a.106.106,0,1,1-.105.106A.105.105,0,0,1,2772.153,1090.641Z" transform="translate(-2705.199 -1077.366)"/><path class="b" d="M2772.2,1092.972a.095.095,0,1,1-.095.095A.094.094,0,0,1,2772.2,1092.972Z" transform="translate(-2705.244 -1079.239)"/><path class="b" d="M2772.243,1095.3a.084.084,0,1,1-.083.084A.083.083,0,0,1,2772.243,1095.3Z" transform="translate(-2705.29 -1081.11)"/><path class="b" d="M2772.287,1097.632a.073.073,0,1,1-.073.073A.073.073,0,0,1,2772.287,1097.632Z" transform="translate(-2705.334 -1082.982)"/><path class="b" d="M2772.332,1099.962a.062.062,0,1,1-.062.062A.062.062,0,0,1,2772.332,1099.962Z" transform="translate(-2705.378 -1084.853)"/><path class="b" d="M2772.376,1102.293a.051.051,0,1,1-.051.051A.051.051,0,0,1,2772.376,1102.293Z" transform="translate(-2705.422 -1086.725)"/><path class="b" d="M2772.421,1104.623a.04.04,0,1,1,0,.08.04.04,0,1,1,0-.08Z" transform="translate(-2705.468 -1088.597)"/><path class="b" d="M2772.465,1106.952a.029.029,0,0,1,0,.058.029.029,0,1,1,0-.058Z" transform="translate(-2705.512 -1090.468)"/><path class="b" d="M2768.7,1087.173a.117.117,0,1,1-.117.117A.117.117,0,0,1,2768.7,1087.173Z" transform="translate(-2702.419 -1074.581)"/><path class="b" d="M2768.748,1089.505a.105.105,0,1,1,0,.211.105.105,0,0,1,0-.211Z" transform="translate(-2702.466 -1076.454)"/><path class="b" d="M2768.792,1091.835a.094.094,0,1,1-.1.095A.094.094,0,0,1,2768.792,1091.835Z" transform="translate(-2702.509 -1078.325)"/><path class="b" d="M2768.838,1094.167a.083.083,0,1,1-.083.083A.084.084,0,0,1,2768.838,1094.167Z" transform="translate(-2702.555 -1080.199)"/><path class="b" d="M2768.88,1096.5a.073.073,0,1,1-.072.072A.072.072,0,0,1,2768.88,1096.5Z" transform="translate(-2702.598 -1082.071)"/><path class="b" d="M2768.927,1098.828a.062.062,0,1,1-.062.061A.061.061,0,0,1,2768.927,1098.828Z" transform="translate(-2702.644 -1083.943)"/><path class="b" d="M2768.973,1101.159a.051.051,0,1,1,0,.1.051.051,0,0,1,0-.1Z" transform="translate(-2702.69 -1085.815)"/><path class="b" d="M2769.016,1103.49a.04.04,0,1,1-.04.04A.039.039,0,0,1,2769.016,1103.49Z" transform="translate(-2702.733 -1087.687)"/><path class="b" d="M2769.062,1105.821a.029.029,0,1,1-.028.029A.029.029,0,0,1,2769.062,1105.821Z" transform="translate(-2702.779 -1089.559)"/><path class="b" d="M2769.108,1108.152a.018.018,0,0,1,.017.018.017.017,0,1,1-.034,0A.017.017,0,0,1,2769.108,1108.152Z" transform="translate(-2702.825 -1091.432)"/><path class="b" d="M2769.841,1088.311a.117.117,0,1,1-.116.117A.116.116,0,0,1,2769.841,1088.311Z" transform="translate(-2703.334 -1075.495)"/><path class="b" d="M2769.886,1090.641a.106.106,0,1,1-.105.106A.106.106,0,0,1,2769.886,1090.641Z" transform="translate(-2703.379 -1077.366)"/><path class="b" d="M2769.93,1092.972a.095.095,0,1,1-.094.095A.095.095,0,0,1,2769.93,1092.972Z" transform="translate(-2703.423 -1079.239)"/><path class="b" d="M2769.974,1095.3a.084.084,0,1,1-.084.084A.084.084,0,0,1,2769.974,1095.3Z" transform="translate(-2703.467 -1081.11)"/><path class="b" d="M2770.021,1097.632a.073.073,0,1,1-.073.073A.073.073,0,0,1,2770.021,1097.632Z" transform="translate(-2703.513 -1082.982)"/><path class="b" d="M2770.064,1099.962a.062.062,0,1,1-.062.062A.062.062,0,0,1,2770.064,1099.962Z" transform="translate(-2703.557 -1084.853)"/><path class="b" d="M2770.11,1102.293a.051.051,0,1,1,0,.1.051.051,0,0,1,0-.1Z" transform="translate(-2703.603 -1086.725)"/><path class="b" d="M2770.153,1104.623a.04.04,0,1,1-.04.04A.04.04,0,0,1,2770.153,1104.623Z" transform="translate(-2703.646 -1088.597)"/><path class="b" d="M2770.2,1106.952a.029.029,0,1,1-.029.029A.029.029,0,0,1,2770.2,1106.952Z" transform="translate(-2703.69 -1090.468)"/><path class="b" d="M2766.435,1087.173a.117.117,0,1,1-.117.117A.116.116,0,0,1,2766.435,1087.173Z" transform="translate(-2700.598 -1074.581)"/><path class="b" d="M2766.48,1089.505a.105.105,0,1,1-.105.105A.105.105,0,0,1,2766.48,1089.505Z" transform="translate(-2700.644 -1076.454)"/><path class="b" d="M2766.526,1091.835a.094.094,0,1,1-.094.095A.095.095,0,0,1,2766.526,1091.835Z" transform="translate(-2700.689 -1078.325)"/><path class="b" d="M2766.57,1094.167a.083.083,0,1,1,0,.167.083.083,0,1,1,0-.167Z" transform="translate(-2700.733 -1080.199)"/><path class="b" d="M2766.615,1096.5a.073.073,0,0,1,0,.145.073.073,0,0,1,0-.145Z" transform="translate(-2700.778 -1082.071)"/><path class="b" d="M2766.661,1098.828a.062.062,0,0,1,0,.123.062.062,0,0,1,0-.123Z" transform="translate(-2700.824 -1083.943)"/><path class="b" d="M2766.7,1101.159a.051.051,0,1,1-.05.051A.051.051,0,0,1,2766.7,1101.159Z" transform="translate(-2700.868 -1085.815)"/><path class="b" d="M2766.751,1103.49a.04.04,0,0,1,0,.079.04.04,0,0,1,0-.079Z" transform="translate(-2700.914 -1087.687)"/><path class="b" d="M2766.8,1105.821a.029.029,0,1,1,0,.057.029.029,0,0,1,0-.057Z" transform="translate(-2700.959 -1089.559)"/><path class="b" d="M2767.574,1088.311a.117.117,0,1,1-.117.117A.117.117,0,0,1,2767.574,1088.311Z" transform="translate(-2701.513 -1075.495)"/><path class="b" d="M2767.62,1090.641a.106.106,0,1,1-.106.106A.106.106,0,0,1,2767.62,1090.641Z" transform="translate(-2701.558 -1077.366)"/><path class="b" d="M2767.663,1092.972a.095.095,0,1,1-.095.095A.095.095,0,0,1,2767.663,1092.972Z" transform="translate(-2701.602 -1079.239)"/><path class="b" d="M2767.709,1095.3a.084.084,0,1,1-.084.084A.084.084,0,0,1,2767.709,1095.3Z" transform="translate(-2701.648 -1081.11)"/><path class="b" d="M2767.752,1097.632a.073.073,0,1,1-.073.073A.073.073,0,0,1,2767.752,1097.632Z" transform="translate(-2701.691 -1082.982)"/><path class="b" d="M2767.8,1099.962a.062.062,0,1,1-.062.062A.062.062,0,0,1,2767.8,1099.962Z" transform="translate(-2701.735 -1084.853)"/><path class="b" d="M2767.842,1102.293a.051.051,0,1,1-.051.051A.051.051,0,0,1,2767.842,1102.293Z" transform="translate(-2701.781 -1086.725)"/><path class="b" d="M2767.887,1104.623a.04.04,0,1,1-.04.04A.04.04,0,0,1,2767.887,1104.623Z" transform="translate(-2701.826 -1088.597)"/><path class="b" d="M2767.931,1106.952a.029.029,0,1,1-.029.029A.029.029,0,0,1,2767.931,1106.952Z" transform="translate(-2701.87 -1090.468)"/><path class="b" d="M2792.93,1109.3a.014.014,0,0,1,0,.028s-.014-.007-.014-.014A.014.014,0,0,1,2792.93,1109.3Z" transform="translate(-2721.962 -1092.357)"/><path class="b" d="M2790.663,1109.3a.014.014,0,1,1,0,.028.014.014,0,0,1,0-.028Z" transform="translate(-2720.142 -1092.357)"/><path class="b" d="M2788.4,1109.3a.014.014,0,0,1,0,.028.014.014,0,0,1,0-.028Z" transform="translate(-2718.321 -1092.357)"/><path class="b" d="M2786.128,1109.3a.014.014,0,0,1,0,.028.014.014,0,1,1,0-.028Z" transform="translate(-2716.499 -1092.357)"/><path class="b" d="M2783.863,1109.3a.014.014,0,1,1-.014.014A.014.014,0,0,1,2783.863,1109.3Z" transform="translate(-2714.679 -1092.357)"/><path class="b" d="M2781.6,1109.3s.013.006.013.014a.023.023,0,0,1-.007.014c-.014,0-.021-.007-.021-.014A.014.014,0,0,1,2781.6,1109.3Z" transform="translate(-2712.857 -1092.357)"/><path class="b" d="M2779.328,1109.3a.014.014,0,1,1-.013.014A.014.014,0,0,1,2779.328,1109.3Z" transform="translate(-2711.037 -1092.357)"/><path class="b" d="M2777.062,1109.3a.015.015,0,0,1,.014.014.015.015,0,0,1-.014.014s-.014-.007-.014-.014A.014.014,0,0,1,2777.062,1109.3Z" transform="translate(-2709.217 -1092.357)"/><circle class="b" cx="0.014" cy="0.014" r="0.014" transform="translate(67.385 16.947)"/><path class="b" d="M2772.528,1109.3a.014.014,0,0,1,0,.028.014.014,0,1,1,0-.028Z" transform="translate(-2705.574 -1092.357)"/><path class="b" d="M2770.26,1109.3s.014.006.014.014a.023.023,0,0,1-.007.014c-.015,0-.021-.007-.021-.014A.014.014,0,0,1,2770.26,1109.3Z" transform="translate(-2703.753 -1092.357)"/></g><g transform="translate(59.782 24.947)"><path class="b" d="M2737.182,1152.036a1.039,1.039,0,1,1,1.036-1.041A1.038,1.038,0,0,1,2737.182,1152.036Zm0-1.963a.924.924,0,1,0,.921.922A.921.921,0,0,0,2737.182,1150.073Zm-.333.38h.39a.27.27,0,0,1,.276.3.285.285,0,0,1-.235.3l.323.458h-.14l-.307-.453h-.193v.453h-.114Zm.353.1h-.239v.4h.224c.135,0,.213-.041.213-.207C2737.4,1150.62,2737.344,1150.557,2737.2,1150.557Z" transform="translate(-2736.141 -1149.958)"/></g></g></g></svg>