<svg xmlns="http://www.w3.org/2000/svg" xmlns:xlink="http://www.w3.org/1999/xlink" width="138" height="110" viewBox="0 0 138 110"><defs><style>.a{fill:url(#a);}.b{fill:#fff;}.c{filter:url(#b);}</style><linearGradient id="a" x1="0.5" y1="0.31" x2="0.5" y2="1" gradientUnits="objectBoundingBox"><stop offset="0" stop-color="#fff"/><stop offset="1" stop-color="#bfbfbf"/></linearGradient><filter id="b" x="0" y="0" width="138" height="110" filterUnits="userSpaceOnUse"><feOffset dy="3" input="SourceAlpha"/><feGaussianBlur stdDeviation="4" result="c"/><feFlood flood-opacity="0.424"/><feComposite operator="in" in2="c"/><feComposite in="SourceGraphic"/></filter></defs><g transform="translate(-386 -1051)"><g transform="translate(398 1060)"><g class="c" transform="matrix(1, 0, 0, 1, -12, -9)"><rect class="a" width="114" height="86" rx="5" transform="translate(12 9)"/></g></g><g transform="translate(456.297 1101.762)"><g transform="translate(-28.766 -16.935)"><rect class="b" width="57.532" height="28.14"/><path d="M28.07,0H0V28.07H28.07ZM14.847,18.559a4.408,4.408,0,0,0,3.944-2.32l6.96,3.944a12.527,12.527,0,1,1,0-12.527L18.791,11.6a4.408,4.408,0,1,0-3.944,6.959Z"/><path d="M36.894,24.794V.9H29.007v9.975L20.887.9H13V24.794h7.887V14.819l8.119,9.975h7.887" transform="translate(17.158 1.188)"/><path d="M19.388,15.32l.464.928h.928l.7-3.248h-1.16l-.232,1.392L19.388,13l-.464,1.392L18.46,13H17.3l.7,3.248h.928l.464-.928" transform="translate(22.833 17.158)"/><path d="M19.18,13H15.7v.928h1.16v2.32h1.392v-2.32h.928V13" transform="translate(20.721 17.158)"/><path d="M20.956,12.9a1.856,1.856,0,1,0,1.856,1.856A1.856,1.856,0,0,0,20.956,12.9m0,2.552-.7-.7.7-.7.7.7-.7.7" transform="translate(25.209 17.026)"/><path d="M16.08,16.248V13H14.92v1.392L13.76,13H12.6v3.248h1.16V14.856l1.16,1.392h1.16" transform="translate(16.63 17.158)"/><path d="M17.316,13.928V13H14.3v3.248h3.016V15.32H15.46v-.232h1.392V14.16H15.46v-.232h1.856" transform="translate(18.874 17.158)"/><path d="M24.18,14.173a1.16,1.16,0,0,0-1.392-1.16H20.7v3.48h1.16v-1.16h.464l.464.928H24.18l-.7-1.16a1.16,1.16,0,0,0,.7-1.16m-2.088-.232Z" transform="translate(27.321 17.144)"/><path d="M25.88,13H24.256l-.7.928V13H22.4v3.248h1.16v-1.16l.7,1.16H25.88l-1.392-1.624L25.88,13" transform="translate(29.564 17.158)"/><path d="M4.584,16.248h1.16L4.816,13H2.96L1.8,16.48H2.96v-.464H4.12v.464m-.928-1.392Z" transform="translate(2.376 17.158)"/><path d="M8.68,13H5.2v.928H6.36v2.32H7.52v-2.32H8.68V13" transform="translate(6.863 17.158)"/><path d="M2.842,14.856l-.7.464-.7-.7.7-.7.7.464.928-.464a1.856,1.856,0,1,0,0,1.856l-.928-.464" transform="translate(0.405 17.158)"/><path d="M8.556,12.9a1.856,1.856,0,1,0,1.856,1.856A1.856,1.856,0,0,0,8.556,12.9m0,2.32-.7-.7.7-.7.7.7-.7.7" transform="translate(8.843 17.026)"/><path d="M10.256,12.9a1.856,1.856,0,1,0,1.856,1.856A1.856,1.856,0,0,0,10.256,12.9m0,2.32-.7-.7.7-.7.7.7-.7.7" transform="translate(11.087 17.026)"/><path d="M13.58,16.248V13H12.42v1.392L11.26,13H10.1v3.248h1.16V14.856l1.16,1.392h1.16" transform="translate(13.33 17.158)"/><path d="M6.948,14.173a1.16,1.16,0,0,0-1.392-1.16H3.7v3.48H4.86v-1.16h.464l.464.928H7.18l-.7-1.16a1.16,1.16,0,0,0,.7-1.16m-2.088-.232Z" transform="translate(4.883 17.144)"/><path d="M24.7,14v.232h-.232v.7h-.232v-.7H24V14h.7" transform="translate(31.676 18.478)"/><path d="M25.1,14h.232v.928H25.1v-.7l-.232.7h0l-.232-.7h0v.7H24.4V14h.232l.232.7L25.1,14" transform="translate(32.204 18.478)"/></g></g></g></svg>