<svg id="Grupo_4008" data-name="Grupo 4008" xmlns="http://www.w3.org/2000/svg" width="119.664" height="40" viewBox="0 0 119.664 40">
  <g id="Grupo_3998" data-name="Grupo 3998">
    <g id="Grupo_3993" data-name="Grupo 3993">
      <g id="Grupo_3992" data-name="Grupo 3992">
        <path id="Trazado_6116" data-name="Trazado 6116" d="M110.135,0H9.535c-.367,0-.729,0-1.1,0-.306,0-.61.008-.919.013a13.155,13.155,0,0,0-2,.176,6.72,6.72,0,0,0-1.9.627A6.444,6.444,0,0,0,2,2,6.285,6.285,0,0,0,.819,3.618a6.625,6.625,0,0,0-.625,1.9,13.078,13.078,0,0,0-.179,2C.006,7.83,0,8.138,0,8.444V31.559c0,.31.006.611.015.921a13.056,13.056,0,0,0,.179,2,6.607,6.607,0,0,0,.625,1.905A6.233,6.233,0,0,0,2,38,6.3,6.3,0,0,0,3.616,39.18a6.7,6.7,0,0,0,1.9.63,13.285,13.285,0,0,0,2,.177c.309.007.613.011.919.011.366,0,.728,0,1.1,0h100.6c.359,0,.724,0,1.084,0,.3,0,.617,0,.922-.011a13.12,13.12,0,0,0,2-.177,6.781,6.781,0,0,0,1.908-.63A6.312,6.312,0,0,0,117.666,38a6.41,6.41,0,0,0,1.182-1.614,6.626,6.626,0,0,0,.619-1.905,13.452,13.452,0,0,0,.185-2c0-.31,0-.611,0-.921.008-.364.008-.725.008-1.094V9.536c0-.366,0-.729-.008-1.092,0-.306,0-.614,0-.921a13.477,13.477,0,0,0-.185-2,6.643,6.643,0,0,0-.619-1.9,6.474,6.474,0,0,0-2.8-2.8,6.807,6.807,0,0,0-1.908-.627,12.993,12.993,0,0,0-2-.176c-.305,0-.618-.011-.922-.013-.36,0-.725,0-1.084,0Z" fill="#a2a2a2"/>
        <path id="Trazado_6117" data-name="Trazado 6117" d="M8.445,39.125c-.3,0-.6,0-.9-.011a12.619,12.619,0,0,1-1.87-.163A5.865,5.865,0,0,1,4.015,38.4a5.374,5.374,0,0,1-1.4-1.016A5.329,5.329,0,0,1,1.6,35.99a5.752,5.752,0,0,1-.543-1.657,12.388,12.388,0,0,1-.166-1.875c-.007-.211-.015-.913-.015-.913V8.444s.009-.691.015-.894a12.35,12.35,0,0,1,.165-1.872A5.725,5.725,0,0,1,1.6,4.016a5.338,5.338,0,0,1,1.015-1.4A5.568,5.568,0,0,1,4.014,1.6a5.818,5.818,0,0,1,1.653-.544A12.65,12.65,0,0,1,7.543.887l.9-.012H111.214l.913.013a12.359,12.359,0,0,1,1.858.162,5.952,5.952,0,0,1,1.671.548,5.593,5.593,0,0,1,2.415,2.42,5.738,5.738,0,0,1,.535,1.649,12.82,12.82,0,0,1,.174,1.887c0,.283,0,.588,0,.89.008.375.008.732.008,1.092V30.465c0,.363,0,.718-.008,1.075,0,.325,0,.623,0,.93a12.558,12.558,0,0,1-.171,1.853,5.721,5.721,0,0,1-.54,1.67,5.475,5.475,0,0,1-1.015,1.386,5.388,5.388,0,0,1-1.4,1.022,5.832,5.832,0,0,1-1.668.55,12.46,12.46,0,0,1-1.869.163c-.293.007-.6.011-.9.011l-1.084,0Z"/>
      </g>
    </g>
    <g id="Grupo_3997" data-name="Grupo 3997">
      <g id="Grupo_3995" data-name="Grupo 3995">
        <g id="Grupo_3994" data-name="Grupo 3994">
          <path id="Trazado_6118" data-name="Trazado 6118" d="M24.769,20.3a4.948,4.948,0,0,1,2.356-4.152,5.063,5.063,0,0,0-3.991-2.158C21.455,13.815,19.827,15,18.971,15c-.872,0-2.189-.988-3.608-.958a5.314,5.314,0,0,0-4.473,2.727c-1.934,3.349-.491,8.27,1.361,10.977.927,1.325,2.01,2.805,3.428,2.753,1.387-.058,1.9-.885,3.579-.885s2.145.885,3.591.852c1.489-.025,2.426-1.332,3.321-2.67A10.956,10.956,0,0,0,27.688,24.7,4.781,4.781,0,0,1,24.769,20.3Z" fill="#fff"/>
          <path id="Trazado_6119" data-name="Trazado 6119" d="M22.037,12.211A4.874,4.874,0,0,0,23.152,8.72a4.959,4.959,0,0,0-3.208,1.66A4.638,4.638,0,0,0,18.8,13.741,4.1,4.1,0,0,0,22.037,12.211Z" fill="#fff"/>
        </g>
      </g>
      <g id="Grupo_3996" data-name="Grupo 3996">
        <path id="Trazado_6120" data-name="Trazado 6120" d="M42.3,27.14H37.569L36.432,30.5H34.427l4.484-12.418h2.083L45.477,30.5H43.438Zm-4.243-1.549h3.752l-1.85-5.447H39.91Z" fill="#fff"/>
        <path id="Trazado_6121" data-name="Trazado 6121" d="M55.16,25.97c0,2.813-1.506,4.621-3.779,4.621a3.068,3.068,0,0,1-2.848-1.584H48.49v4.484H46.631V21.442h1.8v1.506h.034a3.214,3.214,0,0,1,2.883-1.6C53.645,21.348,55.16,23.164,55.16,25.97Zm-1.91,0c0-1.833-.948-3.038-2.393-3.038-1.42,0-2.375,1.23-2.375,3.038,0,1.824.955,3.046,2.375,3.046C52.3,29.016,53.25,27.819,53.25,25.97Z" fill="#fff"/>
        <path id="Trazado_6122" data-name="Trazado 6122" d="M65.125,25.97c0,2.813-1.506,4.621-3.779,4.621A3.068,3.068,0,0,1,58.5,29.007h-.043v4.484H56.6V21.442h1.8v1.506h.034a3.213,3.213,0,0,1,2.883-1.6C63.61,21.348,65.125,23.164,65.125,25.97Zm-1.911,0c0-1.833-.947-3.038-2.392-3.038-1.42,0-2.375,1.23-2.375,3.038,0,1.824.955,3.046,2.375,3.046C62.267,29.016,63.214,27.819,63.214,25.97Z" fill="#fff"/>
        <path id="Trazado_6123" data-name="Trazado 6123" d="M71.71,27.036c.138,1.232,1.334,2.04,2.969,2.04,1.567,0,2.694-.808,2.694-1.919,0-.964-.68-1.541-2.289-1.936l-1.61-.388c-2.28-.551-3.339-1.617-3.339-3.348,0-2.142,1.867-3.614,4.519-3.614,2.624,0,4.423,1.472,4.483,3.614H77.261c-.112-1.239-1.136-1.987-2.634-1.987s-2.521.757-2.521,1.858c0,.878.654,1.395,2.255,1.79l1.368.336c2.548.6,3.606,1.626,3.606,3.443,0,2.323-1.85,3.778-4.793,3.778-2.754,0-4.614-1.421-4.734-3.667Z" fill="#fff"/>
        <path id="Trazado_6124" data-name="Trazado 6124" d="M83.346,19.3v2.142h1.722v1.472H83.346v4.991c0,.776.345,1.137,1.1,1.137A5.7,5.7,0,0,0,85.059,29v1.463a5.083,5.083,0,0,1-1.032.086c-1.833,0-2.548-.689-2.548-2.444v-5.19H80.163V21.442h1.316V19.3Z" fill="#fff"/>
        <path id="Trazado_6125" data-name="Trazado 6125" d="M86.065,25.97c0-2.849,1.678-4.639,4.294-4.639s4.295,1.79,4.295,4.639-1.661,4.638-4.295,4.638S86.065,28.826,86.065,25.97Zm6.695,0c0-1.954-.9-3.108-2.4-3.108s-2.4,1.162-2.4,3.108c0,1.962.894,3.106,2.4,3.106S92.76,27.932,92.76,25.97Z" fill="#fff"/>
        <path id="Trazado_6126" data-name="Trazado 6126" d="M96.186,21.442h1.773v1.541H98a2.16,2.16,0,0,1,2.178-1.635,2.884,2.884,0,0,1,.637.069v1.738a2.62,2.62,0,0,0-.835-.112,1.873,1.873,0,0,0-1.937,2.083V30.5H96.186Z" fill="#fff"/>
        <path id="Trazado_6127" data-name="Trazado 6127" d="M109.384,27.837c-.25,1.643-1.85,2.771-3.9,2.771-2.634,0-4.269-1.764-4.269-4.595s1.644-4.682,4.191-4.682c2.505,0,4.08,1.721,4.08,4.466v.637h-6.395v.112a2.358,2.358,0,0,0,2.436,2.564,2.049,2.049,0,0,0,2.091-1.273Zm-6.282-2.7h4.526a2.177,2.177,0,0,0-2.22-2.3A2.293,2.293,0,0,0,103.1,25.135Z" fill="#fff"/>
      </g>
    </g>
  </g>
  <g id="Grupo_4000" data-name="Grupo 4000">
    <g id="Grupo_3999" data-name="Grupo 3999">
      <path id="Trazado_6128" data-name="Trazado 6128" d="M37.826,8.731A2.64,2.64,0,0,1,40.634,11.7c0,1.906-1.03,3-2.808,3H35.671V8.731ZM36.6,13.854h1.125a1.875,1.875,0,0,0,1.967-2.146,1.881,1.881,0,0,0-1.967-2.134H36.6Z" fill="#fff"/>
      <path id="Trazado_6129" data-name="Trazado 6129" d="M45.712,13.482a1.828,1.828,0,0,1-1.951,1.3,2.046,2.046,0,0,1-2.08-2.325,2.076,2.076,0,0,1,2.076-2.352c1.253,0,2.009.856,2.009,2.27v.31h-3.18v.05a1.19,1.19,0,0,0,1.2,1.29,1.08,1.08,0,0,0,1.071-.546Zm-3.126-1.451H44.86a1.086,1.086,0,0,0-1.108-1.167A1.152,1.152,0,0,0,42.586,12.031Z" fill="#fff"/>
      <path id="Trazado_6130" data-name="Trazado 6130" d="M48.6,10.108c1.012,0,1.674.471,1.761,1.265h-.852c-.082-.331-.406-.541-.909-.541s-.874.235-.874.586c0,.27.228.439.716.551l.748.173c.857.2,1.258.567,1.258,1.229,0,.847-.79,1.414-1.865,1.414s-1.77-.484-1.849-1.282h.89a.913.913,0,0,0,.979.562c.554,0,.948-.248.948-.608,0-.269-.211-.442-.662-.55l-.786-.182c-.856-.2-1.253-.587-1.253-1.257C46.855,10.67,47.587,10.108,48.6,10.108Z" fill="#fff"/>
      <path id="Trazado_6131" data-name="Trazado 6131" d="M54.6,11.667a1.006,1.006,0,0,0-1.064-.765c-.744,0-1.2.57-1.2,1.53,0,.976.459,1.559,1.2,1.559A.98.98,0,0,0,54.6,13.25h.864a1.763,1.763,0,0,1-1.923,1.535,2.068,2.068,0,0,1-2.113-2.353,2.053,2.053,0,0,1,2.108-2.324,1.777,1.777,0,0,1,1.928,1.559Z" fill="#fff"/>
      <path id="Trazado_6132" data-name="Trazado 6132" d="M56.345,13.424c0-.81.6-1.278,1.675-1.344l1.219-.07v-.389c0-.475-.314-.744-.922-.744-.5,0-.839.182-.938.5h-.86c.09-.773.818-1.269,1.839-1.269,1.129,0,1.766.562,1.766,1.513V14.7h-.855v-.633H59.2a1.513,1.513,0,0,1-1.352.707A1.36,1.36,0,0,1,56.345,13.424Zm2.894-.384v-.377l-1.1.07c-.62.042-.9.253-.9.65s.352.641.835.641A1.061,1.061,0,0,0,59.239,13.04Zm-1.414-3.6L58.863,8.02H59.9L58.743,9.442Z" fill="#fff"/>
      <path id="Trazado_6133" data-name="Trazado 6133" d="M61.516,10.195h.855v.69h.067a1.219,1.219,0,0,1,1.215-.765,1.868,1.868,0,0,1,.4.037v.877a2.424,2.424,0,0,0-.5-.054,1.056,1.056,0,0,0-1.15,1.059V14.7h-.888Z" fill="#fff"/>
      <path id="Trazado_6134" data-name="Trazado 6134" d="M64.866,15.148h.91c.075.327.451.538,1.051.538.74,0,1.178-.352,1.178-.947v-.864h-.066a1.514,1.514,0,0,1-1.39.756c-1.149,0-1.861-.888-1.861-2.236,0-1.374.72-2.275,1.87-2.275a1.56,1.56,0,0,1,1.414.794h.071v-.719h.851v4.54c0,1.03-.807,1.683-2.08,1.683C65.689,16.418,64.961,15.914,64.866,15.148Zm3.156-2.758c0-.9-.464-1.472-1.221-1.472s-1.194.575-1.194,1.472.43,1.472,1.194,1.472S68.022,13.292,68.022,12.39Z" fill="#fff"/>
      <path id="Trazado_6135" data-name="Trazado 6135" d="M70.053,13.424c0-.81.6-1.278,1.675-1.344l1.22-.07v-.389c0-.475-.315-.744-.922-.744-.5,0-.84.182-.939.5h-.86c.091-.773.818-1.269,1.84-1.269,1.129,0,1.766.562,1.766,1.513V14.7h-.856v-.633h-.07a1.515,1.515,0,0,1-1.353.707A1.36,1.36,0,0,1,70.053,13.424Zm2.895-.384v-.377l-1.1.07c-.62.042-.9.253-.9.65s.351.641.835.641A1.061,1.061,0,0,0,72.948,13.04Z" fill="#fff"/>
      <path id="Trazado_6136" data-name="Trazado 6136" d="M75.265,8.437h.889V14.7h-.889Z" fill="#fff"/>
      <path id="Trazado_6137" data-name="Trazado 6137" d="M77.389,12.444a2.133,2.133,0,1,1,4.247,0,2.134,2.134,0,1,1-4.247,0Zm3.333,0c0-.976-.438-1.547-1.208-1.547s-1.207.571-1.207,1.547.435,1.551,1.207,1.551S80.722,13.424,80.722,12.444Z" fill="#fff"/>
      <path id="Trazado_6138" data-name="Trazado 6138" d="M89.08,13.482a1.829,1.829,0,0,1-1.952,1.3,2.046,2.046,0,0,1-2.08-2.325,2.077,2.077,0,0,1,2.077-2.352c1.252,0,2.008.856,2.008,2.27v.31H85.954v.05a1.19,1.19,0,0,0,1.2,1.29,1.08,1.08,0,0,0,1.071-.546Zm-3.126-1.451h2.274a1.086,1.086,0,0,0-1.108-1.167A1.151,1.151,0,0,0,85.954,12.031Z" fill="#fff"/>
      <path id="Trazado_6139" data-name="Trazado 6139" d="M90.327,10.195h.855v.715h.067a1.347,1.347,0,0,1,1.343-.8,1.465,1.465,0,0,1,1.559,1.675V14.7h-.889V12.006c0-.724-.314-1.084-.971-1.084a1.033,1.033,0,0,0-1.076,1.141V14.7h-.888Z" fill="#fff"/>
      <path id="Trazado_6140" data-name="Trazado 6140" d="M101.776,13.482a1.828,1.828,0,0,1-1.951,1.3,2.046,2.046,0,0,1-2.08-2.325,2.076,2.076,0,0,1,2.076-2.352c1.253,0,2.009.856,2.009,2.27v.31H98.65v.05a1.19,1.19,0,0,0,1.2,1.29,1.08,1.08,0,0,0,1.071-.546ZM98.65,12.031h2.274a1.086,1.086,0,0,0-1.108-1.167A1.152,1.152,0,0,0,98.65,12.031Z" fill="#fff"/>
      <path id="Trazado_6141" data-name="Trazado 6141" d="M103.064,8.437h.889V14.7h-.889Z" fill="#fff"/>
    </g>
  </g>
</svg>
