<svg xmlns="http://www.w3.org/2000/svg" width="115.773" height="25.846" viewBox="0 0 115.773 25.846"><defs><style>.a{fill:red;}.b{fill:#fff;}</style></defs><g transform="translate(-84.55 -85.039)"><g transform="translate(84.55 85.039)"><path class="a" d="M120.7,89.075a4.625,4.625,0,0,0-3.264-3.264c-2.879-.772-14.425-.772-14.425-.772s-11.546,0-14.425.772a4.625,4.625,0,0,0-3.264,3.264c-.771,2.879-.771,8.887-.771,8.887s0,6.008.771,8.887a4.624,4.624,0,0,0,3.264,3.264c2.879.772,14.425.772,14.425.772s11.546,0,14.425-.772a4.624,4.624,0,0,0,3.264-3.264c.771-2.879.771-8.887.771-8.887S121.472,91.954,120.7,89.075Z" transform="translate(-84.55 -85.039)"/><path class="b" d="M133.144,120.413l9.592-5.538-9.592-5.539Z" transform="translate(-118.375 -101.952)"/></g><g transform="translate(125.125 86.055)"><g transform="translate(0 0)"><path class="b" d="M256.259,125.7a4.02,4.02,0,0,1-1.558-2.3,15.022,15.022,0,0,1-.462-4.146V116.9a13.623,13.623,0,0,1,.528-4.2,4.212,4.212,0,0,1,1.65-2.31,5.345,5.345,0,0,1,2.944-.726,5.022,5.022,0,0,1,2.878.739,4.238,4.238,0,0,1,1.584,2.31,14.17,14.17,0,0,1,.5,4.185v2.35a14.413,14.413,0,0,1-.488,4.159,4.085,4.085,0,0,1-1.584,2.3,6.495,6.495,0,0,1-5.994-.013Zm4.093-2.535a7.9,7.9,0,0,0,.3-2.588v-5.043a7.805,7.805,0,0,0-.3-2.548,1.087,1.087,0,0,0-1.07-.805,1.071,1.071,0,0,0-1.043.805,7.787,7.787,0,0,0-.3,2.548v5.043a8.219,8.219,0,0,0,.29,2.588,1.062,1.062,0,0,0,1.056.792A1.085,1.085,0,0,0,260.352,123.162Z" transform="translate(-243.241 -103.2)"/><path class="b" d="M437.242,119.319v.818a21.517,21.517,0,0,0,.092,2.337,2.215,2.215,0,0,0,.383,1.135,1.089,1.089,0,0,0,.9.356,1.13,1.13,0,0,0,1.122-.634,5.51,5.51,0,0,0,.33-2.112l3.142.185a4.973,4.973,0,0,1,.026.581,4.294,4.294,0,0,1-1.228,3.353,5,5,0,0,1-3.472,1.109,4.133,4.133,0,0,1-3.776-1.69,9.9,9.9,0,0,1-1.083-5.228v-2.825a9.785,9.785,0,0,1,1.122-5.321,4.279,4.279,0,0,1,3.842-1.677,5.079,5.079,0,0,1,2.878.687,3.686,3.686,0,0,1,1.413,2.139,15.468,15.468,0,0,1,.409,4.014v2.772Zm.462-6.812a2.226,2.226,0,0,0-.37,1.122,21.856,21.856,0,0,0-.092,2.363v1.162h2.667v-1.162a19.7,19.7,0,0,0-.105-2.363,2.262,2.262,0,0,0-.383-1.135,1.058,1.058,0,0,0-.858-.33A1.038,1.038,0,0,0,437.7,112.507Z" transform="translate(-368.143 -103.227)"/><path class="b" d="M222.2,106.046l-4.145-14.971h3.617l1.452,6.786q.554,2.509.818,4.277h.105q.185-1.267.819-4.251l1.5-6.813h3.618l-4.2,14.971v7.182H222.2Z" transform="translate(-218.052 -90.257)"/><path class="b" d="M303.519,110.711V126.9h-2.852l-.317-1.98h-.079a3.728,3.728,0,0,1-3.485,2.244,2.737,2.737,0,0,1-2.376-1.056,5.669,5.669,0,0,1-.766-3.3V110.711h3.644v11.882a3.628,3.628,0,0,0,.237,1.545.822.822,0,0,0,.792.462,1.616,1.616,0,0,0,.911-.291,1.8,1.8,0,0,0,.647-.739V110.711Z" transform="translate(-270.67 -103.925)"/><path class="b" d="M365.015,110.711V126.9h-2.852l-.317-1.98h-.079a3.728,3.728,0,0,1-3.485,2.244,2.738,2.738,0,0,1-2.377-1.056,5.667,5.667,0,0,1-.766-3.3V110.711h3.644v11.882a3.628,3.628,0,0,0,.237,1.545.822.822,0,0,0,.792.462,1.616,1.616,0,0,0,.911-.291,1.8,1.8,0,0,0,.647-.739V110.711Z" transform="translate(-313.475 -103.925)"/><path class="b" d="M333.981,94.008h-3.617V113.23H326.8V94.008h-3.617V91.077h10.8Z" transform="translate(-291.23 -90.258)"/><path class="b" d="M404.724,97.756a4.163,4.163,0,0,0-1.069-2.218,2.873,2.873,0,0,0-2.033-.687,3.372,3.372,0,0,0-1.875.568,3.858,3.858,0,0,0-1.346,1.492h-.027V88.383h-3.512v22.972h3.01l.37-1.531h.079a3.09,3.09,0,0,0,1.267,1.294,3.756,3.756,0,0,0,1.875.475,2.869,2.869,0,0,0,2.72-1.7,12.257,12.257,0,0,0,.871-5.32v-2.561A21.271,21.271,0,0,0,404.724,97.756Zm-3.34,6.6a20.476,20.476,0,0,1-.145,2.772,3,3,0,0,1-.488,1.426,1.129,1.129,0,0,1-.924.422,1.686,1.686,0,0,1-.832-.211,1.59,1.59,0,0,1-.621-.634V98.946a2.3,2.3,0,0,1,.634-1.083,1.4,1.4,0,0,1,.977-.422.986.986,0,0,1,.858.436,3.35,3.35,0,0,1,.423,1.466,27.405,27.405,0,0,1,.119,2.93Z" transform="translate(-341.125 -88.383)"/></g></g></g></svg>