<svg id="Capa_1" data-name="Capa 1" xmlns="http://www.w3.org/2000/svg" viewBox="0 0 164.62 36.75"><defs><style>.cls-1{fill:#fff;}</style></defs><path class="cls-1" d="M652.4,371.7a6.57,6.57,0,0,0-4.64-4.64c-4.09-1.1-20.51-1.1-20.51-1.1s-16.41,0-20.51,1.1a6.57,6.57,0,0,0-4.64,4.64c-1.1,4.09-1.1,12.63-1.1,12.63s0,8.54,1.1,12.64a6.59,6.59,0,0,0,4.64,4.64c4.1,1.1,20.51,1.1,20.51,1.1s16.42,0,20.51-1.1A6.59,6.59,0,0,0,652.4,397c1.1-4.1,1.1-12.64,1.1-12.64S653.5,375.79,652.4,371.7ZM622,392.21V376.46l13.64,7.87Z" transform="translate(-601 -365.96)"/><path class="cls-1" d="M677.2,399.39a5.75,5.75,0,0,1-2.22-3.27,21.22,21.22,0,0,1-.65-5.89v-3.34a19.42,19.42,0,0,1,.75-6,6,6,0,0,1,2.34-3.28,7.6,7.6,0,0,1,4.19-1,7.16,7.16,0,0,1,4.09,1,6,6,0,0,1,2.25,3.28,20,20,0,0,1,.72,5.95v3.35a20.39,20.39,0,0,1-.7,5.92,5.77,5.77,0,0,1-2.25,3.26,9.2,9.2,0,0,1-8.52,0Zm5.82-3.6a11.16,11.16,0,0,0,.43-3.68v-7.18a11.1,11.1,0,0,0-.43-3.62,1.54,1.54,0,0,0-1.52-1.14,1.52,1.52,0,0,0-1.49,1.14,11.37,11.37,0,0,0-.43,3.62v7.17a11.42,11.42,0,0,0,.42,3.68,1.5,1.5,0,0,0,1.5,1.13,1.55,1.55,0,0,0,1.52-1.12Z" transform="translate(-601 -365.96)"/><path class="cls-1" d="M756.93,390.29v1.16a30.61,30.61,0,0,0,.13,3.32,3.14,3.14,0,0,0,.55,1.62,1.55,1.55,0,0,0,1.27.5,1.59,1.59,0,0,0,1.6-.9,7.86,7.86,0,0,0,.47-3l4.47.27a7.5,7.5,0,0,1,0,.82,6.12,6.12,0,0,1-1.75,4.77,7.13,7.13,0,0,1-4.94,1.58q-3.82,0-5.36-2.4t-1.54-7.44v-4q0-5.19,1.6-7.57t5.46-2.38a7.24,7.24,0,0,1,4.09,1,5.28,5.28,0,0,1,2,3,22,22,0,0,1,.58,5.71v3.94Zm.66-9.69a3.18,3.18,0,0,0-.53,1.6,31.45,31.45,0,0,0-.13,3.36v1.65h3.79v-1.65a27,27,0,0,0-.15-3.36,3.19,3.19,0,0,0-.54-1.61,1.49,1.49,0,0,0-1.22-.47,1.47,1.47,0,0,0-1.22.48Z" transform="translate(-601 -365.96)"/><path class="cls-1" d="M664.58,389.85l-5.89-21.28h5.14l2.07,9.65q.78,3.55,1.16,6.08h.15c.18-1.2.56-3.22,1.17-6.05l2.13-9.68h5.15l-6,21.28v10.21h-5.11Z" transform="translate(-601 -365.96)"/><path class="cls-1" d="M705.39,377.05v23h-4l-.45-2.82h-.11a5.3,5.3,0,0,1-5,3.19,3.91,3.91,0,0,1-3.38-1.5,8,8,0,0,1-1.08-4.69v-17.2h5.18v16.89a5.15,5.15,0,0,0,.33,2.2,1.18,1.18,0,0,0,1.13.66,2.33,2.33,0,0,0,1.3-.41,2.59,2.59,0,0,0,.92-1.05V377.05Z" transform="translate(-601 -365.96)"/><path class="cls-1" d="M732,377.05v23h-4.06l-.45-2.82h-.11a5.29,5.29,0,0,1-5,3.19,3.88,3.88,0,0,1-3.37-1.5,8,8,0,0,1-1.09-4.69v-17.2h5.18v16.89a5,5,0,0,0,.34,2.2,1.16,1.16,0,0,0,1.12.66,2.3,2.3,0,0,0,1.3-.41,2.66,2.66,0,0,0,.92-1.05V377.05Z" transform="translate(-601 -365.96)"/><path class="cls-1" d="M719.47,372.74h-5.14v27.33h-5.07V372.74h-5.14v-4.17h15.35Z" transform="translate(-601 -365.96)"/><path class="cls-1" d="M749.11,380.73a5.94,5.94,0,0,0-1.52-3.15,4.07,4.07,0,0,0-2.89-1,4.79,4.79,0,0,0-2.67.81,5.57,5.57,0,0,0-1.91,2.12h0V367.41h-5v32.66h4.28l.52-2.18H740a4.37,4.37,0,0,0,1.8,1.84,5.37,5.37,0,0,0,2.66.67,4.06,4.06,0,0,0,3.87-2.42q1.24-2.42,1.24-7.56v-3.64A29.94,29.94,0,0,0,749.11,380.73Zm-4.75,9.39a30.5,30.5,0,0,1-.2,3.94,4.33,4.33,0,0,1-.7,2,1.59,1.59,0,0,1-1.31.6,2.41,2.41,0,0,1-1.18-.3,2.27,2.27,0,0,1-.89-.9V382.42a3.35,3.35,0,0,1,.9-1.54,2,2,0,0,1,1.39-.6,1.41,1.41,0,0,1,1.22.62,4.67,4.67,0,0,1,.6,2.09,38.48,38.48,0,0,1,.17,4.16Z" transform="translate(-601 -365.96)"/></svg>