<svg xmlns="http://www.w3.org/2000/svg" xmlns:xlink="http://www.w3.org/1999/xlink" width="53" height="50" viewBox="0 0 53 50"><defs><style>.a,.g{fill:none;}.b{fill:url(#a);}.c{opacity:0.9;fill:url(#b);}.d{fill:url(#c);}.e{fill:#f79400;}.f,.g,.i,.k,.n{mix-blend-mode:multiply;isolation:isolate;}.f{fill:url(#d);}.g{stroke:#f79400;stroke-width:13.28px;}.h{fill:#ffa800;}.i{fill:url(#e);}.j{opacity:0.25;fill:url(#f);}.k{fill:url(#g);}.l{fill:#54742b;}.m{opacity:0.35;fill:url(#h);}.n{fill:url(#i);}.o{fill:#fc9200;}.p{fill:#fff;}</style><linearGradient id="a" x1="-0.041" y1="-0.285" x2="1.022" y2="-1.178" gradientUnits="objectBoundingBox"><stop offset="0" stop-color="#002d58"/><stop offset="0.191" stop-color="#003568"/><stop offset="0.505" stop-color="#00407e"/><stop offset="0.709" stop-color="#004586"/></linearGradient><linearGradient id="b" x1="0.449" y1="0.542" x2="1.031" y2="0.053" gradientUnits="objectBoundingBox"><stop offset="0" stop-color="#00386a"/><stop offset="0.341" stop-color="#00386a"/><stop offset="0.403" stop-color="#063d6d"/><stop offset="0.494" stop-color="#194b78"/><stop offset="0.6" stop-color="#386289"/><stop offset="0.719" stop-color="#6482a1"/><stop offset="0.849" stop-color="#9bacc0"/><stop offset="0.985" stop-color="#dedee5"/><stop offset="1" stop-color="#e6e4ea"/></linearGradient><linearGradient id="c" x1="-0.041" y1="0.951" x2="1.041" y2="0.049" gradientUnits="objectBoundingBox"><stop offset="0" stop-color="#aeb0b3"/><stop offset="0.047" stop-color="#bfc1c3"/><stop offset="0.128" stop-color="#d6d7d9"/><stop offset="0.22" stop-color="#e8e9ea"/><stop offset="0.331" stop-color="#f5f5f6"/><stop offset="0.477" stop-color="#fcfcfd"/><stop offset="0.802" stop-color="#fff"/></linearGradient><linearGradient id="d" y1="0.5" x2="1" y2="0.5" gradientUnits="objectBoundingBox"><stop offset="0" stop-color="#ffa700"/><stop offset="0.031" stop-color="#ffaa0a"/><stop offset="0.443" stop-color="#ffd78c"/><stop offset="0.724" stop-color="#fff3de"/><stop offset="0.852" stop-color="#fff"/></linearGradient><linearGradient id="e" x1="-0.311" y1="0.606" x2="1.193" y2="0.355" gradientUnits="objectBoundingBox"><stop offset="0.143" stop-color="#ffa700"/><stop offset="0.229" stop-color="#ffb62e"/><stop offset="0.357" stop-color="#ffcc6c"/><stop offset="0.48" stop-color="#ffdea1"/><stop offset="0.594" stop-color="#ffecc9"/><stop offset="0.698" stop-color="#fff6e6"/><stop offset="0.787" stop-color="#fffcf8"/><stop offset="0.852" stop-color="#fff"/></linearGradient><linearGradient id="f" x1="0.451" y1="0.561" x2="0.951" y2="-0.061" gradientUnits="objectBoundingBox"><stop offset="0" stop-color="#fff"/><stop offset="0.172" stop-color="#ffe7ba"/><stop offset="0.355" stop-color="#ffd078"/><stop offset="0.521" stop-color="#ffbe44"/><stop offset="0.664" stop-color="#ffb11f"/><stop offset="0.779" stop-color="#ffa908"/><stop offset="0.852" stop-color="#ffa700"/></linearGradient><linearGradient id="g" y1="0.5" x2="1" y2="0.5" gradientUnits="objectBoundingBox"><stop offset="0" stop-color="#ffa700"/><stop offset="0.058" stop-color="#ffb428"/><stop offset="0.138" stop-color="#ffc65a"/><stop offset="0.223" stop-color="#ffd586"/><stop offset="0.311" stop-color="#ffe2ab"/><stop offset="0.401" stop-color="#ffecc9"/><stop offset="0.496" stop-color="#fff4e1"/><stop offset="0.597" stop-color="#fffaf2"/><stop offset="0.709" stop-color="#fffdfb"/><stop offset="0.852" stop-color="#fff"/></linearGradient><linearGradient id="h" x1="0.343" y1="0.626" x2="0.872" y2="0.142" gradientUnits="objectBoundingBox"><stop offset="0.242" stop-color="#3c581f"/><stop offset="1" stop-color="#fff"/></linearGradient><linearGradient id="i" x1="-0.263" y1="0.812" x2="1.197" y2="0.303" gradientUnits="objectBoundingBox"><stop offset="0" stop-color="#54742b"/><stop offset="0.061" stop-color="#688444"/><stop offset="0.26" stop-color="#a8b893"/><stop offset="0.425" stop-color="#d7decd"/><stop offset="0.545" stop-color="#f4f6f1"/><stop offset="0.61" stop-color="#fff"/></linearGradient></defs><g transform="translate(-1183 -1450)"><rect class="a" width="53" height="50" rx="5" transform="translate(1183 1450)"/><g transform="translate(1190 1456)"><g transform="translate(0 0)"><path class="b" d="M-643.422,1927.328c-8.583,0-17.1.2-17.1.2s-.263,8.67-.263,17.32c0,8.609.263,17.2.263,17.2s8.537.263,17.119.263c8.678,0,17.4-.263,17.4-.263s.264-8.661.264-17.306c0-8.614-.269-17.211-.269-17.211S-634.746,1927.328-643.422,1927.328Zm11.052,28.615h-22.074v-22.215h22.074Z" transform="translate(660.785 -1927.328)"/><path class="c" d="M-632.247,1949.957c2.848,4.194,4.7,8.7,6.363,12.091,0,0,.286-8.6.286-17.24,0-8.615-.276-17.28-.276-17.28s-8.712-.2-17.388-.2c-8.584,0-17.141.2-17.141.2a35.169,35.169,0,0,1,13.432,6.2h14.724Z" transform="translate(660.662 -1927.329)"/></g><rect class="d" width="22.073" height="22.216" transform="translate(6.341 6.399)"/><g transform="translate(6.342 6.398)"><path class="e" d="M-641.155,1951.8l-3.845,6.388h6.657v-12.92C-638.4,1946.073-638.339,1947.092-641.155,1951.8Z" transform="translate(649.346 -1939.517)"/><path class="f" d="M-641.155,1951.8l-3.845,6.388h6.657v-12.92C-638.4,1946.073-638.339,1947.092-641.155,1951.8Z" transform="translate(649.346 -1939.517)"/><path class="g" d="M-645,1964.345" transform="translate(649.346 -1945.678)"/><path class="h" d="M-645.366,1941.573s-1.873-1.549-5.847,2.885l-.2.254v12.175c.23-.318,6.141-10.267,6.141-10.267S-642.99,1942.9-645.366,1941.573Z" transform="translate(651.419 -1938.241)"/><path class="i" d="M-645.356,1941.561s-1.872-1.549-5.848,2.885l-.215.265.012,12.164c.231-.318,6.141-10.268,6.141-10.268S-642.98,1942.89-645.356,1941.561Z" transform="translate(651.419 -1938.237)"/><path class="e" d="M-637.832,1942.418v-5.641h-5.562s5.55.155,5.562,5.64" transform="translate(648.835 -1936.777)"/><path class="j" d="M-636.913,1939.72v-2.943h-3.656A16.246,16.246,0,0,1-636.913,1939.72Z" transform="translate(647.916 -1936.777)"/><path class="e" d="M-646.808,1936.783h-4.61v2.325A6.075,6.075,0,0,1-646.808,1936.783Z" transform="translate(651.419 -1936.779)"/><path class="k" d="M-646.809,1936.777h-4.61v2.325A6.079,6.079,0,0,1-646.809,1936.777Z" transform="translate(651.419 -1936.777)"/></g><path class="l" d="M-635.17,1943.255v-4.092a6.268,6.268,0,0,1,5.5-2.368s5.57.039,5.57,5.593c0,0-.011,1.975-2.767,6.558l-3.9,6.472h6.672v3.578h-11.067v-3.6l6.217-10.277s2.284-3.723-.09-5.054c0,0-2.085-1.331-6.065,3.165Z" transform="translate(652.515 -1930.38)"/><path class="m" d="M-626.838,1948.9c2.148-3.541,2.738-5.961,2.738-6.51a5.322,5.322,0,0,0-4.947-5.535,6.393,6.393,0,0,0-6.124,2.311v.562a15.375,15.375,0,0,1,1.86,1.737c2.8-2.322,4.264-1.4,4.264-1.4,2.414,1.352.044,5.154.044,5.154l-.325.541S-627.75,1947.636-626.838,1948.9Z" transform="translate(652.515 -1930.38)"/><path class="n" d="M-635.17,1943.311v-4.147a6.265,6.265,0,0,1,5.5-2.369c1.9.1,5.569,1.075,5.569,5.593,0,0-.013,1.982-2.769,6.565l-3.9,6.465h6.669V1959h-11.067v-3.6l6.213-10.271s2.289-3.73-.086-5.061c0,0-2.085-1.331-6.065,3.166Z" transform="translate(652.515 -1930.381)"/><rect class="o" width="11.115" height="7.253" transform="translate(28.517 31.093)"/><g transform="translate(29.714 32.261)"><path class="p" d="M-616.836,1976.623l-.012-.246c0-.839.24-1.4,1.182-1.4a1.073,1.073,0,0,1,1.218,1.158,2.566,2.566,0,0,1-.372,1.23l-.756,1.433h1.05v.78H-616.9l1.02-1.871a3.785,3.785,0,0,0,.582-1.541c0-.234-.072-.559-.36-.559-.342,0-.36.486-.36.732l.012.288Z" transform="translate(616.902 -1974.973)"/><path class="p" d="M-613.032,1976.623l-.012-.246c0-.839.24-1.4,1.182-1.4a1.072,1.072,0,0,1,1.218,1.158,2.564,2.564,0,0,1-.372,1.23l-.756,1.433h1.049v.78H-613.1l1.02-1.871a3.781,3.781,0,0,0,.581-1.541c0-.234-.072-.559-.36-.559-.342,0-.36.486-.36.732l.012.288Z" transform="translate(615.674 -1974.973)"/><path class="p" d="M-608.092,1980.761a.57.57,0,0,1-.57.57.57.57,0,0,1-.57-.57.57.57,0,0,1,.57-.57A.57.57,0,0,1-608.092,1980.761Z" transform="translate(614.425 -1976.658)"/><path class="p" d="M-607.359,1976.623l-.012-.246c0-.839.24-1.4,1.182-1.4a1.072,1.072,0,0,1,1.217,1.158,2.564,2.564,0,0,1-.372,1.23l-.756,1.433h1.049v.78h-2.375l1.02-1.871a3.783,3.783,0,0,0,.582-1.541c0-.234-.072-.559-.359-.559-.342,0-.36.486-.36.732l.012.288Z" transform="translate(613.842 -1974.973)"/></g><g transform="translate(8.719 1.577)"><path class="p" d="M-645.625,1930.791a.826.826,0,0,0-.68-.345.809.809,0,0,0-.8.869.794.794,0,0,0,.807.852.876.876,0,0,0,.669-.333v.977a2.112,2.112,0,0,1-.685.145,1.619,1.619,0,0,1-1.12-.461,1.571,1.571,0,0,1-.479-1.184,1.685,1.685,0,0,1,.439-1.146,1.581,1.581,0,0,1,1.136-.507,1.75,1.75,0,0,1,.708.158Z" transform="translate(647.908 -1929.657)"/><path class="p" d="M-642.029,1932.368l-.206.544h-.823l1.147-3.133h.847l1.124,3.133h-.827l-.194-.544Zm.542-1.621h-.008l-.321,1h.645Z" transform="translate(646.342 -1929.697)"/><path class="p" d="M-636.929,1929.779h.776l1.421,1.915h.007v-1.915h.776v3.133h-.776l-1.42-1.919h-.008v1.919h-.776Z" transform="translate(644.363 -1929.697)"/><path class="p" d="M-629.98,1932.368l-.206.544h-.823l1.148-3.133h.846l1.124,3.133h-.828l-.194-.544Zm.542-1.621h-.008l-.32,1h.645Z" transform="translate(642.451 -1929.697)"/><path class="p" d="M-624.1,1932.223h.93v.689h-1.7v-3.133h.775Z" transform="translate(640.472 -1929.697)"/></g></g></g></svg>