<svg id="azteca_uno" xmlns="http://www.w3.org/2000/svg" xmlns:xlink="http://www.w3.org/1999/xlink" width="49.873" height="21.97" viewBox="0 0 49.873 21.97">
  <defs>
    <clipPath id="clip-path">
      <rect id="Rectángulo_23339" data-name="Rectángulo 23339" width="49.873" height="21.97" fill="none"/>
    </clipPath>
  </defs>
  <g id="Grupo_31962" data-name="Grupo 31962" clip-path="url(#clip-path)">
    <path id="Trazado_67143" data-name="Trazado 67143" d="M17.845,127.351v7.8c-.08,0-.142.011-.2.011-1.728,0-3.456,0-5.183,0-.17,0-.215-.057-.235-.214-.069-.53-.154-1.058-.237-1.62-.055.051-.1.085-.131.123a6.649,6.649,0,0,1-4.4,2.086,7.781,7.781,0,0,1-3.537-.437,5.555,5.555,0,0,1-3.331-3.561,11.017,11.017,0,0,1-.578-3.668C0,124.7,0,121.532,0,118.359v-.132H6.31v.239c0,3,0,6.009.006,9.014a4.935,4.935,0,0,0,.127,1.148A2.231,2.231,0,0,0,9,130.388a2.694,2.694,0,0,0,2.564-2.623c.063-.911.031-1.829.027-2.744-.01-1.986-.03-3.971-.047-5.957,0-.135-.009-.27-.017-.405a.4.4,0,0,1,.3-.439,1.023,1.023,0,0,1,.286-.035c1.592.008,3.184.024,4.777.026a.723.723,0,0,1,.626.3q3.442,4.4,6.892,8.8a.531.531,0,0,0,.62.251c0,.455,0,.885,0,1.316q-.013,1.876-.03,3.752a1.915,1.915,0,0,1-.416,1.221,2.042,2.042,0,0,1-.449.389.657.657,0,0,1-.887-.042,6.826,6.826,0,0,1-1.106-1.129q-2.035-2.751-4.073-5.5c-.057-.077-.115-.152-.172-.229l-.046.011" transform="translate(0 -113.613)"/>
    <path id="Trazado_67144" data-name="Trazado 67144" d="M811.144,100.07c.109.307.217.615.329.921s.224.6.347.923l.23-.269a8.58,8.58,0,0,1,4.426-2.684,12.209,12.209,0,0,1,7.977.434,7.843,7.843,0,0,1,5.03,6.524,9.606,9.606,0,0,1-.674,5.43,8.1,8.1,0,0,1-4.548,4.214,11.827,11.827,0,0,1-5.362.791,10.889,10.889,0,0,1-4.623-1.32,7.843,7.843,0,0,1-3.068-3.006.7.7,0,0,1-.1-.323q-.007-5.773,0-11.547v-.077l.035-.01m5.174,7.141a4.145,4.145,0,0,0,.6,2.419,3.306,3.306,0,0,0,3.157,1.53,3.235,3.235,0,0,0,2.841-1.778,4.012,4.012,0,0,0,.335-2.946,3.5,3.5,0,0,0-5.639-1.937,3.653,3.653,0,0,0-1.292,2.713" transform="translate(-779.731 -94.683)"/>
    <path id="Trazado_67145" data-name="Trazado 67145" d="M4.414,17.977c.01-.286.166-.3.358-.291s.4,0,.632,0L4.948,20.3H4.057l-.02-.23c-.052.031-.095.053-.134.079a1.281,1.281,0,0,1-.942.191.938.938,0,0,1-.81-.9,1.574,1.574,0,0,1,1.623-1.8.792.792,0,0,1,.642.338m-.644.441a.654.654,0,0,0-.643.679.427.427,0,0,0,.435.479.686.686,0,0,0,.66-.693.43.43,0,0,0-.452-.466" transform="translate(-2.057 -16.954)"/>
    <path id="Trazado_67146" data-name="Trazado 67146" d="M370.434,18.045c.007-.285.156-.3.343-.293.2.013.41,0,.645,0l-.458,2.612h-.887l-.016-.183a3.877,3.877,0,0,1-.76.225.985.985,0,0,1-1.146-1.068,1.566,1.566,0,0,1,1.643-1.636.775.775,0,0,1,.636.339m-1.289,1.1a.431.431,0,0,0,.414.5.682.682,0,0,0,.68-.672.43.43,0,0,0-.431-.486.652.652,0,0,0-.662.659" transform="translate(-353.913 -17.02)"/>
    <path id="Trazado_67147" data-name="Trazado 67147" d="M218.252,19.263c.13.389.58.432,1.232.133l.37.517a1.968,1.968,0,0,1-1.315.433,1.83,1.83,0,0,1-.327-.03,1.1,1.1,0,0,1-.9-1.477,1.6,1.6,0,0,1,1.458-1.212,2.32,2.32,0,0,1,.539.009.982.982,0,0,1,.852,1.3c-.072.32-.072.32-.394.32h-1.315c-.062,0-.125.005-.206.009m.115-.642h.939c0-.2-.135-.262-.284-.295a.589.589,0,0,0-.655.295" transform="translate(-208.864 -16.935)"/>
    <path id="Trazado_67148" data-name="Trazado 67148" d="M87.076,19.322a2.222,2.222,0,0,1-.216.449c-.355.433-.727.852-1.124,1.313H86.77l-.142.836H84.245a2.527,2.527,0,0,1,.228-.437c.375-.458.764-.905,1.177-1.391h-.936l.133-.77Z" transform="translate(-80.986 -18.575)"/>
    <path id="Trazado_67149" data-name="Trazado 67149" d="M161.185,1.5h-.409L160.9.784a.272.272,0,0,1,.053-.02c.38-.03.394-.029.441-.426.023-.2.1-.268.289-.267a3.54,3.54,0,0,0,.365-.036L162.418,0l-.12.758h.583l-.132.741c-.161,0-.315,0-.469,0-.1,0-.135.03-.148.128-.031.223-.08.444-.115.666-.044.28.063.375.334.3.049-.013.1-.029.168-.05.027.207.059.408.074.611a.18.18,0,0,1-.1.136,1.592,1.592,0,0,1-1,.087.571.571,0,0,1-.473-.6c.016-.352.085-.7.132-1.051.009-.069.02-.137.032-.224" transform="translate(-154.556)"/>
    <path id="Trazado_67150" data-name="Trazado 67150" d="M301.14,18.121l-.588.537a.675.675,0,0,0-1.005.119.609.609,0,0,0-.027.688.577.577,0,0,0,.678.1c.081-.036.155-.088.245-.141l.433.554a1.751,1.751,0,0,1-1.848.317,1.106,1.106,0,0,1-.535-1.338,1.606,1.606,0,0,1,1.534-1.241,1.213,1.213,0,0,1,1.115.4" transform="translate(-286.903 -17.029)"/>
    <path id="Trazado_67151" data-name="Trazado 67151" d="M606.423,134.354c.776-.034,1.07-.515,1.234-1.133a7.208,7.208,0,0,0,.184-2.031c-.02-.869.011-1.74.016-2.61q.014-2.416.022-4.833c0-.142,0-.284-.009-.425a.427.427,0,0,0-.418-.465c-.229-.037-.46-.06-.689-.1s-.238-.077-.107-.257c.389-.538.783-1.073,1.176-1.608.611-.831,1.226-1.659,1.832-2.493a.451.451,0,0,1,.414-.213q1.973.013,3.945,0c.206,0,.28.076.3.257.008.1.018.193.018.289,0,.226,0,.452-.012.677a2.794,2.794,0,0,0,.276,1.575c.176.313.012.629-.017.942-.032.351-.1.7-.124,1.05-.2,2.541-.04,5.087-.1,7.629a5.919,5.919,0,0,1-.432,2.109,4.893,4.893,0,0,1-1.415,1.737,4.048,4.048,0,0,1-2.265.847,5.258,5.258,0,0,1-3.656-.817c-.042-.027-.08-.06-.168-.126" transform="translate(-583.376 -113.612)" fill="#e4e4e4"/>
  </g>
</svg>
