<svg id="azteca_siete" xmlns="http://www.w3.org/2000/svg" xmlns:xlink="http://www.w3.org/1999/xlink" width="25.962" height="27.458" viewBox="0 0 25.962 27.458">
  <defs>
    <clipPath id="clip-path">
      <rect id="Rectángulo_23325" data-name="Rectángulo 23325" width="25.962" height="27.458" fill="none"/>
    </clipPath>
  </defs>
  <g id="Grupo_31936" data-name="Grupo 31936" clip-path="url(#clip-path)">
    <path id="Trazado_67108" data-name="Trazado 67108" d="M20.2,0H5.763A5.763,5.763,0,0,0,0,5.764v20.2c0,.9.491,1.5,1.246,1.5.737,0,1.2-.534,1.767-1.3l2.355-3.224h0c5.986-8.172,9.658-14.011,9.658-14.011S10.113,8.314,8.46,8.12c-1.272-.15-2.2-.731-2.2-2.064V5.188H18.945a1.393,1.393,0,0,1,1.467,1.432,6.083,6.083,0,0,1-.7,1.9c-1.636,3.465-6.507,13.76-6.817,14.415H20.2a5.763,5.763,0,0,0,5.763-5.763V5.764A5.763,5.763,0,0,0,20.2,0" fill="#231f20"/>
    <path id="Trazado_67109" data-name="Trazado 67109" d="M20.2,0H5.763A5.763,5.763,0,0,0,0,5.764v20.2c0,.9.491,1.5,1.246,1.5.737,0,1.2-.534,1.767-1.3l2.355-3.224h0c5.986-8.172,9.658-14.011,9.658-14.011S10.113,8.314,8.46,8.12c-1.272-.15-2.2-.731-2.2-2.064V5.188H18.945a1.393,1.393,0,0,1,1.467,1.432,6.083,6.083,0,0,1-.7,1.9c-1.636,3.465-6.507,13.76-6.817,14.415H20.2a5.763,5.763,0,0,0,5.763-5.763V5.764A5.763,5.763,0,0,0,20.2,0" fill="#231f20"/>
    <path id="Trazado_67110" data-name="Trazado 67110" d="M147.226,331.966h.018l.121-.217h.529c-.1.594-.188,1.215-.188,1.329a.085.085,0,0,0,.092.1.261.261,0,0,0,.132-.046l-.053.39a.865.865,0,0,1-.366.083c-.213,0-.426-.036-.483-.278a.715.715,0,0,1-.529.278c-.44,0-.608-.324-.608-.722,0-.511.246-1.165.853-1.165a.563.563,0,0,1,.483.252m-.565.44c-.075.526-.075.54-.075.554a.191.191,0,0,0,.188.209.258.258,0,0,0,.256-.249l.036-.256c.018-.132.039-.27.039-.3a.18.18,0,0,0-.188-.206.271.271,0,0,0-.256.249" transform="translate(-134.741 -306.365)" fill="#231f20"/>
    <path id="Trazado_67111" data-name="Trazado 67111" d="M175.249,332.385l-.835,1.162h.7l-.061.44h-1.6l.028-.224.828-1.151h-.629l.06-.441h1.539Z" transform="translate(-160.196 -306.788)" fill="#231f20"/>
    <path id="Trazado_67112" data-name="Trazado 67112" d="M199.945,325.173h.426l-.071.5h-.427c-.1.7-.1.718-.1.738,0,.153.075.178.178.178a.761.761,0,0,0,.224-.042l-.057.4a1.775,1.775,0,0,1-.486.079c-.352,0-.586-.1-.586-.4,0-.078,0-.064.128-.948h-.2l.071-.5h.2l.081-.579h.743Z" transform="translate(-183.766 -299.789)" fill="#231f20"/>
    <path id="Trazado_67113" data-name="Trazado 67113" d="M219.6,332.392l-.008.1c0,.053-.014.131-.032.263h-1.183l-.015.089a.662.662,0,0,0-.014.121c0,.138.1.209.242.209a.3.3,0,0,0,.3-.288h.65a.911.911,0,0,1-.987.718H218.5c-.511,0-.881-.274-.881-.747a1.064,1.064,0,0,1,1.122-1.14h.089c.508,0,.771.277.771.678m-1.173,0-.007.05h.491c0-.015.007-.039.007-.082a.205.205,0,0,0-.209-.217.288.288,0,0,0-.281.249" transform="translate(-200.986 -306.365)" fill="#231f20"/>
    <path id="Trazado_67114" data-name="Trazado 67114" d="M247.4,332.357a.777.777,0,0,1-.011.128h-.6c0-.05.011-.1.011-.124a.205.205,0,0,0-.21-.217.269.269,0,0,0-.281.249,5.26,5.26,0,0,0-.078.565.211.211,0,0,0,.238.213.285.285,0,0,0,.3-.249l.014-.092h.562a.885.885,0,0,1-.956.772c-.6,0-.88-.352-.88-.739a1.063,1.063,0,0,1,1.1-1.147c.664,0,.792.39.792.642" transform="translate(-226.745 -306.366)" fill="#231f20"/>
    <path id="Trazado_67115" data-name="Trazado 67115" d="M273.294,331.966h.017l.121-.217h.529c-.1.594-.188,1.215-.188,1.329a.085.085,0,0,0,.093.1.257.257,0,0,0,.131-.046l-.054.39a.861.861,0,0,1-.366.083c-.213,0-.426-.036-.483-.278a.713.713,0,0,1-.529.278c-.44,0-.607-.324-.607-.722,0-.511.245-1.165.853-1.165a.563.563,0,0,1,.483.252m-.565.44c-.075.526-.075.54-.075.554a.191.191,0,0,0,.189.209.257.257,0,0,0,.255-.249l.036-.256c.018-.132.039-.27.039-.3a.181.181,0,0,0-.188-.206.27.27,0,0,0-.256.249" transform="translate(-251.176 -306.365)" fill="#231f20"/>
  </g>
</svg>
