<svg xmlns="http://www.w3.org/2000/svg" width="53" height="50" viewBox="0 0 53 50"><defs><style>.a{fill:none;}.b,.c{fill:#70338a;}.c{font-size:9px;font-family:Helvetica;letter-spacing:0.04em;}</style></defs><g transform="translate(-296 -1450)"><rect class="a" width="53" height="50" rx="5" transform="translate(296 1450)"/><g transform="translate(304 1456)"><g transform="translate(0 0)"><path class="b" d="M-779.62,1740.689a1.568,1.568,0,0,1,.511-1.048,1.509,1.509,0,0,1,1.072-.433h12.617a1.541,1.541,0,0,1,1.126.458,1.538,1.538,0,0,1,.46,1.124,1.537,1.537,0,0,1-.46,1.125,1.542,1.542,0,0,1-1.126.458h-11.29l-1.326,8.123a11.232,11.232,0,0,1,4.9-1.123,10.726,10.726,0,0,1,4.34.893,11.556,11.556,0,0,1,3.578,2.427,11.592,11.592,0,0,1,2.427,3.576,10.738,10.738,0,0,1,.892,4.342,10.738,10.738,0,0,1-.892,4.341,11.6,11.6,0,0,1-2.427,3.576,11.542,11.542,0,0,1-3.578,2.427,10.692,10.692,0,0,1-4.34.894,10.819,10.819,0,0,1-5.9-1.66,11.762,11.762,0,0,1-4.113-4.369,2.316,2.316,0,0,1-.356-1.276,1.518,1.518,0,0,1,.356-1,1.318,1.318,0,0,1,1.075-.435,1.6,1.6,0,0,1,1.046.411,3.409,3.409,0,0,1,.791.969,7.919,7.919,0,0,0,2.912,3.04,7.915,7.915,0,0,0,4.189,1.148,7.738,7.738,0,0,0,3.142-.638,8.247,8.247,0,0,0,2.553-1.737,8.284,8.284,0,0,0,1.737-2.555,7.712,7.712,0,0,0,.641-3.141,7.711,7.711,0,0,0-.641-3.141,8.294,8.294,0,0,0-1.737-2.555,8.259,8.259,0,0,0-2.553-1.737,7.734,7.734,0,0,0-3.142-.638,12.276,12.276,0,0,0-1.482.1,8.417,8.417,0,0,0-1.586.358,6.867,6.867,0,0,0-1.427.665,3.428,3.428,0,0,0-1.075,1.021,7.546,7.546,0,0,1-.766.919,1.309,1.309,0,0,1-.971.358,1.315,1.315,0,0,1-1.021-.458,1.508,1.508,0,0,1-.41-1.023.3.3,0,0,1,.03-.153.364.364,0,0,0,.025-.153Z" transform="translate(785.645 -1737.065)"/><path class="b" d="M-774.155,1772.969a12.985,12.985,0,0,1-7.043-1.99,13.936,13.936,0,0,1-4.849-5.153,4.3,4.3,0,0,1-.62-2.3,3.669,3.669,0,0,1,.845-2.36,3.716,3.716,0,0,1,5.151-.3,5.587,5.587,0,0,1,1.293,1.576,5.758,5.758,0,0,0,2.146,2.243,6,6,0,0,0,5.357.38,6.123,6.123,0,0,0,1.9-1.291,6.142,6.142,0,0,0,1.289-1.9,5.521,5.521,0,0,0,.46-2.279,5.5,5.5,0,0,0-.46-2.276,6.11,6.11,0,0,0-1.289-1.9,6.124,6.124,0,0,0-1.9-1.289,6.307,6.307,0,0,0-3.5-.374,6.34,6.34,0,0,0-1.18.267,4.7,4.7,0,0,0-.971.452,1.316,1.316,0,0,0-.419.387,9.77,9.77,0,0,1-1.042,1.251,3.4,3.4,0,0,1-2.478.98,3.461,3.461,0,0,1-2.62-1.176,3.641,3.641,0,0,1-.954-2.448l.151-.9,2.117-13.165a3.7,3.7,0,0,1,1.167-2.336,3.644,3.644,0,0,1,2.54-1.015h12.617a3.678,3.678,0,0,1,2.632,1.076,3.67,3.67,0,0,1,1.1,2.649,3.656,3.656,0,0,1-1.084,2.636,3.683,3.683,0,0,1-2.645,1.09h-9.47l-.473,2.9a13.209,13.209,0,0,1,7.428.887,13.72,13.72,0,0,1,4.235,2.875,13.852,13.852,0,0,1,2.875,4.228,12.934,12.934,0,0,1,1.071,5.2,12.881,12.881,0,0,1-1.071,5.2,13.788,13.788,0,0,1-2.875,4.235,13.716,13.716,0,0,1-4.235,2.875A12.879,12.879,0,0,1-774.155,1772.969ZM-782,1753.063l0,0Z" transform="translate(786.667 -1736.043)"/></g><text class="c" transform="translate(34.309 37.676) rotate(-90)"><tspan x="0" y="0">CINCO</tspan></text></g></g></svg>