<svg xmlns="http://www.w3.org/2000/svg" width="70" height="50" viewBox="0 0 70 50"><defs><style>.a{fill:#f26311;}.b{fill:#ffa800;}.c{fill:#586eb3;}.d{fill:#b8babc;}.e{fill:none;}</style></defs><g transform="translate(-938 -1450)"><g transform="translate(943 1458)"><path class="a" d="M-886.862,1943.8a8.254,8.254,0,0,1-6.341-2.789,8.233,8.233,0,0,0-6.273-2.8h-.189c-2.746.007-4.969,1.89-4.969,4.185,0,2.374,2.309,4.2,5.082,4.2a3.122,3.122,0,0,0,3.388-2.786c0-1.541-1.5-2.809-3.467-2.809a3.36,3.36,0,0,0-1.409.285l-.331-.171.26-.216a4.873,4.873,0,0,1,1.567-.252c1.831,0,3.741,1.058,4.133,2.818a3.324,3.324,0,0,1-.189,1.924,8.7,8.7,0,0,0,4.488,1.207,8.073,8.073,0,0,0,6.6-3.1,7.816,7.816,0,0,1-2.351.305" transform="translate(933.752 -1932.619)"/><path class="b" d="M-916.677,1957.915a8.231,8.231,0,0,0,6.348-2.8,8.294,8.294,0,0,1,6.288-2.8h.17c2.742.024,5,1.889,5,4.182,0,2.389-2.332,4.212-5.078,4.212a3.116,3.116,0,0,1-3.4-2.8c0-1.528,1.477-2.8,3.444-2.8a3.524,3.524,0,0,1,1.424.278l.325-.18-.275-.215a4.635,4.635,0,0,0-1.526-.243c-1.865,0-3.768,1.058-4.152,2.814a3.206,3.206,0,0,0,.181,1.928,8.624,8.624,0,0,1-4.487,1.214,8.13,8.13,0,0,1-6.608-3.119,7.962,7.962,0,0,0,2.351.319" transform="translate(938.163 -1936.942)"/><path class="c" d="M-931.327,1949.847a8.234,8.234,0,0,0,6.359-2.8,8.219,8.219,0,0,1,6.269-2.8h.166c2.772.011,5,1.881,5,4.189,0,2.381-2.332,4.211-5.09,4.211a3.126,3.126,0,0,1-3.4-2.8c0-1.512,1.481-2.8,3.463-2.8a3.566,3.566,0,0,1,1.417.277l.327-.168-.259-.207a4.438,4.438,0,0,0-1.556-.244c-1.85,0-3.76,1.052-4.141,2.8a3.211,3.211,0,0,0,.178,1.928,8.6,8.6,0,0,1-4.492,1.211,8.088,8.088,0,0,1-6.585-3.105,8.257,8.257,0,0,0,2.34.3" transform="translate(942.649 -1934.469)"/><path class="d" d="M-892.24,1938.736c-4.973-5.232-12.693-8.589-21.35-8.589a29.731,29.731,0,0,0-20.273,7.516,42.812,42.812,0,0,1,19.832-4.728,42.62,42.62,0,0,1,21.791,5.8" transform="translate(942.709 -1930.148)"/><path d="M-942.341,1971.73a1.672,1.672,0,0,0-1.778-1.172,2.016,2.016,0,0,0-2.177,2.038,2.011,2.011,0,0,0,2.177,2.037,1.842,1.842,0,0,0,1.88-1.553h.305a2.1,2.1,0,0,1-2.185,1.79,2.27,2.27,0,0,1-2.5-2.275,2.27,2.27,0,0,1,2.5-2.27c1.865,0,2.1,1.344,2.1,1.4h-.32" transform="translate(946.617 -1942.459)"/><path d="M-937.054,1973.536c-.222.212-.832.179-1.363.252-.675.06-1.033.25-1.033.724,0,.369.328.666.976.666,1.277,0,1.42-.894,1.42-1.062v-.58m.28,1.2.252.38.211-.026v.2l-.226.012c-.456,0-.517-.189-.517-.448v-.162h-.011a1.532,1.532,0,0,1-1.416.678c-.7,0-1.258-.218-1.258-.865,0-.731.764-.888,1.394-.94,1.25-.069,1.3-.141,1.3-.659,0-.122-.2-.6-1.051-.6-.663,0-1.126.3-1.164.827h-.283c.03-.67.546-1.036,1.447-1.036.66,0,1.323.189,1.323.808Z" transform="translate(944.51 -1943.004)"/><path d="M-934.7,1972.194h.271v.658h.026a1.419,1.419,0,0,1,1.346-.741c1.33,0,1.345.89,1.345,1.277v1.921H-932v-1.971c0-.31-.049-1.024-1.066-1.024a1.261,1.261,0,0,0-1.372,1.316v1.678h-.271v-3.116" transform="translate(942.967 -1943.007)"/><path d="M-927.322,1973.536c-.211.212-.814.179-1.357.252-.671.06-1.039.25-1.039.724,0,.369.327.666.994.666,1.262,0,1.4-.894,1.4-1.062v-.58m.29,1.2.241.38.211-.026v.2l-.226.012c-.445,0-.516-.189-.516-.448v-.162a1.538,1.538,0,0,1-1.409.678c-.7,0-1.27-.218-1.27-.865,0-.731.776-.888,1.394-.94,1.255-.069,1.3-.141,1.3-.659,0-.122-.2-.6-1.047-.6-.682,0-1.131.3-1.168.827h-.275c.041-.67.565-1.036,1.443-1.036.648,0,1.323.189,1.323.808Z" transform="translate(941.526 -1943.004)"/><rect width="0.264" height="4.346" transform="translate(15.089 27.957)"/><path d="M-918.472,1973.247a1.347,1.347,0,0,0-1.4-1.437,1.33,1.33,0,0,0-1.409,1.437,1.34,1.34,0,0,0,1.421,1.427,1.332,1.332,0,0,0,1.39-1.427m0,.9h-.007a1.554,1.554,0,0,1-1.44.733,1.511,1.511,0,0,1-1.635-1.63,1.539,1.539,0,0,1,1.681-1.644,1.461,1.461,0,0,1,1.394.777h.007v-1.921h.3v4.344h-.3Z" transform="translate(938.937 -1942.5)"/><path d="M-913.13,1973.572a1.3,1.3,0,0,0-1.383-1.259,1.391,1.391,0,0,0-1.387,1.259h2.769m-2.769.216a1.293,1.293,0,0,0,1.387,1.39,1.25,1.25,0,0,0,1.353-.931h.283a1.477,1.477,0,0,1-1.635,1.13,1.51,1.51,0,0,1-1.669-1.569,1.6,1.6,0,0,1,1.669-1.7,1.5,1.5,0,0,1,1.657,1.683Z" transform="translate(937.291 -1943.004)"/><rect width="0.279" height="4.346" transform="translate(24.797 27.957)"/><path d="M-903.811,1971.986c-.064-.429-.479-.666-1.058-.666a1.168,1.168,0,0,0-1.213,1.283,1.174,1.174,0,0,0,1.213,1.3c.644,0,1.01-.3,1.058-.806h1.364c-.064,1.112-1.059,1.777-2.4,1.777a2.4,2.4,0,0,1-2.622-2.272,2.377,2.377,0,0,1,2.622-2.254c1.13,0,2.366.6,2.4,1.636h-1.364" transform="translate(934.621 -1942.467)"/><path d="M-898.034,1974.606c.569,0,.757-.474.757-.888a.781.781,0,0,0-.757-.88.777.777,0,0,0-.761.88c0,.414.181.888.761.888m0-2.543a1.8,1.8,0,0,1,2.011,1.655,1.805,1.805,0,0,1-2.011,1.682,1.8,1.8,0,0,1-2-1.682,1.8,1.8,0,0,1,2-1.655" transform="translate(932.344 -1942.991)"/><path d="M-893.83,1972.139h1.214v.441h.014a1.548,1.548,0,0,1,1.213-.518c1.262,0,1.364.762,1.364,1.222v2.01h-1.262v-1.52c0-.427.065-.875-.617-.875a.642.642,0,0,0-.675.683v1.712h-1.251v-3.156" transform="translate(930.442 -1942.991)"/><path d="M-886.021,1972.85a.709.709,0,0,0-.731.8.691.691,0,0,0,.716.738.692.692,0,0,0,.765-.738.714.714,0,0,0-.75-.8m1.933,2.057c0,.537-.117,1.494-1.911,1.494-.877,0-1.714-.162-1.857-1h1.24l.218.257.452.079c.614,0,.659-.345.659-.744v-.3h-.015a1.262,1.262,0,0,1-1.017.461,1.472,1.472,0,0,1-1.677-1.546,1.536,1.536,0,0,1,1.677-1.55,1.172,1.172,0,0,1,1.025.476h.008v-.4h1.2Z" transform="translate(928.654 -1942.991)"/><path d="M-881.662,1972.146h1.213v.569h.015a1.157,1.157,0,0,1,1.134-.629l.294.034v.943l-.478-.055c-.6,0-.927.347-.927.737v1.557h-1.251v-3.155" transform="translate(926.713 -1942.999)"/><path d="M-875.4,1973.406a.709.709,0,0,0-.753-.639.764.764,0,0,0-.792.639h1.544m-1.544.571a.745.745,0,0,0,.847.717l.712-.357h1.175a1.823,1.823,0,0,1-1.894,1.063c-1.255,0-2.1-.629-2.1-1.688a1.863,1.863,0,0,1,2.05-1.65,1.765,1.765,0,0,1,2,1.915Z" transform="translate(925.655 -1942.991)"/><path d="M-871.112,1974.255l.2.353.46.12.588-.345-.6-.325c-.806-.164-1.771-.193-1.771-1.04,0-.745.98-.957,1.741-.957.813,0,1.706.2,1.752,1.021H-869.9l-.158-.278-.392-.083-.546.239c0,.3.843.349,1.424.454.769.136.953.588.953.86,0,.854-.953,1.126-1.824,1.126-.893,0-1.83-.251-1.86-1.145h1.19" transform="translate(923.845 -1942.991)"/><path d="M-864.893,1974.606c.6,0,.753-.474.753-.888,0-.394-.158-.88-.753-.88-.573,0-.742.486-.742.88,0,.414.169.888.742.888m0-2.543a1.8,1.8,0,0,1,2.019,1.655,1.8,1.8,0,0,1-2.019,1.682,1.805,1.805,0,0,1-2-1.682,1.8,1.8,0,0,1,2-1.655" transform="translate(922.189 -1942.991)"/></g><rect class="e" width="70" height="50" rx="5" transform="translate(938 1450)"/></g></svg>