<svg xmlns="http://www.w3.org/2000/svg" width="53" height="50" viewBox="0 0 53 50"><defs><style>.a{fill:#007cc3;}.b{fill:#e61335;}.c{fill:#0e0d0d;}.d{fill:#0b0b0b;}.e{fill:#121111;}.f{fill:none;}</style></defs><g transform="translate(-877 -1450)"><g transform="translate(886 1453)"><g transform="translate(9.842)"><path class="a" d="M-775,1829.758a.284.284,0,0,0,.238.156,6.781,6.781,0,0,1,4.931,3.651,6.682,6.682,0,0,1,.754,3.8,6.821,6.821,0,0,1-1.975,4.325,6.9,6.9,0,0,1-3.812,2.023,6.7,6.7,0,0,1-3.88-.424,6.945,6.945,0,0,1-3.657-3.364,6.717,6.717,0,0,1-.679-3.915,7.023,7.023,0,0,1,1.388-3.49,6.712,6.712,0,0,1,4.319-2.627c.094-.016.137-.052.139-.141Z" transform="translate(783.135 -1829.758)"/><path class="b" d="M-769.529,1856.262c0,2-.006,4,.006,6,0,.279-.058.366-.356.365q-6-.016-12,0c-.322,0-.369-.106-.369-.391q.013-5.964,0-11.926c0-.311.064-.407.394-.406q5.963.019,11.927,0c.359,0,.411.114.41.433C-769.537,1852.313-769.53,1854.287-769.529,1856.262Z" transform="translate(782.923 -1834.594)"/></g><g transform="translate(0 32.499)"><path class="c" d="M-786.712,1875.2c-.4.622-.8,1.224-1.189,1.828-.286.441-.285.441-.575,0-.4-.6-.792-1.188-1.191-1.787-.1.054-.05.151-.05.224,0,.928-.009,1.856,0,2.785,0,.214-.034.311-.277.3-.366-.021-.734-.01-1.1,0-.15,0-.231-.014-.23-.2q.01-2.737,0-5.473c0-.155.046-.208.2-.2q.663.012,1.328,0a.385.385,0,0,1,.349.239c.369.6.738,1.2,1.1,1.807.11.187.172.252.312.015.382-.642.791-1.268,1.174-1.911a.276.276,0,0,1,.284-.15c.421.005.842.01,1.263,0,.2-.006.28.04.278.266q-.015,2.671,0,5.344c0,.2-.042.286-.264.275-.366-.019-.735-.017-1.1,0-.2.008-.253-.053-.251-.253.011-.918.007-1.835,0-2.753A.448.448,0,0,0-786.712,1875.2Z" transform="translate(794.943 -1872.558)"/><path class="c" d="M-752.9,1875.82c0-.994.011-1.9-.006-2.8-.005-.272.043-.39.347-.363a8.574,8.574,0,0,0,1.036,0c.188-.007.235.063.235.243q-.009,2.673,0,5.346c0,.231-.079.291-.3.295-1.163.015-1.157.015-1.918-1-.549-.731-1.119-1.444-1.736-2.237v.583c0,.778-.007,1.555,0,2.332,0,.23-.048.338-.3.324-.356-.019-.714-.012-1.069,0-.178.005-.242-.04-.242-.231q.01-2.706,0-5.41c0-.185.054-.252.238-.241a2.531,2.531,0,0,0,.614,0c.532-.1.812.194,1.1.578C-754.269,1874.089-753.6,1874.914-752.9,1875.82Z" transform="translate(786.667 -1872.551)"/><path class="d" d="M-767.8,1876.431c0,.345-.011.691.005,1.036a.441.441,0,0,1-.2.409,3.784,3.784,0,0,1-4.133.256,2.784,2.784,0,0,1-1.391-2.393,2.938,2.938,0,0,1,1.279-2.65,3.6,3.6,0,0,1,4.016.1c.167.129.209.216.072.377-.221.261-.44.522-.653.79-.112.142-.217.1-.327.009a1.851,1.851,0,0,0-1-.4,1.624,1.624,0,0,0-1.641,2.262,1.656,1.656,0,0,0,2.255.861.759.759,0,0,0,.211-.784c-.055-.07-.14-.043-.213-.045-.259,0-.518-.007-.777,0-.144.005-.2-.048-.179-.186,0-.011,0-.021,0-.032.005-.312-.107-.718.048-.91s.587-.053.9-.061c.5-.012.993,0,1.49-.006.178,0,.248.04.24.231C-767.813,1875.675-767.8,1876.053-767.8,1876.431Z" transform="translate(790.669 -1872.523)"/><path class="c" d="M-764.541,1875.6c0-.886.007-1.772-.005-2.657,0-.214.057-.272.269-.271q2.105.012,4.212,0c.209,0,.287.049.271.269a5.756,5.756,0,0,0,0,.842c.018.239-.077.282-.293.279-.853-.011-1.707,0-2.559-.01-.233,0-.316.043-.309.3.018.578,0,.578.569.578.616,0,1.231.006,1.847,0,.183,0,.247.05.237.236a7.988,7.988,0,0,0,0,.809c.011.211-.064.287-.277.284-.713-.01-1.426,0-2.139,0-.062,0-.174-.024-.181-.006a1.938,1.938,0,0,0-.036.83c.014.178.207.113.325.113.853,0,1.707.01,2.559,0,.238,0,.341.064.314.31-.038.339.149.774-.08.995-.211.2-.638.059-.97.061-1.145.008-2.29-.005-3.434.009-.266,0-.329-.083-.324-.334C-764.532,1877.345-764.541,1876.471-764.541,1875.6Z" transform="translate(788.515 -1872.558)"/><path class="d" d="M-782.3,1878.531c.269-.648.518-1.258.776-1.865.543-1.277,1.1-2.55,1.627-3.833a.313.313,0,0,1,.356-.227,7.648,7.648,0,0,0,.971,0c.276-.027.385.114.473.327q.5,1.215,1.008,2.427c.4.945.8,1.886,1.2,2.832.144.341.138.344-.223.344h-.745c-.637,0-.664.008-.855-.613a.544.544,0,0,0-.659-.455c-.527.037-1.058.017-1.587.006a.29.29,0,0,0-.327.228c-.1.28-.153.651-.358.795s-.562.037-.853.04C-781.75,1878.532-782.005,1878.531-782.3,1878.531Zm3.253-4.018-.656,1.689c.408,0,.774,0,1.141,0,.094,0,.212.023.142-.147C-778.62,1875.565-778.816,1875.074-779.044,1874.513Z" transform="translate(792.776 -1872.541)"/><path class="d" d="M-793.587,1875.612c0,.894-.005,1.79,0,2.685,0,.189-.035.266-.245.256-.377-.019-.755-.015-1.132,0-.173.005-.215-.051-.214-.218q.008-2.718,0-5.435c0-.193.068-.235.243-.229.366.011.734.015,1.1,0,.208-.01.251.066.249.26C-793.592,1873.822-793.587,1874.717-793.587,1875.612Z" transform="translate(795.867 -1872.558)"/><path class="e" d="M-758.605,1887.272a2.015,2.015,0,0,1-2.09-2.07,2.034,2.034,0,0,1,2.085-2.058,2.03,2.03,0,0,1,2.112,2.058A2.059,2.059,0,0,1-758.605,1887.272Zm1.349-2.069a1.363,1.363,0,0,0-1.329-1.429,1.336,1.336,0,0,0-1.39,1.437,1.333,1.333,0,0,0,1.352,1.454A1.3,1.3,0,0,0-757.256,1885.2Z" transform="translate(787.59 -1875.073)"/><path class="c" d="M-753.528,1884.438v1.967a3.948,3.948,0,0,0,0,.485c.033.264-.05.357-.329.343-.225-.011-.316-.039-.313-.3.016-1.133.005-2.266.01-3.4,0-.117-.064-.307.12-.316s.4-.115.565.1c.573.744,1.152,1.482,1.73,2.222l.335.431c.109-.055.056-.154.057-.226,0-.766.018-1.533-.005-2.3-.008-.295.162-.24.325-.239s.335-.065.33.232c-.018,1.143,0,2.287-.011,3.431,0,.115.081.309-.076.334-.194.031-.426.1-.594-.113-.661-.863-1.327-1.722-1.99-2.584C-753.4,1884.474-753.408,1884.429-753.528,1884.438Z" transform="translate(786.023 -1875.082)"/><path class="c" d="M-780.861,1885.234c0-.583.007-1.166,0-1.749,0-.21.063-.282.277-.28.81.01,1.619.015,2.429,0,.249-.006.262.109.242.287-.018.158.1.377-.235.366-.593-.021-1.187,0-1.78-.011-.205-.005-.248.061-.248.256,0,.8-.009.8.771.8.346,0,.692.019,1.037-.005.295-.021.233.165.239.33s.028.335-.251.323c-.506-.022-1.014,0-1.521-.01-.2-.005-.3.033-.273.261.034.275-.119.643.065.8.155.136.512.044.78.047.41,0,.821.017,1.23-.005.242-.014.261.1.248.285-.011.155.049.315-.228.309-.852-.019-1.705-.014-2.558,0-.2,0-.226-.083-.223-.249C-780.857,1886.4-780.861,1885.817-780.861,1885.234Z" transform="translate(792.432 -1875.087)"/><path class="e" d="M-790.8,1885.233c0-.583.008-1.167,0-1.75,0-.215.071-.281.281-.279.81.009,1.621.017,2.43,0,.283-.007.25.149.246.324s.046.342-.245.331c-.583-.022-1.167,0-1.75-.011-.22-.007-.263.066-.262.27,0,.781,0,.781.784.781.346,0,.692.013,1.036,0,.3-.016.2.189.2.325s.087.334-.2.325c-.518-.017-1.037,0-1.555-.008-.18,0-.282.016-.262.238.026.277-.086.642.053.813s.526.049.8.056c.41.01.822.017,1.231,0,.246-.012.223.129.218.281s.052.318-.222.312c-.853-.017-1.707-.012-2.56,0-.2,0-.226-.08-.223-.248C-790.8,1886.4-790.8,1885.817-790.8,1885.233Z" transform="translate(794.819 -1875.086)"/><path class="e" d="M-766.231,1887.277a2.664,2.664,0,0,1-1.5-.485c-.222-.152-.106-.234,0-.341s.125-.383.4-.171a1.516,1.516,0,0,0,1.4.353c.21-.061.4-.159.418-.42a.486.486,0,0,0-.364-.539c-.379-.14-.784-.186-1.16-.35a1.008,1.008,0,0,1-.726-1.082,1.216,1.216,0,0,1,.958-1.033,2.3,2.3,0,0,1,1.626.283c.145.084.286.189.1.366-.117.111-.127.389-.432.189a1.3,1.3,0,0,0-1.278-.186.417.417,0,0,0-.284.423.414.414,0,0,0,.3.41c.352.114.711.209,1.057.338.724.271.994.657.9,1.247a1.293,1.293,0,0,1-1.35,1Z" transform="translate(789.309 -1875.078)"/><path class="e" d="M-776.141,1883.207a3.38,3.38,0,0,0,.386,0c.282-.036.416.079.517.352.334.91.7,1.806,1.086,2.771l.742-1.885c.117-.3.26-.589.348-.895a.4.4,0,0,1,.51-.344,2.492,2.492,0,0,0,.355,0c-.215.539-.412,1.043-.618,1.544-.3.741-.618,1.479-.923,2.218-.075.181-.13.337-.392.325a.426.426,0,0,1-.451-.307C-775.081,1885.74-775.6,1884.5-776.141,1883.207Z" transform="translate(791.298 -1875.085)"/><path class="e" d="M-794.784,1885.515c0-.475-.012-.95.006-1.424.008-.21-.065-.255-.256-.244-.269.015-.54-.005-.809.007-.181.008-.27-.048-.236-.235.027-.156-.108-.407.208-.408q1.441-.005,2.88,0c.321,0,.173.256.2.411.036.185-.052.242-.234.232-.258-.014-.519.018-.775-.009s-.295.077-.292.306c.013.927-.008,1.855.014,2.783.007.287-.114.311-.337.3-.2-.012-.4.05-.38-.292C-794.76,1886.466-794.784,1885.99-794.784,1885.515Z" transform="translate(796.086 -1875.088)"/><path class="e" d="M-785.607,1885.252c0-.594.012-1.189-.005-1.782-.01-.334.211-.249.391-.261s.325-.024.319.252c-.017.95,0,1.9-.013,2.85,0,.234.066.287.288.279.528-.017,1.059.008,1.587-.011.321-.01.259.2.277.386.022.223-.071.268-.276.266q-1.15-.017-2.3,0c-.2,0-.28-.041-.274-.263C-785.6,1886.4-785.607,1885.824-785.607,1885.252Z" transform="translate(793.572 -1875.087)"/><path class="d" d="M-762,1885.224c0,.593-.014,1.186.007,1.778.01.277-.158.237-.309.218s-.388.135-.385-.207q.014-1.778,0-3.556c0-.371.262-.215.433-.247s.265.022.258.236C-762.014,1884.038-762,1884.631-762,1885.224Z" transform="translate(788.069 -1875.086)"/><path class="d" d="M-769.349,1885.266c0,.571-.018,1.144.008,1.715.014.318-.183.242-.352.245s-.355.057-.35-.252c.018-1.164.015-2.331,0-3.5,0-.292.163-.267.354-.271s.353-.006.344.278C-769.362,1884.078-769.349,1884.672-769.349,1885.266Z" transform="translate(789.834 -1875.088)"/><path class="e" d="M-757.827,1882.474c-.126-.012-.328.016-.36-.045-.07-.135.125-.215.178-.337.171-.4.5-.427.872-.38.082.01.186-.017.13.134A1.08,1.08,0,0,1-757.827,1882.474Z" transform="translate(786.992 -1874.725)"/></g></g><rect class="f" width="53" height="50" rx="5" transform="translate(877 1450)"/></g></svg>