<svg xmlns="http://www.w3.org/2000/svg" width="93" height="50" viewBox="0 0 93 50"><defs><style>.a{fill:#5d1d7d;}.b{fill:none;}</style></defs><g transform="translate(-675 -1450)"><g transform="translate(680 1460)"><g transform="translate(27.162 13.259)"><path class="a" d="M-654.349,1849.459h1.392l0,8.691h-1.393Z" transform="translate(654.426 -1849.383)"/><path class="a" d="M-652.969,1858.21h-1.393a.074.074,0,0,1-.076-.075l0-8.691a.075.075,0,0,1,.077-.076h1.392a.072.072,0,0,1,.074.075l0,8.691A.074.074,0,0,1-652.969,1858.21Zm-1.318-.148h1.241l0-8.543h-1.241Z" transform="translate(654.441 -1849.368)"/></g><g transform="translate(30.391 15.42)"><path class="a" d="M-649.079,1852.172v.815a2.845,2.845,0,0,1,2.089-.939,2.425,2.425,0,0,1,1.2.31,2.07,2.07,0,0,1,.846.847,3.76,3.76,0,0,1,.293,1.709l0,3.66h-1.373v-3.647a2.347,2.347,0,0,0-.326-1.4,1.286,1.286,0,0,0-1.086-.421,2.007,2.007,0,0,0-1.649.9v4.573h-1.4l0-6.4Z" transform="translate(650.557 -1851.972)"/><path class="a" d="M-644.66,1858.635h-1.373a.074.074,0,0,1-.075-.075v-3.647a2.317,2.317,0,0,0-.308-1.359,1.233,1.233,0,0,0-1.028-.389,1.932,1.932,0,0,0-1.573.85l0,4.545a.074.074,0,0,1-.076.075h-1.4a.074.074,0,0,1-.077-.075l0-6.406a.074.074,0,0,1,.077-.073h1.4a.075.075,0,0,1,.076.074v.638a2.877,2.877,0,0,1,2.013-.837,2.546,2.546,0,0,1,1.241.317,2.166,2.166,0,0,1,.877.881,3.869,3.869,0,0,1,.3,1.744v3.66A.075.075,0,0,1-644.66,1858.635Zm-1.3-.148h1.22V1854.9a3.75,3.75,0,0,0-.28-1.672,2.039,2.039,0,0,0-.819-.818,2.357,2.357,0,0,0-1.168-.3,2.794,2.794,0,0,0-2.037.916.075.075,0,0,1-.082.018.08.08,0,0,1-.046-.071v-.739h-1.251l0,6.256h1.252l0-4.5a.077.077,0,0,1,.015-.046,2.092,2.092,0,0,1,1.71-.928,1.359,1.359,0,0,1,1.146.451,2.406,2.406,0,0,1,.34,1.448Z" transform="translate(650.572 -1851.957)"/></g><g transform="translate(50.898 15.414)"><path class="a" d="M-624.514,1852.163v.815a2.858,2.858,0,0,1,2.088-.939,2.44,2.44,0,0,1,1.205.309,2.084,2.084,0,0,1,.848.847,3.779,3.779,0,0,1,.292,1.71v3.66h-1.373l0-3.647a2.352,2.352,0,0,0-.322-1.4,1.294,1.294,0,0,0-1.085-.421,2.019,2.019,0,0,0-1.653.9l0,4.573h-1.4v-6.405Z" transform="translate(625.989 -1851.964)"/><path class="a" d="M-620.094,1858.627h-1.373a.074.074,0,0,1-.074-.075v-3.647a2.284,2.284,0,0,0-.31-1.358,1.224,1.224,0,0,0-1.024-.39,1.938,1.938,0,0,0-1.576.851l0,4.545a.075.075,0,0,1-.077.075h-1.4a.074.074,0,0,1-.074-.075l0-6.406a.074.074,0,0,1,.074-.073h1.4a.074.074,0,0,1,.076.073v.638a2.878,2.878,0,0,1,2.012-.837,2.556,2.556,0,0,1,1.243.316,2.175,2.175,0,0,1,.877.882,3.842,3.842,0,0,1,.3,1.744v3.66A.075.075,0,0,1-620.094,1858.627Zm-1.3-.148h1.22v-3.588a3.733,3.733,0,0,0-.282-1.673,2.034,2.034,0,0,0-.819-.819,2.376,2.376,0,0,0-1.169-.3,2.784,2.784,0,0,0-2.033.916.079.079,0,0,1-.082.019.077.077,0,0,1-.048-.071v-.738h-1.25l0,6.255h1.25l0-4.5a.076.076,0,0,1,.015-.045,2.1,2.1,0,0,1,1.712-.929,1.37,1.37,0,0,1,1.144.449,2.431,2.431,0,0,1,.341,1.449Z" transform="translate(626.004 -1851.949)"/></g><g transform="translate(37.181 15.543)"><path class="a" d="M-641.755,1854.409a1.961,1.961,0,0,1,.747-1.619,3.194,3.194,0,0,1,2.043-.6h2.639v.989h-1.293a2.748,2.748,0,0,1,.521.7,1.7,1.7,0,0,1,.146.718,1.915,1.915,0,0,1-.286.987,2.005,2.005,0,0,1-.733.741,4.467,4.467,0,0,1-1.472.409c-.48.07-.575.19-.612.3-.047.143-.069.3.1.4s.719-.145,1.2-.151a3.323,3.323,0,0,1,1.141.168,1.9,1.9,0,0,1,.649.354,1.544,1.544,0,0,1,.579,1.1,1.667,1.667,0,0,1-.654,1.532,3.822,3.822,0,0,1-2.1.769,3.891,3.891,0,0,1-2.235-.312,1.688,1.688,0,0,1-.968-1.372c-.092-.862.39-1.45,1.421-1.836-.17.062-.3-.22-.276-.487.019-.2-.073-.225.11-.394a1.748,1.748,0,0,1,.742-.367A2.108,2.108,0,0,1-641.755,1854.409Zm1.955,3.883a1.85,1.85,0,0,0-1.014.379.812.812,0,0,0-.331.736q.1.986,1.877.795a2.835,2.835,0,0,0,1.272-.383.765.765,0,0,0,.385-.745q-.047-.441-.658-.661A3.509,3.509,0,0,0-639.8,1858.292Zm.426-5a1.209,1.209,0,0,0-.878.349,1.119,1.119,0,0,0-.36.836,1.057,1.057,0,0,0,.354.815,1.281,1.281,0,0,0,.9.326,1.265,1.265,0,0,0,.895-.332,1.071,1.071,0,0,0,.358-.826,1.093,1.093,0,0,0-.362-.834A1.281,1.281,0,0,0-639.374,1853.294Z" transform="translate(642.423 -1852.118)"/><path class="a" d="M-640.179,1861.281a3.243,3.243,0,0,1-1.242-.339,1.763,1.763,0,0,1-1.005-1.431,1.724,1.724,0,0,1,1.279-1.837.7.7,0,0,1-.134-.5.684.684,0,0,1,.255-.474.96.96,0,0,1,.462-.3,2.142,2.142,0,0,1-1.279-2.01,2.034,2.034,0,0,1,.776-1.677,3.269,3.269,0,0,1,2.088-.612h2.638a.073.073,0,0,1,.075.072v.989a.072.072,0,0,1-.074.075h-1.119a2.448,2.448,0,0,1,.413.59,1.716,1.716,0,0,1,.154.748,2.021,2.021,0,0,1-.295,1.025,2.115,2.115,0,0,1-.761.767,4.463,4.463,0,0,1-1.5.419c-.48.071-.533.19-.552.249-.053.164-.034.249.072.317a.15.15,0,0,0,.054.014,1.732,1.732,0,0,0,.426-.069,3.258,3.258,0,0,1,.677-.109c.138,0,.271,0,.4.014a3.422,3.422,0,0,1,.767.157,2.041,2.041,0,0,1,.674.364,1.657,1.657,0,0,1,.607,1.154,1.746,1.746,0,0,1-.68,1.595,3.909,3.909,0,0,1-2.139.787A5.34,5.34,0,0,1-640.179,1861.281Zm-.724-3.544c-1.023.384-1.459.944-1.373,1.76a1.591,1.591,0,0,0,.928,1.31,3.814,3.814,0,0,0,2.192.3,3.777,3.777,0,0,0,2.058-.75,1.6,1.6,0,0,0,.627-1.468,1.5,1.5,0,0,0-.551-1.048,1.863,1.863,0,0,0-.625-.337,3,3,0,0,0-.736-.15,3,3,0,0,0-.384-.014,2.921,2.921,0,0,0-.644.1c-.271.064-.484.107-.6.034a.381.381,0,0,1-.132-.487c.057-.175.214-.286.67-.352a4.339,4.339,0,0,0,1.444-.4,1.942,1.942,0,0,0,.708-.714,1.846,1.846,0,0,0,.276-.948,1.623,1.623,0,0,0-.14-.684,2.623,2.623,0,0,0-.508-.676.075.075,0,0,1-.015-.083.079.079,0,0,1,.071-.045h1.219v-.837h-2.564a3.117,3.117,0,0,0-2,.582,1.891,1.891,0,0,0-.719,1.557,2.018,2.018,0,0,0,1.369,1.955.068.068,0,0,1,.043.075.073.073,0,0,1-.054.069,1.615,1.615,0,0,0-.71.351c-.168.153-.068.162-.085.342-.019.211.068.407.149.415a.1.1,0,0,0,.025,0h0a.075.075,0,0,1,.1.041.076.076,0,0,1-.045.1Zm.81,2.546h0c-.7-.063-1.084-.357-1.14-.884a.882.882,0,0,1,.357-.8,1.944,1.944,0,0,1,1.054-.4,3.589,3.589,0,0,1,1.564.126c.435.157.675.4.708.722a.838.838,0,0,1-.418.816,2.937,2.937,0,0,1-1.307.4A4.666,4.666,0,0,1-640.094,1860.283Zm1.135-1.946a4.294,4.294,0,0,0-.848.016,1.775,1.775,0,0,0-.972.363.731.731,0,0,0-.306.67c.065.609.659.848,1.794.726a2.75,2.75,0,0,0,1.238-.37.692.692,0,0,0,.353-.674c-.028-.264-.227-.461-.608-.6A2.624,2.624,0,0,0-638.959,1858.337Zm-.417-2.658a1.363,1.363,0,0,1-.948-.342,1.144,1.144,0,0,1-.38-.873,1.2,1.2,0,0,1,.386-.891,1.3,1.3,0,0,1,.929-.37,1.361,1.361,0,0,1,.956.353,1.163,1.163,0,0,1,.386.891,1.148,1.148,0,0,1-.381.88A1.344,1.344,0,0,1-639.376,1855.679Zm-.013-2.325a1.145,1.145,0,0,0-.826.328,1.042,1.042,0,0,0-.338.782.972.972,0,0,0,.331.759,1.207,1.207,0,0,0,.846.305,1.189,1.189,0,0,0,.845-.31,1,1,0,0,0,.334-.771,1.015,1.015,0,0,0-.339-.779A1.2,1.2,0,0,0-639.389,1853.354Z" transform="translate(642.438 -1852.104)"/></g><g transform="translate(43.895 15.416)"><path class="a" d="M-629.8,1858.5a4.931,4.931,0,0,1-1.348.171,3.053,3.053,0,0,1-1.713-.439,3.207,3.207,0,0,1-1.048-1.181,3.613,3.613,0,0,1-.394-1.716,3.406,3.406,0,0,1,.828-2.377,2.771,2.771,0,0,1,2.15-.916,2.533,2.533,0,0,1,2.034.89,3.562,3.562,0,0,1,.759,2.386v.159l-4.5,0a2.1,2.1,0,0,0,.618,1.463,2.02,2.02,0,0,0,1.464.542s1.99-.124,2.192-.425v1A7.446,7.446,0,0,1-629.8,1858.5Zm-3.207-3.776h3.224a1.78,1.78,0,0,0-.455-1.17,1.446,1.446,0,0,0-1.087-.411,1.553,1.553,0,0,0-1.115.412A2.02,2.02,0,0,0-633.008,1854.724Z" transform="translate(634.379 -1851.967)"/><path class="a" d="M-631.164,1858.729a3.08,3.08,0,0,1-1.754-.453,3.267,3.267,0,0,1-1.073-1.205,3.709,3.709,0,0,1-.4-1.75,3.509,3.509,0,0,1,.847-2.429,2.851,2.851,0,0,1,2.206-.939,2.616,2.616,0,0,1,2.092.916,3.638,3.638,0,0,1,.777,2.436v.159a.078.078,0,0,1-.075.077l-4.424,0a1.984,1.984,0,0,0,.589,1.328,1.96,1.96,0,0,0,1.413.524,5.766,5.766,0,0,0,2.13-.392.074.074,0,0,1,.084-.028.075.075,0,0,1,.053.07v1a.077.077,0,0,1-.043.068,7.614,7.614,0,0,1-1.053.441A5.058,5.058,0,0,1-631.164,1858.729Zm-.176-6.625a2.7,2.7,0,0,0-2.094.891,3.35,3.35,0,0,0-.809,2.326,3.559,3.559,0,0,0,.385,1.682,3.151,3.151,0,0,0,1.022,1.153,2.989,2.989,0,0,0,1.671.423,5.012,5.012,0,0,0,1.326-.165,7.155,7.155,0,0,0,.986-.41v-.81a8.049,8.049,0,0,1-2.113.35h0a2.138,2.138,0,0,1-1.523-.56,2.177,2.177,0,0,1-.638-1.513.074.074,0,0,1,.021-.055.073.073,0,0,1,.053-.025l4.428,0v-.084a3.509,3.509,0,0,0-.74-2.338A2.47,2.47,0,0,0-631.34,1852.1Zm1.542,2.677-3.224,0a.072.072,0,0,1-.057-.025.074.074,0,0,1-.018-.064,2.113,2.113,0,0,1,.589-1.211,1.647,1.647,0,0,1,1.168-.432,1.535,1.535,0,0,1,1.14.433,1.86,1.86,0,0,1,.476,1.217.084.084,0,0,1-.023.06A.076.076,0,0,1-629.8,1854.78Zm-3.134-.147h3.051a1.661,1.661,0,0,0-.426-1.042,1.379,1.379,0,0,0-1.033-.386,1.484,1.484,0,0,0-1.064.387A1.911,1.911,0,0,0-632.932,1854.633Z" transform="translate(634.394 -1851.952)"/></g><g transform="translate(58.24 15.537)"><path class="a" d="M-617.117,1852.186h1.267l0,6.4h-1.267Z" transform="translate(617.194 -1852.112)"/><path class="a" d="M-615.863,1858.651h-1.267a.075.075,0,0,1-.077-.075l0-6.4a.075.075,0,0,1,.077-.074h1.267a.075.075,0,0,1,.074.074l0,6.4A.074.074,0,0,1-615.863,1858.651Zm-1.192-.148h1.114l0-6.254h-1.114Z" transform="translate(617.209 -1852.097)"/></g><g transform="translate(60.669 15.522)"><path class="a" d="M-611.225,1852.17a2.709,2.709,0,0,1,2.114.942,3.42,3.42,0,0,1,.841,2.371,3.241,3.241,0,0,1-.853,2.3,2.817,2.817,0,0,1-2.147.915,2.708,2.708,0,0,1-2.1-.93,3.323,3.323,0,0,1-.844-2.317,3.357,3.357,0,0,1,.852-2.346A2.759,2.759,0,0,1-611.225,1852.17Zm-.062,1.139a1.63,1.63,0,0,0-1.3.6,2.27,2.27,0,0,0-.508,1.523,2.163,2.163,0,0,0,.52,1.5,1.72,1.72,0,0,0,1.339.58,1.693,1.693,0,0,0,1.33-.589,2.2,2.2,0,0,0,.516-1.509,2.178,2.178,0,0,0-.538-1.509A1.751,1.751,0,0,0-611.287,1853.309Z" transform="translate(614.284 -1852.094)"/><path class="a" d="M-611.285,1858.759a2.78,2.78,0,0,1-2.15-.955,3.4,3.4,0,0,1-.864-2.367,3.445,3.445,0,0,1,.869-2.4,2.847,2.847,0,0,1,2.19-.96,2.8,2.8,0,0,1,2.17.968,3.512,3.512,0,0,1,.861,2.42,3.328,3.328,0,0,1-.873,2.351A2.9,2.9,0,0,1-611.285,1858.759Zm.045-6.528a2.7,2.7,0,0,0-2.078.91,3.3,3.3,0,0,0-.83,2.3,3.257,3.257,0,0,0,.823,2.265,2.633,2.633,0,0,0,2.04.9,2.745,2.745,0,0,0,2.091-.892,3.166,3.166,0,0,0,.834-2.246,3.377,3.377,0,0,0-.822-2.322A2.649,2.649,0,0,0-611.24,1852.23Zm-.011,5.345a1.793,1.793,0,0,1-1.394-.609,2.243,2.243,0,0,1-.541-1.55,2.359,2.359,0,0,1,.526-1.573,1.716,1.716,0,0,1,1.358-.625,1.833,1.833,0,0,1,1.414.624,2.252,2.252,0,0,1,.557,1.558,2.287,2.287,0,0,1-.534,1.559A1.778,1.778,0,0,1-611.251,1857.576Zm-.051-4.2a1.568,1.568,0,0,0-1.243.57,2.213,2.213,0,0,0-.489,1.475,2.1,2.1,0,0,0,.5,1.451,1.646,1.646,0,0,0,1.281.556,1.626,1.626,0,0,0,1.273-.563,2.129,2.129,0,0,0,.5-1.459,2.111,2.111,0,0,0-.52-1.458A1.681,1.681,0,0,0-611.3,1853.372Z" transform="translate(614.299 -1852.079)"/></g><g transform="translate(69.067 13.243)"><path class="a" d="M-604.147,1849.442l7.522,0v1.106h-3.089l0,7.586h-1.4l0-7.586-3.033,0Z" transform="translate(604.222 -1849.364)"/><path class="a" d="M-599.727,1858.192h-1.4a.074.074,0,0,1-.073-.075l0-7.508h-2.957a.076.076,0,0,1-.075-.077v-1.106a.074.074,0,0,1,.075-.075l7.521,0a.073.073,0,0,1,.074.075v1.106a.074.074,0,0,1-.074.076h-3.013l0,7.509A.075.075,0,0,1-599.727,1858.192Zm-1.323-.148h1.247l0-7.513a.076.076,0,0,1,.077-.073h3.013v-.958l-7.37,0v.958h2.957a.076.076,0,0,1,.077.073Z" transform="translate(604.237 -1849.349)"/></g><g transform="translate(27.656 24.819)"><path class="a" d="M-653.849,1863.292h.53l0,3.706h-.531Z" transform="translate(653.849 -1863.23)"/><path class="a" d="M-651.826,1864.8v.314a.963.963,0,0,1,.734-.361.824.824,0,0,1,.426.117.806.806,0,0,1,.3.323,1.549,1.549,0,0,1,.1.652v1.395h-.483v-1.388a.942.942,0,0,0-.116-.536.434.434,0,0,0-.381-.162.691.691,0,0,0-.58.345v1.741h-.5V1864.8Z" transform="translate(653.596 -1863.471)"/><path class="a" d="M-649.194,1867.063v-.518a2.457,2.457,0,0,0,.417.232,1.031,1.031,0,0,0,.361.089.449.449,0,0,0,.26-.078.207.207,0,0,0,.108-.175.232.232,0,0,0-.07-.175,1.482,1.482,0,0,0-.3-.2,2.174,2.174,0,0,1-.611-.447.626.626,0,0,1-.145-.4.565.565,0,0,1,.219-.461.885.885,0,0,1,.565-.175,1.528,1.528,0,0,1,.734.2v.474a1.505,1.505,0,0,0-.7-.26.383.383,0,0,0-.226.062.182.182,0,0,0-.086.158.216.216,0,0,0,.078.161,1.312,1.312,0,0,0,.275.187l.172.1c.407.229.609.485.61.761a.609.609,0,0,1-.234.494.933.933,0,0,1-.6.192,1.429,1.429,0,0,1-.386-.048A2.423,2.423,0,0,1-649.194,1867.063Z" transform="translate(653.08 -1863.471)"/><path class="a" d="M-646.586,1868.493v-3.687h.846a1.461,1.461,0,0,1,1.01.325,1.15,1.15,0,0,1,.362.906,1.238,1.238,0,0,1-.339.9,1.154,1.154,0,0,1-.87.354,1.471,1.471,0,0,1-.514-.1v1.309Zm.834-3.237h-.34v1.5a1.012,1.012,0,0,0,.465.116.721.721,0,0,0,.554-.237.863.863,0,0,0,.216-.61.851.851,0,0,0-.1-.422.6.6,0,0,0-.278-.264A1.177,1.177,0,0,0-645.752,1865.256Z" transform="translate(652.649 -1863.48)"/><path class="a" d="M-643.051,1863.576a.274.274,0,0,1,.2.084.266.266,0,0,1,.087.2.265.265,0,0,1-.087.2.278.278,0,0,1-.2.087.269.269,0,0,1-.2-.087.274.274,0,0,1-.086-.2.274.274,0,0,1,.086-.2A.267.267,0,0,1-643.051,1863.576Zm-.24,1.025h.483v2.442h-.483Z" transform="translate(652.111 -1863.276)"/><path class="a" d="M-641.343,1864.795v.561l.026-.042c.234-.378.467-.565.7-.565a.858.858,0,0,1,.571.276l-.255.424a.7.7,0,0,0-.465-.236.492.492,0,0,0-.406.221.839.839,0,0,0-.171.529v1.275h-.486v-2.442Z" transform="translate(651.862 -1863.47)"/><path class="a" d="M-637.795,1865.769v1.037c0,.082.029.125.085.125a.6.6,0,0,0,.274-.133v.3a1.447,1.447,0,0,1-.266.143.6.6,0,0,1-.209.039c-.2,0-.327-.082-.364-.244a1.057,1.057,0,0,1-.654.24.588.588,0,0,1-.427-.169.575.575,0,0,1-.17-.424.6.6,0,0,1,.166-.41,1.1,1.1,0,0,1,.472-.29l.618-.212v-.13a.39.39,0,0,0-.442-.442,1.058,1.058,0,0,0-.766.41v-.528a1,1,0,0,1,.808-.332.94.94,0,0,1,.635.206.679.679,0,0,1,.143.178.609.609,0,0,1,.081.219A3.4,3.4,0,0,1-637.795,1865.769Zm-.474.983v-.723l-.326.125a1.077,1.077,0,0,0-.348.2.323.323,0,0,0-.1.246.33.33,0,0,0,.1.248.343.343,0,0,0,.248.094A.6.6,0,0,0-638.269,1866.752Z" transform="translate(651.481 -1863.47)"/><path class="a" d="M-634.707,1866.666v.477a2.067,2.067,0,0,1-.712.135,1.244,1.244,0,0,1-.915-.339,1.236,1.236,0,0,1-.34-.91,1.307,1.307,0,0,1,.331-.927,1.142,1.142,0,0,1,.874-.354,1.393,1.393,0,0,1,.337.034,2.526,2.526,0,0,1,.37.132v.518a1.29,1.29,0,0,0-.678-.235.7.7,0,0,0-.538.23.823.823,0,0,0-.209.584.787.787,0,0,0,.226.6.838.838,0,0,0,.612.221A1.593,1.593,0,0,0-634.707,1866.666Z" transform="translate(651.01 -1863.47)"/><path class="a" d="M-633.417,1863.573a.273.273,0,0,1,.2.084.267.267,0,0,1,.087.2.266.266,0,0,1-.087.2.278.278,0,0,1-.2.086.278.278,0,0,1-.2-.086.283.283,0,0,1-.084-.2.282.282,0,0,1,.084-.2A.277.277,0,0,1-633.417,1863.573Zm-.24,1.025h.484v2.441h-.484Z" transform="translate(650.518 -1863.276)"/><path class="a" d="M-631.1,1864.536a1.277,1.277,0,0,1,.927.358,1.206,1.206,0,0,1,.369.9,1.15,1.15,0,0,1-.372.878,1.336,1.336,0,0,1-.944.349,1.271,1.271,0,0,1-.918-.353,1.182,1.182,0,0,1-.367-.885,1.194,1.194,0,0,1,.371-.895A1.308,1.308,0,0,1-631.1,1864.536Zm-.025.435a.756.756,0,0,0-.57.229.783.783,0,0,0-.221.578.758.758,0,0,0,.227.573.8.8,0,0,0,.585.22.793.793,0,0,0,.582-.224.77.77,0,0,0,.229-.574.761.761,0,0,0-.235-.575A.827.827,0,0,0-631.12,1864.971Zm.564-1.754-.6.8h-.3l.357-.8Z" transform="translate(650.303 -1863.217)"/><path class="a" d="M-628.162,1864.791v.314a.971.971,0,0,1,.737-.36.807.807,0,0,1,.422.116.8.8,0,0,1,.3.323,1.556,1.556,0,0,1,.1.653v1.394h-.482v-1.387a.957.957,0,0,0-.113-.536.438.438,0,0,0-.383-.161.7.7,0,0,0-.582.344v1.741h-.492v-2.441Z" transform="translate(649.685 -1863.469)"/><path class="a" d="M-623.616,1868.486V1864.8h.846a1.462,1.462,0,0,1,1.011.326,1.152,1.152,0,0,1,.36.9,1.238,1.238,0,0,1-.338.9,1.152,1.152,0,0,1-.869.354,1.492,1.492,0,0,1-.517-.1v1.308Zm.835-3.237h-.343v1.5a1.024,1.024,0,0,0,.468.116.712.712,0,0,0,.552-.237.856.856,0,0,0,.216-.609.844.844,0,0,0-.1-.422.579.579,0,0,0-.278-.265A1.17,1.17,0,0,0-622.782,1865.249Z" transform="translate(648.852 -1863.479)"/><path class="a" d="M-618.831,1865.763v1.038c0,.082.029.125.086.125a.59.59,0,0,0,.273-.133v.3a1.573,1.573,0,0,1-.262.144.6.6,0,0,1-.21.039c-.206,0-.33-.082-.366-.244a1.045,1.045,0,0,1-.655.24.592.592,0,0,1-.426-.169.57.57,0,0,1-.168-.424.589.589,0,0,1,.165-.41,1.079,1.079,0,0,1,.47-.29l.618-.212v-.13a.39.39,0,0,0-.44-.442,1.056,1.056,0,0,0-.769.411v-.528a1,1,0,0,1,.808-.332.938.938,0,0,1,.634.206.631.631,0,0,1,.142.178.607.607,0,0,1,.081.218A2.977,2.977,0,0,1-618.831,1865.763Zm-.473.983v-.722l-.322.125a1.077,1.077,0,0,0-.349.2.322.322,0,0,0-.1.246.334.334,0,0,0,.1.248.35.35,0,0,0,.252.094A.6.6,0,0,0-619.3,1866.746Z" transform="translate(648.346 -1863.469)"/><path class="a" d="M-617.023,1864.786v.561l.026-.041c.234-.379.467-.566.7-.566a.861.861,0,0,1,.571.275l-.255.424a.7.7,0,0,0-.467-.236.492.492,0,0,0-.4.222.843.843,0,0,0-.171.529v1.273h-.486v-2.441Z" transform="translate(647.842 -1863.469)"/><path class="a" d="M-613.475,1865.761v1.037c0,.082.03.125.085.125a.6.6,0,0,0,.274-.132v.3a1.453,1.453,0,0,1-.265.144.581.581,0,0,1-.209.038c-.206,0-.327-.082-.365-.243a1.049,1.049,0,0,1-.656.24.59.59,0,0,1-.423-.169.579.579,0,0,1-.171-.424.592.592,0,0,1,.166-.41,1.075,1.075,0,0,1,.473-.289l.618-.213v-.13a.392.392,0,0,0-.441-.443,1.056,1.056,0,0,0-.768.411v-.53a1,1,0,0,1,.809-.331.939.939,0,0,1,.634.206.7.7,0,0,1,.143.178.6.6,0,0,1,.08.219A3.21,3.21,0,0,1-613.475,1865.761Zm-.474.982v-.722l-.325.126a1.071,1.071,0,0,0-.349.2.329.329,0,0,0-.1.246.341.341,0,0,0,.1.249.357.357,0,0,0,.251.093A.6.6,0,0,0-613.949,1866.743Z" transform="translate(647.461 -1863.468)"/><path class="a" d="M-608.889,1865.76v1.037c0,.083.028.126.087.126a.6.6,0,0,0,.271-.133v.3a1.494,1.494,0,0,1-.263.144.589.589,0,0,1-.209.039c-.208,0-.33-.082-.365-.244a1.056,1.056,0,0,1-.656.239.592.592,0,0,1-.426-.169.575.575,0,0,1-.169-.424.6.6,0,0,1,.164-.411,1.093,1.093,0,0,1,.472-.29l.619-.212v-.13a.39.39,0,0,0-.44-.442,1.059,1.059,0,0,0-.771.41v-.529a1.006,1.006,0,0,1,.811-.331.938.938,0,0,1,.632.205.642.642,0,0,1,.144.177.634.634,0,0,1,.08.219A3.419,3.419,0,0,1-608.889,1865.76Zm-.473.983v-.723l-.324.126a1.043,1.043,0,0,0-.349.2.32.32,0,0,0-.1.246.33.33,0,0,0,.1.249.348.348,0,0,0,.25.093A.6.6,0,0,0-609.362,1866.743Z" transform="translate(646.703 -1863.469)"/><path class="a" d="M-607.705,1868.48l0-3.687h.845a1.453,1.453,0,0,1,1.01.326,1.15,1.15,0,0,1,.362.9,1.237,1.237,0,0,1-.339.9,1.151,1.151,0,0,1-.868.354,1.485,1.485,0,0,1-.517-.1v1.308Zm.834-3.237h-.343v1.5a1.025,1.025,0,0,0,.467.116.72.72,0,0,0,.554-.237.868.868,0,0,0,.214-.609.843.843,0,0,0-.1-.422.6.6,0,0,0-.278-.264A1.178,1.178,0,0,0-606.872,1865.244Z" transform="translate(646.222 -1863.477)"/><path class="a" d="M-603.891,1864.783v.56l.027-.041c.234-.378.468-.565.7-.565a.86.86,0,0,1,.571.275l-.254.424a.714.714,0,0,0-.466-.238.5.5,0,0,0-.406.221.845.845,0,0,0-.171.529v1.274h-.486v-2.441Z" transform="translate(645.671 -1863.468)"/><path class="a" d="M-599.911,1866.047h-1.715a.792.792,0,0,0,.235.557.777.777,0,0,0,.558.207,1.429,1.429,0,0,0,.88-.3v.475a1.677,1.677,0,0,1-.441.212,1.926,1.926,0,0,1-.513.065,1.16,1.16,0,0,1-.654-.169,1.22,1.22,0,0,1-.4-.449,1.367,1.367,0,0,1-.15-.652,1.3,1.3,0,0,1,.314-.907,1.049,1.049,0,0,1,.82-.349.968.968,0,0,1,.775.339,1.348,1.348,0,0,1,.289.909Zm-1.706-.289h1.229a.671.671,0,0,0-.172-.447.561.561,0,0,0-.414-.157.6.6,0,0,0-.426.157A.788.788,0,0,0-601.617,1865.758Z" transform="translate(645.296 -1863.468)"/><path class="a" d="M-598.369,1864.781v.314a.96.96,0,0,1,.733-.361.818.818,0,0,1,.427.116.826.826,0,0,1,.3.323,1.573,1.573,0,0,1,.1.653v1.395h-.482v-1.388a.951.951,0,0,0-.115-.536.433.433,0,0,0-.381-.161.691.691,0,0,0-.581.344v1.741h-.494v-2.441Z" transform="translate(644.76 -1863.468)"/><path class="a" d="M-593.985,1863.273h.484v3.706h-1.032a1.127,1.127,0,0,1-.864-.339,1.282,1.282,0,0,1-.321-.918,1.216,1.216,0,0,1,.337-.887,1.148,1.148,0,0,1,.864-.349,1.585,1.585,0,0,1,.531.1Zm0,3.294v-1.548a1.029,1.029,0,0,0-.457-.114.738.738,0,0,0-.575.238.916.916,0,0,0-.214.635.85.85,0,0,0,.185.582.583.583,0,0,0,.238.164,1.55,1.55,0,0,0,.447.043Z" transform="translate(644.24 -1863.227)"/><path class="a" d="M-590.22,1866.043h-1.718a.793.793,0,0,0,.236.556.776.776,0,0,0,.558.208,1.447,1.447,0,0,0,.881-.3v.474a1.667,1.667,0,0,1-.443.212,1.876,1.876,0,0,1-.511.064,1.164,1.164,0,0,1-.655-.168,1.211,1.211,0,0,1-.4-.449,1.393,1.393,0,0,1-.151-.652,1.29,1.29,0,0,1,.315-.907,1.049,1.049,0,0,1,.82-.349.966.966,0,0,1,.775.34,1.347,1.347,0,0,1,.29.909Zm-1.706-.289h1.229a.689.689,0,0,0-.174-.447.56.56,0,0,0-.414-.157.6.6,0,0,0-.425.157A.791.791,0,0,0-591.926,1865.754Z" transform="translate(643.695 -1863.468)"/><path class="a" d="M-588.635,1864.778v.561l.026-.042c.232-.378.465-.565.7-.565a.864.864,0,0,1,.571.276l-.255.424a.711.711,0,0,0-.467-.237.493.493,0,0,0-.4.222.831.831,0,0,0-.171.529v1.274h-.488v-2.441Z" transform="translate(643.15 -1863.467)"/></g><g transform="translate(75.889 15.444)"><path class="a" d="M-592.947,1858.733l-2.91-6.609h1.269l2.3,5.187,1.74-5.188h1.178l-2.387,6.611Z" transform="translate(596.031 -1852.008)"/><path class="a" d="M-591.715,1858.824h-1.341l-.028-.069-2.981-6.769h1.517l2.209,4.989,1.677-4.991h1.419Zm-1.193-.226h1.037l2.3-6.385h-.933l-1.812,5.385-2.386-5.383h-1.022Z" transform="translate(596.065 -1851.985)"/></g><path class="a" d="M-675.28,1855.817a1.361,1.361,0,0,1-.254.02,1.649,1.649,0,0,1-1.254-.573l-4.822-5.572a1.653,1.653,0,0,1,.169-2.335,1.656,1.656,0,0,1,2.336.168l3.128,3.612a88.707,88.707,0,0,1,4.856-9.026,11.413,11.413,0,0,0-4.419-.886,11.45,11.45,0,0,0-11.444,11.453,11.447,11.447,0,0,0,11.451,11.442,11.446,11.446,0,0,0,11.445-11.449,11.412,11.412,0,0,0-4.2-8.856,94.374,94.374,0,0,0-5.724,11.018A1.654,1.654,0,0,1-675.28,1855.817Z" transform="translate(686.982 -1834.762)"/><path class="a" d="M-660.173,1836.4a1.659,1.659,0,0,0,.192-2.337,1.657,1.657,0,0,0-2.334-.193,33.339,33.339,0,0,0-5.664,6.957,11.361,11.361,0,0,1,2.831,1.7A29.717,29.717,0,0,1-660.173,1836.4Z" transform="translate(683.841 -1833.483)"/><g transform="translate(58.239 12.939)"><rect class="a" width="1.267" height="1.404" transform="translate(0.077 0.075)"/><path class="a" d="M-615.865,1850.539h-1.268a.076.076,0,0,1-.076-.075v-1.4a.075.075,0,0,1,.077-.075h1.267a.074.074,0,0,1,.074.074v1.4A.075.075,0,0,1-615.865,1850.539Zm-1.192-.15h1.114v-1.257h-1.114Z" transform="translate(617.21 -1848.985)"/></g></g><rect class="b" width="93" height="50" rx="5" transform="translate(675 1450)"/></g></svg>