<svg id="Grupo_37034" data-name="Grupo 37034" xmlns="http://www.w3.org/2000/svg" xmlns:xlink="http://www.w3.org/1999/xlink" width="169.598" height="45.296" viewBox="0 0 169.598 45.296">
  <defs>
    <clipPath id="clip-path">
      <rect id="Rectángulo_22706" data-name="Rectángulo 22706" width="169.598" height="45.296" fill="none"/>
    </clipPath>
  </defs>
  <g id="Grupo_37034-2" data-name="Grupo 37034" clip-path="url(#clip-path)">
    <path id="Trazado_70508" data-name="Trazado 70508" d="M45.28,22.647q0,8.958,0,17.915A4.631,4.631,0,0,1,40.6,45.293q-17.915.008-35.831-.008a4.671,4.671,0,0,1-4.75-4.8C.016,28.6.038,16.716,0,4.834A4.926,4.926,0,0,1,4.811,0C16.755.032,28.7.007,40.642.015A4.63,4.63,0,0,1,45.274,4.67q.016,8.988,0,17.976ZM22.7,11.024A10.59,10.59,0,1,0,33.267,21.676,10.657,10.657,0,0,0,22.7,11.024M21.371,33.458c-.115.089-.172.113-.173.138a11.477,11.477,0,0,0-.026,1.148c.032.531-.108.706-.693.6a13.569,13.569,0,0,1-9.864-6.9,13.362,13.362,0,0,1-.128-13.416,13.265,13.265,0,0,1,7.7-6.537,13.268,13.268,0,0,1,10.792.773A13.734,13.734,0,0,1,36.466,23.2a12.423,12.423,0,0,1-1.928,5.58c-.511.8-1.13,1.531-1.714,2.283a.853.853,0,0,0-.092,1.144c.321.382.8.314,1.23-.083a2.576,2.576,0,0,0,.214-.216,16.036,16.036,0,0,0,3.155-5.493,14.926,14.926,0,0,0-.93-11.855,14.962,14.962,0,0,0-11.694-8.27A14.49,14.49,0,0,0,13.435,9.276a15.129,15.129,0,0,0-6,14.9,13.933,13.933,0,0,0,2.618,6.342,15.3,15.3,0,0,0,10.622,6.41c.408.057.512.218.5.58-.014.513,0,1.026,0,1.54l.2.065c.882-.881,1.772-1.756,2.633-2.658.062-.065-.031-.372-.137-.487-.412-.447-.862-.86-1.293-1.29-.408-.407-.81-.82-1.2-1.22" transform="translate(-0.001 0)" fill="#0096a7"/>
    <path id="Trazado_70509" data-name="Trazado 70509" d="M435.221,116.66a18.114,18.114,0,0,1,2.491-1.821,6.733,6.733,0,0,1,7.771,1.03,8.573,8.573,0,0,1,2.91,9.091,7.856,7.856,0,0,1-4.9,5.8,6.561,6.561,0,0,1-7.987-1.774,1.493,1.493,0,0,0-.265-.156c-.028.391-.07.714-.071,1.039-.008,1.847,0,3.694-.011,5.541a1.6,1.6,0,0,1-1.441,1.633,1.64,1.64,0,0,1-1.531-1.534c-.014-.141-.005-.284-.005-.426q0-9.228,0-18.456c0-.406.006-.812.037-1.217a1.484,1.484,0,0,1,1.04-1.367,1.057,1.057,0,0,1,1.45.612,14.282,14.282,0,0,1,.413,1.508c.043.168.067.34.1.5m10.488,6.278a5.935,5.935,0,0,0-1.1-3.684,4.878,4.878,0,0,0-7.828-.456,6.051,6.051,0,0,0-.151,7.883,4.962,4.962,0,0,0,7.617.06,5.743,5.743,0,0,0,1.458-3.8" transform="translate(-379.498 -100.065)" fill="#0096a7"/>
    <path id="Trazado_70510" data-name="Trazado 70510" d="M962.541,76.4v-.656c0-1.93,0-3.859,0-5.788a1.577,1.577,0,0,1,1.518-1.582,1.5,1.5,0,0,1,1.454,1.569q0,9.962,0,19.924a1.441,1.441,0,0,1-1.88,1.523c-.3-.059-.6-.517-.73-.856a13.437,13.437,0,0,1-.436-1.816,2.633,2.633,0,0,0-.329.259,6.829,6.829,0,0,1-8.86,1.351,8.968,8.968,0,0,1-2.916-12.39,7.859,7.859,0,0,1,7.788-3.843,5.853,5.853,0,0,1,3.619,1.836c.193.19.389.378.583.566l.191-.1m.021,6.214A7.041,7.041,0,0,0,961.55,79.4a4.931,4.931,0,0,0-7.266-1.462,5.8,5.8,0,0,0-2.289,4.071c-.416,3.291,2.158,6.721,5.654,6.332a5.324,5.324,0,0,0,4.16-2.89,11.354,11.354,0,0,0,.753-2.843" transform="translate(-833.321 -60.037)" fill="#0096a7"/>
    <path id="Trazado_70511" data-name="Trazado 70511" d="M1106.055,124.881c.718,2.178,1.9,3.747,4.008,4.332a4.755,4.755,0,0,0,5.171-1.718c.118-.139.219-.293.34-.429a1.529,1.529,0,0,1,1.988-.279,1.454,1.454,0,0,1,.4,2,7.639,7.639,0,0,1-5.119,3.4,8.633,8.633,0,0,1-8.514-13.124,7.708,7.708,0,0,1,7.293-3.956,7.562,7.562,0,0,1,7.044,7.047c.012.3.016.609.009.913a1.614,1.614,0,0,1-1.846,1.808q-4.965.01-9.93.007h-.844m.3-2.991h9.214c.042-1.764-1.976-3.692-3.954-3.823-2.443-.163-5.034,1.7-5.26,3.823" transform="translate(-968.554 -101.062)" fill="#0096a7"/>
    <path id="Trazado_70512" data-name="Trazado 70512" d="M673.935,124.711a5.911,5.911,0,0,0,3,3.916,4.9,4.9,0,0,0,6.36-1.608,1.5,1.5,0,0,1,2.089-.429,1.373,1.373,0,0,1,.41,1.972,7.616,7.616,0,0,1-5.111,3.419,8.663,8.663,0,0,1-7.856-14.084,7.575,7.575,0,0,1,11.193-1.037,7.4,7.4,0,0,1,2.48,6.506c-.072.787-.8,1.3-1.791,1.3q-4.964.007-9.929.008c-.239,0-.477.02-.841.036m9.432-3.016c.207-1.6-1.766-3.581-3.558-3.815-2.633-.345-5.592,1.738-5.612,3.815Z" transform="translate(-589.074 -100.855)" fill="#0096a7"/>
    <path id="Trazado_70513" data-name="Trazado 70513" d="M821.982,116.641c.612-.485,1.167-.891,1.684-1.34a5.39,5.39,0,0,1,7.342.792,7.2,7.2,0,0,1,1.787,4.671c.032,3.066.032,6.133.031,9.2a1.5,1.5,0,0,1-1.516,1.617,1.476,1.476,0,0,1-1.381-1.607c-.009-2.417.017-4.834-.014-7.25a14.3,14.3,0,0,0-.246-2.779,4.237,4.237,0,0,0-.858-1.831,3.646,3.646,0,0,0-4.705-.145,6.229,6.229,0,0,0-2.145,4.733c-.092,1.617-.023,3.243-.025,4.865q0,1.216-.006,2.431a1.6,1.6,0,0,1-1.505,1.6,1.5,1.5,0,0,1-1.434-1.516q-.017-7.25-.012-14.5a1.292,1.292,0,0,1,.975-1.431,1.329,1.329,0,0,1,1.465.938c.207.477.357.978.564,1.555" transform="translate(-719.147 -100.212)" fill="#0096a7"/>
    <path id="Trazado_70514" data-name="Trazado 70514" d="M1277.691,111.306c.731,0,1.462-.01,2.192,0a1.239,1.239,0,0,1,1.3,1.3,1.3,1.3,0,0,1-1.333,1.3c-1.441.019-2.883.035-4.323-.007-.58-.017-.709.178-.7.725.023,1.46.013,2.922-.045,4.381a1.178,1.178,0,0,1-1.33,1.245,1.262,1.262,0,0,1-1.226-1.382c-.014-1.4-.025-2.8.007-4.2.013-.578-.168-.781-.763-.765-1.4.038-2.8.017-4.2.007-.89-.006-1.38-.466-1.377-1.259a1.247,1.247,0,0,1,1.424-1.349c1.421-.005,2.842-.019,4.262,0,.481.008.646-.17.642-.635-.012-1.461-.012-2.923.01-4.384a1.2,1.2,0,0,1,1.256-1.336,1.285,1.285,0,0,1,1.344,1.4c.022,1.441.028,2.882,0,4.323-.01.482.135.653.614.637.75-.027,1.5-.007,2.253-.007Z" transform="translate(-1111.581 -92.152)" fill="#0096a7"/>
    <path id="Trazado_70515" data-name="Trazado 70515" d="M588.748,116.743a5.532,5.532,0,0,1,2.476-2.3,5.306,5.306,0,0,1,4.138.163,1.6,1.6,0,0,1,.809,1.9c-.266.767-1.046.987-1.985.673a7.855,7.855,0,0,0-1.931-.375,3.024,3.024,0,0,0-2.953,2.361,11.017,11.017,0,0,0-.384,2.75c-.049,2.658-.014,5.318-.021,7.978a1.439,1.439,0,0,1-1.3,1.629,1.4,1.4,0,0,1-1.671-1.512c-.011-3.025-.006-6.05-.007-9.074q0-2.5,0-4.994a5.789,5.789,0,0,1,.018-.608,1.291,1.291,0,0,1,1.064-1.232,1.515,1.515,0,0,1,1.434,1.014,7.453,7.453,0,0,1,.172.771c.045.235.075.472.134.857" transform="translate(-514.502 -100.177)" fill="#0096a7"/>
    <path id="Trazado_70516" data-name="Trazado 70516" d="M109.776,90.433a10.59,10.59,0,1,1-10.608,10.291,10.6,10.6,0,0,1,10.608-10.291m4.154,6.9c-.412-.375-.689-.607-.943-.86a4.812,4.812,0,0,0-6.9-.057,6.382,6.382,0,0,0,.214,9.613,4.57,4.57,0,0,0,4.992.88,14.3,14.3,0,0,0,2.187-1.516c.12-.085.236-.174.5-.37,0,.56,0,.957,0,1.355,0,.5.216.848.732.861.552.015.711-.376.711-.86q0-5.3-.006-10.6c0-.492-.17-.724-.73-.7a.525.525,0,0,0-.587.532c-.069.512-.106,1.028-.175,1.729" transform="translate(-87.077 -79.41)" fill="#efefef"/>
    <path id="Trazado_70517" data-name="Trazado 70517" d="M73.574,77.561c.395.4.8.813,1.2,1.22.431.43.88.843,1.293,1.29.107.115.2.422.137.487-.861.9-1.75,1.777-2.633,2.658l-.2-.065c0-.513-.011-1.027,0-1.54.01-.362-.093-.523-.5-.58a15.3,15.3,0,0,1-10.622-6.41,13.933,13.933,0,0,1-2.618-6.342,15.129,15.129,0,0,1,6-14.9A14.49,14.49,0,0,1,76.91,50.391,15.451,15.451,0,0,1,89.534,70.516a16.036,16.036,0,0,1-3.155,5.493,2.579,2.579,0,0,1-.214.216c-.425.4-.909.465-1.23.083a.853.853,0,0,1,.092-1.144c.584-.752,1.2-1.483,1.714-2.283a12.423,12.423,0,0,0,1.928-5.58A13.734,13.734,0,0,0,81.181,53.36,13.834,13.834,0,0,0,62.69,59.125a13.362,13.362,0,0,0,.128,13.416,13.569,13.569,0,0,0,9.864,6.9c.585.108.726-.067.693-.6A11.47,11.47,0,0,1,73.4,77.7c0-.025.058-.049.173-.138" transform="translate(-52.204 -44.103)" fill="#ecf0f0"/>
    <path id="Trazado_70518" data-name="Trazado 70518" d="M148.856,130.1c.069-.7.106-1.218.175-1.729a.525.525,0,0,1,.587-.532c.559-.021.73.211.73.7q0,5.3.006,10.6c0,.483-.159.875-.711.86-.516-.014-.736-.361-.732-.861,0-.4,0-.794,0-1.355-.265.2-.381.285-.5.37a14.3,14.3,0,0,1-2.187,1.516,4.57,4.57,0,0,1-4.992-.88,6.382,6.382,0,0,1-.214-9.613,4.812,4.812,0,0,1,6.9.057c.255.253.531.485.943.86m.1,3.8a4.424,4.424,0,0,0-1.694-3.655,3.856,3.856,0,0,0-4.739-.2,4.843,4.843,0,0,0-.538,7.31,3.6,3.6,0,0,0,3.1,1.085,4.53,4.53,0,0,0,3.866-4.538" transform="translate(-122.002 -112.176)" fill="#0096a7"/>
    <path id="Trazado_70519" data-name="Trazado 70519" d="M160.709,145.247a4.531,4.531,0,0,1-3.866,4.538,3.6,3.6,0,0,1-3.1-1.085,4.843,4.843,0,0,1,.538-7.31,3.856,3.856,0,0,1,4.739.2,4.424,4.424,0,0,1,1.694,3.655" transform="translate(-133.756 -123.525)" fill="#ecf0f0"/>
  </g>
</svg>
