<svg xmlns="http://www.w3.org/2000/svg" width="53" height="50" viewBox="0 0 53 50"><defs><style>.a,.b{fill:#116155;}.b{font-size:16px;font-family:Helvetica;letter-spacing:0.04em;}.c{fill:none;}</style></defs><g transform="translate(-180 -1450)"><g transform="translate(192 1455.423)"><g transform="translate(0 2.744)"><path class="a" d="M-1051.469,1743.905a1.939,1.939,0,0,1,1.142-.348,1.583,1.583,0,0,1,1.089.394,1.393,1.393,0,0,1,.448,1.092l.02,28.64a1.486,1.486,0,0,1-.448,1.092,1.481,1.481,0,0,1-1.089.449,1.482,1.482,0,0,1-1.093-.447,1.486,1.486,0,0,1-.448-1.092l-.02-25.809-3.569,2.185a1.46,1.46,0,0,1-.793.25,1.582,1.582,0,0,1-1.041-.421,1.4,1.4,0,0,1-.5-1.118,1.668,1.668,0,0,1,.171-.745,1.554,1.554,0,0,1,.574-.6Z" transform="translate(1059.853 -1741.491)"/><path class="a" d="M-1051.3,1776.321a3.547,3.547,0,0,1-2.57-1.061,3.548,3.548,0,0,1-1.053-2.56l-.016-22.095-.407.246a3.6,3.6,0,0,1-4.269-.36,3.492,3.492,0,0,1-1.232-2.685,3.784,3.784,0,0,1,.382-1.679,3.647,3.647,0,0,1,1.333-1.44l5.518-3.5a4,4,0,0,1,4.765.228,3.482,3.482,0,0,1,1.147,2.646l.021,28.638a3.553,3.553,0,0,1-1.058,2.566A3.541,3.541,0,0,1-1051.3,1776.321Z" transform="translate(1060.846 -1740.505)"/></g><text class="b" transform="translate(25.503 37.978) rotate(-90)"><tspan x="0" y="0">UNO</tspan></text></g><path class="c" d="M5,0H48a5,5,0,0,1,5,5V45a5,5,0,0,1-5,5H5a5,5,0,0,1-5-5V5A5,5,0,0,1,5,0Z" transform="translate(180 1450)"/></g></svg>