<svg xmlns="http://www.w3.org/2000/svg" width="144.823" height="144.828" viewBox="0 0 144.823 144.828">
  <g id="Grupo_4006" data-name="Grupo 4006" transform="translate(81.966 -20.5)">
    <rect id="Rectángulo_2315" data-name="Rectángulo 2315" width="144.823" height="144.828" rx="20" transform="translate(-81.966 20.5)" fill="#c72f36"/>
    <g id="Grupo_4005" data-name="Grupo 4005" transform="translate(-51.668 44.977)">
      <path id="Trazado_6142" data-name="Trazado 6142" d="M160.463,610.436H133.935a1.873,1.873,0,0,0-1.892,1.849v2.8a1.873,1.873,0,0,0,1.892,1.85h9.532v28.478a1.874,1.874,0,0,0,1.892,1.851h3.654a1.874,1.874,0,0,0,1.892-1.851V616.94h9.558a1.873,1.873,0,0,0,1.892-1.85v-2.8A1.873,1.873,0,0,0,160.463,610.436Z" transform="translate(-132.043 -551.395)" fill="#fff"/>
      <path id="Trazado_6143" data-name="Trazado 6143" d="M377.627,635.463l9.162-23.822a1.9,1.9,0,0,1,1.773-1.2h4.14a1.9,1.9,0,0,1,1.559.8,1.814,1.814,0,0,1,.2,1.72L381.17,646.095a1.908,1.908,0,0,1-1.762,1.174h-3.6a1.906,1.906,0,0,1-1.764-1.181l-13.152-33.132a1.812,1.812,0,0,1,.2-1.717,1.9,1.9,0,0,1,1.559-.8h4a1.894,1.894,0,0,1,1.779,1.225Z" transform="translate(-328.379 -551.395)" fill="#fff"/>
      <path id="Trazado_6144" data-name="Trazado 6144" d="M251.233,502.767a18.452,18.452,0,0,0-2.443-6.6,10.123,10.123,0,0,0-5.8-4.367,41.164,41.164,0,0,0-8.633-1.59,118.426,118.426,0,0,0-17.7-.126,169.472,169.472,0,0,0-23.1,2.877,98.859,98.859,0,0,0-10.2,2.535c-1.006.362-2.021.705-3.017,1.089a23.865,23.865,0,0,0-4.269,2.082,13.049,13.049,0,0,0-2.551,2.134,99.912,99.912,0,0,1,9.788-2.413,169.443,169.443,0,0,1,23.1-2.877,118.422,118.422,0,0,1,17.7.126,41.161,41.161,0,0,1,8.634,1.59,10.124,10.124,0,0,1,5.8,4.367,18.448,18.448,0,0,1,2.443,6.6c1.445,8.146.408,16.426-2.619,24.8a31.25,31.25,0,0,1-3.8,7.4,21.014,21.014,0,0,1-1.714,2.144c1.037-.286,2.326-.633,3.348-1a18.094,18.094,0,0,0,4.436-2.254,16.756,16.756,0,0,0,4.181-4.318,31.253,31.253,0,0,0,3.8-7.4C251.641,519.193,252.678,510.913,251.233,502.767Z" transform="translate(-167.649 -447.847)" fill="#fff"/>
      <path id="Trazado_6145" data-name="Trazado 6145" d="M602.684,213.4h-3.422l-.058-7.309a1.614,1.614,0,0,0-1.565-1.646h-1.162a2.929,2.929,0,0,0-1.327.318l-2.611,1.326a1.671,1.671,0,0,0-.889,1.5V213.4h-2.2a1.054,1.054,0,0,0-1.044,1.064V215.6h0v.8a1.615,1.615,0,0,0,1.566,1.66h1.683v14.928a17.763,17.763,0,0,0,.541,5.543,4.436,4.436,0,0,0,1.869,2.126,7.215,7.215,0,0,0,3.739.809h4.821a1.564,1.564,0,0,0,1.475-1.247,2.517,2.517,0,0,0,.06-.482c.126-2.778-1.386-2.573-1.386-2.573-.743,0-2-.1-2-.1a1.987,1.987,0,0,1-.514-.2,1.921,1.921,0,0,1-.763-.913,9.626,9.626,0,0,1-.234-2.7V218.059h3.291a1.164,1.164,0,0,0,1.152-1.184l-.019-2.462A1.012,1.012,0,0,0,602.684,213.4Z" transform="translate(-523.793 -202.88)" fill="#fff"/>
      <path id="Trazado_6146" data-name="Trazado 6146" d="M406.444,283.258a1.472,1.472,0,0,0-1.318.848,7.854,7.854,0,0,1-2.249,2.909,6.03,6.03,0,0,1-.706.461,4.183,4.183,0,0,1-4.029-.019,7.727,7.727,0,0,1-1.93-1.511,10.464,10.464,0,0,1-2.5-6.531.425.425,0,0,1,.419-.46h18.621a1.232,1.232,0,0,0,1.22-1.244V277.7q0-6.859-3.454-10.642a11.513,11.513,0,0,0-8.9-3.782h-3.34a11.842,11.842,0,0,0-9.161,3.86q-3.532,3.86-3.531,10.85,0,6.756,3.493,10.5a12.3,12.3,0,0,0,9.455,3.743h3.34a12.374,12.374,0,0,0,7.779-2.348,11.456,11.456,0,0,0,3.81-5.423.889.889,0,0,0-.83-1.18ZM396.328,269.3a7.432,7.432,0,0,1,1.5-1.168,4.1,4.1,0,0,1,4.154-.068,7.449,7.449,0,0,1,2.05,1.783,8.744,8.744,0,0,1,1.651,4.434.708.708,0,0,1-.69.809H394.34a.377.377,0,0,1-.372-.412A8.487,8.487,0,0,1,396.328,269.3Z" transform="translate(-349.686 -253.386)" fill="#fff"/>
      <path id="Trazado_6147" data-name="Trazado 6147" d="M134.185,232.028h5.026a1.613,1.613,0,0,0,1.576-1.647V208.459a.527.527,0,0,1,.973-.3l14.088,22.462a2.958,2.958,0,0,0,2.5,1.411h3.833c2.454,0,2.769-1.7,2.769-3.79V195.27a1.836,1.836,0,0,0-1.794-1.875h-4.495a1.639,1.639,0,0,0-1.6,1.676l.03,21.825a.456.456,0,0,1-.84.266L142.758,195.98a5.487,5.487,0,0,0-4.617-2.585h-3.725a1.556,1.556,0,0,0-1.521,1.589v35.7A1.32,1.32,0,0,0,134.185,232.028Z" transform="translate(-132.774 -193.395)" fill="#fff"/>
    </g>
  </g>
</svg>
