<svg xmlns="http://www.w3.org/2000/svg" xmlns:xlink="http://www.w3.org/1999/xlink" width="62" height="62" viewBox="0 0 62 62">
  <defs>
    <filter id="Rectángulo_3895" x="0" y="0" width="62" height="62" filterUnits="userSpaceOnUse">
      <feOffset input="SourceAlpha"/>
      <feGaussianBlur stdDeviation="3" result="blur"/>
      <feFlood flood-opacity="0.161" result="color"/>
      <feComposite operator="out" in="SourceGraphic" in2="blur"/>
      <feComposite operator="in" in="color"/>
      <feComposite operator="in" in2="SourceGraphic"/>
    </filter>
    <clipPath id="clip-path">
      <rect id="Rectángulo_23343" data-name="Rectángulo 23343" width="50.969" height="9.414"/>
    </clipPath>
  </defs>
  <g id="Grupo_31968" data-name="Grupo 31968" transform="translate(-539 -1854)">
    <g transform="matrix(1, 0, 0, 1, 539, 1854)" filter="url(#Rectángulo_3895)">
      <rect id="Rectángulo_3895-2" data-name="Rectángulo 3895" width="62" height="62" rx="31" fill="#fff"/>
    </g>
    <g id="Grupo_31967" data-name="Grupo 31967" transform="translate(544.516 1880.293)">
      <g id="Grupo_31966" data-name="Grupo 31966" clip-path="url(#clip-path)">
        <path id="Trazado_67152" data-name="Trazado 67152" d="M0,2.865a.749.749,0,0,1,.079-.008H2.538c.026,0,.052,0,.087,0V4.014H1.567v7.024H2.625V12.2H0Z" transform="translate(0 -2.79)"/>
        <path id="Trazado_67153" data-name="Trazado 67153" d="M1741.44,79.565h-1.686v-.125q0-1.822,0-3.644a1.615,1.615,0,0,0-.023-.3.454.454,0,0,0-.329-.4.521.521,0,0,0-.557.174.888.888,0,0,0-.186.6c0,.468,0,.936,0,1.4v2.278h-1.676V73.951h1.611v.666a.431.431,0,0,0,.051-.056A1.419,1.419,0,0,1,1740,73.8a2.446,2.446,0,0,1,.56.07,1.064,1.064,0,0,1,.745.647c.017.039.033.079.056.136l.07-.1a1.479,1.479,0,0,1,.764-.667,1.875,1.875,0,0,1,1.314.055,1.111,1.111,0,0,1,.659.877,3.068,3.068,0,0,1,.054.573c0,1.357,0,2.714,0,4.072,0,.094-.028.115-.118.115-.485,0-.969,0-1.454,0h-.116v-.13q0-1.827,0-3.654a1.5,1.5,0,0,0-.032-.315.44.44,0,0,0-.34-.374.524.524,0,0,0-.538.177.8.8,0,0,0-.183.535c-.005.382,0,.763,0,1.145q0,1.239,0,2.479v.131" transform="translate(-1696.222 -72.058)"/>
        <path id="Trazado_67154" data-name="Trazado 67154" d="M1292.964,85.93h-.1c-.574,0-1.148,0-1.722,0-.082,0-.111-.022-.129-.105q-.568-2.73-1.143-5.459c0-.016,0-.033-.006-.058h1.677q.27,2.062.541,4.125h.026c.028-.18.057-.36.085-.54q.226-1.479.452-2.959c.029-.187.06-.373.084-.561.008-.062.032-.075.089-.075q.826,0,1.653,0c.07,0,.086.025.1.09q.284,2,.573,4.007c0,.013.005.026.032.041l.593-4.129h1.618c-.06.282-.119.56-.18.838q-.5,2.332-1.006,4.664c-.019.09-.049.122-.147.121-.554-.006-1.108,0-1.663,0h-.122l-.614-4.149h-.025l-.658,4.149" transform="translate(-1259.593 -78.417)"/>
        <path id="Trazado_67155" data-name="Trazado 67155" d="M336.279,11.1h-1.62v-.666l-.018,0c-.01.022-.021.044-.03.066a1.166,1.166,0,0,1-1.107.754,1.492,1.492,0,0,1-1.614-1.2,5.345,5.345,0,0,1-.2-1.494,8.443,8.443,0,0,1,.12-1.814,2.131,2.131,0,0,1,.389-.926,1.348,1.348,0,0,1,1.158-.482,1.259,1.259,0,0,1,1.2.721.1.1,0,0,0,.019.022s.006,0,.02,0V3.68h1.684Zm-2.933-2.955c.022.409.033.721.057,1.031a1.322,1.322,0,0,0,.176.605.5.5,0,0,0,.489.243.416.416,0,0,0,.388-.294,2.125,2.125,0,0,0,.136-.576c.024-.513.026-1.027.021-1.54a1.883,1.883,0,0,0-.136-.729.479.479,0,0,0-.463-.329.506.506,0,0,0-.506.331.741.741,0,0,0-.065.208c-.039.382-.071.764-.1,1.051" transform="translate(-323.904 -3.594)"/>
        <path id="Trazado_67156" data-name="Trazado 67156" d="M559.645,80.532h1.683v.127q0,1.822,0,3.644a1.79,1.79,0,0,0,.019.267.477.477,0,0,0,.368.432.548.548,0,0,0,.559-.223.843.843,0,0,0,.148-.488c0-.4,0-.8,0-1.2q0-1.215,0-2.429v-.123h1.681V86.15c-.032,0-.064.006-.1.006-.471,0-.942,0-1.414,0-.089,0-.114-.025-.11-.112.007-.149,0-.3,0-.448,0-.031,0-.062-.006-.119-.026.04-.039.057-.05.076a1.419,1.419,0,0,1-1.236.745,1.81,1.81,0,0,1-.791-.117,1.139,1.139,0,0,1-.706-.908,3.136,3.136,0,0,1-.052-.573c0-1.351,0-2.7,0-4.052Z" transform="translate(-546.512 -78.642)"/>
        <path id="Trazado_67157" data-name="Trazado 67157" d="M124.962,79.377c-.026,0-.057,0-.089,0-.468,0-.936,0-1.4,0-.08,0-.115-.026-.125-.1-.025-.179-.05-.357-.077-.547a.415.415,0,0,0-.031.041,1.452,1.452,0,0,1-1.491.741,1.765,1.765,0,0,1-.418-.082,1.2,1.2,0,0,1-.822-.965A2.419,2.419,0,0,1,120.593,77a1.321,1.321,0,0,1,.927-.788c.4-.113.813-.215,1.22-.322l.038-.011a.613.613,0,0,0,.4-.919.447.447,0,0,0-.08-.113.606.606,0,0,0-.93.187,3.221,3.221,0,0,0-.1.435h-1.474a2.407,2.407,0,0,1,.168-.921,1.358,1.358,0,0,1,.934-.8,3.909,3.909,0,0,1,2.122-.006,1.256,1.256,0,0,1,.953,1.157,3.667,3.667,0,0,1,.023.437c0,.985,0,1.971,0,2.956a6.188,6.188,0,0,0,.056.733,2.146,2.146,0,0,0,.108.355m-1.741-2.755c-.271.114-.544.223-.813.343a.524.524,0,0,0-.29.313,1.112,1.112,0,0,0,.029.825.418.418,0,0,0,.43.26.621.621,0,0,0,.624-.521.587.587,0,0,0,.019-.118c0-.367,0-.735,0-1.1" transform="translate(-117.605 -71.868)"/>
        <path id="Trazado_67158" data-name="Trazado 67158" d="M1098.021,77.564h1.479c.016.13.027.262.051.391a.617.617,0,0,0,.984.384.6.6,0,0,0,.057-.874,1.17,1.17,0,0,0-.451-.265c-.366-.138-.733-.271-1.095-.418a2.22,2.22,0,0,1-.39-.218,1.285,1.285,0,0,1-.578-.955,2.171,2.171,0,0,1,.048-.888,1.394,1.394,0,0,1,.9-.955,3.32,3.32,0,0,1,2.263-.026,1.354,1.354,0,0,1,.949,1.333c0,.082,0,.164,0,.253h-1.482c-.015-.127-.023-.249-.046-.368a.392.392,0,0,0-.365-.339,1.439,1.439,0,0,0-.346.006.4.4,0,0,0-.366.316.471.471,0,0,0,.168.551,2.378,2.378,0,0,0,.48.232c.341.127.7.218,1.03.362a1.563,1.563,0,0,1,1,1.648,1.677,1.677,0,0,1-.63,1.319,1.974,1.974,0,0,1-.928.383,3.713,3.713,0,0,1-1.731-.107,1.365,1.365,0,0,1-1-1.307c-.008-.151,0-.3,0-.461" transform="translate(-1072.253 -71.829)"/>
        <path id="Trazado_67159" data-name="Trazado 67159" d="M2063.495,11.3V4.279h-1.062V3.117h2.572v9.333h-2.573V11.3Z" transform="translate(-2014.036 -3.044)"/>
        <path id="Trazado_67160" data-name="Trazado 67160" d="M878.266,12.927h-.691V11.773h.687V10.121h1.684v1.648h.78v1.155h-.772c0,.047-.006.083-.006.118q0,1.349,0,2.7c0,.05,0,.1.008.149a.386.386,0,0,0,.423.4c.112.005.224,0,.345,0a.674.674,0,0,1,.007.069c0,.315,0,.63,0,.945,0,.072-.02.095-.093.1a6.425,6.425,0,0,1-1.439.021.9.9,0,0,1-.909-.959c-.016-.2-.023-.4-.024-.606,0-.935,0-1.871,0-2.806Z" transform="translate(-856.982 -9.884)"/>
        <rect id="Rectángulo_23340" data-name="Rectángulo 23340" width="1.667" height="7.425" transform="translate(18.405 0.085)"/>
        <rect id="Rectángulo_23341" data-name="Rectángulo 23341" width="1.673" height="5.618" transform="translate(38.3 1.889)"/>
        <rect id="Rectángulo_23342" data-name="Rectángulo 23342" width="1.675" height="1.279" transform="translate(38.298)"/>
      </g>
    </g>
  </g>
</svg>
