<svg id="Grupo_89" data-name="Grupo 89" xmlns="http://www.w3.org/2000/svg" width="25.844" height="25.094" viewBox="0 0 25.844 25.094">
  <g id="Grupo_1" data-name="Grupo 1" transform="translate(0.116 18.742)">
    <path id="Trazado_1" data-name="Trazado 1" d="M830.446,171.047a1.739,1.739,0,0,0,.818.238c.441,0,.651-.217.651-.5s-.175-.448-.623-.616c-.616-.224-.9-.56-.9-.958a1.048,1.048,0,0,1,1.168-.993,1.571,1.571,0,0,1,.826.21l-.147.441a1.384,1.384,0,0,0-.692-.2c-.364,0-.56.21-.56.462,0,.28.2.406.636.581.581.217.889.511.889,1.014,0,.6-.469,1.021-1.259,1.021a1.929,1.929,0,0,1-.951-.238l.147-.462Z" transform="translate(-806.782 -166.71)" fill="#626363" fill-rule="evenodd"/>
    <path id="Trazado_2" data-name="Trazado 2" d="M808.739,170.1a1.078,1.078,0,0,0,1.154,1.168,2.2,2.2,0,0,0,.937-.175l.112.441a2.757,2.757,0,0,1-1.133.217,1.579,1.579,0,0,1-1.665-1.707,1.649,1.649,0,0,1,1.6-1.826,1.429,1.429,0,0,1,1.392,1.595,1.5,1.5,0,0,1-.021.287Zm1.8-.441h0a.875.875,0,0,0-.846-1,1.015,1.015,0,0,0-.945,1Z" transform="translate(-788.145 -166.71)" fill="#626363" fill-rule="evenodd"/>
    <path id="Trazado_3" data-name="Trazado 3" d="M794.074,163.589v.812h.881v.469h-.881v1.819c0,.42.119.658.462.658a1.149,1.149,0,0,0,.357-.042l.028.469a1.68,1.68,0,0,1-.546.084.877.877,0,0,1-.664-.259,1.322,1.322,0,0,1-.238-.888v-1.84h-.525V164.4h.525v-.623l.6-.189Z" transform="translate(-775.363 -162.82)" fill="#626363" fill-rule="evenodd"/>
    <path id="Trazado_4" data-name="Trazado 4" d="M779.764,169.347c0-.4-.007-.742-.028-1.056h.538l.028.664h.021a1.024,1.024,0,0,1,.944-.742,1.252,1.252,0,0,1,.168.014v.581a1.755,1.755,0,0,0-.21-.014.863.863,0,0,0-.825.784,1.9,1.9,0,0,0-.021.287v1.812h-.616v-2.33Z" transform="translate(-764.249 -166.71)" fill="#626363" fill-rule="evenodd"/>
    <path id="Trazado_5" data-name="Trazado 5" d="M755.812,171.754a1.614,1.614,0,0,1-1.623-1.742,1.657,1.657,0,0,1,1.679-1.8,1.6,1.6,0,0,1,1.63,1.735,1.659,1.659,0,0,1-1.679,1.8Zm.028-.462h0c.588,0,1.028-.553,1.028-1.322,0-.574-.287-1.294-1.014-1.294s-1.035.672-1.035,1.315c0,.742.42,1.3,1.014,1.3Z" transform="translate(-742.759 -166.71)" fill="#626363" fill-rule="evenodd"/>
    <path id="Trazado_6" data-name="Trazado 6" d="M730.521,169.4c0-.434-.007-.784-.028-1.105h.553l.035.581h.014a1.306,1.306,0,0,1,1.2-.658,1.535,1.535,0,0,1,1.441,1.721,1.606,1.606,0,0,1-1.539,1.819,1.179,1.179,0,0,1-1.042-.532h-.014v1.84h-.616V169.4Zm.616.9h0a1,1,0,0,0,.028.252.942.942,0,0,0,.917.721c.65,0,1.028-.532,1.028-1.308,0-.678-.35-1.259-1-1.259a.982.982,0,0,0-.937.762,1.474,1.474,0,0,0-.035.245v.588Z" transform="translate(-722.826 -166.71)" fill="#626363" fill-rule="evenodd"/>
    <path id="Trazado_7" data-name="Trazado 7" d="M707.656,170.1a1.078,1.078,0,0,0,1.154,1.168,2.2,2.2,0,0,0,.938-.175l.112.441a2.76,2.76,0,0,1-1.134.217,1.579,1.579,0,0,1-1.665-1.707,1.649,1.649,0,0,1,1.595-1.826,1.429,1.429,0,0,1,1.392,1.595,1.508,1.508,0,0,1-.021.287Zm1.8-.441h0a.876.876,0,0,0-.847-1,1.015,1.015,0,0,0-.944,1Z" transform="translate(-703.116 -166.71)" fill="#626363" fill-rule="evenodd"/>
    <path id="Trazado_8" data-name="Trazado 8" d="M685.388,158.744v4.092c0,.3.007.644.028.875h-.553l-.028-.588h-.014a1.241,1.241,0,0,1-1.147.665,1.549,1.549,0,0,1-1.455-1.721,1.62,1.62,0,0,1,1.518-1.819,1.126,1.126,0,0,1,1.021.511h.014v-2.015Zm-.616,2.959h0a1.142,1.142,0,0,0-.028-.266.906.906,0,0,0-.888-.707c-.637,0-1.014.56-1.014,1.3,0,.692.343,1.259,1,1.259a.932.932,0,0,0,.9-.742.975.975,0,0,0,.028-.259V161.7Z" transform="translate(-682.219 -158.744)" fill="#626363" fill-rule="evenodd"/>
  </g>
  <g id="Grupo_2" data-name="Grupo 2" transform="translate(0 13.193)">
    <path id="Trazado_9" data-name="Trazado 9" d="M683.016,123.8v1h.778v.8h-.778v1.263c0,.422.1.615.428.615a1.777,1.777,0,0,0,.321-.029l.007.821a2.128,2.128,0,0,1-.707.093,1.132,1.132,0,0,1-.814-.3,1.448,1.448,0,0,1-.3-1.035V125.6h-.464v-.8h.464v-.757Z" transform="translate(-681.488 -123.804)" fill="#626363"/>
    <path id="Trazado_10" data-name="Trazado 10" d="M697.679,130.1l.471,1.621a8.157,8.157,0,0,1,.2.849h.021c.057-.285.114-.549.193-.849l.449-1.621h1.143l-1.3,3.492h-1.086L696.5,130.1Z" transform="translate(-694.116 -129.101)" fill="#626363"/>
    <path id="Trazado_11" data-name="Trazado 11" d="M726.682,133.179l-.065-.35H726.6a1.259,1.259,0,0,1-1,.428,1.07,1.07,0,0,1-1.129-1.07c0-.907.814-1.343,2.05-1.336v-.05c0-.185-.1-.45-.636-.45a1.961,1.961,0,0,0-.963.264l-.2-.7a2.88,2.88,0,0,1,1.356-.307,1.358,1.358,0,0,1,1.535,1.507v1.214a5.367,5.367,0,0,0,.051.849Zm-.129-1.649c-.571-.008-1.013.128-1.013.55a.389.389,0,0,0,.428.414.593.593,0,0,0,.564-.4.773.773,0,0,0,.022-.186Z" transform="translate(-717.642 -128.687)" fill="#626363"/>
    <path id="Trazado_12" data-name="Trazado 12" d="M746.547,132.972l1.1-1.378c.2-.236.357-.408.557-.621v-.015h-1.536V130.1h2.856v.65l-1.049,1.321a8.4,8.4,0,0,1-.571.643v.014h1.678v.864h-3.035Z" transform="translate(-736.215 -129.101)" fill="#626363"/>
    <path id="Trazado_13" data-name="Trazado 13" d="M767.59,123.8v1h.779v.8h-.779v1.263c0,.422.1.615.429.615a1.77,1.77,0,0,0,.321-.029l.007.821a2.127,2.127,0,0,1-.707.093,1.131,1.131,0,0,1-.815-.3,1.447,1.447,0,0,1-.3-1.035V125.6h-.463v-.8h.463v-.757Z" transform="translate(-752.631 -123.804)" fill="#626363"/>
    <path id="Trazado_14" data-name="Trazado 14" d="M782.742,131.78c.036.45.479.664.986.664a3.076,3.076,0,0,0,.964-.143l.143.735a3.453,3.453,0,0,1-1.264.215,1.677,1.677,0,0,1-1.864-1.779,1.749,1.749,0,0,1,1.764-1.863,1.549,1.549,0,0,1,1.557,1.743,2.6,2.6,0,0,1-.036.428Zm1.278-.742a.63.63,0,0,0-.614-.707.712.712,0,0,0-.672.707Z" transform="translate(-765.791 -128.687)" fill="#626363"/>
    <path id="Trazado_15" data-name="Trazado 15" d="M806.923,133.094a2.659,2.659,0,0,1-.971.157,1.693,1.693,0,0,1-1.849-1.786,1.821,1.821,0,0,1,2-1.856,2.511,2.511,0,0,1,.828.136l-.172.807a1.483,1.483,0,0,0-.607-.107.979.979,0,0,0,.022,1.957,1.679,1.679,0,0,0,.622-.107Z" transform="translate(-784.63 -128.687)" fill="#626363"/>
    <path id="Trazado_16" data-name="Trazado 16" d="M825.244,133.179l-.064-.35h-.021a1.258,1.258,0,0,1-1,.428,1.07,1.07,0,0,1-1.128-1.07c0-.907.814-1.343,2.049-1.336v-.05c0-.185-.1-.45-.636-.45a1.966,1.966,0,0,0-.964.264l-.2-.7a2.88,2.88,0,0,1,1.357-.307,1.358,1.358,0,0,1,1.535,1.507v1.214a5.356,5.356,0,0,0,.05.849Zm-.128-1.649c-.572-.008-1.015.128-1.015.55a.39.39,0,0,0,.429.414.593.593,0,0,0,.565-.4.8.8,0,0,0,.021-.186Z" transform="translate(-800.552 -128.687)" fill="#626363"/>
  </g>
  <g id="Grupo_3" data-name="Grupo 3" transform="translate(2.499 0)">
    <g id="Grupo_32" data-name="Grupo 32">
      <g id="Grupo_31" data-name="Grupo 31">
        <g id="Grupo_30" data-name="Grupo 30">
          <g id="Grupo_29" data-name="Grupo 29">
            <g id="Grupo_28" data-name="Grupo 28">
              <g id="Grupo_27" data-name="Grupo 27">
                <g id="Grupo_26" data-name="Grupo 26">
                  <g id="Grupo_25" data-name="Grupo 25">
                    <path id="Trazado_17" data-name="Trazado 17" d="M780.719,65.633l-4.133-6.639-.043-.063a1,1,0,0,0-.794-.442c-1.373,0-1.687,2.49-1.687,3.02a11.5,11.5,0,0,0,.424,2.882c.8,2.557,2.381,3.183,3.706,3.183h.008a5.393,5.393,0,0,0,2.095-.46.987.987,0,0,0,.573-.661A.96.96,0,0,0,780.719,65.633Z" transform="translate(-761.859 -55.669)" fill="#ffb711"/>
                    <path id="Trazado_18" data-name="Trazado 18" d="M730.924,40.738l-.014,0a10.5,10.5,0,0,0-8.1,8.066,7.331,7.331,0,0,0-.185,2.07,1.355,1.355,0,0,0,1.461,1.111,1.317,1.317,0,0,0,1.137-.942,2.308,2.308,0,0,0,.105-.61v-.07c0-.726.163-6.931,5.716-9.286a.182.182,0,0,0-.125-.342Z" transform="translate(-718.568 -40.732)" fill="#004691"/>
                    <path id="Trazado_19" data-name="Trazado 19" d="M748.735,41.831c-2.045.643-6.335,2.749-6.335,9.921a4.779,4.779,0,0,0,.127,1.47,1.32,1.32,0,0,0,1.82.709,1.341,1.341,0,0,0,.756-1.238c0-.375-.176-1.028-.223-1.4a12.325,12.325,0,0,1-.094-1.516,8.2,8.2,0,0,1,4.081-7.6.168.168,0,0,1,.016-.009.179.179,0,0,0,.094-.236A.186.186,0,0,0,748.735,41.831Z" transform="translate(-735.219 -41.647)" fill="#522db2"/>
                    <path id="Trazado_20" data-name="Trazado 20" d="M763.925,45.284c-.354.153-5.43,2.141-3.779,10a3.755,3.755,0,0,0,.4,1.109,1.341,1.341,0,0,0,1.687.521,1.361,1.361,0,0,0,.778-1.151c.03-.652-.591-1.5-.826-2.219a9.289,9.289,0,0,1-.469-2.828,6.45,6.45,0,0,1,2.392-5.128.181.181,0,0,0-.186-.306Z" transform="translate(-749.877 -44.55)" fill="#ef172f"/>
                    <path id="Trazado_21" data-name="Trazado 21" d="M704.031,46.713c-.052-.024-.94-.424-4.733-.424-.566,0-1.2.008-1.9.029a.182.182,0,0,0-.167.129.224.224,0,0,0,.069.2,13.983,13.983,0,0,1,3.972,4.458.358.358,0,0,0,.363.2.366.366,0,0,0,.3-.228,10.211,10.211,0,0,1,2.378-3.264.649.649,0,0,0,.193-.483A.672.672,0,0,0,704.031,46.713Z" transform="translate(-697.225 -45.407)" fill="#00a12f"/>
                  </g>
                </g>
              </g>
            </g>
          </g>
        </g>
      </g>
    </g>
  </g>
</svg>
