<svg xmlns="http://www.w3.org/2000/svg" xmlns:xlink="http://www.w3.org/1999/xlink" width="62" height="62" viewBox="0 0 62 62">
  <defs>
    <filter id="Rect치ngulo_3892" x="0" y="0" width="62" height="62" filterUnits="userSpaceOnUse">
      <feOffset input="SourceAlpha"/>
      <feGaussianBlur stdDeviation="3" result="blur"/>
      <feFlood flood-opacity="0.161" result="color"/>
      <feComposite operator="out" in="SourceGraphic" in2="blur"/>
      <feComposite operator="in" in="color"/>
      <feComposite operator="in" in2="SourceGraphic"/>
    </filter>
  </defs>
  <g id="Grupo_5899" data-name="Grupo 5899" transform="translate(-369 -1879)">
    <g transform="matrix(1, 0, 0, 1, 369, 1879)" filter="url(#Rect치ngulo_3892)">
      <rect id="Rect치ngulo_3892-2" data-name="Rect치ngulo 3892" width="62" height="62" rx="31" fill="#fff"/>
    </g>
    <g id="_296_Baby_TV_Color" data-name="296 Baby TV Color" transform="translate(404.934 1910.732)">
      <g id="Grupo_5506" data-name="Grupo 5506" transform="translate(-24.979 -18.995)">
        <path id="Trazado_9299" data-name="Trazado 9299" d="M33.671,27.088l.595-1.539,2.579-.34-.694,1.879H36.9l-.255.7h-.723l-.79,2.183c-.128.34.107.655.42.494a3.06,3.06,0,0,0,.878-.964l.2-.409.591.238A4.246,4.246,0,0,1,35.472,31.4a2.028,2.028,0,0,1-2.587-.019,1.583,1.583,0,0,1-.22-1.414c.115-.382.77-2.183.77-2.183H32.8l.223-.7h.653" transform="translate(-1.587 -1.227)" fill="#f9830a"/>
        <path id="Trazado_9300" data-name="Trazado 9300" d="M38.688,27.154h2.517s-.856,2.241-1.01,2.692-.015.85.427.641a3.25,3.25,0,0,0,.873-.71,3.094,3.094,0,0,1,.172-1.684c.37-.94.879-1.2,1.173-.985s.457.883-.074,1.922A5.328,5.328,0,0,1,40.5,31.447a2.245,2.245,0,0,1-2.413.1c-.621-.405-.466-1.343-.316-1.772s.92-2.624.92-2.624" transform="translate(-1.832 -1.316)" fill="#f9830a"/>
        <path id="Trazado_9301" data-name="Trazado 9301" d="M11.046,29.588a2.437,2.437,0,0,0-1.427-1.624,2.486,2.486,0,0,0-.537-.229s1.4-.365,1.285-1.31S9.227,24.6,6.839,24.519s-6.324.152-6.787,2.27A1.568,1.568,0,0,0,1.992,28.7a.7.7,0,0,0,.414-.626s-1.2-.731-.513-1.758A2.026,2.026,0,0,1,3.433,25.3a7.851,7.851,0,0,0-.273,1.468c-.061.765-.033,1.958-.033,2.449a6.259,6.259,0,0,1-.1,1.445,1.659,1.659,0,0,1-.3.515,3.758,3.758,0,0,0,1.994.4A2.328,2.328,0,0,0,6.1,30.984a4.417,4.417,0,0,0,2.817.595c1.57-.228,2.332-.967,2.133-1.991M7.3,30.379a1.066,1.066,0,1,1,1.07-1.063A1.066,1.066,0,0,1,7.3,30.379Zm0-3.047a1.065,1.065,0,1,1,1.07-1.065A1.065,1.065,0,0,1,7.3,27.332Z" transform="translate(0 -1.193)" fill="#c2021b"/>
        <path id="Trazado_9302" data-name="Trazado 9302" d="M28.2,27.631V30.24c0,.4.221.549.408.549s.469-.344.559-.77.062-2.353.062-2.353a1.049,1.049,0,0,1,.936-.462,2.9,2.9,0,0,1,1.347.427s-.05,3.649-.05,4.618a2.268,2.268,0,0,1-2.478,2.534c-2.148,0-3.09-1.24-2.614-1.922s1.579-.148,1.761.212c.2.364.2.688.069.832l-.251.145s.659.227.942-.162a1.8,1.8,0,0,0,.292-1.109V31.433a1.789,1.789,0,0,1-1.388.573A1.847,1.847,0,0,1,25.923,30.3V27.631a1.285,1.285,0,0,1,1.085-.447,1.665,1.665,0,0,1,1.195.447" transform="translate(-1.262 -1.323)" fill="#c2021b"/>
        <path id="Trazado_9303" data-name="Trazado 9303" d="M18.524,30.383c-.26,0-.542-.364-.517-.992s.054-2.193.054-2.193a1.987,1.987,0,0,0-1.212-.26c-.833.016-1.031.234-1.031.234l-.059.453a2.606,2.606,0,0,0-3.055-.07,1.953,1.953,0,0,0-.554,2.473A2.984,2.984,0,0,0,13.9,31.486c1.667.4,2.232-.585,2.232-.585a2.523,2.523,0,0,0,1.79.685c1.028-.089.855-1.2.6-1.2m-5-.253a1.066,1.066,0,1,1,1.075-1.066A1.076,1.076,0,0,1,13.519,30.13Z" transform="translate(-0.581 -1.311)" fill="#c2021b"/>
        <path id="Trazado_9304" data-name="Trazado 9304" d="M24.456,27.7a2.225,2.225,0,0,0-3.03-.292V24.733a2.41,2.41,0,0,0-1.2-.487,1.412,1.412,0,0,0-1.072.446s-.043,2.388-.043,3.2-.34,3.294,2.694,3.571c1.752.156,2.8-.355,3.234-1.224a2.141,2.141,0,0,0-.584-2.544M23.377,30a1.066,1.066,0,1,1,1.072-1.066A1.076,1.076,0,0,1,23.377,30Z" transform="translate(-0.93 -1.18)" fill="#c2021b"/>
        <path id="Trazado_9305" data-name="Trazado 9305" d="M18.154,19.507c-.24.209-5.788,3.917-7.928,3.533C9.093,22.84,8.762,21.9,8.762,20.7a12.644,12.644,0,0,1,.132-1.6,3.577,3.577,0,0,1,2.162-2.6l.031.017a11.492,11.492,0,0,0,2.994,1.156c.382.109.788.217,1.219.314a18.306,18.306,0,0,0,3.333.494,2.988,2.988,0,0,1-.479,1.021m1.216-2.384a6.056,6.056,0,0,1-.586,1.006,30.861,30.861,0,0,1-4.762-.819,17.752,17.752,0,0,1-2.753-1.082l-.222-.141-.88-.567c-1.81-1.172-3.417-2.2-3.417-4.383a6.3,6.3,0,0,1,.206-1.474c.572-2.2,1.365-3.59,2.3-4.03a1.672,1.672,0,0,1,1.482.048A10.948,10.948,0,0,1,13.4,7.53a29.3,29.3,0,0,1,3.772,4.609c1.291,2.052,2.1,3.259,2.281,3.532l.045.071.03.466A2.3,2.3,0,0,1,19.37,17.123Zm1.159-2.3a1.25,1.25,0,0,1-.815.607c-.29-.47-1.16-1.93-2.7-4.219a21.4,21.4,0,0,0-3.291-3.852l.388-.725.093-.168a3.183,3.183,0,0,1,2.226-1.861c1.125-.1,2.531,2.774,2.987,3.906a50.307,50.307,0,0,1,1.126,6.156Z" transform="translate(-0.329 -0.224)" fill="#99c027"/>
        <path id="Trazado_9306" data-name="Trazado 9306" d="M15.058,11.873a3.159,3.159,0,1,0-3.152,3.162,3.16,3.16,0,0,0,3.152-3.162" transform="translate(-0.426 -0.424)" fill="#c1041c"/>
        <path id="Trazado_9307" data-name="Trazado 9307" d="M14.4,20.44a1.691,1.691,0,1,0-1.692,1.686A1.7,1.7,0,0,0,14.4,20.44" transform="translate(-0.537 -0.912)" fill="#c1041c"/>
        <path id="Trazado_9308" data-name="Trazado 9308" d="M18.6,13.162l0,0a3.772,3.772,0,0,0,.643-2.159c0-1.749-1.068-3.164-2.4-3.164a2.121,2.121,0,0,0-1.594.8A27.929,27.929,0,0,1,18.6,13.162" transform="translate(-0.743 -0.382)" fill="#c1041c"/>
        <path id="Trazado_9309" data-name="Trazado 9309" d="M20.351,17.8l-.068.238-.236.49.488.407a2.725,2.725,0,0,1,.616.926,10.837,10.837,0,0,0,.277-1.3l-.5-.422-.575-.338" transform="translate(-0.976 -0.867)" fill="#c1041c"/>
        <path id="Trazado_9310" data-name="Trazado 9310" d="M20.466,16.527a5.315,5.315,0,0,1-.021.9l.271.182a3.105,3.105,0,0,1,.713.58,6.835,6.835,0,0,0,.14-1.06l-.557-.357-.546-.242" transform="translate(-0.996 -0.805)" fill="#c1041c"/>
        <path id="Trazado_9311" data-name="Trazado 9311" d="M29.76,3.24a.836.836,0,0,0-.836.838l.123.411a10.726,10.726,0,0,1-.934,1.3,6.521,6.521,0,0,1-.829.829,5.285,5.285,0,0,0-2.139-.825,11.447,11.447,0,0,1,.765-1.967,20.614,20.614,0,0,1,1-1.881l.181.019A.981.981,0,1,0,26.1.979l.106.513L24.422,5.727h-.145a4.9,4.9,0,0,0-4.262,2.322l-.008.067s.267,1.115.552,2.509.5,3.107.5,3.107a4.239,4.239,0,0,1,.031,1.077c-.092.286-.8.688-.8.688l-.006.062.02,0a4.439,4.439,0,0,1,1.011.428c.016-.495,0-.842,0-.955,0-.341.483-.855.483-.855a5.84,5.84,0,0,0,3.019.855c3.049,0,4.64-1.768,4.64-4.378a4.84,4.84,0,0,0-1.729-3.7c.228-.251.73-.791,1.047-1.121s.682-.727.894-.937l.09.011a.834.834,0,0,0,0-1.669m-4.7,7.9c-.909.182-1.475.1-1.915-.909a3.289,3.289,0,0,1,.522-2.579,1.875,1.875,0,0,1,1.326-1.022c1.18-.047,2.049,1.451,2.123,1.6L26.689,9.9c-.142.55-.271,1.041-.286,1.084A7.966,7.966,0,0,0,25.059,11.143Zm3.712-2.215A2.471,2.471,0,0,1,28.8,11.2a1.155,1.155,0,0,1-1.267.467L26.544,11l-.02-.01-.037-.013c.037-.134.57-2.189.688-2.651l.029-.093.316-.174C28,7.962,28.58,8.5,28.772,8.928ZM19.586,17.9l-.265.212s-.117.427-.2.743-.366.653-1.109,1.193-3.447,2.023-3.447,2.023c-.567,1.936.4,2.074,1.684,1.908s3.043-1.453,4.13-3.679a7.218,7.218,0,0,0,.376-.944l-.333-.717A3.865,3.865,0,0,0,19.586,17.9Z" transform="translate(-0.701)" fill="#ffc600"/>
        <path id="Trazado_9312" data-name="Trazado 9312" d="M25.819,9.838a.659.659,0,0,0-.646-.674.676.676,0,0,0,0,1.349.659.659,0,0,0,.646-.674" transform="translate(-1.195 -0.446)"/>
        <path id="Trazado_9313" data-name="Trazado 9313" d="M28.76,10.64a.527.527,0,1,0-.528.548.537.537,0,0,0,.528-.548" transform="translate(-1.349 -0.491)"/>
        <path id="Trazado_9314" data-name="Trazado 9314" d="M23.416,12.019a7.55,7.55,0,0,0,2.564,1.509,6.01,6.01,0,0,0,1.789.238c.209-.016.291.05-.177.086a.666.666,0,0,0-.719.612,1.705,1.705,0,0,0-.011.556A3.244,3.244,0,0,1,24.8,14.58c-1.065-.63-1.043-2.119-1.267-2.374s-.225-.273-.115-.186" transform="translate(-1.137 -0.583)" fill="#c1041c"/>
        <path id="Trazado_9315" data-name="Trazado 9315" d="M27.91,12.087c.068-.269-.212-.587-.639-.7s-.83,0-.91.267.2.583.639.706c.42.119.831,0,.91-.271" transform="translate(-1.283 -0.552)" fill="#c1041c"/>
        <path id="Trazado_9316" data-name="Trazado 9316" d="M28.313,1a.6.6,0,0,0-.6-.6.6.6,0,1,0,0,1.2.61.61,0,0,0,.6-.6" transform="translate(-1.32 -0.02)" fill="#c1041c"/>
        <path id="Trazado_9317" data-name="Trazado 9317" d="M31.033,4.261a.511.511,0,1,0-.5.515.51.51,0,0,0,.5-.515" transform="translate(-1.461 -0.183)" fill="#c1041c"/>
        <path id="Trazado_9318" data-name="Trazado 9318" d="M46.166,27.906l-.115.42-.3.3-.42.111-.427-.111-.3-.3-.119-.419.119-.418.3-.312.427-.115.42.115.3.312.115.416m-.115,0-.1-.357-.265-.279-.352-.092-.363.092-.27.279-.092.357.092.364.27.26.363.1.352-.1.267-.26Zm-1.077-.49h.407l.2.029.1.089.046.154-.043.119L45.6,27.9l.083.078.019.136v.111l.045.125.011.029H45.6l-.031-.141,0-.125-.027-.086-.049-.037-.124-.011h-.233v.4h-.158Zm.158.139v.288h.233l.15-.029.05-.112-.04-.113-.145-.033Z" transform="translate(-2.166 -1.318)"/>
      </g>
    </g>
  </g>
</svg>
