<svg xmlns="http://www.w3.org/2000/svg" xmlns:xlink="http://www.w3.org/1999/xlink" width="62" height="62" viewBox="0 0 62 62">
  <defs>
    <filter id="Rect치ngulo_3893" x="0" y="0" width="62" height="62" filterUnits="userSpaceOnUse">
      <feOffset input="SourceAlpha"/>
      <feGaussianBlur stdDeviation="3" result="blur"/>
      <feFlood flood-opacity="0.161" result="color"/>
      <feComposite operator="out" in="SourceGraphic" in2="blur"/>
      <feComposite operator="in" in="color"/>
      <feComposite operator="in" in2="SourceGraphic"/>
    </filter>
  </defs>
  <g id="Grupo_5863" data-name="Grupo 5863" transform="translate(-364 -1879)">
    <g transform="matrix(1, 0, 0, 1, 364, 1879)" filter="url(#Rect치ngulo_3893)">
      <rect id="Rect치ngulo_3893-2" data-name="Rect치ngulo 3893" width="62" height="62" rx="31" fill="#fff"/>
    </g>
    <g id="Cartoonito" transform="translate(406.5 1912.546)">
      <g id="Grupo_5507" data-name="Grupo 5507" transform="translate(-37.194 -8.235)">
        <path id="Trazado_9319" data-name="Trazado 9319" d="M141.943,10.659a.7.7,0,0,1-.693.7c-2.668.031-5.385,0-8.04.015-.635-.006-1.27-.015-1.9-.02a.7.7,0,0,1-.7-.7c0-3.314,0-6.638-.005-9.953a.7.7,0,0,1,.7-.7c3.3,0,6.627.014,9.925,0a.7.7,0,0,1,.7.695c0,.45.007.926,0,1.3-.033,2.534,0,6.182,0,8.661" transform="translate(-110.573 0)" fill="#2fcdf2"/>
        <path id="Trazado_9320" data-name="Trazado 9320" d="M139.714,24.35a1.942,1.942,0,0,0-.918-1.57,2.444,2.444,0,0,0-2.224-.033,2.081,2.081,0,0,0-1.031,2.033,1.875,1.875,0,0,0,1.227,1.717,2.816,2.816,0,0,0,2.279-.213,2,2,0,0,0,.668-1.933" transform="translate(-114.742 -19.045)" fill="#fff"/>
        <path id="Trazado_9321" data-name="Trazado 9321" d="M174.063,22.61a1.973,1.973,0,0,0-1.628.833,2.363,2.363,0,0,0-.134,2.193,2.12,2.12,0,0,0,2.007,1.111,1.893,1.893,0,0,0,1.79-1.131,2.723,2.723,0,0,0-.112-2.258,2.052,2.052,0,0,0-1.922-.748" transform="translate(-145.697 -19.141)" fill="#fff"/>
        <path id="Trazado_9322" data-name="Trazado 9322" d="M142.984,27.78a1.047,1.047,0,0,0-.13-.018,1.09,1.09,0,0,0-1.092.43,1.6,1.6,0,0,0-.129,1.293,1.135,1.135,0,0,0,1.038.8,1.266,1.266,0,0,0,1.152-.5,1.693,1.693,0,0,0,.1-1.2,1.212,1.212,0,0,0-.936-.8" transform="translate(-119.843 -23.496)"/>
        <path id="Trazado_9323" data-name="Trazado 9323" d="M180.216,28.327a1.322,1.322,0,0,0-1.05-.514,1.465,1.465,0,0,0-.223,0,1.086,1.086,0,0,0-.911.566,1.381,1.381,0,0,0,.3,1.677,1.422,1.422,0,0,0,1.749-.006,1.5,1.5,0,0,0,.135-1.724" transform="translate(-150.595 -23.544)"/>
        <path id="Trazado_9324" data-name="Trazado 9324" d="M162.652,48.8H162.6l-.043,0h0l-.068-.006-.04,0-.017,0a1.078,1.078,0,0,1-.53-.212.6.6,0,0,1-.114-.112.293.293,0,0,1-.04-.309.2.2,0,0,1,.216-.087l.019.005h0a.3.3,0,0,1,.04.017l.012.006a.6.6,0,0,1,.064.042l.008.006.01.008.011.009a1.167,1.167,0,0,0,.17.11.761.761,0,0,0,.344.082h.012a.761.761,0,0,0,.344-.082,1.165,1.165,0,0,0,.17-.11l.011-.009.01-.008.007-.005a.548.548,0,0,1,.065-.043l.012-.006a.3.3,0,0,1,.04-.017h0c.012,0,.019-.005.019,0a.2.2,0,0,1,.216.086.293.293,0,0,1-.04.309.617.617,0,0,1-.114.112,1.083,1.083,0,0,1-.53.212l-.017,0-.04,0-.068.006h0l-.045,0h-.042" transform="translate(-136.916 -40.69)" fill="#ed1b98"/>
        <path id="Trazado_9325" data-name="Trazado 9325" d="M71.218,24.719a1.339,1.339,0,0,0,.563-1.605,1.409,1.409,0,0,0-1.144-.77,4.494,4.494,0,0,0-1.485-.006.792.792,0,0,0-.6.389,3.069,3.069,0,0,0-.161,1.2v.022c-.021.464.019.9.034,1.361a1.429,1.429,0,0,0,.347,1.062.627.627,0,0,0,.783.033,1.185,1.185,0,0,0,.287-.889c0-.057,0-.114,0-.171a7.08,7.08,0,0,0,.709.835c.061.053.124.1.188.151a.681.681,0,0,0,1-.115c.264-.409-.245-1.221-.521-1.491m-1.458-.477c.008-.435,0-.767-.006-.894a1.628,1.628,0,0,1,.189-.014.688.688,0,0,1,.535.14.463.463,0,0,1,.113.3.447.447,0,0,1-.321.421,1.671,1.671,0,0,1-.489.048H69.76" transform="translate(-57.891 -18.862)"/>
        <path id="Trazado_9326" data-name="Trazado 9326" d="M310.608,23.26a2.308,2.308,0,0,0-3.08-.635,2.24,2.24,0,0,0-.758,2.837,2.164,2.164,0,0,0,1.836,1.072,2.491,2.491,0,0,0,1.261-.284,2.189,2.189,0,0,0,.742-2.99m-2.461,1.47a.651.651,0,0,1,1-.787.675.675,0,0,1,0,1,.692.692,0,0,1-1.006-.208" transform="translate(-259.528 -18.877)"/>
        <path id="Trazado_9327" data-name="Trazado 9327" d="M277.474,22.31c-.661-.025-1.184-.028-1.845,0-.524.025-.952.308-.816.883.095.4.653.462,1.072.473,0,.431-.019,1.021,0,1.452a4.172,4.172,0,0,0,.067.791.721.721,0,0,0,1.384.163,5.306,5.306,0,0,0,.124-1.747c0-.185.006-.476.009-.661.465,0,1.024-.11,1.07-.554.074-.712-.547-.783-1.062-.8" transform="translate(-232.642 -18.871)"/>
        <path id="Trazado_9328" data-name="Trazado 9328" d="M216.655,25.544c.105.13.218.255.333.377a1.757,1.757,0,0,0,.433.332,1.125,1.125,0,0,0,.539.137c.539-.009.7-.494.734-.932.025-.358.02-.77.016-1.127,0-.274-.006-.526,0-.788a2.877,2.877,0,0,0-.056-.772.764.764,0,0,0-.488-.528.842.842,0,0,0-.689.111,1.438,1.438,0,0,0-.367,1.18,9.3,9.3,0,0,0-.71-.81,1.336,1.336,0,0,0-.995-.5.671.671,0,0,0-.629.491,5.878,5.878,0,0,0-.1,1.568c0,.347-.022.7,0,1.042a1.564,1.564,0,0,0,.247.861.707.707,0,0,0,.674.288.633.633,0,0,0,.491-.27,1.843,1.843,0,0,0,.2-1.147s.22.307.364.486" transform="translate(-181.739 -18.807)"/>
        <path id="Trazado_9329" data-name="Trazado 9329" d="M103.064,22.743a.72.72,0,0,0-.276-.28,1.974,1.974,0,0,0-.972-.169c-.484,0-.92-.02-1.4,0a1.513,1.513,0,0,0-.393.064.672.672,0,0,0-.43.862c.091.32.432.415.735.466.077.013.225.021.3.024.007.581-.03,1.393.033,1.971.05.46.251.869.825.846a.523.523,0,0,0,.39-.226,1.477,1.477,0,0,0,.2-.847c.006-.124.035-1.737.037-1.737a2.262,2.262,0,0,0,.455-.037.609.609,0,0,0,.494-.934" transform="translate(-84.288 -18.866)"/>
        <path id="Trazado_9330" data-name="Trazado 9330" d="M2.573,24.856a2.1,2.1,0,0,1-.25.1.55.55,0,0,1-.538-.109.747.747,0,0,1-.219-.526.713.713,0,0,1,.31-.6.558.558,0,0,1,.323-.079,1.3,1.3,0,0,1,.4.136.916.916,0,0,0,.774-.056.624.624,0,0,0,.3-.623.809.809,0,0,0-.347-.6,1.641,1.641,0,0,0-.689-.289,2.307,2.307,0,0,0-.347-.029,2.281,2.281,0,0,0-1.783.763,2.273,2.273,0,0,0-.3,2.367,2.06,2.06,0,0,0,1.217,1.032,2.553,2.553,0,0,0,1.314.045,1.183,1.183,0,0,0,.874-.609.82.82,0,0,0,.058-.529.7.7,0,0,0-.842-.467.95.95,0,0,0-.255.07" transform="translate(0 -18.782)"/>
        <path id="Trazado_9331" data-name="Trazado 9331" d="M35.494,22.864c-.171-.358-.43-.9-.949-.919-.05,0-.091,0-.1,0-.462.015-.71.432-.888.793-.044.09-.091.178-.138.265-.183.336-.346.681-.5,1.032-.171.395-.351.8-.487,1.206a.956.956,0,0,0-.047.357.645.645,0,0,0,.3.578.786.786,0,0,0,.585.089c.318-.082.474-.364.579-.71.163,0,.448,0,.611,0h.063c.161,0,.445,0,.608,0a1.1,1.1,0,0,0,.042.113.818.818,0,0,0,.538.6.755.755,0,0,0,.188.024h.011a.779.779,0,0,0,.491-.2l.015-.013a.53.53,0,0,0,.149-.212.926.926,0,0,0,.05-.253,1.081,1.081,0,0,0-.117-.554l-.24-.553q-.361-.834-.77-1.647m-1,1.579c-.178,0-.2,0-.451-.005a9.995,9.995,0,0,1,.451-1.03h0c.135.254.352.782.451,1.03-.252.005-.273,0-.451.005" transform="translate(-27.42 -18.578)"/>
        <path id="Trazado_9332" data-name="Trazado 9332" d="M254.326,22.574a.725.725,0,0,0-.6-.291.79.79,0,0,0-.6.294,1.7,1.7,0,0,0-.266.986c-.027.383-.014.77-.016,1.154a5.086,5.086,0,0,0,.057,1.119.825.825,0,0,0,1.221.564c.56-.347.471-1.091.487-1.64.011-.38,0-.72,0-1.08a2.017,2.017,0,0,0-.281-1.105" transform="translate(-214.058 -18.865)"/>
      </g>
    </g>
  </g>
</svg>
