<svg xmlns="http://www.w3.org/2000/svg" width="86" height="38" viewBox="0 0 86 38">
  <g id="cinemax" transform="translate(0.356 0.219)">
    <rect id="Rectángulo_3581" data-name="Rectángulo 3581" width="86" height="38" transform="translate(-0.356 -0.219)" fill="none"/>
    <g id="Grupo_4766" data-name="Grupo 4766" transform="translate(10.432 7.875)">
      <path id="Trazado_7468" data-name="Trazado 7468" d="M496.441,355.576l-56.2,7.225-1,10.3,55.731-6.758Z" transform="translate(-434.244 -353.601)" fill="#100f0c"/>
      <path id="Trazado_7469" data-name="Trazado 7469" d="M482.872,363.027l.433,1.822-1.389.168Zm17.868-8.486-2.053,14.6-62.065,7.621,2.053-14.6Zm-8.7,8.155,2.824-4.116-2.942.363-1.315,2.034-1.1-1.738-2.746.338,2.227,3.383-2.54,3.707-1.9-6.808-2.517.309-4.045,7.7,1.038-7.344-2.79.342-2.017,2.958-1.24-2.557-2.505.307-1.109,7.848,2.486-.305.546-3.891,1.351,2.578.044-.006,2.143-3.005-.548,3.889,2.324-.284.2-.027,2.563-.313.538-1.1,2.658-.328.256,1.006,2.032-.25.67-.082,2.271-.279,1.544-2.372,1.191,2.036,2.746-.338Zm-26.761,2.416.111-.8,3.984-.488.309-2.152-6.48.8-1.109,7.848,6.474-.8.3-2.152-3.98.488.128-.853,3.711-.456.261-1.893ZM453.7,371.346l2.517-.309.557-3.9,2.265,3.557,2.257-.277,1.109-7.848-2.517.309-.532,3.746-2.171-3.414-2.378.292Zm.326-7.751-2.54.311-1.107,7.848,2.54-.311Zm-10.779,7.682c-.071.7.647,1.277,1.6,1.162h0l4.736-.582.328-2.194-3.219.395c-.426.053-.809-.08-.735-.632l.282-1.988c.086-.632.618-.8,1.179-.868l2.98-.364.313-2.2-5.242.645A1.663,1.663,0,0,0,444,365.892l-.752,5.385Z" transform="translate(-436.621 -354.541)" fill="#ffb000"/>
    </g>
  </g>
</svg>
