<svg xmlns="http://www.w3.org/2000/svg" width="86" height="38" viewBox="0 0 86 38">
  <g id="cinecanal" transform="translate(-0.109 0.09)">
    <rect id="Rect치ngulo_3581" data-name="Rect치ngulo 3581" width="86" height="38" transform="translate(0.109 -0.09)" fill="none"/>
    <g id="Grupo_5189" data-name="Grupo 5189" transform="translate(17.296 5.376)">
      <g id="_378_Cinecanal_Negro" data-name="378  Cinecanal Negro" transform="translate(0)">
        <g id="Grupo_5175" data-name="Grupo 5175">
          <g id="Grupo_5174" data-name="Grupo 5174">
            <path id="Trazado_8586" data-name="Trazado 8586" d="M246.643,368.37a2.021,2.021,0,0,1-2.288-.316,2.14,2.14,0,0,1,0-2.809,2.021,2.021,0,0,1,2.288-.316,1.471,1.471,0,0,1,.608.6l1.582-.91a3.465,3.465,0,0,0-1.3-1.236,3.652,3.652,0,0,0-1.8-.458,3.727,3.727,0,1,0,0,7.453,3.664,3.664,0,0,0,1.8-.455,3.374,3.374,0,0,0,1.292-1.24l-1.582-.917a1.457,1.457,0,0,1-.608.606" transform="translate(-242.012 -342.849)" fill="#100f0c"/>
            <rect id="Rect치ngulo_3713" data-name="Rect치ngulo 3713" width="1.827" height="7.146" transform="translate(7.066 20.227)" fill="#100f0c"/>
            <path id="Trazado_8587" data-name="Trazado 8587" d="M252.5,363.027v3.594l-2.521-3.594h-1.419v7.146h1.827v-3.593l2.523,3.593h1.409v-7.146Z" transform="translate(-238.95 -342.801)" fill="#100f0c"/>
            <path id="Trazado_8588" data-name="Trazado 8588" d="M254.8,368.459v-1.052h2.461v-1.684H254.8v-.99h2.715v-1.705h-4.544v7.146h4.6v-1.714Z" transform="translate(-236.885 -342.801)" fill="#100f0c"/>
            <path id="Trazado_8589" data-name="Trazado 8589" d="M260.063,369.643a2.905,2.905,0,0,1-2.185-.869,3.106,3.106,0,0,1,0-4.267,2.905,2.905,0,0,1,2.185-.869,2.748,2.748,0,0,1,2.46,1.429l.633-.368a3.521,3.521,0,0,0-3.092-1.755,3.7,3.7,0,1,0,0,7.393,3.5,3.5,0,0,0,3.092-1.767l-.633-.357a2.751,2.751,0,0,1-2.46,1.43" transform="translate(-235.323 -342.84)" fill="#100f0c"/>
            <path id="Trazado_8590" data-name="Trazado 8590" d="M264.422,363.027h-.735l-2.746,7.146h.754l.663-1.754h3.39l.663,1.754h.756Zm-1.807,4.717,1.438-3.829,1.441,3.829Z" transform="translate(-233.159 -342.801)" fill="#100f0c"/>
            <path id="Trazado_8591" data-name="Trazado 8591" d="M270.126,363.027v5.82l-3.981-5.82h-.613v7.146h.713v-5.819l3.983,5.819h.613v-7.146Z" transform="translate(-231.012 -342.801)" fill="#100f0c"/>
            <path id="Trazado_8592" data-name="Trazado 8592" d="M272.978,363.027h-.734l-2.747,7.146h.756l.663-1.754h3.39l.663,1.754h.756Zm-1.805,4.717,1.438-3.829,1.44,3.829Z" transform="translate(-229.158 -342.801)" fill="#100f0c"/>
            <path id="Trazado_8593" data-name="Trazado 8593" d="M274.8,369.5v-6.474h-.715v7.146h3.983V369.5Z" transform="translate(-227.01 -342.801)" fill="#100f0c"/>
            <path id="Trazado_8594" data-name="Trazado 8594" d="M261.651,349.246a8.128,8.128,0,1,0,8.127,8.128,8.126,8.126,0,0,0-8.127-8.128m-1.143,9.531a2.017,2.017,0,0,0,2.287.317,1.444,1.444,0,0,0,.608-.608l1.582.92a3.374,3.374,0,0,1-1.292,1.24,3.663,3.663,0,0,1-1.8.453,3.726,3.726,0,1,1,1.8-6.994,3.419,3.419,0,0,1,1.3,1.236l-1.582.909a1.455,1.455,0,0,0-.608-.6,2.019,2.019,0,0,0-2.287.316,2.138,2.138,0,0,0,0,2.808" transform="translate(-236.628 -349.246)" fill="#100f0c"/>
          </g>
        </g>
      </g>
    </g>
  </g>
</svg>
