<svg xmlns="http://www.w3.org/2000/svg" width="86" height="38" viewBox="0 0 86 38">
  <g id="Grupo_5390" data-name="Grupo 5390" transform="translate(-0.109 -0.238)">
    <rect id="Rect치ngulo_3581" data-name="Rect치ngulo 3581" width="86" height="38" transform="translate(0.109 0.238)" fill="none"/>
    <g id="_290_Cartoon_Network_Color_Negro" data-name="290 Cartoon Network Color/Negro" transform="translate(43.827 18.431)">
      <g id="_290_Cartoon_Network_Color_Negro-2" data-name="290 Cartoon Network Color/Negro" transform="translate(-21.622 -12.729)">
        <rect id="Rect치ngulo_3622" data-name="Rect치ngulo 3622" width="43.243" height="21.151" fill="#fff"/>
        <g id="Grupo_4762" data-name="Grupo 4762">
          <path id="Trazado_7416" data-name="Trazado 7416" d="M21.1,0H0V21.1H21.1ZM11.16,13.949a3.313,3.313,0,0,0,2.964-1.744l5.231,2.964a9.416,9.416,0,1,1,0-9.416L14.124,8.718a3.313,3.313,0,1,0-2.964,5.231Z"/>
          <path id="Trazado_7417" data-name="Trazado 7417" d="M30.96,18.86V.9H25.031V8.4L18.929.9H13V18.86h5.929v-7.5l6.1,7.5H30.96" transform="translate(9.668 0.669)"/>
          <path id="Trazado_7418" data-name="Trazado 7418" d="M18.869,14.744l.349.7h.7L20.439,13h-.872l-.174,1.046L18.869,13l-.349,1.046L18.172,13H17.3l.523,2.441h.7l.349-.7" transform="translate(12.866 9.668)"/>
          <path id="Trazado_7419" data-name="Trazado 7419" d="M18.316,13H15.7v.7h.872v1.744h1.046V13.7h.7V13" transform="translate(11.676 9.668)"/>
          <path id="Trazado_7420" data-name="Trazado 7420" d="M20.495,12.9a1.395,1.395,0,1,0,1.395,1.395A1.395,1.395,0,0,0,20.495,12.9m0,1.918-.523-.523.523-.523.523.523-.523.523" transform="translate(14.204 9.593)"/>
          <path id="Trazado_7421" data-name="Trazado 7421" d="M15.216,15.441V13h-.872v1.046L13.472,13H12.6v2.441h.872V14.395l.872,1.046h.872" transform="translate(9.37 9.668)"/>
          <path id="Trazado_7422" data-name="Trazado 7422" d="M16.567,13.7V13H14.3v2.441h2.267v-.7H15.172v-.174h1.046v-.7H15.172V13.7h1.395" transform="translate(10.635 9.668)"/>
          <path id="Trazado_7423" data-name="Trazado 7423" d="M23.316,13.879a.872.872,0,0,0-1.046-.872H20.7v2.616h.872v-.872h.349l.349.7h1.046l-.523-.872a.872.872,0,0,0,.523-.872m-1.569-.174Z" transform="translate(15.394 9.66)"/>
          <path id="Trazado_7424" data-name="Trazado 7424" d="M25.016,13H23.795l-.523.7V13H22.4v2.441h.872v-.872l.523.872h1.221l-1.046-1.221L25.016,13" transform="translate(16.658 9.668)"/>
          <path id="Trazado_7425" data-name="Trazado 7425" d="M3.892,15.441h.872L4.067,13H2.672L1.8,15.616h.872v-.349h.872v.349m-.7-1.046Z" transform="translate(1.339 9.668)"/>
          <path id="Trazado_7426" data-name="Trazado 7426" d="M7.816,13H5.2v.7h.872v1.744h.872V13.7h.872V13" transform="translate(3.867 9.668)"/>
          <path id="Trazado_7427" data-name="Trazado 7427" d="M2.213,14.4l-.523.349-.523-.523L1.69,13.7l.523.349.7-.349a1.395,1.395,0,1,0,0,1.395l-.7-.349" transform="translate(0.228 9.668)"/>
          <path id="Trazado_7428" data-name="Trazado 7428" d="M8.095,12.9A1.395,1.395,0,1,0,9.49,14.295,1.395,1.395,0,0,0,8.095,12.9m0,1.744-.523-.523.523-.523.523.523-.523.523" transform="translate(4.983 9.593)"/>
          <path id="Trazado_7429" data-name="Trazado 7429" d="M9.795,12.9a1.395,1.395,0,1,0,1.395,1.395A1.395,1.395,0,0,0,9.795,12.9m0,1.744-.523-.523.523-.523.523.523-.523.523" transform="translate(6.247 9.593)"/>
          <path id="Trazado_7430" data-name="Trazado 7430" d="M12.716,15.441V13h-.872v1.046L10.972,13H10.1v2.441h.872V14.395l.872,1.046h.872" transform="translate(7.511 9.668)"/>
          <path id="Trazado_7431" data-name="Trazado 7431" d="M6.141,13.879a.872.872,0,0,0-1.046-.872H3.7v2.616h.872v-.872h.349l.349.7H6.316l-.523-.872a.872.872,0,0,0,.523-.872m-1.569-.174Z" transform="translate(2.752 9.66)"/>
          <path id="Trazado_7432" data-name="Trazado 7432" d="M24.523,14v.174h-.174V14.7h-.174v-.523H24V14h.523" transform="translate(17.848 10.412)"/>
          <path id="Trazado_7433" data-name="Trazado 7433" d="M24.923,14H25.1v.7h-.174v-.523l-.174.523h0l-.174-.523h0V14.7H24.4V14h.174l.174.523L24.923,14" transform="translate(18.146 10.412)"/>
        </g>
      </g>
    </g>
  </g>
</svg>
