<svg xmlns="http://www.w3.org/2000/svg" width="86" height="38" viewBox="0 0 86 38">
  <g id="cnn" transform="translate(-0.293 0.055)">
    <rect id="Rectángulo_3581" data-name="Rectángulo 3581" width="86" height="38" transform="translate(0.293 -0.055)" fill="none"/>
    <g id="Grupo_4827" data-name="Grupo 4827" transform="translate(22.684 5.286)">
      <g id="Grupo_4825" data-name="Grupo 4825" transform="translate(38.204 25.248)">
        <path id="Trazado_7951" data-name="Trazado 7951" d="M312.951,470.381v.163h-.312v.826h-.2v-.826h-.312v-.163Zm1.072.989-.04-.585c0-.075,0-.17-.011-.278h-.005c-.023.093-.052.21-.079.3l-.18.548H313.5l-.175-.56c-.018-.073-.047-.193-.067-.285h-.012c0,.095,0,.187,0,.278l-.04.585h-.193l.075-.989h.292l.173.48c.025.082.042.151.063.252h.011a1.946,1.946,0,0,1,.065-.243l.173-.489h.284l.079.989Z" transform="translate(-312.124 -470.381)" fill="#d90017"/>
      </g>
      <g id="Grupo_4826" data-name="Grupo 4826" transform="translate(0 0)">
        <path id="Trazado_7952" data-name="Trazado 7952" d="M291.894,469.831a5.9,5.9,0,0,0,6.3,6.016h5.216a.637.637,0,0,0,.629-.629v-10.8a1.082,1.082,0,0,1,.709-1.1,1.063,1.063,0,0,1,1.175.436l.011.019c1.45,2.376,7.2,11.573,7.379,11.872a.45.45,0,0,0,.483.214c.18-.051.294-.268.294-.56V464.42a1.074,1.074,0,0,1,.707-1.1,1.043,1.043,0,0,1,1.168.438l.014.012c1.448,2.376,7.19,11.574,7.379,11.872a.456.456,0,0,0,.5.217c.18-.054.294-.271.294-.564V460.96h-2.227v8.37s-1.34-2.273-3.63-6.193c-2.234-3.842-6.454-2.254-6.454,1.051v5.141s-1.3-2.275-3.588-6.2c-2.231-3.842-6.46-2.252-6.463,1.052v8.843a.578.578,0,0,1-.576.6H298.45c-5.98.009-5.446-7.645-.354-7.648,2.261-.005,3.05,0,3.05,0v-2.217h-3.171A5.89,5.89,0,0,0,291.894,469.831Z" transform="translate(-289.113 -452.261)" fill="#d90017"/>
        <path id="Trazado_7953" data-name="Trazado 7953" d="M325.908,460.932v14.336a1.05,1.05,0,0,1-.685,1.1.915.915,0,0,1-.287.046,1.056,1.056,0,0,1-.848-.478l0-.014c-.061-.1-5.908-9.456-7.393-11.879a.487.487,0,0,0-.532-.212.543.543,0,0,0-.31.562v10.874a1.063,1.063,0,0,1-.686,1.1.986.986,0,0,1-1.115-.438l-.012-.009c-.058-.1-5.9-9.457-7.388-11.879a.476.476,0,0,0-.529-.212c-.2.061-.315.273-.315.559v10.8a1.193,1.193,0,0,1-1.2,1.191H299.39a6.607,6.607,0,1,1-.224-13.21h3.173v-2.243h-2.77c-12.432,0-12.324,17.715.165,17.722h4.873a3.2,3.2,0,0,0,3.448-3.535v-4.488s2.737,4.533,3.814,6.309c1.823,3.019,6.246,2.423,6.234-1.345v-4.964l3.8,6.312c1.833,3.017,6.246,2.425,6.235-1.348v-14.66Z" transform="translate(-290.306 -452.232)" fill="#d90017"/>
        <path id="Trazado_7954" data-name="Trazado 7954" d="M315.268,460.468c-2.042.056-3.474-.515-5.654-1.378L309.4,459a12.981,12.981,0,0,0-5.467-1.345,5.4,5.4,0,0,0-5.32,3.815h.867a5.543,5.543,0,0,1,1.084-1.6,4.189,4.189,0,0,1,2.856-.935,6.086,6.086,0,0,1,1.389.18,10.029,10.029,0,0,1,1.362.4l1.653.657c.592.229,1.035.426,1.488.583l.208.093a17.856,17.856,0,0,0,2.423.716,10.357,10.357,0,0,0,2.313.264,8.355,8.355,0,0,0,4.614-1.368,7.512,7.512,0,0,0,3.027-4.306h-.83l-.028.093A5.933,5.933,0,0,1,315.268,460.468Z" transform="translate(-284.066 -455.809)" fill="#d90017"/>
        <path id="Trazado_7955" data-name="Trazado 7955" d="M298.72,461.557a5.938,5.938,0,0,1,5.766-4.21,13.286,13.286,0,0,1,5.652,1.378l.222.088a12.87,12.87,0,0,0,5.474,1.348,5.389,5.389,0,0,0,5.318-3.842h-.869a5.466,5.466,0,0,1-1.087,1.6,4.16,4.16,0,0,1-2.858.939,6.284,6.284,0,0,1-1.389-.18,12.846,12.846,0,0,1-1.359-.4l-1.649-.662-.184-.065-1.42-.543a19.963,19.963,0,0,0-2.523-.786,10.621,10.621,0,0,0-2.3-.257,8.337,8.337,0,0,0-4.619,1.364,7.586,7.586,0,0,0-3.036,4.3h.851Z" transform="translate(-284.636 -455.962)" fill="#d90017"/>
      </g>
    </g>
  </g>
</svg>
