<svg xmlns="http://www.w3.org/2000/svg" width="86" height="38" viewBox="0 0 86 38">
  <g id="disney_" data-name="disney " transform="translate(0.356 -0.238)">
    <rect id="Rectángulo_3581" data-name="Rectángulo 3581" width="86" height="38" transform="translate(-0.356 0.238)" fill="none"/>
    <g id="Grupo_4834" data-name="Grupo 4834" transform="translate(11.183 6.583)">
      <path id="Trazado_7956" data-name="Trazado 7956" d="M229.586,407.569c-1.321.22-2.155.993-1.949,1.6A7.811,7.811,0,0,1,229.586,407.569Z" transform="translate(-201.448 -402.192)" fill="#008ad8"/>
      <path id="Trazado_7957" data-name="Trazado 7957" d="M217.02,412.586c0,.575,2.1,2.306,5.183,3.393,0-1.344.014-3.35.031-4.747C219.726,411.358,217.016,411.7,217.02,412.586Z" transform="translate(-211.636 -398.667)" fill="#008ad8"/>
      <path id="Trazado_7958" data-name="Trazado 7958" d="M228.109,409.856a3.011,3.011,0,0,0,.883.12c.84,0,2.783-.779,2.781-1.723a.556.556,0,0,0-.606-.565C230.378,407.692,228.774,409.1,228.109,409.856Z" transform="translate(-200.964 -402.077)" fill="#008ad8"/>
      <path id="Trazado_7959" data-name="Trazado 7959" d="M276.594,417.365a4.94,4.94,0,0,0-3.538-3.542,5.09,5.09,0,0,0-3.25.243,6.31,6.31,0,0,0-1.554.946,3.8,3.8,0,0,0-2.455-.967c-.946.045-4.82.495-5.813,1.022-.546-.964-1.4-2.039-2.435-2.117a1.407,1.407,0,0,0-1.252.555,2.811,2.811,0,0,0-.247,2.125c-1.48-1.48-4.8-1.576-6.912-1.592a15.553,15.553,0,0,0-5.369.909,9.36,9.36,0,0,0,2.728-2.3,2.678,2.678,0,0,0,2.475-1.1,2.759,2.759,0,0,0,.139-2.8,3.009,3.009,0,0,0-1.841-1.5,2.746,2.746,0,0,0-2.461.489h0a2.588,2.588,0,0,0-1.627-2.072,2.874,2.874,0,0,0-2.806.379,2.564,2.564,0,0,0-.895,1.311,2.4,2.4,0,0,0,.228,1.815l-.01.01a3.74,3.74,0,0,0-1.417,2.844,25.288,25.288,0,0,0-6.115-4.384,24.811,24.811,0,0,0-10.13-2.808,22.488,22.488,0,0,0-5.1.449c-2.6.779-2.85,2.667-2.571,3.487.314.918,1.387,1.278,2.767,1.04a1.464,1.464,0,0,0,1.162-1.179,20.872,20.872,0,0,1,6.535.648,20.412,20.412,0,0,0-1.022,5.169,16.442,16.442,0,0,0-3.5,1.134,4.217,4.217,0,0,0-2.294,2.121,3.176,3.176,0,0,0,.926,2.979,15.316,15.316,0,0,0,4.828,3.632,2.55,2.55,0,0,0,1.611,2.21,2.267,2.267,0,0,0,2.583-.824,18.276,18.276,0,0,0,3.132.285l0,1.238a2.787,2.787,0,0,0,2.777,2.785h31.3a3.53,3.53,0,0,0,2.11,1.976c1.645.324,1.839-1.2,1.927-1.688a10.8,10.8,0,0,1,.33-1.5l1.2-4.037a7.512,7.512,0,0,0,3.1-1.278,7.706,7.706,0,0,0,2.084-2.265A5.174,5.174,0,0,0,276.594,417.365Zm-22.281-1.486c1.04.077,3.532,4.627,3.821,4.545.186-.051.206-.479.206-.716-.006-1.152-1.2-4.156-1.2-5.02,0-.287.045-.559.3-.559,1.022,0,2.775,3.232,2.785,5.876,0,1.15-.71,2.928-1.927,2.93-1.119.006-3.13-4.145-3.5-4.145-.495,0,.143,4.541-1.091,4.543-.832,0-1.026-.748-1.028-1.866S253.245,415.8,254.313,415.879Zm-5.228-.655c1.189,0,3.293-.014,3.3.807,0,1.374-6.764.63-6.776,1.635-.006.306,1.466.375,2.832.487,1.823.155,3.913.4,3.921,2.614,0,.909-.781,2.671-3.882,2.677-3.144.012-4.266-1.6-4.268-2.288-.006-1.321,1.258-1.682,2.137-1.686.836,0,3.542.324,3.544.991,0,.367-.677.728-1.493.732s-2-.728-2.577-.728-.828.387-.828.61.033.671,1.568.667c.746,0,4.364-.406,4.363-1.405,0-.447-1.662-.891-3.028-1.03-1.678-.169-4.2.247-4.207-1.458C243.68,415.334,248.194,415.226,249.085,415.224Zm-7.652-5.836a1.61,1.61,0,0,1-.936-.9,1.4,1.4,0,0,1,.214-1.368,1.845,1.845,0,0,1,2.4-.361,1.5,1.5,0,0,1,.7,1.168,1.446,1.446,0,0,1-.4,1.042,2.274,2.274,0,0,1,1.474.695l.024,0a1.447,1.447,0,0,1,.181-.657,1.625,1.625,0,0,1,1.215-.8,1.95,1.95,0,0,1,1.6.63,1.754,1.754,0,0,1,.471,1.1,1.584,1.584,0,0,1-.52,1.285,1.653,1.653,0,0,1-1.382.363,1.49,1.49,0,0,1-.589-.186,4.877,4.877,0,0,1-3.736,2.463c-2.182-.037-2.724-1.3-2.726-2.023A3.342,3.342,0,0,1,241.433,409.388Zm-14.377,5.885c5.756,0,7.469,1.594,7.473,2.951a2.051,2.051,0,0,1-1.264,1.666c-.577-.041-1.24.012-1.242-.283,0-.392.716-.675.716-1.087,0-.483-2.706-1.211-4.771-1.2-.257,0-.555,0-.877.008.031,1.637.106,4.229.145,5.465a15.062,15.062,0,0,0,2.861.277c2.785-.008,7.834-.877,7.822-4.757-.016-4.99-9.8-10.876-18.3-10.852-.991.006-2.973.09-2.973.459,0,.318.514.255.514.573,0,.226-.349.257-.738.257s-1.02-.045-1.007-.587a2.069,2.069,0,0,1,1.26-1.554h0a14.707,14.707,0,0,1,4.378-.591c8.984-.251,19.308,7.106,19.322,12.222.014,3.817-4.17,6.6-9.38,6.617a15,15,0,0,1-3.756-.465c-.078.573-.332,1.119-1.073,1.119-1.02.006-1.242-.785-1.3-1.935-3.593-1.56-5.813-4.123-5.813-5.14,0-1.244,2.757-2.508,5.862-2.975.061-1.464.269-4.115.991-4.117C226.774,411.338,227,413.746,227.057,415.273Zm7.075,13.741a1.642,1.642,0,0,1-1.541-.893c-.165-.5.077-1.02.716-1.556a5.053,5.053,0,0,1,2.873-1.468.9.9,0,0,1,1.04.634.418.418,0,0,1-.807.218.309.309,0,0,0-.167-.016,4.313,4.313,0,0,0-2.4,1.274c-.416.349-.485.573-.459.65.049.143.387.3.673.318a19.875,19.875,0,0,0,3.5-.271.419.419,0,1,1,.269.793A20.364,20.364,0,0,1,234.131,429.014Zm7.585-1.878.078,1.784a.418.418,0,0,1-.4.438h-.02a.419.419,0,0,1-.418-.4l-.071-1.592c-.367.106-.795.232-1.219.357v1.028a.418.418,0,1,1-.836,0v-.777l-.12.035a.384.384,0,0,1-.122.02.419.419,0,0,1-.122-.82l.363-.11v-1.542a.418.418,0,0,1,.836,0v1.293c.393-.118.816-.241,1.179-.343l-.057-1.319a.416.416,0,0,1,.4-.436.42.42,0,0,1,.438.4l.051,1.136.065-.014a.41.41,0,0,1,.477.351C242.24,426.893,242.087,427.077,241.716,427.136Zm-.557-7.1c.027-1.293.049-4.841.93-4.845.689,0,1.007.9,1.117,5.593.061,2.475-.181,2.557-.885,2.559C241.533,423.35,241.094,423,241.159,420.04Zm1.89,9.4a.42.42,0,0,1-.359-.51c.051-.22.1-.424.149-.62a.416.416,0,0,1-.126-.8l.363-.139c.681-2.59.928-2.6,1.209-2.612.222-.006.436-.012,1.4,1.741a.418.418,0,0,1,.338.628c.224.426.481.926.777,1.517a.419.419,0,1,1-.75.375c-.253-.508-.532-1.046-.8-1.545-.457.151-1.02.355-1.468.524-.1.375-.194.759-.281,1.128A.417.417,0,0,1,243.049,429.44Zm4.647.13a.418.418,0,0,1-.465-.273,12.279,12.279,0,0,1-.051-1.821c-.008-1.845.029-1.968.332-2.094.334-.139.542.128.856.528.2.257.455.6.724.96.243.33.565.754.818,1.075.01-.7.106-2.765.131-2.959a.418.418,0,1,1,.83.1c-.018.143-.114,1.8-.124,2.5s-.012,1.309-.351,1.517a.533.533,0,0,1-.526.014c-.2-.1-.444-.394-1.452-1.749-.124-.169-.265-.357-.4-.536-.008.875.014,2.07.027,2.282A.413.413,0,0,1,247.7,429.569Zm7.343-.508c-.408.184-.82-.182-1.515-.848l-.061-.059c-.183-.175-.461-.469-.756-.781-.108-.114-.232-.245-.357-.377.025.538.073,1.246.124,1.9a.418.418,0,0,1-.387.449l-.031,0a.419.419,0,0,1-.418-.387s-.055-.718-.1-1.442c-.086-1.5-.1-1.766.279-1.882.316-.094.428.026,1.5,1.16.275.291.559.593.724.752l.063.057c.09.086.222.214.355.334-.069-.738-.19-1.907-.265-2.588a.419.419,0,0,1,.834-.09c.012.112.294,2.744.316,3.242A.539.539,0,0,1,255.039,429.061Zm4.362-.3a6.5,6.5,0,0,1-2.221.281,1.1,1.1,0,0,1-.9-.2,3.908,3.908,0,0,1-.292-1.3.457.457,0,0,1-.018-.106l0-.02c-.088-.76-.137-1.533-.137-1.546a.54.54,0,0,1,.163-.4c.206-.2.5-.208,1.007-.2s1.707-.063,1.86-.078a.419.419,0,0,1,.208.809c-.159.055-1.747.112-2.084.108-.059,0-.186,0-.3,0,.02.218.026.312.063.655.683-.025,1.542-.086,1.925-.151a.39.39,0,0,1,.4.385.41.41,0,0,1-.349.406,13.05,13.05,0,0,1-1.882.171c.022.159.069.559.086.661a9.029,9.029,0,0,0,2.062-.241c.228-.043.422-.051.534.151A.479.479,0,0,1,259.4,428.759Zm1.24-3.786a.426.426,0,0,1,.424.412c0,.112.047,2.61.051,3.036l.045-.006a11.67,11.67,0,0,1,3.02-.149.418.418,0,0,1-.086.832,10.575,10.575,0,0,0-2.793.143c-.528.094-1.024-.133-1.024-.769,0-.155-.033-2.076-.051-3.071A.421.421,0,0,1,260.642,424.973Zm1.758-1.038c-1.415.045-1.925-1.491-1.929-2.184a12.876,12.876,0,0,1,.573-2.051c.045-.175-.192-.4-.179-.544.061-.622.96-.691,1.036-.914a3.9,3.9,0,0,0,.236-1.04c-.031-.175-1.3-.428-1.3-1.068,0-.679,2.7-.667,4.775-.893,1.213-.134,2.2,1,2.116,1.274a.808.808,0,0,1-.638.528c-.2.049-2.791.12-3.179.283-.192.078-.314.869-.222,1.024a9.649,9.649,0,0,0,2.078.186.656.656,0,0,1-.169,1.278c-.31.02-2.192-.012-2.5.086s-.6,1.491-.444,1.635a28.55,28.55,0,0,0,3-.395c.432,0,1.042.481.995.893A6.326,6.326,0,0,1,262.4,423.935Zm7.479-.289c-.251,1.054-.971,3.519-1.423,4.869-.32.94-.375,2.324-.618,2.377-.64.141-1.709-.9-1.729-1.953-.037-2.045,1.1-5.412,1.568-6.927a3.979,3.979,0,0,1-.428-1.727c-.008-2.259,2.074-4.68,2.726-5.216.34-.273.644.487.373,1.064-.259.551-1.646,2.755-1.644,3.491a1.256,1.256,0,0,0,.139.51c1.366-1.743,3.705-4.323,4.918-4.4.44-.026,1.825.538,1.831,2.873S272.7,423.845,269.879,423.647Z" transform="translate(-214.277 -404.829)" fill="#008ad8"/>
      <path id="Trazado_7960" data-name="Trazado 7960" d="M229.449,416.654c.265-.1.538-.192.793-.277-.175-.316-.334-.591-.465-.8C229.682,415.854,229.569,416.23,229.449,416.654Z" transform="translate(-199.674 -394.483)" fill="#008ad8"/>
      <path id="Trazado_7961" data-name="Trazado 7961" d="M246.156,411.236c-.549-.012-2.039,2.341-3.059,4.113,1.5.025,3.6-1.413,3.589-3.148C246.684,411.625,246.539,411.24,246.156,411.236Z" transform="translate(-186.539 -398.663)" fill="#008ad8"/>
    </g>
  </g>
</svg>
