<svg xmlns="http://www.w3.org/2000/svg" xmlns:xlink="http://www.w3.org/1999/xlink" width="62" height="62" viewBox="0 0 62 62">
  <defs>
    <filter id="Rect치ngulo_3887" x="0" y="0" width="62" height="62" filterUnits="userSpaceOnUse">
      <feOffset input="SourceAlpha"/>
      <feGaussianBlur stdDeviation="3" result="blur"/>
      <feFlood flood-opacity="0.161" result="color"/>
      <feComposite operator="out" in="SourceGraphic" in2="blur"/>
      <feComposite operator="in" in="color"/>
      <feComposite operator="in" in2="SourceGraphic"/>
    </filter>
  </defs>
  <g id="EUROPA_EUROPA" transform="translate(-362 -1779)">
    <g transform="matrix(1, 0, 0, 1, 362, 1779)" filter="url(#Rect치ngulo_3887)">
      <rect id="Rect치ngulo_3887-2" data-name="Rect치ngulo 3887" width="62" height="62" rx="31" fill="#fff"/>
    </g>
    <g id="Grupo_5874" data-name="Grupo 5874" transform="translate(-2.351 0.797)">
      <g id="Grupo_5872" data-name="Grupo 5872" transform="translate(380.702 1791.203)">
        <path id="Trazado_9907" data-name="Trazado 9907" d="M0,0V29.3H29.3V0Z" fill="#303185"/>
        <g id="Grupo_5871" data-name="Grupo 5871" transform="translate(4.029 6.778)">
          <path id="Trazado_9908" data-name="Trazado 9908" d="M36.379,53.951a3.016,3.016,0,0,0-2.859-1.532,3.332,3.332,0,0,0-3.036,1.762,6.878,6.878,0,0,0-.8,2.368h7.359a7.273,7.273,0,0,0-.663-2.6" transform="translate(-29.613 -51.959)" fill="#fff"/>
          <path id="Trazado_9909" data-name="Trazado 9909" d="M37.234,49.086a6.714,6.714,0,0,1,1.187.881,6.247,6.247,0,0,1,1.863,4.844H29.18q.173,4.064,1.834,5.915a5.1,5.1,0,0,0,3.927,1.856,4.92,4.92,0,0,0,3.087-.964,9.635,9.635,0,0,0,2.323-2.727l.613.209a9.966,9.966,0,0,1-2.689,4.125,6.588,6.588,0,0,1-2.41,1.5H50.583V61.077H42.654V58.621h6.453V54.972H42.654V52.734h7.624V49.086Z" transform="translate(-29.18 -49.086)" fill="#fff"/>
        </g>
      </g>
      <g id="Grupo_5873" data-name="Grupo 5873" transform="translate(380.713 1824.773)">
        <path id="Trazado_9910" data-name="Trazado 9910" d="M.079,243.728H2.963v.539H1.83v3.024H1.207v-3.024H.079Z" transform="translate(-0.079 -243.643)" fill="#303185"/>
        <path id="Trazado_9911" data-name="Trazado 9911" d="M24.685,243.728H27.25v.539H25.309v.933h1.8v.509h-1.8v1.043h1.976v.539h-2.6Z" transform="translate(-21.287 -243.643)" fill="#303185"/>
        <path id="Trazado_9912" data-name="Trazado 9912" d="M60.162,244.332a1.271,1.271,0,0,0-.11-.284.79.79,0,0,0-.18-.225.8.8,0,0,0-.257-.147,1.022,1.022,0,0,0-.342-.052,1,1,0,0,0-.492.115.967.967,0,0,0-.337.307,1.386,1.386,0,0,0-.192.437,2.03,2.03,0,0,0,0,1,1.386,1.386,0,0,0,.192.437.964.964,0,0,0,.337.307,1,1,0,0,0,.492.115.887.887,0,0,0,.369-.072.824.824,0,0,0,.275-.2.94.94,0,0,0,.18-.3,1.425,1.425,0,0,0,.085-.364h.609a1.687,1.687,0,0,1-.137.584,1.432,1.432,0,0,1-.317.457,1.4,1.4,0,0,1-.469.3,1.625,1.625,0,0,1-.594.1,1.681,1.681,0,0,1-.716-.147,1.574,1.574,0,0,1-.536-.4,1.8,1.8,0,0,1-.337-.594,2.276,2.276,0,0,1,0-1.442,1.8,1.8,0,0,1,.337-.594,1.6,1.6,0,0,1,.536-.4,1.658,1.658,0,0,1,.716-.15,1.889,1.889,0,0,1,.564.082,1.458,1.458,0,0,1,.466.24,1.243,1.243,0,0,1,.327.382,1.33,1.33,0,0,1,.155.514Z" transform="translate(-49.629 -243.114)" fill="#303185"/>
        <path id="Trazado_9913" data-name="Trazado 9913" d="M84.118,243.728h.664l1.372,3.563h-.669l-.334-.943H83.729l-.334.943h-.644Zm-.22,2.146h1.088l-.534-1.532h-.015Z" transform="translate(-71.335 -243.643)" fill="#303185"/>
        <path id="Trazado_9914" data-name="Trazado 9914" d="M110.5,243.728h.878l.983,2.789h.01l.958-2.789h.868v3.563h-.594v-2.749h-.01l-.988,2.749h-.514l-.988-2.749h-.01v2.749H110.5Z" transform="translate(-95.254 -243.643)" fill="#303185"/>
        <path id="Trazado_9915" data-name="Trazado 9915" d="M143.42,243.728h3.133a1.24,1.24,0,0,1,.768.22.78.78,0,0,1,.289.664.794.794,0,0,1-.132.462.85.85,0,0,1-.377.3v.01a.779.779,0,0,1,.5.312,1.032,1.032,0,0,1,.17.606,1.018,1.018,0,0,1-.075.392.8.8,0,0,1-.234.314,1.183,1.183,0,0,1-.409.21,2.015,2.015,0,0,1-.594.077H143.42Zm.624,1.492h2.419a.558.558,0,0,0,.374-.127.454.454,0,0,0,.15-.367.464.464,0,0,0-.135-.379.6.6,0,0,0-.389-.11h-2.419Zm0,1.562h2.5a.621.621,0,0,0,.441-.147.543.543,0,0,0,.157-.417.521.521,0,0,0-.157-.407.635.635,0,0,0-.441-.142h-2.5Z" transform="translate(-123.627 -243.643)" fill="#303185"/>
        <path id="Trazado_9916" data-name="Trazado 9916" d="M179.728,243.728h.624v3.563h-.624Z" transform="translate(-154.921 -243.643)" fill="#303185"/>
        <path id="Trazado_9917" data-name="Trazado 9917" d="M188.863,243.728h.664l1.372,3.563h-.669l-.334-.943h-1.422l-.334.943H187.5Zm-.22,2.146h1.088l-.534-1.532h-.015Z" transform="translate(-161.616 -243.643)" fill="#303185"/>
        <path id="Trazado_9918" data-name="Trazado 9918" d="M27.285,277.287v.228h-2.6v-.228Z" transform="translate(-21.287 -272.568)" fill="#303185"/>
      </g>
    </g>
  </g>
</svg>
