<svg xmlns="http://www.w3.org/2000/svg" xmlns:xlink="http://www.w3.org/1999/xlink" width="62" height="62" viewBox="0 0 62 62">
  <defs>
    <filter id="Rect치ngulo_3897" x="0" y="0" width="62" height="62" filterUnits="userSpaceOnUse">
      <feOffset input="SourceAlpha"/>
      <feGaussianBlur stdDeviation="3" result="blur"/>
      <feFlood flood-opacity="0.161" result="color"/>
      <feComposite operator="out" in="SourceGraphic" in2="blur"/>
      <feComposite operator="in" in="color"/>
      <feComposite operator="in" in2="SourceGraphic"/>
    </filter>
  </defs>
  <g id="EL_GOURMET" data-name="EL GOURMET" transform="translate(-432 -1779)">
    <g transform="matrix(1, 0, 0, 1, 432, 1779)" filter="url(#Rect치ngulo_3897)">
      <rect id="Rect치ngulo_3897-2" data-name="Rect치ngulo 3897" width="62" height="62" rx="31" fill="#fff"/>
    </g>
    <g id="elgourmet" transform="translate(463 1810)">
      <g id="Grupo_5879" data-name="Grupo 5879" transform="translate(-18.578 -19.648)">
        <g id="Grupo_5876" data-name="Grupo 5876">
          <path id="Trazado_9919" data-name="Trazado 9919" d="M21.672,0A13.709,13.709,0,1,0,35.381,13.709,13.709,13.709,0,0,0,21.672,0Zm8.858,13.709A8.861,8.861,0,1,1,28.27,7.8l-2.538,2.272a5.449,5.449,0,1,0,1.2,5.065h-5.26V12.328h8.858Z" transform="translate(-2.797 0)" fill="#ffb300"/>
          <path id="Trazado_9920" data-name="Trazado 9920" d="M3.962,49.724q.051-.014.1-.031c.671-.233.246-1,.174-1.637a1.557,1.557,0,0,1-.02-.215c0-.017,0-.029,0-.036l.016-.014c.16-.133.06-1.358.07-1.59q.081-1.864.162-3.729v-.014l0-.012a2.638,2.638,0,0,0-.079-.3.287.287,0,0,0-.283-.232l-.157.009-.021.067A16.364,16.364,0,0,0,3.6,46.1q-.042.856-.069,1.641c-.013.407-.02.649-.02.78,0,.051,0,.163,0,.172a3.459,3.459,0,0,0,.012.565c0-.008-.88.171-.959.178a2.306,2.306,0,0,1-.818-.078.708.708,0,0,1-.352-.241c-.016-.019-.184-.237-.189-.229l.01-.017a3.212,3.212,0,0,0,.959-.244c.582-.21.842-.4.842-.61a1.289,1.289,0,0,0-.377-.934,1.516,1.516,0,0,0-.933-.265,2.028,2.028,0,0,0-1.137.309A1.185,1.185,0,0,0,0,48.181a2.089,2.089,0,0,0,.224.863,2.047,2.047,0,0,0,.4.577,1.556,1.556,0,0,0,.707.3,3.781,3.781,0,0,0,1.139.09,8.847,8.847,0,0,0,1-.165C3.635,49.805,3.8,49.767,3.962,49.724ZM1.007,47.572a1.445,1.445,0,0,1,.616-.137.7.7,0,0,1,.6.388,3.119,3.119,0,0,1-.547.3,1.378,1.378,0,0,1-.71.163H.745a.118.118,0,0,1-.01-.056C.734,48.067.786,47.677,1.007,47.572Z" transform="translate(0 -14.723)" fill="#ffb300"/>
          <path id="Trazado_9921" data-name="Trazado 9921" d="M10.692,50.867a2.8,2.8,0,0,0-.253-.552c-.006-.163.6-.512-.138-.666a5.582,5.582,0,0,0-1.057,0A1.815,1.815,0,0,0,7.6,50.854c-.385,1.714,2.152.368,2.464.488.043.021.044.04.066.069h0a1.845,1.845,0,0,1,.23,1.286l-.215.033c-.477.073-1.366.21-1.493.245a6.307,6.307,0,0,0-1.478.566,1.826,1.826,0,0,0-.991,1.191,1.406,1.406,0,0,0,.387,1.194,2.153,2.153,0,0,0,1.674.8h0a2.594,2.594,0,0,0,1.406-.44,3.5,3.5,0,0,0,1.367-2.972l.006-.093A5.639,5.639,0,0,0,10.692,50.867Zm-1.058-.032c-.621.324-.838.227-.877.227a.657.657,0,0,1-.487-.189c.235-.6.954-.756,1.914-.553.032.007,0,.045,0,.045C10.167,50.381,10.133,50.576,9.633,50.835Zm.76,2.56,0,.052a3.12,3.12,0,0,1-.039.331,4.08,4.08,0,0,1-.187.706A2.311,2.311,0,0,1,8.939,56a1.917,1.917,0,0,1-.7.055,2.2,2.2,0,0,1-.636-.142,1.178,1.178,0,0,1-.781-.727.7.7,0,0,1,.086-.573c.3-.48,1.163-.873,2.573-1.167l.029-.006a4.825,4.825,0,0,1,.538-.086.222.222,0,0,0,.142-.1l.025-.03.029-.033a.554.554,0,0,1,.063-.066.094.094,0,0,1,.053-.021c.01,0,.019,0,.025.023A.882.882,0,0,1,10.393,53.395Z" transform="translate(-2.163 -17.43)" fill="#ffb300"/>
          <path id="Trazado_9922" data-name="Trazado 9922" d="M26.617,49.387c-.5-.064-1.1,2.008-1.4,2.356-.336.4-.505.579-1.048.56-.186-.006-.758-.034-.758-1.354,0-.394.239-.906-.2-1.094-.629-.27-.55.895-.524,1.257.046.634.566,1.822.987,1.983a1.258,1.258,0,0,0,1.1.09,2.386,2.386,0,0,0,.7-.387c.191-.154,1.645-3.1,1.3-3.356A.336.336,0,0,0,26.617,49.387Z" transform="translate(-7.966 -17.348)" fill="#ffb300"/>
          <path id="Trazado_9923" data-name="Trazado 9923" d="M31.305,50.149a2.239,2.239,0,0,1,.336-.091,3.3,3.3,0,0,0,.367-.014,1.046,1.046,0,0,1,.281-.061c.232.007.45.156.685.1a.412.412,0,0,0,.265-.146c.05-.042-.015-.32-.015-.32-.165-.289-.435-.374-1.321-.377a2.92,2.92,0,0,0-1.755.383,1.2,1.2,0,0,0-.359.49A9.054,9.054,0,0,0,29.378,52c0,.054,0,.158-.013.308-.02.217-.023.276-.023.3,0,.117.064.43.176.492.129.071.479.017.485-.082a5.633,5.633,0,0,0-.034-.768c0-.038,0-.077,0-.115a3.291,3.291,0,0,1,.048-.518c.077-.5.315-1.186.839-1.373a3.234,3.234,0,0,1,.4-.082Z" transform="translate(-10.307 -17.298)" fill="#ffb300"/>
          <path id="Trazado_9924" data-name="Trazado 9924" d="M39.008,49.958a2.965,2.965,0,0,0-1.106.426,2.728,2.728,0,0,0-.328.288c-.9.66-1.223.879-1.33.937-.034.023-.066.025-.064-.019s.007-.125.014-.211c.005-.138.008-.238.008-.3,0-.294,0-1.188-.474-1.188-.262,0-.609.243-1.061.741-.566.63-1.549,1.7-1.615,1.755-.527.411-.571.546-.571.642a.556.556,0,0,0,.136.368.431.431,0,0,0,.234.04c.073,0,.219-.161.273-.211a4.271,4.271,0,0,0,.326-.349c.221-.253.443-.5.677-.741.341-.349.673-.707,1.022-1.046a2.268,2.268,0,0,1,.278-.247c.04-.019.059.028.059.028a.975.975,0,0,1,.075.407c0,.018,0,.094-.036.411s-.038.4-.038.431c0,.266.365.485.584.485H36.1l1.212-.919a6.244,6.244,0,0,1,1.333-.9c.071-.023.084.019.084.019a1.172,1.172,0,0,1,.043.358c0,.03-.005.134-.029.461-.024.4-.024.454-.024.472a1.336,1.336,0,0,0,.33.989.089.089,0,0,0,.119,0,.3.3,0,0,1,.177-.106c.069-.016.084-.106.084-.106,0-.064.005-.278.029-.938.02-.551.029-.851.029-.946C39.485,50.306,39.325,49.958,39.008,49.958Z" transform="translate(-11.411 -17.526)" fill="#ffb300"/>
          <path id="Trazado_9925" data-name="Trazado 9925" d="M48.6,52.458l-.019-.015-.025,0c-.263-.043-.4-.067-.472-.079V52.34c-.391,0-.78,0-1.171,0a3.609,3.609,0,0,1-.543-.016,3.392,3.392,0,0,1-.507-.123c-.023-.008-.388-.147-.385-.152.016-.022-.256-.226-.246-.248a5.025,5.025,0,0,0,1.384-.378c.652-.265.956-.507.956-.762a.861.861,0,0,0-.354-.793,1.6,1.6,0,0,0-1.07-.341,2.141,2.141,0,0,0-1.306.4,1.562,1.562,0,0,0-.646,1.34,1.592,1.592,0,0,0,.354,1.2,2.164,2.164,0,0,0,.9.409,4.792,4.792,0,0,0,1.3.2H48.4a.626.626,0,0,0,.529-.282l.036-.049-.027-.055C48.876,52.57,48.736,52.554,48.6,52.458Zm-3.236-2.012a1.374,1.374,0,0,1,1.489.107c-.092.057-.368.171-.765.346a3.123,3.123,0,0,1-.813.3h-.256A.19.19,0,0,1,45,51.1.729.729,0,0,1,45.369,50.446Z" transform="translate(-15.527 -17.399)" fill="#ffb300"/>
          <path id="Trazado_9926" data-name="Trazado 9926" d="M52.823,45.66c.1-1.356.155-2.748.337-4.1a1.82,1.82,0,0,0-.1-1.318c-.146-.216-.494.514-.528.588a3.816,3.816,0,0,0-.275,1.128c-.11.87-.043,1.752-.123,2.625a10.784,10.784,0,0,1-.091,1.158c-.065.083-.059.094-1.074.264-.754.125-1.106.322-1.108.62,0,.326.479.515.741.529.106.012.21-.3.365-.328l.293-.041a1.62,1.62,0,0,1,.288-.034c.359-.043.327-.065.361-.013a.378.378,0,0,1,.012.154c0,.123-.017.433-.047.8-.035.381-.052.819-.052.946A4.529,4.529,0,0,0,52.012,50c.02.064.175.088.229.114a.769.769,0,0,0,.114.049c.12.036.16-.119.195-.2a1.47,1.47,0,0,0,.1-.386,1.924,1.924,0,0,0,.015-.252c0-.034-.006-.16-.021-.378s-.02-.333-.02-.37c0-.182.008-.549.023-.717.043-.476.08-.982.084-1.143.012-.1.053-.1.163-.142.321-.13,2.37-.366,1.611-.94-.165-.125-.553-.027-.741-.025C53.7,45.605,52.824,45.653,52.823,45.66Z" transform="translate(-17.517 -14.123)" fill="#ffb300"/>
          <g id="Grupo_5875" data-name="Grupo 5875" transform="translate(9.139 31.911)">
            <path id="Trazado_9927" data-name="Trazado 9927" d="M16.433,49.191c-2.19.272-2.585,1.126-2.23,1.925.228,1.039.23,1.6,1.752,1.961,2.488-.195,3.277-.749,3.028-2.009C19.692,50.041,17.541,49.4,16.433,49.191Zm.42,2.91a.967.967,0,1,1,1-.967A.986.986,0,0,1,16.852,52.1Z" transform="translate(-14.088 -49.191)" fill="#ffb300"/>
          </g>
        </g>
        <g id="Grupo_5878" data-name="Grupo 5878" transform="translate(9.43 36.768)">
          <g id="Grupo_5877" data-name="Grupo 5877">
            <path id="Trazado_9928" data-name="Trazado 9928" d="M14.81,57.681h-.273v-.245h.28v-.452h.306v.452h.388v.245h-.388v.771c0,.335.224.378.346.378.045,0,.074,0,.074,0v.264a.864.864,0,0,1-.112.006.563.563,0,0,1-.62-.616Z" transform="translate(-14.537 -56.785)" fill="#97999b"/>
            <path id="Trazado_9929" data-name="Trazado 9929" d="M16.5,57.926h-.272v-.245h.584v.99c0,.228.045.41.3.41a.587.587,0,0,0,.527-.641v-.514h-.273v-.245h.584v1.335a.065.065,0,0,0,.071.071H18.2v.241h-.337c-.141,0-.206-.066-.206-.183v-.071a.711.711,0,0,1,.006-.1h-.006a.666.666,0,0,1-.62.39c-.35,0-.533-.195-.533-.631Z" transform="translate(-15.132 -57.03)" fill="#97999b"/>
            <path id="Trazado_9930" data-name="Trazado 9930" d="M21.324,57.621c.241,0,.636.091.636.374v.2h-.276v-.114c0-.126-.206-.188-.35-.188a.54.54,0,0,0-.552.586.557.557,0,0,0,.572.592.82.82,0,0,0,.52-.211l.119.231a.98.98,0,0,1-.652.254.863.863,0,1,1-.016-1.725Z" transform="translate(-16.619 -57.009)" fill="#97999b"/>
            <path id="Trazado_9931" data-name="Trazado 9931" d="M23.917,58.3h.1v-.062a.311.311,0,0,0-.347-.352.856.856,0,0,0-.466.16l-.125-.225a1.035,1.035,0,0,1,.617-.2.566.566,0,0,1,.633.635v.735a.064.064,0,0,0,.071.072h.164v.245h-.324c-.145,0-.2-.072-.2-.179v-.023A.415.415,0,0,1,24.051,59h-.006a.59.59,0,0,1-.536.348.5.5,0,0,1-.54-.5C22.969,58.331,23.647,58.3,23.917,58.3Zm-.341.807a.505.505,0,0,0,.447-.534V58.5h-.08c-.148,0-.658.006-.658.322A.276.276,0,0,0,23.576,59.1Z" transform="translate(-17.499 -57.009)" fill="#97999b"/>
            <path id="Trazado_9932" data-name="Trazado 9932" d="M25.683,59.063h.254V57.976a.063.063,0,0,0-.071-.071h-.2V57.66h.367c.141,0,.2.062.2.183v.084a.5.5,0,0,1-.009.094h.006a.684.684,0,0,1,.633-.4c.372,0,.54.211.54.631v.811h.257v.245H27.1v-.983c0-.232-.045-.413-.3-.413a.586.586,0,0,0-.543.631v.521h.257v.245h-.822Z" transform="translate(-18.447 -57.009)" fill="#97999b"/>
            <path id="Trazado_9933" data-name="Trazado 9933" d="M29.778,58.3h.1v-.062a.311.311,0,0,0-.347-.352.856.856,0,0,0-.466.16l-.125-.225a1.035,1.035,0,0,1,.617-.2.566.566,0,0,1,.633.635v.735a.064.064,0,0,0,.071.072h.164v.245H30.1c-.144,0-.2-.072-.2-.179v-.023A.415.415,0,0,1,29.913,59h-.006a.592.592,0,0,1-.537.348.5.5,0,0,1-.54-.5C28.83,58.331,29.508,58.3,29.778,58.3Zm-.341.807a.505.505,0,0,0,.447-.534V58.5H29.8c-.148,0-.658.006-.658.322A.276.276,0,0,0,29.437,59.1Z" transform="translate(-19.558 -57.009)" fill="#97999b"/>
            <path id="Trazado_9934" data-name="Trazado 9934" d="M31.462,56.922h-.27v-.244h.581v1.81c0,.14.032.234.174.234.051,0,.086,0,.086,0l0,.26s-.064.007-.138.007c-.231,0-.43-.095-.43-.479Z" transform="translate(-20.388 -56.678)" fill="#97999b"/>
            <path id="Trazado_9935" data-name="Trazado 9935" d="M34.426,57.29a.549.549,0,0,1,.5.277h.006a.753.753,0,0,1-.01-.124v-.521h-.27v-.244h.581V58.66a.064.064,0,0,0,.071.072h.164v.245h-.324c-.145,0-.2-.072-.2-.179v-.023a.36.36,0,0,1,.009-.088h-.006a.582.582,0,0,1-.549.328c-.437,0-.71-.351-.71-.862A.763.763,0,0,1,34.426,57.29Zm.039,1.452c.241,0,.469-.176.469-.586,0-.3-.151-.589-.459-.589-.26,0-.469.211-.469.586C34.006,58.511,34.2,58.742,34.465,58.742Z" transform="translate(-21.264 -56.678)" fill="#97999b"/>
            <path id="Trazado_9936" data-name="Trazado 9936" d="M37.307,57.621a.7.7,0,0,1,.7.772c0,.042-.01.12-.01.12H36.813a.551.551,0,0,0,.562.56.786.786,0,0,0,.485-.186l.128.231a.988.988,0,0,1-.632.228.832.832,0,0,1-.861-.862A.8.8,0,0,1,37.307,57.621Zm.383.69a.4.4,0,0,0-.389-.44.481.481,0,0,0-.476.44Z" transform="translate(-22.25 -57.009)" fill="#97999b"/>
            <path id="Trazado_9937" data-name="Trazado 9937" d="M40.94,57.621c.241,0,.636.091.636.374v.2H41.3v-.114c0-.126-.206-.188-.35-.188a.541.541,0,0,0-.553.586.557.557,0,0,0,.572.592.821.821,0,0,0,.52-.211l.119.231a.982.982,0,0,1-.652.254.863.863,0,1,1-.016-1.725Z" transform="translate(-23.509 -57.009)" fill="#97999b"/>
            <path id="Trazado_9938" data-name="Trazado 9938" d="M43.448,57.621a.863.863,0,1,1-.877.86A.853.853,0,0,1,43.448,57.621Zm0,1.452a.59.59,0,0,0,0-1.178.59.59,0,0,0,0,1.178Z" transform="translate(-24.385 -57.009)" fill="#97999b"/>
            <path id="Trazado_9939" data-name="Trazado 9939" d="M46.4,57.621c.241,0,.636.091.636.374v.2h-.276v-.114c0-.126-.206-.188-.35-.188a.54.54,0,0,0-.552.586.557.557,0,0,0,.572.592.82.82,0,0,0,.52-.211l.119.231a.98.98,0,0,1-.652.254.863.863,0,1,1-.016-1.725Z" transform="translate(-25.426 -57.009)" fill="#97999b"/>
            <path id="Trazado_9940" data-name="Trazado 9940" d="M48.106,58.732h.254V57.573h-.27v-.245h.581v1.4h.257v.245h-.822Zm.247-2.054h.328V57h-.328Z" transform="translate(-26.323 -56.678)" fill="#97999b"/>
            <path id="Trazado_9941" data-name="Trazado 9941" d="M49.572,59.063h.254V57.976a.063.063,0,0,0-.071-.071h-.2V57.66h.366c.141,0,.206.062.206.183v.084a.466.466,0,0,1-.01.094h.006a.683.683,0,0,1,.633-.4c.372,0,.539.211.539.631v.811h.258v.245h-.569v-.983c0-.232-.045-.413-.3-.413a.586.586,0,0,0-.543.631v.521h.257v.245h-.822Z" transform="translate(-26.838 -57.009)" fill="#97999b"/>
            <path id="Trazado_9942" data-name="Trazado 9942" d="M53.667,58.3h.1v-.062a.311.311,0,0,0-.346-.352.856.856,0,0,0-.466.16l-.125-.225a1.034,1.034,0,0,1,.616-.2.566.566,0,0,1,.633.635v.735a.064.064,0,0,0,.071.072h.163v.245h-.324c-.145,0-.2-.072-.2-.179v-.023A.4.4,0,0,1,53.8,59H53.8a.592.592,0,0,1-.536.348.5.5,0,0,1-.54-.5C52.719,58.331,53.4,58.3,53.667,58.3Zm-.341.807a.5.5,0,0,0,.446-.534V58.5h-.08c-.148,0-.658.006-.658.322A.276.276,0,0,0,53.326,59.1Z" transform="translate(-27.95 -57.009)" fill="#97999b"/>
          </g>
        </g>
      </g>
    </g>
  </g>
</svg>
