<svg xmlns="http://www.w3.org/2000/svg" width="86" height="37" viewBox="0 0 86 37">
  <g id="espn_extra" transform="translate(-0.109 -0.039)">
    <rect id="Rectángulo_3581" data-name="Rectángulo 3581" width="86" height="37" rx="5" transform="translate(0.109 0.039)" fill="none"/>
    <g id="Grupo_4346" data-name="Grupo 4346" transform="translate(15.793 7.388)">
      <path id="Trazado_7085" data-name="Trazado 7085" d="M508.482,599.168l-.122,1h-2.918c-.087,0-.13.052-.141.14l-.171,1.386h2.3l-.122,1h-2.3l-.18,1.474c-.012.087.017.149.1.149h2.918l-.122.989h-3.514c-.491,0-.679-.262-.624-.682l.584-4.766a.719.719,0,0,1,.795-.685Z" transform="translate(-503.581 -582.423)" fill="#161615"/>
      <path id="Trazado_7086" data-name="Trazado 7086" d="M512.112,603.146l-1.588,2.154h-1.3l2.331-3.075L510,599.168h1.357l1.031,2.1,1.545-2.1h1.315l-2.307,3.025,1.59,3.108h-1.369Z" transform="translate(-498.288 -582.423)" fill="#161615"/>
      <path id="Trazado_7087" data-name="Trazado 7087" d="M516.848,605.3l.63-5.142H515.69l.124-.991h4.776l-.122.991h-1.8l-.632,5.142Z" transform="translate(-492.211 -582.423)" fill="#161615"/>
      <path id="Trazado_7088" data-name="Trazado 7088" d="M521.525,605.3l.752-6.133h3.093c.981,0,1.315.648,1.2,1.621l-.064.51a1.652,1.652,0,0,1-1.144,1.549l.758,2.453h-1.27l-.723-2.391H523.01l-.295,2.391Zm3.316-3.391c.289,0,.438-.13.477-.446l.1-.841c.039-.324-.076-.456-.366-.456h-1.708l-.213,1.743Z" transform="translate(-486.732 -582.423)" fill="#161615"/>
      <path id="Trazado_7089" data-name="Trazado 7089" d="M531.291,604.047h-2.218l-.533,1.27h-1.157l2.418-5.563c.161-.376.32-.605.68-.605h.665c.368,0,.473.219.539.605l1.043,5.563H531.51Zm-1.811-.964h1.638l-.475-2.761Z" transform="translate(-481.232 -582.441)" fill="#161615"/>
      <path id="Trazado_7090" data-name="Trazado 7090" d="M534.049,590.532s-18.215,0-19.254,0c-1.972,0-3.277,1.035-3.461,2.591-.068.572-.132,1.078-.132,1.078h25.651s.05-.38.087-.684c.194-1.565-.473-2.984-2.891-2.984" transform="translate(-496.426 -590.532)" fill="#dd1a1d"/>
      <path id="Trazado_7091" data-name="Trazado 7091" d="M530.685,593.144s-.056.518-.134,1.082a2.277,2.277,0,0,1-2.538,1.949h-5.46l-.615,4.972h-4.347l.983-8h12.111" transform="translate(-490.426 -588.079)" fill="#dd1a1d"/>
      <path id="Trazado_7092" data-name="Trazado 7092" d="M516.831,590.532l-.448,3.669H504.749l.45-3.669Z" transform="translate(-502.485 -590.532)" fill="#dd1a1d"/>
      <path id="Trazado_7093" data-name="Trazado 7093" d="M505.137,593.144h11.632l-.372,3.033h-7.283l-.184,1.5h7.285l-.428,3.473H504.154Z" transform="translate(-503.044 -588.079)" fill="#dd1a1d"/>
      <path id="Trazado_7094" data-name="Trazado 7094" d="M525.338,590.532h9.488c1.5,0,3.054.7,2.746,3.1-.056.431-.072.564-.072.564H524.89l.448-3.669" transform="translate(-483.572 -590.532)" fill="#dd1a1d"/>
      <path id="Trazado_7095" data-name="Trazado 7095" d="M525.276,593.143l4.351,0-.983,8-4.351,0Z" transform="translate(-484.133 -588.08)" fill="#dd1a1d"/>
      <path id="Trazado_7096" data-name="Trazado 7096" d="M529.538,593.143l4.349,0-.983,8-4.349,0Z" transform="translate(-480.131 -588.08)" fill="#dd1a1d"/>
      <path id="Trazado_7097" data-name="Trazado 7097" d="M521.145,593.146l-9.555,0c-.32,2.088.727,3.033,2.208,3.033l5.885,0-.184,1.5h-8.466l-.427,3.473s9.216,0,9.592,0c.308-.023,2.462-.081,3.2-1.844a21.027,21.027,0,0,0,.508-3.056c.339-2.5-1.394-3.1-2.759-3.1" transform="translate(-496.984 -588.079)" fill="#dd1a1d"/>
    </g>
  </g>
</svg>
