<svg xmlns="http://www.w3.org/2000/svg" width="86" height="37" viewBox="0 0 86 37">
  <g id="espn" transform="translate(-0.293 -0.074)">
    <rect id="Rectángulo_3581" data-name="Rectángulo 3581" width="86" height="37" rx="5" transform="translate(0.293 0.074)" fill="none"/>
    <g id="Grupo_4816" data-name="Grupo 4816" transform="translate(12.161 11.056)">
      <g id="Grupo_4815" data-name="Grupo 4815" transform="translate(0 0)">
        <path id="Trazado_7821" data-name="Trazado 7821" d="M250.466,557.686h13.158l-.525,4.3H249.944Z" transform="translate(-248.604 -557.675)" fill="#dd1a1d"/>
        <path id="Trazado_7822" data-name="Trazado 7822" d="M285.267,561.987H270.418l.531-4.3s8.424-.011,11.148,0c1.761.009,3.519.795,3.255,3.628Z" transform="translate(-223.621 -557.678)" fill="#dd1a1d"/>
        <path id="Trazado_7823" data-name="Trazado 7823" d="M270.947,560.372h5.047L274.86,569.7h-5.043Z" transform="translate(-224.355 -554.397)" fill="#dd1a1d"/>
        <path id="Trazado_7824" data-name="Trazado 7824" d="M275.364,560.372h5.047l-1.134,9.326h-5.044Z" transform="translate(-218.966 -554.397)" fill="#dd1a1d"/>
        <path id="Trazado_7825" data-name="Trazado 7825" d="M250.474,560.372h13.159l-.424,3.494h-8.115l-.231,1.785h8.125l-.493,4.047H249.341Z" transform="translate(-249.341 -554.397)" fill="#dd1a1d"/>
        <path id="Trazado_7826" data-name="Trazado 7826" d="M264.076,560.372,262.93,569.7h5.047l.719-5.833h5.866c1.736-.009,3.362-.915,3.714-3.495Z" transform="translate(-232.758 -554.397)" fill="#dd1a1d"/>
        <path id="Trazado_7827" data-name="Trazado 7827" d="M283.529,557.681H260.374a4.052,4.052,0,0,0-3.912,3.49l-.1.839h30.131l.1-.839A3.026,3.026,0,0,0,283.529,557.681Z" transform="translate(-240.775 -557.681)" fill="#dd1a1d"/>
        <path id="Trazado_7828" data-name="Trazado 7828" d="M266.98,569.7c-.293.011-11.219,0-11.219,0l.491-4.047h9.889l.211-1.783H259.9a1.4,1.4,0,0,1-.184-.009,3,3,0,0,1-2.853-2.926,5.3,5.3,0,0,1,.02-.562h11.3a2.886,2.886,0,0,1,3.139,3.366L271,566.3A3.762,3.762,0,0,1,266.98,569.7Z" transform="translate(-241.506 -554.397)" fill="#dd1a1d"/>
      </g>
    </g>
  </g>
</svg>
