<svg xmlns="http://www.w3.org/2000/svg" xmlns:xlink="http://www.w3.org/1999/xlink" width="86" height="37" viewBox="0 0 86 37">
  <defs>
    <clipPath id="clip-path">
      <rect id="Rect치ngulo_3637" data-name="Rect치ngulo 3637" width="71.406" height="14.261" fill="none"/>
    </clipPath>
  </defs>
  <g id="espn3" transform="translate(0.171 -0.039)">
    <rect id="Rect치ngulo_3581" data-name="Rect치ngulo 3581" width="86" height="37" rx="5" transform="translate(-0.171 0.039)" fill="none"/>
    <g id="_344_ESPN_3_Color" data-name="344 ESPN 3 Color" transform="translate(7.552 11.898)">
      <g id="Grupo_4822" data-name="Grupo 4822" transform="translate(0 0)">
        <g id="Grupo_4821" data-name="Grupo 4821" clip-path="url(#clip-path)">
          <path id="Trazado_7838" data-name="Trazado 7838" d="M138.035,442.61l-.487,4.007H149.8l.49-4.007Z" transform="translate(-136.3 -442.6)" fill="#dd1a1d"/>
          <g id="Grupo_4820" data-name="Grupo 4820" transform="translate(0 0)">
            <g id="Grupo_4819" data-name="Grupo 4819" clip-path="url(#clip-path)">
              <path id="Trazado_7839" data-name="Trazado 7839" d="M169.311,446.619H155.476l.5-4.006s7.847-.01,10.386,0c1.642.01,3.279.742,3.033,3.38Z" transform="translate(-111.879 -442.602)" fill="#dd1a1d"/>
              <path id="Trazado_7840" data-name="Trazado 7840" d="M156,444.962h4.7l-1.056,8.689h-4.7Z" transform="translate(-112.595 -439.395)" fill="#dd1a1d"/>
              <path id="Trazado_7841" data-name="Trazado 7841" d="M159.869,444.962h4.7l-1.057,8.689h-4.7Z" transform="translate(-107.327 -439.395)" fill="#dd1a1d"/>
              <path id="Trazado_7842" data-name="Trazado 7842" d="M138.076,444.962h12.259l-.395,3.255H142.38l-.215,1.663h7.569l-.459,3.77H137.02Z" transform="translate(-137.02 -439.395)" fill="#dd1a1d"/>
              <path id="Trazado_7843" data-name="Trazado 7843" d="M149.985,444.963l-1.065,8.688h4.7l.671-5.433h5.466a3.335,3.335,0,0,0,3.458-3.255Z" transform="translate(-120.81 -439.395)" fill="#dd1a1d"/>
              <path id="Trazado_7844" data-name="Trazado 7844" d="M168.478,442.606H146.9a3.774,3.774,0,0,0-3.642,3.25l-.094.782h28.072l.094-.782a2.82,2.82,0,0,0-2.856-3.25" transform="translate(-128.647 -442.606)" fill="#dd1a1d"/>
              <path id="Trazado_7845" data-name="Trazado 7845" d="M153.095,453.653c-.272.009-10.453,0-10.453,0l.456-3.77h9.215l.2-1.663H146.5a1.525,1.525,0,0,1-.172-.007,2.8,2.8,0,0,1-2.66-2.726c-.007-.231.019-.522.019-.522s10.464,0,10.526,0a2.687,2.687,0,0,1,2.924,3.135l-.3,2.381a3.507,3.507,0,0,1-3.746,3.172" transform="translate(-129.362 -439.396)" fill="#dd1a1d"/>
              <path id="Trazado_7846" data-name="Trazado 7846" d="M171.567,442.611c-1.92,0-6.744,0-8,0l-.387,3.182h6.888a.47.47,0,0,1,.5.536s0,.248-.033.586a3.643,3.643,0,0,1-.1.524c-.085.272-.276.468-.8.508-2.005,0-3.791,0-3.791,0l-.4,3.215h3.924c.328,0,.543.279.536.659a3.727,3.727,0,0,1-.007.52,4.048,4.048,0,0,1-.109.64.672.672,0,0,1-.65.593l-6.9,0-.4,3.281c1.15,0,5.735.007,7.951,0a3.611,3.611,0,0,0,3.739-2.712h0a13.268,13.268,0,0,0,.35-2.225c.009-.106.024-.345.024-.345v0a2.059,2.059,0,0,0-1.051-2.067,2.831,2.831,0,0,0,1.6-2.171,10.5,10.5,0,0,0,.18-1.547h0c.144-2.476-1.372-3.182-3.054-3.182" transform="translate(-103.224 -442.601)" fill="#dd1a1d"/>
            </g>
          </g>
        </g>
      </g>
    </g>
  </g>
</svg>
