<svg xmlns="http://www.w3.org/2000/svg" width="86" height="37" viewBox="0 0 86 37">
  <g id="espn2" transform="translate(0.356 -0.039)">
    <rect id="Rectángulo_3581" data-name="Rectángulo 3581" width="86" height="37" rx="5" transform="translate(-0.356 0.039)" fill="none"/>
    <g id="Grupo_4818" data-name="Grupo 4818" transform="translate(8.177 11.898)">
      <path id="Trazado_7829" data-name="Trazado 7829" d="M315.681,558.1l10.164-.028s2.21-.108,2.048,1.7L327.381,565a1.782,1.782,0,0,1-1.7,1.565H319.63l-.177,1.673h7.6l-.377,3.613H314.062l.782-6.525s.08-1.888,1.779-1.888h6.012l.134-1.645h-7.522Z" transform="translate(-257.998 -558.072)" fill="#dd1a1d"/>
      <g id="Grupo_4817" data-name="Grupo 4817" transform="translate(0 0.027)">
        <path id="Trazado_7830" data-name="Trazado 7830" d="M287.2,558.1l11.782,0-.438,3.858H286.721Z" transform="translate(-285.499 -558.074)" fill="#dd1a1d"/>
        <path id="Trazado_7831" data-name="Trazado 7831" d="M296.66,558.126c2.2,0,19.81-.022,21.126,0a2.468,2.468,0,0,1,2.419,2.469,7.146,7.146,0,0,1-.12,1.356l-26.993-.01s.1-.664.186-1.254A3.568,3.568,0,0,1,296.66,558.126Z" transform="translate(-279.091 -558.055)" fill="#dd1a1d"/>
        <path id="Trazado_7832" data-name="Trazado 7832" d="M307.51,558.094s7.56-.016,10,0c1.577.006,3.159.744,2.92,3.288-.07.754-.05.6-.05.6l-13.333-.01Z" transform="translate(-265.052 -558.086)" fill="#dd1a1d"/>
        <path id="Trazado_7833" data-name="Trazado 7833" d="M292.587,569.163l.437-3.631,8.7-.008.16-1.609s-5.47.012-6.353-.02c-1.244-.046-2.457-.933-2.118-3.131,2.317-.022,9.339-.02,10.124-.012a2.624,2.624,0,0,1,2.818,3.061,10.984,10.984,0,0,1-.714,3.619,3.232,3.232,0,0,1-3.181,1.731C302.2,569.173,292.587,569.163,292.587,569.163Z" transform="translate(-279.599 -555.409)" fill="#dd1a1d"/>
        <path id="Trazado_7834" data-name="Trazado 7834" d="M313.366,560.782s-.128.726-.221,1.2a2.1,2.1,0,0,1-2.174,1.89H304.8l-.742,5.261h-4.465l1.061-8.346Z" transform="translate(-272.551 -555.374)" fill="#dd1a1d"/>
        <path id="Trazado_7835" data-name="Trazado 7835" d="M307.518,560.782l4.6,0-1.193,8.318-4.551,0Z" transform="translate(-265.728 -555.374)" fill="#dd1a1d"/>
        <path id="Trazado_7836" data-name="Trazado 7836" d="M311.882,560.782l4.47,0-1.06,8.342h-4.47Z" transform="translate(-261.258 -555.374)" fill="#dd1a1d"/>
        <path id="Trazado_7837" data-name="Trazado 7837" d="M287.126,560.756h11.858l-.421,3.192-7.336.008-.208,1.561,7.336.008-.438,3.653H286.112Z" transform="translate(-286.112 -555.4)" fill="#dd1a1d"/>
      </g>
    </g>
  </g>
</svg>
