<svg xmlns="http://www.w3.org/2000/svg" xmlns:xlink="http://www.w3.org/1999/xlink" width="86" height="37" viewBox="0 0 86 37">
  <defs>
    <clipPath id="clip-path">
      <rect id="Rect치ngulo_18646" data-name="Rect치ngulo 18646" width="71.366" height="13.405" fill="none"/>
    </clipPath>
  </defs>
  <g id="Grupo_20888" data-name="Grupo 20888" transform="translate(-2023 3828.5)">
    <rect id="Rect치ngulo_3581" data-name="Rect치ngulo 3581" width="86" height="37" rx="5" transform="translate(2023 -3828.5)" fill="none"/>
    <g id="Grupo_20887" data-name="Grupo 20887" transform="translate(2030.317 -3817)">
      <g id="Grupo_20885" data-name="Grupo 20885" clip-path="url(#clip-path)">
        <path id="Trazado_44222" data-name="Trazado 44222" d="M59.724.032s-18.529,0-19.587,0c-2.006,0-3.334,1.055-3.521,2.636-.069.582-.135,1.1-.135,1.1h26.1s.049-.385.087-.694c.2-1.593-.481-3.037-2.941-3.037" transform="translate(-22.579 -0.02)" fill="#ee4034"/>
        <path id="Trazado_44223" data-name="Trazado 44223" d="M82.874,13.553s-.058.526-.137,1.1a2.316,2.316,0,0,1-2.58,1.985H74.6l-.623,5.055H69.554l1-8.142Z" transform="translate(-43.048 -8.388)" fill="#ee4034"/>
        <path id="Trazado_44224" data-name="Trazado 44224" d="M15.373.033l-.456,3.731H3.082L3.54.033Z" transform="translate(-1.907 -0.021)" fill="#ee4034"/>
        <path id="Trazado_44225" data-name="Trazado 44225" d="M1,13.553H12.833l-.379,3.085H5.047l-.187,1.523h7.41l-.436,3.532H0Z" transform="translate(0 -8.389)" fill="#ee4034"/>
        <path id="Trazado_44226" data-name="Trazado 44226" d="M107.785.033h9.652c1.525,0,3.105.708,2.793,3.157-.056.439-.072.574-.072.574h-12.83Z" transform="translate(-66.427 -0.021)" fill="#ee4034"/>
        <path id="Trazado_44227" data-name="Trazado 44227" d="M105.241,13.55l4.427,0-1,8.138-4.426,0Z" transform="translate(-64.517 -8.387)" fill="#ee4034"/>
        <path id="Trazado_44228" data-name="Trazado 44228" d="M127.3,13.55l4.425,0-1,8.138-4.426,0Z" transform="translate(-78.17 -8.387)" fill="#ee4034"/>
        <path id="Trazado_44229" data-name="Trazado 44229" d="M44.125,13.555l-9.721,0c-.324,2.125.739,3.086,2.246,3.086l5.988,0-.187,1.525H33.839L33.4,21.694s9.375,0,9.756,0c.313-.023,2.507-.082,3.253-1.876a21.157,21.157,0,0,0,.516-3.109c.345-2.546-1.417-3.153-2.806-3.153" transform="translate(-20.675 -8.388)" fill="#ee4034"/>
        <path id="Trazado_44230" data-name="Trazado 44230" d="M160.936.024l-.639,5.2h-4l.159-1.324.527-3.9h-4.474l-.343,3.125-.262,2.1h0c-.325,2.125.739,3.085,2.246,3.085l5.773,0-.625,5.093H163.7L165.342.024Z" transform="translate(-93.976 0)" fill="#ee4034"/>
      </g>
    </g>
  </g>
</svg>
