<svg xmlns="http://www.w3.org/2000/svg" width="86" height="37" viewBox="0 0 86 37">
  <g id="exatv" transform="translate(0.171 -0.074)">
    <rect id="Rectángulo_3581" data-name="Rectángulo 3581" width="86" height="37" rx="5" transform="translate(-0.171 0.074)" fill="none"/>
    <g id="Grupo_5316" data-name="Grupo 5316" transform="translate(11.31 9.553)">
      <g id="Grupo_5316-2" data-name="Grupo 5316">
        <path id="Trazado_8835" data-name="Trazado 8835" d="M-460.014-180.439l7.549-9.515-6.023-7.105c.195-.02.315-.042.435-.042,1.75-.012,3.5-.014,5.251-.037a.713.713,0,0,1,.623.308c.761.941,1.537,1.87,2.308,2.8.1.121.2.24.33.387l2.957-3.725c.426-.537.846-1.079,1.285-1.6a.6.6,0,0,1,.385-.22c2.056-.012,4.113-.006,6.169,0a.689.689,0,0,1,.144.053l-7.66,9.485,6,7.27c-.23.011-.369.023-.509.023-1.6,0-3.209-.009-4.813.009a.844.844,0,0,1-.735-.35c-.92-1.111-1.861-2.2-2.837-3.354-.147.176-.274.325-.4.477-1.3,1.611-2.606,3.218-3.9,4.836a.8.8,0,0,1-.7.336c-1.794-.015-3.588-.007-5.382-.008C-459.663-180.415-459.79-180.428-460.014-180.439Z" transform="translate(472.039 199.197)" fill="#231f20"/>
        <path id="Trazado_8836" data-name="Trazado 8836" d="M-522.824-178.484a2.649,2.649,0,0,0,2.144.884q3.434-.031,6.868-.066c.157,0,.314,0,.534,0a3.683,3.683,0,0,1-.2.321q-1.524,1.918-3.056,3.829c-.1.123-.267.278-.4.275a33.763,33.763,0,0,1-5.186-.207,7.48,7.48,0,0,1-6.32-5.694c-1.126-4.344,1.71-7.552,5.192-8.417a10.471,10.471,0,0,1,6.32.326,6.784,6.784,0,0,1,2.7,1.951,4.06,4.06,0,0,1-2.618,6.6,43.528,43.528,0,0,1-4.406.194C-521.777-178.47-522.3-178.484-522.824-178.484Zm-.941-3.414c1.455,0,2.866,0,4.277,0a.921.921,0,0,0,.337-.087.586.586,0,0,0,.268-.96,1.344,1.344,0,0,0-.577-.438,5,5,0,0,0-1.15-.217A3.152,3.152,0,0,0-523.765-181.9Z" transform="translate(528.691 189.876)" fill="#231f20"/>
        <path id="Trazado_8837" data-name="Trazado 8837" d="M-358.129-182.843c.932-1.171,1.854-2.211,2.634-3.348a2.323,2.323,0,0,1,2.307-1.125,22.475,22.475,0,0,1,4.647.372,8.148,8.148,0,0,1,3.233,1.76.469.469,0,0,1,.151.567c-.311,1.077-.607,2.158-.907,3.238-.038.138-.067.279-.111.463h3.371a6.734,6.734,0,0,1-.119,3.134,6.775,6.775,0,0,1-4.848,4.735,10.281,10.281,0,0,1-6.654-.228,6.742,6.742,0,0,1-2.7-1.951,4.065,4.065,0,0,1,2.619-6.605,35.6,35.6,0,0,1,3.794-.188c.726-.024,1.454,0,2.284,0a2.436,2.436,0,0,0-1.341-.777,4.608,4.608,0,0,0-1.084-.1c-2.231.013-4.462.04-6.693.062C-357.7-182.841-357.858-182.843-358.129-182.843Zm10.569,4.223c-1.457,0-2.827-.011-4.2.007-.369,0-.757.094-.839.545s.224.695.562.9a.761.761,0,0,0,.324.123,10.242,10.242,0,0,0,1.9.069A2.914,2.914,0,0,0-347.56-178.619Z" transform="translate(387.993 189.403)" fill="#231f20"/>
        <path id="Trazado_8838" data-name="Trazado 8838" d="M-276.111-166.2l2.393-8.544h-3.58c.287-1.037.542-1.989.825-2.932.026-.088.226-.176.346-.176,3.356-.009,6.711,0,10.067-.013.356,0,.358.2.362.449q.042,2.494.092,4.987a1.321,1.321,0,0,0,.154.615c.093-.138.19-.273.278-.415,1.107-1.784,2.218-3.565,3.313-5.356a.669.669,0,0,1,.662-.372c1.079.019,2.159.007,3.239.008.126,0,.251.014.446.025-.188.306-.342.564-.5.818-2.184,3.467-4.374,6.929-6.543,10.4a.935.935,0,0,1-.941.513c-.976-.035-1.955-.026-2.932,0-.366.009-.46-.112-.475-.47q-.153-3.865-.356-7.728a.493.493,0,0,0-.24-.372c-.284-.1-.357.138-.421.361q-1.088,3.774-2.183,7.546c-.229.791-.13.647-.875.654-.875.008-1.751,0-2.626,0Z" transform="translate(321.316 181.675)" fill="#ff682e"/>
      </g>
    </g>
  </g>
</svg>
