<svg xmlns="http://www.w3.org/2000/svg" xmlns:xlink="http://www.w3.org/1999/xlink" width="62" height="62" viewBox="0 0 62 62">
  <defs>
    <filter id="Rect치ngulo_3888" x="0" y="0" width="62" height="62" filterUnits="userSpaceOnUse">
      <feOffset input="SourceAlpha"/>
      <feGaussianBlur stdDeviation="3" result="blur"/>
      <feFlood flood-opacity="0.161" result="color"/>
      <feComposite operator="out" in="SourceGraphic" in2="blur"/>
      <feComposite operator="in" in="color"/>
      <feComposite operator="in" in2="SourceGraphic"/>
    </filter>
  </defs>
  <g id="Grupo_5860" data-name="Grupo 5860" transform="translate(-436 -1779)">
    <g transform="matrix(1, 0, 0, 1, 436, 1779)" filter="url(#Rect치ngulo_3888)">
      <rect id="Rect치ngulo_3888-2" data-name="Rect치ngulo 3888" width="62" height="62" rx="31" fill="#fff"/>
    </g>
    <g id="_274_HTV_Color" data-name="274 HTV Color" transform="translate(467.161 1810.022)">
      <g id="Grupo_5499" data-name="Grupo 5499" transform="translate(-15.212 -18.375)">
        <path id="Trazado_9270" data-name="Trazado 9270" d="M4.646,25.691,15.121,36.166,26.014,25.276l-.008-.014a14.8,14.8,0,1,0-21.366.378Z" transform="translate(0.069 0.084)" fill="#fff"/>
        <g id="Grupo_5498" data-name="Grupo 5498">
          <g id="Grupo_5497" data-name="Grupo 5497">
            <g id="Grupo_5496" data-name="Grupo 5496" transform="translate(20.622 34.228)">
              <g id="Grupo_5495" data-name="Grupo 5495">
                <path id="Trazado_9271" data-name="Trazado 9271" d="M17.575,28.71h-.4V28.5h1.035v.208h-.4v1.066h-.227Z" transform="translate(-17.172 -28.502)" fill="#e30058"/>
                <path id="Trazado_9272" data-name="Trazado 9272" d="M18.231,28.5h.238l.387.6.39-.6h.237v1.274H19.26v-.915l-.4.6h-.006l-.4-.594v.909h-.221Z" transform="translate(-16.959 -28.502)" fill="#e30058"/>
              </g>
            </g>
            <path id="Trazado_9273" data-name="Trazado 9273" d="M4.422,25.981,15.19,36.75l11.2-11.2-.007-.014a15.211,15.211,0,1,0-21.963.389Zm10.072,2.145c1.146-1.124,1.026-2.833,1.044-4.334a3.385,3.385,0,0,1,.509-1.968,2.792,2.792,0,0,1,1.756-1c.82-.1.91.647.926,1.189.024.8-.006,1.285,0,2.085,0,.472-.047,1.305.528,1.554.606.262,1.232-.576,1.466-.96a7.5,7.5,0,0,0,.769-2.318c-.082-.022-.215-.049-.246-.058a1.2,1.2,0,0,1-.514-.341,2.021,2.021,0,0,1-.305-2.187A.994.994,0,0,1,21.5,19.4a1.019,1.019,0,0,1,.5.837,4.141,4.141,0,0,1,.037,1c0,.1-.008.208-.016.313,0,.035-.036.172.008.172,1.3-.019,2.644-5.86.333-4.163-1.114.82-2.75,2.194-4.285,2.129a1.346,1.346,0,0,1-1.239-1.054,25.358,25.358,0,0,1-.215-3.868c-.037-.555.1-1.284-.5-1.284-.767,0-1.516,1.059-1.591,1.843-.067.646-.03,1.966-.041,2.893a9.1,9.1,0,0,1-.094,1.853c-.286,1.536-.612,1.724-3.157,3.36,0,0-1.484.8-1.586,1.142V5.78A.7.7,0,0,1,9.9,5.134c.68-.426,2.427-1.664,3.457-2.235.815-.211,1.266.053,1.209,1.44-.055,1.488-.1,5.577-.15,7.066-.01.215.058.567.37.16A5.385,5.385,0,0,1,18.2,9.112a2.193,2.193,0,0,1,2.649,1.9c.029.754-.037,1.535-.067,2.286-.025.68-.183,2.937.413,3.466.416.367,1.132.156,1.615.01,2.312-.693.759,4.934-.8,5.517-.008.007-.12.044-.124.053-.052.221-.106.512-.175.749A6.99,6.99,0,0,1,19.935,26.6c-.931.777-2.524.885-2.951-.431a7.189,7.189,0,0,1-.145-1.618c-.014-.659-.008-.728-.014-1.389,0-.213.062-1.183-.4-1.047-.524.151-.492,1.1-.492,1.492,0,.119-.042,2.007-.046,2.415a4.1,4.1,0,0,1-1.9,3.712c-1.138.634-2.476.393-2.7-.955a6.063,6.063,0,0,1-.076-1.022c0-.348.018-.7.025-1.045,0-.109.006-.22,0-.328s.018-.18-.108-.132a3.652,3.652,0,0,0-.448.228,1.875,1.875,0,0,0-.862.687,3.426,3.426,0,0,1-.168.323c-.088.127-.207.02-.226-.037a1.326,1.326,0,0,1-.038-.339,2.488,2.488,0,0,1,.321-1.343,2.1,2.1,0,0,1,.207-.3,1.925,1.925,0,0,1,.261-.263,4.525,4.525,0,0,1,.534-.379c1.781-1.1,3.707-2.066,4.212-3.808a6.233,6.233,0,0,1-.651,3.453,3.266,3.266,0,0,1-.941.728c-.016.531-.086,1.062-.086,1.592C13.236,27.592,13.4,29.2,14.494,28.126Z" transform="translate(0 0)" fill="#e30058"/>
          </g>
        </g>
      </g>
    </g>
  </g>
</svg>
