<svg xmlns="http://www.w3.org/2000/svg" xmlns:xlink="http://www.w3.org/1999/xlink" width="62" height="62" viewBox="0 0 62 62">
  <defs>
    <filter id="Rectángulo_3895" x="0" y="0" width="62" height="62" filterUnits="userSpaceOnUse">
      <feOffset input="SourceAlpha"/>
      <feGaussianBlur stdDeviation="3" result="blur"/>
      <feFlood flood-opacity="0.161" result="color"/>
      <feComposite operator="out" in="SourceGraphic" in2="blur"/>
      <feComposite operator="in" in="color"/>
      <feComposite operator="in" in2="SourceGraphic"/>
    </filter>
  </defs>
  <g id="IOSAT" transform="translate(-502 -1782)">
    <g transform="matrix(1, 0, 0, 1, 502, 1782)" filter="url(#Rectángulo_3895)">
      <rect id="Rectángulo_3895-2" data-name="Rectángulo 3895" width="62" height="62" rx="31" fill="#fff"/>
    </g>
    <g id="_232_I.Sat_Color" data-name="232 I.Sat Color" transform="translate(532.76 1812.764)">
      <g id="Grupo_5888" data-name="Grupo 5888" transform="translate(-21.76 -7.764)">
        <path id="Trazado_9976" data-name="Trazado 9976" d="M11.623,10.308A4.745,4.745,0,1,1,7.679,2.93a4.7,4.7,0,0,1,3.944,2.117,3.354,3.354,0,0,1,2.144-.765,3.242,3.242,0,0,1,.845.1,7.672,7.672,0,1,0,0,6.59,3.717,3.717,0,0,1-.829.1,3.439,3.439,0,0,1-2.16-.761" fill="#009c9d"/>
        <path id="Trazado_9977" data-name="Trazado 9977" d="M15.724,6.723l-.3.025a1.57,1.57,0,0,1,.818,2.646,1.549,1.549,0,0,1-.812.433l.293.03a1.567,1.567,0,0,0,0-3.134" transform="translate(-1.409 -0.614)" fill="#e50019"/>
        <path id="Trazado_9978" data-name="Trazado 9978" d="M13.974,8.3a1.572,1.572,0,0,1,1.279-1.549l-.3-.025a1.567,1.567,0,0,0,0,3.134h0l.3-.03A1.573,1.573,0,0,1,13.974,8.3" transform="translate(-1.223 -0.614)" fill="#009c9d"/>
        <path id="Trazado_9979" data-name="Trazado 9979" d="M15.308,6.754a1.565,1.565,0,0,0-.024,3.07l.03,0,.02,0a1.566,1.566,0,0,0,1.237-1.536,1.58,1.58,0,0,0-1.263-1.535" transform="translate(-1.282 -0.617)" fill="#042121"/>
        <rect id="Rectángulo_3899" data-name="Rectángulo 3899" width="2.009" height="5.447" transform="translate(6.728 4.952)" fill="#e50019"/>
        <path id="Trazado_9980" data-name="Trazado 9980" d="M40.822,15.245H39.9V1.972h-4.35V1.046h9.561v.927h-4.29V15.245M32.5,2.554,29.769,9.6h5.456L32.5,2.554m5.887,12.7H37.4l-1.816-4.722H29.408l-1.835,4.722h-.994l.1-.261.055-.138L32.11,1.014h.8l5.487,14.235M22.5,15.593h-.318a4.63,4.63,0,0,1-4.121-2.458,5.482,5.482,0,0,1-.614-2.24l-.007-.3.921-.005.005.186v.1a4.7,4.7,0,0,0,.508,1.836,3.762,3.762,0,0,0,3.361,1.959l.214.005h.026a3.865,3.865,0,0,0,2.99-1.283,3.234,3.234,0,0,0,.573-1.81v-.034a2.611,2.611,0,0,0-.312-1.23C25.1,9.185,23.952,8.812,22.55,8.468l-.313-.075a6.294,6.294,0,0,1-3.665-1.817,3.393,3.393,0,0,1-.76-2.154V4.382a3.242,3.242,0,0,1,.571-1.874,4.337,4.337,0,0,1,3.6-1.786h.041A5.1,5.1,0,0,1,25.145,1.77a3.879,3.879,0,0,1,1.51,3.049l.005.3-.923.021v-.3a2.919,2.919,0,0,0-1.162-2.343,4.156,4.156,0,0,0-2.549-.849H22a3.456,3.456,0,0,0-2.868,1.392,2.338,2.338,0,0,0-.4,1.345v.032a2.585,2.585,0,0,0,.542,1.577,5.74,5.74,0,0,0,3.268,1.535l.225.048c1.469.362,2.93.825,3.762,2.3a3.489,3.489,0,0,1,.423,1.672l-.194,0h.194v.017a4.117,4.117,0,0,1-.735,2.361A4.745,4.745,0,0,1,22.5,15.593" transform="translate(-1.593 -0.066)" fill="#e50019"/>
      </g>
    </g>
  </g>
</svg>
