<svg xmlns="http://www.w3.org/2000/svg" width="86" height="38" viewBox="0 0 86 38">
  <g id="justiciatv" transform="translate(0.356 0.09)">
    <rect id="Rectángulo_3581" data-name="Rectángulo 3581" width="86" height="38" transform="translate(-0.356 -0.09)" fill="none"/>
    <g id="Grupo_4827" data-name="Grupo 4827" transform="translate(11.935 12.141)">
      <path id="Trazado_8325" data-name="Trazado 8325" d="M133.313,520.993h2.7a2.546,2.546,0,0,0,2.423-2.028,5.142,5.142,0,0,0,.153-1.182v-6.038l.453-.455v6.628c0,1.969-1.241,3.53-3.029,3.53h-3.153Zm7.556-7.664v5.2a2.713,2.713,0,0,0,5.423,0v-4.742l.455-.455v5.2a3.168,3.168,0,0,1-6.333,0v-4.742Zm7.256,4.5v-2.16c0-1.3,1.218-2.348,3.294-2.348h2.789l-.451.455h-2.337c-1.8,0-2.839.832-2.839,1.893v1.6h5.645V519.1c0,1.3-1.335,2.348-3.409,2.348h-2.691l.453-.455h2.238c1.8,0,2.954-.832,2.954-1.893v-1.267Zm7.465-4.5v-1.584l.453-.455v2.039h2.846l-.459.455h-2.387V518.6a2.173,2.173,0,0,0,2.318,2.409h.528l-.459.455h-.069a2.6,2.6,0,0,1-2.771-2.864v-5.272Zm5.117,0v7.664l-.455.455v-7.664Zm-.455-.123.455-.453v-.617l-.455.455Zm7.41,8.35c-3.425,0-5.137-2.076-5.137-4.168s1.712-4.182,5.137-4.182l.437,0-.437.451c-3.123,0-4.682,1.879-4.682,3.727s1.559,3.713,4.682,3.713h.457Zm1.82-7.773v7.664l.455-.455v-7.664Zm0-.578.455-.453v-.617l-.455.455Zm8.384,8.171v-7.609h-1.406c-3.121,0-4.682,1.829-4.682,3.628s1.561,3.612,4.682,3.612h.475l.46.443h-.935c-3.423,0-5.137-2.021-5.137-4.054s1.713-4.069,5.137-4.069h1.865v8.5ZM180.8,518.6V512.14h2.272l.853-.851h-4.764l-.853.851h1.644V518.6a2.8,2.8,0,0,0,2.97,3.061h.149l.855-.848h-1A1.98,1.98,0,0,1,180.8,518.6m13.127-7.3-8.429,8.423V511.29l-.848.85v9.63L195.129,511.3Zm-52.881,14.022a.819.819,0,0,1-.139.014.519.519,0,0,1-.329-.087.458.458,0,0,1-.137-.286,4.279,4.279,0,0,1-.034-.619,4.018,4.018,0,0,1,.036-.617.469.469,0,0,1,.139-.29.509.509,0,0,1,.325-.085,1.016,1.016,0,0,1,.148.011.445.445,0,0,1,.108.032v.284a1.194,1.194,0,0,0-.2-.019.225.225,0,0,0-.153.041.278.278,0,0,0-.055.172c-.009.089-.014.245-.014.471s.005.382.014.471a.267.267,0,0,0,.055.171.215.215,0,0,0,.153.043,1,1,0,0,0,.2-.019v.281a.617.617,0,0,1-.121.032m1.178-.009-.066-.425h-.332l-.064.425h-.336l.318-1.937h.5l.322,1.937ZM142,523.723h-.016l-.124.866h.265Zm1.577,1.589-.357-1.093h-.011v1.093h-.323v-1.937h.32l.336,1.015h.016v-1.015h.322v1.937Zm1.418,0-.064-.425H144.6l-.064.425H144.2l.316-1.937h.5l.322,1.937Zm-.222-1.589h-.016l-.124.866h.265Zm.885,1.589v-1.937H146V525h.389v.313Zm1.646-1.937h.453a.565.565,0,0,1,.348.084.4.4,0,0,1,.132.266,7.165,7.165,0,0,1,0,1.235.4.4,0,0,1-.132.268.566.566,0,0,1-.348.084h-.453Zm.453,1.63a.159.159,0,0,0,.117-.032.29.29,0,0,0,.043-.162c.009-.087.012-.242.012-.468s0-.382-.012-.467a.3.3,0,0,0-.043-.162.16.16,0,0,0-.117-.032h-.117V525Zm.892.307v-1.937h.771v.307h-.43v.5h.377v.307h-.377V525h.43v.307Zm1.146,0v-1.937h.34V525h.389v.313Zm1.646-1.937h.521a.469.469,0,0,1,.284.073.348.348,0,0,1,.126.21,1.677,1.677,0,0,1,.032.368,1.766,1.766,0,0,1-.03.359.38.38,0,0,1-.124.215.442.442,0,0,1-.288.08h-.18v.633h-.341Zm.464,1a.167.167,0,0,0,.107-.027.146.146,0,0,0,.041-.1,1.617,1.617,0,0,0,.011-.224,1.662,1.662,0,0,0-.011-.226.132.132,0,0,0-.041-.092.18.18,0,0,0-.107-.025h-.123v.69Zm.965.878a.407.407,0,0,1-.13-.274,5.184,5.184,0,0,1-.027-.633,5.127,5.127,0,0,1,.027-.631.412.412,0,0,1,.13-.276.547.547,0,0,1,.347-.085.559.559,0,0,1,.35.085.4.4,0,0,1,.13.276,4.793,4.793,0,0,1,.027.631,4.846,4.846,0,0,1-.027.633.4.4,0,0,1-.13.274.571.571,0,0,1-.35.085.559.559,0,0,1-.347-.085m.462-.258a.286.286,0,0,0,.041-.164q.011-.133.011-.485c0-.235,0-.4-.011-.483a.3.3,0,0,0-.041-.167.211.211,0,0,0-.229,0,.359.359,0,0,0-.041.169c-.007.087-.011.249-.011.482s0,.395.011.484a.348.348,0,0,0,.041.165.2.2,0,0,0,.229,0m.779-1.617h.453a.568.568,0,0,1,.348.084.405.405,0,0,1,.132.266,7.169,7.169,0,0,1,0,1.235.41.41,0,0,1-.132.268.569.569,0,0,1-.348.084h-.453Zm.453,1.63a.165.165,0,0,0,.117-.032.29.29,0,0,0,.043-.162c.007-.087.011-.242.011-.468s0-.382-.011-.467a.3.3,0,0,0-.043-.162.166.166,0,0,0-.117-.032h-.119V525Zm.892.307v-1.937h.771v.307H155.8v.5h.377v.307H155.8V525h.432v.307Zm1.809,0-.164-.691h-.162v.691H156.6v-1.937h.531a.483.483,0,0,1,.284.069.35.35,0,0,1,.124.2,1.515,1.515,0,0,1,.03.35,1.537,1.537,0,0,1-.03.35.313.313,0,0,1-.132.2l.2.766Zm-.084-1.011a.14.14,0,0,0,.043-.089,1.454,1.454,0,0,0,.011-.208,1.432,1.432,0,0,0-.011-.21.135.135,0,0,0-.043-.089.18.18,0,0,0-.1-.023h-.137v.64h.137a.2.2,0,0,0,.1-.021m1.424.7a.114.114,0,0,0,.055-.091,1.981,1.981,0,0,0,.012-.261v-1.273h.338v1.1a3.5,3.5,0,0,1-.032.588.25.25,0,0,1-.137.2,1.214,1.214,0,0,1-.395.048v-.29a.467.467,0,0,0,.158-.023m1.779-1.625v1.084a3.972,3.972,0,0,1-.027.553.361.361,0,0,1-.126.245.768.768,0,0,1-.675,0,.369.369,0,0,1-.128-.245,4.356,4.356,0,0,1-.025-.553v-1.084h.339v1.216c0,.146,0,.244.007.3a.159.159,0,0,0,.039.109.145.145,0,0,0,.1.029A.148.148,0,0,0,160,525a.167.167,0,0,0,.039-.107c.005-.055.009-.155.009-.3v-1.216Zm.405,0h.451a.571.571,0,0,1,.35.084.389.389,0,0,1,.13.266,6.725,6.725,0,0,1,0,1.235.394.394,0,0,1-.13.268.572.572,0,0,1-.35.084h-.451Zm.451,1.63a.165.165,0,0,0,.119-.032.306.306,0,0,0,.043-.162c.007-.087.011-.242.011-.468s0-.382-.011-.467a.313.313,0,0,0-.043-.162.165.165,0,0,0-.119-.032h-.117V525Zm.9-1.63h.338v1.937h-.338Zm1.367,1.946a.8.8,0,0,1-.14.014.508.508,0,0,1-.325-.087.458.458,0,0,1-.139-.286,5.661,5.661,0,0,1,0-1.235.479.479,0,0,1,.14-.29.507.507,0,0,1,.323-.085,1,1,0,0,1,.148.011.381.381,0,0,1,.108.032v.284a1.174,1.174,0,0,0-.194-.019.225.225,0,0,0-.153.041.276.276,0,0,0-.057.172c-.009.089-.012.245-.012.471s0,.382.012.471a.265.265,0,0,0,.057.171.215.215,0,0,0,.153.043,1.036,1.036,0,0,0,.2-.019v.281a.678.678,0,0,1-.123.032m.482-1.946h.338v1.937h-.338Zm1.461,1.937-.064-.425h-.332l-.066.425h-.334l.318-1.937h.5l.32,1.937Zm-.222-1.589h-.016l-.124.866h.265Zm.883,1.589v-1.937h.341V525h.387v.313Zm1.648-1.937h.453a.565.565,0,0,1,.348.084.4.4,0,0,1,.132.266,7.174,7.174,0,0,1,0,1.235.4.4,0,0,1-.132.268.566.566,0,0,1-.348.084h-.453Zm.453,1.63a.162.162,0,0,0,.117-.032.29.29,0,0,0,.043-.162c.007-.087.011-.242.011-.468s0-.382-.011-.467a.3.3,0,0,0-.043-.162.163.163,0,0,0-.117-.032H168.1V525Zm.892.307v-1.937h.771v.307h-.43v.5h.377v.307h-.377V525h.43v.307Zm1.742,0v-1.937h.341V525h.387v.313Zm1.751,0-.064-.425h-.332l-.066.425h-.334l.318-1.937h.5l.32,1.937Zm-.222-1.589h-.018l-.123.866h.265Zm1.481,1.589v-1.937h.734v.307H174.2v.537h.348v.307H174.2v.786Zm1.079,0v-1.937h.771v.307h-.432v.5h.377v.307h-.377V525h.432v.307Zm1.145-1.937h.453a.571.571,0,0,1,.35.084.4.4,0,0,1,.13.266,7.169,7.169,0,0,1,0,1.235.4.4,0,0,1-.13.268.572.572,0,0,1-.35.084h-.453Zm.453,1.63a.167.167,0,0,0,.119-.032.31.31,0,0,0,.041-.162c.009-.087.012-.242.012-.468s0-.382-.012-.467a.317.317,0,0,0-.041-.162.168.168,0,0,0-.119-.032h-.117V525Zm.892.307v-1.937h.771v.307h-.43v.5h.377v.307h-.377V525h.43v.307Zm1.809,0-.162-.691h-.162v.691h-.34v-1.937h.531a.473.473,0,0,1,.283.069.344.344,0,0,1,.126.2,1.622,1.622,0,0,1,.03.35,1.647,1.647,0,0,1-.03.35.315.315,0,0,1-.133.2l.206.766Zm-.082-1.011a.14.14,0,0,0,.043-.089,1.873,1.873,0,0,0,.009-.208,1.84,1.84,0,0,0-.009-.21.135.135,0,0,0-.043-.089.18.18,0,0,0-.1-.023h-.137v.64h.137a.2.2,0,0,0,.1-.021m1.474,1.011-.064-.425h-.332l-.066.425h-.336l.32-1.937h.5l.322,1.937Zm-.222-1.589h-.018l-.123.866h.265Zm1.491,1.6a.839.839,0,0,1-.14.014.51.51,0,0,1-.327-.087.449.449,0,0,1-.137-.286,5.664,5.664,0,0,1,0-1.235.47.47,0,0,1,.14-.29.5.5,0,0,1,.324-.085,1.016,1.016,0,0,1,.148.011.422.422,0,0,1,.108.032v.284a1.193,1.193,0,0,0-.194-.019.225.225,0,0,0-.153.041.266.266,0,0,0-.057.172c-.009.089-.012.245-.012.471s0,.382.012.471a.256.256,0,0,0,.057.171.215.215,0,0,0,.153.043,1.017,1.017,0,0,0,.2-.019v.281a.7.7,0,0,1-.121.032m.482-1.946h.338v1.937h-.338Zm.885,1.875a.415.415,0,0,1-.13-.274,5.187,5.187,0,0,1-.027-.633,5.129,5.129,0,0,1,.027-.631.42.42,0,0,1,.13-.276.551.551,0,0,1,.347-.085.559.559,0,0,1,.35.085.4.4,0,0,1,.13.276,4.708,4.708,0,0,1,.028.631,4.76,4.76,0,0,1-.028.633.4.4,0,0,1-.13.274.571.571,0,0,1-.35.085.562.562,0,0,1-.347-.085m.462-.258a.286.286,0,0,0,.041-.164q.011-.133.011-.485c0-.235,0-.4-.011-.483a.3.3,0,0,0-.041-.167.211.211,0,0,0-.229,0,.359.359,0,0,0-.041.169c-.007.087-.011.249-.011.482s0,.395.011.484a.348.348,0,0,0,.041.165.2.2,0,0,0,.229,0m-.258-1.792v-.014l.1-.395h.313v.014l-.156.395Zm1.728,2.112-.357-1.093h-.011v1.093h-.324v-1.937h.32l.334,1.015h.018v-1.015h.32v1.937Z" transform="translate(-132.858 -511.288)" fill="#17005d"/>
    </g>
  </g>
</svg>
