<svg xmlns="http://www.w3.org/2000/svg" width="86" height="38" viewBox="0 0 86 38">
  <g id="mc" transform="translate(-0.109 0.219)">
    <rect id="Rectángulo_3581" data-name="Rectángulo 3581" width="86" height="38" transform="translate(0.109 -0.219)" fill="none"/>
    <g id="Grupo_5270" data-name="Grupo 5270" transform="translate(20.302 7.875)">
      <path id="Trazado_8797" data-name="Trazado 8797" d="M366.766,159.6a12.9,12.9,0,0,1,.832-4.449,12.481,12.481,0,0,1,2.527-4.13,12.227,12.227,0,0,1,2.291-1.953l.964-3.583H365.6l-6.538,7.445-2.542-7.445H349.53l-5.689,21.185h6.931l2.815-10.5,2.845,7.535h.12l6.9-7.535-2.814,10.5h7.052l.512-1.911a9.1,9.1,0,0,1-.694-1.3,9.619,9.619,0,0,1-.741-3.859" transform="translate(-343.841 -145.379)" fill="#101010"/>
      <path id="Trazado_8798" data-name="Trazado 8798" d="M457.3,167.093a12.24,12.24,0,0,1-4.086-.651,9.045,9.045,0,0,1-3.161-1.861,8.492,8.492,0,0,1-2.058-2.92,9.589,9.589,0,0,1-.741-3.859,12.864,12.864,0,0,1,.832-4.449,12.479,12.479,0,0,1,2.527-4.13,13.039,13.039,0,0,1,4.252-3.042,14.141,14.141,0,0,1,5.977-1.18,10.792,10.792,0,0,1,3.163.438,8.731,8.731,0,0,1,2.557,1.242,7.323,7.323,0,0,1,1.876,1.951,7.906,7.906,0,0,1,1.089,2.542l-6.324,2.754a3.292,3.292,0,0,0-1.211-1.936,3.459,3.459,0,0,0-2.088-.636,4.62,4.62,0,0,0-2.149.5,5.238,5.238,0,0,0-1.648,1.317,6.093,6.093,0,0,0-1.059,1.861,6.208,6.208,0,0,0-.378,2.134,3.613,3.613,0,0,0,.952,2.694A3.25,3.25,0,0,0,458,160.8a4.406,4.406,0,0,0,2.239-.574,7.01,7.01,0,0,0,1.878-1.635l4.9,3.874a12.256,12.256,0,0,1-3.964,3.358,11.976,11.976,0,0,1-5.75,1.272" transform="translate(-423.69 -145.001)" fill="#101010"/>
    </g>
  </g>
</svg>
