<svg xmlns="http://www.w3.org/2000/svg" width="86" height="38" viewBox="0 0 86 38">
  <g id="mp" transform="translate(0.076 0.219)">
    <rect id="Rectángulo_3581" data-name="Rectángulo 3581" width="86" height="38" transform="translate(-0.076 -0.219)" fill="none"/>
    <g id="Grupo_4850" data-name="Grupo 4850" transform="translate(24.686 5.62)">
      <path id="Trazado_8020" data-name="Trazado 8020" d="M536.027,631.6h-6.1l1.083,2.936,5.1.747-3.448,3.724,1.889,5.118-3.908-2.938-5.452,5.883-.259,1.474h4.42l.65-3.685h3.683a8.251,8.251,0,0,0,7.8-6.63A5.409,5.409,0,0,0,536.027,631.6Z" transform="translate(-505.654 -627.914)" fill="#100f0c"/>
      <path id="Trazado_8021" data-name="Trazado 8021" d="M534.648,646.593l1.164-6.6-7.193-5.4,7.94,1.165,1.076-6.1h-6.621l-4.645,9.577-2.716-9.577h-5.909l-2.988,16.944h5.157l1.429-8.1,2.255,8.1h2.947l5.112-8.1-1.429,8.1Z" transform="translate(-514.717 -629.649)" fill="#100f0c"/>
      <g id="Grupo_4849" data-name="Grupo 4849" transform="translate(0 22.861)">
        <path id="Trazado_8024" data-name="Trazado 8024" d="M518.111,641.742c.132,0,.18.047.18.18v3.4c0,.132-.047.18-.18.18h-.27c-.132,0-.18-.047-.18-.18V643.7a5.045,5.045,0,0,1,.127-1.053h-.036a5.817,5.817,0,0,1-.435.968l-.518.915a.235.235,0,0,1-.206.127h-.168a.189.189,0,0,1-.208-.127l-.528-.921a4.336,4.336,0,0,1-.408-.962h-.036a5.269,5.269,0,0,1,.11,1.057v1.609c0,.132-.047.18-.18.18h-.253c-.132,0-.185-.047-.185-.18v-3.4c0-.132.053-.18.185-.18h.232c.148,0,.2.026.253.136l1.1,1.968,1.1-1.962c.064-.121.1-.142.244-.142Z" transform="translate(-514.736 -641.742)" fill="#100f0c"/>
        <path id="Trazado_8025" data-name="Trazado 8025" d="M517.658,644.211c0,.482.28.747.813.747s.815-.265.815-.747v-2.289c0-.132.049-.18.18-.18h.3c.132,0,.18.047.18.18v2.284a1.483,1.483,0,0,1-2.957,0v-2.284c0-.132.047-.18.18-.18h.308c.13,0,.18.047.18.18Z" transform="translate(-512.728 -641.742)" fill="#100f0c"/>
        <path id="Trazado_8026" data-name="Trazado 8026" d="M519.416,641.742c.132,0,.182.047.182.18v2.957h1.518c.131,0,.18.047.18.179v.259c0,.132-.049.18-.18.18h-2c-.132,0-.185-.047-.185-.18v-3.4c0-.132.053-.18.185-.18Z" transform="translate(-511.001 -641.742)" fill="#100f0c"/>
        <path id="Trazado_8027" data-name="Trazado 8027" d="M522.606,641.742c.132,0,.18.047.18.18v.259c0,.132-.047.18-.18.18H521.7v2.957c0,.132-.047.18-.18.18h-.306c-.132,0-.182-.047-.182-.18V642.36h-.909c-.132,0-.18-.047-.18-.18v-.259c0-.132.047-.18.18-.18Z" transform="translate(-510.102 -641.742)" fill="#100f0c"/>
        <path id="Trazado_8028" data-name="Trazado 8028" d="M521.678,641.921c0-.132.053-.18.185-.18h.3c.132,0,.18.047.18.18v3.4c0,.132-.047.18-.18.18h-.3c-.132,0-.185-.047-.185-.18Z" transform="translate(-508.554 -641.742)" fill="#100f0c"/>
        <path id="Trazado_8029" data-name="Trazado 8029" d="M524,641.742a1.224,1.224,0,1,1,0,2.448h-.921v1.127c0,.132-.047.18-.18.18h-.3c-.132,0-.185-.047-.185-.18v-3.4c0-.132.053-.18.185-.18Zm-.064,1.83a.606.606,0,1,0,0-1.212h-.856v1.212Z" transform="translate(-507.897 -641.742)" fill="#100f0c"/>
        <path id="Trazado_8030" data-name="Trazado 8030" d="M525.83,641.742a1.085,1.085,0,0,1,1.189,1.163,1.03,1.03,0,0,1-.7,1.068.653.653,0,0,1,.168.229l.582,1.115c.064.121.032.18-.091.18h-.306c-.232,0-.295-.027-.359-.159l-.444-.9c-.144-.295-.27-.369-.63-.369h-.391v1.248c0,.132-.047.18-.18.18h-.3c-.132,0-.183-.047-.183-.18v-3.4c0-.132.051-.18.183-.18Zm.492,1.163a.548.548,0,0,0-.144-.406.574.574,0,0,0-.412-.138h-.915v1.089h.915a.577.577,0,0,0,.412-.142A.533.533,0,0,0,526.321,642.9Z" transform="translate(-506.321 -641.742)" fill="#100f0c"/>
        <path id="Trazado_8031" data-name="Trazado 8031" d="M528.29,641.742c.132,0,.185.047.185.18v.259c0,.132-.053.18-.185.18h-1.618v.927h1.371c.132,0,.179.047.179.18v.259c0,.132-.047.179-.179.179h-1.371v.974h1.677c.132,0,.18.047.18.179v.259c0,.132-.047.18-.18.18h-2.157c-.132,0-.185-.047-.185-.18v-3.4c0-.132.053-.18.185-.18Z" transform="translate(-504.7 -641.742)" fill="#100f0c"/>
        <path id="Trazado_8032" data-name="Trazado 8032" d="M531,641.742c.132,0,.179.047.179.18v3.4c0,.132-.047.18-.179.18h-.27c-.132,0-.18-.047-.18-.18V643.7a4.908,4.908,0,0,1,.127-1.053h-.036a6,6,0,0,1-.435.968l-.518.915a.234.234,0,0,1-.206.127h-.17a.188.188,0,0,1-.206-.127l-.529-.921a4.418,4.418,0,0,1-.406-.962h-.038a5.131,5.131,0,0,1,.112,1.057v1.609c0,.132-.047.18-.18.18h-.253c-.132,0-.185-.047-.185-.18v-3.4c0-.132.053-.18.185-.18h.232c.148,0,.195.026.253.136l1.1,1.968,1.1-1.962c.064-.121.1-.142.244-.142Z" transform="translate(-503.257 -641.742)" fill="#100f0c"/>
        <path id="Trazado_8033" data-name="Trazado 8033" d="M529.9,641.921c0-.132.053-.18.185-.18h.3c.132,0,.181.047.181.18v3.4c0,.132-.049.18-.181.18h-.3c-.132,0-.185-.047-.185-.18Z" transform="translate(-501.237 -641.742)" fill="#100f0c"/>
        <path id="Trazado_8034" data-name="Trazado 8034" d="M532.918,641.742c.132,0,.185.047.185.18v.259c0,.132-.053.18-.185.18H531.3v.927h1.37c.132,0,.18.047.18.18v.259c0,.132-.047.179-.18.179H531.3v.974h1.677c.132,0,.18.047.18.179v.259c0,.132-.047.18-.18.18h-2.157c-.132,0-.185-.047-.185-.18v-3.4c0-.132.053-.18.185-.18Z" transform="translate(-500.578 -641.742)" fill="#100f0c"/>
        <path id="Trazado_8035" data-name="Trazado 8035" d="M533.9,641.742a1.085,1.085,0,0,1,1.189,1.163,1.029,1.029,0,0,1-.7,1.068.654.654,0,0,1,.168.229l.582,1.115c.064.121.032.18-.089.18h-.308c-.232,0-.295-.027-.359-.159l-.444-.9c-.142-.295-.27-.369-.629-.369h-.391v1.248c0,.132-.047.18-.18.18h-.3c-.132,0-.185-.047-.185-.18v-3.4c0-.132.053-.18.185-.18Zm.491,1.163a.547.547,0,0,0-.144-.406.574.574,0,0,0-.412-.138h-.915v1.089h.915a.577.577,0,0,0,.412-.142A.532.532,0,0,0,534.39,642.9Z" transform="translate(-499.136 -641.742)" fill="#100f0c"/>
      </g>
    </g>
  </g>
</svg>
