<svg xmlns="http://www.w3.org/2000/svg" xmlns:xlink="http://www.w3.org/1999/xlink" width="86" height="37" viewBox="0 0 86 37">
  <defs>
    <clipPath id="clip-path">
      <rect id="Rect치ngulo_3635" data-name="Rect치ngulo 3635" width="64.852" height="15.761" fill="none"/>
    </clipPath>
  </defs>
  <g id="mvstv" transform="translate(0.356 -0.074)">
    <rect id="Rect치ngulo_3581" data-name="Rect치ngulo 3581" width="86" height="37" transform="translate(-0.356 0.074)" fill="none"/>
    <g id="mvs_tv_color" data-name="mvs tv color" transform="translate(10.432 11.056)">
      <g id="Grupo_4813" data-name="Grupo 4813" transform="translate(0)">
        <g id="Grupo_4812" data-name="Grupo 4812" clip-path="url(#clip-path)">
          <g id="Grupo_4811" data-name="Grupo 4811">
            <g id="Grupo_4810" data-name="Grupo 4810" clip-path="url(#clip-path)">
              <path id="Trazado_7749" data-name="Trazado 7749" d="M179.422,483.949a5.288,5.288,0,0,0-1.281-.926,11,11,0,0,0-1.718-.717,6.317,6.317,0,0,1-1.177-.484.72.72,0,0,1-.4-.653.829.829,0,0,1,.473-.779,2.22,2.22,0,0,1,1.063-.253h.013a4.747,4.747,0,0,1,1.949.462,4.887,4.887,0,0,1,1.427,1l1.98-3.523a4.3,4.3,0,0,0-.99-.759,7.739,7.739,0,0,0-1.285-.579,9.545,9.545,0,0,0-1.474-.377,9.111,9.111,0,0,0-1.578-.138,8.277,8.277,0,0,0-2.664.411,6.957,6.957,0,0,0-1.312.6l.335-.586h-5.67l-4.52,9.426h-.087l-.679-9.426H150.888l-3.905,8.239h-.107l-1.316-8.239H139.3l-2.653,15.03h4.584l1.3-8.7h.1l1.339,8.7h3.459l4.438-8.7h.127l-1.676,8.7h4.775l1.994-11.289,1.627,11.289h5.477l5.672-9.917a3.854,3.854,0,0,0,.293,1.487,3.374,3.374,0,0,0,.81,1.137,4.937,4.937,0,0,0,1.221.813,11.707,11.707,0,0,0,1.505.588,4.576,4.576,0,0,1,1.379.611.853.853,0,0,1,.369.675.761.761,0,0,1-.442.7,2.452,2.452,0,0,1-1.179.242,3.26,3.26,0,0,1-.737-.093c-.16-.038-.32-.084-.477-.138h0a4.87,4.87,0,0,1-1.2-.619,4.652,4.652,0,0,1-1.423-1.558l-2.24,4.009a7.873,7.873,0,0,0,5.637,2.349h.027c.147.007.293.009.44.009a9.46,9.46,0,0,0,2.291-.293,7.138,7.138,0,0,0,2.149-.928,5.2,5.2,0,0,0,1.605-1.641,4.534,4.534,0,0,0,.628-2.444,3.873,3.873,0,0,0-.282-1.514,3.778,3.778,0,0,0-.808-1.2" transform="translate(-136.644 -476.221)" fill="#002d5e"/>
              <path id="Trazado_7750" data-name="Trazado 7750" d="M172.013,479.134l-2.7,6.376h-.08l-.409-6.376h-5.732l.34-2.08H159.57l-2.895,5.133h1.587l-.788,4.7c-.027.175-.049.364-.071.568s-.029.388-.029.548a3,3,0,0,0,.315,1.467,2.442,2.442,0,0,0,.824.9,3.266,3.266,0,0,0,1.159.46,6.565,6.565,0,0,0,1.321.133,8.047,8.047,0,0,0,1.3-.111,2.567,2.567,0,0,0,.937-.284l.548-3.374q-.163.043-.406.087a2.611,2.611,0,0,1-.488.044,1.129,1.129,0,0,1-.662-.164.773.773,0,0,1-.233-.668c0-.073,0-.166.009-.284s.018-.22.031-.306l.624-3.719H164.5l1.33,8.472h4.962l6.263-11.524Z" transform="translate(-112.205 -475.205)" fill="#29cbb9"/>
            </g>
          </g>
        </g>
      </g>
    </g>
  </g>
</svg>
