<svg xmlns="http://www.w3.org/2000/svg" width="86" height="38" viewBox="0 0 86 38">
  <g id="natgeo" transform="translate(0.171 0.09)">
    <rect id="Rectángulo_3581" data-name="Rectángulo 3581" width="86" height="38" transform="translate(-0.171 -0.09)" fill="none"/>
    <g id="Grupo_5186" data-name="Grupo 5186" transform="translate(11.31 9.135)">
      <path id="Trazado_8569" data-name="Trazado 8569" d="M161.627,423.219h8.954v15.535h-8.954Zm-1.814,17.494H172.4V421.26H159.813Z" transform="translate(-159.813 -421.26)" fill="#ffce00"/>
      <path id="Trazado_8570" data-name="Trazado 8570" d="M173.946,429.141h-.811c-1.059-1.615-2.111-3.222-3.165-5.038h-.007v5.038h-.895v-7.025h.809c1.062,1.606,2.114,3.2,3.156,5.007h.017v-5.007h.895Z" transform="translate(-152.894 -420.62)" fill="#161615"/>
      <path id="Trazado_8571" data-name="Trazado 8571" d="M173.854,426.361c.26-.923.521-1.775.753-2.861h.019c.26,1.085.493,1.938.734,2.861Zm.428-4.245-2.253,7.025H173l.568-1.917h1.964l.512,1.917h1.246l-2.076-7.025Z" transform="translate(-150.681 -420.62)" fill="#161615"/>
      <path id="Trazado_8572" data-name="Trazado 8572" d="M176.373,429.14v-6.082h-1.712v-.942H179.2v.942H177.49v6.082Z" transform="translate(-148.714 -420.62)" fill="#161615"/>
      <rect id="Rectángulo_3711" data-name="Rectángulo 3711" width="1.108" height="7.026" transform="translate(30.851 1.496)" fill="#161615"/>
      <path id="Trazado_8573" data-name="Trazado 8573" d="M181.255,428.31c-1.162,0-1.573-1.388-1.573-2.73,0-1.3.467-2.53,1.573-2.53s1.573,1.234,1.573,2.53c0,1.342-.409,2.73-1.573,2.73m0,1c1.7,0,2.765-1.634,2.765-3.731,0-1.968-1.174-3.533-2.765-3.533s-2.765,1.566-2.765,3.533c0,2.1,1.062,3.731,2.765,3.731" transform="translate(-145.852 -420.672)" fill="#161615"/>
      <path id="Trazado_8574" data-name="Trazado 8574" d="M186.919,429.141h-.807c-1.062-1.615-2.114-3.222-3.165-5.038h-.009v5.038h-.895v-7.025h.809c1.061,1.606,2.114,3.2,3.154,5.007h.021v-5.007h.891Z" transform="translate(-143.196 -420.62)" fill="#161615"/>
      <path id="Trazado_8575" data-name="Trazado 8575" d="M186.83,426.361c.259-.923.519-1.775.751-2.861h.019c.262,1.085.495,1.938.736,2.861Zm.426-4.245L185,429.141h.968l.568-1.917H188.5l.51,1.917h1.248l-2.074-7.025Z" transform="translate(-140.983 -420.62)" fill="#161615"/>
      <path id="Trazado_8576" data-name="Trazado 8576" d="M188.2,422.116h1.108V428.2h2.206v.943H188.2Z" transform="translate(-138.594 -420.62)" fill="#161615"/>
      <path id="Trazado_8577" data-name="Trazado 8577" d="M173.6,431.182v2.9a4.8,4.8,0,0,1-1.852.432c-1.917,0-3.126-1.606-3.126-3.671a3.306,3.306,0,0,1,3.165-3.593,2.65,2.65,0,0,1,1.581.542l-.363.833a2.285,2.285,0,0,0-1.19-.374c-1.192,0-2,1.015-2,2.611,0,1.665.931,2.651,1.891,2.651a1.523,1.523,0,0,0,.781-.173v-2.156Z" transform="translate(-153.232 -416.784)" fill="#161615"/>
      <path id="Trazado_8578" data-name="Trazado 8578" d="M175.026,428.26h-1.863v1.927h1.826v.943h-1.826V433.4h2.2v.943h-3.315v-7.024h2.98Z" transform="translate(-150.669 -416.733)" fill="#161615"/>
      <path id="Trazado_8579" data-name="Trazado 8579" d="M176.9,433.509c-1.164,0-1.573-1.384-1.573-2.731,0-1.291.465-2.527,1.573-2.527s1.573,1.235,1.573,2.527c0,1.347-.411,2.731-1.573,2.731m0,1c1.7,0,2.765-1.636,2.765-3.734,0-1.964-1.174-3.53-2.765-3.53s-2.765,1.566-2.765,3.53c0,2.1,1.061,3.734,2.765,3.734" transform="translate(-149.104 -416.784)" fill="#161615"/>
      <path id="Trazado_8580" data-name="Trazado 8580" d="M182.5,431.182v2.9a4.791,4.791,0,0,1-1.852.432c-1.917,0-3.126-1.606-3.126-3.671a3.306,3.306,0,0,1,3.165-3.593,2.65,2.65,0,0,1,1.582.542l-.362.833a2.3,2.3,0,0,0-1.192-.374c-1.192,0-2,1.015-2,2.611,0,1.665.931,2.651,1.889,2.651a1.529,1.529,0,0,0,.783-.173v-2.156Z" transform="translate(-146.576 -416.784)" fill="#161615"/>
      <path id="Trazado_8581" data-name="Trazado 8581" d="M182.074,428.259h.493c.664,0,1.035.412,1.035,1.136,0,.942-.529,1.363-1.061,1.395-.112.009-.374.019-.467.03Zm2.831,6.081-1.312-2.91a2.4,2.4,0,0,0,1.125-2.087,1.822,1.822,0,0,0-2.02-2.027h-1.741v7.023h1.117v-2.647h.5l1.052,2.647Z" transform="translate(-144.008 -416.733)" fill="#161615"/>
      <path id="Trazado_8582" data-name="Trazado 8582" d="M185.05,431.56c.262-.921.522-1.774.755-2.859h.017c.26,1.085.493,1.938.734,2.859Zm.43-4.243-2.254,7.025h.968l.568-1.917h1.964l.512,1.917h1.248l-2.078-7.025Z" transform="translate(-142.312 -416.733)" fill="#161615"/>
      <path id="Trazado_8583" data-name="Trazado 8583" d="M187.555,434.34h-1.117v-7.023h1.74a1.822,1.822,0,0,1,2.018,2.027,2.224,2.224,0,0,1-2.139,2.349h-.522v-.874c.056-.01.362-.021.484-.03.531-.031,1.061-.453,1.061-1.395,0-.723-.37-1.136-1.022-1.136h-.5Z" transform="translate(-139.911 -416.733)" fill="#161615"/>
      <path id="Trazado_8584" data-name="Trazado 8584" d="M193.493,434.341h-1.117v-3.38h-2.318v3.38h-1.106v-7.024h1.106v2.7h2.318v-2.679h1.117Z" transform="translate(-138.032 -416.733)" fill="#161615"/>
      <rect id="Rectángulo_3712" data-name="Rectángulo 3712" width="1.108" height="7.024" transform="translate(56.531 10.584)" fill="#161615"/>
      <path id="Trazado_8585" data-name="Trazado 8585" d="M197.508,428.643a2.245,2.245,0,0,0-1.145-.391c-1.136,0-1.964,1.012-1.964,2.607,0,1.667.912,2.651,1.992,2.651a2,2,0,0,0,1.117-.351l.308.874a2.7,2.7,0,0,1-1.471.48c-1.917,0-3.126-1.606-3.126-3.671,0-1.917,1.2-3.593,3.146-3.593a2.615,2.615,0,0,1,1.5.542Z" transform="translate(-134.843 -416.784)" fill="#161615"/>
    </g>
  </g>
</svg>
