<svg xmlns="http://www.w3.org/2000/svg" width="228.967" height="58.019" viewBox="0 0 228.967 58.019">
  <g id="sextreme" transform="translate(-838.615 -1874.563)">
    <g id="sextreme-2" data-name="sextreme" transform="translate(953.098 1903.572)">
      <g id="Grupo_5438" data-name="Grupo 5438" transform="translate(-114.484 -29.009)">
        <path id="Trazado_9195" data-name="Trazado 9195" d="M94.331,56.461,57.363,58.019l-.238-6.6L1.355,53.275,0,12.847,55.6,11l-.368-9.8L92.593,0l.433,14.094,1.089,34.784h-.007Z"/>
        <path id="Trazado_9196" data-name="Trazado 9196" d="M188.477,39.907,53.624,44.918,52.535,10.134l134.651-5Z" transform="translate(40.491 3.96)" fill="#e50019"/>
        <path id="Trazado_9197" data-name="Trazado 9197" d="M106.919,33.342l.333,8.816-6.288.23h-.007l-.359-9.681.057-.1-.042-.866h-.044l-.028-.749.037-.044-.023-.606h-.007l-.035-.021v-.007l-.028-.887h.028l-.028-.533-.023-.021-.1-2.69v-.042l-.223-4.838.188-.007.044-.051h.007l.4-.014v.051l.381-.014v-.051l1.176-.042h.007v.042l.634-.021h.007l.051-.044.476-.021h.014a.162.162,0,0,1,.087.021.066.066,0,0,1,.021.023l.749-.03h.007a.09.09,0,0,1,.03-.028.143.143,0,0,1,.078-.021l.692-.028.007.007.037.035h.007l.374-.014.066-.044.591-.021.043.037h.073v.071l.087.073v.007l.028.772h-.007l-.08.007.021.568.087-.007v.007l.1,2.7h-.007l-.087-.028.016.345v.014a.79.79,0,0,1,.092.152l.009.007.151,4.232v.007l-.1.007.007.244.108.108.044,1.162c-.023.042-.044.08-.073.122a.148.148,0,0,0-.028.042l.014.521.108-.007.042.958h-.007l-.108.007.007.188Zm6.467-14.375-.014-.3V18.65l.066-.209-.087-2.235-.058.007-.028-.974.05-.014-.021-.772h-.007l-.05-.014v-.1l-.361.014h-.007l-.143-.035-.714.028v.044l-.267.007v-.044h-.007l-.923.037V14.4l-.037.035h-.007l-.8.028h-.007v-.042l-3.6.136h-.007l-.044.051h-.007l-.533.021-.044-.042-.007-.009-2.04.08h-.007a.159.159,0,0,0-.115.058h-.007l-.216.007a.151.151,0,0,0-.122-.051l-5.457.2-.087.066h-.007l-.643.028h-.007l-.094-.057h-.085v.057l-.521.023h-.007l-.05-.058L94.621,15a.121.121,0,0,0-.073.021.073.073,0,0,0-.035.042h-.007l-1.572.058h-.007l-.066-.058v-.007l-.094.007H92.76l-.094.1.138.108v.007l.1,4.269-.073.108.021.425h.007l.058.05.007.34.4-.014.129.108,1.19-.051h.007l.439-.094.1.08.073-.007h.007l-.007-.1.462-.021h.007a.752.752,0,0,0,.381.094l6.114-.232.822-.108.641.058,2.141-.08h.009l-.009-.087,1.176-.042a.19.19,0,0,1,.021.087l4.434-.166a.125.125,0,0,0,.073-.021.079.079,0,0,0,.057-.058l.232-.007.007.073,1.1-.044h.007l.028-.071.282-.007-.007.071.251-.014-.028-.843Zm10.748,10.309v-.014l.087-.117-.122-3.237V25.9l-.087-.085h.087v-.009l-.1-.266v-.007l-.007-.021V25.5l.087-.359-.411-11.11h-.007l-.094-.087v-.087l-.087.007h-.007l-.014-.014v-.007l-1.075.044-.1-.094-.094.1-4.629.172-.085.094h-.044V14.2l-.057.064,1.016,27.308.071.066v.042h.044l.087.08,1.571-.058h.007v-.071l.188-.007v.071l1.521-.057,1.629-.058a.125.125,0,0,0,.073-.021.047.047,0,0,0,.035-.028h.007l.267-.007v.035l.6-.021.028-.035h.066v-.066l.094-.1-.448-11.967Zm28.332-.807a.676.676,0,0,0,.375-.1l.944-.03.037.037a.211.211,0,0,0,.108.035l2.566-.094.145-.05h.014l.77-.021.03.035.692-.028.078-.023.023-.007.641-.014h.014l.042.014.577-.021.007-.007.174-.007.007.007.7-.021.188-.007h.007l2.819-.073v-.166l.122.016v-.009l.08-.676-.007-.094h-.007l-.094-.094.042-.051.051-.05-.051-1.291-.122-.669h-.051v-.03l.145.021h.007l-.066-1.772h-.007l-.1.007v-.181l-.39.014-.115-.108-3.915.145-.094.1-.092-.087-.007-.007-.094.007-.108.1-.49.021h-.014l-.375-.087-1.666.058-.374.087-.094.028h-.021l-.289-.087-.31.014-.087.094h-.007v-.087h-.007l-.427.1h-.007l-.885.037h-.023l-.4-.073h-.007l-.078.087-.124.007-.1-.08-.007-.007-.087.007h-.007v.087l-.735.021h-.007a.763.763,0,0,0-.338-.073v.087l-.239.007L151.4,28.4l.483-.014v.1ZM165.14,38.33l-.007-.08v-.014l.165-.244-.007-.051V37.9l-.007-.007-.094-.087.094-.1-.05-1.277-.1.007-.058.044-.014-.4.15-.244-.028-.765-.094-.1-.1-.108h-.007l-1.268.05v.124l-1.025.028a1.389,1.389,0,0,0-.467-.1l-1.652.066.023.092-.434.016h-.007a.561.561,0,0,0-.179-.087l-.159.094-.4.007-.122-.08-3.338.122v.007l-.044.051H155.9l-.446.007v-.044l-.873.03c-.028.007-.05.014-.071.021l-.023.021h-.007l-.446.014h-.007l-.037-.028-.583.021-.021.021-1.493.044.071,1.066h-.007l.03.6h.014l.064,1.039v.007l-.035.035h-.007l.035.786h.066l.066,1.016v.057l.007.195h.007v.007l.021.333.476-.016h.007a.1.1,0,0,1,.007.044l1.275-.044.037-.042,1-.035.035.035h.007l.88-.028V40.37l.3-.007V40.4l1.369-.051.03-.028.561-.021v.021h.195l.066-.028,1-.03h.007l.014.014,1.564-.057v-.007l.188-.007v.007l1.521-.058.115-.007,2.321-.073v-.035l.166-.181-.051-1.268Zm16.147-15.262-.181.007-.115-.186a.822.822,0,0,0-.014-.131,1.226,1.226,0,0,0-.181-.418,1.418,1.418,0,0,0-.1-.143,1.1,1.1,0,0,0-.129-.152,1.44,1.44,0,0,0-.143-.151,1.77,1.77,0,0,0-.166-.159h-.021l-.5-.763v-.007a.847.847,0,0,0-.577-.88h-.007l-.476-.735.016-.023-.009-.195a10.415,10.415,0,0,0-1.42-1.953l-.007-.007-.28-.432h.057c-.367-.664-.742-1.305-1.124-1.911-.251-.4-.5-.793-.756-1.176-.131-.186-.253-.374-.382-.554-.26-.368-.512-.714-.772-1.054l-5.875.218h-.007c.028.064.073.151.129.251s.124.23.209.375q.768,1.307,3.108,4.751a14.419,14.419,0,0,0,.843,1.369,4.132,4.132,0,0,0,.282.354,1.5,1.5,0,0,0,.23.209l.225.338v.007c.007.03.014.058.021.08a.273.273,0,0,0,.035.08.146.146,0,0,0,.044.064.153.153,0,0,0,.078.058h.009l.388.606h-.071l.007.051V20.9l.512.836.31.5v.007l.1-.007a.23.23,0,0,0,.066-.014l.46.707.007.014a.854.854,0,0,0,.108.31c.021.044.044.094.073.145a8.817,8.817,0,0,0,.54.857l.08-.087.058.087h-.044a39.031,39.031,0,0,0,2.725,4.2c.512.793,1,1.549,1.441,2.256.31.469.6.915.873,1.348q1.254,1.947,2.192,3.375c.2.317.4.613.583.892.094.138.181.267.267.4s.166.26.246.375.158.237.23.347v-.016l.007.016-.375-10.006Zm13.279-1.629.722-1.4v-.092l-.159.007.31-.57.007-.014.028-.028a.237.237,0,0,0,.209-.159l.023-.051a.74.74,0,0,0,.035-.294l.051-.1h.007c.287-.094.735-.786,1.333-2.105.46-.8.871-1.521,1.225-2.157.446-.792.815-1.456,1.1-1.989.115-.209.216-.4.3-.577.1-.195.188-.359.251-.5.037-.087.073-.158.1-.223s.044-.115.058-.159v-.007l-5.882.216v.007l-.347.542q-.518.831-1.016,1.751c-.4.742-.807,1.528-1.2,2.366l-.007.007-.561,1.031-.007.007a10.8,10.8,0,0,0-1.009,1.709l.007.115v.007l-.5.908a.8.8,0,0,0-.411.749l-.5.915-.021.03a2.815,2.815,0,0,0-.57,1.038v.007l-.188.345h-.108v.007l-2.495,4.572.368,10.006.007-.009v.009c.066-.117.129-.239.2-.361l.216-.39c.3-.54.65-1.167,1.038-1.866.195-.354.4-.721.613-1.11.643-1.176,1.385-2.53,2.213-4.074.138-.259.274-.519.418-.784s.3-.542.448-.815c.282-.476.54-.915.772-1.319q.226-.4.432-.758t.367-.648a11.706,11.706,0,0,0,.838-1.673l-.124.007.058-.1h.066l.094.094v-.007c.23-.338.425-.641.583-.9.117-.181.218-.338.3-.483a2.563,2.563,0,0,0,.131-.244,1.994,1.994,0,0,0,.158-.361A.376.376,0,0,0,194.566,21.439Zm6.345,16.393-.007-.244c.094-.035.136-.087.129-.152l-.259-6.955c-.007-.08-.051-.131-.152-.152l-.007-.174a.185.185,0,0,0,.115-.071.111.111,0,0,0,.03-.087l-.317-8.551-.3-8.225h-.009v-.007l-.209.014-2.739,5.314h.073l-.087.172-.08-.071c-.216.367-.418.707-.606,1.038-.094.166-.186.317-.273.476-.26.453-.49.871-.692,1.247a17.233,17.233,0,0,0-.859,1.788,2.354,2.354,0,0,0-.1.3,1.078,1.078,0,0,0-.042.251l.014,2.927.1,2.761.094.138.007.259v.007l-.08.08h-.007l.021.446.016.441h.007l.057.014.007.411-.143.174.014.49.1.085.007.1c.007-.007.021-.007.028-.014l.007.159c-.043.042-.078.094-.122.143l.007.138.131,3.7.007,2.645.1.094.59-.028.094-.094.1.087.007.007.88-.035.361-.108h.094l.627.071,3.223-.122.2-.2-.023-.692Zm10.389-.078-.021-.636-.023-.641-.1-.4-.007-.014v-.073l.08-.087v-.1l-.087.007-.021-.547v-.007a.4.4,0,0,0,.043-.115.6.6,0,0,0,.023-.166.138.138,0,0,0,.007-.05l-.239-6.483-.115-.792-.007-.023v-.108l.066-.641-.08-2.256h-.094l-.05-1.255a.361.361,0,0,1,.094-.014l-.181-4.707a.143.143,0,0,0-.094-.145v-.007l-.007-.23h.087v-.044l-.037-1.139h-.007l-.094-.035-.007-.282.094.007-.115-3.021V13.74c-.035-.007-.066-.021-.094-.028l-.007-.174h.087v-.007h.007l-.1-2.638L210.2,10.8l-.007-.1-6.077.209v.021l-.087.1.115.678v.073l-.057.807.035,1.08h.087l.087,2.568h-.08l.014.382h.08l.014.425-.066.274.021.77h.08l.007.289H204.3l.035.981.073.064.028.822h-.066v.009l.007.136.138,3.676h.007l.042.044v.007l.021.584-.05.057.08,2.155a.2.2,0,0,0,.05.117v.007l.007.244v.007a.1.1,0,0,0-.021.028.286.286,0,0,0-.014.087l.216,5.781.021.037v.007l.03.807-.023.035v.1h.03l.021.577-.021.014.064,1.751v.007a.135.135,0,0,0,.014.058l.065,1.8v.007l-.007.007h-.007v.1h.007l.1.087.143-.152,4.816-.122.152.087.482-.014.08-.094.411-.007-.014-.427V37.84Zm1.556-11.535a1.062,1.062,0,0,0,.159-.037.3.3,0,0,0,.08-.035l.993-.028a.177.177,0,0,0,.124.057l2.552-.094.1-.035h.014l.836-.021.021.021.692-.028.007-.009h.03l.728-.021h.014l.014.007.354-.014.085-.007,4.262-.108-.058-5.032-.584.023h-.007l-.129-.131-3.922.145-.094.1-.094-.094-.1.007-.129.122H218.8l-.347.014-.5-.1-1.68.058-.476.115-.3-.087-.31.014-.094.1v-.1l-.467.115-.8.03-.483-.08-.007.007-.087.094-.1.007-.115-.094h-.1l.007.115-.7.021a.652.652,0,0,0-.382-.094v.108h-.021l.014,1.263h-.042l.066,1.549v.087l.021,2.026.266-.007v.08h.007l.577-.021A.554.554,0,0,0,212.856,26.22Zm2.69-10.713.08-.073h.115l.23.151,5.6-.209a.4.4,0,0,1,.014-.136l.174-.007v.136h.007l2.537-.094.209-.2-.172-4.707-.225-.181h-.007l-3.517.129v.023l-.289.014v-.03l-2.451.094v.03l-.375.014a.045.045,0,0,1-.007-.03l-1.277.044v.007l-.028.028h-.007l-.145.007h-.007l-.028-.028-1.65.058h-.007v.035l-.34.007-.035-.028-2.357.087-.044.035-.289.014.152,4.88.166-.007h.007l.195.166,3.632-.129Zm10.049,20.849-.087-.124-.007-.359.073-.122v-.007l-.007-.087-.08-.073v-.042l.073-.073-.044-1.277h-.007l-.064.007-.016-.5.066-.1-.028-.77h-.007l-.058-.058v-.057h-.05l-.087-.087-1.27.042h-.007l.007.08-1.153.035h-.007a.933.933,0,0,0-.331-.057l-1.659.057v.007c0,.016.007.03.007.044l-.5.014h-.007a.106.106,0,0,0-.05-.021.379.379,0,0,0-.051-.021l-.087.05-.533.014h-.007l-.05-.035-3.331.122-.007.007-.5.014v-.007l-.42.014-.143.007-2.9.08.073,1.11-.1.007.021.6.115-.007.066.96-.136.122.028.793.166-.007.035.561-.08.115.021.6.11.087.014.2.374-.014a.18.18,0,0,1,.023.094l1.268-.051.08-.087.915-.028.087.08.887-.035v-.073l.28-.007.007.073,1.371-.051.066-.073.519-.014a.111.111,0,0,1,.014.066l.195-.007.143-.066h.007l.852-.028.071.05,1.565-.057v-.044l.188-.007v.044h.007l3.929-.145.021-.028h.087v-.087l.08-.08ZM14.816,44.314a.573.573,0,0,0-.143-.122v-.007l-.023-1.031.007-.066-.007-.2a.09.09,0,0,0-.007-.042l-.021-.707.007-.007a.05.05,0,0,0-.007-.03l-.007-.547a.23.23,0,0,0,.181-.1.145.145,0,0,0,.021-.08l.007-.014-.021-.88a.179.179,0,0,0-.058-.122l-.05-.05a1.135,1.135,0,0,0-.563-.138l-.648.016v.007h-.007l.007.151c-.073,0-.145-.007-.216-.014V40.1h-.014a8.588,8.588,0,0,1-2.589-.96c-.159-.087-.324-.172-.5-.266l-.007-.087h-.007c-.1-.108-.2-.216-.3-.333a6.1,6.1,0,0,1-.822-1.376,3.424,3.424,0,0,0-.087-.65.6.6,0,0,0-.159-.3l-.042-.042a.328.328,0,0,0-.2-.066v-.115l.209-.345v-.108H8.739l-.108-.087-.758.115-1.953.066a.25.25,0,0,0-.209.115.5.5,0,0,0-.05.108l-.159.014v-.115H5.495l-1.521.05H3.967l-.606.239-.08.007H3.274l-.591-.087-.338.014H2.338l-.1.108-.087-.1H2.021l-.166.181H1.847v.007l-.044.042a4.294,4.294,0,0,0,.166,1.133v.007a12.346,12.346,0,0,0,.282,1.355l.08.432c.085.267.179.521.287.772a9.3,9.3,0,0,0,1.126,2.026,8.519,8.519,0,0,0,2.141,2.061h.108a8.114,8.114,0,0,0,.779.469c-.009.021-.009.044-.016.066a10.289,10.289,0,0,0,4.29,1.362l.115-.028h.007c.136.021.274.042.411.057v.066h.007l.338.1h.009l-.009-.108.016-.014.519.042v.066h.014l.331.1h.108v-.007l-.007-.136a11.261,11.261,0,0,0,1.176.014.19.19,0,0,1,.021.087l.519-.023h.021l.216-.23L14.7,45.6l-.007-.237a.3.3,0,0,0,.223-.122.171.171,0,0,0,.028-.1l-.014-.65A1.212,1.212,0,0,0,14.816,44.314Zm.418-25.837.014.129-.094.65.016.223a7.422,7.422,0,0,1,3.409,1.082,1.931,1.931,0,0,1,.274.23,2.913,2.913,0,0,1,.244.274l.007.007a5.378,5.378,0,0,1,.73,1.448,4.872,4.872,0,0,1,.165.54c.08.289.145.591.209.923h.007l3.035-.418v.115l3.664-.575h.007l-.014-.3V22.8c-.009-.044-.023-.087-.03-.124a27.368,27.368,0,0,0-.742-2.746c-.028-.1-.066-.195-.094-.28-.223-.606-.418-.946-.584-1.025a.163.163,0,0,0-.08-.021.329.329,0,0,0-.028-.129,6.881,6.881,0,0,0-1.8-2.213A13.711,13.711,0,0,0,15.1,13.827h-.007v.108l-.108.122.122,3.476Zm10.966,12a.938.938,0,0,0-.145-.145,1.026,1.026,0,0,0-.2-.115h-.021c-.066-.073-.129-.143-.2-.216h.014v-.087l-.007-.007-.446-.345-.016-.016a8.287,8.287,0,0,0-1.1-.857c-.009-.007-.023-.021-.037-.021l-.418-.333c-.209-.1-.425-.2-.671-.3-.23-.1-.482-.2-.749-.3s-.57-.193-.873-.287-.62-.188-.958-.282c-1.348-.375-2.97-.728-4.859-1.075H15.5l-.4.34-.014-.209.087-.117h-.009l-.085-.094c-.7-.092-1.335-.209-1.9-.331h-.007c-.375-.087-.728-.181-1.047-.282h-.007a8.4,8.4,0,0,1-.864-.324,4.052,4.052,0,0,1-1.24-.786,1.785,1.785,0,0,1-.584-1.247l-.021-.648.071-.549a.929.929,0,0,1,.023-.2,2.019,2.019,0,0,1,.078-.195,2.26,2.26,0,0,1,.289-.439,7.19,7.19,0,0,1,.937-.88h.007a5.647,5.647,0,0,1,.657-.3h.007v.007c.432-.05.807-.094,1.131-.143a4.454,4.454,0,0,0,1.434-.331.086.086,0,0,0,.044-.066l-.181-5.312-.108-.11-1.953.174q-5.041.866-7.4,3.309a6.6,6.6,0,0,0-.967,1.232c-.066.108-.129.223-.195.338a8.332,8.332,0,0,0-.923,4.347l.007.434a8.172,8.172,0,0,0,.915,3.662,7.046,7.046,0,0,0,.65,1.009,6.948,6.948,0,0,0,.526.613q2.553,2.659,8.2,3.418l.359-.014.094.021c.051.172.751.359,2.077.554H15.2l-.007-.108c.944.2,1.824.4,2.371.54a3.557,3.557,0,0,0,.6.239l.108-.037a5.688,5.688,0,0,1,1.81.938H20.02l.009.108.007.007.784.951.007.007a2.1,2.1,0,0,1,.073.542l-.05-.007h-.007a4.545,4.545,0,0,1-.066.965,3.484,3.484,0,0,1-1.73,2.373,1.467,1.467,0,0,0-.267-.016l-.411.347-.007.007c-.108.035-.216.073-.331.115V39.83a3.729,3.729,0,0,0-.441.042,1.109,1.109,0,0,0-.216.044.817.817,0,0,0-.251.108c-.007.007-.007,0-.007,0a.3.3,0,0,0-.138.181c-.094.014-.186.035-.287.05h-.009l-.28-.05a1.694,1.694,0,0,0-.26.071.4.4,0,0,0-.129.066h-.007c-.03,0-.066.007-.1.007v.094l-.021.044a.106.106,0,0,0-.016.071l.023.65H15.9l.028.028.007.512h-.021l.021.648h.014l.007.39V42.8a.1.1,0,0,0-.007.044l.014.54.007.007.058,2.6a15.934,15.934,0,0,0,2.1-.2.312.312,0,0,0,.071-.014c.023,0,.051-.007.08-.007a8.5,8.5,0,0,0,1.486-.3.814.814,0,0,0,.158-.058l.023-.007a14.614,14.614,0,0,0,1.96-.662c.073-.016.143-.037.216-.058A7.769,7.769,0,0,0,24.332,43.4a.124.124,0,0,0,.035-.028.456.456,0,0,0,.051-.035,5.407,5.407,0,0,0,.453-.368c.138-.115.274-.237.4-.368l.03.023a1.293,1.293,0,0,0,.259-.209,1.008,1.008,0,0,0,.289-.434,3.309,3.309,0,0,0,.289-.352h.007a4.256,4.256,0,0,0,.8-1.312l.007-.014c.066-.124.115-.246.166-.368a1.388,1.388,0,0,0,.266-.671c.058-.172.108-.338.166-.5,0-.014,0-.021.007-.028a8.731,8.731,0,0,0-1.232-7.9A.665.665,0,0,0,26.2,30.474ZM39.868,44.494l-.051-1.486-.087-.359-.007-.028-.007-.2.08-.08v-.108h-.087l-.021-.685v-.007a.8.8,0,0,0,.073-.347l-.253-7.526-.143-1.009.085-.815-.092-2.617-.131.007-.057-1.456V27.77a.425.425,0,0,1,.136-.028h.007l-.188-5.464a.344.344,0,0,0-.028-.094.174.174,0,0,0-.058-.073.148.148,0,0,0-.078-.028l-.016-.253.159-.007h.007l-.042-1.369h-.007l-.166-.058v-.007l-.014-.31.165.021h.009l-.117-3.41-.007-.108v-.007a.441.441,0,0,0-.094-.028c-.035-.014-.064-.028-.085-.035l-.009-.174.181-.007h.007l-.1-3.072h-.007l-.23-.216-3.878.131h-.007l.007.1-.83.028-.064-.094-.007-.007a.939.939,0,0,0-.324.115l-.253.007v-.1h-.007l-1.587.051h-.007l-.108.115.08.446v.007l.028.815v.037l-.043.519v.035l.035,1.211H31.7l.1,2.985h-.073l.014.446h.007V19.9h.066l.014.547v.023l-.057.23.028.9h.073l.007.331h-.066l.035,1.146h.007l.066.066.035.967h-.071l.143,4.441h.007l.073.071v.007l.021.65v.007l-.064.073h-.009l.087,2.507a.211.211,0,0,0,.03.1.336.336,0,0,0,.05.066l.007.237a.205.205,0,0,0-.064.159l.223,6.725.08.124.028.792-.073.117V40.3h.08l.021.62v.007l-.073.066h-.007l.073,2.04a.153.153,0,0,0,.08.136v.007l.073,1.953v.007l-.073.073h-.007v.108H32.6l.108.108.209-.216,5.464-.136h.007l.267.158.561-.014.152-.165.446-.016-.014-.467V44.56ZM41.591,31.1H41.6a.613.613,0,0,0,.467-.159h.007l1.025-.028a.124.124,0,0,1,.028.035.255.255,0,0,0,.181.094l2.977-.094.39-.129h.014L47.3,30.8h.007l.1.1.807-.021.324-.117h.007l.232-.007H48.8l.331.087.664-.021H49.8l.071-.094h.08l.073.087h.007l.807-.021.058-.087h.007l.078-.007.073.08v.007l1.371-.051.418-.08.014-.007.368-.007v.066h.007l.223-.007.05-.066h.007l.845-.021v-.094l.122.014.094-.786-.007-.115-.115-.108.108-.115-.051-1.507-.136-.777h-.051V27.1a1.343,1.343,0,0,0,.159.03v-.073l-.066-1.99h-.007v-.007H54.3v-.267l-.526.023h-.007l-.058-.066-4.549.151h-.007l-.064.073h-.007l-.073.007H49l-.073-.071h-.115l-.073.078h-.007l-.77.03h-.007l-.282-.066-1.946.066-.382.085h-.014l-.267.016h-.014l-.223-.073-.361.014-.073.08h-.035l-.007-.073v-.007l-.39.094h-.014l-1.211.042-.418-.064h-.007l-.073.08h-.007l-.174.007-.1-.073-.007-.007-.1.007h-.007v.08l-.887.035h-.007A.423.423,0,0,0,40.8,25.2a.236.236,0,0,0-.1-.007.289.289,0,0,0-.108-.014v.007l.007.225H40.6l.05.042v.007l.007.122-.057.051L40.61,26h.007l.042.044.009.742a.032.032,0,0,0-.023-.007l-.108.007h-.007l.08,2.4h.007l.08.08v.064l-.08.08.042,1.371h.058v.2l.195-.009.007.152h.007v.007Zm3.143-12.335.179-.136.016-.009.273-.007.2.131,6.5-.216a.815.815,0,0,1,.007-.138l.209-.007.007.122v.014l2.472-.085-.223-5.92v-.007l-3.6.122.009.094-.333.014-.007-.094-2.847.094v.108l-.425.016-.021-.11-1.479.051-.129.115-.115-.108h-.007l-1.934.066v.129l-.3.014h-.007l-.129-.129-2.732.094-.158.151H40.12v.037l-.042.042.014.469v.007h.042l.014.331h-.042l.115,3.526.044.035v.166l-.037.042.028.894.044.035v.058h.066l.143.122.007.007,4.211-.143Zm24.576-.338-.166.007.143-.361h.007l.159-.007,2.9-7.014L68.761,3.64l-11.513.427,9.725,20.048Zm9.652,9.544a1.149,1.149,0,0,1,.251-.044h.009l-.016-.317H79.2c-.043.021-.078.037-.115.058l.181-.462.31.073-.007-.159.216-.165-.425.014,9.53-24.078-11.513.425-18.4,46.478,11.513-.427V49.36H70.5l8.464-21.382Zm1.758,1.045a.551.551,0,0,0,.058.028l-.073.174-.064-.007h-.009l-.5,1.263.057.021-.064.165-.044-.028H80.08l-3.093,7.664a.46.46,0,0,0,.051.05l-.115.289a.163.163,0,0,0-.044-.035l-.007-.007-1.312,3.294,3.483,7.166h.007l11.506-.432L80.866,28.627Zm-25.3,13.272v-.035l-.028-.887v-.007l-.007-.223v-.007l-.007-.23-.066-2.228-.669.021H54.64l-1.406.035h-.007l-2.235.073-.606.014h-.009l-.143.007H50.22l-.657.014h-.007l-3.943.115h-.007l-.561.023L43.969,39l-.613.021H43.35l-.678.014h-.007l-1.643.051.08,1.261.035.685.073,1.117v.007l.064,1.052.037.65v.007l.057.915v.007l.016.244.432-.014h.007l1.594-.05v-.007h.014l1.045-.03,1.124-.042h.007l.333-.007,1.693-.058.584-.021h.007l.483-.014h.007l.85-.028,1.955-.066h.007l.216-.007L55.5,44.56l-.057-1.81ZM141.191,40.7V40.7l.174-.174a7.918,7.918,0,0,0-.5-.742c-.037-.051-.073-.087-.1-.124a.666.666,0,0,0-.087-.087.393.393,0,0,0-.138-.1l-.092.009c-.037-.094-.08-.188-.124-.3l.108-.117a2.91,2.91,0,0,0-.094-.317,3.794,3.794,0,0,0-.331-.836.607.607,0,0,0-.08-.1c-.035-.05-.071-.073-.1-.073l-.007-.007c-.035-.136-.078-.28-.115-.432.044-.021.094-.042.152-.066h.007l-.692-3.019h-.1L139,33.8s-.014-.216-.071-.568h.007a5.228,5.228,0,0,0-.535-2.054l-.021-.023-.007-.007-.007-.007a2.488,2.488,0,0,0-.1-.251l.08-.1-.007-.007c-.152-.289-.3-.556-.455-.8-.108-.166-.209-.324-.317-.469a5.53,5.53,0,0,0-.591-.714,2.247,2.247,0,0,0-.195-.195,2.353,2.353,0,0,0-1.693-.728l-.007-.094a2.678,2.678,0,0,0,.273-.073c.08-.021.159-.05.232-.071s.136-.051.2-.08a1.03,1.03,0,0,0,.287-.188.5.5,0,0,0,.1-.122v-.007c.058-.03.108-.058.174-.094l.087.078a5.859,5.859,0,0,0,2.645-3.049l.042-.108a3.665,3.665,0,0,0,.246-.843.064.064,0,0,1,.007-.035,9.264,9.264,0,0,0,.181-2.279c-.007-.166-.014-.331-.03-.49s-.028-.317-.05-.475a8.441,8.441,0,0,0-.274-1.328,6.308,6.308,0,0,0-.374-.986,5.74,5.74,0,0,0-.5-.887,5.359,5.359,0,0,0-.779-.93,6.391,6.391,0,0,0-.967-.786l-.482.021c-.037-.908-2.026-1.4-5.962-1.456l-5.307.195h-.007l-.087.1-.094.1.181,4.815v.007l.2.181,3.049-.108a9.4,9.4,0,0,1,2.429.073.041.041,0,0,1,.023.028h.007a2.512,2.512,0,0,1,1.96.685,2.341,2.341,0,0,1,.31.39,3.012,3.012,0,0,1,.253.475c.035.087.071.174.108.267a4.7,4.7,0,0,1,.165.606c.021.108.044.216.058.331l.035.786a2.865,2.865,0,0,1-1.751,2.847,1.18,1.18,0,0,1-.166.073,7.863,7.863,0,0,1-.815.3c-.158.042-.324.094-.5.129a12.772,12.772,0,0,1-2.437.3l-2.451.094h-.007l-.087.1-.094.1H125.1l.05,1.247.044,1.2.007.007.094.087.073-.028v.165a.192.192,0,0,0-.145.117.09.09,0,0,0-.007.042v.014l-.007.007.073,1.788v.066l.143.136v.08a.5.5,0,0,1,.058-.014l.28-.016h.016l1.665-.172h.007V31.15a3.263,3.263,0,0,1,.375-.014v.044c.209-.009.411-.016.606-.016.174,0,.331,0,.49.007.108,0,.209.009.3.016.158.007.31.021.46.035a.824.824,0,0,1,.131.014,4.665,4.665,0,0,1,1.686.57.258.258,0,0,1,.058.035l.007.007c.087.066.165.129.244.2a3.159,3.159,0,0,1,.721,1.023c.037.094.073.195.108.3.124.65.246,1.232.354,1.76q.215,1.049.39,1.773c.251,1.089.432,1.636.533,1.636l-.087.3a11.842,11.842,0,0,0,1,2.084.666.666,0,0,0,.122.143.338.338,0,0,0,.087.066l.007.007h.007a.1.1,0,0,0,.044.007l1.564-.058c.014,0,.028,0,.035-.014l.838-.028.014.014,1.672-.064h.007v-.016l.188-.007v.014l1.565-.057.021-.021.4-.014A.961.961,0,0,1,141.191,40.7Zm9.783-1.99-.023-.577-.035-.958-.244-6.5-.058-1.507v-.007l.007-.044-.087-2.263h-.007l-.05-1.27h.007l-.174-4.7v-.021a.1.1,0,0,0-.014-.051V20.8l-.007-.3h.007l-.044-1.176-.014-.007-.007-.3h.007l-.108-3.028-.014-.007-.007-.2h.014l-.1-2.645-.014-.014L150,12.984l-.129.007-.051-.051-3.331.124h-.007v.042l-.742.021-.021-.028-.007-.007c-.03.007-.058.014-.08.021s-.058.014-.08.021h-.028l-.31.014v-.035l-1.363.051h-.007l-.094.1.122.692-.064.873.042,1.075h.174l.058,1.817-.066.05a.662.662,0,0,0,.08.3l.014.39-.159.007h-.007l.014.382v.007l.166-.007v.094l-.143.606.028.77h.007l.151-.007.016.289-.159.007.035.981V21.6l.159.136v.007l.021.728-.143.009.136,3.819.143.138v.007l.016.411-.131.136.08,2.164a.163.163,0,0,0,.136.158v.152a.151.151,0,0,0-.1.078.23.23,0,0,0-.014.073.026.026,0,0,0-.007.021l.216,5.781.117.174.021.556v.007l-.1.151v.1h.007l.1-.007.014.512v.007l-.094.087h-.007l.066,1.751a.108.108,0,0,0,.028.08.147.147,0,0,0,.073.058l.057,1.636v.007l-.087.087.007.1.094.094h.007l.094-.108h.007l4.917-.131.087.051.476-.021h.007l.035-.044.547-.014-.071-1.831Zm.367-20.856h.007l.145.122,3.634-.136.165-.122h.007l.218-.009h.007l.179.11,5.6-.2a.5.5,0,0,1,.007-.11h.172l.009.094,2.545-.085.209-.2-.181-4.708-.216-.188-3.533.129.007.073-.289.014v-.071h-.007l-2.451.085.007.08-.375.014c-.007-.028-.007-.05-.014-.078l-1.268.05-.094.08h-.044l-.08-.073-1.657.058v.08l-.31.014-.08-.073-2.343.087-.087.08h-.007l-.338.014.151,4.88Zm23.581,15.7-.317-7.943h-.08l-.007-.188h.08l-.021-.692-.007-.007-.1-.267v-.007l-.028-.5v-.007h.007a.09.09,0,0,0-.007-.042v-.007a.726.726,0,0,0-.03-.181.556.556,0,0,0-.359-.418l-.556-.859a1.06,1.06,0,0,0-.237-.57.567.567,0,0,0-.108-.108.694.694,0,0,0-.122-.108.525.525,0,0,0-.087-.064l-.239-.361.073-.057h.007l-.31-.375h-.042l-.678-1.031v-.007a.177.177,0,0,1,.087-.023l-3.547-5.565-.195.007.251,6.87.058-.007.028,1.082h-.042v.007l.014.476.007.007.043.035v.108l-.035.044h-.007l.035.885.037.037.035,1.066a.339.339,0,0,0-.028.073l.172,4.622.016.4.3,9.927h.108l.057.05.2-.057.03-.007.345-.007h.014l.2.042,5.032-.188.188-.007h.064l-.3-5.882Z" transform="translate(1.39 2.228)" fill="#fff"/>
      </g>
    </g>
  </g>
</svg>
