<svg xmlns="http://www.w3.org/2000/svg" width="86" height="38" viewBox="0 0 86 38">
  <g id="space" transform="translate(-0.293 -0.109)">
    <rect id="Rectángulo_3581" data-name="Rectángulo 3581" width="86" height="38" transform="translate(0.293 0.109)" fill="none"/>
    <g id="_266_space_color" data-name="266 space color" transform="translate(11.41 7.96)">
      <g id="Grupo_4807" data-name="Grupo 4807" transform="translate(0)">
        <g id="Grupo_4806" data-name="Grupo 4806">
          <path id="Trazado_7537" data-name="Trazado 7537" d="M147.33,504.657a2.611,2.611,0,1,0,2.633,2.612,2.623,2.623,0,0,0-2.633-2.612m0-9.245a11.531,11.531,0,1,0,11.532,11.532,11.53,11.53,0,0,0-11.532-11.532m0,17.8a5.933,5.933,0,0,1-2.538-11.321v-1.282a2.539,2.539,0,0,1,5.077,0l-.043,1.261a5.933,5.933,0,0,1-2.5,11.341" transform="translate(-135.8 -495.412)" fill="#100f0c"/>
          <path id="Trazado_7538" data-name="Trazado 7538" d="M161.608,502.013a3.031,3.031,0,0,0-3.2-2.987h-2.693v8.624h1.875v-2.656h.818a3.028,3.028,0,0,0,3.2-2.981m-3.42,1.284h-.6v-2.575h.6c1.543,0,1.543.974,1.543,1.29s0,1.284-1.543,1.284m-5.57-.727-1.146-.371c-1.025-.327-1.025-.661-1.025-.822,0-.249.118-.822,1.2-.822a3.806,3.806,0,0,1,2.544.976,9.238,9.238,0,0,1,.816-1.409,4.406,4.406,0,0,0-3.347-1.305c-1.875,0-3.236,1.09-3.236,2.591,0,1.191.76,2.026,2.32,2.546l1.158.387c.74.249,1.114.539,1.114.855,0,.445-.557.793-1.272.793-1.164,0-1.384-.532-1.442-1.056h-2.026l0,.089c.157,1.695,1.431,2.705,3.406,2.705s3.354-1.077,3.354-2.61c0-1.181-.814-2.038-2.422-2.548m33.258,3.886-.249.489-.246-.489h-.265v1.1h.267v-.526l.157.271h.176l.153-.271v.526h.273v-1.1h-.267m-8.82,1.193h5.784v-1.759h-3.82v-1.715h3.82v-1.757h-3.82v-1.637h3.82v-1.757h-5.784v8.624m-13.025-8.624-2.767,6.432-.874,2.036-.066.155h2.053s.59-1.433.746-1.817H166.4l.748,1.817h2.047l-3.706-8.624H164.03m-.209,5.115c.238-.592.588-1.444.94-2.3.348.858.7,1.709.938,2.3H163.82m20.323,2.558h.271v.86h.267v-.86h.275v-.242h-.814v.242m-13.616-3.64a2.6,2.6,0,0,1,.781-1.576l.077-.07a.774.774,0,0,1,.077-.064,3.012,3.012,0,0,1,1.375-.64l.029,0c.07-.012.143-.021.215-.029q.134-.012.273-.012h.066l.232.014a2.889,2.889,0,0,1,1.554.682l.3.257,1.284-1.328-.333-.288a4.9,4.9,0,0,0-3.1-1.1,4.565,4.565,0,0,0-4.785,4.433v0a4.565,4.565,0,0,0,4.785,4.431,4.9,4.9,0,0,0,3.1-1.1l.333-.288-1.284-1.328-.3.257a2.855,2.855,0,0,1-1.554.679c-.081.006-.157.014-.232.014l-.066,0a2.375,2.375,0,0,1-.273-.012c-.072-.006-.145-.017-.215-.027l-.029-.008a3.047,3.047,0,0,1-1.375-.636c-.027-.025-.054-.043-.077-.068s-.052-.048-.077-.068a2.6,2.6,0,0,1-.781-1.576,2.017,2.017,0,0,1-.015-.253l0-.027,0-.021a2.051,2.051,0,0,1,.015-.255" transform="translate(-122.432 -491.764)" fill="#100f0c"/>
        </g>
      </g>
    </g>
  </g>
</svg>
