<svg xmlns="http://www.w3.org/2000/svg" width="29.029" height="36.223" viewBox="0 0 29.029 36.223">
  <g id="Grupo_5981" data-name="Grupo 5981" transform="translate(-307.214 -249.916)">
    <path id="Trazado_1" data-name="Trazado 1" d="M325.446,259.532h2.688a1.342,1.342,0,0,1,1.351.749l2.777,4.323h.1v-5.072h11a13.716,13.716,0,0,0-26.178,0Z" transform="translate(-9.345 0)" fill="#fd3823"/>
    <path id="Trazado_2" data-name="Trazado 2" d="M331.466,435.788v8.1h-2.731v-8.1h-3.123v8.1h-1.823a1.355,1.355,0,0,1-1.351-.749l-3.534-5.29h-.057v6.04h-2.654v-8.1h-3.112v8.1H310.3v-8.1h-2.929a13.712,13.712,0,1,0,27.1,0Z" transform="translate(0 -174.263)" fill="#fd3823"/>
    <path id="Trazado_3" data-name="Trazado 3" d="M750.873,743.478v.128h-.179v.643h-.161v-.643h-.179v-.128Z" transform="translate(-415.462 -462.735)" fill="#fd3823"/>
    <path id="Trazado_4" data-name="Trazado 4" d="M760.078,743.478l.121.524h0l.128-.524h.251v.771h-.157v-.595h0l-.148.595h-.154l-.141-.595h0v.595h-.157v-.771Z" transform="translate(-424.336 -462.735)" fill="#fd3823"/>
    <path id="Trazado_5" data-name="Trazado 5" d="M311.061,749.374v-5.269h1.489l1.4,3.649h.015v-3.649h1.029v5.269h-1.452l-1.438-3.853h-.015v3.853Z" transform="translate(-3.607 -463.323)" fill="#fd3823"/>
    <path id="Trazado_6" data-name="Trazado 6" d="M385.726,745.424c0-1.394,0-2.722,1.817-2.722s1.817,1.328,1.817,2.722,0,2.722-1.817,2.722-1.817-1.343-1.817-2.722m2.518,0c0-1.35-.08-1.934-.7-1.934s-.7.584-.7,1.934.08,1.934.7,1.934.7-.584.7-1.934" transform="translate(-73.608 -462.008)" fill="#fd3823"/>
    <path id="Trazado_7" data-name="Trazado 7" d="M448.822,744.105h1.146l.817,3.831h.015l.919-3.831h1.087l-1.394,5.269h-1.292Z" transform="translate(-132.763 -463.324)" fill="#fd3823"/>
    <path id="Trazado_8" data-name="Trazado 8" d="M518.228,749.374v-5.269H521.1v.81H519.33v1.3h1.635v.81H519.33v1.54h1.832v.81Z" transform="translate(-197.835 -463.323)" fill="#fd3823"/>
    <path id="Trazado_9" data-name="Trazado 9" d="M574.432,749.374v-5.269h1.1V748.5h1.649v.876Z" transform="translate(-250.528 -463.323)" fill="#fd3823"/>
    <path id="Trazado_10" data-name="Trazado 10" d="M615.676,749.376l1.46-5.269h1.452l1.43,5.269h-1.16l-.292-1.168h-1.5l-.3,1.168Zm2.124-4.255h-.015l-.5,2.277h1.051Z" transform="translate(-289.196 -463.325)" fill="#fd3823"/>
    <path id="Trazado_11" data-name="Trazado 11" d="M687.816,748.148c-1.365,0-1.62-.8-1.562-1.715h1.1c0,.5.022.927.628.927a.527.527,0,0,0,.555-.6c0-.949-2.219-1.007-2.219-2.576,0-.825.394-1.482,1.737-1.482,1.073,0,1.605.482,1.533,1.584h-1.073c0-.394-.066-.8-.511-.8a.513.513,0,0,0-.569.562c0,1,2.218.912,2.218,2.569,0,1.365-1,1.525-1.839,1.525" transform="translate(-355.359 -462.01)" fill="#fd3823"/>
  </g>
</svg>
