<svg xmlns="http://www.w3.org/2000/svg" xmlns:xlink="http://www.w3.org/1999/xlink" width="138" height="110" viewBox="0 0 138 110"><defs><style>.a{fill:url(#a);}.b{fill:#1e9cdb;}.c{filter:url(#b);}</style><linearGradient id="a" x1="0.5" y1="0.31" x2="0.5" y2="1" gradientUnits="objectBoundingBox"><stop offset="0" stop-color="#fff"/><stop offset="1" stop-color="#bfbfbf"/></linearGradient><filter id="b" x="0" y="0" width="138" height="110" filterUnits="userSpaceOnUse"><feOffset dy="3" input="SourceAlpha"/><feGaussianBlur stdDeviation="4" result="c"/><feFlood flood-opacity="0.424"/><feComposite operator="in" in2="c"/><feComposite in="SourceGraphic"/></filter></defs><g transform="translate(-650 -1051)"><g transform="translate(662 1060)"><g class="c" transform="matrix(1, 0, 0, 1, -12, -9)"><rect class="a" width="114" height="86" rx="5" transform="translate(12 9)"/></g></g><g transform="translate(470.544 577.612)"><path class="b" d="M266.358,510.309h-49.9v22.535l8.558,8.558H274.2V518.15Zm-34.14,16.146h-4.471v10.437l-6.1-6.1V514.766h6.1v5.586h4.471Zm11.95,10.993a8.921,8.921,0,0,1-5.255-1.7v1.145h-5.172V514.766h5.869v5.972a8.977,8.977,0,1,1,4.557,16.71m25.521-6.32c0,3.576-2.944,5.764-7.515,5.764h-4.24l-4.493-4.5h8.3c1.02,0,1.46-.267,1.46-.728v-.05c0-.486-.537-.753-2.361-1.118-3.817-.779-7.173-1.874-7.173-5.472v-.05c0-3.233,2.53-5.738,7.223-5.738h3.228l4.465,4.5h-7.19c-.851,0-1.24.292-1.24.706v.047c0,.461.462.753,2.26,1.1,4.354.8,7.273,2.066,7.273,5.5Z" transform="translate(0 0)"/><path class="b" d="M228.419,515.72a3.118,3.118,0,1,0,3.117,3.117,3.117,3.117,0,0,0-3.117-3.117" transform="translate(15.749 9.633)"/><path class="b" d="M238.8,521.051h-.714v-.368h1.83v.368H239.2v1.887h-.4Z" transform="translate(38.513 18.47)"/><path class="b" d="M238.9,520.683h.42l.685,1.064.688-1.064h.42v2.254h-.394V521.32L240,522.382h-.012l-.7-1.052v1.608H238.9Z" transform="translate(39.953 18.47)"/></g></g></svg>