<svg xmlns="http://www.w3.org/2000/svg" width="94" height="94" viewBox="0 0 94 94"><defs><style>.a{fill:#fff;stroke:#b1b1b1;stroke-width:0.5px;}.b{fill:#004796;}.c{fill:#c90000;fill-rule:evenodd;}.d{stroke:none;}.e{fill:none;}</style></defs><g transform="translate(0.049 0.182)"><g class="a" transform="translate(-0.049 -0.182)"><rect class="d" width="94" height="94"/><rect class="e" x="0.25" y="0.25" width="93.5" height="93.5"/></g><g transform="translate(6.437 35.564)"><g transform="translate(80.022 21.904)"><path class="b" d="M592.964,205.724a.965.965,0,1,1-.956-.939A.946.946,0,0,1,592.964,205.724Zm-1.689,0a.731.731,0,0,0,.733.75.719.719,0,0,0,.716-.744.725.725,0,1,0-1.448-.006Zm.578.487h-.217v-.939a2.538,2.538,0,0,1,.36-.029.5.5,0,0,1,.321.074.236.236,0,0,1,.1.2.242.242,0,0,1-.195.223v.012c.092.029.137.1.166.229a.832.832,0,0,0,.069.229h-.229a.737.737,0,0,1-.074-.229c-.017-.1-.075-.143-.195-.143h-.1Zm.006-.527h.1c.12,0,.217-.04.217-.137s-.063-.143-.2-.143a.523.523,0,0,0-.12.011Z" transform="translate(-591.035 -204.785)"/></g><g transform="translate(0 9.14)"><path class="c" d="M140.678,120.437h2.184l-.293,1.3a4.823,4.823,0,0,1,1.4-1.167,3.377,3.377,0,0,1,1.514-.323c3.141,0,1.334,2.381-.963,2.381a1.966,1.966,0,0,0-1.352.5,4.994,4.994,0,0,0-1.215,2.621l-.347,1.532c-.126.736-.724,1.119-1.783,1.149h-2.555l1.543-6.881c.2-.766.832-1.137,1.867-1.113m-7.079,2.017a1.836,1.836,0,0,0-1.268-.383,2.548,2.548,0,0,0-1.675.581,2.33,2.33,0,0,0-.712,1.077c1.2,0,5.092.156,3.655-1.274m-4,2.74c2.579.1,9.106.245,8.113-2.913a2.755,2.755,0,0,0-1.669-1.508,9.209,9.209,0,0,0-3.476-.521,8.657,8.657,0,0,0-4.661,1.161,4.746,4.746,0,0,0-2.268,3.033,3.046,3.046,0,0,0,.275,2.292,3.544,3.544,0,0,0,1.681,1.424c1.986.9,6.079.545,8.628-.107l.508-2.25c-.545.616-5.684,1.8-6.851.491a1.456,1.456,0,0,1-.281-1.1m-12.062-.736a1.489,1.489,0,0,0,.209,1.406,1.6,1.6,0,0,0,1.233.461,2.07,2.07,0,0,0,1.287-.443,2.485,2.485,0,0,0,.82-1.5,1.57,1.57,0,0,0-.186-1.424,1.388,1.388,0,0,0-1.113-.455,2.291,2.291,0,0,0-1.4.455,2.437,2.437,0,0,0-.85,1.5m-5.654,7.018L114.1,121.6c.162-.778.742-1.173,1.735-1.167h2.334l-.269,1.179a6.506,6.506,0,0,1,1.675-1.005,5.848,5.848,0,0,1,2.046-.359,3.471,3.471,0,0,1,3.016,1.233,3.6,3.6,0,0,1,.485,3.033,4.848,4.848,0,0,1-1.957,3.046,5.843,5.843,0,0,1-3.434,1.047,5.217,5.217,0,0,1-1.663-.239,3.272,3.272,0,0,1-1.221-.718l-.508,2.274a2.1,2.1,0,0,1-2.064,1.55Zm-.233-3.045,1.795-7.994H110.66c-.855-.054-1.346.245-1.478.9l-.658,2.944a2.53,2.53,0,0,1-.808,1.514,2.044,2.044,0,0,1-1.28.419,1.28,1.28,0,0,1-.969-.317,1.154,1.154,0,0,1-.126-1.065l.987-4.4h-2.6a1.486,1.486,0,0,0-1.723,1.053l-.9,4.033a2.361,2.361,0,0,0,.425,2.333,3.462,3.462,0,0,0,2.465.754,6.441,6.441,0,0,0,2.2-.341,7.3,7.3,0,0,0,1.962-1.131q.5,1.525,3.5,1.293m-22.7-11.039h2.1l-1.873,8.251-.921.1a2.7,2.7,0,0,0,.52,1.741l-.2.951H85.327a.828.828,0,0,1-.646-.8l2.016-9c.179-.85.933-1.263,2.256-1.245m-8.514,7.246c-.6.15-1.209.281-1.837.4a5.828,5.828,0,0,0-1.675.485.951.951,0,0,0-.473.568.564.564,0,0,0,.2.592,1.528,1.528,0,0,0,.934.227,3.725,3.725,0,0,0,1.322-.245,2.524,2.524,0,0,0,.963-.61,2.013,2.013,0,0,0,.449-.927Zm-3.165-1.616a1.97,1.97,0,0,1,.79-.706,4.077,4.077,0,0,1,1.55-.24,1.683,1.683,0,0,1,1.041.228.771.771,0,0,1,.125.79c-.532.15-1.041.269-1.514.365s-1.5.251-3.075.485a6.8,6.8,0,0,0-2.812.874,2.437,2.437,0,0,0-1.047,1.5,1.521,1.521,0,0,0,.616,1.627,4.445,4.445,0,0,0,2.734.664,9.305,9.305,0,0,0,2.579-.329,7.341,7.341,0,0,0,1.777-.832,2.351,2.351,0,0,0,.024.509,2.036,2.036,0,0,0,.191.473h3.818a2.668,2.668,0,0,1-.234-.82,3.126,3.126,0,0,1,.1-.88l.79-3.53a2.441,2.441,0,0,0-.03-1.19,1.684,1.684,0,0,0-.6-.958,3.518,3.518,0,0,0-1.7-.646,21.533,21.533,0,0,0-2.9-.156,17.184,17.184,0,0,0-2.142.132,7.162,7.162,0,0,0-1.621.359,4.556,4.556,0,0,0-1.364.766,3.914,3.914,0,0,0-.9,1.209Zm11.787,3.2,4.11-.287a1.072,1.072,0,0,0,.485.778,2.221,2.221,0,0,0,1.136.233,3.017,3.017,0,0,0,1.341-.263.827.827,0,0,0,.479-.491c.066-.221-.042-.389-.317-.508a8.7,8.7,0,0,0-1.657-.317,20.436,20.436,0,0,1-2.8-.521,2.163,2.163,0,0,1-1.161-.8,1.408,1.408,0,0,1-.209-1.286,2.509,2.509,0,0,1,.981-1.358,5.23,5.23,0,0,1,1.915-.856,12.463,12.463,0,0,1,2.944-.287,12.221,12.221,0,0,1,2.74.221,2.889,2.889,0,0,1,1.316.676,2.429,2.429,0,0,1,.664,1.244l-3.931.287a.713.713,0,0,0-.347-.568,2.144,2.144,0,0,0-1.089-.239,2.339,2.339,0,0,0-1.053.185.739.739,0,0,0-.437.449c-.054.2.036.341.275.443a7.035,7.035,0,0,0,1.663.269,13.36,13.36,0,0,1,2.878.484,2.283,2.283,0,0,1,1.268.88,1.493,1.493,0,0,1,.179,1.256,2.931,2.931,0,0,1-.927,1.352,5.28,5.28,0,0,1-2.035,1.041,12.1,12.1,0,0,1-3.357.383,8.6,8.6,0,0,1-3.967-.622,2.029,2.029,0,0,1-1.089-1.777" transform="translate(-68.027 -117.391)"/><path class="b" d="M92.288,178.17a3.451,3.451,0,0,0,1-2.2c3.739.509,5.175-.461,6.474-2.662a4.4,4.4,0,0,0,3.913,2.662h10.817a2.769,2.769,0,0,0,2.824-2.034c.156-.634.305-1.269.461-1.9h5.744L122.1,178.17ZM44.5,172.079,43.118,178.2H85.575c.209-.778.425-1.561.634-2.345a4.748,4.748,0,0,1-3.614-.927c-3.207,2.04-6.731.855-7.443-.67a7.459,7.459,0,0,1-4.577,1.681H49.293c-2.5-.245-3.62-2-2.854-3.859Z" transform="translate(-43.118 -164.056)"/></g><path class="c" d="M253.339,109.954a7.852,7.852,0,0,0-1.76-2.769s-.344.289-.06.485a11.461,11.461,0,0,1,1.235,2.308Z" transform="translate(-220.986 -99.536)"/><path class="c" d="M287.293,109.833q-1.249.333-2.487.681c.091.238.186.475.279.713.065.167.13.334.2.5l1-.04q.732-.2,1.466-.4c-.075-.242-.154-.484-.227-.727s-.148-.485-.221-.73" transform="translate(-249.508 -101.797)"/><path class="c" d="M348.489,97.343c-.735.109-1.465.228-2.2.358.044.246.088.493.131.741s.087.493.133.739q1.039-.186,2.084-.339c-.027-.25-.051-.5-.077-.748s-.05-.5-.075-.751" transform="translate(-302.015 -91.131)"/><path class="c" d="M308.211,106.11c-.059-.246-.118-.491-.174-.737s-.113-.491-.17-.737c-.86.2-1.714.409-2.569.628.073.243.148.487.218.729s.148.487.222.728q1.232-.316,2.472-.612" transform="translate(-267.007 -97.36)"/><path class="c" d="M326.378,100.93c.059.245.114.491.169.736s.112.491.169.736c.772-.17,1.55-.333,2.326-.488-.046-.247-.091-.493-.138-.74s-.089-.493-.133-.741q-1.2.237-2.393.5" transform="translate(-285.008 -93.771)"/><path class="c" d="M267.909,116.658c-.1-.2-.189-.4-.285-.6.669-.194,1.335-.386,2.006-.578.095.237.19.473.283.711.049.127.1.254.153.382Z" transform="translate(-234.835 -106.618)"/><path class="c" d="M309.142,118.129l-.013-.045q1.22-.314,2.447-.608c.043.182.085.366.129.549Z" transform="translate(-270.279 -108.324)"/><path class="c" d="M329.462,114.462c-.049-.215-.1-.43-.149-.645.768-.173,1.539-.333,2.309-.489q.079.433.16.862l.033.175Z" transform="translate(-287.515 -104.782)"/><path class="c" d="M348.8,111.852l-.044-.248c-.052-.287-.1-.574-.154-.863.682-.123,1.364-.233,2.05-.334.027.291.06.582.089.872q.025.246.051.491Z" transform="translate(-303.988 -102.288)"/><path class="c" d="M368.336,108.463c.009.3.024.591.036.884.008.219.018.438.028.656l-2.133.087-.054-.538-.083-.874c.733-.086,1.467-.163,2.207-.215" transform="translate(-318.954 -100.627)"/><path class="c" d="M367.187,95.21c.01.254.017.508.027.762s.023.507.031.761c-.746.054-1.487.131-2.227.219-.025-.25-.05-.5-.073-.751s-.048-.5-.07-.752c.768-.092,1.54-.174,2.313-.239" transform="translate(-317.883 -89.31)"/><path class="c" d="M363.741,82.908q1.209-.15,2.417-.269c.005.24.011.475.02.711s.019.472.027.709c-.78.066-1.559.151-2.335.244-.024-.232-.044-.465-.066-.7s-.044-.466-.062-.7" transform="translate(-316.915 -78.575)"/><path class="c" d="M344.121,85.385q1.17-.206,2.337-.38.035.348.067.7c.022.232.046.465.068.7-.744.11-1.488.23-2.227.363-.042-.23-.082-.458-.124-.687s-.082-.458-.121-.688" transform="translate(-300.16 -80.595)"/><path class="c" d="M323.62,88.761c.823-.175,1.644-.343,2.471-.505.041.229.08.459.123.688s.085.458.127.687q-1.2.239-2.411.5c-.049-.228-.1-.456-.155-.683s-.1-.457-.156-.685" transform="translate(-282.653 -83.371)"/><path class="c" d="M301.665,93.164q1.34-.337,2.688-.647c.052.229.106.456.159.684s.107.456.16.684q-1.3.305-2.6.632c-.069-.226-.138-.45-.2-.675s-.138-.451-.205-.678" transform="translate(-263.905 -87.01)"/><path class="c" d="M280.167,98.58q1.307-.37,2.626-.718c.069.228.138.451.208.676s.136.451.206.676q-1.265.336-2.517.688c-.088-.219-.176-.44-.262-.66s-.176-.441-.261-.662" transform="translate(-245.546 -91.574)"/><path class="c" d="M262.212,104.431q1.053-.323,2.112-.635c.088.22.177.44.265.659s.176.439.266.658q-1.016.292-2.032.591c-.1-.213-.206-.423-.307-.636s-.2-.424-.3-.638" transform="translate(-230.214 -96.642)"/><path class="c" d="M387.851,82.157c.214-1.277.092-4.964-.559-5.863,0,0-.484.172-.273.492a26.12,26.12,0,0,1,.338,4.695,4.162,4.162,0,0,0,.04.979c.168-.077.429-.163.454-.3" transform="translate(-336.747 -73.156)"/><path class="c" d="M240,61.762c3.639-1.941,20.89-8.7,22.674-6.529a7.577,7.577,0,0,1,.66,1.088c-2.381.642-16.547,2.176-23.419,6.744.3-.277.044-1.615.085-1.3" transform="translate(-211.171 -54.809)"/><path class="c" d="M222.112,96.689c-.381-1.078-3.857-1.452-3.187-.214.05.092,1.155-.006,1.7.106,1.431.293.868,2.43,1.767.789.123-.222-.223-.51-.284-.682" transform="translate(-193.176 -89.728)"/></g></g></svg>