<svg xmlns="http://www.w3.org/2000/svg" width="94" height="94" viewBox="0 0 94 94"><defs><style>.a,.d{fill:#fff;}.a{stroke:#b1b1b1;stroke-width:0.5px;}.b{fill:#003a85;}.c{fill:#d9000d;}.e{fill:#c9000f;}.f{fill:#0090df;}.g{stroke:none;}.h{fill:none;}</style></defs><g transform="translate(0.352 -0.015)"><g class="a" transform="translate(-0.352 0.015)"><rect class="g" width="94" height="94"/><rect class="h" x="0.25" y="0.25" width="93.5" height="93.5"/></g><g transform="translate(6.68 37.17)"><g transform="translate(0)"><g transform="translate(24.469 1.565)"><path class="b" d="M201.526,151.461c0-.686.309-1.066,1.014-1.066a3.2,3.2,0,0,1,.5.053v.907a.421.421,0,0,0-.154-.039c-.194,0-.238.159-.238.314v.088l.384-.049v.915l-.366-.031v1.465h-1.138v-1.465l-.309.031v-.915l.309.04Z" transform="translate(-201.217 -150.395)"/><path class="b" d="M218.657,160.559h-.027a.906.906,0,0,1-.715.363,1.12,1.12,0,0,1-.988-1.217,1.132,1.132,0,0,1,1.019-1.238.8.8,0,0,1,.683.332h.027l-.035-.279h1.116v2.349h-1.116Zm-.3-.531c.216,0,.3-.172.3-.354a.3.3,0,0,0-.3-.314.3.3,0,0,0-.3.323c0,.186.088.345.3.345" transform="translate(-214.551 -157.246)"/><path class="b" d="M242.733,159.621a.623.623,0,0,0-.348-.128.413.413,0,0,0-.445.468v.9H240.8v-2.349h1.138l-.026.314h.026a.767.767,0,0,1,.794-.367Z" transform="translate(-234.813 -157.241)"/><path class="b" d="M259.094,158.935h.035a.707.707,0,0,1,.679-.469.664.664,0,0,1,.67.5h.027a.7.7,0,0,1,.71-.5c.56,0,.807.433.807.942v1.46h-1.1V159.7c0-.137,0-.314-.167-.314s-.163.177-.163.314v1.164h-1.1V159.7c0-.137,0-.314-.168-.314s-.163.177-.163.314v1.164h-1.1v-2.349h1.076Z" transform="translate(-249.454 -157.245)"/><path class="b" d="M290.906,160.868h1.116v-2.349h-1.116l.035.279h-.026a.8.8,0,0,0-.684-.332,1.132,1.132,0,0,0-1.019,1.238,1.12,1.12,0,0,0,.988,1.217.906.906,0,0,0,.715-.363h.026Zm-.564-1.186a.3.3,0,0,1,.3-.323.3.3,0,0,1,.3.314c0,.182-.088.354-.3.354s-.3-.159-.3-.345" transform="translate(-275.9 -157.245)"/><path class="b" d="M314.455,159.538a.661.661,0,0,0-.419-.195.343.343,0,1,0-.022.686.757.757,0,0,0,.441-.181l-.048.965a1.884,1.884,0,0,1-.574.111,1.172,1.172,0,0,1-1.3-1.217,1.2,1.2,0,0,1,1.209-1.238,2.321,2.321,0,0,1,.714.119Z" transform="translate(-295.691 -157.246)"/><path class="b" d="M331.858,150.944a.631.631,0,0,1-1.253,0,.632.632,0,0,1,1.253,0m-1.2.726H331.8v2.349h-1.138Z" transform="translate(-311.029 -150.395)"/><path class="b" d="M345.475,160.868h1.115v-2.349h-1.115l.035.279h-.026a.8.8,0,0,0-.684-.332,1.132,1.132,0,0,0-1.018,1.238,1.12,1.12,0,0,0,.987,1.217.907.907,0,0,0,.715-.363h.026Zm-.565-1.186a.3.3,0,0,1,.3-.323.3.3,0,0,1,.3.314c0,.182-.088.354-.3.354s-.3-.159-.3-.345" transform="translate(-322.213 -157.245)"/><path class="b" d="M366.777,159.952l.07.044a1.264,1.264,0,0,0,.582.217c.075,0,.167-.04.167-.128,0-.129-.136-.133-.229-.146-.379-.053-.732-.208-.732-.65,0-.589.591-.823,1.094-.823a2.007,2.007,0,0,1,.908.2l-.278.65a.945.945,0,0,0-.525-.194c-.071,0-.163.022-.163.106,0,.115.123.124.282.15.406.066.736.208.736.681,0,.61-.6.863-1.133.863a2.755,2.755,0,0,1-1.072-.261Z" transform="translate(-341.481 -157.245)"/></g><g transform="translate(20.897 2.929)"><path class="b" d="M177.6,168.721h2.019v-.634h.022a2.01,2.01,0,0,0,1.719.823,3.049,3.049,0,0,0,.022-6.087,2.333,2.333,0,0,0-1.764.746v-4.084H177.6Zm3.25-4.14a1.239,1.239,0,0,1,1.3,1.291,1.3,1.3,0,0,1-2.6,0,1.239,1.239,0,0,1,1.3-1.291" transform="translate(-177.605 -159.473)"/><path class="b" d="M231.8,184.722a3.135,3.135,0,0,0-6.268-.123c0,1.97,1.409,3.038,3.3,3.038a2.762,2.762,0,0,0,2.9-1.959h-1.942a1.008,1.008,0,0,1-.965.523,1.133,1.133,0,0,1-1.265-1.268H231.8Zm-4.216-.957a1.21,1.21,0,0,1,2.341,0Z" transform="translate(-218.283 -178.2)"/><path class="b" d="M275.069,182.474h.022a1.967,1.967,0,0,1,1.819-.924c1.531,0,2.141.968,2.141,2.371v3.527h-2.019v-2.782c0-.545.089-1.5-.91-1.5-.821,0-1.054.612-1.054,1.324v2.961H273.05v-5.709h2.019Z" transform="translate(-258.61 -178.2)"/><path class="b" d="M325.439,181.739H323.42v.557a2.317,2.317,0,0,0-1.764-.746,3.049,3.049,0,0,0,.022,6.087,2,2,0,0,0,1.72-.823h.022v.634h2.019Zm-3.251,1.569a1.239,1.239,0,0,1,1.3,1.291,1.3,1.3,0,0,1-2.6,0,1.239,1.239,0,0,1,1.3-1.291" transform="translate(-297.442 -178.2)"/><path class="b" d="M369.654,185.727l1.353-2.927h2.263l-2.973,5.709H369.01l-2.984-5.709h2.263Z" transform="translate(-337.519 -179.261)"/><path class="b" d="M418.663,161.945a1.132,1.132,0,1,1-1.132-1.135,1.138,1.138,0,0,1,1.132,1.135m-.122,7.9h-2.019v-5.709h2.019Z" transform="translate(-380.272 -160.598)"/><path class="b" d="M441.765,168.721h2.019v-9.237h-2.019v4.084a2.317,2.317,0,0,0-1.764-.746,3.049,3.049,0,0,0,.022,6.087,2,2,0,0,0,1.72-.823h.022Zm-1.231-4.14a1.239,1.239,0,0,1,1.3,1.291,1.3,1.3,0,0,1-2.6,0,1.239,1.239,0,0,1,1.3-1.291" transform="translate(-397.882 -159.473)"/><path class="b" d="M492.838,184.722a3.135,3.135,0,0,0-6.268-.123c0,1.97,1.409,3.038,3.3,3.038a2.761,2.761,0,0,0,2.9-1.959h-1.941a1.009,1.009,0,0,1-.965.523,1.133,1.133,0,0,1-1.264-1.268h4.249Zm-4.215-.957a1.21,1.21,0,0,1,2.34,0Z" transform="translate(-439.825 -178.2)"/><path class="b" d="M535.729,183.208a2.493,2.493,0,0,0-1.087-.278c-.233,0-.633.1-.633.389,0,.39.633.446.91.5.943.189,1.653.634,1.653,1.691,0,1.5-1.364,2.125-2.685,2.125a4.4,4.4,0,0,1-2.3-.656l.732-1.413a3.24,3.24,0,0,0,1.6.579c.255,0,.632-.123.632-.434,0-.445-.632-.467-1.265-.634a1.428,1.428,0,0,1-1.265-1.5c0-1.4,1.265-2.026,2.507-2.026a4.512,4.512,0,0,1,1.875.367Z" transform="translate(-478.035 -178.2)"/><path class="b" d="M550.694,163.532a.361.361,0,0,0,.281-.327c0-.18-.128-.338-.454-.338h-.535v1.2h.224v-.5h.239a2.294,2.294,0,0,1,.346.5h.282a2.663,2.663,0,0,0-.383-.539m-.195-.156c-.1,0-.289,0-.289,0v-.337h.289c.11,0,.229.026.229.162s-.119.171-.229.171" transform="translate(-493.647 -162.345)"/><path class="b" d="M545.452,160.542a1.155,1.155,0,1,0,1.156-1.133,1.141,1.141,0,0,0-1.156,1.133m.218,0a.938.938,0,1,1,.938.92.932.932,0,0,1-.938-.92" transform="translate(-489.799 -159.409)"/></g><rect class="c" width="19.207" height="12.189"/><path class="d" d="M109.658,162s-.08-.071,0-.213a2.054,2.054,0,0,1,.163-.288.344.344,0,0,0,0-.178.19.19,0,0,1,0-.12.512.512,0,0,0,.006-.187,3.453,3.453,0,0,1-.222-1.475,1.087,1.087,0,0,0,0-.224c-.019-.142-.041-.234-.048-.349-.121-.34-.236-.778-.236-.778l-.048-.3-.033-.485a4.8,4.8,0,0,1,.048-.868c.066-.3.186-.924.186-.924l-.014-1.163s-.048-.149-.089,0a4.506,4.506,0,0,1-.1,1c0,.023-.009.123,0,.154a1.926,1.926,0,0,1-.081.892,2.7,2.7,0,0,0-.083.553s.038.233.038.28-.028.2-.028.2a.36.36,0,0,1-.01.128c-.042.107-.084-.018-.084-.018a1.621,1.621,0,0,1-.024-.164c-.007-.084-.072.031-.072.031a.686.686,0,0,0,.081.459c.05.059-.039.088-.072.049a.741.741,0,0,1-.207-.389l-.005-.11.078-.377c.011-.033.009-.3.009-.3a4.554,4.554,0,0,1-.029-1.441,5.936,5.936,0,0,1,.02-1.042l.014-.092c.009-.1.019-.186.019-.186-.032-.613.4-.658.4-.658a1.659,1.659,0,0,1,.492-.194.644.644,0,0,0,.246-.145,1.153,1.153,0,0,0-.009-.433.808.808,0,0,1-.248-.658.5.5,0,0,1,.469-.42.843.843,0,0,1,.515.054.6.6,0,0,1,.189.155.457.457,0,0,1,.074.15,1.374,1.374,0,0,1,0,.249l.064.1a.837.837,0,0,1,.061.1c.011.028.025.03.018.047a.049.049,0,0,1-.031.026l-.084.011-.006.074c0,.007.044.065-.017.065l.017.022-.039.063a.9.9,0,0,1,0,.127c-.006.019-.056.049-.08.058a1.412,1.412,0,0,1-.173.007.374.374,0,0,0,.019.194.569.569,0,0,0,.23.144,1.589,1.589,0,0,1,.505.2s.37.028.387.527l-.523.432c-.041.026-.048.044-.048.044l-.069,1.194s.138.673.195.923a4.361,4.361,0,0,1,.048.868l-.033.486-.048.3s-.111.439-.235.779a2,2,0,0,1-.04.343,1.559,1.559,0,0,0-.009.228,4.764,4.764,0,0,1-.239,1.476c-.013.062-.072.324-.007.416a.766.766,0,0,0,.215.186,3.066,3.066,0,0,1,.361.182c.063.018.128.064.166.066.1.007.052.136.052.136Z" transform="translate(-98.244 -149.812)"/><path class="d" d="M126.375,171.959c-.032.04-.119.01-.072-.048l0,0a.682.682,0,0,0,.081-.46s-.064-.089-.072-.031-.024.164-.024.164-.041.125-.083.017a.365.365,0,0,1-.009-.128,1.612,1.612,0,0,1-.029-.2c0-.055.038-.281.038-.281a2.534,2.534,0,0,0-.086-.553,1.921,1.921,0,0,1-.082-.893c0-.03-.007-.13,0-.153a5.6,5.6,0,0,1-.06-.993l.5-.4.021.3c.02.49.054.7.038,1.049a4.323,4.323,0,0,1-.028,1.44,2.739,2.739,0,0,0,.01.3l.078.377-.005.111a.756.756,0,0,1-.207.387Z" transform="translate(-112.891 -163.77)"/><path class="d" d="M129.709,167.491l.125.1a5.133,5.133,0,0,1,.809.745,5.038,5.038,0,0,1,1.077,1.032,3.049,3.049,0,0,0,.234.2l.343.215.129.165a.772.772,0,0,1,.138.212c.007.048,0,.079-.056.048,0,0-.239-.277-.361-.3-.082-.033-.116-.035-.074.023s.112.136.112.136.064.115-.047.068a.394.394,0,0,1-.1-.087s-.138-.093-.17-.122-.193-.228-.193-.228a3.462,3.462,0,0,0-.478-.333,2.174,2.174,0,0,1-.738-.577c-.021-.023-.107-.081-.122-.1a2.951,2.951,0,0,1-.577-.443Z" transform="translate(-116.059 -163.339)"/><path class="d" d="M131.532,163.831c.041.031.005.076-.062.076l0,0a4.465,4.465,0,0,0-.514-.007s-.1.055-.037.066l.181.029s.133.044.016.08a.5.5,0,0,1-.144,0s-.174.018-.213.018-.306-.048-.306-.048a3.125,3.125,0,0,0-.6.057,2.525,2.525,0,0,1-.965.036c-.033,0-.141,0-.165,0a5.924,5.924,0,0,1-.959.043l-.013-.13a1.548,1.548,0,0,0-.07-.207.381.381,0,0,0-.11-.132.411.411,0,0,0-.153-.075,9.128,9.128,0,0,1,1.273.04,5.518,5.518,0,0,1,1.549.089s.283.013.318,0l.413-.059.289.056Z" transform="translate(-114.115 -160.064)"/><path class="e" d="M119.034,189.357a.04.04,0,0,1,.018.035c.005.043.007,1.329.044,1.5v.136c0,.049.017.153.017.209s-.01.2-.01.2l.01.142a3.834,3.834,0,0,0-.063.556c0,.242.018.915.048,1.116a.719.719,0,0,1,0,.22,1.118,1.118,0,0,1-.066.321c-.04.02-.078-.218-.07-.276a.4.4,0,0,0,.007-.152c-.025-.05.049-.982.049-1.225a3.2,3.2,0,0,0-.07-.555l0-.153s0-.136,0-.194a2.007,2.007,0,0,1,0-.226.765.765,0,0,0,.009-.123c.052-.335.046-1.453.051-1.5a.047.047,0,0,1,.026-.034Z" transform="translate(-106.917 -181.897)"/></g><g transform="translate(21.011 14.51)"><path class="f" d="M180.546,243.764h-1.421a.938.938,0,0,0,.07.263.533.533,0,0,0,.487.3c.407,0,.383-.293.656-.293a.331.331,0,0,1,.328.328.386.386,0,0,1-.179.3,1.336,1.336,0,0,1-.82.238,1.243,1.243,0,0,1-1.307-1.341,1.284,1.284,0,0,1,1.317-1.366h.02a1.262,1.262,0,0,1,.507.1,1.215,1.215,0,0,1,.661,1.128C180.864,243.655,180.78,243.764,180.546,243.764Zm-.437-.75a.475.475,0,0,0-.457-.248c-.313,0-.442.189-.527.457h1.038A.764.764,0,0,0,180.109,243.014Z" transform="translate(-178.36 -241.25)"/><path class="f" d="M197.531,244.521a1.166,1.166,0,0,1-.944.353,1.479,1.479,0,0,1-.944-.278.481.481,0,0,1-.209-.373.326.326,0,0,1,.333-.328c.383,0,.2.437.815.437.144,0,.368-.05.368-.234a.206.206,0,0,0-.065-.149,2.891,2.891,0,0,0-.636-.214c-.377-.114-.73-.268-.73-.725,0-.621.546-.849,1.088-.849a1.25,1.25,0,0,1,.815.249.421.421,0,0,1,.169.308.332.332,0,0,1-.338.323c-.328,0-.184-.343-.681-.343-.134,0-.358.04-.358.219a.163.163,0,0,0,.075.134,2.86,2.86,0,0,0,.581.2c.437.129.82.243.82.77v.04A.7.7,0,0,1,197.531,244.521Z" transform="translate(-192.852 -241.222)"/><path class="f" d="M213.535,244.9a.821.821,0,0,1-.666-.293v.591c0,.238-.094.437-.363.437s-.358-.189-.358-.422v-2.539c0-.234.1-.437.363-.437.219,0,.313.129.358.323a.837.837,0,0,1,.73-.368c.76,0,1.078.656,1.078,1.322C214.678,244.236,214.345,244.9,213.535,244.9Zm-.124-2.111c-.482,0-.541.457-.541.83,0,.338.129.681.526.681.427,0,.546-.437.546-.79S213.823,242.79,213.411,242.79Z" transform="translate(-207.037 -241.25)"/><path class="f" d="M231.936,243.764h-1.421a.939.939,0,0,0,.07.263.533.533,0,0,0,.487.3c.407,0,.382-.293.656-.293a.331.331,0,0,1,.328.328.386.386,0,0,1-.179.3,1.336,1.336,0,0,1-.82.238,1.243,1.243,0,0,1-1.306-1.341,1.284,1.284,0,0,1,1.316-1.366h.02a1.262,1.262,0,0,1,.507.1,1.215,1.215,0,0,1,.661,1.128C232.254,243.655,232.169,243.764,231.936,243.764Zm-.437-.75a.475.475,0,0,0-.457-.248c-.313,0-.442.189-.527.457h1.038A.76.76,0,0,0,231.5,243.014Z" transform="translate(-221.975 -241.25)"/><path class="f" d="M249.071,244.544a1.146,1.146,0,0,1-.874.367,1.211,1.211,0,0,1-1.307-1.331,1.258,1.258,0,0,1,1.327-1.386,1.148,1.148,0,0,1,.755.253.5.5,0,0,1,.238.4.331.331,0,0,1-.328.328c-.328,0-.248-.392-.7-.392-.432,0-.546.407-.546.765,0,.392.109.745.571.745s.313-.432.661-.432a.336.336,0,0,1,.358.333A.572.572,0,0,1,249.071,244.544Z" transform="translate(-236.522 -241.25)"/><path class="f" d="M264,236.68a.358.358,0,0,1-.363-.363.363.363,0,1,1,.725,0A.358.358,0,0,1,264,236.68Zm.01,2.886c-.263,0-.373-.174-.373-.412v-1.784c0-.248.085-.432.368-.432.263,0,.353.194.353.427v1.764C264.356,239.353,264.267,239.567,264.009,239.567Z" transform="translate(-250.734 -235.955)"/><path class="f" d="M272.339,244.9c-.2,0-.283-.129-.338-.3a1.1,1.1,0,0,1-.8.328.812.812,0,0,1-.894-.825c0-.715.671-.775,1.217-.874a1.345,1.345,0,0,0,.358-.089.142.142,0,0,0,.07-.124c0-.209-.258-.228-.412-.228-.507,0-.4.328-.7.328a.316.316,0,0,1-.323-.323.414.414,0,0,1,.154-.308,1.37,1.37,0,0,1,.879-.258c.706,0,1.158.218,1.158,1v1.123C272.7,244.6,272.662,244.9,272.339,244.9Zm-.358-1.287a2.694,2.694,0,0,1-.487.129c-.189.04-.457.09-.457.338,0,.2.174.273.348.273a.7.7,0,0,0,.6-.333Z" transform="translate(-256.392 -241.279)"/><path class="f" d="M289.321,239.739c-.263,0-.368-.154-.368-.4v-2.767c0-.243.084-.422.363-.422.258,0,.363.174.363.407V239.3C289.678,239.535,289.6,239.739,289.321,239.739Z" transform="translate(-272.221 -236.122)"/><path class="f" d="M296.9,236.68a.358.358,0,0,1-.363-.363.363.363,0,1,1,.725,0A.358.358,0,0,1,296.9,236.68Zm.01,2.886c-.263,0-.373-.174-.373-.412v-1.784c0-.248.084-.432.367-.432.263,0,.353.194.353.427v1.764C297.259,239.353,297.17,239.567,296.912,239.567Z" transform="translate(-278.659 -235.955)"/><path class="f" d="M305.136,244.521a1.166,1.166,0,0,1-.944.353,1.479,1.479,0,0,1-.944-.278.482.482,0,0,1-.209-.373.326.326,0,0,1,.333-.328c.383,0,.2.437.815.437.144,0,.368-.05.368-.234a.206.206,0,0,0-.065-.149,2.9,2.9,0,0,0-.636-.214c-.378-.114-.73-.268-.73-.725,0-.621.546-.849,1.088-.849a1.25,1.25,0,0,1,.815.249.421.421,0,0,1,.169.308.332.332,0,0,1-.338.323c-.328,0-.184-.343-.681-.343-.134,0-.358.04-.358.219a.163.163,0,0,0,.075.134,2.861,2.861,0,0,0,.581.2c.437.129.82.243.82.77v.04A.7.7,0,0,1,305.136,244.521Z" transform="translate(-284.176 -241.222)"/><path class="f" d="M319.154,240.566c-.512,0-.676-.218-.676-.7V238.5c-.2,0-.368-.04-.368-.283,0-.218.179-.288.368-.268v-.383c0-.233.1-.432.363-.432.293,0,.358.223.358.467v.348c.209,0,.462-.02.462.273s-.253.278-.462.278v1.237c0,.373.268.149.432.3a.3.3,0,0,1,.075.194C319.706,240.541,319.383,240.566,319.154,240.566Z" transform="translate(-296.967 -236.959)"/><path class="f" d="M330.622,244.9c-.2,0-.283-.129-.338-.3a1.1,1.1,0,0,1-.8.328.812.812,0,0,1-.894-.825c0-.715.671-.775,1.217-.874a1.348,1.348,0,0,0,.358-.089.142.142,0,0,0,.07-.124c0-.209-.258-.228-.412-.228-.507,0-.4.328-.7.328a.316.316,0,0,1-.323-.323.414.414,0,0,1,.154-.308,1.371,1.371,0,0,1,.879-.258c.705,0,1.158.218,1.158,1v1.123C330.985,244.6,330.945,244.9,330.622,244.9Zm-.357-1.287a2.693,2.693,0,0,1-.487.129c-.189.04-.457.09-.457.338,0,.2.174.273.348.273a.7.7,0,0,0,.6-.333Z" transform="translate(-305.857 -241.279)"/><path class="f" d="M348.316,244.521a1.166,1.166,0,0,1-.944.353,1.479,1.479,0,0,1-.944-.278.481.481,0,0,1-.209-.373.326.326,0,0,1,.333-.328c.382,0,.2.437.815.437.144,0,.368-.05.368-.234a.207.207,0,0,0-.064-.149,2.9,2.9,0,0,0-.636-.214c-.378-.114-.73-.268-.73-.725,0-.621.547-.849,1.088-.849a1.25,1.25,0,0,1,.815.249.421.421,0,0,1,.169.308.332.332,0,0,1-.338.323c-.328,0-.184-.343-.681-.343-.134,0-.358.04-.358.219a.163.163,0,0,0,.075.134,2.86,2.86,0,0,0,.581.2c.437.129.82.243.82.77v.04A.7.7,0,0,1,348.316,244.521Z" transform="translate(-320.823 -241.222)"/><path class="f" d="M373.163,243.764h-1.421a.93.93,0,0,0,.069.263.533.533,0,0,0,.487.3c.407,0,.383-.293.656-.293a.331.331,0,0,1,.328.328.386.386,0,0,1-.179.3,1.335,1.335,0,0,1-.82.238,1.243,1.243,0,0,1-1.307-1.341,1.284,1.284,0,0,1,1.317-1.366h.02a1.262,1.262,0,0,1,.507.1,1.215,1.215,0,0,1,.661,1.128C373.481,243.655,373.4,243.764,373.163,243.764Zm-.437-.75a.475.475,0,0,0-.457-.248c-.313,0-.442.189-.527.457h1.038A.758.758,0,0,0,372.726,243.014Z" transform="translate(-341.835 -241.25)"/><path class="f" d="M390.921,244.9a.357.357,0,0,1-.174-.04c-.169-.094-.184-.224-.184-.4v-1.138c0-.248-.1-.477-.387-.477a.45.45,0,0,0-.263.084.55.55,0,0,0-.189.5v1.038c0,.243-.08.432-.363.432s-.358-.2-.358-.442v-1.794c0-.234.109-.4.363-.4a.352.352,0,0,1,.358.333.8.8,0,0,1,.71-.368.825.825,0,0,1,.81.571,1.212,1.212,0,0,1,.05.377v1.307C391.293,244.727,391.184,244.9,390.921,244.9Z" transform="translate(-357.134 -241.279)"/><path class="f" d="M415.133,240.566c-.512,0-.676-.218-.676-.7V238.5c-.2,0-.368-.04-.368-.283,0-.218.179-.288.368-.268v-.383c0-.233.1-.432.363-.432.293,0,.358.223.358.467v.348c.209,0,.462-.02.462.273s-.253.278-.462.278v1.237c0,.373.268.149.432.3a.3.3,0,0,1,.075.194C415.685,240.541,415.362,240.566,415.133,240.566Z" transform="translate(-378.425 -236.959)"/><path class="f" d="M425.814,236.68a.358.358,0,0,1-.363-.363.363.363,0,1,1,.725,0A.358.358,0,0,1,425.814,236.68Zm.01,2.886c-.263,0-.373-.174-.373-.412v-1.784c0-.248.085-.432.368-.432.263,0,.353.194.353.427v1.764C426.172,239.353,426.082,239.567,425.824,239.567Z" transform="translate(-388.067 -235.955)"/></g></g></g></svg>