<svg xmlns="http://www.w3.org/2000/svg" width="94" height="94" viewBox="0 0 94 94"><defs><style>.a,.c{fill:#fff;}.a{stroke:#b1b1b1;stroke-width:0.5px;}.b{fill:#eb6b00;}.b,.c,.d{fill-rule:evenodd;}.d{fill:#009c28;}.e{stroke:none;}.f{fill:none;}</style></defs><g transform="translate(-1076 -347)"><g class="a" transform="translate(1076 347)"><rect class="e" width="94" height="94"/><rect class="f" x="0.25" y="0.25" width="93.5" height="93.5"/></g><g transform="translate(917.698 25.419)"><path class="b" d="M383.994,361.581h4.479a8.7,8.7,0,0,1,8.646,8.675v2.825a8.7,8.7,0,0,1-8.676,8.675h-4.449a8.7,8.7,0,0,1-8.676-8.675v-11.5Z" transform="translate(-150.195 0)"/><path class="c" d="M381.005,372.777l8.538-1.75-3.072,3.816c-1.592,1.976-4.45.563-4.877-1.4-.082-.379-.427-.667-.589-.663Zm9.426-1.977a.56.56,0,1,1-.56.56.561.561,0,0,1,.56-.56Zm5.4,5.817-6.141-.119a2.537,2.537,0,0,0-2.44,2.838c.115,1.641,1.245,2.107,2.588,2.211s2.8-1.1,3.915-1.933c.384-.289.58.11.279.355-1.083.883-2.386,2.084-4.195,2.013a2.9,2.9,0,0,1-3.13-2.571c-.28-1.666,1.1-2.881,2.6-3.858s2.481-1.933,3.722-2.9a1.084,1.084,0,0,0,.285-.46,3.887,3.887,0,0,1,.874-2.2c-1.15-1.127-3.316-1.7-3.915-.484l-8.41,1.788a1.138,1.138,0,0,0-.919,1.112l9.232-1.933a1.029,1.029,0,0,1,1.015,1.643,14.687,14.687,0,0,1-3.105,2.241c-1.987,1.029-3.873,3.095-3.538,5.233s2.185,3.677,5,4.285l.048,2.018c0,.348-.3.772-1.193.995h4.239c-.684-.264-1.18-.517-1.2-1l.087-2.025a5.88,5.88,0,0,0,3.287-1.885,13.842,13.842,0,0,0,2.61-3.626l-2.464.048.869-1.788Z" transform="translate(-154.177 -5.136)"/><path class="d" d="M207.373,376.027l-.054,1.342a8.855,8.855,0,0,1-2.05.01,3.313,3.313,0,0,1-3.489-3.459,3.507,3.507,0,0,1,3.426-3.314,7.645,7.645,0,0,1,2.209.206l-.031,1.207c-1.392-.127-3.078-.29-3.063,2.032s1.721,2.006,3.052,1.976Zm-9.88,1.394.045-3.01-.019-1.61c-.009-.289-.022-.586-.036-.89s-.037-.871-.065-1.325c.46.008.827.013,1.1.013.316,0,1.184,0,1.6-.013l.01.346a4.886,4.886,0,0,1,1.45-.264l-.015,1.239c-.1-.03-1.268-.1-1.268.329l-.009,5.185c-.767-.018-2.016-.016-2.783,0Zm-.638-1.861c-.04.252.049.749-.008,1.3-.474.1-1.467.434-1.79.467s-.653.047-.986.047a8.386,8.386,0,0,1-1.358-.1,3.263,3.263,0,0,1-1.083-.371,2.787,2.787,0,0,1-.784-.66,2.976,2.976,0,0,1-.507-.938,4.081,4.081,0,0,1,.018-2.7,2.955,2.955,0,0,1,.752-1.208,2.724,2.724,0,0,1,1.113-.618,4.734,4.734,0,0,1,1.318-.183,5.323,5.323,0,0,1,1.351.168,2.6,2.6,0,0,1,1.113.583,2.563,2.563,0,0,1,.682.94,3.44,3.44,0,0,1,.245,1.131,2.379,2.379,0,0,1-.039.572l-4.329.007c0,.066,0,.357,0,.412.081,1.586,1.71,1.734,2.811,1.524.344-.066.975-.222,1.477-.377Zm-4.286-2.777h1.816c0-.082,0-.155,0-.213-.026-.637-.073-1.173-.9-1.172s-.847.718-.914,1.385Zm-13.547,4.431.016-3.043-.02-2.378-.037-1.024c.42.008.788.013,1.108.013.363,0,1,0,1.34-.013l0,.84c.111-.168.172-.342.282-.388a5.562,5.562,0,0,1,2.118-.616,1.563,1.563,0,0,1,1.558.891,4.126,4.126,0,0,1,2-.857,1.473,1.473,0,0,1,1.421.732,2.122,2.122,0,0,1,.166.945c.014.3.011.485,0,.877s-.009,1.064-.008,2.017.01,1.621.024,2c-.351-.009-1.038-.013-1.365-.013-.4,0-.816,0-1.255.013q.021-.8.022-2.011c0-.806,0-1.649-.018-1.961a1.721,1.721,0,0,0-.114-.61.574.574,0,0,0-.233-.276.621.621,0,0,0-.3-.073.6.6,0,0,0-.293.069c-.09.051-.23.114-.229.237l.083,4.625c-.408-.009-1.093-.013-1.42-.013s-.729,0-1.18.013c.015-.375.027-1,.03-1.888s0-1.79-.015-2.089a1.824,1.824,0,0,0-.1-.569.787.787,0,0,0-.2-.3.407.407,0,0,0-.3-.114.624.624,0,0,0-.413.144.607.607,0,0,0-.263.418l-.018,4.4c-.46-.009-.929-.013-1.214-.013-.316,0-.709,0-1.177.013Zm-8.693-1.85.055,1.691a11.38,11.38,0,0,1-2.393.2,6.261,6.261,0,0,1-1.64-.288,4.673,4.673,0,0,1-1.533-.9,3.4,3.4,0,0,1-1.046-1.309,4.2,4.2,0,0,1-.465-1.611,5.163,5.163,0,0,1,.352-2.022,3.64,3.64,0,0,1,1.13-1.426,3.787,3.787,0,0,1,1.418-.9,5.826,5.826,0,0,1,1.737-.326,15.091,15.091,0,0,1,2.353.3l.023,1.509c-.235-.062-1.517-.02-1.991-.02a2.167,2.167,0,0,0-1.725,1.426,4.961,4.961,0,0,0-.161,1.471,2.459,2.459,0,0,0,.354,1.234c.348.558.707,1.076,1.438,1.076a11.8,11.8,0,0,0,2.093-.1Zm3.726-4.759a5.075,5.075,0,0,1,1.548.239,3.7,3.7,0,0,1,1.282.692,3,3,0,0,1,.805,1.054,3.6,3.6,0,0,1,.311,1.3,3.762,3.762,0,0,1-.148,1.284,2.988,2.988,0,0,1-1.937,1.942,5.149,5.149,0,0,1-1.668.265,5.4,5.4,0,0,1-1.582-.233,3.629,3.629,0,0,1-1.3-.683,3.054,3.054,0,0,1-.815-1.073,3.57,3.57,0,0,1-.325-1.312,3.451,3.451,0,0,1,.179-1.313,2.845,2.845,0,0,1,.724-1.125,3.427,3.427,0,0,1,1.288-.768,4.981,4.981,0,0,1,1.633-.267Zm.074,1.256c.809,0,1.469.944,1.469,2.1s-.66,2.1-1.469,2.1-1.469-.944-1.469-2.1.66-2.1,1.469-2.1Zm33.943-1.243h2.452v6.761h-2.452v-6.761ZM215,375.832c0-.514.008-1.1.006-1.712a2.774,2.774,0,0,0-1.7.927.725.725,0,0,0,.11.848,1.314,1.314,0,0,0,.856.219,2.311,2.311,0,0,0,.584-.207l.144-.074Zm-3.124-3.523.038-1.282a12.114,12.114,0,0,1,2.787-.421,4.365,4.365,0,0,1,1.242.168,1.877,1.877,0,0,1,.9.538,1.675,1.675,0,0,1,.364,1.067q.017.356-.011,1.59c-.019.826-.011,2.067.022,3.405h-2.257c.005-.078,0-.374,0-.5a3.548,3.548,0,0,1-1.658.5,2.9,2.9,0,0,1-1.19-.218,2.116,2.116,0,0,1-.854-2.439c.258-1.29,2.319-1.627,2.632-1.636a2.195,2.195,0,0,0,.714-.148.693.693,0,0,0,.365-.719c-.008-.456-.462-.5-.583-.5a6.716,6.716,0,0,0-2.515.589Zm6.621-4.235h2.452v9.306H218.5v-9.306ZM198.9,384.495l-.054,1.341a8.825,8.825,0,0,1-2.051.01,3.313,3.313,0,0,1-3.488-3.459,3.507,3.507,0,0,1,3.426-3.314,7.662,7.662,0,0,1,2.209.206l-.031,1.207c-1.392-.128-3.078-.29-3.063,2.032s1.721,2.006,3.052,1.976Zm-17.155-.467c-.039.252.049.749-.007,1.3-.474.1-1.467.434-1.79.467s-.653.047-.986.047a8.323,8.323,0,0,1-1.358-.1,3.267,3.267,0,0,1-1.083-.371,2.816,2.816,0,0,1-.784-.659,2.985,2.985,0,0,1-.507-.937,4.08,4.08,0,0,1,.018-2.7,2.957,2.957,0,0,1,.752-1.209,2.733,2.733,0,0,1,1.113-.618,4.742,4.742,0,0,1,1.318-.183,5.339,5.339,0,0,1,1.351.169,2.652,2.652,0,0,1,1.8,1.523,3.438,3.438,0,0,1,.246,1.132,2.4,2.4,0,0,1-.039.572l-4.329.007c0,.067,0,.356,0,.412.08,1.586,1.709,1.734,2.811,1.524.344-.066.975-.223,1.477-.377Zm-4.286-2.776h1.816c0-.083,0-.155,0-.213-.026-.637-.073-1.174-.9-1.172s-.848.719-.914,1.385Zm-13.318,4.431.016-3.043-.02-2.379-.036-1.024q.629.014,1.107.013c.362,0,1,0,1.34-.013v.841c.111-.168.171-.342.282-.388a5.573,5.573,0,0,1,2.118-.616,1.563,1.563,0,0,1,1.558.891,4.12,4.12,0,0,1,2-.857,1.473,1.473,0,0,1,1.421.732,2.113,2.113,0,0,1,.166.945c.015.3.011.485,0,.878s-.009,1.064-.008,2.016.01,1.621.024,2c-.351-.008-1.038-.013-1.366-.013-.4,0-.816,0-1.254.013q.02-.8.022-2.011c0-.806,0-1.648-.018-1.961a1.707,1.707,0,0,0-.114-.61.57.57,0,0,0-.233-.276.616.616,0,0,0-.3-.073.594.594,0,0,0-.293.068c-.089.051-.23.114-.229.237l.082,4.624c-.407-.008-1.092-.013-1.419-.013s-.729,0-1.181.013c.015-.375.027-1,.029-1.888s0-1.79-.015-2.09a1.868,1.868,0,0,0-.095-.569.8.8,0,0,0-.206-.3.408.408,0,0,0-.3-.114.623.623,0,0,0-.413.144.608.608,0,0,0-.263.418l-.018,4.4c-.461-.008-.93-.013-1.215-.013-.316,0-.709,0-1.176.013Zm25.845-6.6h2.452v6.76h-2.452v-6.76Zm28.787,5.213c.006-.514.008-1.1.008-1.712a2.775,2.775,0,0,0-1.7.927.724.724,0,0,0,.11.848,1.316,1.316,0,0,0,.856.219,2.3,2.3,0,0,0,.583-.207l.144-.075Zm-3.122-3.522.038-1.283a12.111,12.111,0,0,1,2.786-.421,4.367,4.367,0,0,1,1.242.168,1.871,1.871,0,0,1,.9.539,1.665,1.665,0,0,1,.364,1.067q.017.356-.01,1.59c-.018.825-.012,2.067.022,3.405h-2.257c.005-.079,0-.374,0-.5a3.552,3.552,0,0,1-1.659.5,2.9,2.9,0,0,1-1.19-.218,2.118,2.118,0,0,1-.854-2.44c.258-1.29,2.319-1.626,2.634-1.635a2.19,2.19,0,0,0,.713-.148.69.69,0,0,0,.366-.719c-.008-.456-.461-.5-.583-.5a6.7,6.7,0,0,0-2.514.59ZM203.673,384.3c0-.514.008-1.1.007-1.712a2.78,2.78,0,0,0-1.7.927.726.726,0,0,0,.11.848,1.318,1.318,0,0,0,.856.219,2.29,2.29,0,0,0,.583-.207c.042-.022.1-.048.144-.075Zm-3.123-3.522.038-1.283a12.113,12.113,0,0,1,2.786-.421,4.376,4.376,0,0,1,1.242.168,1.867,1.867,0,0,1,.9.539,1.665,1.665,0,0,1,.364,1.067q.017.356-.01,1.59c-.019.825-.012,2.067.022,3.405h-2.257c.006-.079,0-.374,0-.5a3.551,3.551,0,0,1-1.659.5,2.9,2.9,0,0,1-1.189-.218,2.118,2.118,0,0,1-.854-2.44c.258-1.29,2.319-1.626,2.633-1.635a2.209,2.209,0,0,0,.714-.148.692.692,0,0,0,.364-.719c-.007-.456-.461-.5-.582-.5a6.706,6.706,0,0,0-2.515.59Zm9.5-.8a5.024,5.024,0,0,1,2.087-.867,1.5,1.5,0,0,1,1.421.732,2.116,2.116,0,0,1,.166.945c.015.3.012.485,0,.878s-.009,1.064-.008,2.016.01,1.621.025,2c-.352-.008-1.039-.013-1.366-.013q-.6,0-1.254.013.021-.8.022-2.011c0-.806.074-1.8.059-2.117a1.68,1.68,0,0,0-.115-.61.57.57,0,0,0-.233-.276.61.61,0,0,0-.3-.073,2.049,2.049,0,0,0-.513.294c0,1.488-.006,3.2-.013,4.8-.46-.008-.93-.013-1.214-.013-.316,0-.814,0-1.281.013l.017-3.042-.02-2.379-.037-1.023c.42.008.892.013,1.212.013.363,0,1,0,1.341-.013,0,.231,0,.475,0,.728Zm-27.278-.887h2.452l1.02,1.826,1.231-1.826h1.493l-2.048,3.037L189,385.848H186.55l-.968-1.733-1.169,1.733H182.92l1.986-2.945-2.13-3.816Z" transform="translate(0 -4.6)"/></g></g></svg>