<svg xmlns="http://www.w3.org/2000/svg" width="94" height="94" viewBox="0 0 94 94"><defs><style>.a{fill:#fff;stroke:#b1b1b1;stroke-width:0.5px;}.b{fill:#c40200;}.c{stroke:none;}.d{fill:none;}</style></defs><g transform="translate(0.303 -0.029)"><g class="a" transform="translate(-0.303 0.029)"><rect class="c" width="94" height="94"/><rect class="d" x="0.25" y="0.25" width="93.5" height="93.5"/></g><g transform="translate(8.308 38.537)"><g transform="translate(0 0)"><path class="b" d="M318,149.935l7.964-.017h.411v2.519h-5v2.287h4.688v2.456H321.4v5.212h-3.341c0-.112,0-.232,0-.351q-.016-5.229-.034-10.458c0-.122-.018-.244-.027-.366Z" transform="translate(-318 -146.767)"/><path class="b" d="M447.948,179.41h-3.056c-.006-.1-.017-.192-.017-.287-.007-1.233-.011-2.466-.02-3.7a3.3,3.3,0,0,0-.04-.589.919.919,0,0,0-1.014-.806,1,1,0,0,0-1.123.786,2.533,2.533,0,0,0-.05.538c0,1.258,0,2.515.008,3.773,0,.1,0,.195,0,.311h-3.068c0-.1,0-.2,0-.291q-.006-1.85-.013-3.7a4.235,4.235,0,0,0-.03-.467.991.991,0,0,0-1.071-.929,1.013,1.013,0,0,0-1.108.956c-.032.755-.016,1.511-.017,2.267,0,.714,0,1.428,0,2.174H434.26v-7.716h2.905v1l.053.033a2.6,2.6,0,0,1,2.588-1.242,2.691,2.691,0,0,1,2.527,1.417c.051-.081.084-.133.116-.185a2.476,2.476,0,0,1,1.578-1.134,3.87,3.87,0,0,1,2.187.06A2.34,2.34,0,0,1,447.9,173.9c.041,1.487.037,2.975.051,4.462C447.95,178.7,447.948,179.036,447.948,179.41Z" transform="translate(-410.37 -163.904)"/><path class="b" d="M555.832,158.162l2.822,1.5a4.96,4.96,0,0,1-2.572,2.807,5.511,5.511,0,0,1-5.752-.422,5.405,5.405,0,0,1-2.082-3.361,7.4,7.4,0,0,1,.651-5.286,5.36,5.36,0,0,1,8.212-1.554,5.454,5.454,0,0,1,1.512,1.976l-2.766,1.533c-.126-.261-.232-.509-.363-.742a2,2,0,0,0-2.149-1.147,1.962,1.962,0,0,0-1.484,1.1,4.24,4.24,0,0,0-.435,2.125,4.979,4.979,0,0,0,.441,2.229,1.986,1.986,0,0,0,2.995.778,2.621,2.621,0,0,0,.85-1.215C555.75,158.381,555.787,158.282,555.832,158.162Z" transform="translate(-500.762 -147.287)"/><path class="b" d="M606.882,158.578c.752.78,1.493,1.524,2.205,2.294a11.915,11.915,0,0,1,1.715,2.308,4.366,4.366,0,0,1-.748,5.175,3.981,3.981,0,0,1-2.252.959,5.917,5.917,0,0,1-3.075-.319,3.61,3.61,0,0,1-2.24-3.011,4.645,4.645,0,0,1,.815-3.387A25.538,25.538,0,0,1,606.882,158.578Zm.019,3.812-.092,0c-.4.646-.816,1.289-1.21,1.941a2.136,2.136,0,0,0-.259,1.4,1.553,1.553,0,0,0,2.927.482,2.275,2.275,0,0,0,.143-1.078A7.622,7.622,0,0,0,606.9,162.39Z" transform="translate(-543.987 -153.648)"/><path class="b" d="M367.423,179.383H364.4l-.026-.579c-.12.075-.2.132-.293.183a4.227,4.227,0,0,1-3.419.422,2.244,2.244,0,0,1-1.642-2.035,2.371,2.371,0,0,1,1.353-2.465,7.2,7.2,0,0,1,2.074-.495c.526-.087,1.047-.2,1.572-.292.151-.028.2-.1.183-.255a.648.648,0,0,0-.553-.636,3.906,3.906,0,0,0-.856-.032.661.661,0,0,0-.612.524c-.022.072-.116.169-.181.172-.887.033-1.774.051-2.661.072a.2.2,0,0,1-.054-.019,2.348,2.348,0,0,1,1.471-2.074,6.861,6.861,0,0,1,4.934-.124,2,2,0,0,1,1.411,1.972c.036,1.511.031,3.024.043,4.536A1.547,1.547,0,0,0,367.423,179.383Zm-3.243-3.579c-.588.175-1.176.347-1.762.527a.857.857,0,0,0-.234.133.609.609,0,0,0-.3.672.682.682,0,0,0,.619.449A1.557,1.557,0,0,0,364.181,175.8Z" transform="translate(-350.583 -163.797)"/><path class="b" d="M504.79,173.5a2.492,2.492,0,0,1,1.879-2.271,7.292,7.292,0,0,1,4.319-.04,2.093,2.093,0,0,1,1.618,2c.036.6.03,1.2.034,1.8q.009,1.442.005,2.884a1.551,1.551,0,0,0,.261,1.018h-3v-.577c-.14.087-.231.149-.326.2a4.079,4.079,0,0,1-3.715.289,2.429,2.429,0,0,1,.215-4.443,16.13,16.13,0,0,1,2.182-.467c.41-.083.819-.168,1.231-.241.181-.032.247-.107.214-.3a.633.633,0,0,0-.534-.595,4.092,4.092,0,0,0-.9-.029.622.622,0,0,0-.568.505c-.021.07-.1.175-.154.177C506.634,173.451,505.724,173.475,504.79,173.5Zm4.894,1.831c-.567.163-1.118.317-1.665.484a1.252,1.252,0,0,0-.345.184.6.6,0,0,0-.284.653.672.672,0,0,0,.59.452A1.555,1.555,0,0,0,509.684,175.333Z" transform="translate(-466.19 -163.424)"/><path class="b" d="M648.529,171.108H651.4v.983a1.507,1.507,0,0,0,.132-.125,2.537,2.537,0,0,1,2.053-1.049,5.2,5.2,0,0,1,1.484.135,2.327,2.327,0,0,1,1.732,2.185,7.76,7.76,0,0,1,.046.91c.007,1.455.007,2.909.01,4.364,0,.1,0,.192,0,.309h-3.053c0-.091-.014-.186-.014-.28q-.012-1.824-.022-3.649c0-.115,0-.23,0-.345a1.053,1.053,0,0,0-1.563-1.033,1.024,1.024,0,0,0-.617,1.079c-.01.9,0,1.791,0,2.687,0,.509,0,1.018,0,1.551h-3.062Z" transform="translate(-580.609 -163.448)"/><path class="b" d="M631.152,136.238c.521,0,.981-.013,1.439.005a2.772,2.772,0,0,1,.749.117,1.427,1.427,0,0,1,1.013,1.537,1.462,1.462,0,0,1-1.258,1.325,5.71,5.71,0,0,1-.858.053c-.336.008-.672,0-1.037,0,0,.1-.008.186-.014.272a5.233,5.233,0,0,1-.041.589.918.918,0,0,1-.93.816.929.929,0,0,1-.93-.82c-.031-.168-.039-.341-.062-.551h-.308q-3,.015-5.991.032a2.035,2.035,0,0,1-1.413-.475.442.442,0,0,0-.246-.077,1.078,1.078,0,0,1-1.055-1.108,2.284,2.284,0,0,1,.094-.749.993.993,0,0,1,.939-.679.538.538,0,0,0,.286-.1,1.969,1.969,0,0,1,1.3-.456q3.045-.007,6.09-.024h.3c.02-.193.026-.365.059-.531a.913.913,0,0,1,1.011-.831.936.936,0,0,1,.87.937C631.168,135.751,631.152,135.981,631.152,136.238Zm-1.99.6a1.483,1.483,0,0,0-.149-.017c-2.112.008-4.224.012-6.337.029a.948.948,0,1,0,.038,1.9q3.107,0,6.214-.017c.078,0,.156-.013.234-.02Z" transform="translate(-558.107 -134.584)"/><path class="b" d="M403.573,179.737v-7.78h2.916v.633l.046.054a3.076,3.076,0,0,1,2.554-.81v2.55a3.687,3.687,0,0,0-.4,0,6.644,6.644,0,0,0-1.138.152,1.216,1.216,0,0,0-.892,1.152c-.039.482-.033.968-.033,1.452,0,.789.008,1.578.013,2.367,0,.12.01.231-.167.231C405.518,179.735,404.566,179.737,403.573,179.737Z" transform="translate(-385.989 -164.166)"/><path class="b" d="M393.911,151.371a.5.5,0,0,1,.69.3,5.367,5.367,0,0,0,.364.586c.14-.225.263-.422.386-.619.21-.339.235-.35.68-.27v2.1h-.442v-1.284l-.062-.029-.566.851-.563-.838-.053.016v1.3h-.435Z" transform="translate(-378.312 -147.883)"/><path class="b" d="M380.63,152.861l.491.716c-.45.1-.48.082-.725-.267-.147-.21-.246-.518-.637-.344v.637h-.465v-2.134c.4,0,.79-.023,1.179.007a.615.615,0,0,1,.585.513.7.7,0,0,1-.31.789Zm-.865-.973v.61c.2,0,.387.012.571,0a.3.3,0,0,0,0-.6C380.147,151.877,379.961,151.888,379.765,151.888Z" transform="translate(-366.699 -147.993)"/><path class="b" d="M450.358,153.27c-.447.047-.44.044-.621-.31a.381.381,0,0,0-.231-.15c-.1-.026-.214.008-.318-.008a.454.454,0,0,0-.593.366c-.069.256-.31.072-.5.144.027-.091.039-.152.062-.207.25-.6.506-1.192.75-1.792a.266.266,0,0,1,.288-.2c.153,0,.254.027.321.189C449.787,151.953,450.07,152.6,450.358,153.27Zm-.851-.887-.3-.717-.284.717Z" transform="translate(-421.365 -147.716)"/><path class="b" d="M365.148,153.615c-.427.042-.42.038-.593-.31a.382.382,0,0,0-.229-.157,2.847,2.847,0,0,0-.318-.008.455.455,0,0,0-.594.367c-.069.254-.308.076-.491.138a1.549,1.549,0,0,1,.049-.181c.26-.619.517-1.24.789-1.853a.305.305,0,0,1,.232-.142c.1,0,.266.043.3.115.3.648.57,1.306.848,1.962A.222.222,0,0,1,365.148,153.615Zm-.825-.895-.3-.712-.281.712Z" transform="translate(-353.693 -147.999)"/><path class="b" d="M411.94,153.4c-.435.081-.429.076-.61-.283a.413.413,0,0,0-.251-.162c-.108-.028-.23.009-.342-.008a.419.419,0,0,0-.536.346c-.075.268-.312.106-.524.151l.246-.592c.2-.484.4-.969.615-1.448a.281.281,0,0,1,.213-.133c.105,0,.274.033.306.1C411.363,152.046,411.647,152.724,411.94,153.4Zm-1.149-1.558-.271.684h.571c-.077-.188-.143-.352-.211-.515C410.862,151.972,410.837,151.932,410.791,151.846Z" transform="translate(-390.837 -147.845)"/><path class="b" d="M463.61,152.872l.251-.3a4.1,4.1,0,0,0,.485.2.619.619,0,0,0,.334-.006.272.272,0,0,0,.157-.185c.008-.052-.073-.149-.136-.176-.18-.076-.373-.122-.558-.187a.565.565,0,0,1-.457-.59.622.622,0,0,1,.515-.606,1.184,1.184,0,0,1,1.032.233l-.206.309a3.326,3.326,0,0,0-.589-.152c-.088-.007-.185.109-.278.169.069.078.124.189.211.229.177.081.376.113.559.184a.541.541,0,0,1,.379.57.589.589,0,0,1-.416.578A1.313,1.313,0,0,1,463.61,152.872Z" transform="translate(-433.689 -147.617)"/><path class="b" d="M426.912,151.433l-.218.257a4.151,4.151,0,0,0-.756-.135.58.58,0,0,0-.356.229.733.733,0,0,0,.052.928c.249.261.583.249,1.037-.061l.234.3a1.117,1.117,0,0,1-1.545.136,1.153,1.153,0,0,1-.123-1.629A1.179,1.179,0,0,1,426.912,151.433Z" transform="translate(-402.978 -147.704)"/><path class="b" d="M440.83,153.428h-.425v-2.137h.425Z" transform="translate(-415.252 -147.858)"/><path class="b" d="M693.161,203.5a.669.669,0,0,1-.692.674.679.679,0,0,1-.69-.656.688.688,0,0,1,.685-.69A.675.675,0,0,1,693.161,203.5Zm-1.213.007a.527.527,0,1,0,1.053-.006.525.525,0,0,0-.543-.541A.519.519,0,0,0,691.948,203.512Z" transform="translate(-614.971 -188.808)"/><path class="b" d="M692.6,204.022a.52.52,0,0,1,.51-.547.525.525,0,0,1,.543.541.527.527,0,1,1-1.053.006Zm.778.372a3.565,3.565,0,0,0,.02-.524.255.255,0,0,0-.158-.173,1.466,1.466,0,0,0-.354-.008v.67l.065.017.125-.337Z" transform="translate(-615.623 -189.319)"/><path class="b" d="M694.487,205.193l-.3-.355-.125.337-.065-.017v-.67a1.466,1.466,0,0,1,.354.008.254.254,0,0,1,.157.173A3.555,3.555,0,0,1,694.487,205.193Z" transform="translate(-616.732 -190.118)"/></g></g></g></svg>