<svg xmlns="http://www.w3.org/2000/svg" width="94" height="94" viewBox="0 0 94 94"><defs><style>.a{fill:#fff;stroke:#b1b1b1;stroke-width:0.5px;}.b{fill:#71993e;}.c{fill:#71993f;}.d{fill:#71983f;}.e{fill:#838482;}.f{fill:#838483;}.g{fill:#006dbf;}.h{fill:#848483;}.i{fill:#006ebf;}.j{fill:#858585;}.k{fill:#046ebb;}.l{fill:#036db8;}.m{fill:#016dbc;}.n{fill:#046db5;}.o{fill:#759447;}.p{fill:#016ebe;}.q{fill:#026db8;}.r{fill:#066bae;}.s{fill:#026ebb;}.t{fill:#6e8742;}.u{fill:#eef5e0;}.v{fill:#e8efd7;}.w{fill:#878787;}.x{fill:#718e44;}.y{fill:#0c69a9;}.z{fill:#0f6aa6;}.aa{fill:#6e8d42;}.ab{fill:#728747;}.ac{fill:#076aaf;}.ad{fill:#11679d;}.ae{fill:#6c8b45;}.af{fill:#0c6bad;}.ag{fill:#1b699c;}.ah{fill:#6e8743;}.ai{fill:#6f8743;}.aj{fill:#6d8743;}.ak{fill:#6e8b46;}.al{fill:#759846;}.am{fill:#096eb3;}.an{fill:#076cb0;}.ao{fill:#839861;}.ap{fill:#6d8644;}.aq{fill:#7f7f7f;}.ar{fill:#749948;}.as{fill:#1168a1;}.at{fill:#6d8c43;}.au{fill:#00609d;}.av{fill:#0e67a2;}.aw{fill:#03619b;}.ax{fill:#1c5f87;}.ay{fill:#0e68a1;}.az{fill:#0c66a3;}.ba{fill:#0d6bac;}.bb{fill:#0c68a3;}.bc{fill:#096db2;}.bd{fill:#87926e;}.be{fill:#96a180;}.bf{fill:#999f82;}.bg{fill:#0866a5;}.bh{fill:#0464a2;}.bi{fill:#086cb0;}.bj{fill:#0062a7;}.bk{fill:#3c6179;}.bl{fill:#0b649f;}.bm{fill:#466f87;}.bn{fill:#146595;}.bo{fill:#6d92aa;}.bp{fill:#7c7e7b;}.bq{fill:#7e90a1;}.br{fill:#196992;}.bs{fill:#637c89;}.bt{fill:#05619c;}.bu{fill:#d1e4b0;}.bv{fill:#185988;}.bw{fill:#7b9456;}.bx{fill:#0a67a5;}.by{fill:#c1daa0;}.bz{fill:#36749a;}.ca{fill:#0c5e97;}.cb{fill:#e2f3c5;}.cc{fill:#04619b;}.cd{fill:#0d669e;}.ce{fill:#9aa484;}.cf{fill:#005f9f;}.cg{fill:#909772;}.ch{fill:#15527e;}.ci{fill:#0e6599;}.cj{fill:#00649e;}.ck{fill:#056194;}.cl{fill:#0e69a3;}.cm{fill:#11659e;}.cn{fill:#7b7b7b;}.co{fill:#fefefd;}.cp{fill:#fefefe;}.cq{fill:#fdfdfd;}.cr{fill:#7c7c7c;}.cs{fill:#006fc1;}.ct{fill:#869a64;}.cu{fill:#778c54;}.cv{fill:#84915c;}.cw{fill:#ebf6d2;}.cx{stroke:none;}.cy{fill:none;}</style></defs><g transform="translate(-1075 -453)"><g class="a" transform="translate(1075 453)"><rect class="cx" width="94" height="94"/><rect class="cy" x="0.25" y="0.25" width="93.5" height="93.5"/></g><g transform="translate(1006.918 343.653)"><path class="b" d="M819.846,173.379q-.322,1.453-.642,2.906c-.1.442-.2.884-.276,1.329-.042.235-.145.332-.393.321-.393-.018-.788-.006-1.182,0-.15,0-.272-.005-.224-.221q.7-3.2,1.4-6.4c0-.007.027-.01.042-.014.752.055,1.5.011,2.257.024.179,0,.365-.025.505.129l.953,4.4,2.94-4.48a15.749,15.749,0,0,1,2.709,0c-.435,2.068-.877,4.136-1.3,6.207-.056.275-.146.385-.432.361a4.4,4.4,0,0,0-.909,0c-.46.057-.491-.15-.408-.518.265-1.163.514-2.33.765-3.5a3.617,3.617,0,0,0,.042-.361c.024-.1.026-.176-.111-.1-.914,1.376-1.834,2.748-2.737,4.131a.619.619,0,0,1-.66.343c-.413-.057-.943.189-1.214-.108-.239-.262-.216-.766-.3-1.165-.219-1.035-.433-2.072-.649-3.108-.074-.116-.056-.267-.142-.378,0-.061-.064.007,0,0,.014,0,.026.051.025.082A.185.185,0,0,1,819.846,173.379Z" transform="translate(-674.847 -20.856)"/><path class="b" d="M288.151,171.48c.6,1.116,1.092,2.287,1.632,3.434a4.142,4.142,0,0,0,.53.891c.215-.988.424-1.977.648-2.963a8.414,8.414,0,0,1,.369-1.515c.437.05.876.006,1.313.023.143.006.312-.054.4.132-.423,2.026-.85,4.051-1.265,6.079-.061.3-.178.427-.509.405a13.183,13.183,0,0,0-1.548,0,.494.494,0,0,1-.544-.349c-.676-1.47-1.368-2.933-2.055-4.4-.141-.136-.195-.021-.25.088l-.177.644a9.547,9.547,0,0,0-.407,2c-.115.577-.236,1.152-.34,1.731-.041.23-.16.291-.377.284-.379-.013-.759-.016-1.138,0-.263.011-.346-.06-.286-.336.432-1.993.851-3.988,1.276-5.982.006-.026.035-.047.053-.071.077-.1.106-.231.289-.228.72.012,1.441,0,2.161.007A.327.327,0,0,1,288.151,171.48Z" transform="translate(-190.483 -20.884)"/><path class="b" d="M550.873,171.3a4.885,4.885,0,0,1,1.548.31,1.24,1.24,0,0,1,.781,1.691,2.644,2.644,0,0,1-2.265,1.714c-.277.058-.561.082-.949.137l2.546,2.779c-.8,0-1.511,0-2.217,0-.182,0-.256-.148-.352-.255q-.959-1.066-1.908-2.141c-.119-.134-.224-.28-.414-.522-.212.972-.4,1.776-.557,2.587-.049.259-.129.352-.4.339-.5-.024-1-.007-1.54-.007.317-1.494.619-2.955.938-4.411a21.057,21.057,0,0,1,.489-2.159c.813-.086,1.629-.016,2.444-.038C549.634,171.31,550.254,171.355,550.873,171.3Z" transform="translate(-427.687 -20.86)"/><path class="b" d="M715.641,176.19c-.316.482-.643.957-.943,1.448a.5.5,0,0,1-.506.284c-.5-.022-1-.007-1.6-.007l2.511-3.642a.808.808,0,0,0,.34-.472l0,.005a2.007,2.007,0,0,0,.556-.827,12.48,12.48,0,0,1,1.2-1.7c.673.058,1.347.01,2.02.027.16,0,.337-.042.446.134.492,1.569.842,3.176,1.274,4.761.151.552.286,1.109.441,1.713-.618,0-1.205-.005-1.792,0-.234,0-.257-.156-.3-.322-.118-.468-.242-.935-.363-1.4a3.575,3.575,0,0,0-1.162-.051A13.442,13.442,0,0,0,715.641,176.19Z" transform="translate(-579.861 -20.841)"/><path class="b" d="M463.985,175.237a7.81,7.81,0,0,0-.277,1.144c-.086.295.029.4.341.4,1.109-.015,2.219.006,3.328-.014.326-.006.43.067.336.4-.271.941.04.8-.952.8-1.626.008-3.253,0-4.879.006-.289,0-.378-.036-.3-.369.452-2.053.875-4.113,1.31-6.169.008-.036.053-.064.081-.1,1.815.05,3.631.007,5.446.023.185,0,.413-.07.461.222-.182,1.009-.182,1.009-1.206,1.01-.939,0-1.879.008-2.818,0a.349.349,0,0,0-.408.305c-.3,1.165-.309,1.164.909,1.164h2.454c.561,0,.563,0,.44.56a2,2,0,0,1-.092.253c-.06.283-.255.323-.511.32-1.076-.01-2.153-.007-3.23,0C464.273,175.184,464.115,175.118,463.985,175.237Z" transform="translate(-351.723 -20.887)"/><path class="b" d="M640.111,171.425l.08-.048a.135.135,0,0,1,.059.063c.188-.237.526-.3.682-.571a.122.122,0,0,1,.075-.043,1.325,1.325,0,0,0,.8-.246,6.352,6.352,0,0,1,3.267-.046.454.454,0,0,0,.225-.006.18.18,0,0,1,.045,0c1.085.39,1.271.829.76,1.847-.106.212-.28.235-.475.059a3.316,3.316,0,0,0-3.792-.459,2.769,2.769,0,0,0-1.254,2.814,1.9,1.9,0,0,0,2.145,1.145,4.517,4.517,0,0,0,2.553-1.19c.091-.08.184-.158.279-.233.018-.014.052-.007.1-.011-.1.478-.195.949-.288,1.421a.731.731,0,0,1-.422.547,5.374,5.374,0,0,1-2.2.661,6.92,6.92,0,0,0-1.359,0c-1.434-.1-2.5-.835-2.633-1.932a4.187,4.187,0,0,1,1-3.421C639.941,171.722,640.017,171.565,640.111,171.425Z" transform="translate(-512.724 -19.988)"/><path class="c" d="M396.259,171.528c-.1.377-.014.889-.3,1.109-.3.233-.789.07-1.194.073-1.265.009-1.257.005-1.509,1.234-.261,1.272-.547,2.539-.809,3.811-.052.252-.154.357-.423.341a10.5,10.5,0,0,0-1.183,0c-.329.018-.319-.111-.261-.377.332-1.519.621-3.048.974-4.562.1-.434-.049-.455-.385-.446-.561.015-1.123,0-1.684.007-.247,0-.377-.037-.28-.33s.148-.58.22-.871a6.237,6.237,0,0,1,1.092-.032q2.622-.006,5.245,0A.924.924,0,0,1,396.259,171.528Z" transform="translate(-285.952 -21.015)"/><path class="b" d="M246.412,172.062c-.411,1.936-.83,3.871-1.224,5.81-.052.253-.14.33-.378.309-.181-.016-.365.006-.547-.005-.328-.02-.77.147-.947-.077-.13-.165.066-.6.131-.9q.507-2.4,1.024-4.791c.006-.027.034-.049.052-.073.235-.761.235-.761,1.085-.761h.271C246.388,171.57,246.388,171.57,246.412,172.062Z" transform="translate(-153.358 -21.104)"/><path class="d" d="M77.019,159.619a5.841,5.841,0,0,0-.932,3.437,5.4,5.4,0,0,0,4.292,4.933,7.723,7.723,0,0,0,2.257-.02c.165-.044.3-.038.295.185a5.619,5.619,0,0,1-7.142-2.436,6.907,6.907,0,0,1-.692-2.641,5.467,5.467,0,0,1,.149-1.286,5.582,5.582,0,0,1,2.332-3.475.812.812,0,0,0,.24-.2h0c.13.009.29-.191.385.036a.279.279,0,0,1-.156.341,7.885,7.885,0,0,0-1.03.976C76.971,159.5,77.084,159.563,77.019,159.619Z" transform="translate(-0.522 -8.81)"/><path class="e" d="M661.266,265.164q.272-1.354.543-2.708c.052-.261.162-.4.479-.389.847.041,1.7-.026,2.543.074.639.076,1,.293,1.057.682a1.2,1.2,0,0,1-.879,1.133c-.187.059-.382.092-.582.139a1.12,1.12,0,0,0,.443.175.816.816,0,0,1,.329,1.432,1.943,1.943,0,0,1-1.4.535,4.94,4.94,0,0,0-1.455.016h-.091a1.381,1.381,0,0,0-.683-.053.5.5,0,0,1-.492-.129l.058-.187A1.143,1.143,0,0,0,661.266,265.164Z" transform="translate(-533.042 -103.343)"/><path class="f" d="M867.437,269.961a3.287,3.287,0,0,1,1.158.19,1.144,1.144,0,0,1,.772,1.253,2.138,2.138,0,0,1-1.2,1.85,3.33,3.33,0,0,1-2.646.149,1.467,1.467,0,0,1-.639-2.087,2.4,2.4,0,0,1,2.286-1.354C867.255,269.954,867.346,269.961,867.437,269.961Z" transform="translate(-718.086 -110.515)"/><path class="e" d="M764.469,271.346a2.486,2.486,0,0,1,2.135-.656c.585.068,1.085.319.934,1.092-.136.7-.277,1.394-.458,2.081-.115.438-.508.207-.763.2-.272-.006-.1-.242-.085-.383.076-.6.289-1.176.321-1.787.024-.442-.173-.631-.6-.679a1.485,1.485,0,0,0-1.718,1.191c-.1.442-.186.889-.287,1.332a.69.69,0,0,1-.9.318c-.114-.086-.045-.19-.024-.288.2-.9.425-1.8.572-2.708.094-.577.5-.356.763-.339.361.022.015.3.09.451A.829.829,0,0,1,764.469,271.346Z" transform="translate(-625.65 -111.158)"/><path class="g" d="M164.335,190.862a2.509,2.509,0,0,1-.722.478c-.331-.051-.469.208-.646.4-.107.083-.257-.072-.355.063l-.072.085c-.292.083-.574.2-.858.3-.593.208-1.207.341-1.807.526l.009-.007c-.094.054-.186.049-.222-.059-.048-.144.051-.231.165-.285.424-.2.865-.368,1.281-.587a3.8,3.8,0,0,0,1.04-.638,3.118,3.118,0,0,0,1.385-1.54.373.373,0,0,0,0-.546l-.009-.093c.079-.179-.359-.5.157-.559-.029-.014-.067-.01-.09-.032-.161-.159-.014-.181.1-.218a.409.409,0,0,1,.126.015.564.564,0,0,0,.459.161,1.239,1.239,0,0,0,.516.029c.85.225,1.014.817.447,1.605a.583.583,0,0,0-.251.3l-.184.154C164.628,190.548,164.422,190.641,164.335,190.862Z" transform="translate(-77.365 -36.176)"/><path class="h" d="M819.885,271.65a1.446,1.446,0,0,0,2.106.541c.2-.1.389-.226.605-.354a.7.7,0,0,1-.537.825,3.008,3.008,0,0,1-2.127.117,1.082,1.082,0,0,1-.841-.954.725.725,0,0,0-.008-.443,2.568,2.568,0,0,1,3.649-1.931c.489.215.321.525.228.884a2.157,2.157,0,0,0-1.732-.471,1.545,1.545,0,0,0-1.335,1.24C819.84,271.285,819.746,271.466,819.885,271.65Z" transform="translate(-676.632 -109.835)"/><path class="e" d="M719.738,270.15a3.481,3.481,0,0,1,2.016-.106.716.716,0,0,1,.611.864c-.152.741-.318,1.479-.487,2.217a.621.621,0,0,1-.8.285c-.1-.072-.05-.162-.027-.243.034-.117.055-.215-.12-.2-.133.04-.149-.057-.173-.146.013-.275.289-.414.35-.664.02-.082.094-.172.005-.247-.062-.052-.143-.012-.214.008-.374.106-.743.229-1.125.307-.169-.018-.377-.152-.441.148a.157.157,0,0,1-.1.064c-.136-.138-.489-.052-.42-.4a7.023,7.023,0,0,1,1.7-.529,6.557,6.557,0,0,0,.684-.22c.164-.069.344-.174.331-.386-.014-.236-.221-.32-.41-.361a2.858,2.858,0,0,0-1.292.07c-.062-.05-.1-.151-.059-.184C719.931,270.3,719.71,270.241,719.738,270.15Z" transform="translate(-585.502 -110.5)"/><path class="i" d="M150.667,154.7a.984.984,0,0,1-.421.363.845.845,0,0,0-.41.3l-.187.129a10.8,10.8,0,0,1-1.867.8c-.146-.087-.378-.075-.384-.327.022-.143.159-.176.246-.257l.263-.13c.4-.04.626-.454,1.041-.488.114-.009.03-.223.119-.313a1.582,1.582,0,0,0,.479-.682l.026-.5a.911.911,0,0,1,1.45-.305.968.968,0,0,1-.108,1.09C150.83,154.482,150.7,154.554,150.667,154.7Z" transform="translate(-66.231 -4.27)"/><path class="j" d="M713.588,292.825c.065.236.38.166.463.379.18.507.368.6.955.5.2-.033.372-.208.6-.129a.183.183,0,0,0,.1.181,1.879,1.879,0,0,1-1.945.549c-.339-.081-.672-.223-.7-.613A.819.819,0,0,1,713.588,292.825Z" transform="translate(-580.278 -131.296)"/><path class="k" d="M143.16,148.782l-.589-.34a3.31,3.31,0,0,1,1.236-.048c.225.062.482.092.541.342a.592.592,0,0,1-.276.659,1.009,1.009,0,0,0-.545.362,1.552,1.552,0,0,1-.47.34.359.359,0,0,1-.451-.083c-.109-.157.114-.212.16-.327.119-.164.329-.257.375-.479l-.008.015A.359.359,0,0,0,143.16,148.782Z" transform="translate(-61.844)"/><path class="l" d="M168.943,239.264l.1-.065a1.634,1.634,0,0,0,.722-.3,7.871,7.871,0,0,0,1.655-1.062c.078-.031.113.019.143.077.079.241.21.239.393.1.115-.088.2-.274.4-.156a.2.2,0,0,1-.026.182,5.217,5.217,0,0,1-2.289,1.239c-.213-.051-.39.1-.593.107C169.283,239.343,169.032,239.662,168.943,239.264Z" transform="translate(-85.81 -81.304)"/><path class="m" d="M137.6,202.96a9.534,9.534,0,0,1-2.2.855c-.183-.074-.325.1-.5.084a7.8,7.8,0,0,0-1.141.308h0a.671.671,0,0,1-.222.023c-.142,0-.358.108-.408-.052-.071-.224.215-.185.325-.286.239-.11.49-.19.736-.283a4.5,4.5,0,0,0,.761-.354c.288,0,.482-.288.78-.264.134.188-.052.285-.188.457.6-.164,1.043-.49,1.556-.653.145-.046.278-.126.435-.054a.275.275,0,0,1,.087.1A.147.147,0,0,1,137.6,202.96Z" transform="translate(-53.259 -49.403)"/><path class="n" d="M167.489,153.973a6.7,6.7,0,0,0,.38-.959c.037-.3-.043-.431-.33-.512a.9.9,0,0,0-1.145.368,1.77,1.77,0,0,0-.486-.439.209.209,0,0,1,.109-.178l.091,0a6.723,6.723,0,0,0,1.27.012c.248.085.533.11.649.405.079.151.007.32.058.474l-.107.359a3.067,3.067,0,0,1,1.693.085c.055.092,0,.152-.062.21-.094.051-.194.016-.292.02a1.087,1.087,0,0,1-.348-.022c-.058-.011-.116-.026-.173-.041a1.272,1.272,0,0,0-.48-.042c-.212.017-.047.142-.047.22a1.114,1.114,0,0,1,.047.127,1.339,1.339,0,0,1,.055.834c-.043.13-.072.423-.337.171a1.64,1.64,0,0,0,.038-.934C167.929,153.726,167.819,153.7,167.489,153.973Z" transform="translate(-83.053 -3.546)"/><path class="o" d="M77.3,158.821c-.149.373-.531.516-.79.782a5.416,5.416,0,0,0-1.564,2.286,5.618,5.618,0,0,0,.359,4.347c.038.07.06.14-.033.188a5.607,5.607,0,0,1,.345-6.116A4.608,4.608,0,0,1,77.3,158.821Z" transform="translate(0 -9.518)"/><path class="p" d="M196.85,223.615c-.136.119-.274.237-.409.357a.232.232,0,0,1-.288.061c-.127-.073-.222-.166-.126-.328a2.07,2.07,0,0,1,.121-.283.4.4,0,0,0-.126-.638c-.063-.039-.129-.08-.087-.173.088-.343.24-.573.64-.361l-.38.288a1.688,1.688,0,0,0,.741.092c.407.227.375.544.185.895v0C197.036,223.566,196.969,223.665,196.85,223.615Z" transform="translate(-110.328 -67.086)"/><path class="q" d="M123.326,159.95c0,.117-.088.181-.182.26.394.194.609-.024.821-.261.167-.187.34-.371.633-.295a5.129,5.129,0,0,1-2.6,1.49c-.221.031-.437.091-.657.13-.076.014-.16.014-.193-.065s.041-.134.107-.163c.15-.067.3-.143.443-.214a1.847,1.847,0,0,0,.712-.347l.8-.541A.065.065,0,0,1,123.326,159.95Z" transform="translate(-42.371 -10.259)"/><path class="r" d="M146.215,220.911c-.128.328-.439.429-.716.563-.5.242-1.015.464-1.517.708-.126.061-.4.16-.032.3a2.574,2.574,0,0,1-1.369.359c-.171-.012-.434.225-.465-.17A20.764,20.764,0,0,0,146.215,220.911Z" transform="translate(-61.431 -65.943)"/><path class="m" d="M168.085,172.152c.291.081.227-.164.256-.3a2.74,2.74,0,0,0-.086-.8c.466.106.249.486.3.757a1.067,1.067,0,0,1-.039.291,1.6,1.6,0,0,1-.106.255,2.72,2.72,0,0,1-1.017.969c-.074.051-.156.091-.227.142-.023.016-.195-.128-.1.1a.266.266,0,0,1-.333.371c-.284-.066-.457.347-.749.137-.071-.105.045-.151.071-.225A6.512,6.512,0,0,0,168.085,172.152Z" transform="translate(-83.104 -20.637)"/><path class="o" d="M95.867,153.694c-.109-.211.063-.348.168-.46a6.974,6.974,0,0,1,.744-.66c.112-.09.237-.191.2-.325-.045-.183-.239.118-.321-.06a3.6,3.6,0,0,1,1.536-.629c.111-.007.254-.123.3.089a6.672,6.672,0,0,0-2.333,1.708C96.065,153.471,95.965,153.582,95.867,153.694Z" transform="translate(-19.37 -2.886)"/><path class="s" d="M184.068,187.369a2.03,2.03,0,0,0-.177.729c-.1-.188-.207-.211-.378-.072a4.293,4.293,0,0,1-1.058.63c-.133.019-.233.192-.393.081v0c.094-.471.493-.553.86-.677.322-.17.418-.574.757-.729C183.819,187.264,183.967,187.056,184.068,187.369Z" transform="translate(-97.73 -35.309)"/><path class="t" d="M398.773,171.013,391.945,171c.066-.125.185-.081.283-.081q3.143,0,6.285,0C398.6,170.92,398.734,170.851,398.773,171.013Z" transform="translate(-288.466 -20.5)"/><path class="u" d="M927.9,229.27l-.1-.2a.493.493,0,0,1,0-.611.8.8,0,0,1,.366-.467.353.353,0,0,1,.1.316,3.9,3.9,0,0,0-.082.528c.115-.062.188-.206.329-.151.143.076.184.272.36.311.068.044.164.071.112.186l-.2.1A.741.741,0,0,1,927.9,229.27Z" transform="translate(-775.34 -72.381)"/><path class="v" d="M932.911,226.535q-.005-.2-.011-.392a.291.291,0,0,1,.162-.185c.2.008.4.008.6,0l.428.44c-.073.122.021.284-.1.394.037.246-.128.389-.276.541-.04-.082-.118-.093-.2-.1-.1-.171-.2-.344-.068-.544.043-.093.174-.168.059-.293C933.268,226.253,933.106,226.466,932.911,226.535Z" transform="translate(-780.064 -70.53)"/><path class="t" d="M482.979,171.261c-.121-.212-.327-.179-.521-.179q-2.451,0-4.9,0c-.161,0-.335.051-.483-.064q2.853-.014,5.705-.032C483,170.982,483.034,171.079,482.979,171.261Z" transform="translate(-365.826 -20.571)"/><path class="s" d="M204.634,167.083l.1-.2c.211.051.3.243.443.376a1.311,1.311,0,0,1-.016.915c-.05.279-.323.433-.4.7.138.081.313-.008.434.114-.041.081-.148.034-.2.1a.451.451,0,0,1-.456-.182c-.1-.123-.034-.239.013-.356.079-.158.215-.282.28-.45.031-.069.065-.138.095-.207a.681.681,0,0,0,.046-.221.474.474,0,0,0-.2-.4A.6.6,0,0,1,204.634,167.083Z" transform="translate(-118.114 -16.846)"/><path class="w" d="M721.171,272.221c.331.093,0,.315.088.454l-.876.358C720.343,272.416,720.779,272.34,721.171,272.221Z" transform="translate(-586.935 -112.572)"/><path class="x" d="M672.852,169.848c-.127.1-.252.037-.386.008A6.185,6.185,0,0,0,669.3,170c-.107.046-.22.117-.268-.068A6.308,6.308,0,0,1,672.852,169.848Z" transform="translate(-540.273 -19.307)"/><path class="y" d="M142.613,180.111a7.68,7.68,0,0,0,1.647-.7c.087-.05.156-.161.269-.046a8.943,8.943,0,0,1-2.731,1.222.141.141,0,0,1-.032-.12c.079-.149.233-.18.371-.236A1.723,1.723,0,0,1,142.613,180.111Z" transform="translate(-61.111 -28.142)"/><path class="z" d="M114.038,172.212l-.672.346c.382.027.632-.133.9-.061a4.672,4.672,0,0,1-1.6.354.153.153,0,0,1-.007-.2l1.376-.52q.046.028.031.056C114.058,172.2,114.048,172.212,114.038,172.212Z" transform="translate(-34.632 -21.611)"/><path class="aa" d="M488.208,210.419c.041-.2.2-.094.293-.095,1.1-.01,2.207-.014,3.31,0a.587.587,0,0,0,.567-.278c.053.366-.179.38-.447.378C490.69,210.418,489.449,210.42,488.208,210.419Z" transform="translate(-375.946 -56.069)"/><path class="t" d="M565.085,171.049c-.1.093-.227.068-.346.068q-1.978,0-3.955-.005c.038-.082.113-.089.189-.088Z" transform="translate(-441.899 -20.608)"/><path class="l" d="M154.173,171.012c.019.233.015.428-.3.477a.727.727,0,0,0-.484.29c-.087.117-.258.236-.411.033.336-.381.832-.553,1.189-.906Q154.239,170.955,154.173,171.012Z" transform="translate(-71.302 -20.501)"/><path class="ab" d="M258.866,171.54c-.031-.359-.208-.524-.58-.45a1.659,1.659,0,0,1-.314,0c-.694,0-.694,0-.9.695,0,.013-.012.035-.017.035a.5.5,0,0,1-.077-.013,1.376,1.376,0,0,1,.007-.179c.107-.635.107-.635.743-.634h.719C258.975,171,258.975,171,258.866,171.54Z" transform="translate(-165.811 -20.582)"/><path class="ac" d="M123.282,215.644c-.057.129-.268.05-.3.222.181.148.4-.077.577.057-.121.118-.277.08-.422.1-.187.085-.406-.035-.586.091l.007,0c-.23.011-.487.176-.666-.114v0a1.7,1.7,0,0,0,.564-.17,1.16,1.16,0,0,1,.6-.193A.208.208,0,0,1,123.282,215.644Z" transform="translate(-43.056 -61.121)"/><path class="ad" d="M111.643,194.9a4.924,4.924,0,0,1-1.665.252c-.057-.057-.167,0-.207-.1a3.73,3.73,0,0,1,.934-.279.1.1,0,0,1,.041.082c.252.055.485-.13.739-.06A.239.239,0,0,1,111.643,194.9Z" transform="translate(-32.037 -42.187)"/><path class="ae" d="M745.968,224.13c.064-.032.129-.092.193-.092.965-.006,1.93,0,2.9,0a.215.215,0,0,1,.191.1Z" transform="translate(-610.188 -68.781)"/><path class="af" d="M162.5,253.7c.174.252.373.02.56.028.034.036.092.045.108.1a3.479,3.479,0,0,1-1.117.247c-.066-.058-.25,0-.185-.185A1.465,1.465,0,0,1,162.5,253.7Z" transform="translate(-79.372 -95.743)"/><path class="r" d="M162.118,232.561a6.81,6.81,0,0,1,1.819-.565c.022.018.029.036.022.054s-.014.027-.021.027A5.3,5.3,0,0,1,162.118,232.561Z" transform="translate(-79.608 -76.017)"/><path class="ag" d="M132.139,240.187c.072.284.309.116.465.17a4.221,4.221,0,0,1-1.3.216c-.079,0-.184.034-.165-.112Z" transform="translate(-51.454 -83.46)"/><path class="ah" d="M908.639,171.01l-2.709,0c.07-.148.208-.1.319-.1q1.066-.008,2.133,0C908.469,170.918,908.6,170.848,908.639,171.01Z" transform="translate(-755.555 -20.498)"/><path class="ai" d="M301.561,171.171a12.045,12.045,0,0,0-2.423-.071c-.084,0-.17.107-.255.165-.009-.175.039-.279.25-.277.725.009,1.45,0,2.175,0C301.441,170.99,301.55,171.008,301.561,171.171Z" transform="translate(-203.893 -20.575)"/><path class="aj" d="M835.745,171.188a7.376,7.376,0,0,0-1.654-.085,3.523,3.523,0,0,1-1.108-.068q1.256-.013,2.512-.026C835.627,171.008,835.736,171.025,835.745,171.188Z" transform="translate(-689.263 -20.594)"/><path class="ah" d="M765.458,171.2a4.418,4.418,0,0,0-1.348-.09,3.651,3.651,0,0,1-1.118-.07l2.23-.024C765.352,171.01,765.47,171.018,765.458,171.2Z" transform="translate(-625.658 -20.596)"/><path class="ak" d="M307.373,202.078c-.136-.425.1-.81.154-1.211.038-.263.005-.579.253-.785A18.986,18.986,0,0,1,307.373,202.078Z" transform="translate(-211.572 -47.015)"/><path class="al" d="M655.595,176.127c0,.18.022.373-.255.359-.127-.006-.142.058-.17.185-.044.2-.13.187-.316-.037A1.775,1.775,0,0,1,655.595,176.127Z" transform="translate(-527.387 -25.245)"/><path class="am" d="M192.474,227.01c.513.415.518.48.092,1.094l-.086-.089c.366-.563.3-.728-.366-.9C192.2,226.961,192.348,227.025,192.474,227.01Z" transform="translate(-106.866 -71.485)"/><path class="ac" d="M140.123,215.4c.329-.33.78-.273,1.182-.372q.076.048,0,.1A3.5,3.5,0,0,1,140.123,215.4Z" transform="translate(-59.62 -60.6)"/><path class="an" d="M138.876,182.27c.007.134-.135.16-.184.253a.642.642,0,0,1-.425.272c-.166.034-.312.166-.5.1a.091.091,0,0,1,.005-.116A4.589,4.589,0,0,1,138.876,182.27Z" transform="translate(-57.463 -30.828)"/><path class="ao" d="M158.077,264.132a.327.327,0,0,0-.295-.185l.972-.29A1.132,1.132,0,0,1,158.077,264.132Z" transform="translate(-75.668 -104.79)"/><path class="ap" d="M364.8,171.2a3.263,3.263,0,0,0-1.145-.089c-.188-.02-.389.058-.565-.066.5-.009,1-.02,1.5-.028C364.708,171.014,364.85,171,364.8,171.2Z" transform="translate(-262.244 -20.6)"/><path class="aq" d="M674.964,306.439c.148-.275.39-.092.561-.075.3.029.619-.228.894.059A8.824,8.824,0,0,1,674.964,306.439Z" transform="translate(-545.662 -143.528)"/><path class="aq" d="M660.991,305.965c.366.228.827-.162,1.176.181-.311.006-.622.015-.934.017C661.1,306.164,660.943,306.187,660.991,305.965Z" transform="translate(-532.956 -143.237)"/><path class="ar" d="M744.359,189.9c-.042.372-.146.7-.556.827A3.955,3.955,0,0,1,744.359,189.9Z" transform="translate(-608.22 -37.763)"/><path class="al" d="M664.277,173.306c.073.086.173.064.268.068a.565.565,0,0,1-.745.146Z" transform="translate(-535.516 -22.682)"/><path class="as" d="M118.362,219.845c.194.2.446.063.666.114-.2.137-.445.059-.658.137-.117-.06-.331.108-.363-.153A.528.528,0,0,1,118.362,219.845Z" transform="translate(-39.522 -64.974)"/><path class="at" d="M668.015,243.91a2.669,2.669,0,0,1,1.359,0A5.938,5.938,0,0,1,668.015,243.91Z" transform="translate(-539.347 -86.766)"/><path class="an" d="M133.565,191.566l.006.111a3.217,3.217,0,0,1-.825.235.135.135,0,0,1-.028-.133A.794.794,0,0,1,133.565,191.566Z" transform="translate(-52.883 -39.232)"/><path class="au" d="M169.37,151.915a2.467,2.467,0,0,1-1.27-.012A5.009,5.009,0,0,1,169.37,151.915Z" transform="translate(-85.044 -3.2)"/><path class="av" d="M134.855,212.282l-.225-.014a3.617,3.617,0,0,1,.951-.364.063.063,0,0,1,.025.067c-.007.023-.014.034-.022.034Z" transform="translate(-54.628 -57.759)"/><path class="aw" d="M211.843,171.921q.008-.458.016-.915C212.126,171.316,211.991,171.619,211.843,171.921Z" transform="translate(-124.796 -20.591)"/><path class="ax" d="M112.711,220.918c.077.154.261.057.362.153l-.529.049c-.133.015-.293.139-.366-.091Z" transform="translate(-34.225 -65.95)"/><path class="ay" d="M207.222,228.119a.758.758,0,0,0-.185-.895C207.512,227.424,207.558,227.647,207.222,228.119Z" transform="translate(-120.429 -71.68)"/><path class="az" d="M153.9,204.4c-.294.027-.505.3-.816.275l0-.058.821-.382a.1.1,0,0,1,.047.081l-.012.048Z" transform="translate(-71.399 -50.786)"/><path class="ba" d="M145.781,208.418q0,.029,0,.058a1.829,1.829,0,0,1-.735.361q0-.05,0-.1Z" transform="translate(-64.095 -54.59)"/><path class="bb" d="M182.056,229.451c0-.027,0-.054,0-.081a1.666,1.666,0,0,1,.845-.264A2.691,2.691,0,0,1,182.056,229.451Z" transform="translate(-97.726 -73.39)"/><path class="aq" d="M661.848,296.02a.527.527,0,0,1-.13.72A1.681,1.681,0,0,1,661.848,296.02Z" transform="translate(-533.625 -134.199)"/><path class="bc" d="M210.931,213.446c-.057-.374.251-.359.469-.439A1.07,1.07,0,0,1,210.931,213.446Z" transform="translate(-123.961 -58.76)"/><path class="af" d="M170.79,249.67c-.2.19-.395.407-.722.3Z" transform="translate(-86.833 -92.078)"/><path class="bd" d="M929.894,241.974a1.319,1.319,0,0,0,.889.011A.564.564,0,0,1,929.894,241.974Z" transform="translate(-777.332 -85.084)"/><path class="be" d="M926.969,233.112a1.159,1.159,0,0,0,0,.611C926.712,233.472,926.713,233.31,926.969,233.112Z" transform="translate(-774.499 -77.031)"/><path class="bf" d="M935.284,225.012a.553.553,0,0,1-.6,0A.527.527,0,0,1,935.284,225.012Z" transform="translate(-781.684 -69.583)"/><path class="bg" d="M166.013,165.262l-.006-.106.451-.577A.809.809,0,0,1,166.013,165.262Z" transform="translate(-83.142 -14.75)"/><path class="bh" d="M128.087,169.324c0-.028,0-.056,0-.084a1.767,1.767,0,0,1,.639-.29C128.613,169.246,128.312,169.221,128.087,169.324Z" transform="translate(-48.682 -18.724)"/><path class="bi" d="M131.378,187.883l.006.105a.569.569,0,0,1-.649.286.09.09,0,0,1,0-.124A1.816,1.816,0,0,1,131.378,187.883Z" transform="translate(-51.067 -35.929)"/><path class="bj" d="M202.226,198.047c.26.182.259.364,0,.546Z" transform="translate(-116.057 -45.165)"/><path class="ar" d="M740.458,198.907c-.019.225,0,.475-.341.472A1.459,1.459,0,0,1,740.458,198.907Z" transform="translate(-604.871 -45.947)"/><path class="bi" d="M120.011,192.994,120,192.88a.884.884,0,0,1,.526-.169.111.111,0,0,1,.133,0C120.53,193,120.268,192.992,120.011,192.994Z" transform="translate(-41.337 -40.297)"/><path class="al" d="M650.52,182.219c-.016.216-.038.426-.348.354A.8.8,0,0,1,650.52,182.219Z" transform="translate(-523.132 -30.781)"/><path class="bk" d="M153.228,257.227a.729.729,0,0,1-.608,0l.5-.1C153.162,257.153,153.219,257.162,153.228,257.227Z" transform="translate(-70.977 -98.858)"/><path class="bl" d="M144.02,158.273l-.106-.006.448-.477C144.395,158.054,144.183,158.146,144.02,158.273Z" transform="translate(-63.065 -8.581)"/><path class="bm" d="M103.15,179.321a1.08,1.08,0,0,1-.727.036l.523-.134C103,179.277,103.116,179.218,103.15,179.321Z" transform="translate(-25.36 -28.059)"/><path class="bn" d="M158.171,256l-.112-.1a.656.656,0,0,1,.36-.123l.185.185Z" transform="translate(-75.919 -97.633)"/><path class="bo" d="M109.734,222.138c.1.128.249.038.366.091a1.182,1.182,0,0,1-.611.073C109.516,222.147,109.621,222.136,109.734,222.138Z" transform="translate(-31.781 -67.058)"/><path class="bp" d="M826.342,290.519c-.292-.186-.1-.365.007-.545Q826.346,290.247,826.342,290.519Z" transform="translate(-683.089 -128.705)"/><path class="bq" d="M101.82,198.243a.936.936,0,0,1-.64.047l.456-.144C101.684,198.2,101.789,198.154,101.82,198.243Z" transform="translate(-24.23 -45.255)"/><path class="br" d="M108.355,178.052l-.2-.1.444-.127q0,.1.007.2Z" transform="translate(-30.564 -26.79)"/><path class="bs" d="M120.312,244.563c-.112.168-.254.14-.528.091Z" transform="translate(-41.137 -87.437)"/><path class="bt" d="M175.192,253.307l-.108-.1c.184.057.356-.191.544-.02A.793.793,0,0,1,175.192,253.307Z" transform="translate(-91.391 -95.219)"/><path class="as" d="M122.473,218.01a.565.565,0,0,1-.564.17A1.053,1.053,0,0,1,122.473,218.01Z" transform="translate(-43.068 -63.307)"/><path class="bu" d="M846.969,192.079c0-.079-.02-.229.062-.2.162.055.11.236.112.375Z" transform="translate(-701.97 -39.556)"/><path class="bv" d="M163.9,152.076a.208.208,0,0,1-.109.178c-.093-.019-.253-.01-.2-.142C163.619,152.019,163.786,152.066,163.9,152.076Z" transform="translate(-80.932 -3.37)"/><path class="bw" d="M122.052,150.821c-.078-.1-.2-.069-.3-.089.107-.1.245-.084.376-.09.089-.025.193-.086.194.086Z" transform="translate(-42.926 -2.057)"/><path class="bx" d="M162.081,201.966c0-.025,0-.05,0-.075l.448-.235-.084.217-.034.051C162.308,202,162.206,202.07,162.081,201.966Z" transform="translate(-79.573 -48.445)"/><path class="as" d="M129.113,220.049c.171-.188.388-.074.586-.092C129.519,220.089,129.311,220.038,129.113,220.049Z" transform="translate(-49.614 -65.06)"/><path class="by" d="M909.863,192.971c.007-.1.072-.233.132-.2.117.072.063.2-.021.3Z" transform="translate(-759.129 -40.368)"/><path class="bz" d="M129.518,243.2l.165.112c-.114.039-.249.139-.325-.023C129.327,243.216,129.446,243.2,129.518,243.2Z" transform="translate(-49.833 -86.195)"/><path class="ca" d="M174.122,175.419a.38.38,0,0,1,.409-.3A1,1,0,0,1,174.122,175.419Z" transform="translate(-90.517 -24.325)"/><path class="cb" d="M314.171,189.96c-.01-.119.009-.274.1-.3s.118.125.146.216Z" transform="translate(-217.786 -37.537)"/><path class="cc" d="M153.081,214.286l0-.1c.153.016.3-.184.456-.02A.893.893,0,0,1,153.081,214.286Z" transform="translate(-71.394 -59.755)"/><path class="cd" d="M125.889,191.013l-.12-.012a.81.81,0,0,1,.477-.193l.006.111C126.155,191.044,126.045,191.12,125.889,191.013Z" transform="translate(-46.575 -38.587)"/><path class="ce" d="M944.9,231.177c.026-.133-.048-.291.1-.394C945.043,230.933,945.133,231.095,944.9,231.177Z" transform="translate(-790.972 -74.914)"/><path class="cf" d="M210.066,190.024c.041-.081.12-.088.2-.1l.346.044C210.437,190.077,210.247,190,210.066,190.024Z" transform="translate(-123.181 -37.782)"/><path class="bl" d="M148.763,153.118c.181.158.14.3-.027.441Q148.749,153.339,148.763,153.118Z" transform="translate(-67.447 -4.336)"/><path class="cg" d="M126.069,150.187l-.194-.086c.123-.121.272-.076.426-.081C126.268,150.161,126.155,150.154,126.069,150.187Z" transform="translate(-46.672 -1.515)"/><path class="ch" d="M106.365,197.957l-.183-.1.327-.029.207.1Z" transform="translate(-28.776 -44.969)"/><path class="ci" d="M206.09,237.093l.272-.093a.584.584,0,0,1-.268.294Q206.092,237.193,206.09,237.093Z" transform="translate(-119.568 -80.564)"/><path class="cj" d="M128.531,193.993q0,.037,0,.074l-.255.027-.2-.01C128.176,193.8,128.351,193.881,128.531,193.993Z" transform="translate(-48.671 -41.387)"/><path class="ck" d="M189.1,157.292c-.111-.147-.049-.315-.058-.474C189.186,156.96,189.12,157.129,189.1,157.292Z" transform="translate(-104.063 -7.698)"/><path class="cl" d="M218.145,208.3a.252.252,0,0,1,.251-.3A.55.55,0,0,1,218.145,208.3Z" transform="translate(-130.522 -54.211)"/><path class="cm" d="M182.072,203.227l.393-.081a.679.679,0,0,1-.384.21Z" transform="translate(-97.741 -49.799)"/><path class="cn" d="M819.083,293.019a.339.339,0,0,1,.008.443Q819.087,293.241,819.083,293.019Z" transform="translate(-676.632 -131.472)"/><path class="co" d="M576.449,185.109a6.143,6.143,0,0,1,1.314.079c.29.072.575.152.625.5a.768.768,0,0,1-.435.785,2.2,2.2,0,0,1-1.1.242c-.53.028-1.063,0-1.594.01-.288.008-.391-.1-.326-.379,0-.015.006-.03.009-.045C575.156,185.106,575.156,185.106,576.449,185.109Z" transform="translate(-454.744 -33.408)"/><path class="co" d="M755.906,184.383c.163.733.328,1.465.488,2.2.04.185.012.324-.236.321-.63-.008-1.259,0-2.018,0l1.646-2.558Z" transform="translate(-617.614 -32.711)"/><path class="cp" d="M674.031,289.148c-.943,0-.925.006-.8-.847.054-.361.2-.486.56-.455s.731-.014,1.092.02c.283.027.594.094.632.466a.66.66,0,0,1-.473.7A2.821,2.821,0,0,1,674.031,289.148Z" transform="translate(-544.033 -126.767)"/><path class="cq" d="M678.149,270.17c-.8,0-.784,0-.683-.78.041-.316.161-.451.494-.42a8.634,8.634,0,0,1,1.269.066c.23.056.468.136.474.411a.6.6,0,0,1-.394.561A2.9,2.9,0,0,1,678.149,270.17Z" transform="translate(-547.892 -109.613)"/><path class="cp" d="M874.7,278.483c-.4-.161-.728-.386-.728-.872a1.441,1.441,0,0,1,.631-1.373,2.093,2.093,0,0,1,1.837-.152.717.717,0,0,1,.451.419,1.418,1.418,0,0,1-.3,1.4,1.456,1.456,0,0,1-1.257.607A.945.945,0,0,1,874.7,278.483Z" transform="translate(-726.511 -115.954)"/><path class="cr" d="M881.951,303.779l.631.03A.51.51,0,0,1,881.951,303.779Z" transform="translate(-733.764 -141.25)"/><path class="i" d="M192.263,176.872l-.091.365h-.092c-.408-.176-.506.247-.711.412-.13.1-.217.3-.384.408-.217-.146-.052-.279.014-.416.147-.307.339-.61.078-.951v-.274c.074-.143.1-.348.295-.364.17-.014.169.185.24.292a.884.884,0,0,0,.456.355C192.147,176.728,192.305,176.7,192.263,176.872Z" transform="translate(-105.743 -25.177)"/><path class="cq" d="M725.1,290.53a1.7,1.7,0,0,1-1.067.282c-.489-.026-.6-.177-.485-.655h0c.082-.2.286-.206.449-.277.451-.128.9-.254,1.353-.383.207-.059.273-.021.219.217A1.808,1.808,0,0,1,725.1,290.53Z" transform="translate(-589.778 -128.25)"/><path class="j" d="M724.414,292.533l-.449.277c0-.03,0-.06,0-.09C723.993,292.366,724.137,292.29,724.414,292.533Z" transform="translate(-590.192 -130.902)"/><path class="cs" d="M142.84,185.226l.455-.184c-.026.209.278.086.274.273a.529.529,0,0,1-.456.183C142.859,185.57,142.765,185.482,142.84,185.226Z" transform="translate(-62.066 -33.347)"/><path class="i" d="M161.891,183.031c.269-.02.314.147.257.348-.077.27-.084.575-.33.775-.094.076-.053.16-.018.245a1.176,1.176,0,0,0-.913.546c-.359-.131-.637.144-.91.259a6.34,6.34,0,0,0-.895.41c-.078.048-.194.2-.292.008-.076-.145.006-.2.128-.268.069-.037.1-.147.144-.225h0c.123-.058.371.133.365-.182h0c.311.024.525-.361.875-.2.074.034.139-.077.127-.148-.047-.295.2-.351.366-.471.233-.011.233-.011.22.164.152-.441.789-.516.784-1.076A.188.188,0,0,1,161.891,183.031Z" transform="translate(-76.557 -31.518)"/><path class="i" d="M192.437,169.141c-.408-.1-.776-.248-.848-.773l-.337.317c-.059-.274.148-.607-.182-.821h0c.05-.351.077-.362.639-.273h.182c.272.167.394.586.848.457.163-.047.055.2.155.273a.188.188,0,0,1-.091.182c-.051.051-.111.1-.091.182C192.743,168.911,192.559,169.007,192.437,169.141Z" transform="translate(-105.918 -17.445)"/><path class="i" d="M200.774,168.786c-.135-.249-.372-.2-.571-.155-.181.039-.311-.006-.231-.167.136-.27-.354-.173-.2-.408a.242.242,0,0,0,.274,0c.124.132.3.12.456.182A.518.518,0,0,1,200.774,168.786Z" transform="translate(-113.798 -17.912)"/><path class="i" d="M190.494,167.111c-.232.048-.566-.145-.639.273-.186-.245-.185-.4.182-.363C190.192,167.037,190.365,166.964,190.494,167.111Z" transform="translate(-104.703 -16.966)"/><path class="i" d="M203.522,168.239c-.176,0-.365.03-.456-.182l.274.091A.189.189,0,0,1,203.522,168.239Z" transform="translate(-116.82 -17.912)"/><path class="i" d="M182.075,185.045c0,.364.048.749-.493.785-.052,0-.131.172-.132.265,0,.161-.085.133-.181.121-.218-.027-.033-.1-.026-.166.019-.158-.111-.065-.171-.093A3.914,3.914,0,0,0,182.075,185.045Z" transform="translate(-96.833 -33.35)"/><path class="ct" d="M931.728,229.266c.14-.413.427-.32.718-.207a.2.2,0,0,1-.1.143c-.1.046-.214.079-.139.23a.167.167,0,0,1-.127.176c-.244-.057-.188.178-.269.279a.145.145,0,0,1-.152.066c-.094-.019-.056-.075-.042-.132C931.664,229.639,931.571,229.428,931.728,229.266Z" transform="translate(-778.882 -73.26)"/><path class="cu" d="M936.885,233.737l.1-.174a.128.128,0,0,1,.091-.059.145.145,0,0,1,.1.049c-.15.172.026.36-.026.537C936.917,234.077,936.927,233.888,936.885,233.737Z" transform="translate(-783.686 -77.388)"/><path class="cv" d="M938.727,230.388l-.118-.011c-.036-.105.025-.173.094-.237l.105-.119C938.986,230.188,938.9,230.3,938.727,230.388Z" transform="translate(-785.242 -74.222)"/><path class="i" d="M207.681,178.233c-.063-.018-.167-.012-.132-.113s.143-.06.223-.069A.188.188,0,0,1,207.681,178.233Z" transform="translate(-120.887 -26.994)"/><path class="n" d="M121.3,187.054a.256.256,0,0,0,.273.273l-.365.182a2.485,2.485,0,0,0-.821.272c-.154.022-.328-.058-.456.091-.27-.032-.517.145-.79.088-.011,0-.019-.016-.028-.024l.088-.064c.2-.12.457-.108.639-.271l.364-.093.64-.273Z" transform="translate(-40.526 -35.175)"/><path class="m" d="M162.439,204.029c.013.118.257.2.1.325-.177.138-.314-.071-.464-.143q0-.045,0-.089Z" transform="translate(-79.568 -50.601)"/><path class="cw" d="M936.167,230.832l-.094.237a.182.182,0,0,0-.071.021c-.108-.019-.236-.04-.18-.189C935.891,230.714,936.039,230.8,936.167,230.832Z" transform="translate(-782.707 -74.914)"/></g></g></svg>