<svg xmlns="http://www.w3.org/2000/svg" width="94" height="94" viewBox="0 0 94 94"><defs><style>.a,.c{fill:#fff;}.a{stroke:#b1b1b1;stroke-width:0.5px;}.b{fill:#8bb629;}.d{fill:#eb6b00;}.e{stroke:none;}.f{fill:none;}</style></defs><g transform="translate(-968 -347)"><g class="a" transform="translate(968 347)"><rect class="e" width="94" height="94"/><rect class="f" x="0.25" y="0.25" width="93.5" height="93.5"/></g><g transform="translate(962.398 326.787)"><g transform="translate(13.602 59.213)"><path class="b" d="M16.492,60.266V71.512H13.6V60.266Zm2.945,5.6H16.8v-.618a4.348,4.348,0,0,1,.247-1.649,2.287,2.287,0,0,1,.989-1.025,3.732,3.732,0,0,1,1.931-.444,3.76,3.76,0,0,1,2.146.5,1.964,1.964,0,0,1,.868,1.236,19.393,19.393,0,0,1,.146,3.019v4.626H20.4V70.69a1.712,1.712,0,0,1-1.632.988,2.373,2.373,0,0,1-1.351-.413q-.615-.414-.615-1.81V68.7a2.221,2.221,0,0,1,.326-1.41,4.6,4.6,0,0,1,1.618-.875,4.633,4.633,0,0,0,1.48-.729,1.939,1.939,0,0,0,.1-.764,2.573,2.573,0,0,0-.108-.941.369.369,0,0,0-.357-.219q-.286,0-.355.184a3.744,3.744,0,0,0-.07.955Zm.889,1.264a2.081,2.081,0,0,0-.781.826,3.262,3.262,0,0,0-.108.959,2.8,2.8,0,0,0,.094.924.366.366,0,0,0,.372.208.345.345,0,0,0,.344-.163,2.651,2.651,0,0,0,.079-.858Zm13.08-.611H29.555V63.944a4.617,4.617,0,0,0-.123-1.4.531.531,0,0,0-.544-.279.57.57,0,0,0-.6.339,5.149,5.149,0,0,0-.128,1.464v6.879a4.8,4.8,0,0,0,.128,1.409.548.548,0,0,0,.577.329.541.541,0,0,0,.562-.33,5.385,5.385,0,0,0,.133-1.55V68.943h3.851v.577a11.4,11.4,0,0,1-.325,3.261,3.334,3.334,0,0,1-1.436,1.686,4.919,4.919,0,0,1-2.74.724,5.666,5.666,0,0,1-2.789-.613,2.979,2.979,0,0,1-1.455-1.7,11.127,11.127,0,0,1-.357-3.261V65.293a19.25,19.25,0,0,1,.11-2.4,3.36,3.36,0,0,1,.654-1.542,3.645,3.645,0,0,1,1.509-1.166,5.455,5.455,0,0,1,2.218-.426,5.427,5.427,0,0,1,2.808.658,3.156,3.156,0,0,1,1.455,1.64,9.858,9.858,0,0,1,.348,3.056ZM42.289,67v2.973a12.488,12.488,0,0,1-.165,2.4,3.368,3.368,0,0,1-.7,1.427,3.177,3.177,0,0,1-1.386.979,5.542,5.542,0,0,1-1.944.315,6.927,6.927,0,0,1-2.076-.27,2.83,2.83,0,0,1-1.322-.814A3.208,3.208,0,0,1,34.02,72.7a9.916,9.916,0,0,1-.2-2.318v-3.11a7.6,7.6,0,0,1,.366-2.643A3.038,3.038,0,0,1,35.5,63.1a4.639,4.639,0,0,1,2.434-.577,5.542,5.542,0,0,1,2.136.371,3.351,3.351,0,0,1,2.04,2.19A7.643,7.643,0,0,1,42.289,67Zm-3.7-.915a4.036,4.036,0,0,0-.1-1.175.415.415,0,0,0-.43-.242.433.433,0,0,0-.439.242,3.712,3.712,0,0,0-.11,1.175v5.479a3.552,3.552,0,0,0,.11,1.121.5.5,0,0,0,.864.023,3.091,3.091,0,0,0,.106-1.024Zm7.813-3.348L46.342,63.9a2.975,2.975,0,0,1,1.024-1.031,2.658,2.658,0,0,1,1.354-.344A2.622,2.622,0,0,1,51.053,63.9,3.331,3.331,0,0,1,52.1,62.865a2.521,2.521,0,0,1,1.3-.344,2.553,2.553,0,0,1,1.56.457,2.016,2.016,0,0,1,.791,1.121,9.427,9.427,0,0,1,.174,2.154v8.626H52.343V66.966a10.012,10.012,0,0,0-.1-1.925.465.465,0,0,0-.49-.37.484.484,0,0,0-.508.366,9.15,9.15,0,0,0-.115,1.93v7.913H47.54V67.168a14.128,14.128,0,0,0-.087-2.14.44.44,0,0,0-.48-.357.555.555,0,0,0-.421.187.728.728,0,0,0-.192.458q-.019.269-.018,1.148v8.415H42.757V62.741ZM64.82,69.025H60.036V71.65a2.914,2.914,0,0,0,.119,1.061.462.462,0,0,0,.457.238.556.556,0,0,0,.563-.316,3.455,3.455,0,0,0,.141-1.221v-1.6h3.5v.9a8.077,8.077,0,0,1-.141,1.729,3.527,3.527,0,0,1-.664,1.29,3.229,3.229,0,0,1-1.322,1.029,5.125,5.125,0,0,1-2.008.343,5.831,5.831,0,0,1-2.067-.338,3.312,3.312,0,0,1-1.395-.928,3.352,3.352,0,0,1-.69-1.3,8.372,8.372,0,0,1-.192-2.063V66.93a6.035,6.035,0,0,1,.43-2.511A2.956,2.956,0,0,1,58.18,63.01a4.966,4.966,0,0,1,2.25-.49,5.028,5.028,0,0,1,2.566.59,3.25,3.25,0,0,1,1.418,1.564,7.342,7.342,0,0,1,.407,2.74Zm-3.7-1.976v-.888a4.485,4.485,0,0,0-.1-1.216.4.4,0,0,0-.412-.275q-.385,0-.476.233a4.875,4.875,0,0,0-.091,1.257v.888Zm7.859-4.308-.146,1.6a2.748,2.748,0,0,1,2.332-1.816v4.272a3.1,3.1,0,0,0-1.491.275,1.153,1.153,0,0,0-.585.764,13.708,13.708,0,0,0-.11,2.255v4.793h-3.7V62.741Z" transform="translate(-13.602 -59.382)"/><ellipse class="c" cx="9.908" cy="8.038" rx="9.908" ry="8.038" transform="translate(59.183)"/><g transform="translate(59.793 0.495)"><path class="d" d="M109.584,59.93c-5.135,0-9.3,3.377-9.3,7.544,0,3.65,3.2,6.694,7.441,7.392-.155-2.56,4.213-5.47,5.338-6.363a2.418,2.418,0,0,0,1.047-2.192c0-.407-.252-.407-.466-.33a.794.794,0,0,1-.931-.155c-.291-.349-.427-.155-.427-.155.407,1.32,1.144.35,1.319.718s-.252.931-.252.931-4.869,4.539-7.314,4.558c-2.308.019-2.444-3.414-2.444-3.414a1.212,1.212,0,0,0-.6-.853c-.524-.272,0-.427,0-.427s7.061-1.494,7.915-1.669S112,65.245,112,65.07s-.6-.078-.6-.078-8.5,1.552-8.71,1.571a.727.727,0,0,0-.4.272s-.535.6-.527-.039c.008-.588.232-.795,1.136-.881s8.511-1.68,8.511-1.68a2.885,2.885,0,0,1,2.629-1.271,3.346,3.346,0,0,1,2.845,2.8s-.539-.281-.475-.108c.057.15.226,1.87-2.145,4.319,0,0-1.905,1.693-1.905,2.339s.194,2.349,3.965.345l-.018.031a6.85,6.85,0,0,0,2.586-5.218C118.882,63.307,114.719,59.93,109.584,59.93Z" transform="translate(-100.285 -59.93)"/><circle class="d" cx="0.404" cy="0.404" r="0.404" transform="translate(12.032 3.917)"/></g></g></g></g></svg>