<svg xmlns="http://www.w3.org/2000/svg" width="94" height="94" viewBox="0 0 94 94"><defs><style>.a,.c{fill:#fff;}.a{stroke:#b1b1b1;stroke-width:0.5px;}.b{fill:#eb6b00;}.b,.c{fill-rule:evenodd;}.d{fill:#009c28;}.e{stroke:none;}.f{fill:none;}</style></defs><g transform="translate(-1184 -347)"><g class="a" transform="translate(1184 347)"><rect class="e" width="94" height="94"/><rect class="f" x="0.25" y="0.25" width="93.5" height="93.5"/></g><g transform="translate(1015.876 18.261)"><path class="b" d="M391.163,371.8h3.483a6.766,6.766,0,0,1,6.724,6.746v2.2a6.767,6.767,0,0,1-6.748,6.747h-3.459a6.767,6.767,0,0,1-6.747-6.747V371.8Z" transform="translate(-145.011 -0.712)"/><path class="c" d="M388.58,380.175l6.64-1.361-2.389,2.967c-1.239,1.537-3.46.438-3.793-1.091-.064-.295-.333-.519-.458-.516Zm7.331-1.537a.436.436,0,1,1-.436.436.437.437,0,0,1,.436-.436Zm4.2,4.524-4.777-.092a1.973,1.973,0,0,0-1.9,2.207c.09,1.276.969,1.637,2.013,1.72s2.181-.854,3.045-1.5c.3-.224.451.087.217.277a4.949,4.949,0,0,1-3.262,1.566,2.252,2.252,0,0,1-2.434-2c-.218-1.294.854-2.24,2.021-3s1.93-1.5,2.894-2.255a.846.846,0,0,0,.223-.358,3.02,3.02,0,0,1,.68-1.709c-.894-.877-2.578-1.324-3.045-.376l-6.54,1.391a.885.885,0,0,0-.715.865l7.18-1.5a.8.8,0,0,1,.789,1.278,11.444,11.444,0,0,1-2.415,1.743c-1.545.8-3.011,2.406-2.751,4.069s1.7,2.86,3.889,3.332l.038,1.57c0,.27-.235.6-.928.774h3.3c-.532-.206-.917-.4-.931-.779l.067-1.575a4.573,4.573,0,0,0,2.556-1.465,10.75,10.75,0,0,0,2.03-2.819l-1.916.037.676-1.391Z" transform="translate(-147.848 -4.372)"/><path class="d" d="M196.2,387.12h-5.552l-1.164-6.258-2.42,6.258h-3.633l-2.47-6.258-1.138,6.258h-5.552l2.854-15.228H182.9l2.347,7.06,2.347-7.06h5.725Z" transform="translate(0 -0.774)"/><path class="d" d="M254.612,387.12H243.781V371.892h10.678v3.9h-5.425v1.7h3.393v3.981h-3.393v1.7h5.579Z" transform="translate(-47.967 -0.774)"/><path class="d" d="M291.161,378.66a7.639,7.639,0,0,1-2.558,6.175,9.43,9.43,0,0,1-6.5,2.157,9.6,9.6,0,0,1-6.574-2.223A7.341,7.341,0,0,1,273,378.976a7.573,7.573,0,0,1,2.569-5.9,9.414,9.414,0,0,1,6.534-2.306,11.337,11.337,0,0,1,4.923,1,9.288,9.288,0,0,1,3.666,3.621l-5.551,1.89a3.143,3.143,0,0,0-4.995-.451,3.748,3.748,0,0,0-.934,2.617,2.858,2.858,0,0,0,.883,2.189,2.6,2.6,0,0,0,2.112.982c1.3,0,2.089-.26,2.381-1.232H282.1v-3.7h9.031Z" transform="translate(-68.129)"/><path class="d" d="M338.928,387.12h-6.344l-.613-2.531h-4.579l-.614,2.531H320.46l6.553-15.228h5.335Zm-7.949-6.2-1.262-3.268-1.288,3.268Z" transform="translate(-100.879 -0.774)"/></g></g></svg>