<svg xmlns="http://www.w3.org/2000/svg" width="94" height="94" viewBox="0 0 94 94"><defs><style>.a,.f{fill:#fff;}.a{stroke:#b1b1b1;stroke-width:0.5px;}.b,.d,.h,.k{fill:none;}.b,.d,.h{stroke:#fff;stroke-linecap:round;stroke-linejoin:round;}.b{stroke-width:4.55px;}.c{fill:#00772c;}.c,.e,.f,.g,.i{fill-rule:evenodd;}.d{stroke-width:4.55px;}.e{fill:#bf0010;}.h{stroke-width:2.08px;}.i{fill:#ec6500;}.j{stroke:none;}</style></defs><g transform="translate(-643 -347)"><g class="a" transform="translate(643 347)"><rect class="j" width="94" height="94"/><rect class="k" x="0.25" y="0.25" width="93.5" height="93.5"/></g><g transform="translate(243.554 175.339)"><path class="b" d="M406.545,265.262a2.105,2.105,0,0,0,.163.666c.216.755.586.878,1.254,1.1a4.275,4.275,0,0,0,2.035-.1c1.244-.139,8.762-2.7,10.229-3.28,7.46-2.947,21.508-5.069,30.537-6.63a4.143,4.143,0,0,0,.692-.12c5.6-.964,11.339-1.589,16.979-2.083,4.717-.414,11.222-.314,15.321-1.043,1.067-.177,1.077-1.2-.05-1.2-3.378.047-6.774.248-10.133.253-7.527.3-15.029.928-22.515,1.781-6.525.75-15.2,1.609-21.4,3.177-4.5,1.138-19.5,3.563-22.4,5.9a1.865,1.865,0,0,0-.717,1.578Z" transform="translate(0 -31.177)"/><path class="c" d="M406.545,265.262a2.105,2.105,0,0,0,.163.666c.216.755.586.878,1.254,1.1a4.275,4.275,0,0,0,2.035-.1c1.244-.139,8.762-2.7,10.229-3.28,7.46-2.947,21.508-5.069,30.537-6.63a4.143,4.143,0,0,0,.692-.12c5.6-.964,11.339-1.589,16.979-2.083,4.717-.414,11.222-.314,15.321-1.043,1.067-.177,1.077-1.2-.05-1.2-3.378.047-6.774.248-10.133.253-7.527.3-15.029.928-22.515,1.781-6.525.75-15.2,1.609-21.4,3.177-4.5,1.138-19.5,3.563-22.4,5.9a1.865,1.865,0,0,0-.717,1.578Z" transform="translate(0 -31.177)"/><path class="d" d="M420.073,221.018l-.143-1.705c-.03-.233-.14-.555-.166-.79a21.493,21.493,0,0,0-.223-2.646,18.711,18.711,0,0,1-.232-3.465,12.059,12.059,0,0,1-.128-1.784,8.494,8.494,0,0,0-.1-1.813,1.382,1.382,0,0,0-1.175-.737,1.629,1.629,0,0,0-1.039.427c-.369.367-1.627,8.227-2.218,9.893-.479,1.514-.908,3.138-1.533,4.586-.392.884-.779,1.787-1.143,2.682-.1.3-.566.644.075,1.4a1.163,1.163,0,0,0,1.8-.486c.44-.993.954-2.209,1.3-3.229.505-1.506,2.159-6.06,2.19-7.435.177.047.091.013.2.124.242.254.164.589.214.933.2,1.391.43,5.48.819,6.511.151.4.243,1.676,1.32,1.676,1.271,0,1.24-.825,1.457-1.284.508-1.4.987-2.736,1.45-4.159.281-1.013,2.445-6.226,2.445-7.116h.127a23.236,23.236,0,0,0,.318,4.527c.232,1.55,2.428,7.5,4.178,8.317.243.113.238.139.431.116.429-.049,1-.433,1-.913,0-.652-.305-.864-.665-1.311-.142-.177-.24-.272-.374-.455a17.482,17.482,0,0,1-2.912-9.646,22.831,22.831,0,0,1,.444-3.321c.218-1.329,1.086-3.882-1.017-3.882a1.14,1.14,0,0,0-.973.365c-1.006,1.259-2.547,6.089-3.142,7.694-.274,1.333-1.7,4.781-2.107,5.988a2.444,2.444,0,0,1-.468.934Zm11.278-4.335a3.889,3.889,0,0,1,.4-1c1.058-1.5,1.846-1.1.789.024a5.992,5.992,0,0,1-1.188.979Zm48.935-4.781c0-.632,1.291-.546.812.749-.072.194-.178.212-.3.4-.531-.356-.509-.61-.509-1.147Zm-14.368.351a3.749,3.749,0,0,1,3.345-1.562c.765,0,.867.371,1.147.446a8.46,8.46,0,0,1-3.628,5.423c-1.5.874-1.653-.243-1.791-.575a4.588,4.588,0,0,1,.926-3.732Zm9.59,2.136a4.185,4.185,0,0,1,2.65-3.979c.592-.166.339-.315.982-.165l-.256.382a2.747,2.747,0,0,0-.047,2.981c.885,1.236,1.2.807.623,1.548-1.119,1.439-3.952,1.914-3.952-.767Zm-5.862-5.546a6.4,6.4,0,0,0-3.961,1.009,6.934,6.934,0,0,0-2.473,4.219c-.047.522-.1.408-.356.727l-.764.893a10.136,10.136,0,0,1-1.023.953l-.031.033-.141.113c-.715.518-1,.666-1-.043a1.7,1.7,0,0,1,.153-.8c.255-.471.852-1.5,1.064-2a3.566,3.566,0,0,0,.417-1.114,1.062,1.062,0,0,0-.119-1.11,1.145,1.145,0,0,0-1.665.091c-.791.874-.78,2.436-1.35,3.3-.23.4-.45.721-.687,1.1a2.8,2.8,0,0,1-2.083,1.55c-1.371,0-.29-3.366.075-4.069a1.676,1.676,0,0,1,.185-.261,5.175,5.175,0,0,1,.584-.755,6.9,6.9,0,0,1,.986-.8,9.025,9.025,0,0,1,3.957-1.332c.575-.077.967-.132.967-.817a.762.762,0,0,0-.26-.632c-.12-.132-.066-.119-.252-.194a3.605,3.605,0,0,0-1.734.044,10.2,10.2,0,0,0-3.964,1.644,5.4,5.4,0,0,0-1.126.977A9.461,9.461,0,0,0,453.7,213.8a2.993,2.993,0,0,0-.221.48,1.961,1.961,0,0,1-.267.753c-.058.093-.078.156-.135.247s-.075.1-.134.185a7.512,7.512,0,0,1-.74,1.045c-.209.237-.466.477-.7.7a4.949,4.949,0,0,1-.436.328,5.241,5.241,0,0,1-1.813.928,1.23,1.23,0,0,1-1.3-.1c-.319-.141-.3-.056-.5-.331a1.661,1.661,0,0,1-.329-.5c-.308-.928-.23-.286-.23-1.555l.309-1.029c.039-.086.1-.166.157-.29l.3-.6a5.434,5.434,0,0,1,1.7-1.864,1.41,1.41,0,0,1,1.357-.108,3.258,3.258,0,0,0,.031.925c.225.568.838.478,1.307.478.558,0,.895-1.68.155-2.514l-.4-.361a3.064,3.064,0,0,0-1.663-.44c-.192,0-.615.147-.838.182a3.626,3.626,0,0,0-1.477.689,2.577,2.577,0,0,0-.568.515,9.638,9.638,0,0,0-.96,1.144,10.109,10.109,0,0,0-.734,1.433,9.865,9.865,0,0,0-.379,1.724c-.048.354.035.148-.121.389-.065.1-.009-.011-.1.151a12.294,12.294,0,0,1-1.47,1.716c-.286.31-1.449,1.66-1.218.375a15.263,15.263,0,0,1,.723-1.954,1.059,1.059,0,0,0,.137-.309c.148-.49.867-2.067.909-2.215a2.324,2.324,0,0,0-.143-1.614l-.058-.069c-.548-.652-1.542-.438-2.429-.438-.56-.838-.565-.893-1.529-.893a1.406,1.406,0,0,0-1.02,1.02c0,.526.325.8.51,1.147a16.948,16.948,0,0,1-1.293,2.341c-.787,1.1-1.615,2.374-2.429,3.434-.687.793-2.58,2.67-3.727,1.868a1.86,1.86,0,0,1-.6-.675c-.264-.572-.076-.864.4-1.231.1-.079.168-.128.283-.226a12.55,12.55,0,0,0,1.121-1.046,7.762,7.762,0,0,0,1.689-2.136,2.594,2.594,0,0,0-.051-1.993c-1.065-1.419-2.882-.745-3.924.375a7.171,7.171,0,0,0-.97,1.643c-.951,1.8-1.042,4.947.511,6.51a3.284,3.284,0,0,0,3.429.556c2.147-.625,3.594-2.989,4.837-4.722.657-1.059,2.161-3.113,2.441-4.315.211.049.3.106.548.152.549.106.612.1.318.587a1.015,1.015,0,0,0-.143.3c-.6,1.374-1.861,4.109-1.245,5.6a1.521,1.521,0,0,0,1.94.835c1.688-.743,1.858-1.669,2.914-2.376a1.359,1.359,0,0,1,.429.463.549.549,0,0,0,.087.1,2.969,2.969,0,0,0,1.049.8,5.228,5.228,0,0,0,3.14.09,5.651,5.651,0,0,0,1.908-1.023c.329-.272.922-.907,1.351-.943a.952.952,0,0,0,.235.593,1.717,1.717,0,0,0,1.613.873,2.515,2.515,0,0,0,1.255-.21c.295-.126.381-.069.64-.253l1.1-.748.24.206c.217.211.25.354.536.42a4.35,4.35,0,0,0,3.5-1.253c.144-.134.273-.222.411-.353.184-.174-.009-.056.2-.183a2.642,2.642,0,0,1,.271-.111c.058.109.08.192.139.308a2.7,2.7,0,0,0,.608.794,3.159,3.159,0,0,0,.617.339,2.928,2.928,0,0,0,1.988,0,7.606,7.606,0,0,0,1.471-.76l.657-.49c.488,0,.306.344.525.623a1.623,1.623,0,0,0,1.323.4,6.87,6.87,0,0,0,.978-.36,6.649,6.649,0,0,0,1.547-1.129c.12-.121.048-.078.148-.171l.4-.3a.536.536,0,0,1,.3-.079,4.106,4.106,0,0,0,.516.823c1.122,1.143,1.947,1.012,3.308.963a3.106,3.106,0,0,0,1.5-.535,8.255,8.255,0,0,0,2.073-2.006c.108-.147.1-.166.312-.2a8.514,8.514,0,0,0,1.458-.071,3.086,3.086,0,0,0,.81-.465c.622-.579.7-1.122-.132-1.611-.482-.283-1.224.647-1.165-.052,0,0,.069-.429.076-.451.146-.483.161.037.161-.922a2.784,2.784,0,0,0-.689-1.605,2.105,2.105,0,0,0-.753-.394c-.394-.12-.342-.358-.342-.805-.435-.23-.283-.354-.908-.43a4.967,4.967,0,0,0-5.415,2.072,6.622,6.622,0,0,0-.711,1.265,6.36,6.36,0,0,1-.246.774c-.2.5-.041.706-.338,1.192A11.029,11.029,0,0,1,472,215.726a2.809,2.809,0,0,1-.613.4c-.175.059-.125-.012-.407-.018-.109-1.315-.044-.727.247-2.048.078-.356.206-.445.29-.794.51-1.207,1.007-2.354,1.548-3.55.1-.231.11-.106.215-.358.376-.895.9-1.713,1.275-2.613a2.813,2.813,0,0,1,.2-.37c.205-.376.328-.759.51-1.147a11.46,11.46,0,0,0,.553-1.423,2.21,2.21,0,0,0-.032-2.074,1.067,1.067,0,0,0-.861-.477,2.012,2.012,0,0,0-1.449,1.037,21.814,21.814,0,0,0-1.654,4.338c-.177.409-.5,2.534-.844,2.567a5.025,5.025,0,0,0-1.342-.356Z" transform="translate(-3.143)"/><path class="e" d="M420.073,221.018l-.143-1.705c-.03-.233-.14-.555-.166-.79a21.493,21.493,0,0,0-.223-2.646,18.711,18.711,0,0,1-.232-3.465,12.059,12.059,0,0,1-.128-1.784,8.494,8.494,0,0,0-.1-1.813,1.382,1.382,0,0,0-1.175-.737,1.629,1.629,0,0,0-1.039.427c-.369.367-1.627,8.227-2.218,9.893-.479,1.514-.908,3.138-1.533,4.586-.392.884-.779,1.787-1.143,2.682-.1.3-.566.644.075,1.4a1.163,1.163,0,0,0,1.8-.486c.44-.993.954-2.209,1.3-3.229.505-1.506,2.159-6.06,2.19-7.435.177.047.091.013.2.124.242.254.164.589.214.933.2,1.391.43,5.48.819,6.511.151.4.243,1.676,1.32,1.676,1.271,0,1.24-.825,1.457-1.284.508-1.4.987-2.736,1.45-4.159.281-1.013,2.445-6.226,2.445-7.116h.127a23.236,23.236,0,0,0,.318,4.527c.232,1.55,2.428,7.5,4.178,8.317.243.113.238.139.431.116.429-.049,1-.433,1-.913,0-.652-.305-.864-.665-1.311-.142-.177-.24-.272-.374-.455a17.482,17.482,0,0,1-2.912-9.646,22.831,22.831,0,0,1,.444-3.321c.218-1.329,1.086-3.882-1.017-3.882a1.14,1.14,0,0,0-.973.365c-1.006,1.259-2.547,6.089-3.142,7.694-.274,1.333-1.7,4.781-2.107,5.988a2.444,2.444,0,0,1-.468.934Zm11.278-4.335a3.889,3.889,0,0,1,.4-1c1.058-1.5,1.846-1.1.789.024a5.992,5.992,0,0,1-1.188.979Zm48.935-4.781c0-.632,1.291-.546.812.749-.072.194-.178.212-.3.4-.531-.356-.509-.61-.509-1.147Zm-14.368.351a3.749,3.749,0,0,1,3.345-1.562c.765,0,.867.371,1.147.446a8.46,8.46,0,0,1-3.628,5.423c-1.5.874-1.653-.243-1.791-.575a4.588,4.588,0,0,1,.926-3.732Zm9.59,2.136a4.185,4.185,0,0,1,2.65-3.979c.592-.166.339-.315.982-.165l-.256.382a2.747,2.747,0,0,0-.047,2.981c.885,1.236,1.2.807.623,1.548-1.119,1.439-3.952,1.914-3.952-.767Zm-5.862-5.546a6.4,6.4,0,0,0-3.961,1.009,6.934,6.934,0,0,0-2.473,4.219c-.047.522-.1.408-.356.727l-.764.893a10.136,10.136,0,0,1-1.023.953l-.031.033-.141.113c-.715.518-1,.666-1-.043a1.7,1.7,0,0,1,.153-.8c.255-.471.852-1.5,1.064-2a3.566,3.566,0,0,0,.417-1.114,1.062,1.062,0,0,0-.119-1.11,1.145,1.145,0,0,0-1.665.091c-.791.874-.78,2.436-1.35,3.3-.23.4-.45.721-.687,1.1a2.8,2.8,0,0,1-2.083,1.55c-1.371,0-.29-3.366.075-4.069a1.676,1.676,0,0,1,.185-.261,5.175,5.175,0,0,1,.584-.755,6.9,6.9,0,0,1,.986-.8,9.025,9.025,0,0,1,3.957-1.332c.575-.077.967-.132.967-.817a.762.762,0,0,0-.26-.632c-.12-.132-.066-.119-.252-.194a3.605,3.605,0,0,0-1.734.044,10.2,10.2,0,0,0-3.964,1.644,5.4,5.4,0,0,0-1.126.977A9.461,9.461,0,0,0,453.7,213.8a2.993,2.993,0,0,0-.221.48,1.961,1.961,0,0,1-.267.753c-.058.093-.078.156-.135.247s-.075.1-.134.185a7.512,7.512,0,0,1-.74,1.045c-.209.237-.466.477-.7.7a4.949,4.949,0,0,1-.436.328,5.241,5.241,0,0,1-1.813.928,1.23,1.23,0,0,1-1.3-.1c-.319-.141-.3-.056-.5-.331a1.661,1.661,0,0,1-.329-.5c-.308-.928-.23-.286-.23-1.555l.309-1.029c.039-.086.1-.166.157-.29l.3-.6a5.434,5.434,0,0,1,1.7-1.864,1.41,1.41,0,0,1,1.357-.108,3.258,3.258,0,0,0,.031.925c.225.568.838.478,1.307.478.558,0,.895-1.68.155-2.514l-.4-.361a3.064,3.064,0,0,0-1.663-.44c-.192,0-.615.147-.838.182a3.626,3.626,0,0,0-1.477.689,2.577,2.577,0,0,0-.568.515,9.638,9.638,0,0,0-.96,1.144,10.109,10.109,0,0,0-.734,1.433,9.865,9.865,0,0,0-.379,1.724c-.048.354.035.148-.121.389-.065.1-.009-.011-.1.151a12.294,12.294,0,0,1-1.47,1.716c-.286.31-1.449,1.66-1.218.375a15.263,15.263,0,0,1,.723-1.954,1.059,1.059,0,0,0,.137-.309c.148-.49.867-2.067.909-2.215a2.324,2.324,0,0,0-.143-1.614l-.058-.069c-.548-.652-1.542-.438-2.429-.438-.56-.838-.565-.893-1.529-.893a1.406,1.406,0,0,0-1.02,1.02c0,.526.325.8.51,1.147a16.948,16.948,0,0,1-1.293,2.341c-.787,1.1-1.615,2.374-2.429,3.434-.687.793-2.58,2.67-3.727,1.868a1.86,1.86,0,0,1-.6-.675c-.264-.572-.076-.864.4-1.231.1-.079.168-.128.283-.226a12.55,12.55,0,0,0,1.121-1.046,7.762,7.762,0,0,0,1.689-2.136,2.594,2.594,0,0,0-.051-1.993c-1.065-1.419-2.882-.745-3.924.375a7.171,7.171,0,0,0-.97,1.643c-.951,1.8-1.042,4.947.511,6.51a3.284,3.284,0,0,0,3.429.556c2.147-.625,3.594-2.989,4.837-4.722.657-1.059,2.161-3.113,2.441-4.315.211.049.3.106.548.152.549.106.612.1.318.587a1.015,1.015,0,0,0-.143.3c-.6,1.374-1.861,4.109-1.245,5.6a1.521,1.521,0,0,0,1.94.835c1.688-.743,1.858-1.669,2.914-2.376a1.359,1.359,0,0,1,.429.463.549.549,0,0,0,.087.1,2.969,2.969,0,0,0,1.049.8,5.228,5.228,0,0,0,3.14.09,5.651,5.651,0,0,0,1.908-1.023c.329-.272.922-.907,1.351-.943a.952.952,0,0,0,.235.593,1.717,1.717,0,0,0,1.613.873,2.515,2.515,0,0,0,1.255-.21c.295-.126.381-.069.64-.253l1.1-.748.24.206c.217.211.25.354.536.42a4.35,4.35,0,0,0,3.5-1.253c.144-.134.273-.222.411-.353.184-.174-.009-.056.2-.183a2.642,2.642,0,0,1,.271-.111c.058.109.08.192.139.308a2.7,2.7,0,0,0,.608.794,3.159,3.159,0,0,0,.617.339,2.928,2.928,0,0,0,1.988,0,7.606,7.606,0,0,0,1.471-.76l.657-.49c.488,0,.306.344.525.623a1.623,1.623,0,0,0,1.323.4,6.87,6.87,0,0,0,.978-.36,6.649,6.649,0,0,0,1.547-1.129c.12-.121.048-.078.148-.171l.4-.3a.536.536,0,0,1,.3-.079,4.106,4.106,0,0,0,.516.823c1.122,1.143,1.947,1.012,3.308.963a3.106,3.106,0,0,0,1.5-.535,8.255,8.255,0,0,0,2.073-2.006c.108-.147.1-.166.312-.2a8.514,8.514,0,0,0,1.458-.071,3.086,3.086,0,0,0,.81-.465c.622-.579.7-1.122-.132-1.611-.482-.283-1.224.647-1.165-.052,0,0,.069-.429.076-.451.146-.483.161.037.161-.922a2.784,2.784,0,0,0-.689-1.605,2.105,2.105,0,0,0-.753-.394c-.394-.12-.342-.358-.342-.805-.435-.23-.283-.354-.908-.43a4.967,4.967,0,0,0-5.415,2.072,6.622,6.622,0,0,0-.711,1.265,6.36,6.36,0,0,1-.246.774c-.2.5-.041.706-.338,1.192A11.029,11.029,0,0,1,472,215.726a2.809,2.809,0,0,1-.613.4c-.175.059-.125-.012-.407-.018-.109-1.315-.044-.727.247-2.048.078-.356.206-.445.29-.794.51-1.207,1.007-2.354,1.548-3.55.1-.231.11-.106.215-.358.376-.895.9-1.713,1.275-2.613a2.813,2.813,0,0,1,.2-.37c.205-.376.328-.759.51-1.147a11.46,11.46,0,0,0,.553-1.423,2.21,2.21,0,0,0-.032-2.074,1.067,1.067,0,0,0-.861-.477,2.012,2.012,0,0,0-1.449,1.037,21.814,21.814,0,0,0-1.654,4.338c-.177.409-.5,2.534-.844,2.567a5.025,5.025,0,0,0-1.342-.356Z" transform="translate(-3.143)"/><path class="f" d="M503.313,260.342a2.058,2.058,0,0,0-.188.11,1.617,1.617,0,0,0,.091.857,2.125,2.125,0,0,1,.1-.967Zm.356,2.558a2.062,2.062,0,0,1-.119.9.694.694,0,0,0,.309-.287.216.216,0,0,0-.022-.159l-.016-.036v0l0-.006c-.032-.091-.084-.229-.137-.369l-.014-.036Zm-6.378-2.92a2.086,2.086,0,0,1,1-2.2l5.288-2.034,1.223-.4,2.88,8.242a1.87,1.87,0,0,1-.073,1.342,1.951,1.951,0,0,1-1.075,1.05l-.108.038h0l-.006,0h0c-1.9.8-3.785,1.486-5.677,2.122l-.534.2-.181-.555-2.739-7.807Zm1.93.158a2.052,2.052,0,0,1,.146-.885.632.632,0,0,0-.243.207.765.765,0,0,0-.016.35q.055.16.113.328Zm2.085-.3a.7.7,0,0,0-.175.348c.016.1.032.2.047.279l.026.068a1.756,1.756,0,0,1,.1-.695Zm.46,2.928a1.9,1.9,0,0,1-.086.489l.006,0,.026-.042c.024-.039.049-.079.075-.118a1.665,1.665,0,0,0-.02-.327Zm3.931.559a1.883,1.883,0,0,1-.086,1,.69.69,0,0,0,.124-.1.482.482,0,0,0,.078-.47h0v0h0v0h0c-.027-.127-.066-.272-.115-.428Z" transform="translate(-55.123 -32.858)"/><path class="g" d="M505.606,260.677c-.023-.109-.066-.269-.088-.371-.107.036-.207.073-.307.117a6.03,6.03,0,0,0-1.834.78c-.552,1.319,1.1,2.5.164,3.905a13.665,13.665,0,0,1-3.04,1.3l-.634-1.668c1.321-.586,1.437-.8,1.157-1.727-.362-1.042-.888-1.931-.167-2.9a19.729,19.729,0,0,1,4-1.6c-.037-.138-.075-.277-.1-.415l-4.9,1.748a.981.981,0,0,0-.575,1.18c.34,1,.756,2.128,1.1,3.133l-.686.24-1.228-3.33a1.564,1.564,0,0,1,1.159-1.827c1.78-.738,3.712-1.413,5.565-2.077l.614,1.77c-1.248.45-2.458.863-3.705,1.313a1.213,1.213,0,0,0-.805,1.039c.023.146.046.292.077.437.538,1.421,1.061,2.623-.54,3.516.03.1.06.2.089.3.679-.248.809-.3,1.837-.727.092-.1.184-.3.276-.4.221-1.406-1.422-2.9.136-4l2.749-1.049c.216.554.432,1.183.648,1.737-.265.125-.512.252-.777.377a.949.949,0,0,0-.556.881c.492,1.663,1.219,2.812-.2,3.606-1.963.743-1.963.743-3.478,1.239.037.138.082.277.126.415l4.055-1.38c.972-.248,1.512-.593,1.329-1.484-.176-.854-.831-2.285-1.055-2.978l.675-.278a28.18,28.18,0,0,1,1.2,3.374,1.407,1.407,0,0,1-.929,1.729c-1.9.677-3.809,1.426-5.687,2.125l-.619-1.9c1.238-.464,2.511-.892,3.749-1.356.8-.42.815-.881.654-1.238-.41-1.166-1.246-2.723.555-3.548Z" transform="translate(-55.837 -33.961)"/><path class="h" d="M525.2,270.345l0-.982,2.822.013.023-1.193-2.3-.011s-.484-.195-.534-.563l.026-1.931s.141-.561.591-.559h3.913l.082,1.071-2.806.023,0,1.088,2.164.01s.623.091.621.529l-.009,1.913s-.159.613-.643.612l-3.948-.018Z" transform="translate(-72.083 -38.795)"/><path class="g" d="M525.2,270.345l0-.982,2.822.013.023-1.193-2.3-.011s-.484-.195-.534-.563l.026-1.931s.141-.561.591-.559h3.913l.082,1.071-2.806.023,0,1.088,2.164.01s.623.091.621.529l-.009,1.913s-.159.613-.643.612l-3.948-.018Z" transform="translate(-72.083 -38.795)"/><path class="h" d="M540.11,269.379l.015-3.3,1.073,0,0,3.3-1.091,0Zm2.262-4.264-3.342-.015c-.554,0-.661.612-.661.612l.017,3.984c0,.474.552.652.552.652l3.394.015c.485,0,.626-.558.626-.558l.018-4.037c0-.456-.6-.653-.6-.653Z" transform="translate(-80.08 -38.784)"/><path class="g" d="M540.11,269.379l.015-3.3,1.073,0,0,3.3-1.091,0Zm2.262-4.264-3.342-.015c-.554,0-.661.612-.661.612l.017,3.984c0,.474.552.652.552.652l3.394.015c.485,0,.626-.558.626-.558l.018-4.037c0-.456-.6-.653-.6-.653Z" transform="translate(-80.08 -38.784)"/><path class="h" d="M554.244,267.167s0,.175-.157.175l-1-.022-.013-1.124.97,0a.306.306,0,0,1,.206.265l0,.7Zm1.856,3.1a.261.261,0,0,1-.208-.159l-.009-1.684c-.016-.369-.466-.459-.466-.459v-.193c.364-.016.488-.577.488-.577l-.011-1.369a.688.688,0,0,0-.517-.616l-3.965-.018-.006,5.177,1.68.008.009-2.072,1.109.005.008,2.054,1.9.026-.016-.124Z" transform="translate(-88.001 -38.838)"/><path class="g" d="M554.244,267.167s0,.175-.157.175l-1-.022-.013-1.124.97,0a.306.306,0,0,1,.206.265l0,.7Zm1.856,3.1a.261.261,0,0,1-.208-.159l-.009-1.684c-.016-.369-.466-.459-.466-.459v-.193c.364-.016.488-.577.488-.577l-.011-1.369a.688.688,0,0,0-.517-.616l-3.965-.018-.006,5.177,1.68.008.009-2.072,1.109.005.008,2.054,1.9.026-.016-.124Z" transform="translate(-88.001 -38.838)"/><path class="h" d="M566.046,270.388l-1.714-.008.023-5.177,1.714.008-.023,5.177Z" transform="translate(-95.853 -38.846)"/><path class="g" d="M566.046,270.388l-1.714-.008.023-5.177,1.714.008-.023,5.177Z" transform="translate(-95.853 -38.846)"/><path class="h" d="M573.1,267.684l-1.178-.005.023-1.123s-.051-.334.174-.333l.762-.013a.261.261,0,0,1,.224.246l-.005,1.228Zm1.031-2.364-3.307.02a.593.593,0,0,0-.557.506l-.021,4.616,1.68.025-.026-2,1.091.005-.009,2,1.766-.009.02-4.405c.02-.6-.638-.758-.638-.758Z" transform="translate(-99.445 -38.918)"/><path class="g" d="M573.1,267.684l-1.178-.005.023-1.123s-.051-.334.174-.333l.762-.013a.261.261,0,0,1,.224.246l-.005,1.228Zm1.031-2.364-3.307.02a.593.593,0,0,0-.557.506l-.021,4.616,1.68.025-.026-2,1.091.005-.009,2,1.766-.009.02-4.405c.02-.6-.638-.758-.638-.758Z" transform="translate(-99.445 -38.918)"/><path class="h" d="M599.167,267.8l-1.178-.006.022-1.123s-.05-.334.175-.333l.762-.014a.261.261,0,0,1,.224.247l-.005,1.228Zm1.032-2.364-3.307.02a.594.594,0,0,0-.557.507l-.021,4.616,1.679.025-.026-2,1.092,0-.009,2,1.766-.009.02-4.4c.02-.6-.638-.758-.638-.758Z" transform="translate(-115.282 -38.99)"/><path class="g" d="M599.167,267.8l-1.178-.006.022-1.123s-.05-.334.175-.333l.762-.014a.261.261,0,0,1,.224.247l-.005,1.228Zm1.032-2.364-3.307.02a.594.594,0,0,0-.557.507l-.021,4.616,1.679.025-.026-2,1.092,0-.009,2,1.766-.009.02-4.4c.02-.6-.638-.758-.638-.758Z" transform="translate(-115.282 -38.99)"/><path class="h" d="M583.212,270.509l.007-5.178,1.87.009,1.547,2.5.138-.017-.023-2.492.952,0,.011,5.2-1.835-.026-1.565-2.483-.191-.018-.028,2.51-.884,0Z" transform="translate(-107.322 -38.924)"/><path class="g" d="M583.212,270.509l.007-5.178,1.87.009,1.547,2.5.138-.017-.023-2.492.952,0,.011,5.2-1.835-.026-1.565-2.483-.191-.018-.028,2.51-.884,0Z" transform="translate(-107.322 -38.924)"/><path class="h" d="M612.187,279.573h.1a.507.507,0,0,0,.121-.008.075.075,0,0,0,.038-.028.089.089,0,0,0,.013-.05.078.078,0,0,0-.018-.054.081.081,0,0,0-.05-.026c-.011,0-.044,0-.1,0h-.1v.168Zm-.133.382v-.663h.281a.487.487,0,0,1,.154.018.151.151,0,0,1,.077.064.187.187,0,0,1,.029.1.177.177,0,0,1-.044.123.209.209,0,0,1-.131.061.317.317,0,0,1,.072.056.727.727,0,0,1,.076.107l.081.13h-.16l-.1-.144a.875.875,0,0,0-.071-.1.1.1,0,0,0-.04-.028.228.228,0,0,0-.067-.007h-.027v.277Zm-.773,0v-.663h.2l.12.452.119-.452h.2v.663H611.8v-.521l-.132.521h-.128l-.132-.521v.521Z" transform="translate(-124.373 -47.406)"/><path class="g" d="M612.187,279.573h.1a.507.507,0,0,0,.121-.008.075.075,0,0,0,.038-.028.089.089,0,0,0,.013-.05.078.078,0,0,0-.018-.054.081.081,0,0,0-.05-.026c-.011,0-.044,0-.1,0h-.1v.168Zm-.133.382v-.663h.281a.487.487,0,0,1,.154.018.151.151,0,0,1,.077.064.187.187,0,0,1,.029.1.177.177,0,0,1-.044.123.209.209,0,0,1-.131.061.317.317,0,0,1,.072.056.727.727,0,0,1,.076.107l.081.13h-.16l-.1-.144a.875.875,0,0,0-.071-.1.1.1,0,0,0-.04-.028.228.228,0,0,0-.067-.007h-.027v.277Zm-.773,0v-.663h.2l.12.452.119-.452h.2v.663H611.8v-.521l-.132.521h-.128l-.132-.521v.521Z" transform="translate(-124.373 -47.406)"/><path class="i" d="M505.078,260.061c-.023-.109-.066-.269-.088-.371-.107.036-.207.073-.307.116a6.021,6.021,0,0,0-1.834.78c-.552,1.318,1.095,2.5.164,3.9a13.67,13.67,0,0,1-3.04,1.3l-.634-1.668c1.321-.586,1.437-.8,1.157-1.727-.362-1.042-.888-1.931-.167-2.9a19.673,19.673,0,0,1,4-1.6c-.038-.139-.075-.277-.105-.415l-4.9,1.749a.981.981,0,0,0-.575,1.18c.34,1,.756,2.128,1.1,3.133l-.686.241-1.227-3.33a1.563,1.563,0,0,1,1.159-1.827c1.78-.737,3.711-1.413,5.565-2.077l.614,1.771c-1.247.45-2.458.862-3.7,1.313a1.213,1.213,0,0,0-.805,1.039c.023.146.046.291.076.437.539,1.421,1.061,2.624-.539,3.517.03.095.059.2.089.3.679-.248.809-.3,1.837-.727.092-.1.184-.3.277-.4.221-1.406-1.422-2.9.136-4l2.749-1.05c.216.554.432,1.183.649,1.737-.265.125-.512.251-.777.376a.95.95,0,0,0-.555.881c.492,1.663,1.219,2.812-.2,3.606-1.963.743-1.963.743-3.478,1.238.037.139.082.277.126.415l4.055-1.38c.973-.248,1.512-.593,1.329-1.484-.176-.853-.831-2.284-1.055-2.977l.675-.278a28.115,28.115,0,0,1,1.2,3.374,1.406,1.406,0,0,1-.928,1.728c-1.9.677-3.809,1.426-5.687,2.125l-.618-1.9c1.238-.464,2.511-.892,3.749-1.356.8-.421.814-.881.654-1.238-.41-1.166-1.246-2.723.555-3.548Z" transform="translate(-55.516 -33.586)"/></g></g></svg>