<svg xmlns="http://www.w3.org/2000/svg" width="95" height="94" viewBox="0 0 95 94"><defs><style>.a{fill:#fff;stroke:#b1b1b1;stroke-width:0.5px;}.b{fill:#ffde00;}.c{fill:#0f499e;}.d{stroke:none;}.e{fill:none;}</style></defs><g transform="translate(-0.393 -0.029)"><g class="a" transform="translate(0.393 0.029)"><rect class="d" width="95" height="94"/><rect class="e" x="0.25" y="0.25" width="94.5" height="93.5"/></g><g transform="translate(5.863 35.848)"><path class="b" d="M19.839,58.049c-.333.163-.618.322-.918.445a16.441,16.441,0,0,1-2.549.8c-.576.133-.811-.119-.747-.706a2.317,2.317,0,0,1,.939-1.655c.036-.028.088-.048.077-.14a2.472,2.472,0,0,0-1.329,1.289,4.37,4.37,0,0,0-.332,1.169c-.034.2-.132.345-.336.358a6.772,6.772,0,0,1-1.835-.043c-.634-.133-.839-.5-.634-1.118A4.775,4.775,0,0,1,13.3,56.789c.278-.306.6-.575.9-.86l-.064-.077c-.123.087-.25.168-.367.261a10.161,10.161,0,0,0-3,3.484,4.429,4.429,0,0,0-.384,3.089c.015.062.06.13-.027.216a6.014,6.014,0,0,1-.971-1.18,5,5,0,0,1-.815-2.085,3.6,3.6,0,0,1,1.021-2.959c.222-.252.427-.519.569-.693a4.211,4.211,0,0,0-2.236,2.224,4.2,4.2,0,0,0,.426,3.309,1.657,1.657,0,0,1-.583-.353,9.553,9.553,0,0,1-2.8-2.995,2.817,2.817,0,0,1,.984-3.988A8.42,8.42,0,0,1,7.78,53.2a.934.934,0,0,0,.356-.192.329.329,0,0,0-.283-.016A6.383,6.383,0,0,0,4.9,54.441a3.6,3.6,0,0,0-.584,4.467A11.446,11.446,0,0,0,6.9,61.632c.719.591,1.455,1.163,2.18,1.748.323.261.315.31-.047.5a.837.837,0,0,1-.875-.056c-.262-.16-.512-.34-.778-.493a1.54,1.54,0,0,0-1.291-.113c-.216.069-.212.151-.063.3a2.654,2.654,0,0,0,2.189.932c.441-.039.456-.009.329.419a6.176,6.176,0,0,0-.17,2.556,7.844,7.844,0,0,1-.009,2.308,1.835,1.835,0,0,1-.981,1.37,6.508,6.508,0,0,1-2.152.647.513.513,0,0,1-.386-.124A11.241,11.241,0,0,1,.3,65.055a10.7,10.7,0,0,1-.338-2.913,11.092,11.092,0,0,1,2.624-7.016,10.936,10.936,0,0,1,6.9-3.913,10.9,10.9,0,0,1,8.938,2.472,10.839,10.839,0,0,1,3.992,7.333,10.988,10.988,0,0,1-2.4,8.37,11.088,11.088,0,0,1-4.936,3.542c-.1.039-.229.145-.329.047-.083-.082,0-.207.03-.309a3.809,3.809,0,0,0-.958-3.549A7.594,7.594,0,0,1,12.4,66.866a5.511,5.511,0,0,1-.225-.8c-.037-.178.007-.253.195-.189a1.594,1.594,0,0,0,.648.053,5.631,5.631,0,0,1,1.623.047.82.82,0,0,0,.943-.891c0-.149-.1-.2-.21-.253A18.575,18.575,0,0,1,13.1,63.539a1.222,1.222,0,0,1-.441-.433.611.611,0,0,0-.7-.315c-.61.081-.8-.121-.742-.754A1.64,1.64,0,0,1,12,60.8,3.733,3.733,0,0,1,13.5,60.28c.995-.178,1.992-.344,2.982-.545a7.1,7.1,0,0,0,3.185-1.457A.331.331,0,0,0,19.839,58.049ZM17.888,69.07l-.1-.008c-.081-.314-.169-.627-.242-.944-.043-.186-.161-.23-.328-.222-.115.006-.236.016-.239.162-.007.465,0,.931,0,1.4a.144.144,0,0,0,.147.155.151.151,0,0,0,.173-.16c.007-.1-.005-.2.01-.3.026-.172-.079-.354.051-.58.093.33.172.6.249.879a.224.224,0,0,0,.432,0c.048-.172.094-.344.147-.514.035-.111.024-.248.2-.365,0,.3,0,.549,0,.794,0,.1,0,.218.135.227.161.01.155-.124.156-.231,0-.376,0-.753,0-1.129,0-.157.026-.326-.218-.342a.292.292,0,0,0-.352.267C18.049,68.466,17.964,68.767,17.888,69.07Zm-2.351-.3h0c0,.208,0,.416,0,.624,0,.1.015.211.152.209.117,0,.13-.1.143-.19.069-.483.069-.483.562-.513.03,0,.059,0,.089,0,.086-.009.158-.041.155-.142s-.08-.129-.165-.133c-.129-.006-.257-.006-.386-.008-.153,0-.245-.066-.243-.231s.105-.195.239-.2c.158,0,.317,0,.475-.006.094,0,.189-.026.192-.141s-.1-.136-.188-.137c-.257,0-.515,0-.772,0-.2,0-.262.1-.257.277C15.542,68.37,15.538,68.568,15.538,68.766Z" transform="translate(0.047 -51.067)"/><path class="c" d="M425.467,257.137c0-.7.046-1.411-.01-2.11a3.009,3.009,0,0,1,2.549-2.981,3.161,3.161,0,0,1,3.008,1.026c.144.158.223.094.329-.024a3.372,3.372,0,0,1,4.513-.369,2.692,2.692,0,0,1,1.228,2.342c-.033,1.516-.008,3.032-.009,4.549,0,.41-.028.436-.439.44-.188,0-.377,0-.565,0-.483,0-.486,0-.486-.474q0-2.23,0-4.46a1.851,1.851,0,0,0-1.9-1.833,1.771,1.771,0,0,0-1.762,1.821c0,1.516,0,3.033,0,4.549,0,.368-.023.391-.384.4-.238,0-.476,0-.713,0-.257,0-.36-.1-.358-.376.01-1.486-.024-2.974.011-4.459a1.926,1.926,0,0,0-1.362-1.872,1.947,1.947,0,0,0-2.136.918,1.386,1.386,0,0,0-.185.738q.006,2.3,0,4.608c0,.415-.027.446-.433.445-1.079,0-.871.076-.887-.88C425.458,258.465,425.467,257.8,425.467,257.137Z" transform="translate(-400.145 -240.036)"/><path class="c" d="M779.8,208.1a10.284,10.284,0,0,1,0,2.106,4.19,4.19,0,0,1-1.972,3.037,3.491,3.491,0,0,1-4.388-.688,4.474,4.474,0,0,1,.725-6.691,3.456,3.456,0,0,1,3.839.03c.072.048.142.155.226.119.109-.047.058-.176.058-.269,0-.862.011-1.724,0-2.585,0-.279.1-.37.365-.356a6.615,6.615,0,0,0,.8,0c.282-.019.364.106.353.368-.015.336,0,.673,0,1.01Zm-6.082,1.557a3.248,3.248,0,0,0,.771,2.128,1.927,1.927,0,0,0,2.967.172,3.652,3.652,0,0,0-.055-5.023,1.839,1.839,0,0,0-2.641,0A3.532,3.532,0,0,0,773.723,209.661Z" transform="translate(-726.33 -193.78)"/><path class="c" d="M1269.869,248.779a7.5,7.5,0,0,1-.951.58,3.624,3.624,0,0,1-4.2-.9,4.494,4.494,0,0,1-.063-5.976,3.646,3.646,0,0,1,5.233-.32,4.314,4.314,0,0,1,1.425,3.308c-.007,1.357-.041,2.713-.053,4.07,0,.247-.1.339-.336.331s-.476-.01-.713,0c-.26.012-.356-.1-.341-.357C1269.88,249.3,1269.869,249.069,1269.869,248.779Zm.078-3.561a3.074,3.074,0,0,0-.458-1.508,2.292,2.292,0,0,0-3.93-.277,3.453,3.453,0,0,0,.1,4.145,2.218,2.218,0,0,0,3.2.333A3.236,3.236,0,0,0,1269.948,245.218Z" transform="translate(-1188.396 -229.902)"/><path class="c" d="M638.681,253.079a3.957,3.957,0,0,1-3.852-3.383,4.306,4.306,0,0,1,1.1-3.825,3.693,3.693,0,0,1,5.735.321,4.429,4.429,0,0,1-.819,6.18A3.364,3.364,0,0,1,638.681,253.079Zm-2.361-4.212a3.653,3.653,0,0,0,.721,2.236,1.971,1.971,0,0,0,3.1.156,3.743,3.743,0,0,0,.095-4.643,1.925,1.925,0,0,0-3.029-.126A3.369,3.369,0,0,0,636.32,248.867Z" transform="translate(-597.001 -233.142)"/><path class="c" d="M1135.313,247.2a.354.354,0,0,0,.252-.139,3.957,3.957,0,0,1,2.323-1.025,2.635,2.635,0,0,1,2.545,1.562,4.284,4.284,0,0,1,.3,1.506c.038,1.644.074,3.288.135,4.931.011.31-.1.381-.368.371s-.556-.016-.832,0c-.3.018-.389-.111-.387-.4.011-1.259,0-2.517,0-3.776q0-.624-.045-1.247a1.732,1.732,0,0,0-1.724-1.735,2.212,2.212,0,0,0-2.173,2.177c0,1.307.058,2.614.089,3.921.006.248,0,.5.012.743s-.094.321-.317.317c-.307-.006-.615-.014-.922,0-.288.015-.376-.106-.376-.385.007-1.754,0-3.509,0-5.263,0-.733.008-1.467-.006-2.2-.005-.27.084-.38.358-.363s.555.01.832,0c.218-.006.306.1.3.3C1135.309,246.731,1135.313,246.957,1135.313,247.2Z" transform="translate(-1066.388 -234.432)"/><path class="c" d="M918.076,245.4h-2.436c-.447,0-.491.056-.416.505a2.864,2.864,0,0,0,2.281,2.27,3.742,3.742,0,0,0,2.545-.308c.242-.124.329-.064.374.189.141.794.155.818-.614,1.087a4.457,4.457,0,0,1-4.777-.808,3.851,3.851,0,0,1-1.1-3.869,4.71,4.71,0,0,1,1.933-3.126,3.051,3.051,0,0,1,4.116.625,4.475,4.475,0,0,1,1,3.154c-.012.253-.15.283-.351.282C919.779,245.393,918.927,245.4,918.076,245.4Zm-.617-1.073c.634,0,1.268-.008,1.9,0,.252,0,.369-.048.3-.335a3.063,3.063,0,0,0-.267-.815,2.041,2.041,0,0,0-1.894-1.214,2.528,2.528,0,0,0-2.24,2.162c-.039.205.1.2.235.2Z" transform="translate(-859.469 -229.519)"/><path class="c" d="M1050.4,248.456c.25-.254.449-.51.69-.733a2.6,2.6,0,0,1,1.628-.633c.131-.01.24.025.25.184q.031.533.059,1.066c.01.183-.086.236-.259.229a2.127,2.127,0,0,0-2.324,2.435c.057.957.024,1.92.037,2.88.005.405.023.811.041,1.216.01.215-.086.308-.3.3-.307-.008-.614-.009-.92-.01-.235,0-.329-.108-.325-.349.01-.683,0-1.366,0-2.049q0-2.614,0-5.228c0-.439.014-.452.447-.453.228,0,.456.005.683,0,.2-.005.292.085.29.283C1050.4,247.884,1050.4,248.17,1050.4,248.456Z" transform="translate(-986.587 -235.431)"/><path class="c" d="M553.323,161.324c0,.307-.005.614,0,.921,0,.213-.106.27-.3.27s-.323-.043-.32-.278c.007-.525,0-1.05,0-1.575a.725.725,0,0,0-.721-.807c-.4,0-.679.32-.682.8s-.008.991,0,1.486c0,.229-.031.377-.318.373-.271,0-.3-.145-.3-.361.006-.505,0-1.01,0-1.515a.708.708,0,1,0-1.406,0q0,.758,0,1.516c0,.19,0,.354-.269.358-.284,0-.289-.166-.287-.37,0-.515.013-1.03,0-1.545a1.135,1.135,0,0,1,.665-1.132,1.229,1.229,0,0,1,1.372.118.315.315,0,0,0,.472,0,1.275,1.275,0,0,1,1.427-.1,1.109,1.109,0,0,1,.67,1.152c-.015.227,0,.455,0,.683Z" transform="translate(-516.084 -152.877)"/><path class="c" d="M632.734,159.387c0,.258,0,.515,0,.773,0,.148-.026.289-.217.29-.149,0-.338.062-.374-.177-.024-.161-.1-.131-.207-.077a1.324,1.324,0,0,1-1.6-.167,1.6,1.6,0,0,1-.5-1.754,1.5,1.5,0,0,1,1.278-1.136,1.559,1.559,0,0,1,1.625,1.5c.014.247,0,.5,0,.743Zm-1.492.469a.753.753,0,0,0,.588-.226,1.262,1.262,0,0,0,.051-1.673.81.81,0,0,0-1.269.009,1.246,1.246,0,0,0,0,1.608A.776.776,0,0,0,631.241,159.855Z" transform="translate(-592.294 -150.82)"/><path class="c" d="M453.837,159.47c-.008.151-.026.437-.039.723-.007.149-.062.249-.229.244-.134,0-.3.038-.328-.161-.026-.168-.1-.155-.223-.091a1.314,1.314,0,0,1-1.6-.176,1.605,1.605,0,0,1-.473-1.808,1.479,1.479,0,0,1,1.313-1.084,1.526,1.526,0,0,1,1.517,1.212A5.862,5.862,0,0,1,453.837,159.47Zm-.558-.738a1.06,1.06,0,0,0-.862-1.083c-.505-.04-.9.331-.99.937,0,.02-.007.039-.009.059a1.023,1.023,0,0,0,1,1.2A1.048,1.048,0,0,0,453.28,158.731Z" transform="translate(-424.033 -150.804)"/><path class="c" d="M759.809,160.156a1.41,1.41,0,0,1-1.83-.049,1.6,1.6,0,0,1-.512-1.643,1.464,1.464,0,0,1,2.91.271c.015.474,0,.949,0,1.424,0,.173.038.365-.242.383C759.876,160.557,759.794,160.433,759.809,160.156Zm.019-1.315a1.254,1.254,0,0,0-.058-.409.928.928,0,0,0-.895-.689.916.916,0,0,0-.838.72,1.4,1.4,0,0,0-.019.7.945.945,0,0,0,.83.77.9.9,0,0,0,.922-.688A1.254,1.254,0,0,0,759.827,158.841Z" transform="translate(-712.371 -150.902)"/><path class="c" d="M418.354,136.374c0-.346-.008-.693,0-1.039.006-.173-.037-.266-.227-.25s-.266-.078-.265-.266.053-.3.252-.278c.24.023.238-.12.24-.3a1.156,1.156,0,0,1,1.27-1.246c.163,0,.321.008.335.238.013.214-.074.29-.286.314-.523.059-.664.229-.669.682,0,.235.087.317.315.309.136,0,.31-.064.384.13.091.238-.021.4-.281.413-.413.019-.413.019-.413.44,0,.623-.006,1.247,0,1.87,0,.231-.035.372-.319.373s-.351-.14-.344-.387C418.361,137.047,418.354,136.71,418.354,136.374Z" transform="translate(-393.012 -128.126)"/><path class="c" d="M816.912,159.506a2.4,2.4,0,0,1-.615-.12c-.136-.045-.274-.1-.192-.292.067-.159.119-.326.357-.236a1.27,1.27,0,0,0,.559.045c.187-.016.357-.074.409-.282a.4.4,0,0,0-.218-.473c-.12-.069-.246-.127-.369-.191a1.454,1.454,0,0,1-.5-.371.794.794,0,0,1,.057-1.125,1.224,1.224,0,0,1,1.456-.184c.114.068.162.139.089.262-.063.106-.1.259-.277.186a1.114,1.114,0,0,0-.426-.12c-.22,0-.427.062-.492.3a.429.429,0,0,0,.243.52c.157.083.322.152.487.22a.813.813,0,0,1,.61.757,1.08,1.08,0,0,1-.664,1.006A1.417,1.417,0,0,1,816.912,159.506Z" transform="translate(-767.544 -149.871)"/><path class="c" d="M688.671,159.09a1.048,1.048,0,0,0,1.487,1.021c.087-.039.218-.208.281,0,.052.168.176.38-.107.505a1.729,1.729,0,0,1-1.861-.411,1.622,1.622,0,0,1-.186-2,1.728,1.728,0,0,1,1.959-.686c.24.081.314.2.209.443-.065.15-.125.185-.289.115A1.031,1.031,0,0,0,688.671,159.09Z" transform="translate(-647.1 -151.105)"/><path class="c" d="M512.533,159.786a1.446,1.446,0,0,1,.663-.409c.159-.023.291-.021.286.181,0,.151.131.362-.186.4a.794.794,0,0,0-.768.877c0,.475,0,.95.009,1.424,0,.209-.063.309-.286.31s-.328-.076-.327-.309c0-.8,0-1.6,0-2.4,0-.151-.073-.363.188-.4C512.335,159.431,512.547,159.429,512.533,159.786Z" transform="translate(-481.471 -152.926)"/><path class="c" d="M740.654,160.577c0,.426-.005.851,0,1.277,0,.22-.093.3-.3.294s-.352-.031-.351-.284q.005-1.321,0-2.643c0-.243.126-.3.338-.3.228,0,.323.09.319.318C740.648,159.686,740.654,160.132,740.654,160.577Z" transform="translate(-695.987 -152.508)"/><path class="c" d="M739.57,140.082a.374.374,0,0,1,.042-.746.371.371,0,0,1,.362.366A.394.394,0,0,1,739.57,140.082Z" transform="translate(-695.265 -134.085)"/></g></g></svg>