<svg xmlns="http://www.w3.org/2000/svg" width="94" height="94" viewBox="0 0 94 94"><defs><style>.a{fill:#fff;stroke:#b1b1b1;stroke-width:0.5px;}.b{fill:#33404a;}.c{fill:#323e48;}.d{fill:#c6d325;}.e{fill:#fefefe;}.f{fill:#fefefc;}.g{fill:#c5d220;}.h{stroke:none;}.i{fill:none;}</style></defs><g transform="translate(-751 -453)"><g class="a" transform="translate(751 453)"><rect class="h" width="94" height="94"/><rect class="i" x="0.25" y="0.25" width="93.5" height="93.5"/></g><g transform="translate(728.62 298.577)"><path class="b" d="M221.576,606.981c-.217-.16-.488-.123-.73-.194a4.746,4.746,0,0,1-.862-.315,1.48,1.48,0,0,1-.879-1.454,23.04,23.04,0,0,1,.137-3.612c-.149-.023-.232.074-.325.127a4.854,4.854,0,0,1-5.294-.695,3.406,3.406,0,0,1-1.152-2.5c-.021-1.395-.044-2.791,0-4.184a3.734,3.734,0,0,1,3.131-3.568,7.738,7.738,0,0,1,3.266.107,5.289,5.289,0,0,0,3.667-.289c.123.134.065.282.065.413q.006,7.873,0,15.747a.969.969,0,0,0,.031.42Zm-2.469-11.274c0-.815-.006-1.63,0-2.445,0-.188-.047-.268-.242-.3a5.142,5.142,0,0,0-1.655-.052,1.325,1.325,0,0,0-1.236,1.326c-.059,1.333-.054,2.669,0,4a1.3,1.3,0,0,0,.707,1.193,1.751,1.751,0,0,0,2.426-1.462C219.084,597.22,219.107,596.463,219.107,595.707Z" transform="translate(-164.759 -384.883)"/><path class="c" d="M823.682,598.9c-.016.016-.044.03-.047.048a3.492,3.492,0,0,1-2.878,2.945,9.537,9.537,0,0,1-5.213-.086,3.461,3.461,0,0,1-2.651-3.611c-.006-1.135,0-2.27,0-3.4a3.576,3.576,0,0,1,3.041-3.922,9.261,9.261,0,0,1,5.242.155,3.362,3.362,0,0,1,2.444,2.763c0,.027.041.048.063.072Zm-7.311-2.484a18.894,18.894,0,0,0,.067,2.156,1.2,1.2,0,0,0,.933,1.039,3.694,3.694,0,0,0,1.718.036,1.227,1.227,0,0,0,1.06-1.161c.109-1.036.026-2.076.047-3.114a5.561,5.561,0,0,0-.057-1.165,1.189,1.189,0,0,0-.912-1.014,3.639,3.639,0,0,0-1.855,0,1.194,1.194,0,0,0-.942,1.067C816.321,594.981,816.412,595.7,816.371,596.421Z" transform="translate(-722.569 -385.041)"/><path class="d" d="M47.589,176.1c.568.146,1.154.187,1.723.333A11.693,11.693,0,0,1,55.6,194.87c-.129.172-.123.258.025.4.663.658,1.308,1.335,1.971,1.994a1.187,1.187,0,0,1,.333,1.385,1.166,1.166,0,0,1-1.195.718c-3.431,0-6.861.014-10.292,0a11.556,11.556,0,0,1-11.14-9.36,3.894,3.894,0,0,0-.21-1.058v-2.413a4.033,4.033,0,0,0,.207-1.058,11.62,11.62,0,0,1,8.787-9.109,8.343,8.343,0,0,0,1.3-.268Zm3.622,22.305q2.732,0,5.464,0c.147,0,.324.046.4-.146.065-.172-.082-.257-.177-.354-.828-.845-1.653-1.692-2.491-2.526-.183-.182-.214-.286-.027-.5a10.476,10.476,0,1,0-7.672,3.536C48.206,198.385,49.708,198.407,51.21,198.407Z" transform="translate(0 0)"/><path class="c" d="M647.15,526.751a5.307,5.307,0,0,1,2.49-.567,5.184,5.184,0,0,1,2.51.773,3.439,3.439,0,0,1,1.705,2.794,40.543,40.543,0,0,1,0,4.5,3.356,3.356,0,0,1-2.554,3.137,8.47,8.47,0,0,1-4.686.114,12.238,12.238,0,0,0-2.681-.47c-.157,0-.212-.063-.2-.211.006-.07,0-.142,0-.213q0-7.486-.008-14.973c0-.348.081-.441.43-.4a7.069,7.069,0,0,1,1.9.39,1.573,1.573,0,0,1,1.161,1.732,26.622,26.622,0,0,1-.09,3.361c-.041.019-.037.045-.014.076Zm.07,5.713c0,.769.014,1.537-.008,2.305-.008.27.1.366.331.438a3.623,3.623,0,0,0,1.544.113A1.312,1.312,0,0,0,650.359,534a12.1,12.1,0,0,0,.031-1.594,21.643,21.643,0,0,0-.046-2.516,1.336,1.336,0,0,0-.656-1.076c-.766-.432-2.513.135-2.472,1.455C647.239,531,647.221,531.73,647.221,532.463Z" transform="translate(-565.416 -320.623)"/><path class="c" d="M478.971,604.077a8.12,8.12,0,0,0-1.516-.452,7.382,7.382,0,0,0-2.7.255,6.685,6.685,0,0,1-3.763-.316,3.18,3.18,0,0,1-2.165-3.138c-.014-2.543,0-5.086-.01-7.628,0-.214.04-.281.274-.261a7.2,7.2,0,0,1,2.275.489,1.394,1.394,0,0,1,.953,1.448c-.039,1.738-.013,3.477-.012,5.215,0,.142,0,.284,0,.426a1.258,1.258,0,0,0,1.236,1.371,5.782,5.782,0,0,0,1.759-.149c.229-.042.176-.214.176-.359q0-2.767,0-5.535c0-.875.007-1.75,0-2.625,0-.228.044-.3.294-.287a7.227,7.227,0,0,1,2.082.386,1.421,1.421,0,0,1,1.117,1.622v9.539Z" transform="translate(-402.928 -386.858)"/><path class="b" d="M387.419,597.5c0-1.56.006-3.119-.006-4.679,0-.27.064-.337.338-.316a7.3,7.3,0,0,1,2.045.383,1.416,1.416,0,0,1,1.117,1.619c0,3-.005,6,.008,9,0,.318-.075.406-.392.371a7.767,7.767,0,0,1-2.107-.432,1.445,1.445,0,0,1-1.014-1.519C387.449,600.454,387.419,598.976,387.419,597.5Z" transform="translate(-327.296 -386.832)"/><path class="b" d="M389.581,535.784c.342,0,.685-.011,1.027,0a.97.97,0,0,1,1,1.033c0,.484-.013.969.006,1.452.01.253-.043.354-.325.343-.6-.023-1.2,0-1.806-.008-.86-.009-1.2-.35-1.2-1.2,0-.425.015-.851-.005-1.275-.012-.265.045-.386.342-.359.316.029.637.006.956.006Z" transform="translate(-328.109 -334.133)"/><path class="e" d="M264.769,627.954c0,.756-.023,1.513.005,2.267a1.751,1.751,0,0,1-2.426,1.462,1.3,1.3,0,0,1-.707-1.193c-.054-1.333-.059-2.669,0-4a1.325,1.325,0,0,1,1.236-1.326,5.141,5.141,0,0,1,1.655.051c.194.027.244.108.242.3C264.764,626.324,264.77,627.139,264.769,627.954Z" transform="translate(-210.422 -417.13)"/><path class="f" d="M861.919,629.214c.041-.719-.05-1.44.06-2.157a1.194,1.194,0,0,1,.942-1.067,3.64,3.64,0,0,1,1.855,0,1.189,1.189,0,0,1,.912,1.014,5.556,5.556,0,0,1,.057,1.165c-.02,1.038.062,2.078-.047,3.114a1.227,1.227,0,0,1-1.06,1.161,3.693,3.693,0,0,1-1.718-.037,1.2,1.2,0,0,1-.933-1.039A18.938,18.938,0,0,1,861.919,629.214Z" transform="translate(-768.117 -417.834)"/><path class="f" d="M63.425,210.838c-1.5,0-3-.022-4.506,0a10.61,10.61,0,0,1-10.564-9.119A10.725,10.725,0,0,1,55.524,190a10.661,10.661,0,0,1,11.067,17.306c-.187.219-.156.322.027.5.838.834,1.664,1.681,2.491,2.526.095.1.242.182.177.354-.073.192-.25.146-.4.146Q66.157,210.84,63.425,210.838Zm-4.668-2.049a8.634,8.634,0,1,0-8.487-8.644A8.546,8.546,0,0,0,58.757,208.789Z" transform="translate(-12.214 -12.431)"/><path class="f" d="M692.835,629.77c0-.733.019-1.467,0-2.2-.041-1.32,1.706-1.887,2.472-1.455a1.336,1.336,0,0,1,.656,1.076,21.643,21.643,0,0,1,.046,2.516,12.112,12.112,0,0,1-.031,1.594,1.312,1.312,0,0,1-1.271,1.324,3.623,3.623,0,0,1-1.544-.113c-.235-.073-.339-.169-.331-.438C692.85,631.307,692.835,630.538,692.835,629.77Z" transform="translate(-611.031 -417.929)"/><path class="e" d="M691.267,598.6l-.036.047c-.023-.03-.026-.057.014-.076Z" transform="translate(-609.533 -392.477)"/><path class="g" d="M85.278,235.471a8.634,8.634,0,1,1,8.521-8.609A8.549,8.549,0,0,1,85.278,235.471Z" transform="translate(-38.736 -39.113)"/></g></g></svg>