<svg xmlns="http://www.w3.org/2000/svg" width="96" height="94" viewBox="0 0 96 94">
  <g id="Grupo_3951" data-name="Grupo 3951" transform="translate(-128 -312)">
    <g id="Rectángulo_2238" data-name="Rectángulo 2238" transform="translate(128 312)" fill="#fff" stroke="#b1b1b1" stroke-width="0.5">
      <rect width="96" height="94" stroke="none"/>
      <rect x="0.25" y="0.25" width="95.5" height="93.5" fill="none"/>
    </g>
    <g id="Grupo_3948" data-name="Grupo 3948" transform="translate(32.379 104.085)">
      <path id="Trazado_5556" data-name="Trazado 5556" d="M143.819,228.924q12.89,0,25.781-.009c.39,0,.488.091.488.485q-.016,25.009,0,50.017c0,.39-.091.488-.485.488q-25.761-.017-51.522,0c-.375,0-.46-.1-.46-.464q.014-25.029,0-50.058c0-.36.076-.468.456-.467Q130.949,228.933,143.819,228.924Z" fill="#007f61"/>
      <path id="Trazado_5557" data-name="Trazado 5557" d="M152.4,237.732c6.334,0,12.668.027,19-.018a2.275,2.275,0,0,1,2.287,2.59c-.325,2.6-.528,5.218-.783,7.828q-.424,4.339-.852,8.678-.349,3.572-.694,7.145-.387,3.956-.778,7.911-.343,3.511-.681,7.024c-.055.565-.1,1.131-.163,1.7a1.848,1.848,0,0,1-1.982,1.768c-2.815,0-5.63.007-8.445-.008-.351,0-.481.074-.449.443.036.417-.006.839.013,1.258.012.26-.063.351-.335.343-.663-.019-1.326-.006-1.989-.006-3.275,0-6.551-.006-9.826.008-.351,0-.483-.074-.45-.444.036-.4-.013-.813.015-1.217.02-.305-.074-.387-.38-.385-1.61.016-3.221.007-4.832.007h-3.817a1.95,1.95,0,0,1-2.186-2.006q-.556-5.793-1.129-11.584-.5-5.146-1.007-10.293-.5-5.105-1.019-10.21c-.275-2.757-.553-5.515-.816-8.273a2.112,2.112,0,0,1,2.132-2.254Q142.822,237.731,152.4,237.732Z" transform="translate(-8.909 -5.816)" fill="#fefefe"/>
      <path id="Trazado_5558" data-name="Trazado 5558" d="M202.733,253.679v3.783q0,3.288,0,6.576c0,.193.007.341-.238.438a13.332,13.332,0,0,0-6.023,5,7.669,7.669,0,0,0-1.417,3.195c-.033.206-.126.221-.292.22q-4.951-.023-9.9-.036c-.438,0-.226-.287-.194-.442a19,19,0,0,1,2.023-5.4,27.226,27.226,0,0,1,7.594-8.44,42.567,42.567,0,0,1,8.164-4.785C202.52,253.754,202.6,253.731,202.733,253.679Z" transform="translate(-44.267 -16.37)" fill="#ec1b2e"/>
      <path id="Trazado_5559" data-name="Trazado 5559" d="M177.356,255.1a38.849,38.849,0,0,0-5.334,3.306,32,32,0,0,0-5.609,4.9,7.437,7.437,0,0,0-.911,1.239.5.5,0,0,1-.518.276q-6.411-.011-12.823,0c-.3,0-.383-.072-.383-.378q0-4.462-.036-8.925c0-.333.077-.425.418-.424q6.655.018,13.31.008Z" transform="translate(-22.555 -17.303)" fill="#f48220"/>
      <path id="Trazado_5560" data-name="Trazado 5560" d="M183.833,349.271c-1.732,0-3.465-.009-5.2.008-.328,0-.4-.1-.4-.407,0-3.842.156-7.677.5-11.5.028-.31.131-.4.442-.4q5.115.017,10.231,0c.3,0,.393.06.361.38-.284,2.87-.336,5.748-.334,8.63,0,.96-.032,1.921-.014,2.881.007.354-.115.42-.438.417C187.27,349.263,185.551,349.271,183.833,349.271Z" transform="translate(-40.072 -71.429)" fill="#ec1b2e"/>
      <path id="Trazado_5561" data-name="Trazado 5561" d="M225.229,313.307a3.365,3.365,0,0,1,2-.609,1.39,1.39,0,0,1,1.47,1.512c0,1.867-.005,3.734.006,5.6,0,.274-.057.384-.354.369-.513-.024-1.029-.022-1.542,0-.282.012-.367-.07-.364-.359.014-1.556.007-3.111.006-4.667,0-.424-.139-.582-.521-.606a.584.584,0,0,0-.688.574c-.024.445-.008.892-.008,1.339,0,1.1-.02,2.192.01,3.287.011.379-.113.453-.455.434-.5-.028-1-.016-1.5,0-.213.006-.278-.064-.278-.276q.009-3.368,0-6.737c0-.21.061-.283.276-.278q.771.02,1.542,0C225.1,312.88,225.32,312.884,225.229,313.307Z" transform="translate(-69.669 -55.382)" fill="#008061"/>
      <path id="Trazado_5562" data-name="Trazado 5562" d="M194.068,317.84c.12-.642.242-1.283.36-1.925.143-.784.286-1.568.419-2.353.037-.219.108-.33.361-.315.377.024.758.016,1.136,0,.233-.008.3.04.245.3-.434,2.227-.851,4.457-1.27,6.687-.039.21-.111.318-.364.312-.784-.021-1.57-.019-2.354,0-.268.006-.333-.1-.37-.343q-.5-3.265-1.032-6.525c-.055-.337.021-.454.377-.428a11.52,11.52,0,0,0,1.3,0c.241-.009.317.075.357.312.239,1.425.5,2.846.751,4.269Z" transform="translate(-48.626 -55.743)" fill="#008061"/>
      <path id="Trazado_5563" data-name="Trazado 5563" d="M208.958,316.81c0-1.1.007-2.191-.005-3.286,0-.253.052-.352.331-.348,1.149.016,2.3.013,3.449,0,.255,0,.373.05.345.332-.042.426.179,1-.09,1.241-.234.211-.8.1-1.212.06s-.515.1-.5.506c.033.841.01.842.848.842.95,0,.934,0,.957.941.008.346-.066.51-.439.449a1.774,1.774,0,0,0-.405,0c-.305.021-.742-.143-.886.068-.2.29-.047.73-.064,1.106-.009.2.138.16.252.16.419,0,.839.01,1.258,0,.205-.006.29.049.28.27-.017.351-.012.7,0,1.055.006.185-.046.269-.247.268-1.2-.006-2.407-.009-3.611,0-.269,0-.263-.144-.263-.335C208.96,319.028,208.958,317.918,208.958,316.81Z" transform="translate(-60.374 -55.7)" fill="#008061"/>
      <path id="Trazado_5564" data-name="Trazado 5564" d="M150.735,313.259c.582,0,1.164.007,1.746,0,.2,0,.292.045.282.268-.017.378-.013.758,0,1.136.006.182-.064.23-.235.227-.433-.009-.866,0-1.3-.006-.188,0-.25.05-.262.248-.063,1.109-.069,1.109,1.022,1.109.771,0,.771,0,.771.781a1.3,1.3,0,0,0,0,.2c.049.312-.061.432-.39.4-.363-.03-.731.011-1.095-.013-.264-.018-.307.083-.309.322,0,1.009-.013,1.009.995,1.009.8,0,.8,0,.8.8s0,.8-.8.8c-.988,0-1.976-.009-2.963.006-.262,0-.349-.065-.348-.336q.014-3.308,0-6.616c0-.259.065-.354.34-.344C149.571,313.275,150.153,313.259,150.735,313.259Z" transform="translate(-20.511 -55.75)" fill="#008061"/>
      <path id="Trazado_5565" data-name="Trazado 5565" d="M177.29,316.88c0-1.1.009-2.192-.006-3.288,0-.271.078-.339.34-.335q1.726.02,3.451,0c.247,0,.338.067.323.318-.024.417.132.957-.075,1.219s-.782.076-1.194.088c-.521.016-.521,0-.521.523,0,.835,0,.835.814.835.983,0,.972,0,.979,1,0,.288-.053.419-.376.392-.363-.03-.731.006-1.1-.012-.238-.011-.325.047-.329.309-.014,1.022-.024,1.021.992,1.021.8,0,.8,0,.8.8s0,.793-.813.793c-.988,0-1.976-.01-2.964.007-.273,0-.337-.082-.333-.343C177.3,319.1,177.29,317.99,177.29,316.88Z" transform="translate(-39.439 -55.753)" fill="#008061"/>
      <path id="Trazado_5566" data-name="Trazado 5566" d="M165.238,316.109c0,.824.016,1.649-.008,2.472-.009.318.1.391.39.371.363-.024.729,0,1.094-.009.213-.007.327.036.315.283-.017.35-.014.7,0,1.053.008.22-.086.27-.289.268q-1.783-.011-3.567,0c-.193,0-.256-.058-.255-.253q.008-3.384,0-6.769c0-.175.024-.273.238-.269.608.013,1.216.016,1.824,0,.281-.008.259.158.258.338Q165.237,314.853,165.238,316.109Z" transform="translate(-29.943 -55.754)" fill="#008061"/>
      <path id="Trazado_5567" data-name="Trazado 5567" d="M216.248,338.15a1.293,1.293,0,1,1-.023,2.587,1.294,1.294,0,1,1,.023-2.587Z" transform="translate(-64.317 -72.209)" fill="#038163"/>
      <path id="Trazado_5568" data-name="Trazado 5568" d="M217.821,339.9a1.048,1.048,0,0,1-1.029,1.072,1.027,1.027,0,0,1-1.024-1.07,1.013,1.013,0,0,1,1-1.045A1.027,1.027,0,0,1,217.821,339.9Z" transform="translate(-64.879 -72.676)" fill="#fcfdfc"/>
      <path id="Trazado_5569" data-name="Trazado 5569" d="M218.033,340.61l.364.59c-.132.054-.23.068-.308-.059-.064-.1-.123-.209-.191-.308s-.111-.279-.285-.23-.057.206-.089.31.1.317-.122.315-.106-.2-.115-.316c-.017-.214.019-.434-.01-.645-.058-.414.084-.584.511-.519.222.034.476-.028.565.266A.446.446,0,0,1,218.033,340.61Z" transform="translate(-65.868 -73.256)" fill="#028162"/>
      <path id="Trazado_5570" data-name="Trazado 5570" d="M218.249,340.794c-.177.028-.235-.045-.238-.22,0-.19.057-.271.25-.247.16.02.348.015.343.238S218.4,340.766,218.249,340.794Z" transform="translate(-66.362 -73.645)" fill="#ecf5f3"/>
    </g>
  </g>
</svg>
