<svg xmlns="http://www.w3.org/2000/svg" width="96" height="94" viewBox="0 0 96 94"><defs><style>.a{fill:#fff;stroke:#b1b1b1;stroke-width:0.5px;}.b{fill:#d80713;}.c{fill:#b2b000;}.d{stroke:none;}.e{fill:none;}</style></defs><g transform="translate(-533 -347)"><g class="a" transform="translate(533 347)"><rect class="d" width="96" height="94"/><rect class="e" x="0.25" y="0.25" width="95.5" height="93.5"/></g><g transform="translate(522.432 330.3)"><path class="b" d="M39.418,59.223a4.294,4.294,0,0,0-3.443,1.818,2.9,2.9,0,0,0-.431.894,3.663,3.663,0,0,0,.591,3.189,9.323,9.323,0,0,0,1.789,1.692,10.386,10.386,0,0,1,1.1,1.044,3.445,3.445,0,0,1,.787,1.386,3.239,3.239,0,0,1,.106,1.495c1.853-1.856,3.876-4.265,3.876-6.885a4.365,4.365,0,0,0-4.375-4.633" transform="translate(-4.11 -0.617)"/><path class="c" d="M31.655,68.895a15.436,15.436,0,0,0-2.393-2.372c-.319-.292-.668-.511-.929-.772a5.163,5.163,0,0,1-1.53-4.675A4.891,4.891,0,0,1,28.646,57.9a6.122,6.122,0,0,0-3.714-1.2,6.288,6.288,0,0,0-6.341,6.344c.159,6.323,8.007,11.71,11.239,12.814a4.789,4.789,0,0,0,2.648-4.279,4.9,4.9,0,0,0-.823-2.685" transform="translate(0)"/><path class="b" d="M122.006,74.745V73.611h.335l.2.773.2-.773h.337v1.135h-.208v-.893l-.219.893h-.217l-.219-.893v.893Z" transform="translate(-25.279 -4.134)"/><path class="b" d="M58.577,64.278,60.194,62.6a5.311,5.311,0,0,0-3.854-1.643c-3.018,0-4.1,1.821-4.1,3.421,0,1.833,1.046,2.378,2.348,2.88,1.2.456,1.657.744,1.657,1.283,0,1.448-2.3,1.149-4.038-.036l-1.275,2.147a7,7,0,0,0,3.964,1.211c2.558,0,4.349-1.445,4.349-3.593,0-1.444-.747-2.188-2.457-2.868-1.182-.469-1.643-.734-1.643-1.359,0-.84,1.407-1.47,3.436.235" transform="translate(-7.905 -1.041)"/><path class="b" d="M67.653,64.063a4.39,4.39,0,0,0-4.4,3.321c-.542,1.841-.74,5.275,2.805,5.275A4.426,4.426,0,0,0,70.5,69.338C71.412,66.242,70.473,64.063,67.653,64.063Zm-1.2,6.657c-.431,0-.814-.2-.814-1.371,0-.731.249-3.385,1.62-3.385.53,0,.858.474.815,1.3C68,68.492,67.717,70.72,66.454,70.72Z" transform="translate(-10.844 -1.8)"/><path class="b" d="M86.228,64.356H83.6l-1.425,8.127H84.8Z" transform="translate(-15.542 -1.871)"/><g transform="translate(60.439 58.88)"><path class="b" d="M93.125,64.068c-3.2,0-5.1,2.265-5.1,5.606,0,1.665.7,2.972,2.474,2.972a2.691,2.691,0,0,0,2.169-.971c.068-.09.108-.05.108.035l-.019.7h2.252l.094-1.642,1.061-6.053A8.455,8.455,0,0,0,93.125,64.068Zm-.41,5.578c-.175.884-.628,1.12-1.11,1.12-.639,0-.935-.335-.935-1.491,0-1.078.5-3.374,2.029-3.374a1.619,1.619,0,0,1,.652.137Z" transform="translate(-77.413 -60.681)"/><path class="b" d="M115.928,64.068c-3.191,0-5.1,2.265-5.1,5.606,0,1.665.708,2.972,2.475,2.972a2.7,2.7,0,0,0,2.171-.971c.064-.09.106-.05.106.035l-.02.7h2.252l.094-1.642,1.063-6.053A8.461,8.461,0,0,0,115.928,64.068Zm-.407,5.578c-.175.884-.627,1.12-1.111,1.12-.641,0-.935-.335-.935-1.491,0-1.078.5-3.374,2.026-3.374a1.636,1.636,0,0,1,.655.137Z" transform="translate(-82.986 -60.681)"/><path class="b" d="M102.628,65.08l0-.793h-2.181L100.4,65.8l-1.163,6.613h2.631l.92-5.213a1.206,1.206,0,0,1,1.13-1.113c.471,0,.731.259.611,1.046-.055.371-.925,5.273-.925,5.273h2.638s.843-4.688,1-5.624c.336-2.011-.694-2.7-2.029-2.7a3.187,3.187,0,0,0-2.446,1.03c-.065.074-.136.07-.136-.029" transform="translate(-80.151 -60.684)"/><path class="b" d="M77.389,65.383c-.021.032-.041.021-.046-.028l-.014-1.071H75.188L75.137,65.8l-1.159,6.613h2.631l.847-4.809a1.518,1.518,0,0,1,2.466-1.008l.777-2.211a2.363,2.363,0,0,0-3.309,1" transform="translate(-73.978 -60.68)"/><path class="b" d="M87.284,60.681a1.558,1.558,0,0,1-1.42,1.516,1.118,1.118,0,0,1-1.424-1.078A1.549,1.549,0,0,1,85.864,59.6a1.141,1.141,0,0,1,1.42,1.077" transform="translate(-76.535 -59.585)"/></g><path class="b" d="M124.579,74.526a1.21,1.21,0,0,0-.128-.186.475.475,0,0,0-.12-.094.344.344,0,0,0,.219-.1.306.306,0,0,0,.074-.212.331.331,0,0,0-.049-.179.24.24,0,0,0-.13-.108.725.725,0,0,0-.255-.031h-.473v1.134h.226v-.473h.046a.453.453,0,0,1,.113.012.218.218,0,0,1,.066.048,1.6,1.6,0,0,1,.116.167l.161.246h.27Zm-.47-.435h-.166V73.8h.175c.087,0,.145,0,.161,0a.129.129,0,0,1,.085.045.138.138,0,0,1,.03.093.144.144,0,0,1-.023.085.119.119,0,0,1-.06.048A.9.9,0,0,1,124.109,74.091Z" transform="translate(-25.697 -4.134)"/></g></g></svg>