<svg xmlns="http://www.w3.org/2000/svg" xmlns:xlink="http://www.w3.org/1999/xlink" width="138" height="110" viewBox="0 0 138 110"><defs><style>.a{fill:url(#a);}.b{fill:#100f0c;}.c{filter:url(#b);}</style><linearGradient id="a" x1="0.5" y1="0.31" x2="0.5" y2="1" gradientUnits="objectBoundingBox"><stop offset="0" stop-color="#fff"/><stop offset="1" stop-color="#bfbfbf"/></linearGradient><filter id="b" x="0" y="0" width="138" height="110" filterUnits="userSpaceOnUse"><feOffset dy="3" input="SourceAlpha"/><feGaussianBlur stdDeviation="4" result="c"/><feFlood flood-opacity="0.424"/><feComposite operator="in" in2="c"/><feComposite in="SourceGraphic"/></filter></defs><g transform="translate(-956 -1158)"><g transform="translate(968 1167)"><g class="c" transform="matrix(1, 0, 0, 1, -12, -9)"><rect class="a" width="114" height="86" rx="5" transform="translate(12 9)"/></g></g><g transform="translate(481.264 559.35)"><path class="b" d="M543.009,631.6h-9.932l1.765,4.784,8.308,1.217-5.619,6.069,3.078,8.339-6.368-4.787-8.884,9.587-.422,2.4h7.2l1.06-6h6a13.445,13.445,0,0,0,12.708-10.8C552.959,636.435,548.976,631.6,543.009,631.6Z" transform="translate(21.22 4.054)"/><path class="b" d="M547.169,657.26l1.9-10.757-11.72-8.806,12.938,1.9,1.753-9.945H541.249l-7.569,15.606-4.426-15.606h-9.629l-4.869,27.61h8.4l2.328-13.2,3.674,13.2h4.8l8.331-13.2-2.328,13.2Z" transform="translate(0.044 0)"/><g transform="translate(514.736 666.902)"><path class="b" d="M520.235,641.742c.216,0,.293.077.293.293v5.533c0,.216-.077.293-.293.293h-.441c-.216,0-.293-.077-.293-.293V644.94a8.215,8.215,0,0,1,.206-1.716h-.059a9.478,9.478,0,0,1-.708,1.577l-.844,1.491a.383.383,0,0,1-.336.206h-.274a.309.309,0,0,1-.339-.206l-.859-1.5a7.064,7.064,0,0,1-.665-1.568h-.059a8.579,8.579,0,0,1,.179,1.722v2.622c0,.216-.077.293-.293.293h-.413c-.216,0-.3-.077-.3-.293v-5.533c0-.216.086-.293.3-.293h.379c.24,0,.32.043.413.222l1.793,3.207,1.793-3.2c.1-.2.163-.231.4-.231Z" transform="translate(-514.736 -641.742)"/><path class="b" d="M518.078,645.765c0,.785.456,1.217,1.325,1.217s1.328-.431,1.328-1.217v-3.731c0-.216.08-.293.293-.293h.493c.216,0,.293.077.293.293v3.721a2.416,2.416,0,0,1-4.818,0v-3.721c0-.216.077-.293.293-.293h.5c.212,0,.293.077.293.293Z" transform="translate(-510.044 -641.742)"/><path class="b" d="M519.722,641.742c.216,0,.3.077.3.293v4.818h2.474c.213,0,.293.077.293.293v.422c0,.216-.08.293-.293.293h-3.259c-.216,0-.3-.077-.3-.293v-5.533c0-.216.086-.293.3-.293Z" transform="translate(-506.01 -641.742)"/><path class="b" d="M524.284,641.742c.216,0,.293.077.293.293v.422c0,.216-.077.293-.293.293H522.8v4.818c0,.216-.077.293-.293.293h-.5c-.216,0-.3-.077-.3-.293v-4.818h-1.482c-.216,0-.293-.077-.293-.293v-.422c0-.216.077-.293.293-.293Z" transform="translate(-503.909 -641.742)"/><path class="b" d="M521.678,642.034c0-.216.086-.293.3-.293h.49c.216,0,.293.077.293.293v5.533c0,.216-.077.293-.293.293h-.49c-.216,0-.3-.077-.3-.293Z" transform="translate(-500.292 -641.742)"/><path class="b" d="M525,641.742a1.995,1.995,0,1,1,0,3.989h-1.5v1.836c0,.216-.077.293-.292.293h-.493c-.216,0-.3-.077-.3-.293v-5.533c0-.216.086-.293.3-.293Zm-.1,2.982a.988.988,0,1,0,0-1.975h-1.4v1.975Z" transform="translate(-498.757 -641.742)"/><path class="b" d="M526.865,641.742a1.768,1.768,0,0,1,1.938,1.895,1.678,1.678,0,0,1-1.137,1.741,1.065,1.065,0,0,1,.274.373l.949,1.817c.1.2.053.293-.148.293h-.5c-.379,0-.481-.043-.585-.259l-.724-1.466c-.234-.481-.441-.6-1.026-.6h-.638v2.033c0,.216-.077.293-.293.293h-.493c-.216,0-.3-.077-.3-.293v-5.533c0-.216.083-.293.3-.293Zm.8,1.895a.892.892,0,0,0-.234-.662.935.935,0,0,0-.672-.225h-1.491v1.775h1.491a.941.941,0,0,0,.672-.231A.868.868,0,0,0,527.666,643.637Z" transform="translate(-495.076 -641.742)"/><path class="b" d="M529.727,641.742c.216,0,.3.077.3.293v.422c0,.216-.086.293-.3.293H527.09v1.51h2.234c.216,0,.293.077.293.293v.422c0,.216-.077.293-.293.293H527.09v1.587h2.733c.216,0,.293.077.293.293v.422c0,.216-.077.293-.293.293h-3.515c-.216,0-.3-.077-.3-.293v-5.533c0-.216.086-.293.3-.293Z" transform="translate(-491.288 -641.742)"/><path class="b" d="M533.125,641.742c.216,0,.293.077.293.293v5.533c0,.216-.077.293-.293.293h-.441c-.216,0-.293-.077-.293-.293V644.94a8,8,0,0,1,.207-1.716h-.058a9.778,9.778,0,0,1-.708,1.577l-.844,1.491a.382.382,0,0,1-.336.206h-.277a.307.307,0,0,1-.336-.206l-.863-1.5a7.2,7.2,0,0,1-.662-1.568h-.062a8.367,8.367,0,0,1,.182,1.722v2.622c0,.216-.077.293-.293.293h-.413c-.216,0-.3-.077-.3-.293v-5.533c0-.216.086-.293.3-.293h.379c.24,0,.317.043.413.222l1.793,3.207,1.793-3.2c.1-.2.163-.231.4-.231Z" transform="translate(-487.917 -641.742)"/><path class="b" d="M529.9,642.034c0-.216.086-.293.3-.293h.49c.216,0,.3.077.3.293v5.533c0,.216-.08.293-.3.293h-.49c-.216,0-.3-.077-.3-.293Z" transform="translate(-483.196 -641.742)"/><path class="b" d="M534.355,641.742c.216,0,.3.077.3.293v.422c0,.216-.086.293-.3.293h-2.637v1.51h2.233c.216,0,.293.077.293.293v.422c0,.216-.077.293-.293.293h-2.233v1.587h2.732c.216,0,.293.077.293.293v.422c0,.216-.077.293-.293.293h-3.515c-.216,0-.3-.077-.3-.293v-5.533c0-.216.086-.293.3-.293Z" transform="translate(-481.659 -641.742)"/><path class="b" d="M534.934,641.742a1.768,1.768,0,0,1,1.938,1.895,1.677,1.677,0,0,1-1.137,1.741,1.065,1.065,0,0,1,.274.373l.949,1.817c.1.2.052.293-.145.293h-.5c-.379,0-.481-.043-.585-.259L535,646.135c-.231-.481-.44-.6-1.026-.6h-.638v2.033c0,.216-.077.293-.293.293h-.49c-.216,0-.3-.077-.3-.293v-5.533c0-.216.086-.293.3-.293Zm.8,1.895a.891.891,0,0,0-.234-.662.935.935,0,0,0-.672-.225h-1.491v1.775h1.491a.94.94,0,0,0,.672-.231A.867.867,0,0,0,535.735,643.637Z" transform="translate(-478.288 -641.742)"/></g></g></g></svg>