<svg xmlns="http://www.w3.org/2000/svg" xmlns:xlink="http://www.w3.org/1999/xlink" width="138" height="110" viewBox="0 0 138 110"><defs><style>.a{fill:url(#a);}.b{filter:url(#b);}</style><linearGradient id="a" x1="0.5" y1="0.31" x2="0.5" y2="1" gradientUnits="objectBoundingBox"><stop offset="0" stop-color="#fff"/><stop offset="1" stop-color="#bfbfbf"/></linearGradient><filter id="b" x="0" y="0" width="138" height="110" filterUnits="userSpaceOnUse"><feOffset dy="3" input="SourceAlpha"/><feGaussianBlur stdDeviation="4" result="c"/><feFlood flood-opacity="0.424"/><feComposite operator="in" in2="c"/><feComposite in="SourceGraphic"/></filter></defs><g transform="translate(-590 -1158)"><g transform="translate(602 1167)"><g class="b" transform="matrix(1, 0, 0, 1, -12, -9)"><rect class="a" width="114" height="86" rx="5" transform="translate(12 9)"/></g></g><g transform="translate(419.854 835.979)"><g transform="translate(216.146 351.021)"><path d="M230.678,367.451h4.6a2.293,2.293,0,0,1,2.308,1.282l4.745,7.385h.161v-8.667h18.8a23.44,23.44,0,0,0-44.735,0Z" transform="translate(-215.494 -351.021)"/><path d="M257.588,358.679v13.845h-4.668V358.679h-5.336v13.845h-3.116a2.312,2.312,0,0,1-2.308-1.28l-6.041-9.04h-.1v10.32h-4.536V358.679h-5.315v13.845h-4.748V358.679h-5.007a23.818,23.818,0,0,0-.272,3.593,23.431,23.431,0,1,0,46.587-3.593Z" transform="translate(-216.146 -338.842)"/></g><path d="M221.413,359.23" transform="translate(8.376 13.055)"/></g></g></svg>