<svg xmlns="http://www.w3.org/2000/svg" xmlns:xlink="http://www.w3.org/1999/xlink" width="225.391" height="79.557" viewBox="0 0 225.391 79.557"><defs><style>.a{fill:#82d3e8;}.b{filter:url(#k);}.c{filter:url(#i);}.d{filter:url(#g);}.e{filter:url(#e);}.f{filter:url(#c);}.g{filter:url(#a);}</style><filter id="a" x="111.648" y="19.412" width="52.455" height="59.869" filterUnits="userSpaceOnUse"><feOffset dy="3" input="SourceAlpha"/><feGaussianBlur stdDeviation="3" result="b"/><feFlood flood-color="#0100c0"/><feComposite operator="in" in2="b"/><feComposite in="SourceGraphic"/></filter><filter id="c" x="148.454" y="19.412" width="56.458" height="59.869" filterUnits="userSpaceOnUse"><feOffset dy="3" input="SourceAlpha"/><feGaussianBlur stdDeviation="3" result="d"/><feFlood flood-color="#0100c0"/><feComposite operator="in" in2="d"/><feComposite in="SourceGraphic"/></filter><filter id="e" x="118.322" y="0" width="107.068" height="77.938" filterUnits="userSpaceOnUse"><feOffset dy="3" input="SourceAlpha"/><feGaussianBlur stdDeviation="3" result="f"/><feFlood flood-color="#0100c0"/><feComposite operator="in" in2="f"/><feComposite in="SourceGraphic"/></filter><filter id="g" x="85.944" y="12.813" width="39.006" height="66.404" filterUnits="userSpaceOnUse"><feOffset dy="3" input="SourceAlpha"/><feGaussianBlur stdDeviation="3" result="h"/><feFlood flood-color="#0100c0"/><feComposite operator="in" in2="h"/><feComposite in="SourceGraphic"/></filter><filter id="i" x="47.676" y="23.703" width="55.838" height="55.854" filterUnits="userSpaceOnUse"><feOffset dy="3" input="SourceAlpha"/><feGaussianBlur stdDeviation="3" result="j"/><feFlood flood-color="#0100c0"/><feComposite operator="in" in2="j"/><feComposite in="SourceGraphic"/></filter><filter id="k" x="0" y="10.768" width="60.722" height="68.512" filterUnits="userSpaceOnUse"><feOffset dy="3" input="SourceAlpha"/><feGaussianBlur stdDeviation="3" result="l"/><feFlood flood-color="#0100c0"/><feComposite operator="in" in2="l"/><feComposite in="SourceGraphic"/></filter></defs><g transform="translate(-637 -2288)"><g transform="translate(646 2294)"><g class="g" transform="matrix(1, 0, 0, 1, -9, -6)"><path class="a" d="M561.258,1573.99H531.1a2.13,2.13,0,0,0-2.15,2.1v3.189a2.129,2.129,0,0,0,2.15,2.1h10.836v32.371a2.13,2.13,0,0,0,2.15,2.1h4.154a2.13,2.13,0,0,0,2.15-2.1v-32.371h10.865a2.129,2.129,0,0,0,2.15-2.1v-3.189A2.13,2.13,0,0,0,561.258,1573.99Z" transform="translate(-408.31 -1548.58)"/></g><g class="f" transform="matrix(1, 0, 0, 1, -9, -6)"><path class="a" d="M597.7,1602.438l10.414-27.079a2.161,2.161,0,0,1,2.016-1.369h4.706a2.156,2.156,0,0,1,1.772.915,2.063,2.063,0,0,1,.229,1.956l-15.109,37.663a2.167,2.167,0,0,1-2,1.334h-4.1a2.165,2.165,0,0,1-2-1.343l-14.95-37.661a2.062,2.062,0,0,1,.232-1.952,2.165,2.165,0,0,1,1.772-.912h4.55a2.154,2.154,0,0,1,2.023,1.393Z" transform="translate(-421.07 -1548.58)"/></g><g class="e" transform="matrix(1, 0, 0, 1, -9, -6)"><path class="a" d="M626.279,1562.574a20.965,20.965,0,0,0-2.777-7.508,11.5,11.5,0,0,0-6.589-4.964,46.779,46.779,0,0,0-9.814-1.808,134.653,134.653,0,0,0-20.123-.143,192.708,192.708,0,0,0-26.255,3.271,112.311,112.311,0,0,0-11.6,2.882c-1.144.411-2.3.8-3.43,1.238a27.118,27.118,0,0,0-4.852,2.366,14.82,14.82,0,0,0-2.9,2.426,113.554,113.554,0,0,1,11.127-2.744,192.625,192.625,0,0,1,26.255-3.271,134.585,134.585,0,0,1,20.122.143,46.8,46.8,0,0,1,9.814,1.808,11.5,11.5,0,0,1,6.589,4.964,20.976,20.976,0,0,1,2.777,7.507c1.642,9.26.464,18.671-2.977,28.19a35.506,35.506,0,0,1-4.324,8.415,23.943,23.943,0,0,1-1.948,2.438c1.179-.326,2.644-.72,3.806-1.135a20.544,20.544,0,0,0,5.042-2.562,19.036,19.036,0,0,0,4.752-4.908,35.528,35.528,0,0,0,4.325-8.416C626.743,1581.245,627.921,1571.834,626.279,1562.574Z" transform="translate(-410.62 -1541.85)"/></g><g class="d" transform="matrix(1, 0, 0, 1, -9, -6)"><path class="a" d="M513.371,1576.811h-4.56l-.078-9.557a2.129,2.129,0,0,0-2.086-2.152H505.1a3.96,3.96,0,0,0-1.768.416l-3.48,1.733a2.18,2.18,0,0,0-1.185,1.958v7.6h-2.937a1.391,1.391,0,0,0-1.391,1.391v1.482h0v1.049a2.13,2.13,0,0,0,2.086,2.171h2.244v19.518q0,5.527.721,7.248a5.832,5.832,0,0,0,2.491,2.779,9.766,9.766,0,0,0,4.983,1.058h6.425a2.071,2.071,0,0,0,1.965-1.631,3.274,3.274,0,0,0,.08-.63c.168-3.632-1.848-3.364-1.848-3.364-.99,0-2.659-.13-2.659-.13a2.65,2.65,0,0,1-.685-.265,2.526,2.526,0,0,1-1.017-1.194,12.376,12.376,0,0,1-.311-3.529V1582.9H513.2a1.536,1.536,0,0,0,1.536-1.547l-.026-3.22A1.335,1.335,0,0,0,513.371,1576.811Z" transform="translate(-399.39 -1546.29)"/></g><g class="c" transform="matrix(1, 0, 0, 1, -9, -6)"><path class="a" d="M470.6,1605.892a1.964,1.964,0,0,0-1.756,1.109,10.311,10.311,0,0,1-3,3.8,8.092,8.092,0,0,1-.941.6,5.67,5.67,0,0,1-5.369-.025,10.28,10.28,0,0,1-2.573-1.976q-2.881-3.01-3.335-8.539a.559.559,0,0,1,.558-.6h24.818a1.627,1.627,0,0,0,1.627-1.626v-.011q0-8.969-4.6-13.914a15.485,15.485,0,0,0-11.867-4.944h-4.451a15.93,15.93,0,0,0-12.209,5.047Q442.8,1589.865,442.8,1599q0,8.832,4.655,13.726t12.6,4.894H464.5a16.709,16.709,0,0,0,10.367-3.07,14.986,14.986,0,0,0,5.078-7.09,1.166,1.166,0,0,0-1.106-1.544Zm-13.483-18.244a9.9,9.9,0,0,1,2-1.527,5.549,5.549,0,0,1,5.535-.089,9.882,9.882,0,0,1,2.732,2.331,11.314,11.314,0,0,1,2.2,5.8.931.931,0,0,1-.919,1.057H454.472a.5.5,0,0,1-.5-.539A11,11,0,0,1,457.121,1587.648Z" transform="translate(-386.12 -1550.07)"/></g><g class="b" transform="matrix(1, 0, 0, 1, -9, -6)"><path class="a" d="M380.307,1612.861h6.7a2.128,2.128,0,0,0,2.1-2.154v-28.663a.7.7,0,0,1,1.3-.4l18.775,29.367a3.961,3.961,0,0,0,3.332,1.846h5.108c3.271,0,3.691-2.219,3.691-4.955V1564.8a2.422,2.422,0,0,0-2.391-2.451h-5.991a2.163,2.163,0,0,0-2.135,2.192l.041,28.536a.609.609,0,0,1-1.12.348l-17.983-27.7a7.344,7.344,0,0,0-6.153-3.379h-4.964a2.053,2.053,0,0,0-2.027,2.077V1611.1A1.742,1.742,0,0,0,380.307,1612.861Z" transform="translate(-369.59 -1545.58)"/></g></g></g></svg>