<svg xmlns="http://www.w3.org/2000/svg" xmlns:xlink="http://www.w3.org/1999/xlink" width="512.783" height="90.845" viewBox="0 0 512.783 90.845"><defs><style>.a{fill:url(#a);}.b,.c{fill:#fff;}.b{font-size:18px;font-family:Arial-BoldMT, Arial;font-weight:700;}.d{filter:url(#e);}.e{filter:url(#b);}</style><linearGradient id="a" x1="0.5" x2="0.5" y2="1" gradientUnits="objectBoundingBox"><stop offset="0" stop-color="#f43d32"/><stop offset="1" stop-color="#ba0d0b"/></linearGradient><filter id="b" x="0" y="6" width="512.783" height="84.845" filterUnits="userSpaceOnUse"><feOffset dy="6" input="SourceAlpha"/><feGaussianBlur stdDeviation="3" result="c"/><feFlood flood-opacity="0.424"/><feComposite operator="in" in2="c"/><feComposite in="SourceGraphic"/></filter><filter id="e" x="426" y="0" width="86.783" height="84.845" filterUnits="userSpaceOnUse"><feOffset input="SourceAlpha"/><feGaussianBlur stdDeviation="3" result="f"/><feFlood flood-opacity="0.424"/><feComposite operator="in" in2="f"/><feComposite in="SourceGraphic"/></filter></defs><g transform="translate(-726 -2296)"><g class="e" transform="matrix(1, 0, 0, 1, 726, 2296)"><rect class="a" width="494.783" height="66.845" rx="13" transform="translate(9 9)"/></g><text class="b" transform="translate(865 2334)"><tspan x="-106.515" y="0">¡SUSCRÍBETE AHORA Y </tspan><tspan x="-103.988" y="21">ACTIVA LA CAMPANITA </tspan></text><g class="d" transform="matrix(1, 0, 0, 1, 726, 2296)"><path class="a" d="M0,0H55.783a13,13,0,0,1,13,13V53.845a13,13,0,0,1-13,13H0a0,0,0,0,1,0,0V0A0,0,0,0,1,0,0Z" transform="translate(435 9)"/></g><g transform="translate(807.862 1826.776)"><g transform="translate(373.055 496.055)"><path class="c" d="M403.3,522.055a3.184,3.184,0,0,0-1.22-2.177,6.842,6.842,0,0,1-2.713-4.315c-.349-3,.488-13.742-8.3-15l-.026,0a1.949,1.949,0,0,1,.082-.848l0-.011,0-.006h0a2.3,2.3,0,1,0-4.317.038,1.928,1.928,0,0,1,.073.842c-8.68,1.325-7.852,11.994-8.2,14.981a6.84,6.84,0,0,1-2.713,4.315,3.182,3.182,0,0,0-1.219,2.177c-.218,2.261,2.4,2.018,2.4,2.018H400.9S403.516,524.315,403.3,522.055Z" transform="translate(-374.738 -496.629)"/><g transform="translate(10.425 28.874)"><path class="c" d="M399.379,557.465a3.913,3.913,0,0,0,3.861-3.283h-7.722A3.913,3.913,0,0,0,399.379,557.465Z" transform="translate(-395.518 -554.182)"/></g></g><g transform="translate(392.38 495.478)"><path class="c" d="M414.167,500.977a12.878,12.878,0,0,1,6.7,11.423.65.65,0,0,1-.614.65h0a.649.649,0,0,1-.683-.646,11.907,11.907,0,0,0-6.01-10.356.614.614,0,0,1-.174-.911h0A.614.614,0,0,1,414.167,500.977Z" transform="translate(-413.258 -498.181)"/><path class="c" d="M417.694,495.569a15.577,15.577,0,0,1,8.11,13.819.787.787,0,0,1-.743.786h0a.785.785,0,0,1-.826-.782,14.4,14.4,0,0,0-7.27-12.528.742.742,0,0,1-.211-1.1h0A.742.742,0,0,1,417.694,495.569Z" transform="translate(-414.921 -495.478)"/></g><g transform="translate(371.36 495.478)"><path class="c" d="M384.583,500.977a12.879,12.879,0,0,0-6.7,11.423.65.65,0,0,0,.614.65h0a.649.649,0,0,0,.683-.646,11.907,11.907,0,0,1,6.01-10.356.613.613,0,0,0,.174-.911h0A.614.614,0,0,0,384.583,500.977Z" transform="translate(-374.608 -498.181)"/><path class="c" d="M379.47,495.569a15.578,15.578,0,0,0-8.11,13.819.787.787,0,0,0,.743.786h0a.786.786,0,0,0,.826-.782,14.4,14.4,0,0,1,7.27-12.528.742.742,0,0,0,.21-1.1h0A.742.742,0,0,0,379.47,495.569Z" transform="translate(-371.36 -495.478)"/></g></g><g transform="translate(980.182 2320.254)"><path class="c" d="M135.947,90.777a6.575,6.575,0,0,0-4.641-4.641c-4.094-1.1-20.509-1.1-20.509-1.1s-16.415,0-20.509,1.1a6.575,6.575,0,0,0-4.641,4.641c-1.1,4.094-1.1,12.635-1.1,12.635s0,8.541,1.1,12.635a6.574,6.574,0,0,0,4.641,4.641c4.094,1.1,20.509,1.1,20.509,1.1s16.415,0,20.509-1.1a6.574,6.574,0,0,0,4.641-4.641c1.1-4.094,1.1-12.635,1.1-12.635S137.044,94.871,135.947,90.777Zm-30.4,20.509V95.538l13.638,7.875Z" transform="translate(-84.55 -85.039)"/><g transform="translate(57.687 1.445)"><g transform="translate(0 0)"><path class="c" d="M257.111,132.456a5.715,5.715,0,0,1-2.215-3.266,21.36,21.36,0,0,1-.657-5.894v-3.341a19.368,19.368,0,0,1,.751-5.969,5.988,5.988,0,0,1,2.346-3.285,7.6,7.6,0,0,1,4.186-1.032,7.14,7.14,0,0,1,4.092,1.051A6.025,6.025,0,0,1,267.866,114a20.144,20.144,0,0,1,.713,5.95V123.3a20.492,20.492,0,0,1-.694,5.912,5.808,5.808,0,0,1-2.253,3.266,9.234,9.234,0,0,1-8.521-.019Zm5.819-3.6a11.227,11.227,0,0,0,.432-3.679V118a11.1,11.1,0,0,0-.432-3.623,1.545,1.545,0,0,0-1.521-1.145,1.523,1.523,0,0,0-1.483,1.145,11.072,11.072,0,0,0-.432,3.623v7.17a11.683,11.683,0,0,0,.413,3.679,1.51,1.51,0,0,0,1.5,1.126A1.542,1.542,0,0,0,262.929,128.852Z" transform="translate(-238.602 -100.471)"/><path class="c" d="M438.745,123.373v1.164a30.61,30.61,0,0,0,.131,3.322,3.151,3.151,0,0,0,.544,1.614,1.549,1.549,0,0,0,1.276.507,1.607,1.607,0,0,0,1.6-.9,7.833,7.833,0,0,0,.469-3l4.468.263a7.062,7.062,0,0,1,.038.826,6.1,6.1,0,0,1-1.746,4.767,7.109,7.109,0,0,1-4.936,1.577q-3.829,0-5.369-2.4t-1.539-7.433v-4.017q0-5.181,1.6-7.564t5.462-2.384a7.221,7.221,0,0,1,4.092.976,5.241,5.241,0,0,1,2.008,3.041,21.991,21.991,0,0,1,.582,5.706v3.942Zm.657-9.685a3.166,3.166,0,0,0-.526,1.6,31.093,31.093,0,0,0-.131,3.36v1.652h3.791v-1.652a27.969,27.969,0,0,0-.15-3.36,3.216,3.216,0,0,0-.544-1.614,1.5,1.5,0,0,0-1.22-.469A1.476,1.476,0,0,0,439.4,113.688Z" transform="translate(-340.505 -100.493)"/><path class="c" d="M223.945,112.36l-5.894-21.285h5.143l2.065,9.648q.788,3.567,1.164,6.081h.15q.263-1.8,1.164-6.044l2.139-9.686h5.143l-5.969,21.285v10.211h-5.105Z" transform="translate(-218.052 -89.912)"/><path class="c" d="M307.684,110.711v23.012H303.63l-.451-2.815h-.112a5.3,5.3,0,0,1-4.955,3.191,3.892,3.892,0,0,1-3.379-1.5,8.06,8.06,0,0,1-1.088-4.692V110.711h5.181V127.6a5.157,5.157,0,0,0,.337,2.2,1.169,1.169,0,0,0,1.126.657,2.3,2.3,0,0,0,1.3-.413,2.556,2.556,0,0,0,.92-1.051V110.711Z" transform="translate(-260.98 -101.063)"/><path class="c" d="M369.18,110.711v23.012h-4.054l-.451-2.815h-.112a5.3,5.3,0,0,1-4.955,3.191,3.892,3.892,0,0,1-3.379-1.5,8.057,8.057,0,0,1-1.088-4.692V110.711h5.18V127.6a5.158,5.158,0,0,0,.338,2.2,1.169,1.169,0,0,0,1.127.657,2.3,2.3,0,0,0,1.295-.413,2.556,2.556,0,0,0,.92-1.051V110.711Z" transform="translate(-295.904 -101.063)"/><path class="c" d="M338.536,95.244h-5.143v27.329h-5.068V95.244h-5.143V91.077h15.353Z" transform="translate(-277.755 -89.913)"/><path class="c" d="M408.883,101.71a5.919,5.919,0,0,0-1.521-3.153,4.084,4.084,0,0,0-2.89-.976,4.794,4.794,0,0,0-2.666.807,5.485,5.485,0,0,0-1.914,2.121h-.038V88.383h-4.993v32.66h4.28l.525-2.177h.113a4.394,4.394,0,0,0,1.8,1.839,5.34,5.34,0,0,0,2.666.676,4.08,4.08,0,0,0,3.867-2.421q1.239-2.422,1.239-7.564v-3.641A30.246,30.246,0,0,0,408.883,101.71Zm-4.749,9.387a29.111,29.111,0,0,1-.207,3.942,4.258,4.258,0,0,1-.694,2.027,1.6,1.6,0,0,1-1.314.6,2.4,2.4,0,0,1-1.182-.3,2.26,2.26,0,0,1-.882-.9V103.4a3.266,3.266,0,0,1,.9-1.539,1.994,1.994,0,0,1,1.389-.6,1.4,1.4,0,0,1,1.22.62,4.761,4.761,0,0,1,.6,2.084,38.907,38.907,0,0,1,.169,4.166Z" transform="translate(-318.462 -88.383)"/></g></g></g></g></svg>