<svg xmlns="http://www.w3.org/2000/svg" xmlns:xlink="http://www.w3.org/1999/xlink" width="138" height="110" viewBox="0 0 138 110"><defs><style>.a{fill:url(#a);}.b{fill:#008ad8;}.c{filter:url(#b);}</style><linearGradient id="a" x1="0.5" y1="0.31" x2="0.5" y2="1" gradientUnits="objectBoundingBox"><stop offset="0" stop-color="#fff"/><stop offset="1" stop-color="#bfbfbf"/></linearGradient><filter id="b" x="0" y="0" width="138" height="110" filterUnits="userSpaceOnUse"><feOffset dy="3" input="SourceAlpha"/><feGaussianBlur stdDeviation="4" result="c"/><feFlood flood-opacity="0.424"/><feComposite operator="in" in2="c"/><feComposite in="SourceGraphic"/></filter></defs><g transform="translate(-143 -1051)"><g transform="translate(155 1060)"><g class="c" transform="matrix(1, 0, 0, 1, -12, -9)"><rect class="a" width="114" height="86" rx="5" transform="translate(12 9)"/></g></g><g transform="translate(-44.277 681.171)"><path class="b" d="M230.24,407.569c-1.757.292-2.867,1.321-2.593,2.133A10.393,10.393,0,0,1,230.24,407.569Z" transform="translate(21.472 4.414)"/><path class="b" d="M217.02,413.033c0,.765,2.791,3.068,6.9,4.514-.005-1.788.018-4.457.042-6.316C220.62,411.4,217.015,411.848,217.02,413.033Z" transform="translate(4.419 10.314)"/><path class="b" d="M228.109,410.573a4.005,4.005,0,0,0,1.175.159c1.117,0,3.7-1.036,3.7-2.292a.74.74,0,0,0-.807-.752C231.127,407.693,228.994,409.573,228.109,410.573Z" transform="translate(22.282 4.606)"/><path class="b" d="M297.185,421.507c-.577-2.966-3.418-4.378-4.707-4.713a6.772,6.772,0,0,0-4.324.324,8.4,8.4,0,0,0-2.068,1.258,5.055,5.055,0,0,0-3.266-1.287c-1.258.06-6.412.658-7.733,1.36-.726-1.282-1.862-2.713-3.24-2.817a1.872,1.872,0,0,0-1.666.739,3.74,3.74,0,0,0-.329,2.828c-1.969-1.969-6.381-2.1-9.2-2.117a20.693,20.693,0,0,0-7.143,1.209,12.453,12.453,0,0,0,3.629-3.06,3.563,3.563,0,0,0,3.292-1.459,3.671,3.671,0,0,0,.185-3.728,4,4,0,0,0-2.449-1.992,3.653,3.653,0,0,0-3.274.65h0a3.443,3.443,0,0,0-2.164-2.757,3.824,3.824,0,0,0-3.734.5,3.411,3.411,0,0,0-1.191,1.744,3.2,3.2,0,0,0,.3,2.415l-.013.013a4.975,4.975,0,0,0-1.885,3.783,33.644,33.644,0,0,0-8.135-5.833,33.008,33.008,0,0,0-13.477-3.736,29.921,29.921,0,0,0-6.786.6c-3.454,1.037-3.791,3.548-3.42,4.639.418,1.222,1.846,1.7,3.681,1.384a1.947,1.947,0,0,0,1.546-1.569,27.77,27.77,0,0,1,8.694.862,27.157,27.157,0,0,0-1.36,6.877,21.879,21.879,0,0,0-4.66,1.509,5.61,5.61,0,0,0-3.052,2.822c-.512,1.452.334,2.869,1.232,3.963a20.377,20.377,0,0,0,6.423,4.833,3.393,3.393,0,0,0,2.144,2.94,3.016,3.016,0,0,0,3.436-1.1,24.314,24.314,0,0,0,4.167.379l.005,1.647a3.708,3.708,0,0,0,3.694,3.7h41.648a4.7,4.7,0,0,0,2.807,2.629c2.188.431,2.446-1.6,2.564-2.245a14.369,14.369,0,0,1,.439-1.995l1.6-5.371a9.995,9.995,0,0,0,4.123-1.7,10.252,10.252,0,0,0,2.773-3.013A6.884,6.884,0,0,0,297.185,421.507Zm-29.644-1.976c1.384.1,4.7,6.156,5.083,6.047.248-.068.274-.637.274-.953-.008-1.533-1.593-5.53-1.6-6.679,0-.381.06-.744.4-.744,1.36,0,3.692,4.3,3.7,7.817,0,1.53-.945,3.9-2.564,3.9-1.488.008-4.164-5.514-4.653-5.514-.658,0,.191,6.042-1.452,6.044-1.107,0-1.365-.995-1.368-2.483S266.121,419.432,267.542,419.531Zm-6.955-.872c1.582-.005,4.381-.018,4.389,1.073,0,1.828-9,.838-9.015,2.175-.008.407,1.95.5,3.767.648,2.426.206,5.206.538,5.217,3.478,0,1.209-1.039,3.553-5.164,3.561-4.183.016-5.676-2.133-5.679-3.044-.008-1.757,1.674-2.237,2.843-2.243,1.112,0,4.713.431,4.715,1.318,0,.488-.9.969-1.987.974s-2.663-.969-3.428-.969-1.1.514-1.1.812.044.893,2.086.888c.992-.005,5.807-.54,5.8-1.869,0-.6-2.211-1.185-4.029-1.371-2.232-.224-5.593.329-5.6-1.94C253.4,418.8,259.4,418.661,260.586,418.659Zm-10.18-7.765a2.142,2.142,0,0,1-1.245-1.2,1.869,1.869,0,0,1,.285-1.82,2.454,2.454,0,0,1,3.188-.48,1.993,1.993,0,0,1,.935,1.553,1.923,1.923,0,0,1-.527,1.386,3.025,3.025,0,0,1,1.961.924l.031.005a1.925,1.925,0,0,1,.24-.875,2.162,2.162,0,0,1,1.616-1.063,2.594,2.594,0,0,1,2.125.838,2.334,2.334,0,0,1,.627,1.47,2.108,2.108,0,0,1-.692,1.71,2.2,2.2,0,0,1-1.838.483,1.981,1.981,0,0,1-.783-.248,6.488,6.488,0,0,1-4.971,3.277c-2.9-.05-3.624-1.723-3.626-2.692A4.446,4.446,0,0,1,250.407,410.894Zm-19.127,7.83c7.658,0,9.937,2.12,9.942,3.927a2.729,2.729,0,0,1-1.681,2.217c-.768-.055-1.65.016-1.653-.376,0-.522.953-.9.953-1.446-.005-.642-3.6-1.611-6.347-1.6-.342,0-.739,0-1.167.01.042,2.177.141,5.626.193,7.271a20.043,20.043,0,0,0,3.807.368c3.7-.01,10.423-1.167,10.407-6.329-.021-6.639-13.039-14.469-24.341-14.438-1.318.008-3.955.12-3.955.611,0,.423.684.339.684.762,0,.3-.465.342-.982.342s-1.358-.06-1.339-.781a2.753,2.753,0,0,1,1.676-2.068h0a19.566,19.566,0,0,1,5.825-.786c11.953-.334,25.688,9.454,25.707,16.26.018,5.078-5.548,8.783-12.48,8.8a19.957,19.957,0,0,1-5-.619c-.1.762-.441,1.488-1.428,1.488-1.358.008-1.653-1.044-1.734-2.574-4.78-2.076-7.733-5.485-7.733-6.838-.005-1.655,3.668-3.337,7.8-3.958.081-1.948.358-5.475,1.318-5.478C230.9,413.489,231.209,416.693,231.279,418.724Zm9.412,18.281a2.185,2.185,0,0,1-2.05-1.188c-.219-.661.1-1.358.953-2.07,1.927-1.614,3.055-1.89,3.822-1.953a1.2,1.2,0,0,1,1.384.843.557.557,0,0,1-1.073.29.412.412,0,0,0-.222-.021c-.6.047-1.509.285-3.2,1.694-.553.465-.645.762-.611.864.065.191.514.4.9.423a26.437,26.437,0,0,0,4.653-.36.557.557,0,1,1,.358,1.055A27.089,27.089,0,0,1,240.692,437.005Zm10.091-2.5.1,2.373a.556.556,0,0,1-.53.582h-.026a.557.557,0,0,1-.556-.533l-.094-2.117c-.488.141-1.057.308-1.621.475v1.368a.556.556,0,1,1-1.112,0v-1.034l-.159.047a.511.511,0,0,1-.162.026.558.558,0,0,1-.162-1.091l.483-.146V432.4a.556.556,0,1,1,1.112,0v1.721c.522-.157,1.086-.321,1.569-.457l-.076-1.755a.553.553,0,0,1,.53-.58.559.559,0,0,1,.582.53l.068,1.512.086-.018a.545.545,0,0,1,.635.467C251.48,434.183,251.276,434.428,250.783,434.507Zm-.741-9.441c.036-1.721.065-6.441,1.238-6.446.916,0,1.339,1.2,1.486,7.441.081,3.292-.24,3.4-1.178,3.4C250.54,429.47,249.955,429,250.041,425.066Zm2.514,12.506a.558.558,0,0,1-.478-.679c.068-.292.133-.564.2-.825a.554.554,0,0,1-.167-1.07l.483-.185c.906-3.446,1.235-3.462,1.608-3.475.3-.008.58-.016,1.864,2.316a.557.557,0,0,1,.449.836c.3.567.64,1.232,1.034,2.018a.558.558,0,1,1-1,.5c-.337-.676-.708-1.392-1.063-2.055-.608.2-1.358.473-1.953.7-.131.5-.258,1.01-.373,1.5A.554.554,0,0,1,252.555,437.572Zm6.182.172a.557.557,0,0,1-.619-.363,16.334,16.334,0,0,1-.068-2.423c-.01-2.454.039-2.619.441-2.786.444-.185.721.17,1.138.7.266.342.606.8.963,1.277.324.439.752,1,1.089,1.431.013-.927.141-3.679.175-3.937a.556.556,0,1,1,1.1.136c-.023.191-.151,2.389-.164,3.326-.008.956-.016,1.742-.467,2.018a.71.71,0,0,1-.7.018c-.266-.133-.59-.525-1.932-2.326-.165-.224-.352-.475-.533-.713-.01,1.164.018,2.755.036,3.036A.549.549,0,0,1,258.738,437.744Zm9.77-.676c-.543.245-1.091-.243-2.016-1.128l-.081-.078c-.243-.232-.614-.624-1.005-1.039-.144-.151-.308-.326-.475-.5.034.715.1,1.658.164,2.53a.556.556,0,0,1-.514.6l-.042,0a.558.558,0,0,1-.556-.514s-.073-.956-.131-1.919c-.115-1.992-.136-2.35.371-2.5.42-.125.569.034,1.992,1.543.366.387.744.789.963,1l.084.076c.12.115.3.285.473.444-.091-.982-.253-2.538-.352-3.444a.558.558,0,0,1,1.11-.12c.016.149.392,3.65.42,4.313A.717.717,0,0,1,268.508,437.068Zm5.8-.4c-.556.373-1.757.259-2.955.373a1.468,1.468,0,0,1-1.2-.261,5.2,5.2,0,0,1-.389-1.734.608.608,0,0,1-.024-.141l0-.026c-.117-1.01-.183-2.039-.183-2.057a.719.719,0,0,1,.217-.53c.274-.269.666-.277,1.339-.264s2.271-.084,2.475-.1a.557.557,0,0,1,.277,1.076c-.211.073-2.324.149-2.773.144-.078,0-.248-.005-.4,0,.026.29.034.415.084.872.909-.034,2.052-.115,2.561-.2a.519.519,0,0,1,.538.512.546.546,0,0,1-.465.54,17.358,17.358,0,0,1-2.5.227c.029.211.091.744.115.88a12.015,12.015,0,0,0,2.744-.321c.3-.057.561-.068.71.2A.637.637,0,0,1,274.312,436.666Zm1.65-5.036a.567.567,0,0,1,.564.548c0,.149.063,3.472.068,4.039l.06-.008a15.526,15.526,0,0,1,4.018-.2.557.557,0,0,1-.115,1.107,14.072,14.072,0,0,0-3.715.191c-.7.125-1.363-.178-1.363-1.023,0-.206-.044-2.762-.068-4.086A.56.56,0,0,1,275.962,431.629Zm2.339-1.381c-1.882.06-2.561-1.984-2.566-2.906a17.134,17.134,0,0,1,.762-2.728c.06-.232-.256-.53-.238-.723.081-.828,1.277-.919,1.379-1.217a5.182,5.182,0,0,0,.313-1.384c-.042-.232-1.723-.569-1.723-1.42-.005-.9,3.587-.888,6.352-1.188,1.613-.178,2.922,1.331,2.815,1.694a1.075,1.075,0,0,1-.849.7c-.261.065-3.713.159-4.23.376-.256.1-.418,1.157-.3,1.363a12.839,12.839,0,0,0,2.765.248.873.873,0,0,1-.225,1.7c-.413.026-2.916-.016-3.321.115s-.8,1.984-.59,2.175,3.425-.525,4-.525,1.386.64,1.324,1.188C283.933,428.084,281.272,430.146,278.3,430.248Zm9.95-.384c-.334,1.4-1.292,4.681-1.893,6.478-.426,1.251-.5,3.091-.822,3.162-.851.188-2.274-1.193-2.3-2.6-.05-2.72,1.465-7.2,2.086-9.216a5.294,5.294,0,0,1-.569-2.3c-.01-3.005,2.76-6.227,3.626-6.94.452-.363.856.647.5,1.415-.345.734-2.19,3.666-2.188,4.645a1.67,1.67,0,0,0,.185.679c1.817-2.318,4.929-5.752,6.543-5.848.585-.034,2.428.715,2.436,3.822S292.008,430.128,288.251,429.865Z" transform="translate(0 0)"/><path class="b" d="M229.449,417.01c.352-.128.715-.256,1.055-.368-.232-.42-.444-.786-.619-1.063C229.76,415.945,229.608,416.446,229.449,417.01Z" transform="translate(24.441 17.317)"/><path class="b" d="M247.167,411.236c-.731-.016-2.713,3.115-4.07,5.472,1.992.034,4.783-1.88,4.775-4.188C247.87,411.753,247.676,411.241,247.167,411.236Z" transform="translate(46.426 10.321)"/></g></g></svg>