<svg xmlns="http://www.w3.org/2000/svg" xmlns:xlink="http://www.w3.org/1999/xlink" width="53" height="50" viewBox="0 0 53 50"><defs><style>.a{fill:url(#a);}.b{opacity:0.9;fill:url(#b);}.c{fill:url(#c);}.d{fill:#f79400;}.e,.f,.h,.j,.m{mix-blend-mode:multiply;isolation:isolate;}.e{fill:url(#d);}.f,.p{fill:none;}.f{stroke:#f79400;stroke-width:13.28px;}.g{fill:#ffa800;}.h{fill:url(#e);}.i{opacity:0.25;fill:url(#f);}.j{fill:url(#g);}.k{fill:#54742b;}.l{opacity:0.35;fill:url(#h);}.m{fill:url(#i);}.n{fill:#fc9200;}.o{fill:#fff;}</style><linearGradient id="a" x1="-0.265" y1="0.884" x2="0.797" y2="-0.01" gradientUnits="objectBoundingBox"><stop offset="0" stop-color="#002d58"/><stop offset="0.191" stop-color="#003568"/><stop offset="0.505" stop-color="#00407e"/><stop offset="0.709" stop-color="#004586"/></linearGradient><linearGradient id="b" x1="0.449" y1="0.542" x2="1.031" y2="0.053" gradientUnits="objectBoundingBox"><stop offset="0" stop-color="#00386a"/><stop offset="0.341" stop-color="#00386a"/><stop offset="0.403" stop-color="#063d6d"/><stop offset="0.494" stop-color="#194b78"/><stop offset="0.6" stop-color="#386289"/><stop offset="0.719" stop-color="#6482a1"/><stop offset="0.849" stop-color="#9bacc0"/><stop offset="0.985" stop-color="#dedee5"/><stop offset="1" stop-color="#e6e4ea"/></linearGradient><linearGradient id="c" x1="-0.041" y1="0.951" x2="1.041" y2="0.049" gradientUnits="objectBoundingBox"><stop offset="0" stop-color="#aeb0b3"/><stop offset="0.047" stop-color="#bfc1c3"/><stop offset="0.128" stop-color="#d6d7d9"/><stop offset="0.22" stop-color="#e8e9ea"/><stop offset="0.331" stop-color="#f5f5f6"/><stop offset="0.477" stop-color="#fcfcfd"/><stop offset="0.802" stop-color="#fff"/></linearGradient><linearGradient id="d" y1="0.5" x2="1" y2="0.5" gradientUnits="objectBoundingBox"><stop offset="0" stop-color="#ffa700"/><stop offset="0.031" stop-color="#ffaa0a"/><stop offset="0.443" stop-color="#ffd78c"/><stop offset="0.724" stop-color="#fff3de"/><stop offset="0.852" stop-color="#fff"/></linearGradient><linearGradient id="e" x1="-0.311" y1="0.606" x2="1.193" y2="0.355" gradientUnits="objectBoundingBox"><stop offset="0.143" stop-color="#ffa700"/><stop offset="0.229" stop-color="#ffb62e"/><stop offset="0.357" stop-color="#ffcc6c"/><stop offset="0.48" stop-color="#ffdea1"/><stop offset="0.594" stop-color="#ffecc9"/><stop offset="0.698" stop-color="#fff6e6"/><stop offset="0.787" stop-color="#fffcf8"/><stop offset="0.852" stop-color="#fff"/></linearGradient><linearGradient id="f" x1="0.451" y1="0.561" x2="0.951" y2="-0.061" gradientUnits="objectBoundingBox"><stop offset="0" stop-color="#fff"/><stop offset="0.172" stop-color="#ffe7ba"/><stop offset="0.355" stop-color="#ffd078"/><stop offset="0.521" stop-color="#ffbe44"/><stop offset="0.664" stop-color="#ffb11f"/><stop offset="0.779" stop-color="#ffa908"/><stop offset="0.852" stop-color="#ffa700"/></linearGradient><linearGradient id="g" y1="0.5" x2="1" y2="0.5" gradientUnits="objectBoundingBox"><stop offset="0" stop-color="#ffa700"/><stop offset="0.058" stop-color="#ffb428"/><stop offset="0.138" stop-color="#ffc65a"/><stop offset="0.223" stop-color="#ffd586"/><stop offset="0.311" stop-color="#ffe2ab"/><stop offset="0.401" stop-color="#ffecc9"/><stop offset="0.496" stop-color="#fff4e1"/><stop offset="0.597" stop-color="#fffaf2"/><stop offset="0.709" stop-color="#fffdfb"/><stop offset="0.852" stop-color="#fff"/></linearGradient><linearGradient id="h" x1="0.343" y1="0.626" x2="0.872" y2="0.142" gradientUnits="objectBoundingBox"><stop offset="0.242" stop-color="#3c581f"/><stop offset="1" stop-color="#fff"/></linearGradient><linearGradient id="i" x1="-0.263" y1="0.812" x2="1.197" y2="0.303" gradientUnits="objectBoundingBox"><stop offset="0" stop-color="#54742b"/><stop offset="0.061" stop-color="#688444"/><stop offset="0.26" stop-color="#a8b893"/><stop offset="0.425" stop-color="#d7decd"/><stop offset="0.545" stop-color="#f4f6f1"/><stop offset="0.61" stop-color="#fff"/></linearGradient></defs><g transform="translate(-1119 -1450)"><g transform="translate(1126 1456)"><path class="a" d="M-775.853,1927.552c-8.464,0-16.862.2-16.862.2s-.26,8.549-.26,17.079c0,8.491.26,16.963.26,16.963s8.418.26,16.882.26c8.557,0,17.16-.26,17.16-.26s.26-8.54.26-17.066c0-8.5-.264-16.973-.264-16.973S-767.3,1927.552-775.853,1927.552Zm10.9,28.219h-21.768v-21.908h21.768Z" transform="translate(792.975 -1927.552)"/><path class="b" d="M-764.831,1949.868c2.808,4.136,4.635,8.583,6.275,11.923,0,0,.282-8.476.282-17,0-8.495-.273-17.04-.273-17.04s-8.591-.195-17.147-.195c-8.464,0-16.9.195-16.9.195a34.664,34.664,0,0,1,13.246,6.113h14.519Z" transform="translate(792.853 -1927.553)"/><rect class="c" width="21.767" height="21.909" transform="translate(6.254 6.31)"/><g transform="translate(6.254 6.31)"><path class="d" d="M-773.616,1951.682l-3.792,6.3h6.565v-12.74C-770.9,1946.038-770.839,1947.042-773.616,1951.682Z" transform="translate(781.694 -1939.573)"/><path class="e" d="M-773.616,1951.682l-3.792,6.3h6.565v-12.74C-770.9,1946.038-770.839,1947.042-773.616,1951.682Z" transform="translate(781.694 -1939.573)"/><path class="f" d="M-777.408,1964.056" transform="translate(781.694 -1945.649)"/><path class="g" d="M-777.769,1941.6s-1.846-1.528-5.767,2.844l-.2.251V1956.7c.227-.314,6.055-10.125,6.055-10.125S-775.426,1942.91-777.769,1941.6Z" transform="translate(783.738 -1938.314)"/><path class="h" d="M-777.759,1941.588s-1.846-1.528-5.767,2.845l-.212.262.012,11.995c.227-.313,6.055-10.125,6.055-10.125S-775.416,1942.9-777.759,1941.588Z" transform="translate(783.738 -1938.311)"/><path class="d" d="M-770.339,1942.433v-5.562h-5.486s5.473.153,5.486,5.562" transform="translate(781.19 -1936.871)"/><path class="i" d="M-769.432,1939.772v-2.9h-3.606A16.008,16.008,0,0,1-769.432,1939.772Z" transform="translate(780.283 -1936.871)"/><path class="d" d="M-779.191,1936.877h-4.546v2.292A5.989,5.989,0,0,1-779.191,1936.877Z" transform="translate(783.738 -1936.873)"/><path class="j" d="M-779.192,1936.871h-4.546v2.292A5.989,5.989,0,0,1-779.192,1936.871Z" transform="translate(783.738 -1936.871)"/></g><path class="k" d="M-767.715,1943.259v-4.036a6.182,6.182,0,0,1,5.425-2.336s5.492.039,5.492,5.515c0,0-.01,1.947-2.728,6.467l-3.85,6.383h6.58v3.528h-10.913v-3.553l6.132-10.135s2.253-3.672-.089-4.984c0,0-2.057-1.313-5.981,3.121Z" transform="translate(784.819 -1930.562)"/><path class="l" d="M-759.5,1948.821c2.119-3.492,2.7-5.879,2.7-6.42a5.247,5.247,0,0,0-4.878-5.458,6.3,6.3,0,0,0-6.039,2.279v.554a15.109,15.109,0,0,1,1.834,1.714c2.762-2.29,4.2-1.386,4.2-1.386,2.381,1.332.043,5.083.043,5.083l-.32.533S-760.4,1947.579-759.5,1948.821Z" transform="translate(784.819 -1930.561)"/><path class="m" d="M-767.715,1943.313v-4.09a6.18,6.18,0,0,1,5.427-2.336c1.878.1,5.49,1.06,5.49,5.515,0,0-.013,1.955-2.73,6.475l-3.845,6.375h6.577v3.528h-10.913v-3.552l6.128-10.129s2.257-3.678-.085-4.99c0,0-2.057-1.313-5.981,3.121Z" transform="translate(784.819 -1930.563)"/><rect class="n" width="10.961" height="7.152" transform="translate(28.122 30.662)"/><g transform="translate(29.491 31.813)"><path class="o" d="M-749.354,1976.164l-.011-.243c0-.828.236-1.385,1.165-1.385a1.058,1.058,0,0,1,1.2,1.142,2.533,2.533,0,0,1-.366,1.213l-.746,1.414h1.036v.769h-2.344l1.006-1.846a3.728,3.728,0,0,0,.573-1.52c0-.231-.07-.551-.355-.551-.337,0-.355.479-.355.722l.012.284Z" transform="translate(749.42 -1974.536)"/><path class="o" d="M-745.629,1976.164l-.012-.243c0-.828.237-1.385,1.166-1.385a1.058,1.058,0,0,1,1.2,1.142,2.536,2.536,0,0,1-.366,1.213l-.746,1.414h1.035v.769h-2.342l1.006-1.846a3.729,3.729,0,0,0,.574-1.52c0-.231-.071-.551-.355-.551-.337,0-.355.479-.355.722l.012.284Z" transform="translate(748.217 -1974.536)"/><path class="o" d="M-740.784,1980.245a.561.561,0,0,1-.562.561.561.561,0,0,1-.561-.561.561.561,0,0,1,.561-.562A.561.561,0,0,1-740.784,1980.245Z" transform="translate(746.994 -1976.198)"/><path class="o" d="M-738.748,1974.65v4.461h-.858v-3.692h-.426v-.769Z" transform="translate(746.389 -1974.573)"/></g><g transform="translate(8.599 1.555)"><path class="o" d="M-778.024,1930.968a.817.817,0,0,0-.672-.34.8.8,0,0,0-.784.856.783.783,0,0,0,.8.84.867.867,0,0,0,.66-.327v.962a2.065,2.065,0,0,1-.676.143,1.594,1.594,0,0,1-1.1-.454,1.549,1.549,0,0,1-.473-1.168,1.661,1.661,0,0,1,.433-1.131,1.558,1.558,0,0,1,1.12-.5,1.731,1.731,0,0,1,.7.155Z" transform="translate(780.276 -1929.849)"/><path class="o" d="M-774.478,1932.523l-.2.536h-.812l1.131-3.089h.836l1.108,3.089h-.815l-.191-.536Zm.534-1.6h-.007l-.317.983h.636Z" transform="translate(778.732 -1929.888)"/><path class="o" d="M-769.449,1929.97h.766l1.4,1.889h.008v-1.889h.765v3.089h-.765l-1.4-1.892h-.007v1.892h-.766Z" transform="translate(776.78 -1929.888)"/><path class="o" d="M-762.6,1932.523l-.2.536h-.811l1.131-3.089h.835l1.108,3.089h-.816l-.191-.536Zm.535-1.6h-.008l-.315.983h.636Z" transform="translate(774.895 -1929.888)"/><path class="o" d="M-756.8,1932.379h.917v.68h-1.681v-3.089h.764Z" transform="translate(772.943 -1929.888)"/></g></g><rect class="p" width="53" height="50" rx="5" transform="translate(1119 1450)"/></g></svg>