<svg xmlns="http://www.w3.org/2000/svg" width="93" height="50" viewBox="0 0 93 50"><defs><style>.a{fill:#36d2b6;}.b{fill:#5b6a6a;}.c{fill:#8e9c9a;}.d{fill:none;}</style></defs><g transform="translate(-775 -1450)"><g transform="translate(781 1463)"><g transform="translate(0)"><g transform="translate(38.482 5.393)"><path class="a" d="M-493.917,1759.013a1.349,1.349,0,0,0-.552-.552,1.7,1.7,0,0,0-.865-.224,2.356,2.356,0,0,0-1.028.224,2.515,2.515,0,0,0-.81.613,2.879,2.879,0,0,0-.531.9,3.083,3.083,0,0,0-.19,1.082,2.277,2.277,0,0,0,.115.735,1.632,1.632,0,0,0,.348.592,1.655,1.655,0,0,0,.578.4,2.025,2.025,0,0,0,.81.15,2.228,2.228,0,0,0,1.034-.218,2.609,2.609,0,0,0,.735-.558l.763.708a4.224,4.224,0,0,1-1.15.824,3.327,3.327,0,0,1-1.464.307,3.7,3.7,0,0,1-1.26-.2,2.8,2.8,0,0,1-.96-.572,2.554,2.554,0,0,1-.613-.878,2.866,2.866,0,0,1-.218-1.137,4.239,4.239,0,0,1,.279-1.532,3.936,3.936,0,0,1,.789-1.28,3.778,3.778,0,0,1,1.233-.878,3.848,3.848,0,0,1,1.607-.328,3.669,3.669,0,0,1,.7.069,3.3,3.3,0,0,1,.653.2,2.314,2.314,0,0,1,.559.333,1.75,1.75,0,0,1,.415.49Z" transform="translate(499.173 -1757.188)"/><path class="a" d="M-486.785,1760.716q-.531,0-1.1.047a5.051,5.051,0,0,0-1.042.191,1.991,1.991,0,0,0-.77.416.911.911,0,0,0-.3.707.846.846,0,0,0,.1.443.839.839,0,0,0,.272.279,1.069,1.069,0,0,0,.382.15,2.3,2.3,0,0,0,.429.041,2.162,2.162,0,0,0,.79-.143,2.083,2.083,0,0,0,.64-.388,2.25,2.25,0,0,0,.456-.572,2.248,2.248,0,0,0,.252-.695l.095-.476Zm.341-.927c.018-.126.032-.226.041-.3a1.682,1.682,0,0,0,.014-.2.942.942,0,0,0-.355-.824,1.726,1.726,0,0,0-1.007-.252,2.8,2.8,0,0,0-1.035.2,3.571,3.571,0,0,0-.9.5l-.517-.844a4.087,4.087,0,0,1,1.211-.647,4.345,4.345,0,0,1,1.416-.238,3.8,3.8,0,0,1,.892.1,2.3,2.3,0,0,1,.763.327,1.694,1.694,0,0,1,.538.592,1.793,1.793,0,0,1,.2.885c0,.082,0,.189-.014.32a2.669,2.669,0,0,1-.041.333l-.476,2.615q-.069.381-.109.782a6.711,6.711,0,0,0-.042.674h-1.157q0-.2.021-.435c.014-.155.033-.309.061-.463h-.028a2.9,2.9,0,0,1-1.007.79,3.1,3.1,0,0,1-1.28.245,3.017,3.017,0,0,1-.681-.082,1.923,1.923,0,0,1-.647-.28,1.579,1.579,0,0,1-.484-.524,1.605,1.605,0,0,1-.19-.817,1.831,1.831,0,0,1,.435-1.273,2.891,2.891,0,0,1,1.123-.749,5.96,5.96,0,0,1,1.546-.354,16.634,16.634,0,0,1,1.7-.089" transform="translate(497.723 -1757.188)"/><path class="a" d="M-480.293,1757.366c-.018.127-.039.3-.061.51s-.047.393-.075.538h.028a2.74,2.74,0,0,1,.905-.892,2.36,2.36,0,0,1,1.246-.333,2.154,2.154,0,0,1,1.614.565,1.956,1.956,0,0,1,.551,1.423,3.841,3.841,0,0,1-.054.654l-.708,3.99h-1.266l.626-3.567a3.344,3.344,0,0,0,.081-.721,1.455,1.455,0,0,0-.272-.913,1.17,1.17,0,0,0-.98-.355,1.778,1.778,0,0,0-1.321.579,2.928,2.928,0,0,0-.735,1.546l-.6,3.431h-1.266l.885-5.052c.036-.173.075-.4.116-.668s.07-.517.088-.735Z" transform="translate(496.136 -1757.188)"/><path class="a" d="M-469.15,1760.716q-.532,0-1.1.047a5.051,5.051,0,0,0-1.042.191,1.978,1.978,0,0,0-.77.416.909.909,0,0,0-.3.707.855.855,0,0,0,.1.443.842.842,0,0,0,.273.279,1.065,1.065,0,0,0,.381.15,2.3,2.3,0,0,0,.429.041,2.156,2.156,0,0,0,.79-.143,2.064,2.064,0,0,0,.64-.388,2.23,2.23,0,0,0,.456-.572,2.228,2.228,0,0,0,.253-.695l.1-.476Zm.34-.927c.018-.126.032-.226.041-.3a1.664,1.664,0,0,0,.014-.2.944.944,0,0,0-.354-.824,1.726,1.726,0,0,0-1.007-.252,2.8,2.8,0,0,0-1.035.2,3.573,3.573,0,0,0-.9.5l-.517-.844a4.1,4.1,0,0,1,1.211-.647,4.349,4.349,0,0,1,1.417-.238,3.8,3.8,0,0,1,.892.1,2.29,2.29,0,0,1,.762.327,1.687,1.687,0,0,1,.538.592,1.793,1.793,0,0,1,.205.885c0,.082,0,.189-.014.32a2.644,2.644,0,0,1-.041.333l-.477,2.615c-.045.254-.082.515-.109.782s-.041.492-.041.674h-1.158c0-.135.007-.281.02-.435s.034-.309.061-.463h-.027a2.9,2.9,0,0,1-1.008.79,3.093,3.093,0,0,1-1.279.245,3.017,3.017,0,0,1-.681-.082,1.913,1.913,0,0,1-.646-.28,1.578,1.578,0,0,1-.484-.524,1.6,1.6,0,0,1-.19-.817,1.828,1.828,0,0,1,.435-1.273,2.886,2.886,0,0,1,1.123-.749,5.951,5.951,0,0,1,1.546-.354,16.617,16.617,0,0,1,1.7-.089" transform="translate(494.495 -1757.188)"/></g><path class="a" d="M-463.673,1763h-1.266l1.811-10.294h1.28Z" transform="translate(531.389 -1750.975)"/><path class="b" d="M-496.163,1771.571a1.452,1.452,0,0,0-.545-.511,1.587,1.587,0,0,0-.8-.211,2.13,2.13,0,0,0-.933.2,2.216,2.216,0,0,0-.735.56,2.731,2.731,0,0,0-.483.819,2.692,2.692,0,0,0-.177.97,2.181,2.181,0,0,0,.095.65,1.543,1.543,0,0,0,.3.547,1.482,1.482,0,0,0,.518.382,1.789,1.789,0,0,0,.749.143,2,2,0,0,0,.987-.21,3.177,3.177,0,0,0,.688-.525l.912.925a4.127,4.127,0,0,1-1.171.814,3.545,3.545,0,0,1-1.511.3,3.858,3.858,0,0,1-1.287-.2,2.9,2.9,0,0,1-.994-.579,2.547,2.547,0,0,1-.64-.892,2.861,2.861,0,0,1-.225-1.156,4.18,4.18,0,0,1,.286-1.526,4.115,4.115,0,0,1,.8-1.3,3.786,3.786,0,0,1,1.26-.9,3.945,3.945,0,0,1,1.64-.334,3.72,3.72,0,0,1,1.4.266,2.059,2.059,0,0,1,1.014.838Z" transform="translate(538.067 -1754.056)"/><path class="b" d="M-489.137,1773.26q-.463,0-.96.034a4.312,4.312,0,0,0-.913.157,1.854,1.854,0,0,0-.68.347.754.754,0,0,0-.266.606.772.772,0,0,0,.088.388.7.7,0,0,0,.238.252,1.029,1.029,0,0,0,.34.136,1.9,1.9,0,0,0,.4.041,1.9,1.9,0,0,0,.687-.123,1.812,1.812,0,0,0,.559-.333,1.878,1.878,0,0,0,.395-.49,2.112,2.112,0,0,0,.225-.606l.082-.408Zm.34-1.144c.019-.109.029-.193.034-.252s.007-.115.007-.17a.755.755,0,0,0-.307-.681,1.637,1.637,0,0,0-.905-.2,2.9,2.9,0,0,0-.988.184,3.62,3.62,0,0,0-.905.47l-.613-1.076a4.587,4.587,0,0,1,1.273-.62,4.881,4.881,0,0,1,1.464-.224,4.165,4.165,0,0,1,.92.1,2.53,2.53,0,0,1,.817.333,1.764,1.764,0,0,1,.578.606,1.827,1.827,0,0,1,.218.932c0,.082,0,.182-.014.3a2.66,2.66,0,0,1-.041.313l-.476,2.656q-.069.381-.116.79a6.021,6.021,0,0,0-.047.681h-1.471a3.994,3.994,0,0,1,.081-.776h-.027a2.619,2.619,0,0,1-2.124.912,3.223,3.223,0,0,1-.708-.083,1.963,1.963,0,0,1-.667-.278,1.543,1.543,0,0,1-.49-.531,1.674,1.674,0,0,1-.19-.838,1.921,1.921,0,0,1,.429-1.3,2.887,2.887,0,0,1,1.11-.776,5.681,5.681,0,0,1,1.518-.375,14.6,14.6,0,0,1,1.64-.095" transform="translate(536.616 -1754.057)"/><path class="b" d="M-484.715,1770.64l.232-1.307h1.13l.327-1.906h1.58l-.327,1.906h1.471l-.231,1.307h-1.444l-.572,3.057a1.881,1.881,0,0,0-.041.378.533.533,0,0,0,.211.487,1.033,1.033,0,0,0,.565.136,2.164,2.164,0,0,0,.319-.024,2.943,2.943,0,0,0,.293-.058l-.1,1.211a2.375,2.375,0,0,1-.484.129,3.038,3.038,0,0,1-.511.048,2.108,2.108,0,0,1-1.471-.414,1.443,1.443,0,0,1-.435-1.094c0-.127.006-.265.02-.414a3.576,3.576,0,0,1,.061-.414l.558-3.028Z" transform="translate(535.009 -1753.67)"/><path class="b" d="M-473.793,1772.544a1.7,1.7,0,0,0-.449-1.215,1.6,1.6,0,0,0-1.225-.478,2.023,2.023,0,0,0-.933.212,2.191,2.191,0,0,0-.707.567,2.682,2.682,0,0,0-.457.819,2.953,2.953,0,0,0-.163.984,1.738,1.738,0,0,0,.435,1.216,1.576,1.576,0,0,0,1.226.479,2.122,2.122,0,0,0,.94-.205,2.111,2.111,0,0,0,.715-.56,2.639,2.639,0,0,0,.456-.827,2.984,2.984,0,0,0,.163-.99m-2.355,3.89a3.772,3.772,0,0,1-1.26-.2,2.922,2.922,0,0,1-1-.586,2.751,2.751,0,0,1-.661-.9,2.737,2.737,0,0,1-.238-1.157,4.239,4.239,0,0,1,.279-1.532,3.968,3.968,0,0,1,.8-1.287,3.879,3.879,0,0,1,1.246-.892,3.87,3.87,0,0,1,1.627-.333,3.8,3.8,0,0,1,1.274.2,3,3,0,0,1,1,.578,2.663,2.663,0,0,1,.66.9,2.743,2.743,0,0,1,.239,1.151,4.336,4.336,0,0,1-.279,1.552,3.927,3.927,0,0,1-.8,1.294,3.773,3.773,0,0,1-1.252.886,4,4,0,0,1-1.634.327" transform="translate(534.019 -1754.057)"/><path class="b" d="M-467.188,1770.809a3.112,3.112,0,0,1,.8-.919,1.8,1.8,0,0,1,1.117-.347c.063,0,.132,0,.2.007a.781.781,0,0,1,.19.035l-.218,1.484a1.793,1.793,0,0,0-.265-.055,1.9,1.9,0,0,0-.225-.013,1.816,1.816,0,0,0-.912.2,1.92,1.92,0,0,0-.573.49,1.957,1.957,0,0,0-.313.586,3.341,3.341,0,0,0-.123.476l-.613,3.5h-1.593l.912-5.134c.036-.172.075-.394.116-.667s.069-.517.088-.735h1.5c0,.046,0,.113-.013.205s-.02.19-.034.3-.028.215-.041.32-.025.193-.034.266Z" transform="translate(532.261 -1754.057)"/><path class="b" d="M-458.769,1771.571a1.452,1.452,0,0,0-.545-.511,1.588,1.588,0,0,0-.8-.211,2.13,2.13,0,0,0-.933.2,2.217,2.217,0,0,0-.735.56,2.747,2.747,0,0,0-.484.819,2.708,2.708,0,0,0-.177.97,2.175,2.175,0,0,0,.1.65,1.528,1.528,0,0,0,.3.547,1.486,1.486,0,0,0,.517.382,1.792,1.792,0,0,0,.749.143,2,2,0,0,0,.988-.21,3.176,3.176,0,0,0,.687-.525l.913.925a4.137,4.137,0,0,1-1.171.814,3.552,3.552,0,0,1-1.512.3,3.861,3.861,0,0,1-1.287-.2,2.894,2.894,0,0,1-.993-.579,2.538,2.538,0,0,1-.641-.892,2.875,2.875,0,0,1-.225-1.156,4.18,4.18,0,0,1,.286-1.526,4.128,4.128,0,0,1,.8-1.3,3.8,3.8,0,0,1,1.261-.9,3.945,3.945,0,0,1,1.64-.334,3.712,3.712,0,0,1,1.4.266,2.058,2.058,0,0,1,1.015.838Z" transform="translate(531.221 -1754.056)"/><path class="b" d="M-451,1772.348c.009-.064.015-.123.02-.176s.007-.11.007-.164a1.214,1.214,0,0,0-.374-.9,1.445,1.445,0,0,0-1.055-.367,1.859,1.859,0,0,0-.763.15,2.05,2.05,0,0,0-.592.388,2.306,2.306,0,0,0-.415.524,1.926,1.926,0,0,0-.218.545Zm-3.541,1.144a.778.778,0,0,0-.014.151,1.374,1.374,0,0,0,.13.6,1.4,1.4,0,0,0,.361.47,1.771,1.771,0,0,0,.544.313,1.948,1.948,0,0,0,.681.116,2.28,2.28,0,0,0,1.069-.231,2.82,2.82,0,0,0,.8-.626l.913.858a3.878,3.878,0,0,1-2.955,1.307,3.641,3.641,0,0,1-1.225-.2,2.837,2.837,0,0,1-.967-.565,2.557,2.557,0,0,1-.64-.906,3.089,3.089,0,0,1-.232-1.232,4.254,4.254,0,0,1,.287-1.573,3.963,3.963,0,0,1,.8-1.273,3.644,3.644,0,0,1,1.212-.85,3.779,3.779,0,0,1,1.532-.307,3.429,3.429,0,0,1,1.082.163,2.415,2.415,0,0,1,.865.49,2.215,2.215,0,0,1,.572.817,2.968,2.968,0,0,1,.2,1.144c0,.145-.014.347-.041.606a5.866,5.866,0,0,1-.123.728Z" transform="translate(529.766 -1754.057)"/><path class="a" d="M-522.1,1773.362h-10.062l-1.086,5.366h10.421l.966-5.079a.242.242,0,0,0-.238-.287" transform="translate(543.893 -1754.756)"/><path class="a" d="M-506.278,1750.587h-1.393l-2.459,13.066a.243.243,0,0,0,.238.287l2.742.015,2.226-11.732a1.379,1.379,0,0,0-1.354-1.636" transform="translate(539.662 -1750.587)"/><path class="a" d="M-511.555,1773.554l-1.092,5.174h1.883a1.379,1.379,0,0,0,1.355-1.123l.8-4.226-2.711-.017a.242.242,0,0,0-.237.192" transform="translate(540.122 -1754.756)"/><path class="a" d="M-518.068,1759.056l-4.383,6.028a.242.242,0,0,0,.2.385l3.23-.019a.242.242,0,0,0,.236-.2l1.154-6.009a.242.242,0,0,0-.434-.188" transform="translate(541.925 -1752.119)"/><path class="a" d="M-530.654,1763.712a.244.244,0,0,1,.047-.1l10.2-13.021h-7.844l-2.394,13.067" transform="translate(543.418 -1750.587)"/><path class="c" d="M-538.707,1755.892h-3.813l-.5,0,.309-.391,3.62-4.82a.241.241,0,0,1,.194-.1h-1.973a1.38,1.38,0,0,0-1.355,1.122l-4.026,21.213a1.379,1.379,0,0,0,1.355,1.636h2.993l3.436-18.38a.243.243,0,0,0-.238-.287" transform="translate(546.278 -1750.587)"/></g></g><rect class="d" width="93" height="50" rx="5" transform="translate(775 1450)"/></g></svg>