<svg xmlns="http://www.w3.org/2000/svg" width="53" height="50" viewBox="0 0 53 50"><defs><style>.a,.b{fill:#42a8e1;}.b{font-size:15px;font-family:Helvetica;letter-spacing:0.04em;}.c{fill:none;}</style></defs><g transform="translate(-238 -1450)"><g transform="translate(246 1457.604)"><g transform="translate(0 0.396)"><path class="a" d="M-912.827,1759.067q1.564-1.474,2.532-2.56a14.555,14.555,0,0,0,1.523-1.984,5.867,5.867,0,0,0,.737-1.71,8.082,8.082,0,0,0,.181-1.729,6.664,6.664,0,0,0-.461-2.49,6.407,6.407,0,0,0-1.3-2.029,5.753,5.753,0,0,0-1.984-1.358,6.438,6.438,0,0,0-2.535-.481,6.15,6.15,0,0,0-3.76,1.177,5.744,5.744,0,0,0-2.142,3.255,3.071,3.071,0,0,1-.484.99,1.058,1.058,0,0,1-.9.393,1.332,1.332,0,0,1-.99-.391,1.329,1.329,0,0,1-.394-.99,5.181,5.181,0,0,1,.62-2.261,7.917,7.917,0,0,1,1.776-2.307,9.885,9.885,0,0,1,2.789-1.777,9.14,9.14,0,0,1,3.714-.718,8.075,8.075,0,0,1,3.435.735,9.232,9.232,0,0,1,2.792,1.982,9.315,9.315,0,0,1,1.893,2.928,9.18,9.18,0,0,1,.691,3.527,9.161,9.161,0,0,1-1.081,4.336,15.418,15.418,0,0,1-3.431,4.2l-9.68,9,12.73-.007a1.4,1.4,0,0,1,1.016.411,1.389,1.389,0,0,1,.416,1.016,1.309,1.309,0,0,1-.416.991,1.413,1.413,0,0,1-1.013.395l-15.544.011a3.349,3.349,0,0,1-.439-.045,1.627,1.627,0,0,1-.578-.208,1.838,1.838,0,0,1-.506-.461,1.208,1.208,0,0,1-.23-.762,2.284,2.284,0,0,1,.782-1.337Z" transform="translate(925.78 -1740.161)"/><path class="a" d="M-923.015,1772.633a5.313,5.313,0,0,1-.726-.066,3.556,3.556,0,0,1-1.262-.45,3.735,3.735,0,0,1-1.066-.949,3.144,3.144,0,0,1-.635-1.946,4.078,4.078,0,0,1,1.349-2.705l10.277-9.781q1.491-1.409,2.419-2.443a12.613,12.613,0,0,0,1.318-1.712,3.93,3.93,0,0,0,.495-1.127,6.077,6.077,0,0,0,.132-1.293,4.683,4.683,0,0,0-.325-1.774,4.417,4.417,0,0,0-.9-1.413,3.858,3.858,0,0,0-1.33-.9,4.514,4.514,0,0,0-1.772-.332h-.007a4.243,4.243,0,0,0-2.618.8,3.83,3.83,0,0,0-1.421,2.2,5.148,5.148,0,0,1-.82,1.668,3.317,3.317,0,0,1-4.795.185,3.234,3.234,0,0,1-.956-2.352,7.1,7.1,0,0,1,.82-3.121,9.935,9.935,0,0,1,2.2-2.873,11.861,11.861,0,0,1,3.322-2.125,11.114,11.114,0,0,1,4.488-.879h.015a9.994,9.994,0,0,1,4.229.913,11.182,11.182,0,0,1,3.374,2.4,11.3,11.3,0,0,1,2.29,3.531,11.19,11.19,0,0,1,.838,4.268,11.159,11.159,0,0,1-1.3,5.233,17.429,17.429,0,0,1-3.851,4.738l-6.053,5.627,7.806,0a3.317,3.317,0,0,1,2.369.965,3.312,3.312,0,0,1,1,2.4,3.215,3.215,0,0,1-1.02,2.4,3.324,3.324,0,0,1-2.343.924Zm.038-24.581Z" transform="translate(926.703 -1739.238)"/></g><text class="b" transform="translate(34.767 34.899) rotate(-90)"><tspan x="0" y="0">DOS</tspan></text></g><rect class="c" width="53" height="50" rx="5" transform="translate(238 1450)"/></g></svg>