<svg xmlns="http://www.w3.org/2000/svg" xmlns:xlink="http://www.w3.org/1999/xlink" width="93" height="50" viewBox="0 0 93 50"><defs><style>.a{fill:none;}.b{fill:#3a1021;}.c{clip-path:url(#a);}.d{fill:#d01e4d;}.e{fill:url(#b);}.f{fill:url(#c);}.g{clip-path:url(#d);}.h{clip-path:url(#g);}.i{clip-path:url(#j);}.j{clip-path:url(#m);}</style><clipPath id="a"><path class="a" d="M921.931,412.939a13.421,13.421,0,1,1-13.421-13.406A13.413,13.413,0,0,1,921.931,412.939Zm-13.421-6.224a6.224,6.224,0,1,0,6.231,6.224A6.228,6.228,0,0,0,908.51,406.715Z" transform="translate(-895.089 -399.533)"/></clipPath><linearGradient id="b" x1="0.579" y1="0.044" x2="0.268" y2="1.84" gradientUnits="objectBoundingBox"><stop offset="0" stop-color="#d01e4d"/><stop offset="1" stop-color="#6f1d47"/></linearGradient><radialGradient id="c" cx="-0.473" cy="0.166" r="3.175" gradientTransform="translate(0.108 -0.505) scale(0.329 0.47)" gradientUnits="objectBoundingBox"><stop offset="0.073" stop-color="#3a1021"/><stop offset="0.166" stop-color="#3a1021" stop-opacity="0.843"/><stop offset="0.49" stop-color="#3a1021" stop-opacity="0.38"/><stop offset="0.779" stop-color="#3a1021" stop-opacity="0.098"/><stop offset="1" stop-color="#3a1021" stop-opacity="0"/></radialGradient><clipPath id="d"><path class="a" d="M1248.5,480.643a6.252,6.252,0,1,1-6.252-6.217A6.235,6.235,0,0,1,1248.5,480.643Zm-6.252-2.914a2.914,2.914,0,1,0,2.93,2.914A2.922,2.922,0,0,0,1242.25,477.73Z" transform="translate(-1235.998 -474.426)"/></clipPath><clipPath id="g"><path class="a" d="M1386.3,480.643a6.25,6.25,0,0,0-12.5.039c0,.013,0,.026,0,.039h0v5.361a.4.4,0,0,0,.4.4h2.571a.4.4,0,0,0,.4-.4v-5.4h0v0a2.883,2.883,0,0,1,2.746-2.95,2.844,2.844,0,0,1,2.994,2.911v0h0v5.4a.4.4,0,0,0,.4.4h2.571a.4.4,0,0,0,.4-.4v-5.361h0C1386.3,480.669,1386.3,480.656,1386.3,480.643Z" transform="translate(-1373.799 -474.426)"/></clipPath><clipPath id="j"><path class="a" d="M1518.445,483.556a2.914,2.914,0,1,1,2.111-4.934.379.379,0,0,0,.5.031l2.037-1.551a.379.379,0,0,0,.058-.551,6.218,6.218,0,1,0,0,8.182.379.379,0,0,0-.058-.55l-2.037-1.551a.379.379,0,0,0-.5.031A2.928,2.928,0,0,1,1518.445,483.556Z" transform="translate(-1512.193 -474.425)"/></clipPath><clipPath id="m"><path class="a" d="M1638.671,479.474a6.174,6.174,0,0,0-5.663-5.03,6.219,6.219,0,1,0,4.51,9.977.389.389,0,0,0-.1-.565l-2.137-1.4a.4.4,0,0,0-.517.074,2.871,2.871,0,0,1-2.6,1.008,2.938,2.938,0,0,1-2.318-1.722h8.1c.641,0,.825-.309.825-.737A9.266,9.266,0,0,0,1638.671,479.474Zm-8.823,0a2.933,2.933,0,0,1,5.363,0Z" transform="translate(-1626.277 -474.426)"/></clipPath></defs><g transform="translate(-496 -1450)"><g transform="translate(501 1462)"><g transform="translate(32.751 22.435)"><path class="b" d="M1236.321,634.182a.037.037,0,0,1,.039-.039h.5a.037.037,0,0,1,.039.039v2.587a.037.037,0,0,1-.039.039h-.5a.037.037,0,0,1-.039-.039Z" transform="translate(-1236.321 -634.061)"/><path class="b" d="M1248.731,643.637a.037.037,0,0,1-.039-.039v-1.09c0-.208-.1-.345-.294-.345s-.3.137-.3.345v1.09a.037.037,0,0,1-.039.039h-.47a.037.037,0,0,1-.039-.039v-1.819a.037.037,0,0,1,.039-.039h.47a.037.037,0,0,1,.039.039v.133h0a.582.582,0,0,1,.49-.216.628.628,0,0,1,.647.705v1.2a.037.037,0,0,1-.039.039Z" transform="translate(-1246.474 -640.89)"/><path class="b" d="M1268.8,643.386a.038.038,0,0,1,0-.055l.255-.286a.038.038,0,0,1,.055,0,.989.989,0,0,0,.58.208c.2,0,.294-.074.294-.18,0-.09-.05-.145-.27-.165l-.212-.023c-.4-.039-.619-.239-.619-.58,0-.372.286-.607.78-.607a1.288,1.288,0,0,1,.768.235.042.042,0,0,1,0,.059l-.219.271a.039.039,0,0,1-.055.008.991.991,0,0,0-.514-.153c-.161,0-.239.063-.239.157s.047.137.263.157l.208.023c.447.043.631.259.631.576,0,.388-.306.651-.847.651A1.29,1.29,0,0,1,1268.8,643.386Z" transform="translate(-1265.672 -640.89)"/><path class="b" d="M1290.071,638.678c-.439,0-.6-.2-.6-.631v-.862a.021.021,0,0,0-.023-.023h-.118a.037.037,0,0,1-.039-.039V636.8a.037.037,0,0,1,.039-.039h.118a.021.021,0,0,0,.023-.024v-.509a.037.037,0,0,1,.04-.039h.466a.037.037,0,0,1,.039.039v.509a.021.021,0,0,0,.023.024h.243a.037.037,0,0,1,.039.039v.326a.037.037,0,0,1-.039.039h-.243a.021.021,0,0,0-.023.023v.839c0,.141.047.188.172.188h.094a.037.037,0,0,1,.039.039v.388a.037.037,0,0,1-.039.039Z" transform="translate(-1284.203 -635.907)"/><path class="b" d="M1304.312,634.609a.037.037,0,0,1-.039-.039v-.388a.037.037,0,0,1,.039-.039h.47a.037.037,0,0,1,.039.039v.388a.037.037,0,0,1-.039.039Zm0,2.2a.037.037,0,0,1-.039-.039V634.95a.037.037,0,0,1,.039-.039h.47a.037.037,0,0,1,.039.039v1.818a.037.037,0,0,1-.039.039Z" transform="translate(-1297.751 -634.061)"/><path class="b" d="M1314.45,638.678c-.439,0-.6-.2-.6-.631v-.862a.021.021,0,0,0-.023-.023h-.118a.037.037,0,0,1-.039-.039V636.8a.037.037,0,0,1,.039-.039h.118a.021.021,0,0,0,.023-.024v-.509a.037.037,0,0,1,.039-.039h.467a.037.037,0,0,1,.039.039v.509a.021.021,0,0,0,.023.024h.243a.037.037,0,0,1,.039.039v.326a.037.037,0,0,1-.039.039h-.243a.021.021,0,0,0-.023.023v.839c0,.141.047.188.172.188h.094a.037.037,0,0,1,.039.039v.388a.037.037,0,0,1-.039.039Z" transform="translate(-1306.242 -635.907)"/><path class="b" d="M1329.617,644.044a.037.037,0,0,1-.039-.039v-.137h0a.566.566,0,0,1-.486.22.624.624,0,0,1-.638-.706v-1.2a.037.037,0,0,1,.039-.039h.47a.037.037,0,0,1,.039.039v1.09c0,.2.1.345.29.345s.29-.137.29-.345v-1.09a.037.037,0,0,1,.039-.039h.47a.037.037,0,0,1,.039.039V644a.037.037,0,0,1-.039.039Z" transform="translate(-1319.607 -641.296)"/><path class="b" d="M1350.386,638.678c-.439,0-.6-.2-.6-.631v-.862a.021.021,0,0,0-.023-.023h-.118a.037.037,0,0,1-.039-.039V636.8a.037.037,0,0,1,.039-.039h.118a.021.021,0,0,0,.023-.024v-.509a.037.037,0,0,1,.039-.039h.466a.037.037,0,0,1,.039.039v.509a.021.021,0,0,0,.024.024h.243a.037.037,0,0,1,.039.039v.326a.037.037,0,0,1-.039.039h-.243a.021.021,0,0,0-.024.023v.839c0,.141.047.188.172.188h.094a.037.037,0,0,1,.039.039v.388a.037.037,0,0,1-.039.039Z" transform="translate(-1338.729 -635.907)"/><path class="b" d="M1363.671,643.147a1.7,1.7,0,0,1,0-.917.9.9,0,0,1,1.646,0,1.717,1.717,0,0,1,0,.917.9.9,0,0,1-1.646,0Zm1.117-.133a1.513,1.513,0,0,0,0-.651.314.314,0,0,0-.588,0,1.528,1.528,0,0,0,0,.651.314.314,0,0,0,.588,0Z" transform="translate(-1351.392 -640.89)"/><path class="b" d="M1395.991,636.808a.037.037,0,0,1-.039-.039v-2.587a.037.037,0,0,1,.039-.039h1.035a.859.859,0,1,1,0,1.713h-.474a.021.021,0,0,0-.024.023v.89a.037.037,0,0,1-.039.039Zm1.388-1.807a.349.349,0,0,0-.388-.361h-.439a.021.021,0,0,0-.024.023v.67a.021.021,0,0,0,.024.024h.439A.347.347,0,0,0,1397.378,635Z" transform="translate(-1380.631 -634.061)"/><path class="b" d="M1419.414,643.147a1.717,1.717,0,0,1,0-.917.9.9,0,0,1,1.646,0,1.7,1.7,0,0,1,0,.917.9.9,0,0,1-1.646,0Zm1.117-.133a1.508,1.508,0,0,0,0-.651.314.314,0,0,0-.588,0,1.513,1.513,0,0,0,0,.651.314.314,0,0,0,.588,0Z" transform="translate(-1401.785 -640.89)"/><path class="b" d="M1442.481,636.832c-.419,0-.588-.184-.588-.6v-2.046a.037.037,0,0,1,.039-.039h.47a.037.037,0,0,1,.04.039v2c0,.129.05.18.164.18h.082a.037.037,0,0,1,.039.039v.388a.037.037,0,0,1-.039.039Z" transform="translate(-1422.163 -634.061)"/><path class="b" d="M1454.428,634.609a.037.037,0,0,1-.039-.039v-.388a.037.037,0,0,1,.039-.039h.47a.037.037,0,0,1,.039.039v.388a.037.037,0,0,1-.039.039Zm0,2.2a.037.037,0,0,1-.039-.039V634.95a.037.037,0,0,1,.039-.039h.47a.037.037,0,0,1,.039.039v1.818a.037.037,0,0,1-.039.039Z" transform="translate(-1433.46 -634.061)"/><path class="b" d="M1464.565,638.678c-.439,0-.6-.2-.6-.631v-.862a.021.021,0,0,0-.024-.023h-.117a.037.037,0,0,1-.039-.039V636.8a.037.037,0,0,1,.039-.039h.117a.021.021,0,0,0,.024-.024v-.509a.037.037,0,0,1,.039-.039h.466a.037.037,0,0,1,.039.039v.509a.021.021,0,0,0,.024.024h.243a.037.037,0,0,1,.039.039v.326a.037.037,0,0,1-.039.039h-.243a.021.021,0,0,0-.024.023v.839c0,.141.047.188.173.188h.094a.037.037,0,0,1,.039.039v.388a.037.037,0,0,1-.039.039Z" transform="translate(-1441.949 -635.907)"/><path class="b" d="M1477.855,635.535a1.361,1.361,0,0,1-.067-.451,1.4,1.4,0,0,1,.062-.455.892.892,0,0,1,1.635,0,1.812,1.812,0,0,1,.063.584.038.038,0,0,1-.044.039h-1.148a.021.021,0,0,0-.024.024.411.411,0,0,0,.024.106.373.373,0,0,0,.392.251.61.61,0,0,0,.435-.168c.019-.016.039-.02.055,0l.259.243a.035.035,0,0,1,0,.055,1.083,1.083,0,0,1-.807.318A.8.8,0,0,1,1477.855,635.535Zm1.128-.651a.021.021,0,0,0,.024-.023.472.472,0,0,0-.02-.141.346.346,0,0,0-.635,0,.467.467,0,0,0-.02.141.021.021,0,0,0,.024.023Zm-.549-1.011c-.023,0-.035-.016-.023-.039l.3-.509a.075.075,0,0,1,.071-.039h.451c.024,0,.035.02.02.039l-.388.509a.078.078,0,0,1-.075.039Z" transform="translate(-1454.613 -633.285)"/><path class="b" d="M1499.366,643.143a1.789,1.789,0,0,1,0-.909.792.792,0,0,1,.819-.537.84.84,0,0,1,.717.357.038.038,0,0,1-.008.055l-.341.223a.04.04,0,0,1-.059-.008.336.336,0,0,0-.3-.165.282.282,0,0,0-.294.2,1.518,1.518,0,0,0,0,.651.282.282,0,0,0,.294.2.336.336,0,0,0,.3-.165.039.039,0,0,1,.059-.008l.341.223a.038.038,0,0,1,.008.055.84.84,0,0,1-.717.357A.792.792,0,0,1,1499.366,643.143Z" transform="translate(-1474.067 -640.89)"/><path class="b" d="M1521.111,643.637a.037.037,0,0,1-.04-.039v-1.09c0-.208-.1-.345-.293-.345s-.3.137-.3.345v1.09a.037.037,0,0,1-.039.039h-.47a.037.037,0,0,1-.039-.039v-1.819a.037.037,0,0,1,.039-.039h.47a.037.037,0,0,1,.039.039v.133h0a.581.581,0,0,1,.489-.216.628.628,0,0,1,.647.705v1.2a.037.037,0,0,1-.039.039Z" transform="translate(-1492.711 -640.89)"/><path class="b" d="M1542.553,634.609a.037.037,0,0,1-.039-.039v-.388a.037.037,0,0,1,.039-.039h.47a.037.037,0,0,1,.039.039v.388a.037.037,0,0,1-.039.039Zm0,2.2a.037.037,0,0,1-.039-.039V634.95a.037.037,0,0,1,.039-.039h.47a.037.037,0,0,1,.039.039v1.818a.037.037,0,0,1-.039.039Z" transform="translate(-1513.126 -634.061)"/><path class="b" d="M1552.455,643.143a1.786,1.786,0,0,1,0-.909.792.792,0,0,1,.819-.537.84.84,0,0,1,.717.357.038.038,0,0,1-.008.055l-.341.223a.04.04,0,0,1-.059-.008.336.336,0,0,0-.3-.165.282.282,0,0,0-.294.2,1.533,1.533,0,0,0,0,.651.282.282,0,0,0,.294.2.336.336,0,0,0,.3-.165.04.04,0,0,1,.059-.008l.341.223a.038.038,0,0,1,.008.055.84.84,0,0,1-.717.357A.792.792,0,0,1,1552.455,643.143Z" transform="translate(-1522.06 -640.89)"/><path class="b" d="M1571.366,643.147a1.707,1.707,0,0,1,0-.917.9.9,0,0,1,1.646,0,1.714,1.714,0,0,1,0,.917.9.9,0,0,1-1.646,0Zm1.117-.133a1.518,1.518,0,0,0,0-.651.314.314,0,0,0-.588,0,1.523,1.523,0,0,0,0,.651.314.314,0,0,0,.588,0Z" transform="translate(-1539.153 -640.89)"/><path class="b" d="M1603.646,634.182a.037.037,0,0,1,.039-.039h.47a.073.073,0,0,1,.067.039l.94,1.677h.02v-1.677a.037.037,0,0,1,.039-.039h.443a.037.037,0,0,1,.039.039v2.587a.037.037,0,0,1-.039.039h-.466a.068.068,0,0,1-.067-.039l-.944-1.674h-.02v1.674a.037.037,0,0,1-.039.039h-.443a.037.037,0,0,1-.039-.039Z" transform="translate(-1568.391 -634.061)"/><path class="b" d="M1630.65,643.637a.037.037,0,0,1-.039-.039v-.126h0a.619.619,0,0,1-.521.208.565.565,0,0,1-.631-.58c0-.419.318-.611.788-.611h.337a.021.021,0,0,0,.024-.023v-.071c0-.176-.086-.259-.388-.259a.708.708,0,0,0-.423.121.031.031,0,0,1-.051-.008l-.177-.31a.038.038,0,0,1,.012-.055,1.2,1.2,0,0,1,.705-.188c.619,0,.843.212.843.686V643.6a.037.037,0,0,1-.039.039Zm-.047-.631v-.129a.021.021,0,0,0-.024-.024h-.266c-.232,0-.337.067-.337.216,0,.133.094.2.274.2C1630.485,643.269,1630.6,643.182,1630.6,643.006Z" transform="translate(-1591.723 -640.89)"/><path class="b" d="M1650.954,643.143a1.779,1.779,0,0,1,0-.909.791.791,0,0,1,.819-.537.84.84,0,0,1,.717.357.038.038,0,0,1-.008.055l-.341.223a.04.04,0,0,1-.059-.008.335.335,0,0,0-.3-.165.281.281,0,0,0-.294.2,1.513,1.513,0,0,0,0,.651.281.281,0,0,0,.294.2.335.335,0,0,0,.3-.165.039.039,0,0,1,.059-.008l.341.223a.038.038,0,0,1,.008.055.84.84,0,0,1-.717.357A.792.792,0,0,1,1650.954,643.143Z" transform="translate(-1611.105 -640.89)"/><path class="b" d="M1671.557,634.609a.037.037,0,0,1-.039-.039v-.388a.037.037,0,0,1,.039-.039h.47a.037.037,0,0,1,.039.039v.388a.037.037,0,0,1-.039.039Zm0,2.2a.037.037,0,0,1-.039-.039V634.95a.037.037,0,0,1,.039-.039h.47a.037.037,0,0,1,.039.039v1.818a.037.037,0,0,1-.039.039Z" transform="translate(-1629.749 -634.061)"/><path class="b" d="M1681.462,643.147a1.707,1.707,0,0,1,0-.917.9.9,0,0,1,1.646,0,1.7,1.7,0,0,1,0,.917.9.9,0,0,1-1.646,0Zm1.117-.133a1.513,1.513,0,0,0,0-.651.314.314,0,0,0-.588,0,1.539,1.539,0,0,0,0,.651.314.314,0,0,0,.588,0Z" transform="translate(-1638.681 -640.89)"/><path class="b" d="M1705.2,643.637a.037.037,0,0,1-.04-.039v-1.09c0-.208-.1-.345-.294-.345s-.3.137-.3.345v1.09a.037.037,0,0,1-.04.039h-.47a.037.037,0,0,1-.039-.039v-1.819a.037.037,0,0,1,.039-.039h.47a.037.037,0,0,1,.04.039v.133h0a.583.583,0,0,1,.49-.216.628.628,0,0,1,.647.705v1.2a.037.037,0,0,1-.04.039Z" transform="translate(-1659.135 -640.89)"/><path class="b" d="M1726.944,643.637a.037.037,0,0,1-.039-.039v-.126h0a.619.619,0,0,1-.521.208.565.565,0,0,1-.631-.58c0-.419.318-.611.788-.611h.337a.021.021,0,0,0,.024-.023v-.071c0-.176-.086-.259-.388-.259a.707.707,0,0,0-.423.121.031.031,0,0,1-.051-.008l-.177-.31a.038.038,0,0,1,.012-.055,1.2,1.2,0,0,1,.705-.188c.619,0,.843.212.843.686V643.6a.037.037,0,0,1-.039.039Zm-.047-.631v-.129a.021.021,0,0,0-.024-.024h-.266c-.231,0-.337.067-.337.216,0,.133.094.2.274.2C1726.779,643.269,1726.9,643.182,1726.9,643.006Z" transform="translate(-1678.774 -640.89)"/><path class="b" d="M1748.675,636.832c-.419,0-.588-.184-.588-.6v-2.046a.037.037,0,0,1,.039-.039h.47a.037.037,0,0,1,.04.039v2c0,.129.051.18.164.18h.083a.037.037,0,0,1,.039.039v.388a.037.037,0,0,1-.039.039Z" transform="translate(-1698.969 -634.061)"/></g><g transform="translate(0 0)"><g class="c"><g transform="translate(-0.398 -0.34)"><rect class="d" width="83.219" height="27.402" transform="translate(0.104)"/><rect class="e" width="83.219" height="27.402" transform="translate(0.104)"/><rect class="f" width="83.219" height="27.402"/></g></g><g transform="translate(32.72 7.188)"><g class="g"><g transform="translate(-33.118 -7.528)"><rect class="d" width="83.219" height="27.402" transform="translate(0.104)"/><rect class="e" width="83.219" height="27.402" transform="translate(0.104)"/><rect class="f" width="83.219" height="27.402"/></g></g></g><g transform="translate(45.946 7.188)"><g class="h"><g transform="translate(-46.344 -7.528)"><rect class="d" width="83.219" height="27.402" transform="translate(0.104)"/><rect class="e" width="83.219" height="27.402" transform="translate(0.104)"/><rect class="f" width="83.219" height="27.402"/></g></g></g><g transform="translate(59.228 7.188)"><g class="i"><g transform="translate(-59.627 -7.528)"><rect class="d" width="83.219" height="27.402" transform="translate(0.104)"/><rect class="e" width="83.219" height="27.402" transform="translate(0.104)"/><rect class="f" width="83.219" height="27.402"/></g></g></g><g transform="translate(70.178 7.188)"><g class="j"><g transform="translate(-70.576 -7.528)"><rect class="d" width="83.219" height="27.402" transform="translate(0.104)"/><rect class="e" width="83.219" height="27.402" transform="translate(0.104)"/><rect class="f" width="83.219" height="27.402"/></g></g></g></g></g><rect class="a" width="93" height="50" rx="5" transform="translate(496 1450)"/></g></svg>