<svg xmlns="http://www.w3.org/2000/svg" xmlns:xlink="http://www.w3.org/1999/xlink" width="70" height="50" viewBox="0 0 70 50"><defs><style>.a{fill:none;}.b{fill:#8c2563;}.c{clip-path:url(#a);}.d{fill:#ec7534;}.e{fill:#ec7634;}.f{fill:#ed7633;}.g{fill:#ed7733;}.h{fill:#ed7833;}.i{fill:#ed7832;}.j{fill:#ed7932;}.k{fill:#ed7a32;}.l{fill:#ed7a31;}.m{fill:#ed7b31;}.n{fill:#ed7c31;}.o{fill:#ee7c30;}.p{fill:#ee7d30;}.q{fill:#ee7e30;}.r{fill:#ee7e2f;}.s{fill:#ee7f2f;}.t{fill:#ee802f;}.u{fill:#ee812e;}.v{fill:#ee822e;}.w{fill:#ee832e;}.x{fill:#ef832d;}.y{fill:#ef842d;}.z{fill:#ef852d;}.aa{fill:#ef852c;}.ab{fill:#ef862c;}.ac{fill:#ef872c;}.ad{fill:#ef872b;}.ae{fill:#ef882b;}.af{fill:#ef892b;}.ag{fill:#f0892a;}.ah{fill:#f08a2a;}.ai{fill:#f08b2a;}.aj{fill:#f08b29;}.ak{fill:#f08c29;}.al{fill:#f08d29;}.am{fill:#f08e28;}.an{fill:#f08f28;}.ao{fill:#f19027;}.ap{fill:#f19127;}.aq{fill:#f19226;}.ar{fill:#f19326;}.as{fill:#f19425;}.at{fill:#f19525;}.au{fill:#f19625;}.av{fill:#f29624;}.aw{fill:#f29724;}.ax{fill:#f29824;}.ay{fill:#f29823;}.az{fill:#f29923;}.ba{fill:#f29a23;}.bb{fill:#ea683a;}.bc{fill:#ea693a;}.bd{fill:#eb6939;}.be{fill:#eb6a39;}.bf{fill:#eb6b39;}.bg{fill:#eb6b38;}.bh{fill:#eb6c38;}.bi{fill:#eb6d38;}.bj{fill:#eb6d37;}.bk{fill:#eb6e37;}.bl{fill:#eb6f37;}.bm{fill:#ec6f36;}.bn{fill:#ec7036;}.bo{fill:#ec7136;}.bp{fill:#ec7235;}.bq{fill:#ec7335;}.br{fill:#ec7435;}.bs{fill:#ec7434;}.bt{fill:#f29b22;}.bu{fill:#f29c22;}.bv{fill:#f39d21;}.bw{fill:#f39e21;}.bx{fill:#f39f20;}.by{fill:#f3a020;}.bz{fill:#f3a11f;}.ca{fill:#f3a21f;}.cb{fill:#f4a31e;}.cc{fill:#f4a41e;}.cd{fill:#f4a51d;}.ce{fill:#f4a61d;}.cf{clip-path:url(#b);}.cg{fill:#ef8325;}.ch{fill:#ef8525;}.ci{fill:#ef8624;}.cj{fill:#f08824;}.ck{fill:#f08924;}.cl{fill:#f08a23;}.cm{fill:#f08c23;}.cn{fill:#f08d23;}.co{fill:#f18e22;}.cp{fill:#f18f22;}.cq{fill:#f19122;}.cr{fill:#f19222;}.cs{fill:#f19321;}.ct{fill:#f19421;}.cu{fill:#f29521;}.cv{fill:#f29621;}.cw{fill:#f29721;}.cx{fill:#f29820;}.cy{fill:#f29920;}.cz{fill:#f29a20;}.da{fill:#f29b20;}.db{fill:#f29b1f;}.dc{fill:#f39c1f;}.dd{fill:#f39d1f;}.de{fill:#f39e1f;}.df{fill:#f39f1f;}.dg{fill:#f3a01e;}.dh{fill:#f3a11e;}.di{fill:#f3a21e;}.dj{fill:#f4a41d;}.dk{fill:#f4a71d;}.dl{fill:#f4a81c;}.dm{fill:#f4a91c;}.dn{fill:#f4aa1c;}.do{fill:#f5ab1b;}.dp{fill:#f5ac1b;}.dq{fill:#f5ad1b;}.dr{fill:#f5ae1a;}.ds{fill:#f5af1a;}.dt{fill:#f5b01a;}.du{fill:#f5b119;}.dv{fill:#f5b219;}.dw{fill:#f5b319;}.dx{fill:#f6b418;}.dy{fill:#f6b518;}.dz{fill:#f6b618;}.ea{fill:#f6b717;}.eb{fill:#f6b817;}.ec{fill:#f6b917;}.ed{fill:#f6ba16;}.ee{fill:#f6bb16;}.ef{fill:#f6bc16;}.eg{fill:#f7bd15;}.eh{fill:#f7be15;}.ei{fill:#f7bf15;}.ej{fill:#f7c014;}.ek{fill:#f7c114;}.el{fill:#f5ea14;}</style><clipPath id="a"><path class="a" d="M270,5006.143l-2.6-8.148q-1.444-4.519-4.721-6.172t-7.8-.207a10.537,10.537,0,0,0-1.885.812,7.236,7.236,0,0,0-1.651,1.249,3.221,3.221,0,0,0-2.466-.143,3.782,3.782,0,0,0-2.2,1.705,3.7,3.7,0,0,0-.182,2.887,11.158,11.158,0,0,0-8.938-.847,11.325,11.325,0,0,0-7.373,14.173,11.211,11.211,0,0,0,21,1.305,4.227,4.227,0,0,0,1.871,2.372,3.607,3.607,0,0,0,2.734.02,3.4,3.4,0,0,0,2.044-1.767,4.325,4.325,0,0,0,.045-3.364l-2.641-8.266a2.75,2.75,0,0,1,5.3-1.461l2.575,8.059a4.216,4.216,0,0,0,1.992,2.735,3.69,3.69,0,0,0,2.8.152,3.5,3.5,0,0,0,2.086-1.713A4.286,4.286,0,0,0,270,5006.143ZM248.01,5008.2a7.215,7.215,0,0,1-5,6.888,7.115,7.115,0,0,1-3.865.137l-.015,0a7.248,7.248,0,0,1-2.777-12.809c.025-.021.051-.04.077-.059a7.165,7.165,0,0,1,8.691.012c.041.031.08.061.12.094s.09.07.133.105.112.095.167.143c.071.063.14.127.208.192l.14.137h0c.05.05.1.1.145.151s.1.1.142.156a7.2,7.2,0,0,1,1.806,4.2,0,0,0,0,1,0,.005c.007.073.013.148.016.223.006.093.009.186.012.281,0,.033,0,.068,0,.1Z" transform="translate(-229.645 -4990.941)"/></clipPath><clipPath id="b"><path class="a" d="M317.093,5137.131a1.332,1.332,0,0,1-.177,1.143,17.058,17.058,0,0,1-3.55,3.788,1.306,1.306,0,0,1-.439.229,1.331,1.331,0,0,1-1.595-.7,17.019,17.019,0,0,1-1.5-4.967,1.331,1.331,0,0,1,.931-1.47h0a1.311,1.311,0,0,1,.491-.053,16.946,16.946,0,0,1,5.056,1.181A1.336,1.336,0,0,1,317.093,5137.131Z" transform="translate(-309.814 -5135.091)"/></clipPath></defs><g transform="translate(-597 -1450)"><g transform="translate(605 1454)"><g transform="translate(33.767 28.982)"><path class="b" d="M515.184,5228.34l-1.019-2.714a1.706,1.706,0,0,0-.384-.6,1.774,1.774,0,0,0-1.7-2.025,1.792,1.792,0,0,0-.686.115,1.775,1.775,0,0,0-.519,3.013,1.7,1.7,0,0,0,.107.7l1.019,2.713a1.7,1.7,0,0,0,1.54,1.1h.054a1.7,1.7,0,0,0,1.586-2.3Z" transform="translate(-510.25 -5223.004)"/></g><g transform="translate(41.917 26.709)"><path class="b" d="M600.751,5201.921a3.5,3.5,0,0,0-3.213-2.278,3.475,3.475,0,0,0-3.308,4.664,3.5,3.5,0,0,0,3.213,2.279h.052a3.427,3.427,0,0,0,1.189-.212A3.475,3.475,0,0,0,600.751,5201.921Z" transform="translate(-594.018 -5199.643)"/></g><g transform="translate(16.259 5.246)"><g transform="translate(0 0)"><path class="b" d="M337.11,4987.063l-6.142-1.791-.647-2.584,5.342-3.624,3.75.588v4.6Z" transform="translate(-330.322 -4979.064)"/></g><g transform="translate(23.85 19.968)"><path class="b" d="M575.436,5188.232l.6-3.95,2.967.486-.323,3.327-1.289,2.022Z" transform="translate(-575.436 -5184.282)"/></g></g><path class="b" d="M259.377,4993.966l-2.6-8.15c-1.066-3.333-2.869-5.663-5.359-6.919a9.721,9.721,0,0,0-4.423-1.017,14.289,14.289,0,0,0-4.335.735,11.728,11.728,0,0,0-2.11.909,8.482,8.482,0,0,0-1.33.905,4.594,4.594,0,0,0-2.563.1,5.038,5.038,0,0,0-2.914,2.272,4.01,4.01,0,0,0-.511,1.506,12.285,12.285,0,0,0-3.965-.654,12.923,12.923,0,0,0-3.933.62,12.56,12.56,0,0,0-7.357,6.2,12.4,12.4,0,0,0-.84,9.574,12.834,12.834,0,0,0,12.119,8.834,12.1,12.1,0,0,0,10.116-5.406,4.032,4.032,0,0,0,1.3,1.012,4.2,4.2,0,0,0,1.816.4,6.064,6.064,0,0,0,1.848-.318,4.655,4.655,0,0,0,2.788-2.4,5.541,5.541,0,0,0,.127-4.333l-2.623-8.21a1.37,1.37,0,0,1,.173-1.017,1.386,1.386,0,0,1,.834-.683,1.6,1.6,0,0,1,.481-.081,1.4,1.4,0,0,1,.645.165,1.386,1.386,0,0,1,.724.872l2.575,8.059a5.427,5.427,0,0,0,2.658,3.5,5.141,5.141,0,0,0,1.028.357,4.839,4.839,0,0,0,1.071.121,5.357,5.357,0,0,0,1.633-.264,4.749,4.749,0,0,0,2.816-2.317A5.481,5.481,0,0,0,259.377,4993.966Zm-24.331,2.375a6.081,6.081,0,0,1-10.858,3.765,6.018,6.018,0,0,1-1.3-3.765,6.081,6.081,0,1,1,12.162,0Z" transform="translate(-211.352 -4972.749)"/><g transform="translate(6.464 6.402)"><g transform="translate(0 0)"><g class="c"><path class="d" d="M269.425,5243.5l.042.009h-.042Z" transform="translate(-265.555 -5218.929)"/><path class="d" d="M269.425,5240.96l1.235.255h-1.193l-.042-.008Z" transform="translate(-265.555 -5216.634)"/><path class="e" d="M269.425,5238.418l2.429.5h-1.193l-1.235-.257Z" transform="translate(-265.555 -5214.339)"/><path class="f" d="M269.425,5235.875l3.622.752h-1.193l-2.429-.5Z" transform="translate(-265.555 -5212.043)"/><path class="g" d="M269.425,5233.332l4.815,1h-1.193l-3.622-.751Z" transform="translate(-265.555 -5209.748)"/><path class="g" d="M269.425,5230.79l6.008,1.247h-1.193l-4.815-1Z" transform="translate(-265.555 -5207.452)"/><path class="h" d="M269.425,5228.247l7.2,1.494h-1.193l-6.008-1.246Z" transform="translate(-265.555 -5205.158)"/><path class="i" d="M269.425,5225.706l8.395,1.74h-1.193l-7.2-1.493Z" transform="translate(-265.555 -5202.864)"/><path class="j" d="M269.425,5223.163l9.588,1.988H277.82l-8.395-1.74Z" transform="translate(-265.555 -5200.568)"/><path class="j" d="M269.425,5220.622l10.781,2.234h-1.193l-9.588-1.987Z" transform="translate(-265.555 -5198.274)"/><path class="k" d="M269.425,5218.079l11.974,2.482h-1.193l-10.781-2.235Z" transform="translate(-265.555 -5195.979)"/><path class="l" d="M269.425,5215.537l13.168,2.73H281.4l-11.974-2.483Z" transform="translate(-265.555 -5193.684)"/><path class="m" d="M269.425,5213l13.744,2.849-.027.127h-.55l-13.168-2.729Z" transform="translate(-265.555 -5191.39)"/><path class="m" d="M269.425,5210.453l13.793,2.858-.049.239-13.744-2.85Z" transform="translate(-265.555 -5189.095)"/><path class="n" d="M269.425,5207.911l13.842,2.869-.049.238-13.793-2.86Z" transform="translate(-265.555 -5186.799)"/><path class="o" d="M269.425,5205.367l13.891,2.88-.049.238-13.842-2.87Z" transform="translate(-265.555 -5184.503)"/><path class="p" d="M269.425,5202.825l13.94,2.89-.049.238-13.891-2.88Z" transform="translate(-265.555 -5182.208)"/><path class="p" d="M269.425,5200.282l13.989,2.9-.049.237-13.94-2.891Z" transform="translate(-265.555 -5179.913)"/><path class="q" d="M269.425,5197.74l14.039,2.912-.049.237-13.989-2.9Z" transform="translate(-265.555 -5177.618)"/><path class="r" d="M269.425,5195.2l14.088,2.921-.049.237-14.039-2.911Z" transform="translate(-265.555 -5175.323)"/><path class="s" d="M269.425,5192.656l14.137,2.931-.049.237-14.088-2.921Z" transform="translate(-265.555 -5173.029)"/><path class="s" d="M269.425,5190.113l14.186,2.941-.049.236-14.137-2.931Z" transform="translate(-265.555 -5170.734)"/><path class="t" d="M269.425,5187.571l14.235,2.951-.049.237-14.186-2.94Z" transform="translate(-265.555 -5168.439)"/><path class="t" d="M269.425,5185.028l14.285,2.961-.049.237-14.235-2.951Z" transform="translate(-265.555 -5166.144)"/><path class="u" d="M269.425,5182.486l14.334,2.971-.049.239-14.285-2.962Z" transform="translate(-265.555 -5163.849)"/><path class="u" d="M269.425,5179.943l14.383,2.981-.049.238-14.334-2.972Z" transform="translate(-265.555 -5161.554)"/><path class="v" d="M269.425,5177.4l14.432,2.991-.049.238-14.383-2.982Z" transform="translate(-265.555 -5159.259)"/><path class="w" d="M269.425,5174.859l14.481,3-.049.237-14.432-2.991Z" transform="translate(-265.555 -5156.964)"/><path class="x" d="M269.425,5172.316l14.494,3v.182l-.013.063-14.481-3Z" transform="translate(-265.555 -5154.668)"/><path class="y" d="M269.425,5169.774l14.494,3.005v.248l-14.494-3Z" transform="translate(-265.555 -5152.373)"/><path class="y" d="M269.425,5167.231l14.494,3v.248l-14.494-3.005Z" transform="translate(-265.555 -5150.078)"/><path class="z" d="M269.425,5164.689l14.494,3v.248l-14.494-3Z" transform="translate(-265.555 -5147.784)"/><path class="aa" d="M269.425,5162.148l14.494,3v.248l-14.494-3Z" transform="translate(-265.555 -5145.489)"/><path class="ab" d="M269.425,5159.6l14.494,3v.248l-14.494-3.005Z" transform="translate(-265.555 -5143.193)"/><path class="ab" d="M269.425,5157.063l14.494,3v.248l-14.494-3Z" transform="translate(-265.555 -5140.898)"/><path class="ac" d="M269.425,5154.52l14.494,3v.248l-14.494-3.005Z" transform="translate(-265.555 -5138.603)"/><path class="ad" d="M269.425,5151.977l14.494,3.005v.248l-14.494-3.006Z" transform="translate(-265.555 -5136.308)"/><path class="ae" d="M269.425,5149.436l14.494,3v.248l-14.494-3Z" transform="translate(-265.555 -5134.013)"/><path class="ae" d="M269.425,5146.893l14.494,3.005v.247l-14.494-3Z" transform="translate(-265.555 -5131.72)"/><path class="af" d="M269.425,5144.351l14.494,3v.248l-14.494-3.005Z" transform="translate(-265.555 -5129.423)"/><path class="ag" d="M269.425,5141.809l14.494,3v.248l-14.494-3Z" transform="translate(-265.555 -5127.129)"/><path class="ah" d="M269.425,5139.267l14.494,3.005v.247l-14.494-3.005Z" transform="translate(-265.555 -5124.834)"/><path class="ah" d="M269.425,5136.977l.036-.177,14.458,3v.248l-14.494-3.005Z" transform="translate(-265.555 -5122.608)"/><path class="ai" d="M269.8,5134.6l.049-.237,14.409,2.987v.247Z" transform="translate(-265.892 -5120.408)"/><path class="aj" d="M270.3,5132.162l.049-.237,14.36,2.978v.247Z" transform="translate(-266.348 -5118.207)"/><path class="ak" d="M270.81,5129.726l.049-.239,14.31,2.967v.248Z" transform="translate(-266.805 -5116.006)"/><path class="ak" d="M271.315,5127.287l.049-.236,14.261,2.957v.248Z" transform="translate(-267.261 -5113.807)"/><path class="al" d="M271.821,5124.85l.049-.237,14.212,2.947v.247Z" transform="translate(-267.717 -5111.608)"/><path class="al" d="M272.326,5122.413l.049-.236,14.163,2.936v.247Z" transform="translate(-268.173 -5109.407)"/><path class="am" d="M272.831,5119.975l.049-.236,14.114,2.926v.247Z" transform="translate(-268.629 -5107.207)"/><path class="am" d="M273.337,5117.537l.049-.237,14.065,2.916v.248Z" transform="translate(-269.086 -5105.005)"/><path class="an" d="M273.842,5115.1l.049-.236,14.015,2.906v.248Z" transform="translate(-269.542 -5102.804)"/><path class="an" d="M274.348,5112.662l.049-.237,13.966,2.9v.247Z" transform="translate(-269.998 -5100.604)"/><path class="ao" d="M274.853,5110.224l.049-.237,13.917,2.884v.248Z" transform="translate(-270.454 -5098.404)"/><path class="ao" d="M275.358,5107.787l.049-.237,13.868,2.875v.248Z" transform="translate(-270.91 -5096.203)"/><path class="ap" d="M275.864,5105.351l.049-.238,13.819,2.865v.248Z" transform="translate(-271.366 -5094.004)"/><path class="ap" d="M276.369,5102.912l.049-.237,13.77,2.854v.248Z" transform="translate(-271.823 -5091.803)"/><path class="aq" d="M276.874,5100.474l.049-.236,13.72,2.845v.248Z" transform="translate(-272.279 -5089.603)"/><path class="aq" d="M277.38,5098.036l.049-.235,13.671,2.833v.248Z" transform="translate(-272.735 -5087.404)"/><path class="ar" d="M277.885,5095.6l.049-.237,13.622,2.824v.248Z" transform="translate(-273.191 -5085.202)"/><path class="ar" d="M278.39,5093.162l.049-.238,13.573,2.815v.247Z" transform="translate(-273.647 -5083.001)"/><path class="as" d="M278.9,5090.723l.049-.236,13.524,2.8v.247Z" transform="translate(-274.103 -5080.801)"/><path class="at" d="M279.4,5089.23l.028-.136h.512l12.984,2.692v.248Z" transform="translate(-274.56 -5079.543)"/><path class="at" d="M286.142,5089.094l11.791,2.445v.247l-12.984-2.692Z" transform="translate(-279.568 -5079.543)"/><path class="au" d="M298.405,5089.094l10.6,2.2v.247l-11.791-2.445Z" transform="translate(-290.638 -5079.543)"/><path class="av" d="M310.668,5089.094l9.4,1.95v.248l-10.6-2.2Z" transform="translate(-301.708 -5079.543)"/><path class="aw" d="M322.931,5089.094l8.211,1.7v.248l-9.4-1.95Z" transform="translate(-312.777 -5079.543)"/><path class="aw" d="M335.194,5089.094l7.018,1.456v.246l-8.211-1.7Z" transform="translate(-323.847 -5079.543)"/><path class="ax" d="M347.458,5089.094l5.825,1.208v.248l-7.018-1.456Z" transform="translate(-334.917 -5079.543)"/><path class="ay" d="M359.721,5089.094l4.632.961v.247l-5.825-1.208Z" transform="translate(-345.987 -5079.543)"/><path class="az" d="M371.984,5089.094l3.438.713v.248l-4.631-.961Z" transform="translate(-357.057 -5079.543)"/><path class="az" d="M384.247,5089.094l2.245.467v.247l-3.438-.713Z" transform="translate(-368.127 -5079.543)"/><path class="ba" d="M396.51,5089.094l1.052.219v.248l-2.245-.467Z" transform="translate(-379.197 -5079.543)"/><path class="ba" d="M408.632,5089.313l-1.052-.219h1.052Z" transform="translate(-390.267 -5079.543)"/><path class="bb" d="M215.643,5295.911l.743.154h-.743Z" transform="translate(-217.006 -5266.238)"/><path class="bb" d="M215.643,5293.369l1.936.4h-1.193l-.743-.153Z" transform="translate(-217.006 -5263.943)"/><path class="bc" d="M215.643,5290.826l3.129.648h-1.193l-1.936-.4Z" transform="translate(-217.006 -5261.647)"/><path class="bd" d="M215.643,5288.284l4.322.9h-1.193l-3.129-.648Z" transform="translate(-217.006 -5259.353)"/><path class="be" d="M215.643,5285.742l5.516,1.143h-1.193l-4.322-.9Z" transform="translate(-217.006 -5257.058)"/><path class="be" d="M215.643,5283.2l6.709,1.39h-1.193l-5.516-1.142Z" transform="translate(-217.006 -5254.763)"/><path class="bf" d="M215.643,5280.657l7.9,1.638h-1.193l-6.709-1.391Z" transform="translate(-217.006 -5252.468)"/><path class="bg" d="M215.643,5278.115l9.1,1.885h-1.193l-7.9-1.638Z" transform="translate(-217.006 -5250.174)"/><path class="bh" d="M215.643,5275.573l10.288,2.132h-1.193l-9.1-1.885Z" transform="translate(-217.006 -5247.878)"/><path class="bh" d="M215.643,5273.03l11.482,2.38h-1.193l-10.288-2.133Z" transform="translate(-217.006 -5245.583)"/><path class="bi" d="M215.643,5270.489l12.675,2.627h-1.193l-11.482-2.38Z" transform="translate(-217.006 -5243.289)"/><path class="bj" d="M215.643,5267.946l13.868,2.875h-1.193l-12.675-2.628Z" transform="translate(-217.006 -5240.993)"/><path class="bk" d="M215.643,5265.4l15.061,3.123h-1.193l-13.868-2.875Z" transform="translate(-217.006 -5238.698)"/><path class="bk" d="M215.643,5262.859l16.254,3.371H230.7l-15.061-3.122Z" transform="translate(-217.006 -5236.401)"/><path class="bl" d="M215.643,5260.318l17.448,3.617H231.9l-16.254-3.37Z" transform="translate(-217.006 -5234.108)"/><path class="bm" d="M215.643,5257.776l18.641,3.865h-1.193l-17.448-3.618Z" transform="translate(-217.006 -5231.813)"/><path class="bn" d="M215.643,5255.233l19.834,4.112h-1.193l-18.641-3.866Z" transform="translate(-217.006 -5229.517)"/><path class="bo" d="M215.643,5252.691l21.027,4.359h-1.193l-19.834-4.111Z" transform="translate(-217.006 -5227.223)"/><path class="bo" d="M215.643,5250.149l22.221,4.608h-1.193l-21.027-4.361Z" transform="translate(-217.006 -5224.929)"/><path class="bp" d="M215.643,5247.607l23.414,4.854h-1.193l-22.221-4.607Z" transform="translate(-217.006 -5222.634)"/><path class="bp" d="M215.643,5245.065l24.607,5.1h-1.193l-23.414-4.854Z" transform="translate(-217.006 -5220.339)"/><path class="bq" d="M215.643,5242.521l25.8,5.349H240.25l-24.607-5.1Z" transform="translate(-217.006 -5218.043)"/><path class="bq" d="M215.643,5239.981l26.993,5.6h-1.193l-25.8-5.349Z" transform="translate(-217.006 -5215.75)"/><path class="br" d="M215.643,5237.437l28.187,5.844h-1.193l-26.993-5.6Z" transform="translate(-217.006 -5213.452)"/><path class="bs" d="M215.643,5234.895l29.38,6.09H243.83l-28.187-5.842Z" transform="translate(-217.006 -5211.158)"/><path class="d" d="M215.643,5232.352l30.573,6.339h-1.193l-29.38-6.091Z" transform="translate(-217.006 -5208.863)"/><path class="d" d="M215.643,5229.81l31.766,6.586h-1.193l-30.573-6.338Z" transform="translate(-217.006 -5206.568)"/><path class="e" d="M215.643,5227.268,248.6,5234.1H247.41l-31.766-6.586Z" transform="translate(-217.006 -5204.273)"/><path class="f" d="M215.643,5224.726l34.153,7.08H248.6l-32.959-6.833Z" transform="translate(-217.006 -5201.978)"/><path class="g" d="M215.643,5222.184l35.346,7.327H249.8l-34.153-7.081Z" transform="translate(-217.006 -5199.684)"/><path class="g" d="M215.643,5219.641l36.539,7.575h-1.193l-35.346-7.327Z" transform="translate(-217.006 -5197.388)"/><path class="h" d="M215.643,5217.1l37.732,7.823h-1.193l-36.539-7.575Z" transform="translate(-217.006 -5195.094)"/><path class="i" d="M215.643,5214.556l38.925,8.069h-1.193l-37.732-7.822Z" transform="translate(-217.006 -5192.798)"/><path class="j" d="M215.643,5212.014l39.771,8.246-.015.071h-.83l-38.925-8.07Z" transform="translate(-217.006 -5190.503)"/><path class="j" d="M215.643,5209.472l39.82,8.255-.049.237-39.771-8.245Z" transform="translate(-217.006 -5188.209)"/><path class="k" d="M215.643,5206.93l39.869,8.266-.049.238-39.82-8.256Z" transform="translate(-217.006 -5185.914)"/><path class="l" d="M215.643,5204.387l39.918,8.276-.049.237-39.869-8.266Z" transform="translate(-217.006 -5183.618)"/><path class="m" d="M215.643,5201.844l39.967,8.286-.049.238-39.918-8.276Z" transform="translate(-217.006 -5181.324)"/><path class="m" d="M215.643,5199.3l40.017,8.3-.049.237-39.967-8.286Z" transform="translate(-217.006 -5179.028)"/><path class="n" d="M215.643,5196.759l40.066,8.308-.049.237-40.017-8.3Z" transform="translate(-217.006 -5176.733)"/><path class="o" d="M215.643,5194.217l40.115,8.316-.049.238-40.066-8.306Z" transform="translate(-217.006 -5174.438)"/><path class="p" d="M215.643,5191.673,255.807,5200l-.049.237-40.115-8.317Z" transform="translate(-217.006 -5172.142)"/><path class="p" d="M215.643,5189.133l40.213,8.336-.049.238-40.164-8.327Z" transform="translate(-217.006 -5169.849)"/><path class="q" d="M215.643,5186.591l40.262,8.346-.049.236-40.213-8.335Z" transform="translate(-217.006 -5167.554)"/><path class="r" d="M215.643,5184.047l40.312,8.357-.049.237-40.262-8.346Z" transform="translate(-217.006 -5165.258)"/><path class="s" d="M215.643,5181.506,256,5189.873l-.049.237-40.312-8.357Z" transform="translate(-217.006 -5162.964)"/><path class="s" d="M215.643,5178.964l40.41,8.377-.049.237-40.361-8.368Z" transform="translate(-217.006 -5160.669)"/><path class="t" d="M215.643,5176.42l40.459,8.388-.049.237-40.41-8.377Z" transform="translate(-217.006 -5158.373)"/><path class="t" d="M215.643,5173.879l40.508,8.4-.049.239-40.459-8.389Z" transform="translate(-217.006 -5156.079)"/><path class="u" d="M215.643,5171.337l40.557,8.408-.049.238-40.508-8.4Z" transform="translate(-217.006 -5153.784)"/><path class="u" d="M215.643,5168.794l40.607,8.418-.049.238-40.557-8.41Z" transform="translate(-217.006 -5151.489)"/><path class="v" d="M215.643,5166.252l40.656,8.428-.049.237-40.607-8.418Z" transform="translate(-217.006 -5149.194)"/><path class="w" d="M215.643,5163.708l40.7,8.439-.049.237-40.656-8.428Z" transform="translate(-217.006 -5146.898)"/><path class="x" d="M215.643,5161.167l40.754,8.45-.049.236-40.7-8.438Z" transform="translate(-217.006 -5144.603)"/><path class="y" d="M215.643,5158.624l40.8,8.459-.049.237-40.754-8.449Z" transform="translate(-217.006 -5142.308)"/><path class="y" d="M215.643,5156.082l40.852,8.469-.049.237-40.8-8.459Z" transform="translate(-217.006 -5140.013)"/><path class="z" d="M215.643,5153.54l40.9,8.479-.049.238-40.852-8.47Z" transform="translate(-217.006 -5137.719)"/><path class="aa" d="M215.643,5151l40.951,8.49-.049.237-40.9-8.48Z" transform="translate(-217.006 -5135.424)"/><path class="ab" d="M215.643,5148.455l41,8.5-.049.237-40.951-8.49Z" transform="translate(-217.006 -5133.128)"/><path class="ab" d="M215.643,5145.914l41.049,8.509-.049.237-41-8.5Z" transform="translate(-217.006 -5130.835)"/><path class="ac" d="M215.643,5143.37l41.1,8.521-.049.237-41.049-8.51Z" transform="translate(-217.006 -5128.539)"/><path class="ad" d="M215.643,5140.827l41.148,8.531-.049.237-41.1-8.52Z" transform="translate(-217.006 -5126.243)"/><path class="ae" d="M215.643,5138.286l41.2,8.54-.049.238-41.148-8.53Z" transform="translate(-217.006 -5123.95)"/><path class="ae" d="M215.643,5135.743l41.246,8.55-.049.238-41.2-8.541Z" transform="translate(-217.006 -5121.654)"/><path class="af" d="M215.643,5133.53l.047-.229,41.248,8.551-.049.238-41.246-8.55Z" transform="translate(-217.006 -5119.449)"/><rect class="ag" width="0.242" height="42.125" transform="translate(-1.315 13.852) rotate(-78.288)"/><rect class="ah" width="0.242" height="42.125" transform="translate(-1.266 13.614) rotate(-78.288)"/><rect class="ah" width="0.242" height="42.125" transform="translate(-1.217 13.377) rotate(-78.288)"/><rect class="ai" width="0.242" height="42.125" transform="translate(-1.167 13.14) rotate(-78.288)"/><rect class="aj" width="0.242" height="42.125" transform="translate(-1.118 12.903) rotate(-78.288)"/><rect class="ak" width="0.242" height="42.125" transform="translate(-1.069 12.666) rotate(-78.288)"/><rect class="ak" width="0.242" height="42.125" transform="translate(-1.02 12.429) rotate(-78.288)"/><rect class="al" width="0.242" height="42.125" transform="translate(-0.971 12.191) rotate(-78.288)"/><rect class="al" width="0.242" height="42.125" transform="translate(-0.922 11.954) rotate(-78.288)"/><rect class="am" width="0.242" height="42.125" transform="translate(-0.872 11.717) rotate(-78.288)"/><rect class="am" width="0.242" height="42.125" transform="translate(-0.823 11.48) rotate(-78.288)"/><rect class="an" width="0.242" height="42.125" transform="translate(-0.774 11.243) rotate(-78.288)"/><rect class="an" width="0.242" height="42.125" transform="translate(-0.725 11.006) rotate(-78.288)"/><rect class="ao" width="0.242" height="42.125" transform="translate(-0.676 10.768) rotate(-78.288)"/><rect class="ao" width="0.242" height="42.125" transform="translate(-0.627 10.531) rotate(-78.288)"/><rect class="ap" width="0.242" height="42.125" transform="translate(-0.577 10.294) rotate(-78.288)"/><rect class="ap" width="0.242" height="42.125" transform="translate(-0.528 10.057) rotate(-78.288)"/><path class="aq" d="M224.722,5089.662l.049-.237,41.23,8.548v.086l-.032.154Z" transform="translate(-225.201 -5079.842)"/><path class="aq" d="M225.227,5087.225l.049-.239,41.181,8.539v.248Z" transform="translate(-225.657 -5077.642)"/><path class="ar" d="M225.732,5084.788l.049-.238,41.132,8.527v.247Z" transform="translate(-226.113 -5075.441)"/><path class="ar" d="M226.238,5082.351l.049-.238,41.083,8.519v.248Z" transform="translate(-226.569 -5073.242)"/><path class="as" d="M226.743,5079.912l.049-.237,41.034,8.507v.248Z" transform="translate(-227.026 -5071.04)"/><path class="at" d="M227.249,5077.474l.049-.237,40.985,8.5v.247Z" transform="translate(-227.482 -5068.841)"/><path class="at" d="M227.754,5075.037l.049-.237,40.935,8.486v.248Z" transform="translate(-227.938 -5066.641)"/><path class="au" d="M228.259,5072.6l.049-.237,40.886,8.477v.246Z" transform="translate(-228.394 -5064.439)"/><path class="av" d="M228.765,5070.162l.049-.237,40.837,8.466v.248Z" transform="translate(-228.85 -5062.24)"/><path class="aw" d="M229.27,5067.724l.049-.237,40.788,8.456v.248Z" transform="translate(-229.306 -5060.039)"/><path class="aw" d="M229.775,5065.286l.049-.238,40.739,8.446v.247Z" transform="translate(-229.763 -5057.837)"/><path class="ax" d="M230.281,5062.85l.049-.238,40.69,8.436v.247Z" transform="translate(-230.219 -5055.639)"/><path class="ay" d="M230.786,5060.412l.049-.237,40.64,8.426v.247Z" transform="translate(-230.675 -5053.438)"/><path class="az" d="M231.291,5057.975l.049-.237,40.591,8.415v.247Z" transform="translate(-231.131 -5051.238)"/><path class="az" d="M231.8,5055.537l.049-.236,40.542,8.4v.247Z" transform="translate(-231.587 -5049.039)"/><path class="ba" d="M232.3,5053.1l.049-.237,40.493,8.4v.247Z" transform="translate(-232.044 -5046.835)"/><path class="ba" d="M232.807,5050.661l.049-.237,40.444,8.385v.248Z" transform="translate(-232.5 -5044.637)"/><path class="bt" d="M233.313,5048.223l.049-.237,40.395,8.375v.248Z" transform="translate(-232.956 -5042.435)"/><path class="bt" d="M233.818,5045.786l.049-.237,40.345,8.364v.248Z" transform="translate(-233.412 -5040.235)"/><path class="bu" d="M234.324,5043.349l.049-.237,40.3,8.354v.247Z" transform="translate(-233.868 -5038.035)"/><path class="bu" d="M234.829,5040.911l.049-.237,40.247,8.344v.249Z" transform="translate(-234.324 -5035.833)"/><path class="bv" d="M235.334,5038.473l.049-.236,40.2,8.333v.248Z" transform="translate(-234.781 -5033.635)"/><path class="bv" d="M235.84,5036.036l.049-.237,40.149,8.322v.247Z" transform="translate(-235.237 -5031.435)"/><path class="bw" d="M236.345,5033.6l.049-.237,40.1,8.314v.247Z" transform="translate(-235.693 -5029.234)"/><path class="bw" d="M236.85,5031.16l.049-.236,40.05,8.3v.247Z" transform="translate(-236.149 -5027.034)"/><path class="bx" d="M237.356,5028.723l.049-.237,40,8.292v.247Z" transform="translate(-236.605 -5024.833)"/><path class="bx" d="M237.861,5026.286l.049-.238,39.952,8.283v.248Z" transform="translate(-237.062 -5022.631)"/><path class="by" d="M238.366,5023.848l.049-.237,39.9,8.273v.247Z" transform="translate(-237.518 -5020.432)"/><path class="by" d="M238.872,5021.41l.049-.237,39.854,8.262v.248Z" transform="translate(-237.974 -5018.231)"/><path class="bz" d="M239.377,5018.973l.049-.238,39.8,8.252v.248Z" transform="translate(-238.43 -5016.031)"/><path class="bz" d="M239.882,5016.535l.049-.238,39.755,8.242v.247Z" transform="translate(-238.886 -5013.83)"/><path class="ca" d="M240.388,5014.1l.049-.236,39.706,8.231v.248Z" transform="translate(-239.342 -5011.629)"/><path class="ca" d="M240.893,5011.659l.049-.237,39.657,8.223v.246Z" transform="translate(-239.799 -5009.429)"/><path class="cb" d="M241.4,5009.222l.049-.238,39.608,8.212v.247Z" transform="translate(-240.255 -5007.229)"/><path class="cb" d="M241.9,5006.785l.049-.238,39.559,8.2V5015Z" transform="translate(-240.711 -5005.028)"/><path class="cc" d="M242.409,5004.346l.049-.237,39.509,8.191v.248Z" transform="translate(-241.167 -5002.828)"/><path class="cc" d="M242.915,5001.909l.049-.237,39.46,8.181v.247Z" transform="translate(-241.623 -5000.628)"/><path class="cd" d="M243.42,4999.472l.049-.238,39.411,8.171v.248Z" transform="translate(-242.08 -4998.426)"/><path class="cd" d="M243.925,4997.034l.049-.238,39.362,8.161v.248Z" transform="translate(-242.536 -4996.226)"/><path class="ce" d="M244.431,4994.6l.049-.237,39.313,8.15v.247Z" transform="translate(-242.992 -4994.026)"/><path class="ce" d="M244.936,4988.592l.129-.622h39.184v8.772Z" transform="translate(-243.448 -4988.259)"/></g></g></g><g transform="translate(13.171 5.239)"><path class="b" d="M303.381,4979.256a3.472,3.472,0,1,0-2.665,6.412,3.427,3.427,0,0,0,1.22.264h.107a3.471,3.471,0,0,0,1.338-6.677Z" transform="translate(-298.576 -4978.992)"/></g><g transform="translate(10.126 33.496)"><path class="b" d="M274.836,5271.611a1.821,1.821,0,0,0-.983-.995,1.84,1.84,0,0,0-.58-.141,3.454,3.454,0,0,0-2.654-1.074c-.073,0-.151.007-.233.017a3.472,3.472,0,0,0-.162,6.882,1.835,1.835,0,0,0,1.6.945h.08a1.837,1.837,0,0,0,1.606-1.115l1.315-3.12A1.814,1.814,0,0,0,274.836,5271.611Z" transform="translate(-267.289 -5269.399)"/></g><g transform="translate(26.142 3.801)"><path class="b" d="M435.847,4967.714a.471.471,0,0,0-.182.035.416.416,0,0,0-.229.219.414.414,0,0,0,.532.55.425.425,0,0,0,.238-.228,1.365,1.365,0,0,1,.295-.425h-.018a1.3,1.3,0,0,1-.516-.125A.323.323,0,0,0,435.847,4967.714Z" transform="translate(-435.061 -4967.374)"/><path class="b" d="M432.647,4965.724h-.023a.755.755,0,0,1-.251-1.458.8.8,0,0,1,.318-.059h0a.665.665,0,0,1,.248.057l.007,0a.941.941,0,0,0,.381.092h.013l.819.014-.586.572a1.046,1.046,0,0,0-.221.32l0,.006a.761.761,0,0,1-.421.4A.75.75,0,0,1,432.647,4965.724Zm.018-.835a.214.214,0,0,0-.042.01.074.074,0,0,0-.041.039.07.07,0,0,0,0,.056.072.072,0,0,0,.063.047.085.085,0,0,0,.031-.006.087.087,0,0,0,.052-.053l.026-.057Z" transform="translate(-431.894 -4964.206)"/></g><g transform="translate(23.426 1.091)"><path class="b" d="M410.656,4939.909a1.676,1.676,0,0,1-.921-2.335,1.713,1.713,0,0,0-.9-.933,3.473,3.473,0,0,0-4.615,4.455,3.475,3.475,0,0,0,3.127,2.2h.106a3.438,3.438,0,0,0,1.269-.242,3.5,3.5,0,0,0,1.912-1.846A1.687,1.687,0,0,0,410.656,4939.909Z" transform="translate(-403.974 -4936.353)"/></g><g transform="translate(2.965 27.828)"><path class="b" d="M200.405,5211.866a1.772,1.772,0,0,0-2.48-.376,1.751,1.751,0,0,0-.56.688,1.663,1.663,0,0,0-.642.29l-2.339,1.71a1.7,1.7,0,0,0,1.009,3.068l.071,0a1.693,1.693,0,0,0,.933-.326l2.339-1.711a1.691,1.691,0,0,0,.469-.529,1.744,1.744,0,0,0,.822-.332A1.776,1.776,0,0,0,200.405,5211.866Z" transform="translate(-193.693 -5211.144)"/></g><g transform="translate(4.914 29.76)"><path class="b" d="M222,5232.565a1.56,1.56,0,0,0-.623-.341,1.8,1.8,0,0,0-.434-.609,2.371,2.371,0,0,0-1.8-.607l-.034,0a1.549,1.549,0,0,0-.845.333,1.779,1.779,0,0,0-2.193,1.28,3.472,3.472,0,0,0-.726.614l-1.184,1.319a1.7,1.7,0,0,0,.128,2.4,1.705,1.705,0,0,0,2.4-.129l1.184-1.319a.067.067,0,0,1,.048-.025.07.07,0,0,1,.054.02.074.074,0,0,1,.025.05.072.072,0,0,1-.02.053l-1.184,1.318a1.7,1.7,0,0,0,1.265,2.834q.066,0,.132-.006h0a1.694,1.694,0,0,0,1.132-.557l1.184-1.317a3.449,3.449,0,0,0,.882-2.506c0-.05-.007-.1-.012-.154a1.554,1.554,0,0,0,.623-2.651Z" transform="translate(-213.719 -5231.002)"/></g><g transform="translate(15.884 34.834)"><path class="b" d="M332.332,5286a1.694,1.694,0,0,0-1.231-2.756l-1.77-.1c-.082,0-.165,0-.247,0a2.607,2.607,0,0,0-2.476,2.444,2.571,2.571,0,0,0,.39,1.51,1.7,1.7,0,0,0,1.069,2.933l2.065.113c.047,0,.094,0,.141,0h.106a2.584,2.584,0,0,0,1.952-4.146Z" transform="translate(-326.461 -5283.146)"/></g><g transform="translate(17.459 2.957)"><path class="b" d="M350.647,4959.237l-.711-1.622a3.49,3.49,0,0,0-3.077-2.077,3.437,3.437,0,0,0-1.5.289,3.4,3.4,0,0,0-.808.5l-.079,0a1.777,1.777,0,0,0-1.158,3.165,3.461,3.461,0,0,0,.258.915l.711,1.621a1.71,1.71,0,0,0,1.508,1.018h.054a1.683,1.683,0,0,0,.677-.141,1.7,1.7,0,0,0,.875-2.24l-.711-1.623a.07.07,0,0,1,.037-.1.084.084,0,0,1,.033-.007.068.068,0,0,1,.062.045l.711,1.623a1.7,1.7,0,1,0,3.114-1.365Z" transform="translate(-342.646 -4955.536)"/></g><g transform="translate(28.054)"><path class="b" d="M458.388,4927.809a3.472,3.472,0,1,0-3.482,4.277l.107,0a3.481,3.481,0,0,0,.806-.1l.574-.138a1.7,1.7,0,0,0,1.258-2.048c-.012-.048-.026-.1-.042-.145A1.713,1.713,0,0,0,458.388,4927.809Z" transform="translate(-451.538 -4925.144)"/></g><g transform="translate(46.465 24.501)"><path class="b" d="M647.49,5180.435a2.593,2.593,0,0,0-1.161-1.348,1.7,1.7,0,0,0-2.238-2.028l-1.659.622a2.585,2.585,0,0,0-.549,4.556,1.7,1.7,0,0,0,1.221,2.33h0a1.717,1.717,0,0,0,.345.036,1.7,1.7,0,0,0,.594-.109l1.935-.728a2.588,2.588,0,0,0,1.511-3.33Z" transform="translate(-640.755 -5176.95)"/></g><g transform="translate(28.701 31.256)"><path class="b" d="M466.1,5250.353l-.6-1.669a3.477,3.477,0,0,0-4.437-2.1,3.393,3.393,0,0,0-.841.442c-.06-.008-.12-.015-.181-.017a1.783,1.783,0,0,0-1.68,1.013,1.783,1.783,0,0,0,.406,2.07,3.442,3.442,0,0,0,.193.931l.6,1.668a1.694,1.694,0,0,0,1.532,1.125h.073a1.7,1.7,0,0,0,1.6-2.27l-.6-1.669a.068.068,0,0,1,.044-.093.1.1,0,0,1,.031-.006.072.072,0,0,1,.062.05l.6,1.669a1.7,1.7,0,0,0,1.532,1.125,1.645,1.645,0,0,0,.641-.1,1.7,1.7,0,0,0,1.029-2.171Z" transform="translate(-458.19 -5246.38)"/></g><g transform="translate(0 23.447)"><path class="b" d="M170.32,5168.528a3.467,3.467,0,0,0-.6-.737,1.775,1.775,0,0,0-1.842-1.675,1.785,1.785,0,0,0-1.451.858,3.45,3.45,0,0,0-.874.375l-1.517.915a1.7,1.7,0,0,0,1.756,2.911l1.517-.916a.081.081,0,0,1,.036-.011.067.067,0,0,1,.063.036.074.074,0,0,1,.01.056.077.077,0,0,1-.035.044l-1.517.915a1.7,1.7,0,0,0,.88,3.154h.071a1.706,1.706,0,0,0,.805-.242l1.517-.915A3.477,3.477,0,0,0,170.32,5168.528Z" transform="translate(-163.216 -5166.115)"/></g><g transform="translate(36.16 26.813)"><path class="b" d="M542.72,5206.4l-.56-1.681a3.5,3.5,0,0,0-1.882-2.071,1.553,1.553,0,0,0-2.6-1.481c-.038,0-.075-.006-.112-.007a1.752,1.752,0,0,0-.633.083,2.372,2.372,0,0,0-1.418,1.262,1.544,1.544,0,0,0-.146.933,1.779,1.779,0,0,0,.028,2.541,3.434,3.434,0,0,0,.174.936l.56,1.679a1.714,1.714,0,0,0,1.541,1.162l.075,0a1.67,1.67,0,0,0,.533-.087,1.7,1.7,0,0,0,1.075-2.149l-.56-1.681a.072.072,0,0,1,0-.057.073.073,0,0,1,.044-.036.158.158,0,0,1,.029,0,.072.072,0,0,1,.063.05l.56,1.681a1.713,1.713,0,0,0,1.542,1.161,1.7,1.7,0,0,0,1.684-2.235Z" transform="translate(-534.85 -5200.715)"/></g><g transform="translate(22.594 33.22)"><path class="b" d="M401.414,5267.723a1.589,1.589,0,0,0-1.611-1.162,1.767,1.767,0,0,0-.452.071,1.721,1.721,0,0,0-1.186,1.075,1.666,1.666,0,0,0-1.007-.309,1.818,1.818,0,0,0-.567.111,1.76,1.76,0,0,0-1.014.9,1.555,1.555,0,0,0-.06,1.192,2.558,2.558,0,0,0,.664.947l1.3,1.329-.071.36a2.5,2.5,0,0,0-.011,1.2,1.587,1.587,0,0,0,1.562,1.164h.049a1.925,1.925,0,0,0,.452-.071,1.751,1.751,0,0,0,1.29-1.486l.665-4.163A2.555,2.555,0,0,0,401.414,5267.723Z" transform="translate(-395.427 -5266.56)"/></g><g transform="translate(13.454 19.644)"><g transform="translate(0 0)"><path class="b" d="M310.31,5129.632a2.123,2.123,0,0,1-.282,1.82,17.894,17.894,0,0,1-3.714,3.963,2.163,2.163,0,0,1-.691.363h-.006a2.131,2.131,0,0,1-2.536-1.119,17.881,17.881,0,0,1-1.575-5.2,2.128,2.128,0,0,1,1.483-2.338l.006,0,.039-.01a2.1,2.1,0,0,1,.741-.074,17.818,17.818,0,0,1,5.292,1.235A2.123,2.123,0,0,1,310.31,5129.632Z" transform="translate(-301.485 -5127.032)"/></g><g transform="translate(0.81 0.784)"><g class="cf"><path class="cg" d="M308.988,5195.172l2.679,1.546h-2.679Z" transform="translate(-309.068 -5189.326)"/><path class="cg" d="M308.988,5194.642l2.768,1.6h-.089l-2.679-1.546Z" transform="translate(-309.068 -5188.847)"/><path class="ch" d="M308.988,5194.113l2.857,1.65h-.089l-2.768-1.6Z" transform="translate(-309.068 -5188.37)"/><path class="ci" d="M308.988,5193.585l2.946,1.7h-.089l-2.857-1.648Z" transform="translate(-309.068 -5187.894)"/><path class="cj" d="M308.988,5193.055l3.035,1.752h-.089l-2.946-1.7Z" transform="translate(-309.068 -5187.416)"/><path class="ck" d="M308.988,5192.526l3.124,1.8h-.089l-3.035-1.752Z" transform="translate(-309.068 -5186.938)"/><path class="cl" d="M308.988,5192l3.214,1.855h-.089l-3.124-1.8Z" transform="translate(-309.068 -5186.46)"/><path class="cm" d="M308.988,5191.468l3.3,1.906H312.2l-3.214-1.855Z" transform="translate(-309.068 -5185.982)"/><path class="cn" d="M308.988,5190.938l3.392,1.958h-.089l-3.3-1.905Z" transform="translate(-309.068 -5185.503)"/><path class="co" d="M308.988,5190.408l3.481,2.01h-.089l-3.392-1.958Z" transform="translate(-309.068 -5185.026)"/><path class="cp" d="M308.988,5189.879l3.57,2.062h-.089l-3.481-2.009Z" transform="translate(-309.068 -5184.549)"/><path class="cq" d="M308.988,5189.351l3.66,2.113h-.089l-3.57-2.061Z" transform="translate(-309.068 -5184.072)"/><path class="cr" d="M308.988,5188.821l3.749,2.165h-.089l-3.66-2.114Z" transform="translate(-309.068 -5183.594)"/><path class="cs" d="M308.988,5188.293l3.838,2.215h-.089l-3.749-2.166Z" transform="translate(-309.068 -5183.117)"/><path class="ct" d="M308.988,5187.762l3.927,2.268h-.089l-3.838-2.216Z" transform="translate(-309.068 -5182.637)"/><path class="cu" d="M308.988,5187.232l4.016,2.319h-.089l-3.927-2.267Z" transform="translate(-309.068 -5182.159)"/><path class="cv" d="M308.988,5186.7l4.106,2.372H313l-4.016-2.32Z" transform="translate(-309.068 -5181.681)"/><path class="cw" d="M308.988,5186.174l4.195,2.422h-.089l-4.106-2.371Z" transform="translate(-309.068 -5181.204)"/><path class="cx" d="M308.988,5185.645l4.284,2.474h-.089l-4.195-2.423Z" transform="translate(-309.068 -5180.726)"/><path class="cx" d="M308.988,5185.115l4.373,2.525h-.089l-4.284-2.475Z" transform="translate(-309.068 -5180.248)"/><path class="cy" d="M308.988,5184.585l4.462,2.576h-.089l-4.373-2.524Z" transform="translate(-309.068 -5179.77)"/><path class="cz" d="M308.988,5184.056l4.552,2.628h-.089l-4.462-2.576Z" transform="translate(-309.068 -5179.291)"/><path class="da" d="M308.988,5183.529l4.641,2.678h-.089l-4.552-2.628Z" transform="translate(-309.068 -5178.816)"/><path class="db" d="M308.988,5183l4.73,2.73h-.089l-4.641-2.679Z" transform="translate(-309.068 -5178.337)"/><path class="dc" d="M308.988,5182.469l4.819,2.782h-.089l-4.73-2.73Z" transform="translate(-309.068 -5177.858)"/><path class="dd" d="M308.988,5181.939l4.907,2.833h-.088l-4.819-2.78Z" transform="translate(-309.068 -5177.381)"/><path class="dd" d="M308.988,5181.411l4.93,2.846-.022.039-4.907-2.833Z" transform="translate(-309.068 -5176.904)"/><path class="de" d="M308.988,5180.881l4.952,2.859-.022.039-4.93-2.847Z" transform="translate(-309.068 -5176.426)"/><path class="df" d="M308.988,5180.353l4.974,2.871-.022.04-4.952-2.86Z" transform="translate(-309.068 -5175.949)"/><path class="df" d="M308.988,5179.823l5,2.886-.022.038-4.974-2.872Z" transform="translate(-309.068 -5175.47)"/><path class="dg" d="M308.988,5179.292l5.019,2.9-.022.038-5-2.884Z" transform="translate(-309.068 -5174.992)"/><path class="dg" d="M308.988,5178.765l5.041,2.91-.022.039-5.019-2.9Z" transform="translate(-309.068 -5174.516)"/><path class="dh" d="M308.988,5178.234l5.063,2.923-.022.04-5.041-2.91Z" transform="translate(-309.068 -5174.037)"/><path class="dh" d="M308.988,5177.705l5.086,2.936-.022.04-5.063-2.924Z" transform="translate(-309.068 -5173.559)"/><path class="dh" d="M308.988,5177.176l5.108,2.949-.022.038-5.086-2.935Z" transform="translate(-309.068 -5173.081)"/><path class="di" d="M308.988,5176.646l5.13,2.961-.022.039-5.108-2.948Z" transform="translate(-309.068 -5172.604)"/><path class="di" d="M308.988,5176.118l5.153,2.974-.022.038-5.13-2.961Z" transform="translate(-309.068 -5172.126)"/><path class="cb" d="M308.988,5175.588l5.175,2.987-.022.039-5.153-2.974Z" transform="translate(-309.068 -5171.647)"/><path class="cb" d="M308.988,5175.06l5.2,3-.022.039-5.175-2.987Z" transform="translate(-309.068 -5171.171)"/><path class="cb" d="M308.988,5174.53l5.219,3.013-.022.04-5.2-3Z" transform="translate(-309.068 -5170.692)"/><path class="cb" d="M308.988,5174l5.242,3.026-.022.039-5.219-3.014Z" transform="translate(-309.068 -5170.215)"/><path class="cc" d="M308.988,5173.471l5.264,3.04-.022.039-5.242-3.026Z" transform="translate(-309.068 -5169.736)"/><path class="dj" d="M308.988,5172.941l5.286,3.053-.022.039-5.264-3.04Z" transform="translate(-309.068 -5169.258)"/><path class="dj" d="M308.988,5172.413l5.309,3.064-.022.039-5.286-3.052Z" transform="translate(-309.068 -5168.782)"/><path class="dj" d="M308.988,5171.884l5.331,3.077-.022.039-5.309-3.065Z" transform="translate(-309.068 -5168.304)"/><path class="cd" d="M308.988,5171.354l5.353,3.09-.022.039-5.331-3.078Z" transform="translate(-309.068 -5167.827)"/><path class="cd" d="M308.988,5170.825l5.376,3.1-.022.038-5.353-3.09Z" transform="translate(-309.068 -5167.348)"/><path class="cd" d="M308.988,5170.3l5.4,3.118-.022.038-5.376-3.1Z" transform="translate(-309.068 -5166.871)"/><path class="cd" d="M308.988,5169.766l5.42,3.128-.022.039-5.4-3.117Z" transform="translate(-309.068 -5166.393)"/><path class="cd" d="M308.988,5169.237l5.443,3.142-.022.039-5.42-3.129Z" transform="translate(-309.068 -5165.915)"/><path class="cd" d="M308.988,5168.708l5.465,3.156-.022.038-5.443-3.143Z" transform="translate(-309.068 -5165.438)"/><path class="cd" d="M308.988,5168.179l5.487,3.167-.022.039-5.465-3.155Z" transform="translate(-309.068 -5164.959)"/><path class="ce" d="M308.988,5167.648l5.509,3.182-.022.038-5.487-3.167Z" transform="translate(-309.068 -5164.481)"/><path class="ce" d="M308.988,5167.12l5.532,3.193-.022.039-5.509-3.181Z" transform="translate(-309.068 -5164.004)"/><path class="ce" d="M308.988,5166.59l5.554,3.207-.022.039-5.532-3.193Z" transform="translate(-309.068 -5163.525)"/><path class="ce" d="M308.988,5166.061l5.576,3.22-.022.039-5.554-3.207Z" transform="translate(-309.068 -5163.047)"/><path class="ce" d="M308.988,5165.532l5.6,3.234-.022.038-5.576-3.22Z" transform="translate(-309.068 -5162.57)"/><path class="ce" d="M308.988,5165l5.621,3.245-.022.04-5.6-3.234Z" transform="translate(-309.068 -5162.093)"/><path class="ce" d="M308.988,5164.474l5.643,3.259-.022.038-5.621-3.245Z" transform="translate(-309.068 -5161.615)"/><path class="ce" d="M308.988,5163.943l5.665,3.271-.022.039L308.988,5164Z" transform="translate(-309.068 -5161.136)"/><path class="ce" d="M308.988,5163.415l5.688,3.283-.022.04-5.665-3.271Z" transform="translate(-309.068 -5160.659)"/><path class="ce" d="M308.988,5162.886l5.71,3.3-.022.04-5.688-3.284Z" transform="translate(-309.068 -5160.182)"/><path class="ce" d="M308.988,5162.355l5.732,3.311-.022.038-5.71-3.3Z" transform="translate(-309.068 -5159.703)"/><path class="ce" d="M308.988,5161.826l5.755,3.324-.022.038-5.732-3.31Z" transform="translate(-309.068 -5159.224)"/><path class="ce" d="M308.988,5161.3l5.777,3.336-.022.039-5.755-3.324Z" transform="translate(-309.068 -5158.748)"/><path class="ce" d="M308.988,5160.769l5.8,3.349-.022.039-5.777-3.336Z" transform="translate(-309.068 -5158.27)"/><path class="ce" d="M308.988,5160.239l5.822,3.362-.022.039-5.8-3.351Z" transform="translate(-309.068 -5157.792)"/><path class="ce" d="M308.988,5159.71l5.844,3.374-.022.039-5.822-3.36Z" transform="translate(-309.068 -5157.314)"/><path class="ce" d="M308.988,5159.181l5.866,3.386-.022.039-5.844-3.374Z" transform="translate(-309.068 -5156.836)"/><path class="ce" d="M308.988,5158.651l5.888,3.4-.022.039-5.866-3.386Z" transform="translate(-309.068 -5156.359)"/><path class="ce" d="M308.988,5157.7l5.929,3.424-.04.069-5.888-3.4Z" transform="translate(-309.068 -5155.497)"/><path class="ce" d="M308.988,5156.743l5.969,3.446-.04.069-5.929-3.424Z" transform="translate(-309.068 -5154.636)"/><path class="ce" d="M308.988,5155.789l6.009,3.469-.04.069-5.969-3.446Z" transform="translate(-309.068 -5153.775)"/><path class="ce" d="M308.988,5154.834l6.049,3.492-.04.069-6.009-3.468Z" transform="translate(-309.068 -5152.914)"/><path class="ce" d="M308.988,5153.88l6.089,3.517-.04.069-6.049-3.493Z" transform="translate(-309.068 -5152.052)"/><path class="ce" d="M308.988,5152.925l6.13,3.54-.04.07-6.089-3.516Z" transform="translate(-309.068 -5151.19)"/><path class="dk" d="M308.988,5151.972l6.17,3.563-.04.07-6.13-3.54Z" transform="translate(-309.068 -5150.33)"/><path class="dk" d="M308.988,5151.018l6.21,3.584-.04.07-6.17-3.562Z" transform="translate(-309.068 -5149.469)"/><path class="dk" d="M308.988,5150.064l6.25,3.607-.04.071-6.21-3.586Z" transform="translate(-309.068 -5148.607)"/><path class="dk" d="M308.988,5149.11l6.29,3.633-.04.069-6.25-3.609Z" transform="translate(-309.068 -5147.746)"/><path class="dk" d="M308.988,5148.154l6.331,3.656-.04.07-6.29-3.632Z" transform="translate(-309.068 -5146.883)"/><path class="dl" d="M308.988,5147.2l6.371,3.678-.04.069-6.331-3.654Z" transform="translate(-309.068 -5146.023)"/><path class="dl" d="M308.988,5146.247l6.411,3.7-.04.07-6.371-3.678Z" transform="translate(-309.068 -5145.162)"/><path class="dl" d="M308.988,5145.293l6.451,3.725-.04.07-6.411-3.7Z" transform="translate(-309.068 -5144.3)"/><path class="dm" d="M308.988,5144.339l6.491,3.748-.04.069-6.451-3.725Z" transform="translate(-309.068 -5143.439)"/><path class="dm" d="M308.988,5143.385l6.532,3.771-.04.069-6.491-3.747Z" transform="translate(-309.068 -5142.577)"/><path class="dm" d="M308.988,5142.431l6.572,3.795-.04.069-6.532-3.771Z" transform="translate(-309.068 -5141.716)"/><path class="dn" d="M308.988,5141.618l.018-.032,6.594,3.807-.04.07-6.572-3.795Z" transform="translate(-309.068 -5140.954)"/><rect class="dn" width="0.08" height="7.614" transform="matrix(0.5, -0.866, 0.866, 0.5, -0.062, 0.632)"/><rect class="do" width="0.08" height="7.614" transform="matrix(0.5, -0.866, 0.866, 0.5, -0.022, 0.562)"/><rect class="do" width="0.08" height="7.614" transform="translate(0.018 0.493) rotate(-60)"/><rect class="do" width="0.08" height="7.614" transform="matrix(0.5, -0.866, 0.866, 0.5, 0.059, 0.423)"/><rect class="dp" width="0.08" height="7.614" transform="translate(0.099 0.353) rotate(-60)"/><rect class="dp" width="0.08" height="7.614" transform="matrix(0.5, -0.866, 0.866, 0.5, 0.139, 0.284)"/><rect class="dq" width="0.08" height="7.614" transform="matrix(0.5, -0.866, 0.866, 0.5, 0.179, 0.214)"/><rect class="dq" width="0.08" height="7.614" transform="translate(0.219 0.144) rotate(-60)"/><rect class="dr" width="0.08" height="7.614" transform="matrix(0.5, -0.866, 0.866, 0.5, 0.26, 0.075)"/><path class="ds" d="M312.9,5135.013l.008-.015h.128l6.5,3.752-.04.069Z" transform="translate(-312.596 -5135.007)"/><path class="ds" d="M314.455,5135l6.377,3.683-.04.069-6.5-3.752Z" transform="translate(-313.858 -5135.007)"/><path class="dt" d="M316.108,5135l6.257,3.612-.04.071L315.947,5135Z" transform="translate(-315.35 -5135.007)"/><path class="dt" d="M317.76,5135l6.136,3.543-.04.069L317.6,5135Z" transform="translate(-316.842 -5135.007)"/><path class="du" d="M319.413,5135l6.015,3.473-.04.07L319.252,5135Z" transform="translate(-318.334 -5135.007)"/><path class="dv" d="M321.066,5135l5.895,3.4-.04.07L320.9,5135Z" transform="translate(-319.826 -5135.007)"/><path class="dv" d="M322.718,5135l5.774,3.334-.04.069-5.895-3.4Z" transform="translate(-321.318 -5135.007)"/><path class="dw" d="M324.371,5135l5.654,3.264-.04.07L324.21,5135Z" transform="translate(-322.81 -5135.007)"/><path class="dw" d="M326.024,5135l5.533,3.195-.04.069L325.863,5135Z" transform="translate(-324.301 -5135.007)"/><path class="dx" d="M327.676,5135l5.412,3.125-.04.07L327.516,5135Z" transform="translate(-325.793 -5135.007)"/><path class="dy" d="M329.329,5135l5.292,3.056-.04.069L329.168,5135Z" transform="translate(-327.285 -5135.007)"/><path class="dz" d="M330.982,5135l5.171,2.986-.04.07L330.821,5135Z" transform="translate(-328.777 -5135.007)"/><path class="dz" d="M332.634,5135l5.032,2.9v.044l-.022.038L332.474,5135Z" transform="translate(-330.269 -5135.007)"/><path class="ea" d="M334.287,5135l4.871,2.812v.093l-5.032-2.9Z" transform="translate(-331.761 -5135.007)"/><path class="eb" d="M335.94,5135l4.71,2.72v.092L335.779,5135Z" transform="translate(-333.253 -5135.007)"/><path class="ec" d="M337.592,5135l4.549,2.626v.094l-4.71-2.72Z" transform="translate(-334.744 -5135.007)"/><path class="ec" d="M339.245,5135l4.389,2.534v.092L339.084,5135Z" transform="translate(-336.236 -5135.007)"/><path class="ed" d="M340.9,5135l4.228,2.44v.093L340.737,5135Z" transform="translate(-337.728 -5135.007)"/><path class="ee" d="M342.55,5135l4.067,2.348v.093L342.39,5135Z" transform="translate(-339.22 -5135.007)"/><path class="ef" d="M344.2,5135l3.906,2.255v.092L344.042,5135Z" transform="translate(-340.712 -5135.007)"/><path class="eg" d="M345.856,5135l3.745,2.162v.093L345.695,5135Z" transform="translate(-342.204 -5135.007)"/><path class="eg" d="M347.508,5135l3.585,2.07v.092L347.348,5135Z" transform="translate(-343.696 -5135.007)"/><path class="eh" d="M349.161,5135l3.424,1.977v.093L349,5135Z" transform="translate(-345.187 -5135.007)"/><path class="ei" d="M350.814,5135l3.263,1.884v.093L350.653,5135Z" transform="translate(-346.679 -5135.007)"/><path class="ej" d="M352.466,5135l3.1,1.791v.093L352.305,5135Z" transform="translate(-348.171 -5135.007)"/><path class="ek" d="M354.119,5135l2.941,1.7v.093l-3.1-1.791Z" transform="translate(-349.663 -5135.007)"/><path class="ek" d="M358.552,5136.7l-2.941-1.7h2.941Z" transform="translate(-351.155 -5135.007)"/></g></g></g><g transform="translate(14.28 1.109)"><g transform="translate(0 5.239)"><path class="el" d="M313.249,4990.57a2.362,2.362,0,1,1-3.089,1.274A2.366,2.366,0,0,1,313.249,4990.57Zm-1.36,3.272a1.182,1.182,0,1,0-.637-1.545A1.178,1.178,0,0,0,311.888,4993.842Z" transform="translate(-309.979 -4990.389)"/></g><g transform="translate(10.256 1.091)"><path class="el" d="M418.612,4952.313a2.363,2.363,0,1,1,.077-4.365.587.587,0,0,1-.018,1.087.547.547,0,0,1-.451-.011,1.147,1.147,0,0,0-.907-.009,1.182,1.182,0,1,0,.866,2.2,1.2,1.2,0,0,0,.656-.625.585.585,0,0,1,.323-.316.608.608,0,0,1,.766.333.589.589,0,0,1-.011.451A2.365,2.365,0,0,1,418.612,4952.313Z" transform="translate(-415.384 -4947.751)"/></g><g transform="translate(4.288 2.957)"><path class="el" d="M354.45,4967.774a.652.652,0,0,1,.705.115,2.433,2.433,0,0,1,.948-.758,2.367,2.367,0,0,1,3.112,1.216l.711,1.623a.591.591,0,0,1-1.082.475l-.711-1.623a1.181,1.181,0,0,0-2.164.948l.711,1.623a.591.591,0,0,1-1.082.474l-.711-1.623a2.262,2.262,0,0,1-.18-1.19.678.678,0,0,1-.6-.4A.663.663,0,0,1,354.45,4967.774Z" transform="translate(-354.052 -4966.934)"/></g><g transform="translate(14.884 0)"><path class="el" d="M465.856,4941.2a2.363,2.363,0,1,1,1.749-2.847.6.6,0,0,1-.438.712l-2.72.65a1.165,1.165,0,0,0,1.134.336l.574-.138a.591.591,0,1,1,.274,1.149Zm-1.683-2.635,1.993-.477a1.185,1.185,0,0,0-1.993.477Z" transform="translate(-462.944 -4936.54)"/></g></g><g transform="translate(1.11 24.555)"><g transform="translate(10.126 10.05)"><path class="el" d="M283.714,5281.928a.718.718,0,0,0-.627.033,2.362,2.362,0,1,0-1.779,3.548c.043,0,.085-.01.126-.018a.718.718,0,0,0,1.346.5l1.316-3.118A.719.719,0,0,0,283.714,5281.928Zm-2.534,2.407a1.181,1.181,0,1,1,1.047-1.3A1.177,1.177,0,0,1,281.181,5284.334Z" transform="translate(-278.69 -5280.797)"/></g><g transform="translate(2.965 4.381)"><path class="el" d="M209.8,5222.812a.664.664,0,1,1-.929-.141A.662.662,0,0,1,209.8,5222.812Zm-3.77,3.5a.591.591,0,0,1-.7-.952l2.337-1.71a.591.591,0,0,1,.7.953Z" transform="translate(-205.094 -5222.541)"/></g><g transform="translate(4.913 6.314)"><path class="el" d="M228.518,5242.846a.653.653,0,0,1,.187.69,2.421,2.421,0,0,1,1.082.55,2.367,2.367,0,0,1,.179,3.336l-1.184,1.318a.591.591,0,0,1-.879-.789l1.184-1.319a1.181,1.181,0,1,0-1.758-1.579l-1.184,1.317a.59.59,0,1,1-.879-.788l1.184-1.319a2.269,2.269,0,0,1,1.01-.656.676.676,0,0,1,.119-.712A.663.663,0,0,1,228.518,5242.846Zm1.017.441a.454.454,0,0,1-.32-.112.444.444,0,0,1,.272-.773,1.28,1.28,0,0,1,1,.327c.24.215.235.608.379.738a.414.414,0,0,0,.359.1.456.456,0,0,1,.32.113.443.443,0,0,1-.273.772,1.275,1.275,0,0,1-1-.326c-.24-.216-.235-.607-.379-.736A.407.407,0,0,0,229.535,5243.288Z" transform="translate(-225.117 -5242.399)"/></g><g transform="translate(15.883 11.387)"><path class="el" d="M340.545,5298.15a.3.3,0,0,0,.032-.591l-1.18-.064a1.477,1.477,0,0,1,.161-2.949l1.77.1a.591.591,0,0,1-.064,1.181l-1.77-.1a.3.3,0,1,0-.032.589l1.18.064a1.477,1.477,0,0,1-.161,2.949l-2.064-.111a.591.591,0,0,1,.064-1.181Z" transform="translate(-337.858 -5294.544)"/></g><g transform="translate(0)"><path class="el" d="M178.815,5177.834a.654.654,0,0,1-.022.715,2.408,2.408,0,0,1,.874.84,2.366,2.366,0,0,1-.8,3.243l-1.517.916a.591.591,0,1,1-.61-1.011l1.517-.915a1.182,1.182,0,0,0-1.221-2.024l-1.517.916a.59.59,0,1,1-.61-1.011l1.517-.916a2.272,2.272,0,0,1,1.158-.332.677.677,0,0,1,.321-.647A.663.663,0,0,1,178.815,5177.834Z" transform="translate(-174.622 -5177.511)"/></g></g><g transform="translate(29.811 25.47)"><g transform="translate(5.065 4.621)"><path class="el" d="M522.085,5234.445a.664.664,0,1,1-.386.857A.662.662,0,0,1,522.085,5234.445Zm2.356,4.573a.59.59,0,1,1-1.1.417l-1.018-2.709a.59.59,0,1,1,1.1-.418Z" transform="translate(-521.655 -5234.401)"/></g><g transform="translate(17.703 0)"><path class="el" d="M654.873,5190.469a.3.3,0,0,0-.216-.551l-1.1.432a1.477,1.477,0,0,1-1.08-2.75l1.65-.647a.591.591,0,0,1,.432,1.1l-1.65.647a.3.3,0,0,0,.216.55l1.1-.432a1.477,1.477,0,0,1,1.08,2.749l-1.924.756a.591.591,0,0,1-.432-1.1Z" transform="translate(-651.542 -5186.913)"/></g><g transform="translate(0 6.895)"><path class="el" d="M470.037,5258.44a.654.654,0,0,1,.7.164,2.4,2.4,0,0,1,1-.688,2.366,2.366,0,0,1,3.02,1.43l.6,1.668a.591.591,0,0,1-1.112.4l-.6-1.67a1.182,1.182,0,0,0-2.225.8l.6,1.667a.591.591,0,1,1-1.113.4l-.6-1.668a2.261,2.261,0,0,1-.1-1.2.676.676,0,0,1-.57-.443A.663.663,0,0,1,470.037,5258.44Z" transform="translate(-469.595 -5257.778)"/></g><g transform="translate(7.459 2.452)"><path class="el" d="M546.71,5214.354a.653.653,0,0,1,.692.177,2.423,2.423,0,0,1,1.013-.667,2.368,2.368,0,0,1,2.989,1.5l.56,1.681a.591.591,0,1,1-1.121.373l-.56-1.68a1.181,1.181,0,1,0-2.242.747l.56,1.681a.59.59,0,1,1-1.121.372l-.56-1.68a2.261,2.261,0,0,1-.07-1.2.676.676,0,0,1-.561-.456A.662.662,0,0,1,546.71,5214.354Zm.888-.666a.462.462,0,0,1-.258.224.444.444,0,0,1-.537-.619,1.278,1.278,0,0,1,.776-.707c.307-.1.645.1.829.036.149-.051.193-.124.263-.263a.455.455,0,0,1,.257-.222.436.436,0,0,1,.56.28.441.441,0,0,1-.024.34,1.285,1.285,0,0,1-.776.706c-.306.1-.645-.1-.829-.035C547.711,5213.475,547.667,5213.548,547.6,5213.688Z" transform="translate(-546.254 -5212.112)"/></g><g transform="translate(13.217 2.348)"><path class="el" d="M606.979,5211.184a2.363,2.363,0,1,1-1.407,3.032A2.369,2.369,0,0,1,606.979,5211.184Zm1.217,3.329a1.181,1.181,0,1,0-1.515-.7A1.177,1.177,0,0,0,608.2,5214.513Z" transform="translate(-605.428 -5211.041)"/></g></g><g transform="translate(23.703 34.329)"><path class="el" d="M408.976,5281.8l-1.712-1.746a1.684,1.684,0,0,1-.409-.536.543.543,0,0,1,.4-.678.61.61,0,0,1,.728.206l1.23,1.354.237-1.823a.63.63,0,0,1,.491-.592.524.524,0,0,1,.7.329,1.672,1.672,0,0,1-.024.673l-.665,4.163a.642.642,0,0,1-.491.592.524.524,0,0,1-.7-.328,1.53,1.53,0,0,1,.032-.674Z" transform="translate(-406.827 -5277.959)"/></g></g><rect class="a" width="70" height="50" rx="5" transform="translate(597 1450)"/></g></svg>