<svg xmlns="http://www.w3.org/2000/svg" width="70.01" height="51" viewBox="0 0 70.01 51"><defs><style>.a{fill:#cbab32;}.b{fill:#a98631;}.c{fill:#1e1a19;}.d{fill:#f4cf00;}.e{fill:#2f292b;opacity:0.2;}.f{fill:#fff;}.g{fill:none;}</style></defs><g transform="translate(-357 -1449)"><g transform="translate(362 1449)"><path class="a" d="M707.192,555.114l-23.029,6.719-.3-12.425,23.213-6.09Z" transform="translate(-676.319 -518.732)"/><path class="b" d="M705.094,563.553l-18.646,10.009-.111-5.4,14.725-12.142Z" transform="translate(-678.604 -530.462)"/><circle class="c" cx="17.958" cy="17.958" r="17.958" transform="translate(14.217 25.397) rotate(-45)"/><path class="d" d="M612.312,493.179l-26.148,7.628-.342-14.108,26.356-6.915Z" transform="translate(-585.822 -460.087)"/><path class="e" d="M945.933,306.022a7.519,7.519,0,0,0-5.038,4.132l-.172.044c-.167-4.411,1.344-8.715,6.017-10.959a26.513,26.513,0,0,1,3-1.158l-1.4-5.4a29.482,29.482,0,0,0-3.686,1.337,18.163,18.163,0,0,0-7.94,6.841c-2.59,4.149-4,9.784-2.125,17.012,2.126,8.2,7.832,12.528,14.874,10.7,7.271-1.886,9.059-8.652,7.554-14.455C955.392,307.86,950.971,304.715,945.933,306.022Zm2.213,17.918c-2.305.6-4.941-1.874-5.887-5.522s.155-7.09,2.461-7.688,4.941,1.874,5.888,5.522S950.451,323.342,948.146,323.94Z" transform="translate(-906.963 -287.382)"/><path class="f" d="M961.823,315.973a7.3,7.3,0,0,0-4.891,4.012l-.167.043c-.162-4.283,1.305-8.461,5.841-10.64a25.77,25.77,0,0,1,2.912-1.125l-1.359-5.238a28.637,28.637,0,0,0-3.579,1.3,17.635,17.635,0,0,0-7.709,6.641c-2.514,4.028-3.883,9.5-2.063,16.517,2.064,7.957,7.6,12.163,14.441,10.39,7.059-1.831,8.8-8.4,7.334-14.034C971.006,317.758,966.714,314.7,961.823,315.973Zm2.148,17.4c-2.238.581-4.8-1.82-5.716-5.361s.151-6.883,2.389-7.464,4.8,1.82,5.716,5.361S966.209,332.789,963.971,333.37Z" transform="translate(-921.958 -296.926)"/><g transform="translate(2.767 21.348)"><path class="c" d="M626.253,580.637a2.339,2.339,0,0,1-1.884,2.7q-1.689.445-2.067-.989a3.459,3.459,0,0,1-.1-.64l-.41-6.285a2.329,2.329,0,0,1,1.88-2.691q1.694-.447,2.072.988a3.434,3.434,0,0,1,.1.635l.088,1.383-1.41.372-.088-1.383q-.049-.69-.663-.534l-.01,0a.723.723,0,0,0-.558.856l.41,6.285q.045.7.658.535a.734.734,0,0,0,.573-.859l-.088-1.384,1.41-.372Z" transform="translate(-621.783 -567.131)"/><path class="c" d="M688.934,588.408l-.991.262-.375-.738a1.686,1.686,0,0,1-1.062,1.287,1.2,1.2,0,0,1-1.64-.985,3.99,3.99,0,0,1-.114-.753l-.045-.675q-.143-2.157,1.405-2.571a1.573,1.573,0,0,1,1.114.042l-.122-1.838q-.045-.7-.653-.536l-.01,0a.711.711,0,0,0-.513.844l.021.282-1.41.372-.021-.282a2.31,2.31,0,0,1,1.835-2.679q1.684-.444,2.059.981a3.523,3.523,0,0,1,.1.645Zm-2.772-1.3q.045.7.663.534a.732.732,0,0,0,.567-.858l-.046-.68q-.049-.69-.657-.53a.734.734,0,0,0-.573.86Z" transform="translate(-679.684 -574.251)"/><path class="c" d="M743.835,572.164l-.55-8.332.991-.261.381.736a1.673,1.673,0,0,1,1.057-1.286,1.2,1.2,0,0,1,1.64.985,3.989,3.989,0,0,1,.113.753l.419,6.336-1.41.372-.419-6.336q-.045-.7-.663-.534a.732.732,0,0,0-.568.858l.419,6.337Z" transform="translate(-733.938 -558.206)"/><path class="c" d="M809.9,554.3l-.991.262-.376-.737a1.686,1.686,0,0,1-1.062,1.287,1.2,1.2,0,0,1-1.639-.985,3.99,3.99,0,0,1-.113-.753l-.045-.675q-.143-2.157,1.405-2.571a1.571,1.571,0,0,1,1.114.042l-.122-1.838q-.045-.7-.653-.536l-.01,0a.711.711,0,0,0-.513.844l.021.282-1.41.372-.021-.282a2.31,2.31,0,0,1,1.835-2.679q1.684-.444,2.06.981a3.531,3.531,0,0,1,.1.645ZM807.13,553q.045.7.663.534a.732.732,0,0,0,.568-.858l-.046-.68q-.049-.691-.656-.53a.735.735,0,0,0-.573.86Z" transform="translate(-791.345 -542.768)"/><path class="c" d="M863.534,501.245l.714,10.873-1.41.372-.714-10.873Z" transform="translate(-843.634 -501.245)"/></g></g><rect class="g" width="70" height="50" rx="5" transform="translate(357 1450)"/></g></svg>