<svg xmlns="http://www.w3.org/2000/svg" width="53" height="50" viewBox="0 0 53 50"><defs><style>.a{fill:none;}.b,.c{fill:#f5720e;}.c{font-size:13px;font-family:Helvetica;letter-spacing:0.04em;}</style></defs><g transform="translate(-436 -1450)"><rect class="a" width="53" height="50" rx="5" transform="translate(436 1450)"/><g transform="translate(444 1453.942)"><g transform="translate(0 6.007)"><path class="b" d="M-649.139,1745.227a1.4,1.4,0,0,1-1.026-.419,1.4,1.4,0,0,1-.42-1.025,1.4,1.4,0,0,1,.42-1.024,1.391,1.391,0,0,1,1.026-.419h13.783a1.327,1.327,0,0,1,1.072.442,1.518,1.518,0,0,1,.37,1,1.773,1.773,0,0,1-.137.7l-12.153,26.822a1.463,1.463,0,0,1-1.3.745,1.306,1.306,0,0,1-1.049-.465,1.5,1.5,0,0,1-.4-.978,1.411,1.411,0,0,1,.187-.7l10.99-24.68Z" transform="translate(652.538 -1740.387)"/><path class="b" d="M-648.441,1773.071a3.273,3.273,0,0,1-2.54-1.156,3.46,3.46,0,0,1-.859-2.242,3.337,3.337,0,0,1,.439-1.653l9.686-21.771h-8.355a3.334,3.334,0,0,1-2.407-.992,3.333,3.333,0,0,1-.991-2.405,3.335,3.335,0,0,1,.991-2.406,3.324,3.324,0,0,1,2.407-.992h13.783a3.237,3.237,0,0,1,2.559,1.129,3.49,3.49,0,0,1,.836,2.268,3.769,3.769,0,0,1-.29,1.455l-12.177,26.871A3.494,3.494,0,0,1-648.441,1773.071Z" transform="translate(653.469 -1739.455)"/></g><text class="c" transform="translate(33.881 41.058) rotate(-90)"><tspan x="0" y="0">SIETE</tspan></text></g></g></svg>