<svg xmlns="http://www.w3.org/2000/svg" width="93" height="50" viewBox="0 0 93 50"><defs><style>.a{fill:#c1831a;}.b{fill:#0e1e4a;}.c{fill:none;}</style></defs><g transform="translate(-1019 -1450)"><g transform="translate(1023 1463)"><path class="a" d="M-542.509,1942.729l.843,2.619a8.91,8.91,0,0,1,1.19-.381l-.845-2.621A11.728,11.728,0,0,0-542.509,1942.729Zm-1.291,3.792-1.751-2.123c-.333.248-.655.514-.964.794l1.755,2.125A9.835,9.835,0,0,1-543.8,1946.521Zm-3.865,6.088-2.729-.334a12.087,12.087,0,0,0-.154,1.24l2.734.334A9.7,9.7,0,0,1-547.665,1952.608Zm9.012-7.921-.336-2.733q-.629.046-1.241.151l.337,2.734A9.774,9.774,0,0,1-538.653,1944.688Zm-8.5,6.144-2.62-.847c-.147.386-.273.785-.383,1.189l2.618.845A10.093,10.093,0,0,1-547.152,1950.831Zm.838-1.643-2.412-1.323c-.219.354-.421.72-.6,1.094l2.414,1.325A9.995,9.995,0,0,1-546.314,1949.188Zm1.131-1.452-2.12-1.755a12.216,12.216,0,0,0-.8.961l2.121,1.756A9.424,9.424,0,0,1-545.182,1947.736Zm16.542,4.292,2.619-.846a11.346,11.346,0,0,0-.383-1.188l-2.619.844A9.555,9.555,0,0,1-528.64,1952.028Zm-.619-1.736,2.417-1.324c-.183-.377-.383-.74-.6-1.1l-2.415,1.323A9.9,9.9,0,0,1-529.259,1950.292Zm-8.264-5.6a9.794,9.794,0,0,1,1.24.152l.337-2.734c-.409-.07-.822-.12-1.241-.151Zm9.16,9.16,2.731-.334a11.441,11.441,0,0,0-.15-1.24l-2.73.334A10.045,10.045,0,0,1-528.363,1953.848Zm-1.83-5.144,2.121-1.752a12.2,12.2,0,0,0-.794-.963l-2.124,1.752A9.837,9.837,0,0,1-530.193,1948.7Zm-1.219-1.381,1.757-2.124c-.309-.281-.629-.546-.964-.794l-1.753,2.119A9.218,9.218,0,0,1-531.412,1947.322Zm-2.248-4.59q-.581-.221-1.188-.386l-.844,2.621a10.226,10.226,0,0,1,1.187.383Zm.8,3.458,1.323-2.415c-.355-.217-.719-.42-1.094-.6l-1.325,2.417A9.355,9.355,0,0,1-532.863,1946.19Zm-9.348-.607-1.324-2.415c-.374.183-.74.384-1.094.6l1.324,2.412A10.018,10.018,0,0,1-542.211,1945.583Zm9.833,16.726,1.751,2.122c.335-.251.653-.516.963-.8l-1.752-2.122A10.443,10.443,0,0,1-532.378,1962.309Zm-1.589.934,1.321,2.414a11.53,11.53,0,0,0,1.1-.6l-1.324-2.415A9.489,9.489,0,0,1-533.967,1963.244Zm2.972-2.15,2.121,1.754q.422-.46.8-.961l-2.122-1.755A10.627,10.627,0,0,1-530.995,1961.093Zm-4.709,2.769.845,2.62c.4-.109.8-.237,1.189-.381l-.844-2.62A9.539,9.539,0,0,1-535.7,1963.862Zm7.192-7.645,2.73.338a11.4,11.4,0,0,0,.15-1.24l-2.731-.336A10,10,0,0,1-528.512,1956.217Zm-9.011,7.923.336,2.734c.419-.031.831-.081,1.241-.151l-.337-2.736A9.189,9.189,0,0,1-537.523,1964.14Zm7.659-4.5,2.413,1.321a11.656,11.656,0,0,0,.6-1.093l-2.412-1.321A10.2,10.2,0,0,1-529.864,1959.639Zm.837-1.641,2.618.845a11.76,11.76,0,0,0,.385-1.188l-2.62-.846A9.358,9.358,0,0,1-529.027,1958Zm-13.49,8.1a11.127,11.127,0,0,0,1.188.383l.846-2.619a9.225,9.225,0,0,1-1.19-.383Zm-2.251-4.587-1.753,2.121a12.238,12.238,0,0,0,.961.8l1.755-2.121A9.846,9.846,0,0,1-544.768,1961.506Zm-1.216-1.382-2.123,1.753c.25.334.517.652.795.96l2.125-1.751A10.441,10.441,0,0,1-545.984,1960.124Zm-.934-1.587-2.417,1.322c.184.374.384.74.6,1.093l2.416-1.321A9.9,9.9,0,0,1-546.918,1958.537Zm-.62-1.735-2.619.843a11.678,11.678,0,0,0,.384,1.19l2.62-.844A9.431,9.431,0,0,1-547.538,1956.8Zm4.225,5.837-1.325,2.413c.354.217.72.418,1.094.6l1.324-2.415A9.867,9.867,0,0,1-543.313,1962.638Zm3.083,4.084q.613.105,1.241.151l.336-2.734a9.171,9.171,0,0,1-1.241-.153Zm-7.583-11.744-2.734.336a12.044,12.044,0,0,0,.154,1.24l2.729-.338A9.658,9.658,0,0,1-547.814,1954.979Z" transform="translate(550.548 -1941.955)"/><g transform="translate(30.128 8.141)"><path class="b" d="M-512.39,1951.484v1.894h1.839v1.423H-512.4v2.88a.828.828,0,0,0,.868.946,1.882,1.882,0,0,0,.8-.2l.461,1.407a3.688,3.688,0,0,1-1.368.287,2.159,2.159,0,0,1-2.4-2.437v-2.88h-1.242v-1.423h1.242v-1.72Z" transform="translate(515.285 -1951.484)"/><path class="b" d="M-501.149,1953.614l-2.841,6.712h-1.786l-2.854-6.712h1.8l.918,2.208,1.029,2.811,1.013-2.784.92-2.235Z" transform="translate(514.316 -1951.794)"/><g transform="translate(18.738 1.598)"><path class="b" d="M-491.7,1953.657v3.491a1.589,1.589,0,0,0,1.609,1.783,1.752,1.752,0,0,0,1.705-1.866v-3.407h1.637v6.684h-1.129l-.451-.91a2.969,2.969,0,0,1-2.262,1c-1.6,0-2.759-1.2-2.759-3.275v-3.5Z" transform="translate(493.353 -1953.399)"/><path class="b" d="M-478.56,1960.31v-3.493a1.588,1.588,0,0,0-1.6-1.787,1.757,1.757,0,0,0-1.707,1.871v3.409h-1.637v-6.688h1.13l.454.906a3.011,3.011,0,0,1,2.194-1c1.566,0,2.825,1.175,2.825,3.275v3.5Z" transform="translate(491.919 -1953.38)"/><path class="b" d="M-459.2,1960.308v-3.574c0-.881-.458-1.676-1.362-1.676a1.52,1.52,0,0,0-1.421,1.676v3.574h-1.65v-6.688h1.183l.466.814a1.931,1.931,0,0,1,1.758-.918,1.994,1.994,0,0,1,1.974,1.242,2.414,2.414,0,0,1,2.232-1.214c1.9,0,2.828,1.159,2.828,3.165v3.6h-1.651v-3.6c0-.881-.365-1.624-1.258-1.624a1.516,1.516,0,0,0-1.449,1.649v3.574Z" transform="translate(489.025 -1953.378)"/><path class="b" d="M-468.313,1953.521l-.4.917a2.44,2.44,0,0,0-2.12-1.082,3.248,3.248,0,0,0-3.479,3.488,3.226,3.226,0,0,0,3.436,3.547,2.531,2.531,0,0,0,2.163-1.176l.084,1.068h1.557v-6.762Zm-2.52,5.487a2.1,2.1,0,0,1-2.1-2.1,2.1,2.1,0,0,1,2.1-2.1,2.1,2.1,0,0,1,2.095,2.1A2.1,2.1,0,0,1-470.833,1959.007Z" transform="translate(490.58 -1953.355)"/></g><path class="a" d="M-497.529,1958.487a1.4,1.4,0,0,1-1.4-1.4,1.4,1.4,0,0,1,1.4-1.4,1.4,1.4,0,0,1,1.4,1.4A1.4,1.4,0,0,1-497.529,1958.487Z" transform="translate(512.904 -1952.095)"/></g></g><rect class="c" width="93" height="50" rx="5" transform="translate(1019 1450)"/></g></svg>