<svg xmlns="http://www.w3.org/2000/svg" xmlns:xlink="http://www.w3.org/1999/xlink" width="138" height="110" viewBox="0 0 138 110">
  <defs>
    <linearGradient id="linear-gradient" x1="0.5" y1="0.31" x2="0.5" y2="1" gradientUnits="objectBoundingBox">
      <stop offset="0" stop-color="#fff"/>
      <stop offset="1" stop-color="#bfbfbf"/>
    </linearGradient>
    <filter id="Rectángulo_3581" x="0" y="0" width="138" height="110" filterUnits="userSpaceOnUse">
      <feOffset dy="3" input="SourceAlpha"/>
      <feGaussianBlur stdDeviation="4" result="blur"/>
      <feFlood flood-opacity="0.424"/>
      <feComposite operator="in" in2="blur"/>
      <feComposite in="SourceGraphic"/>
    </filter>
    <filter id="Rectángulo_3581-2" x="0" y="69" width="138" height="41" filterUnits="userSpaceOnUse">
      <feOffset dy="3" input="SourceAlpha"/>
      <feGaussianBlur stdDeviation="4" result="blur-2"/>
      <feFlood flood-opacity="0.424"/>
      <feComposite operator="in" in2="blur-2"/>
      <feComposite in="SourceGraphic"/>
    </filter>
  </defs>
  <g id="Grupo_5191" data-name="Grupo 5191" transform="translate(-605 -1196)">
    <g id="Componente_19_171" data-name="Componente 19 – 171" transform="translate(617 1205)">
      <g transform="matrix(1, 0, 0, 1, -12, -9)" filter="url(#Rectángulo_3581)">
        <rect id="Rectángulo_3581-3" data-name="Rectángulo 3581" width="114" height="86" rx="5" transform="translate(12 9)" fill="url(#linear-gradient)"/>
      </g>
    </g>
    <g id="Grupo_5189" data-name="Grupo 5189" transform="translate(383.988 865.754)">
      <g id="_378_Cinecanal_Negro" data-name="378  Cinecanal Negro" transform="translate(242.012 349.246)">
        <g id="Grupo_5175" data-name="Grupo 5175">
          <g id="Grupo_5174" data-name="Grupo 5174">
            <path id="Trazado_8586" data-name="Trazado 8586" d="M250.825,373.289a3.847,3.847,0,0,1-4.355-.6,4.073,4.073,0,0,1,0-5.346,3.847,3.847,0,0,1,4.355-.6,2.8,2.8,0,0,1,1.156,1.137l3.011-1.732a6.594,6.594,0,0,0-2.466-2.352,6.949,6.949,0,0,0-3.419-.871,7.093,7.093,0,1,0,0,14.184,6.974,6.974,0,0,0,3.427-.866,6.422,6.422,0,0,0,2.458-2.36l-3.011-1.746a2.774,2.774,0,0,1-1.156,1.154" transform="translate(-242.012 -324.719)" fill="#100f0c"/>
            <rect id="Rectángulo_3713" data-name="Rectángulo 3713" width="3.478" height="13.601" transform="translate(13.447 38.495)" fill="#100f0c"/>
            <path id="Trazado_8587" data-name="Trazado 8587" d="M256.058,363.027v6.84l-4.8-6.84h-2.7v13.6h3.478V369.79l4.8,6.838h2.681v-13.6Z" transform="translate(-230.273 -324.532)" fill="#100f0c"/>
            <path id="Trazado_8588" data-name="Trazado 8588" d="M256.456,373.366v-2h4.683v-3.205h-4.683v-1.885h5.168v-3.245h-8.648v13.6h8.745v-3.263Z" transform="translate(-222.352 -324.532)" fill="#100f0c"/>
            <path id="Trazado_8589" data-name="Trazado 8589" d="M263.448,375.693a5.53,5.53,0,0,1-4.159-1.654,5.912,5.912,0,0,1,0-8.12,5.53,5.53,0,0,1,4.159-1.654,5.231,5.231,0,0,1,4.682,2.721l1.2-.7a6.7,6.7,0,0,0-5.885-3.341,7.037,7.037,0,1,0,0,14.07,6.668,6.668,0,0,0,5.885-3.363l-1.2-.679a5.236,5.236,0,0,1-4.682,2.721" transform="translate(-216.364 -324.682)" fill="#100f0c"/>
            <path id="Trazado_8590" data-name="Trazado 8590" d="M267.567,363.027h-1.4l-5.226,13.6h1.436l1.263-3.338h6.453l1.263,3.338h1.438ZM264.128,372l2.737-7.288L269.609,372Z" transform="translate(-208.067 -324.533)" fill="#100f0c"/>
            <path id="Trazado_8591" data-name="Trazado 8591" d="M274.275,363.027V374.1L266.7,363.027h-1.166v13.6h1.358V365.554l7.58,11.074h1.166v-13.6Z" transform="translate(-199.833 -324.532)" fill="#100f0c"/>
            <path id="Trazado_8592" data-name="Trazado 8592" d="M276.123,363.027h-1.4l-5.229,13.6h1.439l1.263-3.338h6.452l1.263,3.338h1.439ZM272.687,372l2.737-7.288,2.74,7.288Z" transform="translate(-192.724 -324.533)" fill="#100f0c"/>
            <path id="Trazado_8593" data-name="Trazado 8593" d="M275.449,375.348v-12.32h-1.361v13.6h7.58v-1.28Z" transform="translate(-184.49 -324.532)" fill="#100f0c"/>
            <path id="Trazado_8594" data-name="Trazado 8594" d="M268.992,349.246a15.469,15.469,0,1,0,15.466,15.469,15.466,15.466,0,0,0-15.466-15.469m-2.176,18.14a3.838,3.838,0,0,0,4.352.6,2.748,2.748,0,0,0,1.156-1.156l3.011,1.751a6.421,6.421,0,0,1-2.458,2.36,6.971,6.971,0,0,1-3.427.863,7.092,7.092,0,1,1,3.419-13.31,6.507,6.507,0,0,1,2.466,2.352l-3.011,1.729a2.769,2.769,0,0,0-1.156-1.137,3.843,3.843,0,0,0-4.352.6,4.069,4.069,0,0,0,0,5.344" transform="translate(-221.37 -349.246)" fill="#100f0c"/>
          </g>
        </g>
      </g>
    </g>
    <g id="Grupo_5190" data-name="Grupo 5190" transform="translate(76 145)">
      <g transform="matrix(1, 0, 0, 1, 529, 1051)" filter="url(#Rectángulo_3581-2)">
      </g>
    </g>
  </g>
</svg>
