<svg xmlns="http://www.w3.org/2000/svg" xmlns:xlink="http://www.w3.org/1999/xlink" width="138" height="110" viewBox="0 0 138 110"><defs><style>.a{fill:url(#a);}.b{fill:#100f0c;}.c{fill:#ffb000;}.d{filter:url(#b);}</style><linearGradient id="a" x1="0.5" y1="0.31" x2="0.5" y2="1" gradientUnits="objectBoundingBox"><stop offset="0" stop-color="#fff"/><stop offset="1" stop-color="#bfbfbf"/></linearGradient><filter id="b" x="0" y="0" width="138" height="110" filterUnits="userSpaceOnUse"><feOffset dy="3" input="SourceAlpha"/><feGaussianBlur stdDeviation="4" result="c"/><feFlood flood-opacity="0.424"/><feComposite operator="in" in2="c"/><feComposite in="SourceGraphic"/></filter></defs><g transform="translate(-711 -1158)"><g transform="translate(723 1167)"><g class="d" transform="matrix(1, 0, 0, 1, -12, -9)"><rect class="a" width="114" height="86" rx="5" transform="translate(12 9)"/></g></g><g transform="translate(735 1194)"><path class="b" d="M520.393,355.576l-79.732,10.251-1.423,14.618,79.067-9.587Z" transform="translate(-432.153 -352.774)"/><path class="c" d="M502.239,366.58l.615,2.585-1.971.238Zm25.349-12.039-2.913,20.72-88.054,10.812,2.913-20.72Zm-12.35,11.57,4.006-5.839-4.174.514-1.865,2.886-1.554-2.466-3.9.479,3.159,4.8-3.6,5.26-2.7-9.659-3.571.438L495.3,373.453l1.473-10.42-3.958.485-2.861,4.2-1.76-3.628-3.554.436-1.573,11.134,3.527-.433.774-5.52,1.917,3.657.062-.008,3.04-4.264-.777,5.517,3.3-.4.29-.038,3.636-.444.763-1.562,3.771-.466.363,1.427,2.883-.355.95-.116,3.221-.4,2.19-3.365,1.689,2.888,3.9-.479Zm-37.967,3.427.157-1.132,5.652-.693.439-3.054-9.193,1.129-1.573,11.134,9.185-1.129.425-3.054-5.647.693.181-1.21,5.265-.647.371-2.685Zm-16.421,8.844,3.571-.438.79-5.536,3.213,5.046,3.2-.393,1.573-11.134-3.571.438-.755,5.314-3.081-4.843-3.373.414Zm.463-11-3.6.441-1.57,11.134,3.6-.441Zm-15.292,10.9c-.1.993.918,1.811,2.263,1.649h0l6.719-.826.466-3.113-4.567.56c-.6.076-1.148-.114-1.042-.9l.4-2.821c.122-.9.877-1.137,1.673-1.232l4.228-.517.444-3.124-7.436.915a2.359,2.359,0,0,0-2.084,1.765l-1.067,7.64Z" transform="translate(-436.621 -354.541)"/></g></g></svg>