<svg xmlns="http://www.w3.org/2000/svg" xmlns:xlink="http://www.w3.org/1999/xlink" width="138" height="110" viewBox="0 0 138 110"><defs><style>.a{fill:url(#a);}.b{fill:#040505;}.c{fill:url(#d);}.d{fill:url(#e);}.e{fill:#d9b9b3;}.f{fill:#1b1513;}.g{fill:#766a6c;}.h{fill:#fff;}.i{fill:url(#f);}.j{fill:#521c0c;}.k{fill:#5c1d0e;}.l{fill:#f05913;}.m{fill:#923019;}.n{fill:#1f0f0b;}.o{filter:url(#b);}</style><linearGradient id="a" x1="0.5" y1="0.31" x2="0.5" y2="1" gradientUnits="objectBoundingBox"><stop offset="0" stop-color="#fff"/><stop offset="1" stop-color="#bfbfbf"/></linearGradient><filter id="b" x="0" y="0" width="138" height="110" filterUnits="userSpaceOnUse"><feOffset dy="3" input="SourceAlpha"/><feGaussianBlur stdDeviation="4" result="c"/><feFlood flood-opacity="0.424"/><feComposite operator="in" in2="c"/><feComposite in="SourceGraphic"/></filter><linearGradient id="d" x1="0.009" y1="0.5" x2="1" y2="0.5" gradientUnits="objectBoundingBox"><stop offset="0.29" stop-color="#695d60"/><stop offset="0.48" stop-color="#766"/><stop offset="0.77" stop-color="#87706d"/><stop offset="1" stop-color="#8d7470"/></linearGradient><linearGradient id="e" x1="0.017" y1="0.507" x2="1" y2="0.507" xlink:href="#d"/><linearGradient id="f" x1="0.004" y1="0.4" x2="0.992" y2="0.4" gradientUnits="objectBoundingBox"><stop offset="0" stop-color="#c5a6ae"/><stop offset="0.92" stop-color="#bd867f"/></linearGradient></defs><g transform="translate(-1078 -1018)"><g transform="translate(1090 1027)"><g class="o" transform="matrix(1, 0, 0, 1, -12, -9)"><rect class="a" width="114" height="86" rx="5" transform="translate(12 9)"/></g></g><g transform="translate(1147 1070.496)"><g transform="translate(-41 -13.496)"><path class="b" d="M55.521,5.567a12.3,12.3,0,0,0-8.542-3.075H45.612L47.662.1H33.825L29.9,4.883,27.675,2.321H11.958A12.3,12.3,0,0,0,3.417,5.4,10.763,10.763,0,0,0,0,13.254a10.762,10.762,0,0,0,3.758,7.858,11.617,11.617,0,0,0,8.029,3.417H14.35l-1.879,2.392H25.625l4.1-5.125,2.392,2.733h15.2a12.129,12.129,0,0,0,8.2-3.246,10.933,10.933,0,0,0,3.075-8.2,10.421,10.421,0,0,0-3.417-7.858Z" transform="translate(0 0.071)"/><path class="c" d="M26.746,16.742,19.571,8.2l-.171.171,7.346,8.713Z" transform="translate(13.742 5.808)"/><path class="d" d="M18.929,7.342,15.171,2.9,15,3.071l3.758,4.442Z" transform="translate(10.625 2.054)"/><path class="e" d="M10.6,3.071V2.9h7.688v.171Z" transform="translate(7.508 2.054)"/><path class="f" d="M17.2,5.979,21.812.342,21.642,0,17.2,5.467Z" transform="translate(12.183)"/><rect class="g" width="7.688" height="0.034" transform="translate(35.025 2.501) rotate(-0.1)"/><path class="h" d="M11.1,4.063h7.687L22.371,8.5l5.637-7H35.7L26.3,13.117l7.175,8.712H26.129l-3.588-4.271-5.3,6.492H9.9l8.713-10.933Z" transform="translate(7.012 1.062)"/><path class="h" d="M34.183,9.465H29.058A7.687,7.687,0,0,0,24.1,10.831a4.954,4.954,0,0,0,.513,7.858A8.542,8.542,0,0,0,30.083,20.4h1.2a9.225,9.225,0,0,0,6.662-2.563,8.029,8.029,0,0,0,.171-12.471A9.567,9.567,0,0,0,31.279,2.8h-4.1L22.737,8.44H31.45a4.442,4.442,0,0,1,2.9,1.025m-2.9,6.321-1.879-.342c-.512-.342-.683-.512-.683-.854s.512-.854,1.367-.854h4.954a3.929,3.929,0,0,1-3.758,2.221" transform="translate(15.871 1.981)"/><path class="h" d="M4.385,17.869A9.225,9.225,0,0,0,11.047,20.6H15.66l4.271-5.3H10.876a4.783,4.783,0,0,1-2.733-1.025H13.1a7.858,7.858,0,0,0,4.954-1.367,4.954,4.954,0,0,0,1.708-4.1,5.3,5.3,0,0,0-2.392-4.1,7.858,7.858,0,0,0-5.125-1.708H10.876A9.908,9.908,0,0,0,4.043,5.227,7.687,7.687,0,0,0,1.31,11.719,8.371,8.371,0,0,0,4.385,17.7m6.492-9.738,1.879.342c.342.342.683.513.683.854s-.513.854-1.367.854H7.118a3.929,3.929,0,0,1,3.758-2.05" transform="translate(0.911 2.118)"/><path class="i" d="M30.9,7.2l.171.171H35V7.2H30.9Z" transform="translate(21.888 5.1)"/><path class="b" d="M32.779,2.9H47.3l1.367.342V5.8l1.708-2.563h9.738L48.154,20.154H42.175l-.513-.512-.342-3.075-1.2,3.758H32.608l.854-3.758S34.829,11.1,35,11.1a3.417,3.417,0,0,0,0-.683H30.9S32.95,2.9,32.779,2.9Z" transform="translate(21.888 2.054)"/><path class="j" d="M33.467,4.271,33.125,4.1,32.1,7.858l.171.171Z" transform="translate(22.737 2.904)"/><path class="k" d="M36.146,6.4l-.854,1.367L32.9,16.308l.342.342Z" transform="translate(23.304 4.533)"/><path class="h" d="M32.9,4.2" transform="translate(23.304 2.975)"/><path class="l" d="M42.142,4.1h.342l.171,7.517L47.267,4.1h5.125L42.654,17.938H38.725L37.871,7,37.7,4.1Z" transform="translate(26.704 2.904)"/><path class="m" d="M42.483,9.154V4.2L37.7,4.371l.171,2.563V7.958l.342,4.1.854-2.733Z" transform="translate(26.704 2.975)"/><path class="n" d="M40.5,4.2Z" transform="translate(28.688 2.975)"/><path class="l" d="M33.4,4.2H46.379L45.012,7.958H41.425L38.35,18.208H33.737l2.9-10.25H32.2Z" transform="translate(22.808 2.975)"/></g></g></g></svg>