<svg xmlns="http://www.w3.org/2000/svg" xmlns:xlink="http://www.w3.org/1999/xlink" width="138" height="110" viewBox="0 0 138 110"><defs><style>.a{fill:url(#a);}.b{fill:#004390;}.c{fill:#0055a4;}.d{fill:#0052a1;}.e{fill:#0d234c;}.f{fill:#003d84;}.g{fill:#00509c;}.h{fill:#062443;}.i{fill:#fec400;}.j{fill:#0b1a3b;}.k{fill:#0a193a;}.l{fill:#2d4423;}.m{fill:#204726;}.n{fill:#528339;}.o{fill:#5d7a2e;}.p{fill:#4d6225;}.q{fill:#5d792a;}.r{fill:url(#d);}.s{fill:#33411a;}.t{fill:#00438f;}.u{fill:#0c2957;}.v{fill:#0e2653;}.w{fill:#32401a;}.x{fill:url(#e);}.y{fill:url(#f);}.z{fill:#6f8a2b;}.aa{fill:#2a5c2f;}.ab{fill:#5e8937;}.ac{fill:#323a17;}.ad{fill:#003575;}.ae{filter:url(#b);}</style><linearGradient id="a" x1="0.5" y1="0.31" x2="0.5" y2="1" gradientUnits="objectBoundingBox"><stop offset="0" stop-color="#fff"/><stop offset="1" stop-color="#bfbfbf"/></linearGradient><filter id="b" x="0" y="0" width="138" height="110" filterUnits="userSpaceOnUse"><feOffset dy="3" input="SourceAlpha"/><feGaussianBlur stdDeviation="4" result="c"/><feFlood flood-opacity="0.424"/><feComposite operator="in" in2="c"/><feComposite in="SourceGraphic"/></filter><linearGradient id="d" x1="0.196" y1="0.564" x2="0.733" y2="0.129" gradientUnits="objectBoundingBox"><stop offset="0" stop-color="#293818"/><stop offset="0.47" stop-color="#306432"/><stop offset="1" stop-color="#77992e"/></linearGradient><linearGradient id="e" x1="0.143" y1="0.634" x2="0.895" y2="0.077" xlink:href="#d"/><linearGradient id="f" x1="0.169" y1="0.625" x2="0.905" y2="0.051" gradientUnits="objectBoundingBox"><stop offset="0" stop-color="#293818"/><stop offset="0.35" stop-color="#306432"/><stop offset="1" stop-color="#77992e"/></linearGradient></defs><g transform="translate(-956 -1018)"><g transform="translate(968 1027)"><g class="ae" transform="matrix(1, 0, 0, 1, -12, -9)"><rect class="a" width="114" height="86" rx="5" transform="translate(12 9)"/></g></g><g transform="translate(1031.5 1073.631)"><g transform="translate(-42.5 -24.631)"><path class="b" d="M56.438,21.516h-.417l-5.006,1.043-2.712.626h-.209l1.043-1.669-2.5,1.46-1.043.834-5.006,1.252L41,23.393l-1.252,1.252-1.043.834-4.589,1.043a1.46,1.46,0,0,1-1.252-.834l-.626,1.877h0l-4.8,4.8-1.252,1.252L11.8,39.872l2.294-7.092,1.46-1.252L19.518,18.8l1.669-1.252h-1.46l.834-4.172v-.417l.626-1.669h.626l2.294-7.509-.626-.834L24.733,1.7,28.7,2.743,28.279,9l2.086-2.086h5.841L35.162,13.8l-1.46,1.46h5.632l5.632-2.086.417-.417,8.969.834-.417,1.877a2.712,2.712,0,0,1-.626,1.043H51.641v.626H50.389c-1.877,0-1.669,2.5-1.669,2.5s1.877.209,1.877,0l1.043-2.5A4.38,4.38,0,0,0,53.31,16.3H55.6Z" transform="translate(12.814 1.846)"/><path class="c" d="M31.185,12.766h.209l-1.669,1.252L25.762,26.742,24.3,27.993H23.259l1.669-1.46L23.05,18.19l-2.712.626-2.086,5.841V25.7l-3.546,4.172-.626-1.043,1.252-1.46a32.384,32.384,0,0,1,.834-4.38A59.24,59.24,0,0,0,12.2,17.564L9.7,26.116,10.952,28.2l-.834,3.129L5.946,33l2.294-2.294,3.337-15.644-5.632-2.5-1.46,1.252L2.4,11.515,15.124,9.429l2.294,6.258L23.259,7.76,31.185,6.3,30.56,7.969v.417l-.626,4.589Z" transform="translate(2.606 6.841)"/><path class="d" d="M19.82,9.443,18.986,8.4,16.9,10.069Z" transform="translate(18.352 9.122)"/><path class="e" d="M1.252,31.911,0,29.408,6.883,9.8l1.877,1.669Z" transform="translate(0 10.642)"/><path class="f" d="M13.533,11.8,10.2,27.447,7.9,29.533h0L.6,32.454,8.109,12.012,6.441,10.343,7.9,9.3Z" transform="translate(0.652 10.099)"/><path class="b" d="M12.366,17.023a39.921,39.921,0,0,0-.834,4.38l-1.252,1.46L7.986,19.109l-.834,3.337L5.9,20.361,8.4,11.6a59.24,59.24,0,0,1,3.963,5.423Z" transform="translate(6.407 12.596)"/><path class="b" d="M16.992,20.235,15.115,21.9l-.209.209L9.9,23.155l1.043-4.38-.834.834V18.566L12.4,12.726l2.5-.626Z" transform="translate(10.75 13.139)"/><path class="e" d="M13.094,23.683,10.8,21.6l1.043-4.172L15.18,16.8Z" transform="translate(11.728 18.243)"/><path class="g" d="M55.615,16.044V17.3L52.9,21.468l-1.252,1.46-1.877-5.215H47.689a2.712,2.712,0,0,0,.626-1.043l.417-1.877-8.969-.626-.417.417L33.713,16.67H28.081l1.46-1.46,1.043-6.883H24.744l-2.086,2.086.417-6.258L19.112,3.112,17.86,4.363,16.4,1.652,26.412.4,25.161,4.572l-.626,1.877a6.466,6.466,0,0,1,2.712-.834l6.466-1.043L32.044,10h1.669l-1.669,4.589,16.687-3.337,2.086,2.712-.417.834-.834,1.46V17.5Z" transform="translate(17.809 0.434)"/><path class="b" d="M24.726,7.294,37.658,5l3.129,1.043L24.1,9.38Z" transform="translate(26.17 5.43)"/><path class="h" d="M20.052,19.1l4.8-4.8-.626,1.877a5.006,5.006,0,0,1-3.129,3.129L18.8,20.349Z" transform="translate(20.415 15.528)"/><path class="g" d="M25.734,13.452,26.986,12.2l-.417,1.669-1.669.417Z" transform="translate(27.039 13.248)"/><path class="g" d="M28.934,12.86l2.5-1.46-1.043,1.669h-.417l-1.877.417Z" transform="translate(30.514 12.379)"/><path class="g" d="M30.672,9.4h1.252l-1.043,2.5c0,.209-1.877,0-1.877,0S28.795,9.609,30.672,9.4Z" transform="translate(31.488 10.208)"/><path class="h" d="M30.609,9h1.46a4.38,4.38,0,0,1-1.669.834Z" transform="translate(33.012 9.773)"/><path class="i" d="M6.48,12l2.294,2.086L2.1,32.857l7.509-2.92,2.5-9.8,3.963,6.883,7.092-8.761-2.294,8.969,5.215-1.252L32.137,7.2,25.254,8.452,17.536,18.464l-2.712-7.926Z" transform="translate(2.28 7.819)"/><path class="i" d="M22.006,12.664V13.5h0C20.963,16.419,17,16.21,17,16.21L20.755,3.694,19.5,2.026,24.718,1.4,20.963,12.872l.834-.417a.209.209,0,0,1,.209.209Z" transform="translate(18.46 1.52)"/><path class="i" d="M29.3,3.448l-5.423.834c-1.46.209-2.294.834-2.92,2.92L20.326,9.5h0a11.264,11.264,0,0,0-.626,2.294l1.043,1.043,5.841-1.043s1.877,0,2.5-2.712.209-.417-.417-.417H27.418l1.669-5.215S29.5,3.24,29.3,3.448Zm-4.8,6.883H22.829l1.46-4.589h1.669Z" transform="translate(21.392 3.644)"/><path class="i" d="M25.855,15.058l1.46-4.38L25.855,8.8l-5.841,1.252s-1.877,0-2.712,2.712l-2.5,7.718,1.46,1.46,6.258-1.46s2.294-.417,3.129-4.172l-3.546.626-.417,1.46H19.389l.626-2.294Zm-2.712-1.669-2.5.417.626-1.877,2.294-.417Z" transform="translate(16.071 9.556)"/><path class="i" d="M28.219,8.826,30.1,10.912,26.55,21.758,15.286,24.47,13.2,31.145l14.6-6.258a4.073,4.073,0,0,0,2.086-2.5L34.685,8.2Z" transform="translate(14.334 8.904)"/><path class="i" d="M33.038,7.3l-4.38.834a4.38,4.38,0,0,0-3.546,2.5L22.4,18.564l1.252,1.46,4.8-.834A4.8,4.8,0,0,0,32,16.061l2.5-7.092Zm-4.38,8.969-2.086.417,2.086-6.466L30.744,9.8Z" transform="translate(24.324 7.927)"/><path class="i" d="M39.09,8.177l-.834,2.086-3.129.626.626-1.46c.209-.417-.417-.209-.417-.209H33.666l-1.46,4.38v.834h1.252a.2.2,0,0,1,.209.209v.834a3.755,3.755,0,0,1-3.337,2.712l-3.129.626,3.129-8.969-1.46-1.669,6.049-1.252A8.761,8.761,0,0,0,37.212,6.3h.209l1.043.834C39.3,7.969,39.09,8.177,39.09,8.177Z" transform="translate(29.537 6.841)"/><path class="i" d="M35.5,9.1v.417h-.209c-.209.834-.626.834-.834,1.043h-.209v-.209H33.62l-.834,2.92H33.2l-.417,1.043-2.086.417s0-.834.209-.834h.417a21.4,21.4,0,0,0,.834-2.92h-.626v.834H30.7l.834-1.877,3.337-.626Z" transform="translate(33.337 9.882)"/><path class="i" d="M37.172,8.7c0,.209-2.086,4.38-2.086,4.38a1.669,1.669,0,0,1-1.043,1.043H33V10.369h0V9.534h1.46l-.417,3.337s.209.209.209-.209l1.043-2.5h-.209V9.117h0L36.755,8.7Z" transform="translate(35.835 9.447)"/><path class="b" d="M3.269,10.546,1.6,8.877,14.115,7l1.877,1.46Z" transform="translate(1.737 7.601)"/><path class="b" d="M17.7,2.086,15.2,1.46,24.8,0l2.92.834Z" transform="translate(16.506)"/><path class="b" d="M29.678,2.834,23.212,3.877a6.466,6.466,0,0,0-2.712.834l.626-1.877L26.758,2Z" transform="translate(22.261 2.172)"/><path class="b" d="M25.769,5.226,24.309,4.6l-.209.626Z" transform="translate(26.17 4.995)"/><path class="b" d="M38.132,8.443,34.377,7.4l-1.46.209L32.5,9.069v.626Z" transform="translate(35.292 8.036)"/><path class="j" d="M11.7,15.3,10.66,19.68,9.2,18.22Z" transform="translate(9.99 16.614)"/><path class="k" d="M10.137,20.415,6.8,16.034l.209-.834Z" transform="translate(7.384 16.506)"/><path class="l" d="M2.317,29.49,1.9,28.656,8.575,10.3l.417.417Z" transform="translate(2.063 11.185)"/><path class="m" d="M9.717,17.921,17.435,7.909,16.809,7.7,9.3,17.087Z" transform="translate(10.099 8.361)"/><path class="n" d="M12.652,9.126,11.818,8.5,4.1,10.169l.209.417Z" transform="translate(4.452 9.23)"/><path class="o" d="M13.526,8.56,12.9,8.352,19.783,7.1l.626.209Z" transform="translate(14.008 7.71)"/><path class="l" d="M17.434,15.015,16.6,14.6,20.355,2.5h.626Z" transform="translate(18.026 2.715)"/><path class="p" d="M19.677,3.477,18.426,1.809,17.8,1.6l1.252,1.877Z" transform="translate(19.329 1.737)"/><path class="q" d="M18.426,2.134,17.8,1.926,23.015,1.3l.834.209Z" transform="translate(19.329 1.412)"/><path class="r" d="M29.621,3.4,24.2,4.234c-1.46.209-2.294.834-2.92,2.92l-.626,2.294h0a11.264,11.264,0,0,0-.626,2.294l1.043,1.043L19.4,11.326h0v-.834A32.285,32.285,0,0,1,20.652,5.9a3.337,3.337,0,0,1,2.294-1.877L27.952,3.4Z" transform="translate(21.067 3.692)"/><path class="s" d="M23.7,4.709,22.243,8.88h-.834l-.209.626,1.669-.417L24.329,4.5Z" transform="translate(23.021 4.887)"/><path class="e" d="M16.092,7.76,13.8,6.3,9,12.558l1.043,2.92Z" transform="translate(9.773 6.841)"/><path class="t" d="M11.3,7.06,19.644,5.6l2.5,1.252L13.594,8.52Z" transform="translate(12.271 6.081)"/><path class="u" d="M17.8,10.544,20.1,3.034,17.386,2.2,15.3,9.292Z" transform="translate(16.614 2.389)"/><path class="v" d="M20.206,4.663,17.7,1.326,15.2.7l2.294,3.129Z" transform="translate(16.506 0.76)"/><path class="s" d="M11.317,21.469l-.417-.626,1.877-7.092.834-1.252Z" transform="translate(11.836 13.574)"/><path class="w" d="M13.626,22.892,13,22.266,15.086,15.8l.417.417Z" transform="translate(14.117 17.157)"/><path class="q" d="M14.417,17.629,14,17.212,25.055,14.5l.834.626Z" transform="translate(15.203 15.746)"/><path class="s" d="M20.134,21.75l3.337-11.055L21.594,8.609,21.177,8.4l1.669,2.294L19.3,21.124Z" transform="translate(20.958 9.122)"/><path class="q" d="M27.083,8.317,26.249,7.9,20.2,8.943l.417.209Z" transform="translate(21.935 8.579)"/><path class="x" d="M26.181,9.017l-5.841,1.252s-1.877,0-2.712,2.712l-2.5,7.718,1.46,1.46L14.5,20.072s1.877-6.466,2.5-8.344a3.546,3.546,0,0,1,2.92-2.086L25.347,8.6Z" transform="translate(15.746 9.339)"/><path class="s" d="M19.786,10.309,19.16,11.56l-1.46.209v.626l2.294-.417.417-1.877Z" transform="translate(19.221 10.968)"/><path class="s" d="M23.366,12.517l-.834-.417-3.755.626-.209,1.252-1.252.209-.417.834,2.294-.209.417-1.46Z" transform="translate(18.352 13.139)"/><path class="y" d="M33.472,7.3l-4.38.834a4.38,4.38,0,0,0-3.546,2.5l-2.712,7.926,1.252,1.46L22,18.147l2.5-7.509a3.337,3.337,0,0,1,2.5-2.294L32.221,7.3Z" transform="translate(23.89 7.927)"/><path class="w" d="M27.737,8.809,25.86,14.649l-1.252.209-.209.417,2.086-.209L28.78,8.6Z" transform="translate(26.496 9.339)"/><path class="z" d="M36.987,6.409h-.209a8.761,8.761,0,0,1-2.294.834L28.434,8.286,27.6,7.869,36.152,6.2Z" transform="translate(29.971 6.733)"/><path class="s" d="M30.752,10.317H29.5V9.9Z" transform="translate(32.034 10.75)"/><path class="s" d="M33.012,9.8s-.834,2.712-.834,2.92H31.76c-.209.209-.209.834-.209.834L30.3,13.137s0-1.043.834-1.043l.417-1.46h.626v-.626Z" transform="translate(32.903 10.642)"/><path class="aa" d="M31.134,11.594l-.834-.626L30.926,9.3l1.043.417Z" transform="translate(32.903 10.099)"/><path class="ab" d="M35.606,9.317l-.834.209-3.129.626L30.6,9.734,34.355,8.9l.417.209Z" transform="translate(33.229 9.665)"/><path class="ab" d="M36.52,8.917l-1.669.417h0L33.6,8.917,35.477,8.5Z" transform="translate(36.486 9.23)"/><path class="ab" d="M35.1,9.117l-.626.209H34.06l-.417.209L32.6,9.117,34.06,8.7l.417.209Z" transform="translate(35.4 9.447)"/><path class="ac" d="M33.643,9.1v.834h-.209V9.1h.209Z" transform="translate(35.4 9.882)"/><path class="s" d="M33.743,9.5v3.755L32.7,12.837V10.752c.209,0,.626-.209.834-1.043h.626Z" transform="translate(35.509 10.316)"/><path class="s" d="M34.96,9.626l-1.043,2.5c-.209.417-.209.209-.209.209L34.126,9H33.5l1.252.417V10.46Z" transform="translate(36.378 9.773)"/><path class="s" d="M27.634,17.287l-.834-.626,1.043-3.129L29.72,7.9l1.043.417Z" transform="translate(29.102 8.579)"/><path class="ac" d="M28.852,8.877,27.6,7l.834.417,1.46,1.877Z" transform="translate(29.971 7.601)"/><path class="ac" d="M32.06,7.9l-.626,1.46H30.6l.626-1.46h.626S32.269,7.479,32.06,7.9Z" transform="translate(33.229 8.374)"/><path class="ad" d="M32.069,8.9a4.38,4.38,0,0,1-1.669.834V9.109Z" transform="translate(33.011 9.665)"/><path class="e" d="M37.126,11.4,29.2,13.069l.209-.209,2.712-.626Z" transform="translate(31.708 12.379)"/><path class="b" d="M16.918,7.7l-3.129,2.5L9.2,16.252l.209.834Z" transform="translate(9.99 8.361)"/></g></g></g></svg>