<svg xmlns="http://www.w3.org/2000/svg" xmlns:xlink="http://www.w3.org/1999/xlink" width="107" height="107" viewBox="0 0 107 107"><defs><style>.a{fill:#fff;stroke:#707070;stroke-width:0.5px;}.b{fill:#36607d;}.c{fill:url(#a);}.d{fill:#bfbdbd;}.e{fill:url(#b);}.f{fill:url(#c);}.g{fill:#231f20;}.h{fill:url(#f);}.i{stroke:none;}.j{fill:none;}</style><linearGradient id="a" x1="0.019" y1="0.331" x2="0.96" y2="0.66" gradientUnits="objectBoundingBox"><stop offset="0" stop-color="#fff"/><stop offset="0.012" stop-color="#f6f5f5"/><stop offset="0.064" stop-color="#d4d1d0"/><stop offset="0.122" stop-color="#b6b1b0"/><stop offset="0.186" stop-color="#9d9695"/><stop offset="0.258" stop-color="#88807f"/><stop offset="0.342" stop-color="#78706e"/><stop offset="0.447" stop-color="#6e6462"/><stop offset="0.593" stop-color="#675d5b"/><stop offset="1" stop-color="#665c5a"/></linearGradient><linearGradient id="b" y1="0.5" x2="1" y2="0.5" gradientUnits="objectBoundingBox"><stop offset="0" stop-color="#3b687b"/><stop offset="0.318" stop-color="#3c6a7d"/><stop offset="0.516" stop-color="#407086"/><stop offset="0.68" stop-color="#467c94"/><stop offset="0.827" stop-color="#508ca9"/><stop offset="0.96" stop-color="#5ca1c3"/><stop offset="1" stop-color="#61a9cd"/></linearGradient><linearGradient id="c" y1="0.5" x2="1" y2="0.5" gradientUnits="objectBoundingBox"><stop offset="0" stop-color="#6fcaf2"/><stop offset="0.094" stop-color="#6abddf"/><stop offset="0.275" stop-color="#62aac2"/><stop offset="0.454" stop-color="#5c9cad"/><stop offset="0.63" stop-color="#5993a1"/><stop offset="0.798" stop-color="#58919d"/><stop offset="1" stop-color="#57a4c5"/></linearGradient><linearGradient id="f" y1="0.5" x2="1" y2="0.5" gradientUnits="objectBoundingBox"><stop offset="0" stop-color="#fff"/><stop offset="1" stop-color="#d7d7d7"/></linearGradient></defs><g transform="translate(-808 -795)"><g class="a" transform="translate(808 795)"><rect class="i" width="107" height="107"/><rect class="j" x="0.25" y="0.25" width="106.5" height="106.5"/></g><g transform="translate(750.048 619.06)"><path class="b" d="M651.181,278.568v12.317H646.5V269.56h6.313l3.621,13.425,4.239-13.425h23.448s6.049-.222,7.55,6.711l-4.945.973a3.425,3.425,0,0,0-3.444-3.224c-3.224,0-4.019,2.781-4.019,7.154s2.208,5.913,4.151,5.913,3.356-1.365,3.621-4.061l4.857,1.017s-.882,7.549-8.742,7.549-8.966-7.549-8.966-11.3a12.229,12.229,0,0,1,1.017-5.565h-1.282v16.205h-5.563V274.639h-1.766v16.247h-4.459V277.95l-3.951,12.982H655.11Z" transform="translate(-541.235 -52.394)"/><g transform="translate(107.055 240.55)"><path class="b" d="M677.361,676.892v-3.081h.5l.6,2.182.12.456q.044-.17.135-.494l.606-2.144h.45v3.081h-.322v-2.577l-.737,2.577h-.3l-.733-2.622v2.622Z" transform="translate(-677.361 -673.756)"/><path class="b" d="M728.559,690.687v-.328a.8.8,0,0,1-.252.284.587.587,0,0,1-.328.095.594.594,0,0,1-.37-.117.557.557,0,0,1-.2-.3,1.827,1.827,0,0,1-.052-.488v-1.383h.309v1.238a1.956,1.956,0,0,0,.035.461.354.354,0,0,0,.128.187.345.345,0,0,0,.213.07.444.444,0,0,0,.366-.183.989.989,0,0,0,.122-.578v-1.2h.311v2.232Z" transform="translate(-724.453 -687.551)"/><path class="b" d="M761.175,676.892v-3.081h.309v3.081Z" transform="translate(-756.315 -673.756)"/><path class="b" d="M772.972,677.68l.042.334a.926.926,0,0,1-.231.034.473.473,0,0,1-.261-.064.325.325,0,0,1-.136-.176,1.711,1.711,0,0,1-.037-.444V676.08h-.227v-.294h.227v-.553l.309-.227v.78h.313v.294h-.313v1.305a.617.617,0,0,0,.027.233.153.153,0,0,0,.149.076A.825.825,0,0,0,772.972,677.68Z" transform="translate(-766.628 -674.882)"/><path class="b" d="M791.807,674.246v-.435h.309v.435Zm0,2.646V674.66h.309v2.232Z" transform="translate(-785.171 -673.756)"/><path class="b" d="M819.609,676.892v-2.718h-.832v-.364h2v.364h-.837v2.718Z" transform="translate(-810.577 -673.756)"/><path class="b" d="M856.188,689.87v-2.232h.28v.339a.956.956,0,0,1,.2-.312.3.3,0,0,1,.2-.077.53.53,0,0,1,.317.122l-.105.351a.39.39,0,0,0-.225-.082.274.274,0,0,0-.181.069.373.373,0,0,0-.116.193,1.747,1.747,0,0,0-.059.46v1.169Z" transform="translate(-845.819 -686.734)"/><path class="b" d="M875.9,689.594a1.157,1.157,0,0,1-.324.244.788.788,0,0,1-.349.082.612.612,0,0,1-.456-.172.632.632,0,0,1-.17-.465.717.717,0,0,1,.08-.343.6.6,0,0,1,.219-.233,1.149,1.149,0,0,1,.42-.124,2.344,2.344,0,0,0,.555-.132l0-.1a.487.487,0,0,0-.082-.321.443.443,0,0,0-.355-.135.5.5,0,0,0-.324.09.587.587,0,0,0-.158.337l-.3-.051a.848.848,0,0,1,.264-.523.872.872,0,0,1,.569-.164.813.813,0,0,1,.452.108.465.465,0,0,1,.207.268,1.91,1.91,0,0,1,.043.467v.5a6.487,6.487,0,0,0,.02.667.991.991,0,0,0,.079.268h-.324A.938.938,0,0,1,875.9,689.594Zm-.025-.845a1.964,1.964,0,0,1-.507.143.95.95,0,0,0-.273.077.3.3,0,0,0-.121.122.372.372,0,0,0-.043.182.34.34,0,0,0,.1.255.376.376,0,0,0,.273.1.55.55,0,0,0,.3-.086.538.538,0,0,0,.2-.23,1.025,1.025,0,0,0,.067-.419Z" transform="translate(-863.168 -686.734)"/><path class="b" d="M910.311,689.87v-2.232h.28v.315a.723.723,0,0,1,.247-.275.619.619,0,0,1,.335-.091.638.638,0,0,1,.272.058.559.559,0,0,1,.2.151.619.619,0,0,1,.114.243,2.039,2.039,0,0,1,.038.458v1.373h-.309V688.51a1.116,1.116,0,0,0-.042-.36.358.358,0,0,0-.131-.176.354.354,0,0,0-.207-.062.431.431,0,0,0-.355.166.934.934,0,0,0-.132.57v1.221Z" transform="translate(-896.804 -686.734)"/><path class="b" d="M942.1,689.2l.309-.059a.555.555,0,0,0,.149.352.522.522,0,0,0,.634.015.327.327,0,0,0,.11-.253.247.247,0,0,0-.095-.206,1.2,1.2,0,0,0-.315-.126,2.282,2.282,0,0,1-.484-.189.532.532,0,0,1-.189-.208.638.638,0,0,1-.067-.3.621.621,0,0,1,.183-.465.7.7,0,0,1,.507-.179.826.826,0,0,1,.358.073.568.568,0,0,1,.236.2.86.86,0,0,1,.113.355l-.3.05a.363.363,0,0,0-.4-.366.469.469,0,0,0-.3.081.254.254,0,0,0-.1.206.23.23,0,0,0,.095.195,1.661,1.661,0,0,0,.337.134,2.544,2.544,0,0,1,.5.195.493.493,0,0,1,.176.2.659.659,0,0,1,.063.3.691.691,0,0,1-.2.518.759.759,0,0,1-.554.2A.721.721,0,0,1,942.1,689.2Z" transform="translate(-926.754 -686.734)"/><path class="b" d="M974.072,689.594a1.157,1.157,0,0,1-.324.244.787.787,0,0,1-.349.082.612.612,0,0,1-.456-.172.631.631,0,0,1-.17-.465.717.717,0,0,1,.08-.343.6.6,0,0,1,.219-.233,1.148,1.148,0,0,1,.42-.124,2.344,2.344,0,0,0,.555-.132l0-.1a.487.487,0,0,0-.082-.321.443.443,0,0,0-.355-.135.5.5,0,0,0-.324.09.587.587,0,0,0-.158.337l-.3-.051a.848.848,0,0,1,.264-.523.872.872,0,0,1,.568-.164.813.813,0,0,1,.452.108.466.466,0,0,1,.207.268,1.916,1.916,0,0,1,.043.467v.5a6.442,6.442,0,0,0,.02.667.993.993,0,0,0,.079.268h-.324A.932.932,0,0,1,974.072,689.594Zm-.025-.845a1.962,1.962,0,0,1-.506.143.95.95,0,0,0-.273.077.3.3,0,0,0-.121.122.371.371,0,0,0-.043.182.339.339,0,0,0,.1.255.376.376,0,0,0,.273.1.55.55,0,0,0,.3-.086.537.537,0,0,0,.2-.23,1.027,1.027,0,0,0,.067-.419Z" transform="translate(-955.644 -686.734)"/><path class="b" d="M1008.177,689.052l.3.048a1.019,1.019,0,0,1-.264.61.694.694,0,0,1-.508.21.721.721,0,0,1-.592-.3,1.393,1.393,0,0,1-.232-.873,1.373,1.373,0,0,1,.234-.873.739.739,0,0,1,.6-.291.685.685,0,0,1,.478.177.871.871,0,0,1,.249.53l-.3.055a.653.653,0,0,0-.153-.338.354.354,0,0,0-.263-.112.455.455,0,0,0-.379.2,1.093,1.093,0,0,0-.15.644,1.168,1.168,0,0,0,.144.66.434.434,0,0,0,.369.2.4.4,0,0,0,.3-.136A.74.74,0,0,0,1008.177,689.052Z" transform="translate(-987.78 -686.734)"/><path class="b" d="M1037.026,677.68l.042.334a.926.926,0,0,1-.231.034.473.473,0,0,1-.261-.064.325.325,0,0,1-.136-.176,1.7,1.7,0,0,1-.037-.444V676.08h-.227v-.294h.227v-.553l.309-.227v.78h.313v.294h-.313v1.305a.614.614,0,0,0,.027.233.153.153,0,0,0,.149.076A.823.823,0,0,0,1037.026,677.68Z" transform="translate(-1015.372 -674.882)"/><path class="b" d="M1055.861,674.246v-.435h.309v.435Zm0,2.646V674.66h.309v2.232Z" transform="translate(-1033.915 -673.756)"/><path class="b" d="M1067.353,688.753a1.344,1.344,0,0,1,.243-.872.786.786,0,0,1,1.226,0,1.292,1.292,0,0,1,.246.849,1.391,1.391,0,0,1-.242.9.787.787,0,0,1-1.228,0A1.336,1.336,0,0,1,1067.353,688.753Zm.317,0a1.077,1.077,0,0,0,.158.645.472.472,0,0,0,.391.212.457.457,0,0,0,.375-.214,1.087,1.087,0,0,0,.156-.643,1.074,1.074,0,0,0-.157-.643.472.472,0,0,0-.391-.211.456.456,0,0,0-.376.212A1.087,1.087,0,0,0,1067.67,688.752Z" transform="translate(-1044.74 -686.734)"/><path class="b" d="M1103.242,689.87v-2.232h.28v.315a.724.724,0,0,1,.246-.275.619.619,0,0,1,.335-.091.637.637,0,0,1,.272.058.558.558,0,0,1,.2.151.618.618,0,0,1,.115.243,2.03,2.03,0,0,1,.038.458v1.373h-.309V688.51a1.114,1.114,0,0,0-.042-.36.358.358,0,0,0-.131-.176.354.354,0,0,0-.207-.062.431.431,0,0,0-.355.166.934.934,0,0,0-.132.57v1.221Z" transform="translate(-1078.548 -686.734)"/><path class="b" d="M1154.876,674.924l.336.1a1.427,1.427,0,0,1-.39.775.968.968,0,0,1-.678.255,1.032,1.032,0,0,1-.6-.172,1.212,1.212,0,0,1-.408-.55,2.3,2.3,0,0,1-.159-.894,2.091,2.091,0,0,1,.159-.861,1.217,1.217,0,0,1,.43-.532,1.074,1.074,0,0,1,.606-.18.929.929,0,0,1,.629.228,1.23,1.23,0,0,1,.368.668l-.328.095q-.168-.641-.676-.641a.745.745,0,0,0-.438.129.875.875,0,0,0-.3.4,1.867,1.867,0,0,0-.11.692,1.653,1.653,0,0,0,.223.95.691.691,0,0,0,.593.317.652.652,0,0,0,.472-.194A1.051,1.051,0,0,0,1154.876,674.924Z" transform="translate(-1125.401 -672.868)"/><path class="b" d="M1197.475,689.151l.32.048a.97.97,0,0,1-.289.539.761.761,0,0,1-.518.182.773.773,0,0,1-.63-.3,1.318,1.318,0,0,1-.241-.852,1.385,1.385,0,0,1,.243-.882.754.754,0,0,1,.615-.3.729.729,0,0,1,.593.3,1.362,1.362,0,0,1,.238.864l0,.1h-1.366a.964.964,0,0,0,.174.568.472.472,0,0,0,.378.191Q1197.338,689.609,1197.475,689.151Zm-1.019-.612h1.021a.851.851,0,0,0-.124-.433.451.451,0,0,0-.736-.035A.761.761,0,0,0,1196.455,688.539Z" transform="translate(-1166.038 -686.734)"/><path class="b" d="M1231.825,689.87v-2.232h.28v.315a.722.722,0,0,1,.246-.275.619.619,0,0,1,.335-.091.637.637,0,0,1,.271.058.558.558,0,0,1,.2.151.616.616,0,0,1,.115.243,2.039,2.039,0,0,1,.038.458v1.373H1233V688.51a1.114,1.114,0,0,0-.042-.36.359.359,0,0,0-.131-.176.354.354,0,0,0-.207-.062.431.431,0,0,0-.355.166.934.934,0,0,0-.132.57v1.221Z" transform="translate(-1199.676 -686.734)"/><path class="b" d="M1263.78,677.68l.042.334a.925.925,0,0,1-.231.034.473.473,0,0,1-.261-.064.325.325,0,0,1-.135-.176,1.7,1.7,0,0,1-.037-.444V676.08h-.227v-.294h.227v-.553l.309-.227v.78h.313v.294h-.313v1.305a.615.615,0,0,0,.027.233.153.153,0,0,0,.149.076A.822.822,0,0,0,1263.78,677.68Z" transform="translate(-1228.978 -674.882)"/><path class="b" d="M1282.122,689.151l.32.048a.97.97,0,0,1-.289.539.761.761,0,0,1-.518.182.773.773,0,0,1-.63-.3,1.319,1.319,0,0,1-.241-.852,1.386,1.386,0,0,1,.243-.882.755.755,0,0,1,.615-.3.729.729,0,0,1,.593.3,1.363,1.363,0,0,1,.237.864l0,.1h-1.366a.963.963,0,0,0,.175.568.472.472,0,0,0,.378.191Q1281.985,689.609,1282.122,689.151Zm-1.019-.612h1.021a.848.848,0,0,0-.124-.433.451.451,0,0,0-.736-.035A.761.761,0,0,0,1281.1,688.539Z" transform="translate(-1245.777 -686.734)"/><path class="b" d="M1316.472,689.87v-2.232h.28v.339a.957.957,0,0,1,.2-.312.3.3,0,0,1,.2-.077.53.53,0,0,1,.317.122l-.105.351a.39.39,0,0,0-.225-.082.274.274,0,0,0-.181.069.373.373,0,0,0-.116.193,1.747,1.747,0,0,0-.059.46v1.169Z" transform="translate(-1279.415 -686.734)"/></g><path class="c" d="M135.329,259.262a13.288,13.288,0,1,0-26.565,0c.173,7.37,5.675,13.818,13.556,13.818C129.859,273.079,135.329,266.8,135.329,259.262Z" transform="translate(-34.673 -29.834)"/><path class="b" d="M78.268,231.818,90.26,219.57a15.417,15.417,0,0,0-11.992,12.248Z" transform="translate(-5.95 -5.304)"/><path class="b" d="M123.911,245.753l-1.116-.859s-9.759,10.06-11.521,11.737-9.159,9.285-9.159,9.285l.718,1.257Z" transform="translate(-28.413 -29.159)"/><path class="b" d="M150.772,271.568a25.206,25.206,0,0,1,3.182,3.555l-21.065,21.664a14.8,14.8,0,0,1-3.615-3.3Z" transform="translate(-53.998 -54.287)"/><path class="d" d="M242.972,367.31l-20.4,20.753s.252.113.588.271a15.114,15.114,0,0,0,5.121,1.208c.251.014.791.023.791.023l15.319-15.881S244.821,371.773,242.972,367.31Z" transform="translate(-141.888 -144.477)"/><path class="d" d="M352.219,512.907s.074-.009.148-.012a12.64,12.64,0,0,0,1.528-.19l12.431-12.641.139-1.792s-6.908,7.166-7.919,8.134S352.219,512.907,352.219,512.907Z" transform="translate(-264.016 -267.846)"/><path class="e" d="M407.79,541.565l-11.356,11.78a15.832,15.832,0,0,0,7.793-4.724A14.98,14.98,0,0,0,407.79,541.565Z" transform="translate(-305.667 -308.629)"/><g transform="translate(74.021 214.266)"><path class="f" d="M108.53,229.155l9.384-9.585a15.406,15.406,0,0,0-7.953,4.407,15.666,15.666,0,0,0-2.337,3.177s.188.53.419,1.037S108.53,229.155,108.53,229.155Z" transform="translate(-107.624 -219.57)"/><path class="f" d="M225.251,258.667c.889-.894,1.6-1.6,2.019-2,1.763-1.677,11.521-11.734,11.521-11.734l1.234.737-13.381,13.587s-.4-.141-.752-.292C225.456,258.771,225.251,258.667,225.251,258.667Z" transform="translate(-218.431 -243.461)"/><path class="f" d="M283.121,284.582a15.623,15.623,0,0,1-3.738.588,15.911,15.911,0,0,1-3.328-.326l12.987-13.23a25.112,25.112,0,0,1,3.182,3.552Z" transform="translate(-266.289 -268.595)"/></g><path class="g" d="M125.12,316.741c-.086-.049-.371.095-.475.1l-11.687,11.885s.091.4.124.54L125.12,317.07S125.2,316.788,125.12,316.741Z" transform="translate(-38.628 -96.831)"/><path class="g" d="M156.093,337.809v-.3l-.394.044-15.063,15.323.234.245s2-2.008,2.291-2.32S156.093,337.809,156.093,337.809Z" transform="translate(-64.701 -116.407)"/><path class="g" d="M133.363,263.064s-.8.354-1.142.549l-5.97,6.056s-.264.817-.292.938Z" transform="translate(-50.875 -46.276)"/><path class="h" d="M86.747,213.94,71.969,228.914a16.4,16.4,0,0,0,.558,4.828s9.889-9.977,11.079-11.169,7.625-8.135,7.625-8.135A17.8,17.8,0,0,0,86.747,213.94Z" transform="translate(0 0)"/></g></g></svg>