<svg xmlns="http://www.w3.org/2000/svg" width="107" height="107" viewBox="0 0 107 107"><defs><style>.a{fill:#fff;stroke:#707070;stroke-width:0.5px;}.b{fill:#007f61;}.c{fill:#fefefe;}.d{fill:#ec1b2e;}.e{fill:#f48220;}.f{fill:#008061;}.g{fill:#038163;}.h{fill:#fcfdfc;}.i{fill:#028162;}.j{fill:#ecf5f3;}.k{stroke:none;}.l{fill:none;}</style></defs><g transform="translate(-935 -795)"><g class="a" transform="translate(935 795)"><rect class="k" width="107" height="107"/><rect class="l" x="0.25" y="0.25" width="106.5" height="106.5"/></g><g transform="translate(847.379 597.085)"><path class="b" d="M140.808,228.923q11.409,0,22.818-.008c.346,0,.432.081.432.43q-.014,22.134,0,44.268c0,.345-.08.432-.429.432q-22.8-.015-45.6,0c-.332,0-.407-.088-.407-.411q.013-22.152,0-44.3c0-.319.067-.414.4-.414Q129.417,228.931,140.808,228.923Z" transform="translate(0)"/><path class="c" d="M149.955,237.73c5.606,0,11.212.024,16.818-.016a2.014,2.014,0,0,1,2.024,2.292c-.287,2.3-.467,4.618-.693,6.928q-.375,3.84-.754,7.68-.309,3.161-.614,6.323-.342,3.5-.689,7-.3,3.108-.6,6.216c-.049.5-.088,1-.144,1.5a1.635,1.635,0,0,1-1.754,1.565c-2.492,0-4.983.006-7.474-.007-.31,0-.426.066-.4.392.031.369-.005.743.012,1.113.011.23-.056.311-.3.3-.587-.017-1.174-.005-1.761-.005-2.9,0-5.8-.005-8.7.007-.311,0-.428-.065-.4-.393.032-.357-.011-.719.013-1.077.018-.27-.065-.343-.337-.341-1.425.014-2.851.007-4.276.007h-3.378a1.726,1.726,0,0,1-1.935-1.775q-.492-5.127-1-10.253-.445-4.555-.892-9.11-.446-4.518-.9-9.036c-.243-2.44-.489-4.881-.722-7.322a1.869,1.869,0,0,1,1.887-1.995Z" transform="translate(-9.434 -6.159)"/><path class="d" d="M200.647,253.679v3.348q0,2.91,0,5.82c0,.17.007.3-.211.387a11.8,11.8,0,0,0-5.331,4.428,6.788,6.788,0,0,0-1.254,2.827c-.029.183-.112.2-.259.2q-4.382-.021-8.764-.032c-.388,0-.2-.254-.172-.391a16.812,16.812,0,0,1,1.791-4.782,24.1,24.1,0,0,1,6.721-7.47,37.677,37.677,0,0,1,7.226-4.235C200.459,253.745,200.526,253.725,200.647,253.679Z" transform="translate(-46.876 -17.335)"/><path class="e" d="M174.412,255.1a34.38,34.38,0,0,0-4.721,2.926,28.319,28.319,0,0,0-4.965,4.333,6.581,6.581,0,0,0-.807,1.1.445.445,0,0,1-.459.244q-5.674-.01-11.349,0c-.266,0-.339-.063-.339-.335q0-3.949-.032-7.9c0-.295.068-.376.37-.375q5.89.016,11.78.007Z" transform="translate(-23.884 -18.323)"/><path class="d" d="M183.19,347.857c-1.533,0-3.066-.008-4.6.007-.291,0-.35-.087-.35-.361,0-3.4.138-6.795.442-10.183.025-.275.116-.351.391-.35q4.527.015,9.055,0c.267,0,.348.053.32.336-.251,2.54-.3,5.088-.3,7.638,0,.85-.029,1.7-.012,2.55.006.313-.1.371-.388.369C186.232,347.85,184.711,347.857,183.19,347.857Z" transform="translate(-42.434 -75.639)"/><path class="f" d="M224.975,313.237a2.978,2.978,0,0,1,1.773-.539,1.23,1.23,0,0,1,1.3,1.338c0,1.652,0,3.3.005,4.957,0,.242-.05.34-.313.327-.454-.021-.91-.02-1.365,0-.25.01-.325-.062-.322-.318.012-1.377.006-2.754.005-4.131,0-.375-.123-.515-.461-.537a.517.517,0,0,0-.609.508c-.022.394-.007.79-.007,1.185,0,.97-.017,1.94.009,2.909.009.335-.1.4-.4.384-.442-.025-.886-.014-1.329,0-.188.005-.246-.057-.246-.244q.008-2.981,0-5.962c0-.186.054-.251.244-.246q.682.018,1.365,0C224.858,312.858,225.055,312.863,224.975,313.237Z" transform="translate(-73.775 -58.646)"/><path class="f" d="M193.736,317.311c.106-.568.214-1.135.318-1.7.127-.694.253-1.388.37-2.083.033-.193.1-.293.319-.278.334.021.671.014,1.006,0,.206-.007.261.035.217.261-.384,1.971-.754,3.945-1.124,5.918-.035.186-.1.282-.322.276-.694-.018-1.389-.016-2.083,0-.237.005-.294-.085-.328-.3q-.442-2.889-.913-5.775c-.049-.3.019-.4.333-.379a10.2,10.2,0,0,0,1.149,0c.213-.008.28.066.316.276.211,1.261.441,2.519.665,3.778Z" transform="translate(-51.492 -59.029)"/><path class="f" d="M208.957,316.392c0-.97.006-1.939,0-2.909,0-.224.046-.311.293-.308,1.017.014,2.035.012,3.052,0,.225,0,.33.044.305.293-.037.377.158.883-.079,1.1-.207.187-.707.087-1.072.053s-.456.093-.442.448c.029.744.009.745.751.745.841,0,.827,0,.847.832.007.306-.059.452-.388.4a1.571,1.571,0,0,0-.358,0c-.27.018-.657-.126-.784.06-.175.257-.041.646-.057.979-.008.175.122.141.223.142.371,0,.743.009,1.113,0,.182-.005.257.043.248.239-.015.311-.011.623,0,.933.005.164-.04.238-.219.238-1.065-.005-2.13-.008-3.2,0-.238,0-.233-.128-.232-.3C208.959,318.355,208.957,317.373,208.957,316.392Z" transform="translate(-63.932 -58.983)"/><path class="f" d="M150.5,313.258c.515,0,1.03.007,1.545,0,.181,0,.258.04.25.237-.015.335-.011.671,0,1.006.005.161-.057.2-.208.2-.383-.008-.766,0-1.149-.005-.167,0-.221.044-.232.22-.056.982-.061.981.9.981.682,0,.682,0,.682.691a1.155,1.155,0,0,0,0,.179c.044.276-.054.382-.346.357-.321-.027-.647.01-.969-.011-.234-.016-.272.074-.273.285,0,.893-.011.893.88.893.706,0,.706,0,.706.707s0,.707-.706.707c-.874,0-1.749-.008-2.623.005-.232,0-.309-.057-.308-.3q.013-2.928,0-5.855c0-.229.057-.314.3-.3C149.465,313.272,149.98,313.258,150.5,313.258Z" transform="translate(-21.72 -59.036)"/><path class="f" d="M177.289,316.464c0-.97.008-1.94-.006-2.91,0-.24.069-.3.3-.3q1.527.018,3.054,0c.219,0,.3.06.286.282-.021.369.117.847-.066,1.079s-.692.067-1.057.078c-.461.014-.461,0-.461.463,0,.739,0,.739.721.739.87,0,.861,0,.866.881,0,.255-.047.371-.332.347-.321-.027-.647.005-.97-.01-.21-.01-.288.042-.291.273-.012.9-.021.9.878.9.709,0,.709,0,.709.712s0,.7-.719.7c-.874,0-1.749-.009-2.623.006-.242,0-.3-.073-.295-.3C177.3,318.428,177.289,317.446,177.289,316.464Z" transform="translate(-41.764 -59.039)"/><path class="f" d="M164.972,315.781c0,.729.014,1.459-.007,2.188-.008.281.087.346.345.329.321-.021.646,0,.968-.008.189-.007.29.031.279.251-.015.31-.012.622,0,.932.007.195-.076.239-.256.238q-1.578-.01-3.157,0c-.171,0-.226-.051-.226-.224q.007-3,0-5.991c0-.155.021-.242.211-.238.538.011,1.076.014,1.614,0,.249-.007.229.139.229.3Q164.971,314.669,164.972,315.781Z" transform="translate(-31.708 -59.04)"/><path class="g" d="M216.095,338.15a1.145,1.145,0,1,1-.02,2.289,1.145,1.145,0,1,1,.02-2.289Z" transform="translate(-68.107 -76.465)"/><path class="h" d="M217.585,339.779a.928.928,0,0,1-.911.949.909.909,0,0,1-.906-.947.9.9,0,0,1,.887-.925A.909.909,0,0,1,217.585,339.779Z" transform="translate(-68.703 -76.959)"/><path class="i" d="M217.945,340.509l.322.522c-.116.048-.2.06-.273-.052-.056-.091-.109-.185-.169-.273s-.1-.247-.252-.2-.051.182-.079.275.085.28-.108.279-.094-.181-.1-.28c-.015-.19.017-.384-.009-.571-.051-.366.074-.517.453-.459.2.03.421-.025.5.236A.4.4,0,0,1,217.945,340.509Z" transform="translate(-69.75 -77.574)"/><path class="j" d="M218.222,340.74c-.156.025-.208-.04-.21-.194s.05-.24.221-.219c.141.017.308.013.3.21S218.354,340.715,218.222,340.74Z" transform="translate(-70.274 -77.986)"/></g></g></svg>