<svg xmlns="http://www.w3.org/2000/svg" viewBox="0 0 193.4 45"><defs><style>.cls-1{fill:#0033a0}</style></defs><title>logo-xs</title><g id="Capa_2" data-name="Capa 2"><path class="cls-1" d="M45.15 44.32L41.38 1.17H26.32L0 44.32h14.36l5.49-9.87h12.28v9.87zM31.59 23.46h-6.25l5.5-9.56h.75zm21.84-11.53h12.73L59 44.32H46.28l7.15-32.39zm.6-2.92h12.56L68.48 0H55.83l-1.8 9.01zM73.3 44.32h-12l7.23-32.38h11l-.36 2.4s1.7-2.93 8.12-2.93l-2.14 12.65h-2S77.74 23.68 76 32zm83.34.06h-11.97l9.64-43.29h12.49l-10.16 43.29zm25.75-32.59h-13.17l-7.62 13.54 1.66 19.05h13.4l-4.28-18.67 10.01-13.92zm-60.85 10.37l3.24-9.24a74.42 74.42 0 0 1 13.86-1.66s10.24-.53 8.36 7L141 44h-11.25l2.93-11s.68-2.11-.91-1.8c0 0-3.91.68-4.36 3.69 0 0-.08 2 2.7 1L126.36 45h-5.86s-4.89-1.61-4.89-8.68c0 0 0-10.95 12.26-12.12 7.91-.75 6.93-3.09 6.93-3.09s-.76-4-13.26 1M96.11 44.32H83.84l9.64-42.48h17.61s9.28-.22 9.26 9.56c0 0 .53 18.37-17.68 18.45l-.56-10.09s5.9 1.06 5.9-4.89a2.85 2.85 0 0 0-3-2.94s-2.63 0-3.23 3.69zm97.29-33.93a4.87 4.87 0 1 1-4.82-4.74 4.78 4.78 0 0 1 4.82 4.74m-8.52 0a3.69 3.69 0 0 0 3.7 3.8 3.63 3.63 0 0 0 3.61-3.76 3.66 3.66 0 1 0-7.31 0m2.92 2.47h-1.1V8.11a13.51 13.51 0 0 1 1.82-.11 2.49 2.49 0 0 1 1.62.38 1.17 1.17 0 0 1 .48 1 1.23 1.23 0 0 1-1 1.13c.47.16.69.53.83 1.17a4.07 4.07 0 0 0 .35 1.15h-1.16a3.64 3.64 0 0 1-.37-1.15c-.09-.49-.37-.72-1-.72h-.52zm0-2.66h.52c.6 0 1.09-.2 1.09-.7s-.31-.72-1-.72a2.78 2.78 0 0 0-.61.05z" id="Capa_1-2" data-name="Capa 1"/></g></svg>