<svg xmlns="http://www.w3.org/2000/svg" width="81" height="59" viewBox="0 0 81 59"><defs><style>.a{fill:none;}.b{fill:#9bab37;}</style></defs><g transform="translate(-0.386 0.262)"><g transform="translate(0)"><rect class="a" width="81" height="59" rx="7" transform="translate(0.386 -0.262)"/></g><g transform="translate(11.203 24.069)"><g transform="translate(0 1.283)"><path class="b" d="M-815.961,2110.72l4.542,9.846h-1.657l-1.47-3.2h-4.132l-1.526,3.2h-.8l4.635-9.846Zm-2.438,6.031h3.555l-1.75-3.815Z" transform="translate(821.005 -2110.72)"/><path class="b" d="M-804.147,2111.1h1.657l3.741,7.389h.074l3.667-7.389h1.638v9.641h-1.619v-7.892h-.056l-3.946,7.892h-.335l-3.983-7.836h-.112v7.836h-.726Z" transform="translate(814.179 -2110.873)"/><path class="b" d="M-783.923,2111.1h3.89a5.567,5.567,0,0,1,1.415.167,3.506,3.506,0,0,1,1.1.484,2.433,2.433,0,0,1,.707.745,1.927,1.927,0,0,1,.261.968,2.709,2.709,0,0,1-.093.708,1.833,1.833,0,0,1-.279.577,2.014,2.014,0,0,1-.54.5,5.89,5.89,0,0,1-.856.484v.037a3.615,3.615,0,0,1,.931.279,2.205,2.205,0,0,1,.707.5,1.768,1.768,0,0,1,.447.708,2.219,2.219,0,0,1,.168.875,2.134,2.134,0,0,1-.242,1.024,2.364,2.364,0,0,1-.67.819,3.594,3.594,0,0,1-1.061.559,4.586,4.586,0,0,1-1.4.2h-4.5V2111.1Zm1.619,4.337h2.066a2.443,2.443,0,0,0,.856-.13,1.908,1.908,0,0,0,.633-.373,1.744,1.744,0,0,0,.391-.577,1.86,1.86,0,0,0,.13-.725,1.711,1.711,0,0,0-.167-.764,1.7,1.7,0,0,0-.5-.6,2.6,2.6,0,0,0-.856-.372,4.933,4.933,0,0,0-1.247-.13h-1.34v3.667Zm0,4.6h1.75a4.835,4.835,0,0,0,1.228-.13,2.575,2.575,0,0,0,.856-.391,1.537,1.537,0,0,0,.5-.6,1.675,1.675,0,0,0,.168-.744,2.572,2.572,0,0,0-.149-.856,1.873,1.873,0,0,0-.465-.689,2.48,2.48,0,0,0-.856-.446,4.467,4.467,0,0,0-1.322-.168h-1.693l-.019,4.021Z" transform="translate(805.997 -2110.873)"/><path class="b" d="M-768.771,2111.1h1.619v9.641h-1.619Z" transform="translate(799.855 -2110.873)"/><path class="b" d="M-757.316,2111.084v.614H-762.4v3.462h3.406v.614H-762.4v4.318h5.081v.614h-6.7v-9.641l6.7.019Z" transform="translate(797.93 -2110.86)"/><path class="b" d="M-751.1,2111.1h.912l6.31,7.036h.074V2111.1h.707v9.865h-.372l-6.85-7.836h-.055v7.613h-.726V2111.1Z" transform="translate(792.699 -2110.873)"/><path class="b" d="M-727.924,2111.1v.614h-3.481v9.008h-1.619v-9.008h-3.5v-.614Z" transform="translate(786.797 -2110.873)"/></g><path class="b" d="M-723.25,2110.686c-.161,0-.419.005-.452,0l.011-.614c.378,0,.735,0,.781-.09.016-.03.232.16-.521-.762-.122-.15-.555-.246-1.369.4l-.336-.426a2.169,2.169,0,0,1,1.574-.613.842.842,0,0,1,.564.316c.678.829.8.948.558,1.36A.877.877,0,0,1-723.25,2110.686Z" transform="translate(782.186 -2108.565)"/></g></g></svg>