<svg xmlns="http://www.w3.org/2000/svg" width="82" height="59" viewBox="0 0 82 59"><defs><style>.a{fill:none;}.b{fill:#0f0e0b;}</style></defs><g transform="translate(0.267 0.262)"><g transform="translate(0)"><rect class="a" width="82" height="59" rx="7" transform="translate(-0.267 -0.262)"/></g><g transform="translate(13.098 23.3)"><rect class="b" width="38.167" height="0.365" transform="translate(16.641 1.549)"/><path class="b" d="M-671.856,2113.054l-.346.054-.638-2.3a8.061,8.061,0,0,0-1.95-.273,4.088,4.088,0,0,0-3.354,1.495,5.844,5.844,0,0,0-1.221,3.864,5.789,5.789,0,0,0,1.386,4.064,4.933,4.933,0,0,0,3.864,1.513,9.066,9.066,0,0,0,2.916-.528l.091.4a6.734,6.734,0,0,1-3.882,1.184,6.127,6.127,0,0,1-4.538-1.713,6.1,6.1,0,0,1-1.732-4.52,6.046,6.046,0,0,1,1.914-4.72,7.17,7.17,0,0,1,4.976-1.75,13.286,13.286,0,0,1,3.008.364l.054.073Z" transform="translate(681.261 -2109.08)"/><path class="b" d="M-663.664,2109.528l-.037-.291c1.021-.2,1.969-.4,2.844-.62l.073.073q-.055,1.422-.055,3.937v5.668c0,1.039,0,1.877.018,2.5a.315.315,0,0,0,.236.31l.948.292.018.364c-.784-.018-1.458-.018-2.042-.018-.565,0-1.239.018-2.023.018l-.036-.364.984-.292a.329.329,0,0,0,.237-.273c.018-.656.018-1.385.018-2.187v-3.573c0-2.151-.018-3.882-.036-5.2Z" transform="translate(674.546 -2108.617)"/><path class="b" d="M-655.478,2117.22a7.722,7.722,0,0,1,3.008-.748,3.076,3.076,0,0,1,2.114.693,2.583,2.583,0,0,1,.765,2.005l-.036,3.627c0,.292,0,.529.019.711a.73.73,0,0,0,.164.419.773.773,0,0,0,.383.2,5.117,5.117,0,0,0,.674.073l.036.346a8.98,8.98,0,0,1-.911.291,4.013,4.013,0,0,1-.73.146,1.163,1.163,0,0,1-1.167-.875,4.044,4.044,0,0,1-2.314.875,3.023,3.023,0,0,1-1.969-.6,2.058,2.058,0,0,1-.747-1.677,2.078,2.078,0,0,1,1.2-1.968,8.414,8.414,0,0,1,3.754-.638l.018-.675a1.885,1.885,0,0,0-.492-1.439,2.216,2.216,0,0,0-1.549-.474,8.39,8.39,0,0,0-1.987.292Zm4.229,3.591a5.883,5.883,0,0,0-2.5.365,1.355,1.355,0,0,0-.675,1.258,1.386,1.386,0,0,0,.438,1.167,1.855,1.855,0,0,0,1.2.346,3.619,3.619,0,0,0,1.513-.31Z" transform="translate(671.663 -2111.624)"/><path class="b" d="M-638.266,2117.354a4.189,4.189,0,0,0-1.094-.146,2.49,2.49,0,0,0-1.312.31.984.984,0,0,0-.492.875,1.1,1.1,0,0,0,.328.838,3.554,3.554,0,0,0,1.221.6l.711.237a5.094,5.094,0,0,1,1.768.93,1.788,1.788,0,0,1,.565,1.385,2.2,2.2,0,0,1-.948,1.9,3.925,3.925,0,0,1-2.37.693,7.444,7.444,0,0,1-2.716-.547,20.76,20.76,0,0,0,.474-2.206l.346-.054.62,1.876a3.516,3.516,0,0,0,1.258.183,2.267,2.267,0,0,0,1.294-.328,1.054,1.054,0,0,0,.492-.93,1.183,1.183,0,0,0-.328-.875,2.735,2.735,0,0,0-1.039-.565l-.911-.31a3.422,3.422,0,0,1-1.622-.948,2.13,2.13,0,0,1-.455-1.367,2.13,2.13,0,0,1,.875-1.8,3.671,3.671,0,0,1,2.278-.656,7.233,7.233,0,0,1,2.406.383c-.164.656-.31,1.367-.438,2.1l-.328.055Z" transform="translate(666.463 -2111.613)"/><path class="b" d="M-627.133,2117.354a4.181,4.181,0,0,0-1.094-.146,2.491,2.491,0,0,0-1.312.31.984.984,0,0,0-.492.875,1.1,1.1,0,0,0,.328.838,3.557,3.557,0,0,0,1.221.6l.711.237A5.1,5.1,0,0,1-626,2121a1.788,1.788,0,0,1,.565,1.385,2.2,2.2,0,0,1-.948,1.9,3.923,3.923,0,0,1-2.369.693,7.442,7.442,0,0,1-2.716-.547,20.959,20.959,0,0,0,.474-2.206l.346-.054.62,1.876a3.512,3.512,0,0,0,1.257.183,2.266,2.266,0,0,0,1.294-.328,1.053,1.053,0,0,0,.493-.93,1.184,1.184,0,0,0-.328-.875,2.725,2.725,0,0,0-1.039-.565l-.912-.31a3.417,3.417,0,0,1-1.622-.948,2.127,2.127,0,0,1-.456-1.367,2.131,2.131,0,0,1,.875-1.8,3.674,3.674,0,0,1,2.279-.656,7.238,7.238,0,0,1,2.406.383c-.164.656-.31,1.367-.438,2.1l-.328.055Z" transform="translate(662.2 -2111.613)"/><path class="b" d="M-620.584,2114.594c1.021-.182,1.95-.4,2.825-.6l.073.054c-.036.747-.055,1.586-.055,2.5v3.336c0,.693,0,1.185.018,1.44a.342.342,0,0,0,.219.31l1,.291.018.365c-.8-.018-1.495-.018-2.06-.018s-1.24.018-2.023.018l-.036-.365,1-.291a.314.314,0,0,0,.219-.273c.019-.219.019-.6.019-1.148v-2.917c0-.765-.019-1.458-.036-2.1l-1.149-.31Zm2.935-3.682a.964.964,0,0,1-.292.748.989.989,0,0,1-.747.291.958.958,0,0,1-.71-.274.958.958,0,0,1-.274-.711.96.96,0,0,1,.291-.747,1.063,1.063,0,0,1,.765-.274.982.982,0,0,1,.693.255A.908.908,0,0,1-617.649,2110.912Z" transform="translate(658.04 -2109.125)"/><path class="b" d="M-606.254,2124.15a5.328,5.328,0,0,1-1.331.62,5.356,5.356,0,0,1-1.586.255,4.122,4.122,0,0,1-3.007-1.093,3.926,3.926,0,0,1-1.13-2.934,4.256,4.256,0,0,1,1.276-3.227,4.5,4.5,0,0,1,3.245-1.24,6.175,6.175,0,0,1,2.479.529c-.2.784-.365,1.567-.51,2.387l-.346.055-.711-2.1a2.8,2.8,0,0,0-.911-.146,2.481,2.481,0,0,0-2.023.91,3.661,3.661,0,0,0-.73,2.388,3.585,3.585,0,0,0,.82,2.588,3.519,3.519,0,0,0,2.625.839,10.279,10.279,0,0,0,1.768-.165Z" transform="translate(655.248 -2111.646)"/><path class="b" d="M-596.271,2117.354a4.187,4.187,0,0,0-1.094-.146,2.491,2.491,0,0,0-1.312.31.983.983,0,0,0-.492.875,1.1,1.1,0,0,0,.328.838,3.559,3.559,0,0,0,1.222.6l.711.237a5.1,5.1,0,0,1,1.768.93,1.788,1.788,0,0,1,.565,1.385,2.2,2.2,0,0,1-.948,1.9,3.924,3.924,0,0,1-2.369.693,7.441,7.441,0,0,1-2.716-.547,20.89,20.89,0,0,0,.473-2.206l.346-.054.62,1.876a3.509,3.509,0,0,0,1.257.183,2.267,2.267,0,0,0,1.294-.328,1.053,1.053,0,0,0,.492-.93,1.183,1.183,0,0,0-.328-.875,2.735,2.735,0,0,0-1.039-.565l-.912-.31a3.417,3.417,0,0,1-1.622-.948,2.127,2.127,0,0,1-.456-1.367,2.131,2.131,0,0,1,.875-1.8,3.673,3.673,0,0,1,2.278-.656,7.239,7.239,0,0,1,2.406.383c-.164.656-.31,1.367-.437,2.1l-.328.055Z" transform="translate(650.386 -2111.613)"/></g></g></svg>