<svg xmlns="http://www.w3.org/2000/svg" width="81" height="60" viewBox="0 0 81 60"><defs><style>.a{fill:none;}.b{fill:#d8006b;}</style></defs><g transform="translate(-0.487 0.262)"><g transform="translate(0)"><rect class="a" width="81" height="60" rx="7" transform="translate(0.487 -0.262)"/></g><g transform="translate(9.309 24.837)"><path class="b" d="M-950.121,2011.161a.714.714,0,0,1-.236.55.87.87,0,0,1-.589.216h-3.942c-.079,0-.1.019-.1.058,0,.02.019.04.039.059l.117.1a.7.7,0,0,1,.2.549.64.64,0,0,1-.373.608c-.078.039-.137.079-.137.1.02.039.02.039.039.039l.157.118a.693.693,0,0,1,.314.589.625.625,0,0,1-.275.569c-.157.1-.236.156-.236.177s.02.039.039.059l.177.1a.687.687,0,0,1,.295.608.644.644,0,0,1-.373.647c-.1.039-.137.078-.137.1,0,.04.039.079.118.118a.684.684,0,0,1,.392.667.658.658,0,0,1-.392.647c-.059.019-.1.058-.1.1,0,.019.019.059.078.078a.721.721,0,0,1,.431.686.667.667,0,0,1-.333.589c-.039.039-.039.059-.039.078,0,.058.117.078.372.078h3.727a.87.87,0,0,1,.589.216.673.673,0,0,1,.235.53c0,.51-.294.764-.9.764h-4.864a.652.652,0,0,1-.49-.235.713.713,0,0,1-.216-.53.676.676,0,0,1,.295-.589c.118-.078.176-.117.176-.157,0-.02-.039-.039-.1-.078a.643.643,0,0,1-.373-.647.652.652,0,0,1,.314-.628l.138-.078.039-.039a.509.509,0,0,0-.216-.177.633.633,0,0,1-.294-.589.727.727,0,0,1,.372-.667c.059-.019.1-.058.1-.1l-.039-.04-.216-.176a.609.609,0,0,1-.216-.53.647.647,0,0,1,.274-.569l.2-.118.039-.039c0-.039-.02-.058-.039-.058l-.177-.157a.6.6,0,0,1-.275-.569.727.727,0,0,1,.412-.667c.058-.039.078-.059.078-.078s-.02-.039-.059-.078a.8.8,0,0,1-.432-.686.613.613,0,0,1,.255-.569c.157-.1.236-.157.236-.177a.105.105,0,0,0-.039-.079l-.157-.1a.6.6,0,0,1-.314-.608.714.714,0,0,1,.235-.55.869.869,0,0,1,.589-.216h4.786a.867.867,0,0,1,.589.216A.821.821,0,0,1-950.121,2011.161Zm1.51,4.551a.8.8,0,0,1-.412.686c-.059.04-.079.059-.079.079s.02.039.039.058l.137.1a.7.7,0,0,1,.314.608.684.684,0,0,1-.392.667c-.059.019-.1.059-.1.078,0,.039.059.1.2.176a.621.621,0,0,1,.294.569c0,.51-.314.765-.922.765-.647,0-.961-.255-.961-.765a.668.668,0,0,1,.392-.667.1.1,0,0,0,.078-.1c0-.04-.039-.059-.1-.1a.6.6,0,0,1-.373-.589.773.773,0,0,1,.392-.726.549.549,0,0,0,.1-.078c0-.02-.039-.059-.117-.1a.677.677,0,0,1-.373-.647.687.687,0,0,1,.294-.608l.04-.02c.118-.059.157-.117.157-.138,0-.039-.02-.039-.039-.039l-.2-.138a.648.648,0,0,1-.255-.588.614.614,0,0,1,.373-.628c.078-.039.117-.078.117-.118,0-.02-.078-.078-.216-.157a.659.659,0,0,1-.275-.588c0-.51.294-.765.863-.765a1.4,1.4,0,0,1,.628.1.717.717,0,0,1,.373.647.735.735,0,0,1-.412.686c-.059.039-.078.059-.078.078s.019.039.058.079a.822.822,0,0,1,.432.686.647.647,0,0,1-.275.569l-.157.118-.039.039c-.019.019-.039.019-.039.039a.766.766,0,0,0,.177.157A.541.541,0,0,1-948.611,2015.712Z" transform="translate(956.554 -2010.358)"/><path class="b" d="M-935.916,2015.7a.685.685,0,0,1-.235.549.869.869,0,0,1-.589.216h-3a.649.649,0,0,0-.294.038c-.02,0-.02.02-.02.039s.039.059.117.118a.746.746,0,0,1,.256.588.655.655,0,0,1-.334.608c-.1.059-.156.1-.156.137,0,.02.058.059.156.118a.687.687,0,0,1,.334.628q0,.764-.883.765c-.667,0-1-.255-1-.745a.74.74,0,0,1,.431-.687l.058-.058c0-.039-.058-.1-.2-.157a.6.6,0,0,1-.314-.608.623.623,0,0,1,.392-.647c.078-.039.118-.059.118-.1a.042.042,0,0,0-.039-.038l-.2-.177a.644.644,0,0,1-.255-.608.708.708,0,0,1,.333-.628l.118-.059c.02-.019.039-.019.039-.039s-.019-.039-.039-.059l-.216-.157a.685.685,0,0,1-.255-.569.632.632,0,0,1,.294-.589l.157-.1c.019-.019.039-.019.039-.039,0-.039,0-.058-.02-.058l-.235-.157a.632.632,0,0,1-.235-.549q0-.765.941-.765t.942.765a.61.61,0,0,1-.236.549l-.216.157c-.019.019-.039.019-.039.039s.02.039.039.058l.176.118a.617.617,0,0,1,.275.588.633.633,0,0,1-.294.589c-.059.039-.079.078-.079.1,0,.059.1.079.314.079h3.041C-936.171,2014.958-935.916,2015.213-935.916,2015.7Zm1.491-4.55a.784.784,0,0,1-.216.51.679.679,0,0,1-.471.236h-4.138a.873.873,0,0,1-.589-.216.673.673,0,0,1-.235-.53.794.794,0,0,1,.216-.53.639.639,0,0,1,.51-.216h4.119a.856.856,0,0,1,.569.216A.732.732,0,0,1-934.425,2011.153Zm.02,9.081a.792.792,0,0,1-.216.529.651.651,0,0,1-.49.236h-4.06c-.589,0-.883-.256-.883-.746a.748.748,0,0,1,.216-.51.593.593,0,0,1,.471-.216l4.453.039a.608.608,0,0,1,.372.235A.669.669,0,0,1-934.405,2020.235Z" transform="translate(951.195 -2010.369)"/><path class="b" d="M-926.37,2018.735c0,.51-.274.765-.843.765a1.708,1.708,0,0,1-.647-.1.677.677,0,0,1-.373-.647.577.577,0,0,1,.255-.549l.2-.138.039-.039c0-.039-.059-.079-.177-.157a.661.661,0,0,1-.314-.608.713.713,0,0,1,.431-.667.354.354,0,0,0,.059-.079.067.067,0,0,0-.02-.039l-.216-.157a.673.673,0,0,1-.255-.549.635.635,0,0,1,.255-.569l.2-.118c.019-.02.039-.039.039-.059s-.02-.039-.039-.059l-.216-.138a.633.633,0,0,1-.236-.549.616.616,0,0,1,.275-.588c.137-.079.216-.137.216-.157s0-.019-.02-.039l-.235-.177a.657.657,0,0,1-.236-.549.669.669,0,0,1,.255-.55.941.941,0,0,1,.628-.216,1.321,1.321,0,0,1,.628.118.668.668,0,0,1,.372.628.7.7,0,0,1-.275.608l-.177.1c-.019.02-.039.039-.039.059,0,.039.02.058.039.058l.137.1a.631.631,0,0,1,.294.589.659.659,0,0,1-.274.588l-.177.137-.039.039c0,.039.019.059.039.059l.177.1a.665.665,0,0,1,.294.608.659.659,0,0,1-.275.588l-.177.1c-.019.019-.019.019-.019.039s.019.039.039.059l.157.117a.676.676,0,0,1,.295.589.634.634,0,0,1-.236.549l-.236.177c-.019.02-.019.02-.019.039s.058.078.2.157C-926.468,2018.264-926.37,2018.461-926.37,2018.735Zm4.531-7.571a.686.686,0,0,1-.373.667,1.569,1.569,0,0,1-.647.1h-2.863a1.462,1.462,0,0,1-.628-.1.676.676,0,0,1-.372-.647c0-.51.294-.745.9-.745h3.275a.65.65,0,0,1,.49.235A.7.7,0,0,1-921.839,2011.164Zm0,9.081c0,.51-.294.765-.863.765h-2.57a6.836,6.836,0,0,1-.961-.04.671.671,0,0,1-.49-.686.673.673,0,0,1,.392-.647,1.283,1.283,0,0,1,.569-.078h3.079C-922.114,2019.52-921.839,2019.774-921.839,2020.245Zm1.51-7.551c0,.51-.294.765-.9.765a1.382,1.382,0,0,1-.589-.1.7.7,0,0,1-.373-.666q0-.766.883-.765h.117C-920.623,2011.949-920.329,2012.2-920.329,2012.694Zm0,6.06a.663.663,0,0,1-.549.706,2.018,2.018,0,0,1-.51.039.857.857,0,0,1-.589-.2.674.674,0,0,1-.236-.53c0-.51.314-.765.922-.765C-920.642,2018.009-920.329,2018.245-920.329,2018.754Z" transform="translate(946.415 -2010.38)"/><path class="b" d="M-906.157,2020.233c0,.51-.294.784-.882.784a1.528,1.528,0,0,1-.628-.1.707.707,0,0,1-.372-.667.756.756,0,0,1,.352-.628l.059-.039c.039-.019.059-.039.059-.078s-.039-.078-.137-.117a.657.657,0,0,1-.353-.647.6.6,0,0,1,.372-.628c.079-.039.118-.078.118-.1s-.02-.039-.039-.058l-.216-.137a.635.635,0,0,1-.255-.53.655.655,0,0,1,.2-.53c.117-.117.2-.177.2-.2,0-.039-.019-.079-.058-.079h-4.727c-.1,0-.137.02-.137.079l.039.059.117.1a.736.736,0,0,1,.216.549.686.686,0,0,1-.333.628c-.118.059-.177.1-.177.137l.02.019.039.039.157.118a.6.6,0,0,1,.275.53.688.688,0,0,1-.275.627c-.137.079-.2.157-.2.176s.039.059.1.078a.64.64,0,0,1,.392.648.73.73,0,0,1-.392.686,1.215,1.215,0,0,1-.569.1,1.237,1.237,0,0,1-.549-.1.725.725,0,0,1-.372-.667.611.611,0,0,1,.372-.647c.059-.039.1-.078.1-.1,0-.039-.059-.1-.2-.176a.645.645,0,0,1-.294-.608.691.691,0,0,1,.314-.627c.118-.059.177-.118.177-.137a1.841,1.841,0,0,0-.255-.2.658.658,0,0,1-.255-.569.653.653,0,0,1,.373-.667c.059-.039.1-.059.1-.1a.042.042,0,0,0-.039-.039l-.2-.118a.648.648,0,0,1-.255-.588.765.765,0,0,1,.2-.511.578.578,0,0,1,.451-.235c.236,0,.373-.039.373-.078a1.566,1.566,0,0,0-.2-.236.6.6,0,0,1-.177-.491.676.676,0,0,1,.373-.647,1.417,1.417,0,0,1,.608-.1c.608,0,.922.255.922.745a.727.727,0,0,1-.216.53l-.137.138c-.02.019-.039.039-.039.059,0,.039.059.058.177.058h3.295c.157,0,.236-.02.236-.078,0-.02-.039-.059-.1-.117a.673.673,0,0,1-.275-.569c0-.51.294-.765.9-.765.666,0,1,.236,1,.726a.722.722,0,0,1-.275.608.2.2,0,0,0-.1.137c0,.039.1.058.295.078a.774.774,0,0,1,.49.235.728.728,0,0,1,.2.511.7.7,0,0,1-.255.588l-.2.118-.039.039a.108.108,0,0,0,.059.1l.156.1a.635.635,0,0,1,.255.569.7.7,0,0,1-.255.589c-.156.1-.235.157-.235.157,0,.039.078.1.216.215a.609.609,0,0,1,.255.589.673.673,0,0,1-.236.569c-.156.118-.235.176-.235.2s.058.059.177.118A.54.54,0,0,1-906.157,2020.233Zm-4.236-7.61c0,.529-.314.784-.941.784s-.942-.255-.942-.765c0-.53.295-.785.883-.785a1.211,1.211,0,0,1,.667.137A.709.709,0,0,1-910.394,2012.622Zm1.2-1.53c0,.51-.294.765-.9.765a1.358,1.358,0,0,1-.648-.117.732.732,0,0,1-.353-.628c0-.51.295-.765.9-.765C-909.53,2010.347-909.2,2010.6-909.2,2011.092Zm1.216,1.549a.731.731,0,0,1-.392.686,1.51,1.51,0,0,1-.588.1,1.11,1.11,0,0,1-.51-.1.719.719,0,0,1-.411-.647.714.714,0,0,1,.392-.687,1.36,1.36,0,0,1,.608-.1C-908.3,2011.877-907.981,2012.132-907.981,2012.642Z" transform="translate(941.384 -2010.347)"/><path class="b" d="M-892.44,2011.172a.714.714,0,0,1-.235.55.873.873,0,0,1-.589.216h-3.962c-.079,0-.1.019-.1.058,0,.02.019.039.039.059l.118.1a.7.7,0,0,1,.2.549.64.64,0,0,1-.373.608c-.078.039-.137.079-.137.1.02.039.02.039.04.039l.157.118a.692.692,0,0,1,.314.588.625.625,0,0,1-.275.569c-.157.1-.236.156-.236.177s.02.039.04.059l.176.1a.687.687,0,0,1,.295.608.643.643,0,0,1-.373.647c-.1.039-.137.078-.137.1,0,.04.04.079.118.118a.684.684,0,0,1,.392.667.658.658,0,0,1-.392.647c-.059.019-.1.058-.1.1,0,.019.02.058.078.078a.721.721,0,0,1,.431.686.667.667,0,0,1-.333.589c-.039.039-.039.059-.039.078,0,.059.118.078.372.078h3.727a.867.867,0,0,1,.589.216.672.672,0,0,1,.235.53c0,.51-.294.764-.9.764h-4.786a.649.649,0,0,1-.49-.235.711.711,0,0,1-.216-.53.676.676,0,0,1,.295-.589c.117-.078.177-.117.177-.157,0-.02-.039-.039-.1-.078a.642.642,0,0,1-.373-.647.652.652,0,0,1,.314-.628l.137-.078.039-.039a.513.513,0,0,0-.216-.177.633.633,0,0,1-.294-.589.727.727,0,0,1,.372-.667c.059-.019.1-.058.1-.1l-.039-.04-.216-.176a.61.61,0,0,1-.216-.53.646.646,0,0,1,.275-.568l.2-.118.039-.039c0-.039-.019-.059-.039-.059l-.176-.157a.6.6,0,0,1-.275-.569.727.727,0,0,1,.412-.667c.059-.039.078-.059.078-.078s-.019-.039-.058-.078a.8.8,0,0,1-.432-.686.612.612,0,0,1,.255-.568q.235-.148.235-.177a.1.1,0,0,0-.039-.079l-.216-.078a.6.6,0,0,1-.314-.608.711.711,0,0,1,.236-.549.868.868,0,0,1,.588-.216h4.786a.87.87,0,0,1,.589.216A.742.742,0,0,1-892.44,2011.172Zm1.491,4.551a.8.8,0,0,1-.411.686c-.059.04-.079.059-.079.079s.02.039.039.058l.137.1a.7.7,0,0,1,.314.608.684.684,0,0,1-.392.667c-.059.019-.1.059-.1.078,0,.039.059.1.2.177a.621.621,0,0,1,.294.569c0,.51-.314.765-.922.765-.647,0-.961-.255-.961-.765a.668.668,0,0,1,.392-.667.1.1,0,0,0,.078-.1c0-.04-.039-.059-.1-.1a.6.6,0,0,1-.373-.589.773.773,0,0,1,.392-.725.592.592,0,0,0,.1-.078c0-.02-.039-.059-.117-.1a.677.677,0,0,1-.373-.647.686.686,0,0,1,.294-.608l.04-.02c.117-.059.157-.118.157-.137,0-.039-.02-.039-.039-.039l-.2-.137a.648.648,0,0,1-.255-.588.615.615,0,0,1,.373-.628c.078-.039.117-.078.117-.118,0-.02-.078-.078-.216-.157a.659.659,0,0,1-.275-.588c0-.51.294-.765.863-.765a1.407,1.407,0,0,1,.628.1.718.718,0,0,1,.373.647.736.736,0,0,1-.412.687c-.059.039-.078.058-.078.078s.019.039.058.078a.821.821,0,0,1,.432.686.647.647,0,0,1-.275.569l-.157.118-.039.039c-.019.02-.039.02-.039.039a.756.756,0,0,0,.176.157A.54.54,0,0,1-890.949,2015.723Z" transform="translate(935.904 -2010.369)"/><path class="b" d="M-878.245,2015.7a.684.684,0,0,1-.236.549.868.868,0,0,1-.588.216h-3a.651.651,0,0,0-.294.038c-.019,0-.019.02-.019.039s.039.059.117.118a.746.746,0,0,1,.255.588.654.654,0,0,1-.333.608c-.1.059-.157.1-.157.137,0,.02.059.059.157.118a.686.686,0,0,1,.333.628q0,.764-.883.765c-.667,0-1-.255-1-.745a.741.741,0,0,1,.432-.687l.059-.058c0-.039-.059-.1-.2-.157a.6.6,0,0,1-.313-.608.622.622,0,0,1,.392-.647c.078-.039.117-.059.117-.1a.042.042,0,0,0-.039-.038l-.216-.118a.644.644,0,0,1-.255-.608.708.708,0,0,1,.333-.628l.117-.059c.02-.019.039-.019.039-.039s-.019-.039-.039-.059l-.216-.157a.684.684,0,0,1-.255-.569.631.631,0,0,1,.294-.588l.157-.1c.019-.02.039-.02.039-.039,0-.039,0-.059-.02-.059l-.235-.156a.634.634,0,0,1-.235-.55q0-.764.941-.764t.942.764a.611.611,0,0,1-.236.55l-.216.156c-.019.02-.039.02-.039.039s.02.039.039.059l.176.117a.618.618,0,0,1,.275.589.632.632,0,0,1-.294.588c-.059.039-.079.079-.079.1,0,.059.1.079.314.079h3.041C-878.52,2014.958-878.245,2015.213-878.245,2015.7Zm1.491-4.55a.785.785,0,0,1-.216.51.68.68,0,0,1-.471.236h-4.139a.87.87,0,0,1-.588-.216.671.671,0,0,1-.236-.53.792.792,0,0,1,.216-.53.641.641,0,0,1,.51-.216h4.119a.855.855,0,0,1,.569.216A.73.73,0,0,1-876.754,2011.153Zm.019,9.081a.792.792,0,0,1-.216.529.649.649,0,0,1-.49.236H-881.5c-.588,0-.882-.256-.882-.746a.747.747,0,0,1,.216-.51.592.592,0,0,1,.471-.216l4.452.039a.61.61,0,0,1,.373.235A.807.807,0,0,1-876.735,2020.235Z" transform="translate(930.555 -2010.369)"/><path class="b" d="M-869.015,2014.254a.693.693,0,0,1-.412.628,1.206,1.206,0,0,1-.53.1h-.138a.869.869,0,0,1-.588-.216.742.742,0,0,1-.236-.55.632.632,0,0,1,.294-.588l.177-.118.039-.039a.1.1,0,0,0-.039-.078l-.2-.117a.594.594,0,0,1-.255-.569c0-.511.294-.765.9-.765.667,0,.981.255.981.784a.611.611,0,0,1-.314.589l-.157.1c-.019.019-.039.039-.039.058a.067.067,0,0,0,.02.039l.235.137A.766.766,0,0,1-869.015,2014.254Zm0,4.492a.694.694,0,0,1-.393.647,1.249,1.249,0,0,1-.549.1,1.324,1.324,0,0,1-.628-.118.658.658,0,0,1-.333-.569c0-.529.294-.784.9-.784a1.669,1.669,0,0,1,.628.1A.681.681,0,0,1-869.015,2018.746Zm4.491-3.021a.769.769,0,0,1-.216.549.819.819,0,0,1-.569.216h-3.119c-.647,0-.981-.255-.981-.765a.737.737,0,0,1,.393-.648,1.059,1.059,0,0,1,.51-.1h3.216a.817.817,0,0,1,.569.216A.8.8,0,0,1-864.524,2015.726Zm0,4.511c0,.511-.275.765-.843.765h-3.276a.768.768,0,0,1-.549-.216.655.655,0,0,1-.216-.53.678.678,0,0,1,.373-.647,1.251,1.251,0,0,1,.647-.117h3.08a.867.867,0,0,1,.588.216A.793.793,0,0,1-864.524,2020.236Zm0-9.042c0,.53-.353.784-1.078.784a.908.908,0,0,1-.255-.019h-2.687c-.569,0-.844-.255-.844-.745a.676.676,0,0,1,.373-.647,1.429,1.429,0,0,1,.666-.1h2.727a2.148,2.148,0,0,1,.765.1A.664.664,0,0,1-864.524,2011.195Zm1.53,1.511a.721.721,0,0,1-.392.666,1.341,1.341,0,0,1-.569.1q-.942,0-.942-.764c0-.491.295-.745.9-.745C-863.327,2011.96-862.994,2012.215-862.994,2012.705Zm0,6.041a.8.8,0,0,1-.255.588,1.142,1.142,0,0,1-.765.177c-.588,0-.863-.255-.863-.745a.687.687,0,0,1,.333-.628c.118-.058.157-.1.157-.117,0-.039-.02-.059-.059-.078a.714.714,0,0,1-.431-.667q0-.764,1-.765c.608,0,.9.255.9.746a.659.659,0,0,1-.274.588l-.177.117-.039.04c0,.039.039.078.137.118A.646.646,0,0,1-862.994,2018.746Z" transform="translate(925.896 -2010.391)"/></g></g></svg>