<svg xmlns="http://www.w3.org/2000/svg" xmlns:xlink="http://www.w3.org/1999/xlink" width="82" height="60" viewBox="0 0 82 60"><defs><style>.a{fill:none;}.b{fill:#7cad14;}.c{fill:url(#a);}.d{fill:url(#b);}.e{fill:url(#c);}.f{fill:url(#d);}.g{fill:url(#e);}.h{fill:url(#f);}</style><linearGradient id="a" x1="49.974" y1="-44.48" x2="50.201" y2="-44.934" gradientUnits="objectBoundingBox"><stop offset="0" stop-color="#db0050"/><stop offset="1" stop-color="#d90012"/></linearGradient><linearGradient id="b" x1="51.564" y1="-41.276" x2="51.806" y2="-41.756" xlink:href="#a"/><linearGradient id="c" x1="40.333" y1="-44.588" x2="40.52" y2="-45.048" xlink:href="#a"/><linearGradient id="d" x1="74.65" y1="-43.998" x2="75" y2="-44.453" xlink:href="#a"/><linearGradient id="e" x1="38.088" y1="-40.831" x2="38.267" y2="-41.256" xlink:href="#a"/><linearGradient id="f" x1="51.73" y1="-43.142" x2="51.976" y2="-43.593" xlink:href="#a"/></defs><g transform="translate(0.247 0.262)"><g transform="translate(0)"><rect class="a" width="82" height="60" rx="7" transform="translate(-0.247 -0.262)"/></g><g transform="translate(17.996 17.156)"><g transform="translate(11.385)"><path class="b" d="M-1066.877,2102.324c.049-.133.1-.316.183-.55s.15-.482.216-.715.133-.416.167-.549h-.25a.237.237,0,0,1-.133-.15c-.017-.05-.05-.183-.1-.383.349-.133.7-.267,1.049-.416s.649-.266.882-.383c.233-.1.449-.183.666-.267a3.317,3.317,0,0,1,.632-.166,3.034,3.034,0,0,1,.55-.05c.016.017.033.05.066.084a1.518,1.518,0,0,0,.167.166,1.068,1.068,0,0,1,.116.167.263.263,0,0,1,.05.1c.017.033.033.1.083.2-.566.133-1.032.266-1.448.4-.4.133-.683.232-.865.316a.915.915,0,0,0-.3.167c-.083.166-.2.433-.35.766a8.69,8.69,0,0,0-.349.948l1.681-.516a.454.454,0,0,1,.117.133c.017.067.05.117.067.183a3.15,3.15,0,0,1,.266.366l-2.38.883-.766,2.945a1.351,1.351,0,0,1-.533-.183.565.565,0,0,1-.3-.3l.05-.3c.016-.084.033-.2.066-.333s.05-.266.083-.432c.033-.15.066-.333.1-.516a2.722,2.722,0,0,1,.1-.366c.033-.1.066-.183.1-.283s.067-.167.084-.233a.129.129,0,0,1,.016-.05.294.294,0,0,0-.016-.1,1.048,1.048,0,0,0-.183-.4c.033-.017.05-.017.066-.033h.017c-.017,0-.017.016-.033.016s-.016.017-.033.017Z" transform="translate(1067.693 -2094.619)"/><path class="b" d="M-1058.888,2100.95a13.186,13.186,0,0,1,.383-1.331q.249-.749.5-1.348c.166-.4.266-.6.317-.616a.37.37,0,0,0,.15-.017,1.721,1.721,0,0,1,.2-.05.6.6,0,0,1,.183-.049.564.564,0,0,1,.15-.017l-1.631,6.557a.808.808,0,0,1-.432-.05,3.888,3.888,0,0,1-.4-.3c.083-.433.15-.816.2-1.115s.1-.516.133-.649.067-.283.1-.449A4.013,4.013,0,0,0-1058.888,2100.95Z" transform="translate(1063.897 -2094.077)"/><path class="b" d="M-1054.526,2097.034c.2-.1.433-.2.666-.3.233-.083.5-.166.782-.25s.582-.167.882-.266.616-.183.915-.283c.117-.016.183-.016.2.017a.6.6,0,0,1,.117.2.564.564,0,0,1,.166.067.693.693,0,0,1,.083.116.7.7,0,0,0,.1.117c-.033.016-.166.066-.366.166s-.416.183-.616.283-.433.183-.683.283-.5.183-.732.283l-.349,1.315,1.731-.483a.243.243,0,0,1,.116.2.125.125,0,0,0,.033.083c.017.017.05.067.117.15a.418.418,0,0,1,.116.2c-.4.2-.816.383-1.265.566a5.627,5.627,0,0,1-1.082.35c-.083.2-.149.366-.216.532-.066.15-.133.333-.2.516a3.418,3.418,0,0,0-.15.55,2.932,2.932,0,0,0-.066.516q.149-.05.5-.2c.216-.083.4-.166.532-.217s.283-.1.449-.15a2.9,2.9,0,0,1,.482-.117,2.352,2.352,0,0,1,.749-.033,1.12,1.12,0,0,1,.134.316,1.208,1.208,0,0,0,.083.282l-3.661,1.282a.4.4,0,0,0-.283-.316,4.139,4.139,0,0,1-.033-.9,2.855,2.855,0,0,1,.15-.782,5.249,5.249,0,0,1,.267-.766,5.375,5.375,0,0,0,.183-.515c-.033-.067-.083-.15-.15-.283a1.993,1.993,0,0,0-.133-.217c.083-.05.183-.083.283-.133a1.718,1.718,0,0,0,.233-.1c.049-.166.1-.283.116-.366s.083-.3.183-.633.15-.532.166-.583h-.2a.1.1,0,0,1-.066-.016.328.328,0,0,1-.183-.183A3.1,3.1,0,0,1-1054.526,2097.034Z" transform="translate(1061.965 -2093.34)"/><path class="b" d="M-1046.85,2097.469a1.132,1.132,0,0,1,.183-.749,3.113,3.113,0,0,1,.882-.866,5.97,5.97,0,0,1,1.631-.782c.183-.05.3-.1.333-.1a.843.843,0,0,1,.549.066,1.18,1.18,0,0,1,.416.5,1.312,1.312,0,0,1-.416.616,1.784,1.784,0,0,1-.833.416.487.487,0,0,0-.133-.116.38.38,0,0,1-.116-.133c-.017-.067.033-.167.15-.283-.166.067-.333.15-.532.233a5.511,5.511,0,0,0-.533.283,1.445,1.445,0,0,0-.416.349.521.521,0,0,0-.15.416c.05.066.183.116.433.116.233,0,.516.017.849.033a2.18,2.18,0,0,1,.715.116,1.091,1.091,0,0,1,.716.749,2.172,2.172,0,0,1-.232,1.116,2.93,2.93,0,0,1-.649.832,5.594,5.594,0,0,1-1.115.8,3.8,3.8,0,0,1-1.165.449,1.551,1.551,0,0,1-.683,0,.742.742,0,0,1-.616-.6,1.033,1.033,0,0,1,.067-.583,1.868,1.868,0,0,1,.383-.583,1.991,1.991,0,0,1,.583-.416.477.477,0,0,1,.166.1.475.475,0,0,1,.1.166,1.329,1.329,0,0,0-.366.383,1.03,1.03,0,0,0-.15.5c.05.067.15.067.3.05a4.192,4.192,0,0,0,1.215-.516,3.774,3.774,0,0,0,.566-.367,1.742,1.742,0,0,0,.383-.466,1.052,1.052,0,0,0,.116-.6c-.033-.084-.166-.133-.4-.15q-.375-.025-.9-.1a2.382,2.382,0,0,1-.9-.249A1.024,1.024,0,0,1-1046.85,2097.469Z" transform="translate(1058.417 -2092.893)"/><path class="b" d="M-1038.276,2094.045c.782-.333,1.465-.583,2.047-.8.583-.2,1.348-.45,2.263-.733a.4.4,0,0,1,.133.017c.05.017.117.049.183.066.05.05.083.1.133.15a.931.931,0,0,1,.116.149,1.026,1.026,0,0,1,.067.133q-.475.2-.8.35c-.2.1-.433.2-.666.317s-.466.232-.682.333c-.017.066-.05.2-.117.4-.05.2-.116.533-.216,1-.033.2-.1.482-.183.849s-.15.666-.2.883-.117.5-.183.815-.15.682-.216,1.082a.84.84,0,0,1-.283-.083c-.117-.066-.2-.1-.216-.116-.05-.017-.116-.017-.166-.033a.782.782,0,0,1-.116-.051c-.033-.017-.05-.033-.05-.066l.915-4.41c-.233.066-.466.133-.649.183a8.538,8.538,0,0,0-.8.316.228.228,0,0,1-.1-.117c-.016-.05-.033-.133-.066-.233a.152.152,0,0,0-.05-.117.166.166,0,0,0-.067-.083.236.236,0,0,1-.05-.067c-.016-.017-.016-.033-.033-.05C-1038.276,2094.128-1038.276,2094.095-1038.276,2094.045Z" transform="translate(1054.136 -2091.765)"/><path class="b" d="M-1028.98,2091.24s.033-.017.117-.05c.066-.033.133-.049.166-.066.033,0,.05,0,.066.017l.134,6.041a2.013,2.013,0,0,0-.4.134c-.216.083-.333.133-.333.133a1.753,1.753,0,0,1-.317-.733,2.2,2.2,0,0,1-.033-.482c0-.183.016-.45.05-.782a3.723,3.723,0,0,0-.666.3c-.25.116-.466.216-.7.3a2.827,2.827,0,0,1-.15.449c-.05.167-.133.366-.233.616a5,5,0,0,1-.316.666,1.92,1.92,0,0,1-.317.416.731.731,0,0,0-.2-.183,1.446,1.446,0,0,1-.2-.15.332.332,0,0,1-.067-.133,1.107,1.107,0,0,1,.017-.466,6.356,6.356,0,0,1,.2-.616,3.409,3.409,0,0,0,.183-.515.108.108,0,0,0,0-.1.143.143,0,0,0-.05-.1c-.033-.033-.05-.067-.1-.116l-.133-.133c.15-.05.283-.116.4-.167s.2-.1.233-.117c.017-.066.067-.166.116-.3s.133-.316.233-.516c.516-.982.866-1.648,1.049-2.014.183-.349.349-.616.466-.816a3.286,3.286,0,0,1,.449-.549h.2C-1029.03,2091.223-1028.98,2091.223-1028.98,2091.24Zm-.482,1.2-1.082,2.463.965-.349Z" transform="translate(1051.397 -2091.123)"/></g><path class="c" d="M-1084.429,2115.749a1.72,1.72,0,0,0,.349-.133,1.517,1.517,0,0,1,.3-.1,2.465,2.465,0,0,1,.333-.033l-3.245,11.184c.017,0,.183-.049.5-.149.333-.1.7-.2,1.1-.316.4-.1.915-.233,1.548-.366s.848-.25,1.8-.416a7.041,7.041,0,0,0,.616.816c.067.166.482.416.549.732a9.014,9.014,0,0,1-.915.35c-.366.116-.815.25-1.365.416-.549.149-1.065.283-1.514.383-.466.1-.915.2-1.348.266a15.423,15.423,0,0,1-2.679.283c-.15-.25-.3-.4-.433-.432a17.446,17.446,0,0,1,.466-2.347c.316-1.431.716-2.945,1.181-4.543a36.454,36.454,0,0,1,1.5-4.244l.2-.449c.066-.15.133-.316.216-.533.083-.033.183-.083.283-.133s.2-.083.3-.133A.637.637,0,0,1-1084.429,2115.749Z" transform="translate(1088.84 -2102.368)"/><path class="d" d="M-1066.555,2113.558s.083-.033.216-.083a3.088,3.088,0,0,1,.316-.1c.067-.016.116,0,.116.033l-.249,10.735a6.333,6.333,0,0,0-.766.233c-.433.133-.649.217-.649.217a3.3,3.3,0,0,1-.549-1.3,4.737,4.737,0,0,1-.033-.865c.017-.316.067-.782.133-1.4a9.23,9.23,0,0,0-1.3.5,8.4,8.4,0,0,1-1.348.5,7.194,7.194,0,0,1-.316.8q-.175.424-.5,1.1a12.243,12.243,0,0,1-.648,1.165,2.9,2.9,0,0,1-.633.732,1.5,1.5,0,0,0-.366-.333c-.183-.133-.317-.216-.366-.266a.437.437,0,0,1-.117-.25,1.97,1.97,0,0,1,.067-.816,7.745,7.745,0,0,1,.45-1.1l.4-.9a.277.277,0,0,0,.017-.167.516.516,0,0,0-.083-.2,1.772,1.772,0,0,0-.166-.2c-.067-.067-.15-.15-.233-.25.283-.1.532-.183.765-.283a3.449,3.449,0,0,0,.45-.2c.049-.1.133-.283.249-.516s.283-.549.483-.9c1.048-1.731,1.764-2.913,2.147-3.528a16.734,16.734,0,0,1,.949-1.414,9.163,9.163,0,0,1,.882-.966,2.442,2.442,0,0,1,.366,0C-1066.672,2113.525-1066.555,2113.541-1066.555,2113.558Zm-1.032,2.114-2.247,4.327,1.847-.566Z" transform="translate(1081.818 -2101.392)"/><path class="e" d="M-1057.8,2111.829c1.6-.6,3-1.1,4.194-1.465s2.746-.816,4.627-1.348a.345.345,0,0,1,.25.05,1.263,1.263,0,0,0,.383.134c.083.1.166.216.25.316a3.774,3.774,0,0,1,.233.316.72.72,0,0,1,.117.266c-.666.25-1.2.482-1.615.649q-.624.275-1.348.6c-.482.233-.949.433-1.382.632-.049.117-.133.4-.249.8-.117.416-.283,1.082-.483,2-.1.4-.233.966-.416,1.7s-.333,1.315-.449,1.764-.25.982-.416,1.614-.333,1.348-.516,2.164a1.4,1.4,0,0,1-.583-.2c-.25-.133-.383-.216-.433-.233-.117-.033-.216-.05-.316-.083a1.063,1.063,0,0,1-.233-.1.159.159,0,0,1-.1-.116l2.147-8.854c-.482.116-.932.217-1.331.333s-.949.316-1.647.566a.412.412,0,0,1-.183-.25,3.506,3.506,0,0,1-.1-.466.879.879,0,0,0-.084-.25c-.049-.066-.083-.133-.116-.166a.717.717,0,0,0-.1-.116.182.182,0,0,1-.05-.117C-1057.8,2111.979-1057.8,2111.929-1057.8,2111.829Z" transform="translate(1074.512 -2099.38)"/><path class="f" d="M-1042.033,2113.726c.2-.765.482-1.664.849-2.663q.549-1.523,1.1-2.7c.349-.782.582-1.2.682-1.215a1.716,1.716,0,0,0,.316-.017c.1-.017.217-.05.4-.1.167-.05.3-.083.383-.1a2.271,2.271,0,0,1,.3-.017l-3.728,13.132a1.743,1.743,0,0,1-.865-.117,4.014,4.014,0,0,1-.765-.649c.183-.882.349-1.631.482-2.23s.233-1.032.3-1.3.15-.567.249-.916C-1042.249,2114.508-1042.15,2114.125-1042.033,2113.726Z" transform="translate(1067.847 -2098.415)"/><path class="g" d="M-1029.046,2111.316a10.5,10.5,0,0,0,.433-1.564c.15-.7.349-1.531.566-2.48s.466-1.814.716-2.6a10.727,10.727,0,0,1,.882-2,.785.785,0,0,1,.383.05,1.346,1.346,0,0,0,.266.083c.166,0,.316-.017.433-.017a1.331,1.331,0,0,1,.283.017l-3.046,12.565a3.4,3.4,0,0,1-1.165-.017,1.006,1.006,0,0,1-.682-.366,8.471,8.471,0,0,1-.5-1.315c-.15-.516-.316-1.148-.5-1.948q-.275-1.173-.549-2.646c-.2-.982-.3-1.481-.3-1.531l-2.13,9.187a2.434,2.434,0,0,1-.932-.266.676.676,0,0,0-.233-.05.938.938,0,0,1-.3-.083.257.257,0,0,1-.133-.183q-.15-2.172,1.6-7.938c.2-.633.4-1.265.615-1.9.216-.649.4-1.165.533-1.581a1.571,1.571,0,0,1,.732-.583,6.3,6.3,0,0,1,1.231-.3Z" transform="translate(1064.247 -2096.455)"/><path class="h" d="M-1011.714,2100.147s.083-.033.216-.083a1.321,1.321,0,0,1,.316-.1c.066,0,.116,0,.116.05l-.133,11.467c-.083.017-.349.1-.765.233a5.622,5.622,0,0,0-.649.233,3.5,3.5,0,0,1-.566-1.4,4.194,4.194,0,0,1-.033-.932c.017-.35.067-.832.133-1.482a10.542,10.542,0,0,0-1.3.516,9.009,9.009,0,0,1-1.331.516c-.083.267-.183.549-.3.866s-.283.7-.5,1.165a9.419,9.419,0,0,1-.649,1.231,3.29,3.29,0,0,1-.633.782,1.347,1.347,0,0,0-.383-.35,4.219,4.219,0,0,1-.366-.283.4.4,0,0,1-.117-.266,2.036,2.036,0,0,1,.067-.883,9.987,9.987,0,0,1,.433-1.165c.2-.482.333-.8.383-.966a.329.329,0,0,0,.017-.183.517.517,0,0,0-.083-.2c-.05-.066-.1-.133-.166-.216s-.15-.166-.233-.266c.283-.1.533-.2.766-.283.233-.1.383-.167.45-.2.05-.116.116-.3.233-.566.116-.249.283-.583.482-.965,1.032-1.847,1.731-3.1,2.114-3.761s.7-1.165.932-1.514a8.137,8.137,0,0,1,.882-1.032h.366C-1011.813,2100.114-1011.714,2100.13-1011.714,2100.147Zm-1.015,2.23-2.214,4.61,1.848-.6Z" transform="translate(1056.451 -2095.204)"/></g></g></svg>