<svg xmlns="http://www.w3.org/2000/svg" xmlns:xlink="http://www.w3.org/1999/xlink" width="80" height="60" viewBox="0 0 80 60"><defs><style>.a{fill:none;}.b{fill:#0090df;}.c{mix-blend-mode:multiply;isolation:isolate;}.d{fill:url(#a);}.e{fill:url(#c);}.f{fill:url(#f);}.g{fill:#0f0e0b;}</style><linearGradient id="a" x1="0.5" y1="0.358" x2="0.5" y2="1.109" gradientUnits="objectBoundingBox"><stop offset="0" stop-color="#fff"/><stop offset="1" stop-color="#0068b6"/></linearGradient><linearGradient id="c" x1="0.5" y1="0.363" x2="0.5" y2="1.09" xlink:href="#a"/><linearGradient id="f" x1="0.5" y1="0.362" x2="0.5" y2="1.108" xlink:href="#a"/></defs><g transform="translate(-0.202 0.262)"><rect class="a" width="80" height="60" rx="7" transform="translate(0.202 -0.262)"/><g transform="translate(13.389 15.62)"><g transform="translate(4.075)"><path class="b" d="M-1080.506,2002.3h-.9l2-6.477h1.672a3.505,3.505,0,0,1,.942.116,1.956,1.956,0,0,1,.692.346,1.15,1.15,0,0,1,.365.577,1.417,1.417,0,0,1-.058.788,2.5,2.5,0,0,1-.788,1.172,3.387,3.387,0,0,1-1.442.711l1.442,2.768h-1.1l-1.307-2.614h-.73Zm3.825-4.632a.984.984,0,0,0,.039-.519.586.586,0,0,0-.25-.346,1.017,1.017,0,0,0-.461-.192,2.888,2.888,0,0,0-.6-.057h-.788l-.749,2.441h.442a3.539,3.539,0,0,0,.788-.077,3.665,3.665,0,0,0,.692-.23,2.311,2.311,0,0,0,.539-.4A1.948,1.948,0,0,0-1076.681,1997.665Z" transform="translate(1081.409 -1995.686)"/><path class="b" d="M-1071.773,2002.3h-.9l2-6.477h.9Z" transform="translate(1077.862 -1995.686)"/><path class="b" d="M-1062.293,1995.82l-.231.731h-1.9l-1.768,5.747h-.9l1.768-5.747h-1.9l.231-.731Z" transform="translate(1075.651 -1995.686)"/><path class="b" d="M-1054.31,1995.82h.807l-1.518,6.477h-.865l1.249-5.055-3.056,3.882h-.922l-.672-3.882-1.865,5.055h-.864l2.459-6.477h.807l.807,4.574Z" transform="translate(1073.531 -1995.686)"/><path class="b" d="M-1045.618,2002.321a2.813,2.813,0,0,1-1.269-.269,1.771,1.771,0,0,1-.769-.73,2.42,2.42,0,0,1-.288-1.077,3.882,3.882,0,0,1,.192-1.287,4.943,4.943,0,0,1,.615-1.288,5.06,5.06,0,0,1,.942-1.076,4.318,4.318,0,0,1,1.211-.73,3.909,3.909,0,0,1,1.442-.269,2.745,2.745,0,0,1,1.268.269,1.772,1.772,0,0,1,.769.73,2.351,2.351,0,0,1,.288,1.076,3.506,3.506,0,0,1-.192,1.288,4.927,4.927,0,0,1-.615,1.287,5.051,5.051,0,0,1-.942,1.077,4.332,4.332,0,0,1-1.211.73A4,4,0,0,1-1045.618,2002.321Zm.231-.711a2.7,2.7,0,0,0,1.038-.211,3.256,3.256,0,0,0,.884-.557,3.328,3.328,0,0,0,.692-.845,5.361,5.361,0,0,0,.461-1.019,3.44,3.44,0,0,0,.173-1.019,1.813,1.813,0,0,0-.173-.826,1.255,1.255,0,0,0-.538-.557,1.928,1.928,0,0,0-.923-.212,2.708,2.708,0,0,0-1.037.212,3.276,3.276,0,0,0-.884.557,4.175,4.175,0,0,0-.692.826,5.381,5.381,0,0,0-.461,1.019,3.417,3.417,0,0,0-.173,1.019,1.954,1.954,0,0,0,.173.845,1.162,1.162,0,0,0,.538.557A1.921,1.921,0,0,0-1045.387,2001.609Z" transform="translate(1067.817 -1995.594)"/></g><g transform="translate(0 8.149)"><path class="b" d="M-1084.523,2009.673h4.247c3.306,0,4.882,1.018,3.325,6.112-1.576,5.093-3.767,6.112-7.092,6.112h-4.228Zm.922,10.744c2.191,0,3.652-.884,4.67-4.228l.25-.807c1.038-3.344.1-4.209-2.075-4.209h-2.48l-2.844,9.244Z" transform="translate(1088.271 -2009.462)"/><path class="b" d="M-1066.961,2009.673h1.768l-3.766,12.224h-1.768Z" transform="translate(1081.145 -2009.462)"/><path class="b" d="M-1063.388,2015.641c1.691-5.5,4.17-6.324,7.246-6.324a11.465,11.465,0,0,1,3.479.423l-.768,1.518a16.92,16.92,0,0,0-3.229-.346c-2.422,0-3.69.865-4.728,4.267l-.269.865c-1.019,3.325-.327,4.362,2.056,4.362a11.353,11.353,0,0,0,2.345-.211l1.345-4.343h1.653l-1.711,5.574a16.178,16.178,0,0,1-4.209.519C-1063.119,2021.925-1065.079,2021.137-1063.388,2015.641Z" transform="translate(1078.418 -2009.317)"/><path class="b" d="M-1044.758,2009.673h1.768l-3.767,12.224h-1.768Z" transform="translate(1072.126 -2009.462)"/><path class="b" d="M-1034.876,2011.249h-4.036l.48-1.576h9.8l-.48,1.576h-4.017l-3.286,10.648h-1.749Z" transform="translate(1068.222 -2009.462)"/><path class="b" d="M-1029.641,2021.844h-1.73l8.514-12.3h1.576l.922,12.3h-1.806l-.173-2.633h-5.5Zm6.785-9.859-3.959,5.727h4.344Z" transform="translate(1065.158 -2009.409)"/><path class="b" d="M-1008.475,2009.673h1.749l-3.287,10.686h6.381l-.48,1.537h-8.13Z" transform="translate(1057.388 -2009.462)"/></g><g class="c" transform="translate(0 8.149)"><path class="d" d="M-1084.523,2009.673h4.247c3.306,0,4.882,1.018,3.325,6.112-1.576,5.093-3.767,6.112-7.092,6.112h-4.228Zm.922,10.744c2.191,0,3.652-.884,4.67-4.228l.25-.807c1.038-3.344.1-4.209-2.075-4.209h-2.48l-2.844,9.244Z" transform="translate(1088.271 -2009.462)"/><path class="d" d="M-1066.961,2009.673h1.768l-3.766,12.224h-1.768Z" transform="translate(1081.145 -2009.462)"/><path class="e" d="M-1063.388,2015.641c1.691-5.5,4.17-6.324,7.246-6.324a11.465,11.465,0,0,1,3.479.423l-.768,1.518a16.92,16.92,0,0,0-3.229-.346c-2.422,0-3.69.865-4.728,4.267l-.269.865c-1.019,3.325-.327,4.362,2.056,4.362a11.353,11.353,0,0,0,2.345-.211l1.345-4.343h1.653l-1.711,5.574a16.178,16.178,0,0,1-4.209.519C-1063.119,2021.925-1065.079,2021.137-1063.388,2015.641Z" transform="translate(1078.418 -2009.317)"/><path class="d" d="M-1044.758,2009.673h1.768l-3.767,12.224h-1.768Z" transform="translate(1072.126 -2009.462)"/><path class="d" d="M-1034.876,2011.249h-4.036l.48-1.576h9.8l-.48,1.576h-4.017l-3.286,10.648h-1.749Z" transform="translate(1068.222 -2009.462)"/><path class="f" d="M-1029.641,2021.844h-1.73l8.514-12.3h1.576l.922,12.3h-1.806l-.173-2.633h-5.5Zm6.785-9.859-3.959,5.727h4.344Z" transform="translate(1065.158 -2009.409)"/><path class="d" d="M-1008.475,2009.673h1.749l-3.287,10.686h6.381l-.48,1.537h-8.13Z" transform="translate(1057.388 -2009.462)"/></g><g transform="translate(36.124 22.179)"><path class="g" d="M-1019.728,2032.944h.807l-1.518,6.477h-.865l1.249-5.054-3.056,3.882h-.923l-.673-3.882-1.864,5.054h-.865l2.46-6.477h.807l.807,4.575Z" transform="translate(1027.435 -2032.944)"/><path class="g" d="M-1013.345,2039.421h-.9l2-6.477h.9Z" transform="translate(1022.079 -2032.944)"/><path class="g" d="M-1007.822,2036.865l-2.479,2.556h-.942l3.171-3.248-1.134-3.229h.942l.884,2.518,2.422-2.518h.942l-3.114,3.229,1.153,3.248h-.942Z" transform="translate(1020.858 -2032.944)"/></g></g></g></svg>