<svg xmlns="http://www.w3.org/2000/svg" width="81" height="60" viewBox="0 0 81 60"><defs><style>.a{fill:none;}.b{fill:#0f0e0b;}</style></defs><g transform="translate(0.166 0.262)"><g transform="translate(0)"><rect class="a" width="81" height="60" rx="7" transform="translate(-0.166 -0.262)"/></g><g transform="translate(18.117 19.46)"><path class="b" d="M-802.662,2033.065V2028.8l1-1h2.763l1,1v1.39h-1.729v-.784l-.2-.2h-.927l-.2.2v3.049l.214.214h.91l.2-.2v-.766h1.729v1.354l-1,1h-2.763Zm1.069.856h2.657l.891-.891v-1.176h-1.426v.642l-.321.321h-.98l-.321-.321v-3.12l.321-.321h.98l.321.321v.7h1.426v-1.23l-.891-.891h-2.675l-.892.891v4.155Zm-.731-1.016v-3.923l.82-.82h2.425l.82.82v.892h-1.034v-.606l-.392-.392h-1.23l-.393.392v3.37l.393.392h1.23l.392-.392v-.571h1.052v.856l-.82.821H-801.5Z" transform="translate(808.493 -2012.239)"/><path class="b" d="M-794,2034.063v-1.408h.374v-3.441H-794V2027.8h2.461v1.409h-.375v3.441h1.123v-.375h1.409v1.782Zm4.475-.143v-1.462h-1.106v.375h-1.444v-3.744h.392v-1.123h-2.175v1.106h.374v3.744h-.374v1.1Zm-4.137-.2v-.713h.374v-4.136h-.374v-.714h1.783v.714h-.375v4.136h1.8v-.374h.731v1.088Z" transform="translate(805.086 -2012.239)"/><path class="b" d="M-785.829,2034.063v-1.408h.374l1.141-3.441h-.285V2027.8h3.335v1.409h-.321l1.141,3.441h.374v1.408h-2.389v-1.408h.214l-.107-.3h-1.2l-.107.3h.214v1.408Zm2.247-.143v-1.1h-.232l.143-.589h1.462l.143.589h-.232v1.1h2.1v-1.1h-.356l-1.2-3.744h.357v-1.106h-3.031v1.106h.3l-1.194,3.744h-.357v1.1Zm-1.908-.2v-.713h.268l1.373-4.136h-.392v-.714h2.638v.714h-.446l1.373,4.136h.268v.713h-1.712v-.713h.339l-.321-.981h-1.712l-.321.981h.339v.713Zm3.209-2.211-.677-2.033-.7,2.033Zm-1.052-.178.392-1.248.374,1.248Zm.588-.161-.214-.606-.2.606Z" transform="translate(801.876 -2012.239)"/><path class="b" d="M-775.694,2033.065v-1.194h1.712v.588l.214.214h.892l.214-.2v-.624l-.2-.2H-774.7l-1-1V2028.8l1-1h2.764l1,1v1.23h-1.73v-.624l-.2-.2h-.927l-.2.2v.641l.2.2h1.836l1,1v1.818l-1,1h-2.763Zm1.052.856h2.657l.892-.891v-1.747l-.892-.873h-1.837l-.3-.321v-.713l.3-.321h1l.321.321v.517h1.426v-1.052l-.892-.891h-2.692l-.892.891v1.783l.892.891h1.837l.321.3v.677l-.321.321h-.981l-.321-.321v-.481h-1.426v1.016Zm-.713-1.016v-.7h1.034v.41l.393.392h1.23l.392-.392v-.892l-.392-.41h-1.8l-.838-.838v-1.5l.82-.82h2.407l.838.838v.713h-1.034v-.428l-.392-.41h-1.23l-.393.392v.945l.393.392h1.818l.838.838v1.462l-.82.82h-2.442Z" transform="translate(797.893 -2012.239)"/><path class="b" d="M-767.028,2034.063v-1.408h.374v-3.441h-.374V2027.8h2.461v1.409h-.375v3.441h.375v1.408Zm2.318-.143v-1.1h-.393v-3.744h.393v-1.106h-2.158v1.106h.374v3.744h-.374v1.1Zm-1.979-.2v-.713h.374v-4.136h-.374v-.714h1.782v.714h-.374v4.136h.374v.713Z" transform="translate(794.486 -2012.239)"/><path class="b" d="M-762.239,2033.065V2028.8l1-1h2.764l1,1v1.39h-1.73v-.784l-.2-.2h-.927l-.2.2v3.049l.214.214h.909l.2-.2v-.766h1.73v1.354l-1,1h-2.764Zm1.07.856h2.657l.892-.891v-1.176h-1.426v.642l-.321.321h-.981l-.321-.321v-3.12l.321-.321h.981l.321.321v.7h1.426v-1.23l-.892-.891h-2.675l-.892.891v4.155Zm-.731-1.016v-3.923l.82-.82h2.425l.82.82v.892h-1.034v-.606l-.392-.392h-1.23l-.392.392v3.37l.392.392h1.23l.392-.392v-.571h1.052v.856l-.821.821h-2.442Z" transform="translate(792.604 -2012.239)"/><path class="b" d="M-753.279,2033.065V2028.8l1-1h2.764l1,1v4.261l-1,1h-2.764Zm1.07.838h2.657l.892-.892v-4.136l-.909-.91h-2.639l-.892.891v4.154Zm-.713-1v-3.923l.82-.82h2.425l.821.82v3.923l-.821.82H-752.1Zm1.408.107h1.23l.393-.392v-3.352l-.393-.392h-1.23l-.392.392v3.37Zm-.2-.5v-3.139l.321-.321h1l.321.321v3.139l-.321.32h-1Zm.357.16h.909l.2-.2v-3.049l-.2-.2h-.927l-.2.2v3.049Z" transform="translate(789.082 -2012.239)"/><path class="b" d="M-812.269,2015.121v-2.907h.785v-7.132h-.785v-2.924h8.024l2.068,2.069v3.334l-.856.838.856.856v2.96h.785v2.907h-4.333v-4.868l-.41-.393h-1.8v2.354h.785v2.907Zm4.8-.321v-2.3h-.785v-2.959h2.265l.57.571v4.689h3.691v-2.3h-.767v-3.12l-.981-1,.981-1v-3.031l-1.89-1.89h-7.56v2.3h.749v7.738h-.767v2.3Zm-4.065-.41v-1.48h.767v-8.558h-.767v-1.48h6.954l1.676,1.712v2.6l-1.159,1.177,1.159,1.177v3.352h.785v1.479h-2.906v-4.44l-.8-.8h-2.8v3.762h.785v1.479h-3.691Zm5.688-6.722.821-.82v-1.73l-.8-.785h-2.8v3.317h2.781Zm-2.407-.41v-2.5h2.158l.66.659v1.177l-.66.642h-2.158Zm2.1-.3.428-.41v-1.034l-.428-.428h-1.783v1.873Z" transform="translate(812.269 -2002.158)"/><path class="b" d="M-793.291,2013.035v-8.808l2.068-2.069h5.706l2.068,2.069v8.808l-2.068,2.068h-5.706Zm2.175,1.747h5.491l1.855-1.855v-8.576l-1.89-1.89h-5.456l-1.854,1.854v8.612Zm-1.462-2.087v-8.112l1.711-1.712h5.01l1.712,1.712v8.112l-1.712,1.712h-5.01Zm2.924.214h2.55l.8-.8v-6.936l-.82-.82h-2.532l-.8.8v6.954Zm-.392-1.034v-6.49l.642-.642h2.068l.642.642v6.472l-.642.641H-789.4Zm.731.339h1.89l.41-.41v-6.312l-.41-.411h-1.908l-.41.411v6.294Z" transform="translate(804.809 -2002.158)"/><path class="b" d="M-774.93,2013.035v-8.808l2.069-2.069h5.705l2.068,2.069v2.888h-3.566v-1.622l-.41-.411h-1.908l-.41.411v6.294l.428.428h1.89l.41-.41v-1.551h3.566v2.8l-2.068,2.069h-5.705Zm2.211,1.765h5.492l1.837-1.837v-2.425h-2.942v1.32l-.642.641h-2.05l-.642-.641V2005.4l.642-.641h2.033l.641.641v1.426h2.942V2004.3l-1.854-1.855h-5.527l-1.837,1.855v8.612Zm-1.48-2.1v-8.112l1.712-1.712h5.01l1.712,1.712v1.837h-2.14v-1.248l-.821-.82h-2.531l-.8.8v6.954l.8.8h2.531l.821-.82v-1.159h2.193v1.765l-1.712,1.712h-5.046Z" transform="translate(797.592 -2002.158)"/><path class="b" d="M-757.421,2015.121v-2.907h.784v-7.132h-.784v-2.924h5.117v2.924h-.784v1.837l1.836-1.837h-.32v-2.924h6.151v2.924h-1.07L-750,2008.6l3.6,3.6h.981v2.906h-6.151V2012.2h.356l-1.266-1.266-.588.589v.66h.785v2.906h-5.135Zm4.814-.321v-2.3h-.8v-1.034l.927-.927,1.962,1.961h-.749v2.3h5.492v-2.3h-.784l-3.9-3.9,3.833-3.833h.874v-2.3h-5.51v2.3h.749l-2.888,2.888v-2.888h.784v-2.3H-757.1v2.3h.767v7.738h-.767v2.3Zm-4.083-.41v-1.48h.767v-8.558h-.767v-1.48H-753v1.48h-.784v4.3l4.3-4.3h-1.373v-1.48h4.725v1.48h-.785l-4.279,4.279,4.279,4.28h.785v1.48h-4.725v-1.48h1.39l-2.977-3-1.337,1.355v1.641h.8v1.48Z" transform="translate(790.71 -2002.158)"/><path class="b" d="M-778.976,2026.608h-.713l.7-.624h.767Z" transform="translate(799.463 -2011.523)"/><path class="b" d="M-779.395,2026.732h-1.587l1.409-1.248h1.587Zm-1.284-.107h1.23l1.141-1.016h-1.23Z" transform="translate(799.971 -2011.327)"/></g></g></svg>