<svg xmlns="http://www.w3.org/2000/svg" xmlns:xlink="http://www.w3.org/1999/xlink" width="81" height="60" viewBox="0 0 81 60"><defs><style>.a{fill:none;}.b{fill:url(#a);}.c{fill:url(#b);}.d{fill:url(#c);}.e{fill:url(#d);}.f{fill:url(#e);}.g{fill:url(#f);}.h{fill:url(#g);}.i{fill:url(#h);}.j{fill:url(#i);}.k{fill:url(#j);}.l{fill:url(#k);}.m{fill:url(#l);}.n{fill:url(#m);}.o{fill:url(#n);}.p{fill:url(#o);}.q{fill:url(#p);}.r{fill:url(#q);}.s{fill:url(#r);}.t{fill:url(#s);}.u{fill:url(#t);}.v{fill:url(#u);}</style><linearGradient id="a" x1="12.405" y1="-196.833" x2="12.91" y2="-196.833" gradientUnits="objectBoundingBox"><stop offset="0" stop-color="#141318"/><stop offset="0.104" stop-color="#122b71"/><stop offset="0.282" stop-color="#003f8b"/><stop offset="0.515" stop-color="#005da4"/><stop offset="0.742" stop-color="#003c88"/><stop offset="0.89" stop-color="#122b71"/><stop offset="1" stop-color="#151424"/></linearGradient><linearGradient id="b" x1="12.411" y1="-199.507" x2="12.916" y2="-199.507" xlink:href="#a"/><linearGradient id="c" x1="25.605" y1="-45.107" x2="26.11" y2="-45.107" xlink:href="#a"/><linearGradient id="d" x1="31.594" y1="-57.502" x2="32.099" y2="-57.502" xlink:href="#a"/><linearGradient id="e" x1="41.602" y1="-79.762" x2="42.107" y2="-79.762" xlink:href="#a"/><linearGradient id="f" x1="60.581" y1="-129.152" x2="61.085" y2="-129.152" xlink:href="#a"/><linearGradient id="g" x1="126.623" y1="-329.286" x2="127.128" y2="-329.286" xlink:href="#a"/><linearGradient id="h" x1="25.111" y1="-47.306" x2="25.616" y2="-47.306" xlink:href="#a"/><linearGradient id="i" x1="31.097" y1="-59.9" x2="31.603" y2="-59.9" xlink:href="#a"/><linearGradient id="j" x1="41.035" y1="-82.561" x2="41.54" y2="-82.561" xlink:href="#a"/><linearGradient id="k" x1="60.02" y1="-132.413" x2="60.524" y2="-132.413" xlink:href="#a"/><linearGradient id="l" x1="126.012" y1="-335.343" x2="126.517" y2="-335.343" xlink:href="#a"/><linearGradient id="m" x1="101.081" y1="-142.975" x2="101.047" y2="-143.455" gradientUnits="objectBoundingBox"><stop offset="0.061" stop-color="#cdcaca"/><stop offset="0.325" stop-color="#6a6665"/><stop offset="0.558" stop-color="#54514f"/><stop offset="0.767" stop-color="#656160"/><stop offset="1" stop-color="#b6b3b3"/></linearGradient><linearGradient id="n" x1="162.949" y1="-116.975" x2="162.893" y2="-117.368" xlink:href="#m"/><linearGradient id="o" x1="96.949" y1="-143.03" x2="96.916" y2="-143.509" xlink:href="#m"/><linearGradient id="p" x1="157.763" y1="-146.145" x2="157.708" y2="-146.635" xlink:href="#m"/><linearGradient id="q" x1="96.535" y1="-143.079" x2="96.501" y2="-143.558" xlink:href="#m"/><linearGradient id="r" x1="88.887" y1="-143.111" x2="88.856" y2="-143.591" xlink:href="#m"/><linearGradient id="s" x1="155.415" y1="-146.229" x2="155.36" y2="-146.719" xlink:href="#m"/><linearGradient id="t" x1="94.67" y1="-143.161" x2="94.636" y2="-143.64" xlink:href="#m"/><linearGradient id="u" x1="89.957" y1="-107.62" x2="89.926" y2="-107.98" xlink:href="#m"/></defs><g transform="translate(-0.1 0.262)"><g transform="translate(0)"><rect class="a" width="81" height="60" rx="7" transform="translate(0.1 -0.262)"/></g><g transform="translate(25.268 11.011)"><g transform="translate(0.824)"><path class="b" d="M-939.029,2107.872s.233.985,2.865.985h24.428a2.586,2.586,0,0,1,2.65,1.952s.035-.287-1.218-.287h-26.433c0-.018-1.719-.072-2.292-2.651Z" transform="translate(939.029 -2093.563)"/><path class="c" d="M-909.1,2107.229s.215-.627-2.418-.627h0l-25.287-.018h0a2.711,2.711,0,0,1-2.221-2.239,2.037,2.037,0,0,0,1.683.573h0l26.129.018h0c0-.018,1.522-.323,2.114,2.292Z" transform="translate(939.029 -2091.936)"/><path class="d" d="M-923.483,2083.371a13.414,13.414,0,0,0-10.6,5.785s-1.737,2.418-1.7,3.779a.678.678,0,0,0,.358.752h-2.042s-.645,0-.483-.752a13.45,13.45,0,0,1,4.334-7.575,16.875,16.875,0,0,1,10.136-4.065h0v2.077Z" transform="translate(938.544 -2081.294)"/><path class="e" d="M-930.382,2095.943s-.269,0-.34-.663a9.235,9.235,0,0,1,4.083-5.211,10.82,10.82,0,0,1,5.516-1.755h0v-2.131h0a12.855,12.855,0,0,0-7.182,2.471,13.074,13.074,0,0,0-4.513,6.412.736.736,0,0,0,.627.9h1.809Z" transform="translate(936.166 -2083.551)"/><path class="f" d="M-925.326,2098.247s-.358-.125-.089-.663a7.636,7.636,0,0,1,6.769-4.244h0v-2.167h0a10.387,10.387,0,0,0-7.307,3.6,6.267,6.267,0,0,0-1.54,2.794s-.108.7.466.7c.519-.018,1.7-.018,1.7-.018Z" transform="translate(933.707 -2085.855)"/><path class="g" d="M-919.812,2100.536s-.358-.2.072-.9c0,0,.573-1.218,3.492-1.5h0v-2.006h0a6.837,6.837,0,0,0-5.982,3.618s-.286.609.251.788h2.167Z" transform="translate(931.309 -2088.142)"/><path class="h" d="M-913.528,2101.1a3.668,3.668,0,0,0-2.167.466c-1.111.627-.824,1.254.107,1.254h2.06v-1.72Z" transform="translate(928.589 -2090.429)"/><path class="i" d="M-911.069,2124.19a13.381,13.381,0,0,0,10.6-5.8s1.737-2.382,1.7-3.743a.677.677,0,0,0-.359-.752h2.024s.645,0,.484.752a13.431,13.431,0,0,1-4.334,7.558,16.8,16.8,0,0,1-10.136,4.065h0v-2.078Z" transform="translate(926.13 -2096.343)"/><path class="j" d="M-901.794,2113.845s.269,0,.34.663c0,0-.573,2.829-4.084,5.193a10.82,10.82,0,0,1-5.516,1.755h0v2.131h0a12.852,12.852,0,0,0,7.181-2.472,13.08,13.08,0,0,0,4.513-6.393s.143-.823-.609-.9h-1.827Z" transform="translate(926.115 -2096.312)"/><path class="k" d="M-904.358,2113.845s.358.125.107.663a7.6,7.6,0,0,1-6.769,4.208h0v2.185h0a10.411,10.411,0,0,0,7.307-3.581,6.348,6.348,0,0,0,1.558-2.794s.089-.7-.466-.7c-.573.018-1.737.018-1.737.018Z" transform="translate(926.099 -2096.312)"/><path class="l" d="M-907.505,2113.86s.359.2-.089.9c0,0-.573,1.218-3.492,1.5h0v2.006h0a6.8,6.8,0,0,0,5.982-3.6s.3-.627-.251-.788h-2.149Z" transform="translate(926.13 -2096.327)"/><path class="m" d="M-911.053,2115.579a3.726,3.726,0,0,0,2.185-.466c1.092-.626.806-1.253-.125-1.253h-2.059v1.719Z" transform="translate(926.115 -2096.327)"/></g><g transform="translate(0 31.089)"><path class="n" d="M-938.016,2142.181c-.054-.25-.144-.537-.717-.537s-.645.215-.645.394c0,.627,2.507.179,2.507,1.648,0,1.164-1.128,1.379-1.755,1.379-.914,0-1.9-.323-1.934-1.4h1.092c0,.341.215.591.878.591.537,0,.68-.269.68-.412,0-.68-2.49-.161-2.49-1.666,0-.591.376-1.343,1.63-1.343.788,0,1.719.2,1.809,1.325h-1.056Z" transform="translate(940.559 -2139.87)"/><path class="o" d="M-932.028,2140.133h.663v.752h-.663v2.185h0c0,.233,0,.323.43.323a.853.853,0,0,0,.215-.018h0v.806h0c-.161,0-.34.019-.5.019h-.143c-.914,0-1.075-.341-1.075-.86h0V2140.9h-.537v-.752h.537v-1.111h1.057v1.092Z" transform="translate(937.365 -2139.041)"/><path class="p" d="M-925.4,2143.808a1.748,1.748,0,0,1-1.773,1.29h-.089v-.842h.089a.686.686,0,0,0,.68-.43h1.092v-.018Zm-1.862-2.937h0c.806,0,1.9.376,1.9,2.2h0v.2h-1.9v-.68h.824a.815.815,0,0,0-.824-.842h0Zm0,4.226c-1.092-.036-1.917-.591-1.917-2.2a1.855,1.855,0,0,1,1.917-2.023v.86c-.5,0-.77.322-.824.842h.824v.681h-.86c.036.286.089.931.86.985Z" transform="translate(935.308 -2139.886)"/><path class="q" d="M-921.4,2140.978h1v.7h.018a1.178,1.178,0,0,1,1.11-.806.684.684,0,0,1,.2.018h0v1.074h0a1.693,1.693,0,0,0-.3-.017.853.853,0,0,0-.967.967h0v2.095H-921.4v-4.03Z" transform="translate(931.714 -2139.886)"/><path class="r" d="M-913.114,2143.808a1.748,1.748,0,0,1-1.773,1.29h-.09v-.842h.09a.686.686,0,0,0,.68-.43h1.092v-.018Zm-1.863-2.937h.018c.788,0,1.88.376,1.88,2.2h0v.2h-1.917v-.68h.824a.815.815,0,0,0-.824-.842h0v-.877Zm0,4.226c-1.092-.036-1.9-.591-1.9-2.2a1.851,1.851,0,0,1,1.9-2.023v.86c-.5,0-.752.322-.824.842h.824v.681h-.841a.9.9,0,0,0,.841.985Z" transform="translate(929.626 -2139.886)"/><path class="s" d="M-907.083,2145.1h0v-.9h0c.824,0,.967-.717.967-1.218,0-.519-.144-1.218-.967-1.218h0v-.9h0a1.957,1.957,0,0,1,2.06,2.113,1.966,1.966,0,0,1-2.06,2.114Zm0,0a1.944,1.944,0,0,1-2.042-2.114,1.944,1.944,0,0,1,2.042-2.113v.9c-.824,0-.967.717-.967,1.218,0,.52.143,1.218.967,1.218Z" transform="translate(926.048 -2139.886)"/><path class="t" d="M-900.941,2140.978h1v.7h.018a1.179,1.179,0,0,1,1.111-.806.684.684,0,0,1,.2.018h0v1.074h0a1.7,1.7,0,0,0-.3-.017.853.853,0,0,0-.967.967h0v2.095h-1.057v-4.03Z" transform="translate(922.27 -2139.886)"/><path class="u" d="M-892.7,2143.808a1.748,1.748,0,0,1-1.773,1.29h-.089v-.842h.089a.686.686,0,0,0,.681-.43h1.093v-.018Zm-1.863-2.937h0c.806,0,1.9.376,1.9,2.2h0v.2h-1.9v-.68h.824a.815.815,0,0,0-.824-.842h0Zm0,4.226c-1.092-.036-1.916-.591-1.916-2.2a1.855,1.855,0,0,1,1.916-2.023v.86c-.5,0-.77.322-.824.842h.824v.681h-.86c.036.286.09.931.86.985Z" transform="translate(920.212 -2139.886)"/><path class="v" d="M-887.032,2145.01c-.5,1.486-.627,1.684-1.558,1.684a4.367,4.367,0,0,1-.483-.019h0v-.841h0c.054,0,.107.018.2.018.376,0,.591-.053.7-.609h0l-1.487-4.173h1.182l.86,2.956h.018l.824-2.956h1.11l-1.361,3.94Z" transform="translate(917.065 -2139.978)"/></g></g></g></svg>