<svg xmlns="http://www.w3.org/2000/svg" width="107" height="107" viewBox="0 0 107 107"><defs><style>.a{fill:#fff;stroke:#707070;stroke-width:0.5px;}.b{fill:#f6df00;}.c{fill:#0086c8;}.d{fill:#6d9d39;}.e{fill:#6d9e39;}.f{fill:#b90175;}.g{fill:#c96103;}.h{fill:#ab0e17;}.i{fill:#015298;}.j{fill:#ab0f18;}.k{fill:#c96104;}.l{fill:#b80175;}.m{stroke:none;}.n{fill:none;}</style></defs><g transform="translate(-427 -795)"><g class="a" transform="translate(427 795)"><rect class="m" width="107" height="107"/><rect class="n" x="0.25" y="0.25" width="106.5" height="106.5"/></g><g transform="translate(228 642)"><path class="b" d="M210.99,214.356H206q0-7.595,0-15.19c0-.136.03-.167.166-.166,1.608.005,3.216,0,4.824,0,0,.078,0,.156,0,.235q0,3.574,0,7.147v.22a.39.39,0,0,0,.164-.175q2.25-3.2,4.5-6.413a9.926,9.926,0,0,0,.684-1.014h5.023l-.014.036q-2.638,3.76-5.278,7.519c-.078.11-.041.181.022.271q.93,1.321,1.856,2.645l3.4,4.846.014.036h-5.023c0-.053-.036-.088-.063-.126q-2.589-3.695-5.179-7.388c-.021-.03-.033-.083-.1-.062v.195q0,1.742,0,3.483Q210.993,212.407,210.99,214.356Z"/><path class="b" d="M613.992,199.023h4.987c0,.072.006.144.006.216q0,3.592,0,7.184v.195c.082-.014.1-.074.124-.115q2.58-3.677,5.157-7.355c.026-.038.07-.069.061-.125h5.023l-.014.036q-2.641,3.766-5.285,7.529a.171.171,0,0,0,.011.236q2.639,3.756,5.274,7.515l.014.036h-5.023c.009-.056-.035-.087-.061-.125q-2.577-3.678-5.157-7.355c-.028-.041-.042-.1-.124-.115v.2q0,3.195,0,6.389c0,.337,0,.674-.006,1.011h-4.987Z" transform="translate(-346.556 -0.02)"/><path class="b" d="M419.334,214.375h-3.289c-.039-.013-.078-.03-.118-.039a7.8,7.8,0,0,1-4.528-2.958,7.963,7.963,0,0,1-1.379-2.991c0-.276-.01-.552-.009-.827q0-1.278.009-2.556a.677.677,0,0,0,.025-.066,7.793,7.793,0,0,1,4.682-5.5,13.406,13.406,0,0,1,1.282-.416h3.361c.024.033.063.03.1.039a7.8,7.8,0,0,1,5.484,4.675,10.951,10.951,0,0,1,.417,1.3v3.307a.747.747,0,0,0-.031.083,7.778,7.778,0,0,1-4.685,5.526A10.964,10.964,0,0,1,419.334,214.375Zm-1.651-11.559a3.878,3.878,0,1,0,3.891,3.79A3.895,3.895,0,0,0,417.682,202.816Z" transform="translate(-173.29 -0.02)"/><path class="b" d="M725.319,214.375h-3.289a.6.6,0,0,0-.082-.033,7.784,7.784,0,0,1-5.542-4.692,9.838,9.838,0,0,1-.409-1.283q0-1.668,0-3.335a.435.435,0,0,0,.028-.066,7.781,7.781,0,0,1,4.689-5.528,12.808,12.808,0,0,1,1.28-.415h3.361c.018.03.049.029.078.037a7.788,7.788,0,0,1,5.579,4.868c.144.355.218.731.342,1.092v3.323a.632.632,0,0,0-.032.083,7.776,7.776,0,0,1-4.5,5.451A10.093,10.093,0,0,1,725.319,214.375Zm-1.643-11.559a3.88,3.88,0,1,0,3.882,3.884A3.895,3.895,0,0,0,723.676,202.816Z" transform="translate(-433.201 -0.02)"/><path class="b" d="M529.71,214.375h-3.939c-.244-.06-.489-.118-.732-.181a8.165,8.165,0,0,1-3.564-1.932c-.077-.071-.165-.127-.073-.265q.935-1.405,1.853-2.821c.069-.106.109-.089.183-.011a5.048,5.048,0,0,0,.738.635,6.278,6.278,0,0,0,4.524,1.215,1.8,1.8,0,0,0,1.119-.492.791.791,0,0,0-.164-1.3,2.984,2.984,0,0,0-.34-.165,9.68,9.68,0,0,0-1.6-.429,17.8,17.8,0,0,1-2.938-.8,4.7,4.7,0,0,1-2.186-1.566,4.339,4.339,0,0,1-.584-3.874,4.607,4.607,0,0,1,2.97-3.076c.294-.116.6-.2.9-.3h3.686a1.161,1.161,0,0,0,.118.038,8.364,8.364,0,0,1,3.758,1.788c.114.1.134.155.041.286q-.935,1.307-1.848,2.629c-.1.139-.152.131-.272.034a6.488,6.488,0,0,0-3.866-1.46,2.608,2.608,0,0,0-1.326.189.866.866,0,0,0-.507.81.743.743,0,0,0,.493.673,3.692,3.692,0,0,0,.776.291c.852.238,1.726.385,2.58.614A8.7,8.7,0,0,1,532.136,206a3.649,3.649,0,0,1,1.406,1.586,4.891,4.891,0,0,1-.21,4.351,4.575,4.575,0,0,1-2.742,2.184C530.3,214.218,530,214.291,529.71,214.375Z" transform="translate(-267.875 -0.02)"/><path class="c" d="M380.663,205q0,1.278-.009,2.556c0,.276.006.552.009.827q0,1.984,0,3.968,0,1.01-.006,2.02h-5.2c0-.054.006-.108.006-.162q0-7.514,0-15.028c0-.054,0-.108-.006-.162h5.2c0,.078.006.156.006.234Q380.662,202.131,380.663,205Z" transform="translate(-143.934 -0.02)"/><path class="c" d="M307.921,199.059l.014-.036h5.2c0,.054-.006.108-.006.162q0,7.514,0,15.028c0,.054,0,.108.006.162h-5.2l-.014-.036c0-.06.008-.12.008-.18q0-7.46,0-14.921C307.929,199.179,307.924,199.119,307.921,199.059Z" transform="translate(-86.574 -0.02)"/><path class="b" d="M342.538,214.375c0-.054-.006-.108-.006-.162q0-7.514,0-15.028c0-.054,0-.108.006-.162h4.951c0,.054.006.108.006.162q0,7.514,0,15.028c0,.054,0,.108-.006.162Z" transform="translate(-115.973 -0.02)"/><path class="d" d="M517.918,199.023c-.3.1-.609.18-.9.3a4.608,4.608,0,0,0-2.97,3.076,4.339,4.339,0,0,0,.584,3.874,4.7,4.7,0,0,0,2.186,1.566,17.8,17.8,0,0,0,2.938.8,9.68,9.68,0,0,1,1.6.429,2.976,2.976,0,0,1,.341.165.791.791,0,0,1,.164,1.3,1.8,1.8,0,0,1-1.119.492,6.278,6.278,0,0,1-4.524-1.215,5.048,5.048,0,0,1-.738-.635c-.074-.078-.113-.1-.183.011q-.92,1.415-1.853,2.821c-.092.139,0,.194.073.265a8.165,8.165,0,0,0,3.564,1.932c.243.063.488.121.732.181h-5.818c0-.722,0-1.444,0-2.166q0-1.932-.006-3.864v-3.307c0-.426.006-.852.006-1.279q0-2.368,0-4.736Z" transform="translate(-259.913 -0.02)"/><path class="e" d="M553.968,214.375c.294-.085.591-.158.88-.257a4.576,4.576,0,0,0,2.742-2.184,4.891,4.891,0,0,0,.21-4.351A3.648,3.648,0,0,0,556.393,206a8.7,8.7,0,0,0-2.624-1.083c-.854-.23-1.728-.377-2.58-.614a3.694,3.694,0,0,1-.776-.291.743.743,0,0,1-.493-.673.866.866,0,0,1,.507-.81,2.607,2.607,0,0,1,1.326-.189,6.488,6.488,0,0,1,3.866,1.46c.121.1.176.105.272-.034q.914-1.322,1.848-2.629c.093-.13.073-.19-.041-.286a8.363,8.363,0,0,0-3.758-1.788,1.162,1.162,0,0,1-.118-.038h5.746v15.352Z" transform="translate(-292.133 -0.02)"/><path class="f" d="M652.457,199.023c.008.056-.035.087-.061.125q-2.577,3.679-5.157,7.355c-.029.041-.042.1-.124.115v-.195q0-3.592,0-7.184c0-.072,0-.144-.006-.216Z" transform="translate(-374.686 -0.02)"/><path class="g" d="M244.488,199.023a9.921,9.921,0,0,1-.684,1.014q-2.244,3.209-4.5,6.413a.391.391,0,0,1-.164.175v-.22q0-3.574,0-7.147c0-.078,0-.156,0-.235Z" transform="translate(-28.15 -0.02)"/><path class="f" d="M647.109,258.133c0-.337.006-.674.006-1.011q0-3.195,0-6.39v-.2c.082.014.1.075.124.115q2.58,3.677,5.157,7.355c.026.038.07.069.061.125Z" transform="translate(-374.686 -43.777)"/><path class="g" d="M239.14,258.211q0-1.949,0-3.9,0-1.742,0-3.483v-.195c.069-.021.081.032.1.062q2.591,3.693,5.179,7.388c.027.039.064.073.063.126Z" transform="translate(-28.15 -43.856)"/><path class="h" d="M477.956,260.932q0,1.932.006,3.864c0,.722,0,1.444,0,2.166h-6.035a10.973,10.973,0,0,0,1.318-.421,7.778,7.778,0,0,0,4.685-5.526A.759.759,0,0,1,477.956,260.932Z" transform="translate(-225.88 -52.606)"/><path class="i" d="M715.908,261.074a9.827,9.827,0,0,0,.409,1.283,7.784,7.784,0,0,0,5.542,4.692.612.612,0,0,1,.082.033h-6.035l-.014-.036c0-.072.008-.144.008-.216q0-2.256,0-4.512C715.9,261.9,715.906,261.489,715.908,261.074Z" transform="translate(-433.111 -52.727)"/><path class="j" d="M410.007,267.2q0-1.01.006-2.02,0-1.984,0-3.968A7.963,7.963,0,0,0,411.4,264.2a7.8,7.8,0,0,0,4.528,2.958c.04.01.079.026.118.039Z" transform="translate(-173.287 -52.844)"/><path class="h" d="M478.162,199.023q0,2.368,0,4.736c0,.426,0,.852-.006,1.279a10.946,10.946,0,0,0-.417-1.3,7.8,7.8,0,0,0-5.484-4.675c-.034-.009-.073-.006-.1-.039Z" transform="translate(-226.084 -0.02)"/><path class="i" d="M784.139,205c-.124-.361-.2-.737-.342-1.092a7.789,7.789,0,0,0-5.579-4.868c-.029-.007-.06-.007-.078-.037q2.927,0,5.854,0c.124,0,.148.024.148.148Q784.135,202.074,784.139,205Z" transform="translate(-485.986 0)"/><path class="j" d="M410.017,205q0-2.874,0-5.748c0-.078,0-.156-.006-.234h6a13.41,13.41,0,0,0-1.282.416,7.793,7.793,0,0,0-4.682,5.5A.654.654,0,0,1,410.017,205Z" transform="translate(-173.287 -0.02)"/><path class="i" d="M721.9,199.023a12.808,12.808,0,0,0-1.28.415,7.78,7.78,0,0,0-4.688,5.528.43.43,0,0,1-.028.066c0-.09-.007-.18-.007-.27q0-2.734,0-5.468c0-.078-.005-.156-.008-.234l.014-.036Z" transform="translate(-433.111 -0.02)"/><path class="i" d="M777.9,266.948a10.091,10.091,0,0,0,1.5-.5A7.776,7.776,0,0,0,783.9,261a.653.653,0,0,1,.032-.083q0,2.944,0,5.888c0,.124-.024.148-.148.148Q780.845,266.944,777.9,266.948Zm4.818-1.909a.672.672,0,0,0-.68.67.678.678,0,1,0,1.355.005A.674.674,0,0,0,782.718,265.039Z" transform="translate(-485.782 -52.592)"/><path class="k" d="M277.9,199.264c0,.06.008.12.008.18q0,7.46,0,14.921c0,.06-.005.12-.008.18l-3.4-4.846q-.928-1.323-1.856-2.645c-.063-.09-.1-.161-.022-.271Q275.263,203.026,277.9,199.264Z" transform="translate(-56.552 -0.224)"/><path class="l" d="M685.842,199.264c0,.078.008.156.008.234q0,2.734,0,5.468c0,.09,0,.18.007.27q0,1.668,0,3.335c0,.415-.007.83-.007,1.245q0,2.256,0,4.512c0,.072-.005.144-.008.216q-2.636-3.758-5.274-7.515a.171.171,0,0,1-.011-.235Q683.2,203.031,685.842,199.264Z" transform="translate(-403.062 -0.224)"/><path class="h" d="M439.083,224.212a3.879,3.879,0,1,1-3.878,3.892A3.913,3.913,0,0,1,439.083,224.212Z" transform="translate(-194.692 -21.415)"/><path class="i" d="M745.068,224.212a3.88,3.88,0,1,1-3.886,3.879A3.9,3.9,0,0,1,745.068,224.212Z" transform="translate(-454.593 -21.416)"/><path class="b" d="M806.058,288.3a.674.674,0,0,1,.675.675.678.678,0,1,1-1.355-.005A.673.673,0,0,1,806.058,288.3Zm-.523.673a.523.523,0,0,0,.522.529.535.535,0,0,0,.525-.532.545.545,0,0,0-.519-.524A.529.529,0,0,0,805.535,288.975Z" transform="translate(-509.122 -75.855)"/><path class="i" d="M806.419,289.8a.529.529,0,0,1,.528-.527.545.545,0,0,1,.519.524.535.535,0,0,1-.525.532A.523.523,0,0,1,806.419,289.8Zm.841.317c-.085-.167-.083-.166-.02-.358a.273.273,0,0,0,.005-.141c-.034-.141-.446-.258-.548-.158a.131.131,0,0,0-.018.083c0,.162,0,.325,0,.487,0,.058,0,.1.082.1s.107-.024.1-.1c0-.036-.025-.093.035-.105s.074.037.093.072C807.046,290.1,807.12,290.168,807.26,290.116Z" transform="translate(-510.007 -76.678)"/><path class="b" d="M808.717,290.965a.2.2,0,0,1-.272-.119c-.02-.035-.044-.082-.093-.072s-.037.069-.035.105c.006.078-.022.1-.1.1s-.082-.045-.081-.1c0-.162,0-.325,0-.487a.131.131,0,0,1,.018-.083c.1-.1.513.017.548.158a.271.271,0,0,1-.005.141C808.635,290.8,808.632,290.8,808.717,290.965Zm-.324-.352c.068,0,.129-.011.13-.077s-.067-.065-.118-.068-.092,0-.09.071S808.351,290.618,808.393,290.613Z" transform="translate(-511.464 -77.527)"/><path class="i" d="M809.41,291.724c-.042,0-.076-.007-.078-.073s.039-.074.09-.071.119-.006.119.068S809.477,291.722,809.41,291.724Z" transform="translate(-512.481 -78.638)"/></g></g></svg>