<svg xmlns="http://www.w3.org/2000/svg" width="107" height="107" viewBox="0 0 107 107"><defs><style>.a{fill:#fff;stroke:#707070;stroke-width:0.5px;}.b{fill:#0091d9;}.c{stroke:none;}.d{fill:none;}</style></defs><g transform="translate(-462 -870)"><g class="a" transform="translate(462 870)"><rect class="c" width="107" height="107"/><rect class="d" x="0.25" y="0.25" width="106.5" height="106.5"/></g><g transform="translate(271.742 641.317)"><g transform="translate(221.258 300.432)"><g transform="translate(0 0)"><path class="b" d="M227.719,456.113a3.11,3.11,0,0,1-3.305,3.248,2.909,2.909,0,0,1-3.031-1.993h1.111a2.059,2.059,0,0,0,1.921,1.032,2.12,2.12,0,0,0,2.246-2.286v-.633a2.83,2.83,0,0,1-2.183,1.067,3.172,3.172,0,1,1,0-6.343,2.814,2.814,0,0,1,2.22,1.114v-.962h1.022Zm-3.242-4.984a2.253,2.253,0,0,0,0,4.5,2.252,2.252,0,0,0,0-4.5Z" transform="translate(-221.258 -449.067)"/><path class="b" d="M256.266,456.395h-1.022v-.973a2.789,2.789,0,0,1-2.22,1.126,3.172,3.172,0,1,1,0-6.343,2.814,2.814,0,0,1,2.22,1.114v-.962h1.022Zm-3.242-5.241a2.222,2.222,0,1,0,2.183,2.239A2.229,2.229,0,0,0,253.023,451.154Z" transform="translate(-242.53 -449.067)"/><path class="b" d="M285.964,456.395h-1.048v-3.67a1.479,1.479,0,0,0-1.571-1.607,1.592,1.592,0,0,0-1.684,1.583v3.694H280.6v-6.039h1.023v.657a2.43,2.43,0,0,1,1.871-.809,2.345,2.345,0,0,1,2.47,2.556Z" transform="translate(-265.477 -449.067)"/><path class="b" d="M311.6,456.395h-1.022v-.973a2.789,2.789,0,0,1-2.22,1.126,3.172,3.172,0,1,1,0-6.343,2.814,2.814,0,0,1,2.22,1.114v-.962H311.6Zm-3.242-5.241a2.222,2.222,0,1,0,2.183,2.239A2.229,2.229,0,0,0,308.354,451.154Z" transform="translate(-283.759 -449.067)"/><path class="b" d="M336.746,456.547c-1.559,0-2.695-.786-2.869-2.064h1.073a1.662,1.662,0,0,0,1.8,1.137c1,0,1.609-.457,1.609-.985,0-.422-.175-.739-1.747-.938s-2.507-.563-2.507-1.7c0-.868.8-1.794,2.519-1.794,1.485,0,2.483.7,2.62,1.887h-1.072a1.419,1.419,0,0,0-1.547-.973c-.848,0-1.459.375-1.459.844,0,.434.362.586,1.622.774,1.421.211,2.594.469,2.594,1.841C339.377,455.785,338.28,456.547,336.746,456.547Z" transform="translate(-305.176 -449.067)"/><path class="b" d="M359.512,453.069a2.083,2.083,0,0,1-2.532-2.2V447.98h-.873v-.95h.873v-1.289h1.047v1.289h1.46v.95h-1.46v2.884c0,1.067.7,1.337,1.485,1.29Z" transform="translate(-321.74 -445.741)"/><path class="b" d="M376.925,454.519a2.989,2.989,0,0,1-3.031,2.017,3.167,3.167,0,1,1-.062-6.331,3.263,3.263,0,0,1,3.242,3.435h-5.4a2.2,2.2,0,0,0,2.22,1.993,1.993,1.993,0,0,0,1.909-1.114Zm-1.023-1.77a2.177,2.177,0,0,0-2.07-1.642,2.207,2.207,0,0,0-2.1,1.642Z" transform="translate(-332.541 -449.067)"/></g></g><g transform="translate(221.258 253.683)"><path class="b" d="M243.522,253.683c-12.3,0-22.264,9.476-22.264,21.169s9.969,21.166,22.264,21.166,22.27-9.475,22.27-21.166S255.82,253.683,243.522,253.683Zm-.461,28.015v.161c0,3.954-3.146,6.252-7.071,6.252-4.643,0-7.068-2.618-7.192-5.916h3.386l.008.086a3.351,3.351,0,0,0,3.616,2.816,3.288,3.288,0,0,0,3.565-3.4v-2.231h-.028a10.211,10.211,0,0,1-3.388.571c-4.226,0-7.24-2.562-7.4-5.781l0-.029v-7.3h3.653v7.208c0,1.638,1.9,2.961,3.615,2.961s3.586-1.26,3.586-2.9v-7.268l3.655,0Zm15.457-1.759h-3.511v-1.2a7.068,7.068,0,0,1-3.979,1.211,6.529,6.529,0,1,1,0-13.041,7.068,7.068,0,0,1,3.979,1.211v-1.211h3.511Z" transform="translate(-221.258 -253.683)"/><circle class="b" cx="3.612" cy="3.612" r="3.612" transform="translate(26.43 16.141)"/></g></g></g></svg>