<svg xmlns="http://www.w3.org/2000/svg" width="107" height="107" viewBox="0 0 107 107"><defs><style>.a{fill:#fff;stroke:#707070;stroke-width:0.5px;}.b{fill:#00d487;}.c{fill:#0479ec;}.d{stroke:none;}.e{fill:none;}</style></defs><g transform="translate(-1316 -795)"><g class="a" transform="translate(1316 795)"><rect class="d" width="107" height="107"/><rect class="e" x="0.25" y="0.25" width="106.5" height="106.5"/></g><g transform="translate(956.751 504.207)"><g transform="translate(376.509 328.793)"><g transform="translate(0 0)"><path class="b" d="M652.54,361.724c-.006-3.227,2.013-5.329,4.917-5.335,2.941-.006,5.006,2.168,5.013,5.335.007,3.409-2.35,5.148-4.6,5.153a3.453,3.453,0,0,1-3.095-1.708l.011,5.708-2.229,0Zm7.681-.1a2.739,2.739,0,1,0-2.729,3.011A2.752,2.752,0,0,0,660.221,361.628Z" transform="translate(-625.22 -352.935)"/><path class="b" d="M740.085,361.575c-.006-3.167,2.05-5.349,4.991-5.355,2.9-.006,4.931,2.108,4.938,5.315l.01,4.9-2.042,0,0-1.957a3.353,3.353,0,0,1-3.274,2.225C742.456,366.714,740.092,364.984,740.085,361.575Zm7.7-.116a2.739,2.739,0,1,0-2.71,3.011A2.738,2.738,0,0,0,747.785,361.459Z" transform="translate(-701.808 -352.787)"/><path class="b" d="M828.037,367.376l2.248,0a2.4,2.4,0,0,0,2.457,1.346c1.649,0,2.677-.832,2.673-3.152l0-.867a3.431,3.431,0,0,1-3.125,1.721c-2.211,0-4.574-1.584-4.581-5.114a4.938,4.938,0,0,1,4.973-5.254c2.923-.006,4.95,2.088,4.956,5.315l.008,4.115c.008,3.812-2.181,5.309-4.9,5.314A4.411,4.411,0,0,1,828.037,367.376Zm7.37-6.086a2.739,2.739,0,1,0-5.452.011,2.73,2.73,0,1,0,5.452-.011Z" transform="translate(-778.463 -352.64)"/><path class="b" d="M915.319,361.138a4.99,4.99,0,1,1,4.994,5.234A4.938,4.938,0,0,1,915.319,361.138Zm7.7-.015a2.739,2.739,0,1,0-2.71,3.011A2.738,2.738,0,0,0,923.019,361.123Z" transform="translate(-855.11 -352.493)"/><path class="b" d="M1003.163,363.023l2.248,0c.02.666.564,1.108,1.651,1.106,1.143,0,1.629-.507,1.628-1.113,0-.766-.826-.866-1.819-1-1.424-.2-3.523-.457-3.528-2.9,0-2.037,1.436-3.371,3.665-3.376,2.267,0,3.656,1.364,3.715,3.119l-2.211,0c-.057-.6-.583-1.027-1.463-1.026-.974,0-1.46.507-1.459,1.092,0,.766.845.886,1.838,1.025,1.237.179,3.5.437,3.509,2.918,0,2.017-1.511,3.351-3.871,3.356S1003.223,364.879,1003.163,363.023Z" transform="translate(-931.96 -352.362)"/><path class="c" d="M434.249,361.31c-.006-3.126,1.677-4.542,3.869-4.546a3.541,3.541,0,0,1,3.207,1.789,3.5,3.5,0,0,1,3.2-1.8c2.192,0,3.881,1.4,3.887,4.531l.011,5.688-2.229,0-.011-5.688c0-1.634-.792-2.3-1.878-2.3-1.068,0-1.853.689-1.85,2.3l.011,5.688-2.229,0-.011-5.688c0-1.614-.81-2.3-1.878-2.3-1.087,0-1.872.669-1.869,2.3l.011,5.688-2.229,0Z" transform="translate(-434.249 -353.252)"/><path class="c" d="M555.713,330.032a1.139,1.139,0,1,1,2.269,0,1.138,1.138,0,1,1-2.269,0Zm.04,2.513,2.23,0L558,342.5l-2.229,0Z" transform="translate(-540.511 -328.793)"/><path class="c" d="M582.212,363.858l2.248,0c.02.666.564,1.108,1.651,1.106,1.143,0,1.629-.507,1.628-1.113,0-.766-.826-.866-1.819-1-1.424-.2-3.523-.457-3.528-2.9,0-2.037,1.436-3.371,3.665-3.376,2.267,0,3.656,1.364,3.716,3.119l-2.211,0c-.057-.605-.583-1.027-1.463-1.026-.974,0-1.46.507-1.459,1.092,0,.766.845.886,1.838,1.025,1.237.179,3.5.437,3.509,2.918,0,2.017-1.511,3.351-3.871,3.356S582.272,365.713,582.212,363.858Z" transform="translate(-563.694 -353.093)"/></g><path class="b" d="M1074.492,422.485a.712.712,0,1,1-.714-.709A.716.716,0,0,1,1074.492,422.485Zm-1.087.473h.148v-.39h.088c.114,0,.159.041.273.246l.083.144h.18l-.11-.18c-.076-.122-.135-.2-.215-.226v-.007a.259.259,0,0,0,.263-.263c0-.1-.076-.243-.3-.243h-.407Zm.148-.516v-.275h.239c.1,0,.165.051.165.134s-.078.141-.19.141Zm1.081.042a.854.854,0,1,0-.855.855A.852.852,0,0,0,1074.633,422.485Z" transform="translate(-992.991 -410.014)"/></g><g transform="translate(368.249 345.527)"><g transform="translate(0 0)"><path class="b" d="M534.4,487.562c0-2.456,1.532-4.056,3.742-4.06a3.767,3.767,0,0,1,3.815,4.061,3.6,3.6,0,0,1-3.5,3.922,2.629,2.629,0,0,1-2.355-1.3l.009,4.344-1.7,0Zm5.846-.073a2.085,2.085,0,1,0-2.077,2.292A2.094,2.094,0,0,0,540.243,487.489Z" transform="translate(-513.602 -480.873)"/><path class="b" d="M601.03,487.449a3.767,3.767,0,0,1,3.8-4.076,3.71,3.71,0,0,1,3.758,4.045l.008,3.73-1.554,0,0-1.489a2.552,2.552,0,0,1-2.492,1.694A3.6,3.6,0,0,1,601.03,487.449Zm5.86-.088a2.085,2.085,0,1,0-2.063,2.292A2.084,2.084,0,0,0,606.89,487.36Z" transform="translate(-571.896 -480.76)"/><path class="b" d="M667.974,491.865l1.711,0a1.823,1.823,0,0,0,1.87,1.025c1.255,0,2.038-.633,2.034-2.4v-.66a2.611,2.611,0,0,1-2.379,1.31c-1.683,0-3.482-1.206-3.487-3.892a3.758,3.758,0,0,1,3.785-4c2.225,0,3.768,1.589,3.773,4.045l.006,3.132c.006,2.9-1.66,4.041-3.728,4.045A3.358,3.358,0,0,1,667.974,491.865Zm5.609-4.632a2.085,2.085,0,1,0-4.15.008,2.078,2.078,0,1,0,4.15-.008Z" transform="translate(-630.241 -480.648)"/><path class="b" d="M734.406,487.116a3.8,3.8,0,1,1,3.8,3.984A3.758,3.758,0,0,1,734.406,487.116Zm5.86-.012A2.085,2.085,0,1,0,738.2,489.4,2.084,2.084,0,0,0,740.266,487.1Z" transform="translate(-688.579 -480.536)"/><path class="b" d="M801.266,488.551l1.711,0c.015.507.43.844,1.256.842.87,0,1.24-.386,1.239-.847,0-.583-.629-.659-1.385-.765-1.084-.151-2.681-.348-2.685-2.205a2.834,2.834,0,0,1,5.618-.2l-1.683,0c-.044-.46-.444-.782-1.114-.781-.742,0-1.112.386-1.111.831,0,.583.643.674,1.4.78.942.136,2.667.332,2.671,2.221,0,1.535-1.15,2.551-2.947,2.554S801.312,489.963,801.266,488.551Z" transform="translate(-747.071 -480.437)"/><path class="c" d="M368.249,487.247c0-2.38,1.276-3.457,2.945-3.46a2.7,2.7,0,0,1,2.441,1.361,2.665,2.665,0,0,1,2.436-1.371c1.668,0,2.954,1.069,2.959,3.448l.009,4.329-1.7,0-.009-4.329c0-1.244-.6-1.749-1.429-1.747s-1.411.525-1.408,1.753l.009,4.329-1.7,0-.009-4.329c0-1.228-.617-1.749-1.429-1.747s-1.425.509-1.422,1.753l.009,4.329-1.7,0Z" transform="translate(-368.249 -481.114)"/><path class="c" d="M460.7,463.441a.867.867,0,1,1,1.727,0,.866.866,0,1,1-1.727,0Zm.03,1.912,1.7,0,.015,7.584-1.7,0Z" transform="translate(-449.128 -462.498)"/><path class="c" d="M480.868,489.186l1.711,0c.015.507.429.844,1.257.842.87,0,1.24-.386,1.239-.847,0-.583-.629-.659-1.385-.765-1.084-.151-2.681-.348-2.685-2.205a2.834,2.834,0,0,1,5.618-.2l-1.683,0c-.044-.46-.444-.782-1.114-.781-.741,0-1.112.386-1.111.831,0,.583.643.674,1.4.78.941.136,2.667.332,2.671,2.221,0,1.535-1.15,2.551-2.947,2.554S480.914,490.6,480.868,489.186Z" transform="translate(-466.773 -480.992)"/><path class="b" d="M987.558,533.809a.542.542,0,1,1-.544-.54A.545.545,0,0,1,987.558,533.809Zm-.828.36h.112v-.3h.067c.086,0,.121.031.208.187l.063.11h.137l-.084-.137c-.058-.093-.1-.151-.164-.172v-.005a.2.2,0,0,0,.2-.2c0-.078-.058-.185-.23-.185h-.31Zm.112-.392v-.209h.182c.073,0,.125.039.125.1s-.059.107-.145.107Zm.822.032a.65.65,0,1,0-.651.65A.648.648,0,0,0,987.665,533.809Z" transform="translate(-909.004 -524.317)"/></g><g transform="translate(60.446 5.737)"><g transform="translate(1.537)"><path class="b" d="M863.492,510.665a2.091,2.091,0,0,1,2.109-2.222,2,2,0,0,1,2.029,1.692h-.951a1.108,1.108,0,0,0-1.078-.743,1.279,1.279,0,0,0,0,2.547,1.108,1.108,0,0,0,1.078-.744h.951a2,2,0,0,1-2.029,1.692A2.091,2.091,0,0,1,863.492,510.665Z" transform="translate(-863.492 -508.43)"/><path class="b" d="M898,510.606a2.108,2.108,0,1,1,2.1,2.226A2.091,2.091,0,0,1,898,510.606Zm3.252,0a1.157,1.157,0,1,0-1.147,1.276A1.16,1.16,0,0,0,901.25,510.606Z" transform="translate(-893.679 -508.375)"/><path class="b" d="M934.2,510.267c0-1.329.715-1.929,1.646-1.929a1.5,1.5,0,0,1,1.359.763,1.485,1.485,0,0,1,1.359-.763c.93,0,1.645.6,1.645,1.929v2.418h-.946v-2.418c0-.695-.334-.978-.795-.978s-.787.291-.787.978v2.418h-.946v-2.418c0-.686-.342-.978-.795-.978s-.8.283-.8.978v2.418H934.2Z" transform="translate(-925.349 -508.338)"/></g><g transform="translate(0 3.107)"><path class="b" d="M851.214,533.809a.649.649,0,1,1,.649.649A.635.635,0,0,1,851.214,533.809Z" transform="translate(-851.214 -533.16)"/></g></g></g></g></g></svg>