<svg xmlns="http://www.w3.org/2000/svg" xmlns:xlink="http://www.w3.org/1999/xlink" width="138" height="110" viewBox="0 0 138 110"><defs><style>.a{fill:url(#a);}.b{fill:#dd1a1d;}.c{filter:url(#b);}</style><linearGradient id="a" x1="0.5" y1="0.31" x2="0.5" y2="1" gradientUnits="objectBoundingBox"><stop offset="0" stop-color="#fff"/><stop offset="1" stop-color="#bfbfbf"/></linearGradient><filter id="b" x="0" y="0" width="138" height="110" filterUnits="userSpaceOnUse"><feOffset dy="3" input="SourceAlpha"/><feGaussianBlur stdDeviation="4" result="c"/><feFlood flood-opacity="0.424"/><feComposite operator="in" in2="c"/><feComposite in="SourceGraphic"/></filter></defs><g transform="translate(-590 -1018)"><g transform="translate(602 1027)"><g class="c" transform="matrix(1, 0, 0, 1, -12, -9)"><rect class="a" width="114" height="86" rx="5" transform="translate(12 9)"/></g></g><g transform="translate(368.659 502.319)"><g transform="translate(249.341 557.681)"><path class="b" d="M250.639,557.686h17.506l-.7,5.72h-17.5Z" transform="translate(-248.162 -557.672)"/><path class="b" d="M290.173,563.409H270.418l.706-5.719s11.207-.015,14.831,0c2.342.012,4.682,1.058,4.33,4.827Z" transform="translate(-208.158 -557.676)"/><path class="b" d="M271.321,560.372h6.714l-1.509,12.408h-6.71Z" transform="translate(-209.333 -552.422)"/><path class="b" d="M275.737,560.372h6.715l-1.509,12.408h-6.71Z" transform="translate(-200.705 -552.422)"/><path class="b" d="M250.849,560.372h17.507l-.565,4.648h-10.8l-.307,2.375H267.5l-.656,5.384h-17.5Z" transform="translate(-249.341 -552.422)"/><path class="b" d="M264.454,560.372l-1.524,12.409h6.714l.957-7.76h7.8c2.31-.012,4.472-1.217,4.942-4.649Z" transform="translate(-222.789 -552.423)"/><path class="b" d="M292.506,557.681H261.7a5.39,5.39,0,0,0-5.2,4.643l-.136,1.117h40.087l.136-1.117A4.026,4.026,0,0,0,292.506,557.681Z" transform="translate(-235.626 -557.681)"/><path class="b" d="M270.687,572.781c-.39.015-14.926,0-14.926,0l.653-5.385H269.57l.281-2.372h-8.584a1.863,1.863,0,0,1-.245-.012,3.99,3.99,0,0,1-3.8-3.893,7.054,7.054,0,0,1,.027-.747h15.029c2.36.027,4.342,1.235,4.177,4.478l-.422,3.4A5.006,5.006,0,0,1,270.687,572.781Z" transform="translate(-236.796 -552.423)"/></g></g></g></svg>