<svg xmlns="http://www.w3.org/2000/svg" xmlns:xlink="http://www.w3.org/1999/xlink" width="138" height="110" viewBox="0 0 138 110"><defs><style>.a{fill:url(#a);}.b{fill:#dd1a1d;}.c{filter:url(#b);}</style><linearGradient id="a" x1="0.5" y1="0.31" x2="0.5" y2="1" gradientUnits="objectBoundingBox"><stop offset="0" stop-color="#fff"/><stop offset="1" stop-color="#bfbfbf"/></linearGradient><filter id="b" x="0" y="0" width="138" height="110" filterUnits="userSpaceOnUse"><feOffset dy="3" input="SourceAlpha"/><feGaussianBlur stdDeviation="4" result="c"/><feFlood flood-opacity="0.424"/><feComposite operator="in" in2="c"/><feComposite in="SourceGraphic"/></filter></defs><g transform="translate(-711 -1018)"><g transform="translate(723 1027)"><g class="c" transform="matrix(1, 0, 0, 1, -12, -9)"><rect class="a" width="114" height="86" rx="5" transform="translate(12 9)"/></g></g><g transform="translate(447.888 502.928)"><path class="b" d="M316.215,558.111l13.522-.037s2.941-.144,2.725,2.26l-.68,6.957a2.371,2.371,0,0,1-2.26,2.082H321.47l-.235,2.226h10.117l-.5,4.806H314.062l1.041-8.681s.107-2.511,2.367-2.511h8l.179-2.188H315.639Z" transform="translate(46.638 0)"/><g transform="translate(286.112 558.108)"><path class="b" d="M287.365,558.1l15.676,0-.583,5.133H286.721Z" transform="translate(-285.096 -558.066)"/><path class="b" d="M297.839,558.129c2.922,0,26.355-.029,28.106,0a3.284,3.284,0,0,1,3.218,3.285,9.507,9.507,0,0,1-.16,1.8l-35.912-.013s.133-.883.248-1.668A4.746,4.746,0,0,1,297.839,558.129Z" transform="translate(-274.465 -558.035)"/><path class="b" d="M307.663,558.1s10.058-.021,13.306-.005c2.1.008,4.2.99,3.885,4.374-.093,1-.067.8-.067.8l-17.738-.013Z" transform="translate(-251.176 -558.086)"/><path class="b" d="M292.587,571.944l.582-4.83,11.579-.011.214-2.14s-7.277.016-8.452-.027c-1.655-.061-3.269-1.241-2.818-4.166,3.082-.029,12.425-.027,13.469-.016,2.111.016,3.891,1.163,3.749,4.072a14.612,14.612,0,0,1-.95,4.814,4.3,4.3,0,0,1-4.232,2.3C305.38,571.958,292.587,571.944,292.587,571.944Z" transform="translate(-275.308 -553.645)"/><path class="b" d="M317.917,560.782s-.171.966-.294,1.59a2.8,2.8,0,0,1-2.893,2.514h-8.209l-.987,7h-5.94l1.412-11.1Z" transform="translate(-263.615 -553.587)"/><path class="b" d="M307.9,560.782l6.125,0-1.588,11.066-6.055,0Z" transform="translate(-252.296 -553.587)"/><path class="b" d="M312.232,560.782l5.947,0-1.41,11.1-5.948,0Z" transform="translate(-244.881 -553.587)"/><path class="b" d="M287.461,560.756h15.776l-.56,4.246-9.759.01-.276,2.077,9.76.011-.582,4.86H286.112Z" transform="translate(-286.112 -553.63)"/></g></g></g></svg>