<svg xmlns="http://www.w3.org/2000/svg" xmlns:xlink="http://www.w3.org/1999/xlink" width="138" height="110" viewBox="0 0 138 110"><defs><style>.a{fill:url(#a);}.b{fill:none;}.c{fill:#161615;}.d{fill:#dd1a1d;}.e{filter:url(#b);}</style><linearGradient id="a" x1="0.5" y1="0.31" x2="0.5" y2="1" gradientUnits="objectBoundingBox"><stop offset="0" stop-color="#fff"/><stop offset="1" stop-color="#bfbfbf"/></linearGradient><filter id="b" x="0" y="0" width="138" height="110" filterUnits="userSpaceOnUse"><feOffset dy="3" input="SourceAlpha"/><feGaussianBlur stdDeviation="4" result="c"/><feFlood flood-opacity="0.424"/><feComposite operator="in" in2="c"/><feComposite in="SourceGraphic"/></filter></defs><g transform="translate(-506 -1194)"><g transform="translate(518 1203)"><g class="e" transform="matrix(1, 0, 0, 1, -12, -9)"><rect class="a" width="114" height="86" rx="5" transform="translate(12 9)"/></g></g><g transform="translate(522.855 1206.769)"><g transform="translate(0 0)"><rect class="b" width="105" height="78" rx="7" transform="translate(0.145 0.231)"/></g><g transform="translate(16.936 25.539)"><path class="c" d="M510.1,599.168l-.163,1.328h-3.882c-.116,0-.173.07-.188.186l-.227,1.844H508.7l-.162,1.326h-3.057l-.24,1.961c-.016.116.023.2.139.2h3.882l-.162,1.316h-4.674c-.653,0-.9-.348-.831-.908l.777-6.341a.957.957,0,0,1,1.058-.911Z" transform="translate(-503.581 -576.89)"/><path class="c" d="M513.068,604.461l-2.113,2.866h-1.736l3.1-4.091-2.064-4.068h1.806l1.372,2.8,2.056-2.8h1.749l-3.07,4.024,2.115,4.135h-1.821Z" transform="translate(-494.676 -576.891)"/><path class="c" d="M517.23,607.327l.838-6.841H515.69l.165-1.318h6.354l-.163,1.318h-2.391l-.841,6.841Z" transform="translate(-484.454 -576.89)"/><path class="c" d="M521.525,607.328l1-8.159h4.115c1.305,0,1.749.862,1.592,2.157l-.085.679a2.2,2.2,0,0,1-1.522,2.061l1.009,3.263h-1.69l-.962-3.181H523.5l-.392,3.181Zm4.411-4.512c.384,0,.583-.173.635-.593l.137-1.12c.052-.431-.1-.606-.488-.606h-2.273l-.284,2.319Z" transform="translate(-475.236 -576.89)"/><path class="c" d="M532.583,605.665h-2.951l-.709,1.69h-1.54l3.217-7.4c.214-.5.425-.8.905-.8h.885c.49,0,.63.292.717.8l1.388,7.4h-1.62Zm-2.409-1.282h2.18l-.632-3.673Z" transform="translate(-465.983 -576.92)"/><path class="d" d="M541.6,590.532s-24.234,0-25.616,0c-2.623-.005-4.36,1.378-4.6,3.447-.09.761-.175,1.434-.175,1.434h34.127s.067-.506.116-.911c.258-2.082-.629-3.97-3.846-3.97" transform="translate(-491.543 -590.532)"/><path class="d" d="M535.012,593.144s-.075.689-.178,1.44c-.206,1.488-1.316,2.593-3.377,2.593h-7.264l-.818,6.614h-5.784l1.308-10.646h16.113" transform="translate(-481.45 -586.406)"/><path class="d" d="M520.823,590.532l-.6,4.881H504.749l.6-4.881Z" transform="translate(-501.736 -590.532)"/><path class="d" d="M505.462,593.144h15.475l-.5,4.035h-9.689l-.245,1.992H520.2l-.57,4.62H504.154Z" transform="translate(-502.677 -586.405)"/><path class="d" d="M525.486,590.532h12.622c1.994,0,4.063.926,3.653,4.13-.075.573-.1.751-.1.751H524.89l.6-4.881" transform="translate(-469.92 -590.532)"/><path class="d" d="M525.6,593.143l5.789,0-1.308,10.644-5.789,0Z" transform="translate(-470.864 -586.407)"/><path class="d" d="M529.863,593.143l5.786,0-1.308,10.644-5.786,0Z" transform="translate(-464.13 -586.407)"/><path class="d" d="M524.628,593.146l-12.713,0c-.426,2.778.967,4.035,2.938,4.035l7.829,0-.245,1.994H511.174l-.568,4.62s12.261,0,12.762,0c.41-.031,3.276-.108,4.254-2.453a27.978,27.978,0,0,0,.676-4.066c.451-3.33-1.855-4.125-3.671-4.125" transform="translate(-492.483 -586.406)"/></g></g></g></svg>