<svg xmlns="http://www.w3.org/2000/svg" width="170.141" height="37.983" viewBox="0 0 170.141 37.983"><defs><style>.a{fill:red;}.b{fill:#fff;}.c{fill:#282828;}</style></defs><g transform="translate(-84.55 -85.039)"><g transform="translate(84.55 85.039)"><path class="a" d="M137.677,90.97a6.8,6.8,0,0,0-4.8-4.8c-4.232-1.134-21.2-1.134-21.2-1.134s-16.968,0-21.2,1.134a6.8,6.8,0,0,0-4.8,4.8C84.55,95.2,84.55,104.031,84.55,104.031s0,8.829,1.134,13.061a6.8,6.8,0,0,0,4.8,4.8c4.232,1.134,21.2,1.134,21.2,1.134s16.968,0,21.2-1.134a6.8,6.8,0,0,0,4.8-4.8c1.134-4.232,1.134-13.061,1.134-13.061S138.811,95.2,137.677,90.97Z" transform="translate(-84.55 -85.039)"/><path class="b" d="M133.144,125.615l14.1-8.139-14.1-8.139Z" transform="translate(-111.439 -98.484)"/></g><g transform="translate(144.179 86.533)"><g transform="translate(0 0)"><path class="c" d="M257.207,133.223a5.908,5.908,0,0,1-2.289-3.376,22.076,22.076,0,0,1-.679-6.092V120.3a20.02,20.02,0,0,1,.776-6.17,6.19,6.19,0,0,1,2.425-3.4,7.855,7.855,0,0,1,4.327-1.067,7.38,7.38,0,0,1,4.23,1.087,6.229,6.229,0,0,1,2.328,3.4,20.824,20.824,0,0,1,.737,6.15v3.453a21.179,21.179,0,0,1-.718,6.112,6,6,0,0,1-2.328,3.376,9.545,9.545,0,0,1-8.808-.02Zm6.015-3.725a11.606,11.606,0,0,0,.446-3.8v-7.411a11.469,11.469,0,0,0-.446-3.745,1.6,1.6,0,0,0-1.572-1.184,1.574,1.574,0,0,0-1.532,1.184,11.445,11.445,0,0,0-.446,3.745v7.411a12.079,12.079,0,0,0,.427,3.8,1.561,1.561,0,0,0,1.552,1.164A1.594,1.594,0,0,0,263.222,129.5Z" transform="translate(-238.076 -100.162)"/><path class="c" d="M438.916,123.833v1.2a31.612,31.612,0,0,0,.136,3.434,3.255,3.255,0,0,0,.563,1.669,1.6,1.6,0,0,0,1.319.524,1.661,1.661,0,0,0,1.649-.932,8.1,8.1,0,0,0,.485-3.1l4.618.272a7.281,7.281,0,0,1,.039.854,6.31,6.31,0,0,1-1.8,4.928,7.349,7.349,0,0,1-5.1,1.63q-3.958,0-5.549-2.483t-1.591-7.683v-4.152q0-5.355,1.649-7.819t5.646-2.464a7.464,7.464,0,0,1,4.23,1.009,5.417,5.417,0,0,1,2.076,3.143,22.732,22.732,0,0,1,.6,5.9v4.074Zm.679-10.011a3.272,3.272,0,0,0-.543,1.649,32.111,32.111,0,0,0-.136,3.473v1.708h3.919v-1.708a28.919,28.919,0,0,0-.155-3.473,3.324,3.324,0,0,0-.563-1.669,1.555,1.555,0,0,0-1.261-.485A1.526,1.526,0,0,0,439.595,113.822Z" transform="translate(-337.368 -100.183)"/><path class="c" d="M224.144,113.077l-6.092-22h5.316l2.134,9.973q.815,3.687,1.2,6.286h.155q.271-1.863,1.2-6.247l2.211-10.012h5.316l-6.17,22v10.555h-5.277Z" transform="translate(-218.052 -89.873)"/><path class="c" d="M308.157,110.711V134.5h-4.191l-.466-2.91h-.116a5.479,5.479,0,0,1-5.122,3.3,4.023,4.023,0,0,1-3.492-1.552,8.331,8.331,0,0,1-1.125-4.85V110.711H299v17.462a5.331,5.331,0,0,0,.349,2.27,1.208,1.208,0,0,0,1.164.679,2.374,2.374,0,0,0,1.339-.427,2.643,2.643,0,0,0,.951-1.086v-18.9Z" transform="translate(-259.881 -100.738)"/><path class="c" d="M369.653,110.711V134.5h-4.191l-.466-2.91h-.116a5.479,5.479,0,0,1-5.122,3.3,4.023,4.023,0,0,1-3.492-1.552,8.327,8.327,0,0,1-1.125-4.85V110.711h5.355v17.462a5.332,5.332,0,0,0,.349,2.27,1.208,1.208,0,0,0,1.164.679,2.376,2.376,0,0,0,1.339-.427,2.642,2.642,0,0,0,.951-1.086v-18.9Z" transform="translate(-293.909 -100.738)"/><path class="c" d="M339.052,95.384h-5.316v28.249H328.5V95.384h-5.316V91.077h15.87Z" transform="translate(-276.225 -89.874)"/><path class="c" d="M409.355,102.158a6.119,6.119,0,0,0-1.572-3.259A4.222,4.222,0,0,0,404.8,97.89a4.956,4.956,0,0,0-2.755.834,5.669,5.669,0,0,0-1.979,2.193h-.039V88.383h-5.161v33.759h4.424l.543-2.251h.117a4.542,4.542,0,0,0,1.863,1.9,5.519,5.519,0,0,0,2.755.7,4.217,4.217,0,0,0,4-2.5q1.28-2.5,1.281-7.819v-3.764A31.263,31.263,0,0,0,409.355,102.158Zm-4.909,9.7a30.082,30.082,0,0,1-.214,4.074,4.4,4.4,0,0,1-.718,2.1,1.659,1.659,0,0,1-1.358.621,2.477,2.477,0,0,1-1.222-.31,2.336,2.336,0,0,1-.912-.931v-13.5a3.378,3.378,0,0,1,.931-1.591,2.061,2.061,0,0,1,1.436-.621,1.449,1.449,0,0,1,1.261.64,4.923,4.923,0,0,1,.621,2.154,40.244,40.244,0,0,1,.175,4.307Z" transform="translate(-315.89 -88.383)"/></g></g></g></svg>