<svg xmlns="http://www.w3.org/2000/svg" xmlns:xlink="http://www.w3.org/1999/xlink" width="328.783" height="90.845" viewBox="0 0 328.783 90.845"><defs><style>.a{fill:url(#a);}.b,.c{fill:#fff;}.b{font-size:18px;font-family:Arial-BoldMT, Arial;font-weight:700;}.d{filter:url(#e);}.e{filter:url(#b);}</style><linearGradient id="a" x1="0.5" x2="0.5" y2="1" gradientUnits="objectBoundingBox"><stop offset="0" stop-color="#f43d32"/><stop offset="1" stop-color="#ba0d0b"/></linearGradient><filter id="b" x="0" y="6" width="328.783" height="84.845" filterUnits="userSpaceOnUse"><feOffset dy="6" input="SourceAlpha"/><feGaussianBlur stdDeviation="3" result="c"/><feFlood flood-opacity="0.424"/><feComposite operator="in" in2="c"/><feComposite in="SourceGraphic"/></filter><filter id="e" x="242" y="0" width="86.783" height="84.845" filterUnits="userSpaceOnUse"><feOffset input="SourceAlpha"/><feGaussianBlur stdDeviation="3" result="f"/><feFlood flood-opacity="0.424"/><feComposite operator="in" in2="f"/><feComposite in="SourceGraphic"/></filter></defs><g transform="translate(-564 -2321)"><g class="e" transform="matrix(1, 0, 0, 1, 564, 2321)"><rect class="a" width="310.783" height="66.845" rx="13" transform="translate(9 9)"/></g><text class="b" transform="translate(694 2359)"><tspan x="-106.515" y="0">¡SUSCRÍBETE AHORA Y </tspan><tspan x="-103.988" y="21">ACTIVA LA CAMPANITA </tspan></text><g class="d" transform="matrix(1, 0, 0, 1, 564, 2321)"><path class="a" d="M0,0H55.783a13,13,0,0,1,13,13V53.845a13,13,0,0,1-13,13H0a0,0,0,0,1,0,0V0A0,0,0,0,1,0,0Z" transform="translate(251 9)"/></g><g transform="translate(461.862 1851.776)"><g transform="translate(373.055 496.055)"><path class="c" d="M403.3,522.055a3.184,3.184,0,0,0-1.22-2.177,6.842,6.842,0,0,1-2.713-4.315c-.349-3,.488-13.742-8.3-15l-.026,0a1.949,1.949,0,0,1,.082-.848l0-.011,0-.006h0a2.3,2.3,0,1,0-4.317.038,1.928,1.928,0,0,1,.073.842c-8.68,1.325-7.852,11.994-8.2,14.981a6.84,6.84,0,0,1-2.713,4.315,3.182,3.182,0,0,0-1.219,2.177c-.218,2.261,2.4,2.018,2.4,2.018H400.9S403.516,524.315,403.3,522.055Z" transform="translate(-374.738 -496.629)"/><g transform="translate(10.425 28.874)"><path class="c" d="M399.379,557.465a3.913,3.913,0,0,0,3.861-3.283h-7.722A3.913,3.913,0,0,0,399.379,557.465Z" transform="translate(-395.518 -554.182)"/></g></g><g transform="translate(392.38 495.478)"><path class="c" d="M414.167,500.977a12.878,12.878,0,0,1,6.7,11.423.65.65,0,0,1-.614.65h0a.649.649,0,0,1-.683-.646,11.907,11.907,0,0,0-6.01-10.356.614.614,0,0,1-.174-.911h0A.614.614,0,0,1,414.167,500.977Z" transform="translate(-413.258 -498.181)"/><path class="c" d="M417.694,495.569a15.577,15.577,0,0,1,8.11,13.819.787.787,0,0,1-.743.786h0a.785.785,0,0,1-.826-.782,14.4,14.4,0,0,0-7.27-12.528.742.742,0,0,1-.211-1.1h0A.742.742,0,0,1,417.694,495.569Z" transform="translate(-414.921 -495.478)"/></g><g transform="translate(371.36 495.478)"><path class="c" d="M384.583,500.977a12.879,12.879,0,0,0-6.7,11.423.65.65,0,0,0,.614.65h0a.649.649,0,0,0,.683-.646,11.907,11.907,0,0,1,6.01-10.356.613.613,0,0,0,.174-.911h0A.614.614,0,0,0,384.583,500.977Z" transform="translate(-374.608 -498.181)"/><path class="c" d="M379.47,495.569a15.578,15.578,0,0,0-8.11,13.819.787.787,0,0,0,.743.786h0a.786.786,0,0,0,.826-.782,14.4,14.4,0,0,1,7.27-12.528.742.742,0,0,0,.21-1.1h0A.742.742,0,0,0,379.47,495.569Z" transform="translate(-371.36 -495.478)"/></g></g></g></svg>