<svg xmlns="http://www.w3.org/2000/svg" xmlns:xlink="http://www.w3.org/1999/xlink" width="143" height="98.56" viewBox="0 0 143 98.56"><defs><style>.a{fill:#fff;}.b{fill:url(#c);}.c{opacity:0.9;fill:url(#d);}.d{fill:url(#e);}.e{fill:#f79400;}.f,.g,.i,.k,.n{mix-blend-mode:multiply;isolation:isolate;}.f{fill:url(#f);}.g{fill:none;stroke:#f79400;stroke-width:13.28px;}.h{fill:#ffa800;}.i{fill:url(#g);}.j{opacity:0.25;fill:url(#h);}.k{fill:url(#i);}.l{fill:#54742b;}.m{opacity:0.35;fill:url(#j);}.n{fill:url(#k);}.o{fill:#fc9200;}.p{filter:url(#a);}</style><filter id="a" x="0" y="0" width="143" height="98.56" filterUnits="userSpaceOnUse"><feOffset dy="3" input="SourceAlpha"/><feGaussianBlur stdDeviation="3" result="b"/><feFlood flood-opacity="0.161"/><feComposite operator="in" in2="b"/><feComposite in="SourceGraphic"/></filter><linearGradient id="c" x1="-0.041" y1="-0.285" x2="1.022" y2="-1.178" gradientUnits="objectBoundingBox"><stop offset="0" stop-color="#002d58"/><stop offset="0.191" stop-color="#003568"/><stop offset="0.505" stop-color="#00407e"/><stop offset="0.709" stop-color="#004586"/></linearGradient><linearGradient id="d" x1="0.449" y1="0.542" x2="1.031" y2="0.053" gradientUnits="objectBoundingBox"><stop offset="0" stop-color="#00386a"/><stop offset="0.341" stop-color="#00386a"/><stop offset="0.403" stop-color="#063d6d"/><stop offset="0.494" stop-color="#194b78"/><stop offset="0.6" stop-color="#386289"/><stop offset="0.719" stop-color="#6482a1"/><stop offset="0.849" stop-color="#9bacc0"/><stop offset="0.985" stop-color="#dedee5"/><stop offset="1" stop-color="#e6e4ea"/></linearGradient><linearGradient id="e" x1="-0.041" y1="0.951" x2="1.041" y2="0.049" gradientUnits="objectBoundingBox"><stop offset="0" stop-color="#aeb0b3"/><stop offset="0.047" stop-color="#bfc1c3"/><stop offset="0.128" stop-color="#d6d7d9"/><stop offset="0.22" stop-color="#e8e9ea"/><stop offset="0.331" stop-color="#f5f5f6"/><stop offset="0.477" stop-color="#fcfcfd"/><stop offset="0.802" stop-color="#fff"/></linearGradient><linearGradient id="f" y1="0.5" x2="1" y2="0.5" gradientUnits="objectBoundingBox"><stop offset="0" stop-color="#ffa700"/><stop offset="0.031" stop-color="#ffaa0a"/><stop offset="0.443" stop-color="#ffd78c"/><stop offset="0.724" stop-color="#fff3de"/><stop offset="0.852" stop-color="#fff"/></linearGradient><linearGradient id="g" x1="-0.311" y1="0.606" x2="1.193" y2="0.355" gradientUnits="objectBoundingBox"><stop offset="0.143" stop-color="#ffa700"/><stop offset="0.229" stop-color="#ffb62e"/><stop offset="0.357" stop-color="#ffcc6c"/><stop offset="0.48" stop-color="#ffdea1"/><stop offset="0.594" stop-color="#ffecc9"/><stop offset="0.698" stop-color="#fff6e6"/><stop offset="0.787" stop-color="#fffcf8"/><stop offset="0.852" stop-color="#fff"/></linearGradient><linearGradient id="h" x1="0.451" y1="0.561" x2="0.951" y2="-0.061" gradientUnits="objectBoundingBox"><stop offset="0" stop-color="#fff"/><stop offset="0.172" stop-color="#ffe7ba"/><stop offset="0.355" stop-color="#ffd078"/><stop offset="0.521" stop-color="#ffbe44"/><stop offset="0.664" stop-color="#ffb11f"/><stop offset="0.779" stop-color="#ffa908"/><stop offset="0.852" stop-color="#ffa700"/></linearGradient><linearGradient id="i" y1="0.5" x2="1" y2="0.5" gradientUnits="objectBoundingBox"><stop offset="0" stop-color="#ffa700"/><stop offset="0.058" stop-color="#ffb428"/><stop offset="0.138" stop-color="#ffc65a"/><stop offset="0.223" stop-color="#ffd586"/><stop offset="0.311" stop-color="#ffe2ab"/><stop offset="0.401" stop-color="#ffecc9"/><stop offset="0.496" stop-color="#fff4e1"/><stop offset="0.597" stop-color="#fffaf2"/><stop offset="0.709" stop-color="#fffdfb"/><stop offset="0.852" stop-color="#fff"/></linearGradient><linearGradient id="j" x1="0.343" y1="0.626" x2="0.872" y2="0.142" gradientUnits="objectBoundingBox"><stop offset="0.242" stop-color="#3c581f"/><stop offset="1" stop-color="#fff"/></linearGradient><linearGradient id="k" x1="-0.263" y1="0.812" x2="1.197" y2="0.303" gradientUnits="objectBoundingBox"><stop offset="0" stop-color="#54742b"/><stop offset="0.061" stop-color="#688444"/><stop offset="0.26" stop-color="#a8b893"/><stop offset="0.425" stop-color="#d7decd"/><stop offset="0.545" stop-color="#f4f6f1"/><stop offset="0.61" stop-color="#fff"/></linearGradient></defs><g transform="translate(-1024.336 -1277.342)"><g class="p" transform="matrix(1, 0, 0, 1, 1024.34, 1277.34)"><path class="a" d="M-688.918,1927.259a15.286,15.286,0,0,0-4.588,10.263l-3.723,40.436a13.505,13.505,0,0,0,13.505,13.505l80.428.87a4.9,4.9,0,0,0,.813.055,9.589,9.589,0,0,0,1.8-.175,23.82,23.82,0,0,0,4.049-1.122,30.513,30.513,0,0,0,7.185-3.5,25.655,25.655,0,0,0,6.4-6.611,47.867,47.867,0,0,0,5.825-11.336c4.635-12.822,6.223-25.5,4.01-37.973a28.245,28.245,0,0,0-3.74-10.113,15.5,15.5,0,0,0-8.876-6.686,63.027,63.027,0,0,0-13.22-2.435,181.286,181.286,0,0,0-27.1-.193,259.525,259.525,0,0,0-35.367,4.406,151.41,151.41,0,0,0-15.621,3.881,46.261,46.261,0,0,0-4.62,1.668,29.477,29.477,0,0,0-6.526,4.347" transform="translate(706.23 -1905.83)"/></g><g transform="translate(1730.565 -628.487)"><path class="b" d="M-635.143,1927.328c-12.676,0-25.254.294-25.254.294s-.388,12.8-.388,25.579c0,12.715.388,25.4.388,25.4s12.608.389,25.282.389c12.816,0,25.7-.389,25.7-.389s.39-12.791.39-25.559c0-12.722-.4-25.419-.4-25.419S-622.329,1927.328-635.143,1927.328Zm16.323,42.26h-32.6v-32.809h32.6Z"/><path class="c" d="M-618.82,1960.747c4.206,6.194,6.942,12.854,9.4,17.857,0,0,.422-12.694.422-25.461,0-12.723-.408-25.52-.408-25.52s-12.866-.293-25.68-.293c-12.677,0-25.315.292-25.315.292s9.285,1.524,19.837,9.155l21.746,0Z"/><rect class="d" width="32.599" height="32.811" transform="translate(-651.42 1936.778)"/><path class="e" d="M-639.321,1954.911l-5.679,9.434h9.831v-19.081C-635.251,1946.459-635.163,1947.964-639.321,1954.911Z"/><path class="f" d="M-639.321,1954.911l-5.679,9.434h9.831v-19.081C-635.251,1946.459-635.163,1947.964-639.321,1954.911Z"/><path class="g" d="M-645,1964.345"/><path class="h" d="M-642.48,1941.7s-2.766-2.288-8.636,4.261l-.3.375,0,17.981c.34-.469,9.069-15.164,9.069-15.164S-638.971,1943.66-642.48,1941.7Z"/><path class="i" d="M-642.465,1941.686s-2.765-2.288-8.636,4.261l-.318.392.018,17.965c.341-.47,9.069-15.164,9.069-15.164S-638.956,1943.649-642.465,1941.686Z"/><path class="e" d="M-635.169,1945.108v-8.331h-8.248l.033,0s8.2.228,8.215,8.329"/><path class="j" d="M-635.169,1941.123v-4.346h-5.4A24,24,0,0,1-635.169,1941.123Z"/><path class="e" d="M-644.61,1936.783h-6.808v3.434A8.973,8.973,0,0,1-644.61,1936.783Z"/><path class="k" d="M-644.61,1936.777h-6.809v3.433A8.978,8.978,0,0,1-644.61,1936.777Z"/><path class="l" d="M-635.17,1946.342V1940.3a9.258,9.258,0,0,1,8.124-3.5s8.226.058,8.226,8.26c0,0-.016,2.917-4.086,9.685l-5.766,9.559h9.854v5.284h-16.344v-5.322l9.182-15.178s3.374-5.5-.133-7.464c0,0-3.079-1.966-8.957,4.675Z"/><path class="m" d="M-622.865,1954.674c3.173-5.229,4.044-8.8,4.044-9.614,0-6.979-5.989-8-7.306-8.175a9.441,9.441,0,0,0-9.044,3.413v.83a22.729,22.729,0,0,1,2.747,2.566c4.137-3.429,6.3-2.075,6.3-2.075,3.565,2,.065,7.612.065,7.612l-.48.8S-624.212,1952.814-622.865,1954.674Z"/><path class="n" d="M-635.17,1946.423V1940.3a9.251,9.251,0,0,1,8.126-3.5c2.813.148,8.224,1.587,8.224,8.26,0,0-.02,2.927-4.089,9.7l-5.758,9.548h9.849v5.284h-16.344v-5.322l9.176-15.168s3.38-5.508-.127-7.474c0,0-3.079-1.966-8.957,4.675Z"/><rect class="o" width="16.415" height="10.712" transform="translate(-618.669 1973.248)"/><path class="a" d="M-616.8,1977.409l-.018-.363c0-1.24.354-2.073,1.746-2.073a1.584,1.584,0,0,1,1.8,1.71,3.788,3.788,0,0,1-.549,1.817l-1.116,2.116h1.55v1.152H-616.9L-615.4,1979a5.587,5.587,0,0,0,.859-2.276c0-.346-.106-.825-.531-.825-.505,0-.532.718-.532,1.081l.017.425Z"/><path class="a" d="M-613,1977.409l-.018-.363c0-1.24.354-2.073,1.745-2.073a1.584,1.584,0,0,1,1.8,1.71,3.788,3.788,0,0,1-.549,1.817l-1.116,2.116h1.55v1.152H-613.1l1.507-2.764a5.585,5.585,0,0,0,.858-2.276c0-.346-.106-.825-.531-.825-.505,0-.532.718-.532,1.081l.018.425Z"/><path class="a" d="M-607.548,1981.033a.842.842,0,0,1-.842.842.842.842,0,0,1-.842-.842.842.842,0,0,1,.842-.842A.842.842,0,0,1-607.548,1981.033Z"/><path class="a" d="M-607.328,1977.409l-.018-.363c0-1.24.355-2.073,1.746-2.073a1.584,1.584,0,0,1,1.8,1.71,3.788,3.788,0,0,1-.549,1.817l-1.116,2.116h1.55v1.152h-3.508l1.506-2.764a5.586,5.586,0,0,0,.859-2.276c0-.346-.106-.825-.531-.825-.505,0-.532.718-.532,1.081l.017.425Z"/><path class="a" d="M-644.536,1931.332a1.221,1.221,0,0,0-1.005-.51,1.2,1.2,0,0,0-1.175,1.283,1.172,1.172,0,0,0,1.192,1.258,1.293,1.293,0,0,0,.988-.491v1.442a3.1,3.1,0,0,1-1.011.215,2.39,2.39,0,0,1-1.654-.681,2.319,2.319,0,0,1-.707-1.749,2.488,2.488,0,0,1,.648-1.693,2.335,2.335,0,0,1,1.678-.749,2.58,2.58,0,0,1,1.046.233Z"/><path class="a" d="M-641.539,1933.6l-.3.8h-1.215l1.694-4.627h1.251l1.66,4.627h-1.222l-.286-.8Zm.8-2.394h-.011l-.474,1.473h.952Z"/><path class="a" d="M-636.929,1929.779h1.146l2.1,2.829h.011v-2.829h1.146v4.627h-1.146l-2.1-2.834h-.012v2.834h-1.146Z"/><path class="a" d="M-629.489,1933.6l-.3.8h-1.216l1.695-4.627h1.25l1.66,4.627h-1.222l-.286-.8Zm.8-2.394h-.012l-.473,1.473h.953Z"/><path class="a" d="M-623.734,1933.388h1.373v1.018h-2.518v-4.627h1.145Z"/></g></g></svg>