<svg xmlns="http://www.w3.org/2000/svg" xmlns:xlink="http://www.w3.org/1999/xlink" width="142.999" height="98.56" viewBox="0 0 142.999 98.56"><defs><style>.a{fill:#fff;}.b{fill:url(#c);}.c{opacity:0.9;fill:url(#d);}.d{fill:url(#e);}.e{fill:#f79400;}.f,.g,.i,.k,.n{mix-blend-mode:multiply;isolation:isolate;}.f{fill:url(#f);}.g{fill:none;stroke:#f79400;stroke-width:13.28px;}.h{fill:#ffa800;}.i{fill:url(#g);}.j{opacity:0.25;fill:url(#h);}.k{fill:url(#i);}.l{fill:#54742b;}.m{opacity:0.35;fill:url(#j);}.n{fill:url(#k);}.o{fill:#fc9200;}.p{filter:url(#a);}</style><filter id="a" x="0" y="0" width="142.999" height="98.56" filterUnits="userSpaceOnUse"><feOffset dy="3" input="SourceAlpha"/><feGaussianBlur stdDeviation="3" result="b"/><feFlood flood-opacity="0.161"/><feComposite operator="in" in2="b"/><feComposite in="SourceGraphic"/></filter><linearGradient id="c" x1="-0.265" y1="0.884" x2="0.797" y2="-0.01" gradientUnits="objectBoundingBox"><stop offset="0" stop-color="#002d58"/><stop offset="0.191" stop-color="#003568"/><stop offset="0.505" stop-color="#00407e"/><stop offset="0.709" stop-color="#004586"/></linearGradient><linearGradient id="d" x1="0.449" y1="0.542" x2="1.031" y2="0.053" gradientUnits="objectBoundingBox"><stop offset="0" stop-color="#00386a"/><stop offset="0.341" stop-color="#00386a"/><stop offset="0.403" stop-color="#063d6d"/><stop offset="0.494" stop-color="#194b78"/><stop offset="0.6" stop-color="#386289"/><stop offset="0.719" stop-color="#6482a1"/><stop offset="0.849" stop-color="#9bacc0"/><stop offset="0.985" stop-color="#dedee5"/><stop offset="1" stop-color="#e6e4ea"/></linearGradient><linearGradient id="e" x1="-0.041" y1="0.951" x2="1.041" y2="0.049" gradientUnits="objectBoundingBox"><stop offset="0" stop-color="#aeb0b3"/><stop offset="0.047" stop-color="#bfc1c3"/><stop offset="0.128" stop-color="#d6d7d9"/><stop offset="0.22" stop-color="#e8e9ea"/><stop offset="0.331" stop-color="#f5f5f6"/><stop offset="0.477" stop-color="#fcfcfd"/><stop offset="0.802" stop-color="#fff"/></linearGradient><linearGradient id="f" y1="0.5" x2="1" y2="0.5" gradientUnits="objectBoundingBox"><stop offset="0" stop-color="#ffa700"/><stop offset="0.031" stop-color="#ffaa0a"/><stop offset="0.443" stop-color="#ffd78c"/><stop offset="0.724" stop-color="#fff3de"/><stop offset="0.852" stop-color="#fff"/></linearGradient><linearGradient id="g" x1="-0.311" y1="0.606" x2="1.193" y2="0.355" gradientUnits="objectBoundingBox"><stop offset="0.143" stop-color="#ffa700"/><stop offset="0.229" stop-color="#ffb62e"/><stop offset="0.357" stop-color="#ffcc6c"/><stop offset="0.48" stop-color="#ffdea1"/><stop offset="0.594" stop-color="#ffecc9"/><stop offset="0.698" stop-color="#fff6e6"/><stop offset="0.787" stop-color="#fffcf8"/><stop offset="0.852" stop-color="#fff"/></linearGradient><linearGradient id="h" x1="0.451" y1="0.561" x2="0.951" y2="-0.061" gradientUnits="objectBoundingBox"><stop offset="0" stop-color="#fff"/><stop offset="0.172" stop-color="#ffe7ba"/><stop offset="0.355" stop-color="#ffd078"/><stop offset="0.521" stop-color="#ffbe44"/><stop offset="0.664" stop-color="#ffb11f"/><stop offset="0.779" stop-color="#ffa908"/><stop offset="0.852" stop-color="#ffa700"/></linearGradient><linearGradient id="i" y1="0.5" x2="1" y2="0.5" gradientUnits="objectBoundingBox"><stop offset="0" stop-color="#ffa700"/><stop offset="0.058" stop-color="#ffb428"/><stop offset="0.138" stop-color="#ffc65a"/><stop offset="0.223" stop-color="#ffd586"/><stop offset="0.311" stop-color="#ffe2ab"/><stop offset="0.401" stop-color="#ffecc9"/><stop offset="0.496" stop-color="#fff4e1"/><stop offset="0.597" stop-color="#fffaf2"/><stop offset="0.709" stop-color="#fffdfb"/><stop offset="0.852" stop-color="#fff"/></linearGradient><linearGradient id="j" x1="0.343" y1="0.626" x2="0.872" y2="0.142" gradientUnits="objectBoundingBox"><stop offset="0.242" stop-color="#3c581f"/><stop offset="1" stop-color="#fff"/></linearGradient><linearGradient id="k" x1="-0.263" y1="0.812" x2="1.197" y2="0.303" gradientUnits="objectBoundingBox"><stop offset="0" stop-color="#54742b"/><stop offset="0.061" stop-color="#688444"/><stop offset="0.26" stop-color="#a8b893"/><stop offset="0.425" stop-color="#d7decd"/><stop offset="0.545" stop-color="#f4f6f1"/><stop offset="0.61" stop-color="#fff"/></linearGradient></defs><g transform="translate(-889.442 -1277.342)"><g class="p" transform="matrix(1, 0, 0, 1, 889.44, 1277.34)"><path class="a" d="M-823.812,1927.259a15.283,15.283,0,0,0-4.589,10.263l-3.722,40.436a13.5,13.5,0,0,0,13.505,13.505l80.427.87a4.905,4.905,0,0,0,.814.055,9.6,9.6,0,0,0,1.8-.175,23.821,23.821,0,0,0,4.049-1.122,30.513,30.513,0,0,0,7.185-3.5,25.633,25.633,0,0,0,6.4-6.611,47.868,47.868,0,0,0,5.826-11.336c4.635-12.822,6.222-25.5,4.01-37.973a28.265,28.265,0,0,0-3.74-10.113,15.508,15.508,0,0,0-8.876-6.686,63.027,63.027,0,0,0-13.22-2.435,181.3,181.3,0,0,0-27.106-.193,259.491,259.491,0,0,0-35.366,4.406,151.349,151.349,0,0,0-15.621,3.881,46.178,46.178,0,0,0-4.62,1.668,29.432,29.432,0,0,0-6.526,4.347" transform="translate(841.12 -1905.83)"/></g><g transform="translate(1730.565 -628.487)"><path class="b" d="M-767.688,1927.552c-12.5,0-24.9.291-24.9.291s-.384,12.626-.384,25.223c0,12.54.384,25.051.384,25.051s12.432.384,24.932.384c12.637,0,25.343-.384,25.343-.384s.384-12.613.384-25.2c0-12.546-.39-25.066-.39-25.066S-755.051,1927.552-767.688,1927.552Zm16.1,41.675H-783.74v-32.355h32.148Z"/><path class="c" d="M-751.59,1960.508c4.147,6.109,6.845,12.676,9.267,17.609,0,0,.416-12.518.416-25.108,0-12.546-.4-25.166-.4-25.166s-12.687-.288-25.324-.288c-12.5,0-24.963.288-24.963.288s9.156,1.5,19.562,9.028h21.443Z"/><rect class="d" width="32.147" height="32.356" transform="translate(-783.739 1936.871)"/><path class="e" d="M-771.808,1954.754l-5.6,9.3h9.7V1945.24C-767.794,1946.419-767.707,1947.9-771.808,1954.754Z"/><path class="f" d="M-771.808,1954.754l-5.6,9.3h9.7V1945.24C-767.794,1946.419-767.707,1947.9-771.808,1954.754Z"/><path class="g" d="M-777.408,1964.056"/><path class="h" d="M-774.923,1941.723s-2.727-2.257-8.517,4.2l-.3.371,0,17.732c.336-.463,8.943-14.954,8.943-14.954S-771.463,1943.658-774.923,1941.723Z"/><path class="i" d="M-774.908,1941.712s-2.727-2.257-8.517,4.2l-.313.386.018,17.715c.335-.463,8.943-14.953,8.943-14.953S-771.448,1943.647-774.908,1941.712Z"/><path class="e" d="M-767.713,1945.086v-8.215h-8.1s8.083.226,8.1,8.214"/><path class="j" d="M-767.713,1941.155v-4.284h-5.325A23.645,23.645,0,0,1-767.713,1941.155Z"/><path class="e" d="M-777.023,1936.877h-6.714v3.385A8.845,8.845,0,0,1-777.023,1936.877Z"/><path class="k" d="M-777.024,1936.871h-6.714v3.385A8.844,8.844,0,0,1-777.024,1936.871Z"/><path class="l" d="M-767.714,1946.3l0-5.96a9.131,9.131,0,0,1,8.012-3.45s8.111.058,8.111,8.145c0,0-.015,2.876-4.029,9.551l-5.686,9.427h9.718l0,5.21h-16.117v-5.247l9.056-14.968s3.327-5.423-.131-7.361c0,0-3.037-1.939-8.833,4.61Z"/><path class="m" d="M-755.58,1954.52c3.13-5.157,3.987-8.682,3.987-9.482,0-6.882-5.9-7.887-7.2-8.061a9.309,9.309,0,0,0-8.919,3.366v.818a22.314,22.314,0,0,1,2.709,2.531c4.08-3.381,6.21-2.047,6.21-2.047,3.516,1.968.064,7.507.064,7.507l-.472.788S-756.909,1952.685-755.58,1954.52Z"/><path class="n" d="M-767.714,1946.383l0-6.04a9.126,9.126,0,0,1,8.015-3.45c2.774.145,8.108,1.565,8.108,8.145,0,0-.019,2.887-4.032,9.562l-5.678,9.416h9.713l0,5.21h-16.117v-5.247l9.05-14.959s3.333-5.432-.125-7.37c0,0-3.037-1.939-8.833,4.61Z"/><rect class="o" width="16.188" height="10.563" transform="translate(-751.442 1972.836)"/><path class="a" d="M-749.323,1976.94l-.017-.359c0-1.223.349-2.045,1.72-2.045a1.563,1.563,0,0,1,1.774,1.687,3.742,3.742,0,0,1-.541,1.791l-1.1,2.088h1.53v1.136h-3.461l1.486-2.726a5.508,5.508,0,0,0,.847-2.245c0-.341-.1-.813-.524-.813-.5,0-.524.708-.524,1.066l.017.42Z"/><path class="a" d="M-745.6,1976.94l-.018-.359c0-1.223.35-2.045,1.722-2.045a1.563,1.563,0,0,1,1.773,1.687,3.742,3.742,0,0,1-.541,1.791l-1.1,2.088h1.528v1.136h-3.459l1.485-2.726a5.51,5.51,0,0,0,.848-2.245c0-.341-.1-.813-.525-.813-.5,0-.524.708-.524,1.066l.018.42Z"/><path class="a" d="M-740.248,1980.513a.829.829,0,0,1-.83.829.828.828,0,0,1-.829-.829.828.828,0,0,1,.829-.83A.829.829,0,0,1-740.248,1980.513Z"/><path class="a" d="M-738.136,1974.65v6.588H-739.4v-5.452h-.629v-1.136Z"/><path class="a" d="M-776.95,1931.5a1.207,1.207,0,0,0-.992-.5,1.176,1.176,0,0,0-1.158,1.264,1.156,1.156,0,0,0,1.175,1.24,1.279,1.279,0,0,0,.975-.483v1.421a3.042,3.042,0,0,1-1,.212,2.354,2.354,0,0,1-1.63-.671,2.287,2.287,0,0,1-.7-1.725,2.453,2.453,0,0,1,.64-1.67,2.3,2.3,0,0,1,1.654-.738,2.552,2.552,0,0,1,1.032.23Z"/><path class="a" d="M-773.994,1933.74l-.3.792h-1.2l1.671-4.562h1.234l1.636,4.562h-1.2l-.282-.792Zm.789-2.36h-.011l-.468,1.452h.94Z"/><path class="a" d="M-769.449,1929.97h1.131l2.068,2.79h.012v-2.79h1.129v4.562h-1.129l-2.07-2.795h-.01v2.795h-1.131Z"/><path class="a" d="M-762.113,1933.74l-.3.792h-1.2l1.671-4.562h1.233l1.637,4.562h-1.205l-.282-.792Zm.79-2.36h-.012l-.466,1.452h.939Z"/><path class="a" d="M-756.437,1933.528h1.354v1h-2.483v-4.562h1.129Z"/></g></g></svg>