<svg xmlns="http://www.w3.org/2000/svg" xmlns:xlink="http://www.w3.org/1999/xlink" width="140" height="96.06" viewBox="0 0 140 96.06"><defs><style>.a{fill:#fff;}.b{fill:#9bab37;}.c{filter:url(#a);}</style><filter id="a" x="0" y="0" width="140" height="96.06" filterUnits="userSpaceOnUse"><feOffset dy="8" input="SourceAlpha"/><feGaussianBlur stdDeviation="2.5" result="b"/><feFlood flood-opacity="0.161"/><feComposite operator="in" in2="b"/><feComposite in="SourceGraphic"/></filter></defs><g transform="translate(843.214 -2073.301)"><g class="c" transform="matrix(1, 0, 0, 1, -843.21, 2073.3)"><path class="a" d="M-827.4,2088.732A15.287,15.287,0,0,0-831.991,2099l-3.723,40.436a13.505,13.505,0,0,0,13.505,13.505l80.428.869a4.82,4.82,0,0,0,.813.056,9.61,9.61,0,0,0,1.8-.175,23.81,23.81,0,0,0,4.049-1.122,30.513,30.513,0,0,0,7.185-3.5,25.672,25.672,0,0,0,6.4-6.611,47.828,47.828,0,0,0,5.825-11.336c4.635-12.822,6.223-25.5,4.011-37.973a28.268,28.268,0,0,0-3.741-10.113,15.5,15.5,0,0,0-8.876-6.686,63.02,63.02,0,0,0-13.22-2.435,181.27,181.27,0,0,0-27.1-.193,259.564,259.564,0,0,0-35.367,4.406A151.161,151.161,0,0,0-815.629,2082a46.241,46.241,0,0,0-4.62,1.668,29.488,29.488,0,0,0-6.526,4.347" transform="translate(843.21 -2073.3)"/></g><path class="b" d="M-812.529,2110.721l7.632,16.546h-2.784l-2.471-5.379H-817.1l-2.564,5.379h-1.345l7.788-16.546Zm-4.1,10.134h5.974l-2.941-6.411Z"/><path class="b" d="M-804.147,2111.1h2.784l6.287,12.417h.125l6.162-12.417h2.752v16.2h-2.721v-13.262h-.094l-6.631,13.262h-.563l-6.693-13.168h-.188V2127.3h-1.22Z"/><path class="b" d="M-783.91,2111.1h6.537a9.377,9.377,0,0,1,2.377.281,5.9,5.9,0,0,1,1.846.813,4.1,4.1,0,0,1,1.188,1.252,3.241,3.241,0,0,1,.438,1.626,4.555,4.555,0,0,1-.156,1.189,3.088,3.088,0,0,1-.469.969,3.383,3.383,0,0,1-.907.845,9.953,9.953,0,0,1-1.439.813v.063a6.042,6.042,0,0,1,1.564.469,3.7,3.7,0,0,1,1.188.844,2.963,2.963,0,0,1,.751,1.189,3.726,3.726,0,0,1,.282,1.47,3.586,3.586,0,0,1-.407,1.72,3.967,3.967,0,0,1-1.126,1.376,6.047,6.047,0,0,1-1.783.939,7.709,7.709,0,0,1-2.346.344h-7.569v-16.2Zm2.721,7.288h3.472a4.1,4.1,0,0,0,1.439-.219,3.2,3.2,0,0,0,1.063-.626,2.932,2.932,0,0,0,.657-.97,3.12,3.12,0,0,0,.219-1.219,2.871,2.871,0,0,0-.281-1.283,2.847,2.847,0,0,0-.845-1,4.349,4.349,0,0,0-1.439-.625,8.258,8.258,0,0,0-2.1-.219h-2.252v6.162Zm0,7.725h2.941a8.169,8.169,0,0,0,2.064-.219,4.356,4.356,0,0,0,1.439-.657,2.591,2.591,0,0,0,.844-1,2.816,2.816,0,0,0,.282-1.251,4.322,4.322,0,0,0-.251-1.438,3.149,3.149,0,0,0-.782-1.158,4.157,4.157,0,0,0-1.438-.75,7.517,7.517,0,0,0-2.221-.282h-2.846l-.032,6.756Z"/><path class="b" d="M-768.771,2111.1h2.721v16.2h-2.721Z"/><path class="b" d="M-752.757,2111.1v1.032H-761.3v5.818h5.724v1.032H-761.3v7.256h8.539v1.032h-11.26v-16.2l11.26.032Z"/><path class="b" d="M-751.1,2111.1h1.532l10.6,11.823h.125V2111.1h1.188v16.577h-.625l-11.511-13.168h-.093V2127.3h-1.22v-16.2Z"/><path class="b" d="M-722.073,2111.1v1.032h-5.849v15.138h-2.721v-15.138h-5.881V2111.1Z"/><path class="b" d="M-721.967,2112.13c-.271,0-.7.008-.76,0l.019-1.032c.635,0,1.235,0,1.313-.152.026-.05.39.27-.876-1.281-.205-.252-.932-.412-2.3.667l-.564-.716a3.647,3.647,0,0,1,2.645-1.03,1.417,1.417,0,0,1,.947.531c1.14,1.393,1.338,1.593.937,2.286A1.475,1.475,0,0,1-721.967,2112.13Z"/></g></svg>