<svg xmlns="http://www.w3.org/2000/svg" xmlns:xlink="http://www.w3.org/1999/xlink" width="148.841" height="102.324" viewBox="0 0 148.841 102.324">
  <defs>
    <filter id="Trazado_2293" x="0" y="0" width="148.841" height="102.324" filterUnits="userSpaceOnUse">
      <feOffset dy="3" input="SourceAlpha"/>
      <feGaussianBlur stdDeviation="3" result="blur"/>
      <feFlood flood-opacity="0.161"/>
      <feComposite operator="in" in2="blur"/>
      <feComposite in="SourceGraphic"/>
    </filter>
  </defs>
  <g id="AZTECA_7.3" transform="translate(-915 -1349)">
    <g transform="matrix(1, 0, 0, 1, 915, 1349)" filter="url(#Trazado_2293)">
      <path id="Trazado_2293-2" data-name="Trazado 2293" d="M-963.644,1638.639a15.993,15.993,0,0,0-4.8,10.742l-3.9,42.326a14.135,14.135,0,0,0,14.136,14.136l84.186.91a5.08,5.08,0,0,0,.852.058,10.093,10.093,0,0,0,1.881-.183,24.86,24.86,0,0,0,4.238-1.174,31.962,31.962,0,0,0,7.52-3.669,26.834,26.834,0,0,0,6.7-6.92,50.135,50.135,0,0,0,6.1-11.865c4.852-13.422,6.513-26.692,4.2-39.748a29.58,29.58,0,0,0-3.916-10.585,16.218,16.218,0,0,0-9.291-7,65.9,65.9,0,0,0-13.837-2.549,189.636,189.636,0,0,0-28.372-.2,271.606,271.606,0,0,0-37.019,4.612,158.167,158.167,0,0,0-16.351,4.062,48.246,48.246,0,0,0-4.836,1.746,30.8,30.8,0,0,0-6.831,4.55" transform="translate(981.34 -1616.49)" fill="#fff"/>
    </g>
    <text id="AZTECA_7.3-2" data-name="AZTECA
7.3" transform="translate(989 1393)" fill="#1c2232" font-size="20" font-family="Arial-Black, Arial Black" font-weight="800"><tspan x="-45" y="0">AZTECA</tspan><tspan x="-16.67" y="24">7.3</tspan></text>
  </g>
</svg>
