<svg xmlns="http://www.w3.org/2000/svg" xmlns:xlink="http://www.w3.org/1999/xlink" width="143" height="98.56" viewBox="0 0 143 98.56"><defs><style>.a{fill:#fff;}.b{fill:#36d2b6;}.c{fill:#5b6a6a;}.d{fill:#8e9c9a;}.e{filter:url(#a);}</style><filter id="a" x="0" y="0" width="143" height="98.56" filterUnits="userSpaceOnUse"><feOffset dy="3" input="SourceAlpha"/><feGaussianBlur stdDeviation="3" result="b"/><feFlood flood-opacity="0.161"/><feComposite operator="in" in2="b"/><feComposite in="SourceGraphic"/></filter></defs><g transform="translate(-1159.756 -1087.403)"><g class="e" transform="matrix(1, 0, 0, 1, 1159.76, 1087.4)"><path class="a" d="M-553.5,1737.32a15.287,15.287,0,0,0-4.588,10.263l-3.723,40.437a13.506,13.506,0,0,0,13.505,13.505l80.428.869a4.947,4.947,0,0,0,.813.056,9.755,9.755,0,0,0,1.8-.175,23.821,23.821,0,0,0,4.049-1.122,30.59,30.59,0,0,0,7.185-3.505,25.655,25.655,0,0,0,6.4-6.612A47.878,47.878,0,0,0-441.8,1779.7c4.635-12.822,6.223-25.5,4.01-37.974a28.24,28.24,0,0,0-3.74-10.112,15.5,15.5,0,0,0-8.876-6.687,63.027,63.027,0,0,0-13.22-2.435,181.413,181.413,0,0,0-27.106-.193,259.493,259.493,0,0,0-35.366,4.406,151.414,151.414,0,0,0-15.621,3.881,46.261,46.261,0,0,0-4.62,1.668,29.448,29.448,0,0,0-6.526,4.348" transform="translate(570.81 -1715.89)"/></g><g transform="translate(1730.565 -628.487)"><path class="b" d="M-492.739,1759.422a1.652,1.652,0,0,0-.675-.675,2.08,2.08,0,0,0-1.059-.275,2.882,2.882,0,0,0-1.258.275,3.077,3.077,0,0,0-.992.75,3.53,3.53,0,0,0-.65,1.1,3.773,3.773,0,0,0-.233,1.325,2.784,2.784,0,0,0,.141.9,2,2,0,0,0,.426.725,2.031,2.031,0,0,0,.708.492,2.472,2.472,0,0,0,.992.184,2.731,2.731,0,0,0,1.266-.267,3.2,3.2,0,0,0,.9-.683l.934.866a5.17,5.17,0,0,1-1.408,1.009,4.071,4.071,0,0,1-1.792.375,4.526,4.526,0,0,1-1.542-.25,3.411,3.411,0,0,1-1.175-.7,3.122,3.122,0,0,1-.75-1.075,3.511,3.511,0,0,1-.267-1.392,5.187,5.187,0,0,1,.342-1.875,4.811,4.811,0,0,1,.966-1.567,4.629,4.629,0,0,1,1.509-1.075,4.709,4.709,0,0,1,1.967-.4,4.494,4.494,0,0,1,.858.084,4.062,4.062,0,0,1,.8.242,2.834,2.834,0,0,1,.684.408,2.145,2.145,0,0,1,.508.6Z"/><path class="b" d="M-485.784,1761.506q-.65,0-1.35.058a6.177,6.177,0,0,0-1.275.233,2.442,2.442,0,0,0-.942.509,1.117,1.117,0,0,0-.366.866,1.036,1.036,0,0,0,.125.542,1.026,1.026,0,0,0,.333.342,1.31,1.31,0,0,0,.467.183,2.783,2.783,0,0,0,.525.05,2.645,2.645,0,0,0,.967-.175,2.534,2.534,0,0,0,.783-.475,2.742,2.742,0,0,0,.558-.7,2.745,2.745,0,0,0,.309-.85l.116-.583Zm.417-1.134c.022-.155.039-.277.05-.366a2.061,2.061,0,0,0,.017-.25,1.153,1.153,0,0,0-.434-1.009,2.111,2.111,0,0,0-1.233-.308,3.419,3.419,0,0,0-1.267.25,4.381,4.381,0,0,0-1.1.616l-.633-1.033a4.991,4.991,0,0,1,1.483-.792,5.317,5.317,0,0,1,1.733-.291,4.664,4.664,0,0,1,1.092.125,2.817,2.817,0,0,1,.934.4,2.073,2.073,0,0,1,.658.725,2.2,2.2,0,0,1,.25,1.083c0,.1-.006.231-.017.392a3.288,3.288,0,0,1-.05.408l-.583,3.2q-.084.467-.133.958a8.24,8.24,0,0,0-.051.825h-1.416c0-.166.008-.344.025-.533s.041-.378.075-.567H-486a3.543,3.543,0,0,1-1.233.967,3.789,3.789,0,0,1-1.567.3,3.694,3.694,0,0,1-.833-.1,2.357,2.357,0,0,1-.792-.342,1.938,1.938,0,0,1-.592-.642,1.963,1.963,0,0,1-.233-1,2.24,2.24,0,0,1,.533-1.558,3.534,3.534,0,0,1,1.375-.917,7.32,7.32,0,0,1,1.892-.433,20.393,20.393,0,0,1,2.084-.109"/><path class="b" d="M-479.78,1757.405c-.022.156-.048.364-.075.625s-.058.481-.092.659h.034a3.351,3.351,0,0,1,1.108-1.092,2.888,2.888,0,0,1,1.525-.408,2.637,2.637,0,0,1,1.975.691,2.4,2.4,0,0,1,.675,1.742,4.7,4.7,0,0,1-.066.8l-.867,4.884h-1.55l.767-4.367a4.1,4.1,0,0,0,.1-.883,1.781,1.781,0,0,0-.333-1.117,1.433,1.433,0,0,0-1.2-.434,2.176,2.176,0,0,0-1.617.709,3.585,3.585,0,0,0-.9,1.892l-.733,4.2h-1.55l1.083-6.184c.044-.211.092-.483.142-.817s.086-.633.108-.9Z"/><path class="b" d="M-468.149,1761.506q-.651,0-1.35.058a6.177,6.177,0,0,0-1.275.233,2.427,2.427,0,0,0-.942.509,1.114,1.114,0,0,0-.367.866,1.046,1.046,0,0,0,.125.542,1.029,1.029,0,0,0,.334.342,1.305,1.305,0,0,0,.466.183,2.783,2.783,0,0,0,.525.05,2.638,2.638,0,0,0,.967-.175,2.511,2.511,0,0,0,.783-.475,2.721,2.721,0,0,0,.558-.7,2.721,2.721,0,0,0,.309-.85l.117-.583Zm.416-1.134c.022-.155.039-.277.05-.366a2.055,2.055,0,0,0,.017-.25,1.155,1.155,0,0,0-.433-1.009,2.111,2.111,0,0,0-1.233-.308,3.419,3.419,0,0,0-1.267.25,4.387,4.387,0,0,0-1.1.616l-.633-1.033a5,5,0,0,1,1.483-.792,5.323,5.323,0,0,1,1.734-.291,4.665,4.665,0,0,1,1.092.125,2.8,2.8,0,0,1,.933.4,2.063,2.063,0,0,1,.658.725,2.195,2.195,0,0,1,.251,1.083c0,.1-.006.231-.017.392a3.288,3.288,0,0,1-.05.408l-.584,3.2c-.055.311-.1.63-.133.958s-.05.6-.05.825h-1.417c0-.166.009-.344.025-.533s.042-.378.075-.567h-.033a3.546,3.546,0,0,1-1.234.967,3.784,3.784,0,0,1-1.566.3,3.7,3.7,0,0,1-.834-.1,2.344,2.344,0,0,1-.791-.342,1.938,1.938,0,0,1-.592-.642,1.953,1.953,0,0,1-.233-1,2.235,2.235,0,0,1,.533-1.558,3.527,3.527,0,0,1,1.375-.917,7.311,7.311,0,0,1,1.892-.433,20.374,20.374,0,0,1,2.083-.109"/><path class="b" d="M-463.389,1765.306h-1.55l2.217-12.6h1.567Z"/><path class="c" d="M-494.985,1772.026a1.774,1.774,0,0,0-.667-.625,1.943,1.943,0,0,0-.983-.258,2.6,2.6,0,0,0-1.142.251,2.707,2.707,0,0,0-.9.685,3.335,3.335,0,0,0-.591,1,3.3,3.3,0,0,0-.217,1.187,2.663,2.663,0,0,0,.116.795,1.885,1.885,0,0,0,.367.669,1.813,1.813,0,0,0,.634.468,2.188,2.188,0,0,0,.917.175,2.447,2.447,0,0,0,1.208-.258,3.887,3.887,0,0,0,.842-.642l1.116,1.132a5.043,5.043,0,0,1-1.433,1,4.342,4.342,0,0,1-1.85.372,4.725,4.725,0,0,1-1.575-.25,3.558,3.558,0,0,1-1.217-.709,3.123,3.123,0,0,1-.783-1.092,3.507,3.507,0,0,1-.276-1.416,5.113,5.113,0,0,1,.35-1.867,5.036,5.036,0,0,1,.984-1.592,4.634,4.634,0,0,1,1.542-1.1,4.827,4.827,0,0,1,2.008-.409,4.558,4.558,0,0,1,1.709.325,2.526,2.526,0,0,1,1.241,1.026Z"/><path class="c" d="M-488.161,1774.093q-.567,0-1.175.041a5.263,5.263,0,0,0-1.117.192,2.262,2.262,0,0,0-.833.425.922.922,0,0,0-.325.742.946.946,0,0,0,.108.475.857.857,0,0,0,.292.309,1.259,1.259,0,0,0,.416.166,2.333,2.333,0,0,0,.484.05,2.33,2.33,0,0,0,.841-.15,2.227,2.227,0,0,0,.684-.408,2.3,2.3,0,0,0,.483-.6,2.588,2.588,0,0,0,.275-.742l.1-.5Zm.416-1.4c.023-.134.036-.236.042-.309s.009-.141.009-.208a.924.924,0,0,0-.376-.833,2,2,0,0,0-1.108-.25,3.564,3.564,0,0,0-1.209.225,4.43,4.43,0,0,0-1.108.575l-.75-1.317a5.6,5.6,0,0,1,1.558-.759,5.957,5.957,0,0,1,1.792-.274,5.107,5.107,0,0,1,1.126.125,3.086,3.086,0,0,1,1,.408,2.159,2.159,0,0,1,.708.742,2.235,2.235,0,0,1,.267,1.141c0,.1-.006.223-.017.367a3.236,3.236,0,0,1-.05.383l-.583,3.251q-.084.467-.142.967a7.379,7.379,0,0,0-.058.833h-1.8a4.892,4.892,0,0,1,.1-.95h-.033a3.206,3.206,0,0,1-2.6,1.117,3.984,3.984,0,0,1-.867-.1,2.421,2.421,0,0,1-.817-.341,1.889,1.889,0,0,1-.6-.65,2.048,2.048,0,0,1-.233-1.025,2.351,2.351,0,0,1,.525-1.592,3.53,3.53,0,0,1,1.359-.95,6.953,6.953,0,0,1,1.858-.459,17.952,17.952,0,0,1,2.008-.116"/><path class="c" d="M-484.715,1771.36l.284-1.6h1.383l.4-2.334h1.934l-.4,2.334h1.8l-.283,1.6h-1.767l-.7,3.742a2.3,2.3,0,0,0-.05.463.653.653,0,0,0,.258.6,1.264,1.264,0,0,0,.692.166,2.64,2.64,0,0,0,.391-.029c.128-.019.248-.043.359-.071l-.117,1.483a2.924,2.924,0,0,1-.592.158,3.739,3.739,0,0,1-.625.059,2.578,2.578,0,0,1-1.8-.507,1.765,1.765,0,0,1-.533-1.339c0-.155.008-.324.025-.507a4.388,4.388,0,0,1,.075-.507l.683-3.707Z"/><path class="c" d="M-472.557,1773.216a2.084,2.084,0,0,0-.55-1.488,1.961,1.961,0,0,0-1.5-.585,2.477,2.477,0,0,0-1.142.259,2.687,2.687,0,0,0-.866.694,3.279,3.279,0,0,0-.559,1,3.613,3.613,0,0,0-.2,1.2,2.126,2.126,0,0,0,.533,1.488,1.93,1.93,0,0,0,1.5.586,2.6,2.6,0,0,0,1.15-.251,2.592,2.592,0,0,0,.875-.686,3.233,3.233,0,0,0,.558-1.012,3.651,3.651,0,0,0,.2-1.212m-2.883,4.761a4.62,4.62,0,0,1-1.542-.25,3.579,3.579,0,0,1-1.225-.717,3.365,3.365,0,0,1-.809-1.1,3.352,3.352,0,0,1-.291-1.417,5.186,5.186,0,0,1,.341-1.875,4.849,4.849,0,0,1,.975-1.575,4.742,4.742,0,0,1,1.525-1.092,4.735,4.735,0,0,1,1.992-.408,4.652,4.652,0,0,1,1.559.25,3.661,3.661,0,0,1,1.225.708,3.262,3.262,0,0,1,.808,1.1,3.36,3.36,0,0,1,.292,1.409,5.31,5.31,0,0,1-.342,1.9,4.806,4.806,0,0,1-.975,1.583,4.618,4.618,0,0,1-1.533,1.084,4.883,4.883,0,0,1-2,.4"/><path class="c" d="M-466.623,1771.093a3.8,3.8,0,0,1,.983-1.125,2.208,2.208,0,0,1,1.367-.425c.077,0,.161,0,.25.008a.943.943,0,0,1,.233.042l-.267,1.817a2.147,2.147,0,0,0-.324-.067,2.406,2.406,0,0,0-.276-.017,2.219,2.219,0,0,0-1.116.25,2.34,2.34,0,0,0-.7.6,2.4,2.4,0,0,0-.383.717,4.083,4.083,0,0,0-.15.583l-.75,4.284h-1.95l1.117-6.284c.044-.211.092-.483.142-.817s.085-.633.108-.9h1.833c0,.056-.005.139-.016.251s-.025.233-.042.366-.034.264-.05.392-.031.236-.042.325Z"/><path class="c" d="M-457.591,1772.026a1.774,1.774,0,0,0-.667-.625,1.943,1.943,0,0,0-.983-.258,2.6,2.6,0,0,0-1.142.251,2.707,2.707,0,0,0-.9.685,3.358,3.358,0,0,0-.592,1,3.316,3.316,0,0,0-.217,1.187,2.663,2.663,0,0,0,.117.795,1.87,1.87,0,0,0,.367.669,1.818,1.818,0,0,0,.633.468,2.191,2.191,0,0,0,.917.175,2.449,2.449,0,0,0,1.209-.258,3.882,3.882,0,0,0,.841-.642l1.117,1.132a5.056,5.056,0,0,1-1.433,1,4.35,4.35,0,0,1-1.851.372,4.729,4.729,0,0,1-1.575-.25,3.554,3.554,0,0,1-1.216-.709,3.113,3.113,0,0,1-.784-1.092,3.524,3.524,0,0,1-.275-1.416,5.113,5.113,0,0,1,.35-1.867,5.05,5.05,0,0,1,.983-1.592,4.647,4.647,0,0,1,1.543-1.1,4.827,4.827,0,0,1,2.008-.409,4.549,4.549,0,0,1,1.708.325,2.524,2.524,0,0,1,1.242,1.026Z"/><path class="c" d="M-449.857,1772.976c.011-.078.019-.15.025-.216s.008-.134.008-.2a1.485,1.485,0,0,0-.458-1.1,1.768,1.768,0,0,0-1.292-.45,2.282,2.282,0,0,0-.934.184,2.523,2.523,0,0,0-.725.475,2.811,2.811,0,0,0-.508.641,2.359,2.359,0,0,0-.267.667Zm-4.334,1.4a.954.954,0,0,0-.017.184,1.681,1.681,0,0,0,.159.733,1.709,1.709,0,0,0,.442.575,2.154,2.154,0,0,0,.666.383,2.38,2.38,0,0,0,.834.142,2.792,2.792,0,0,0,1.308-.283,3.45,3.45,0,0,0,.975-.767l1.117,1.05a4.746,4.746,0,0,1-3.617,1.6,4.449,4.449,0,0,1-1.5-.242,3.469,3.469,0,0,1-1.184-.691,3.134,3.134,0,0,1-.783-1.109,3.78,3.78,0,0,1-.284-1.508,5.207,5.207,0,0,1,.351-1.925,4.855,4.855,0,0,1,.974-1.559,4.466,4.466,0,0,1,1.484-1.041,4.631,4.631,0,0,1,1.875-.375,4.2,4.2,0,0,1,1.325.2,2.955,2.955,0,0,1,1.059.6,2.707,2.707,0,0,1,.7,1,3.63,3.63,0,0,1,.25,1.4q0,.267-.05.742a7.158,7.158,0,0,1-.15.891Z"/><path class="b" d="M-519.6,1773.362h-12.317l-1.329,6.568h12.756l1.182-6.217a.3.3,0,0,0-.292-.351"/><path class="b" d="M-505.414,1750.587h-1.7l-3.01,15.993a.3.3,0,0,0,.291.352l3.357.018,2.725-14.36a1.688,1.688,0,0,0-1.658-2"/><path class="b" d="M-511.31,1773.6l-1.337,6.333h2.3a1.688,1.688,0,0,0,1.658-1.374l.982-5.173-3.318-.021a.3.3,0,0,0-.29.235"/><path class="b" d="M-517.075,1759.079l-5.365,7.378a.3.3,0,0,0,.241.471l3.954-.023a.3.3,0,0,0,.289-.241l1.412-7.355a.3.3,0,0,0-.531-.23"/><path class="b" d="M-530.654,1766.653a.294.294,0,0,1,.058-.127l12.488-15.939h-9.6l-2.931,15.995"/><path class="d" d="M-537.01,1757.081h-4.667l-.615,0,.378-.479,4.431-5.9a.294.294,0,0,1,.237-.119h-2.415a1.689,1.689,0,0,0-1.659,1.374l-4.928,25.966a1.688,1.688,0,0,0,1.659,2h3.664l4.206-22.5a.3.3,0,0,0-.291-.351"/></g></g></svg>