<svg xmlns="http://www.w3.org/2000/svg" xmlns:xlink="http://www.w3.org/1999/xlink" width="142.999" height="98.56" viewBox="0 0 142.999 98.56"><defs><style>.a{fill:#fff;}.b,.c{fill:#70338a;}.c{font-size:19.385px;font-family:Helvetica;letter-spacing:0.04em;}.d{filter:url(#a);}</style><filter id="a" x="0" y="0" width="142.999" height="98.56" filterUnits="userSpaceOnUse"><feOffset dy="3" input="SourceAlpha"/><feGaussianBlur stdDeviation="3" result="b"/><feFlood flood-opacity="0.161"/><feComposite operator="in" in2="b"/><feComposite in="SourceGraphic"/></filter></defs><g transform="translate(-889.442 -1087.403)"><g class="d" transform="matrix(1, 0, 0, 1, 889.44, 1087.4)"><path class="a" d="M-823.812,1737.32a15.283,15.283,0,0,0-4.589,10.263l-3.722,40.437a13.505,13.505,0,0,0,13.505,13.505l80.427.869a4.953,4.953,0,0,0,.814.056,9.763,9.763,0,0,0,1.8-.175,23.821,23.821,0,0,0,4.049-1.122,30.59,30.59,0,0,0,7.185-3.505,25.634,25.634,0,0,0,6.4-6.612,47.881,47.881,0,0,0,5.826-11.335c4.635-12.822,6.222-25.5,4.01-37.974a28.261,28.261,0,0,0-3.74-10.112,15.505,15.505,0,0,0-8.876-6.687,63.027,63.027,0,0,0-13.22-2.435,181.414,181.414,0,0,0-27.106-.193,259.472,259.472,0,0,0-35.366,4.406,151.349,151.349,0,0,0-15.621,3.881,46.178,46.178,0,0,0-4.62,1.668,29.4,29.4,0,0,0-6.526,4.348" transform="translate(841.12 -1715.89)"/></g><g transform="translate(1730.565 -628.487)"><path class="b" d="M-777.768,1741.4a2.316,2.316,0,0,1,.754-1.548,2.231,2.231,0,0,1,1.583-.639H-756.8a2.275,2.275,0,0,1,1.663.676,2.271,2.271,0,0,1,.679,1.66,2.27,2.27,0,0,1-.679,1.662,2.277,2.277,0,0,1-1.663.677h-16.674l-1.959,12a16.589,16.589,0,0,1,7.243-1.659,15.838,15.838,0,0,1,6.409,1.319,17.065,17.065,0,0,1,5.284,3.585,17.116,17.116,0,0,1,3.584,5.281,15.856,15.856,0,0,1,1.317,6.412,15.859,15.859,0,0,1-1.317,6.412,17.131,17.131,0,0,1-3.584,5.281,17.045,17.045,0,0,1-5.284,3.584,15.788,15.788,0,0,1-6.409,1.32,15.979,15.979,0,0,1-8.714-2.451,17.372,17.372,0,0,1-6.075-6.452,3.422,3.422,0,0,1-.526-1.885,2.24,2.24,0,0,1,.526-1.471,1.945,1.945,0,0,1,1.588-.643,2.357,2.357,0,0,1,1.545.606,5.039,5.039,0,0,1,1.168,1.431,11.691,11.691,0,0,0,4.3,4.49,11.685,11.685,0,0,0,6.187,1.7,11.421,11.421,0,0,0,4.641-.942,12.181,12.181,0,0,0,3.77-2.565,12.243,12.243,0,0,0,2.565-3.773,11.389,11.389,0,0,0,.946-4.638,11.39,11.39,0,0,0-.946-4.639,12.256,12.256,0,0,0-2.565-3.773,12.2,12.2,0,0,0-3.77-2.565,11.421,11.421,0,0,0-4.641-.942,18.022,18.022,0,0,0-2.188.148,12.437,12.437,0,0,0-2.342.529,10.135,10.135,0,0,0-2.108.982,5.066,5.066,0,0,0-1.588,1.508,11.143,11.143,0,0,1-1.131,1.357,1.934,1.934,0,0,1-1.434.528,1.942,1.942,0,0,1-1.508-.676,2.227,2.227,0,0,1-.606-1.511.441.441,0,0,1,.044-.226.535.535,0,0,0,.037-.226Z"/><path class="b" d="M-768.188,1790.578a19.176,19.176,0,0,1-10.4-2.939,20.581,20.581,0,0,1-7.162-7.611,6.346,6.346,0,0,1-.915-3.4,5.419,5.419,0,0,1,1.248-3.486,5.488,5.488,0,0,1,7.608-.445,8.238,8.238,0,0,1,1.91,2.327,8.5,8.5,0,0,0,3.17,3.313,8.863,8.863,0,0,0,7.911.562,9.045,9.045,0,0,0,2.806-1.906,9.068,9.068,0,0,0,1.9-2.809,8.149,8.149,0,0,0,.68-3.365,8.122,8.122,0,0,0-.68-3.362,9.023,9.023,0,0,0-1.9-2.812,9.035,9.035,0,0,0-2.8-1.9,9.316,9.316,0,0,0-5.173-.553,9.352,9.352,0,0,0-1.742.4,6.9,6.9,0,0,0-1.434.668,1.938,1.938,0,0,0-.618.572,14.464,14.464,0,0,1-1.539,1.847,5.018,5.018,0,0,1-3.659,1.447,5.111,5.111,0,0,1-3.869-1.737,5.376,5.376,0,0,1-1.409-3.615l.223-1.329,3.127-19.443a5.463,5.463,0,0,1,1.724-3.449,5.382,5.382,0,0,1,3.752-1.5H-756.8a5.432,5.432,0,0,1,3.887,1.589,5.419,5.419,0,0,1,1.62,3.912,5.4,5.4,0,0,1-1.6,3.893,5.441,5.441,0,0,1-3.906,1.61h-13.986l-.7,4.283a19.512,19.512,0,0,1,10.97,1.31,20.275,20.275,0,0,1,6.254,4.246,20.461,20.461,0,0,1,4.246,6.245,19.1,19.1,0,0,1,1.582,7.686,19.027,19.027,0,0,1-1.582,7.676,20.357,20.357,0,0,1-4.246,6.254,20.257,20.257,0,0,1-6.254,4.246A19.023,19.023,0,0,1-768.188,1790.578Zm-11.588-29.4-.006.006Z"/><text class="c" transform="translate(-731.335 1791.686) rotate(-90)"><tspan x="0" y="0">CINCO</tspan></text></g></g></svg>