<svg xmlns="http://www.w3.org/2000/svg" xmlns:xlink="http://www.w3.org/1999/xlink" width="139.999" height="96.06" viewBox="0 0 139.999 96.06"><defs><style>.a{fill:#fff;}.b{fill:#0f0e0b;}.c{fill:#d90010;}.d{filter:url(#a);}</style><filter id="a" x="0" y="0" width="139.999" height="96.06" filterUnits="userSpaceOnUse"><feOffset dy="8" input="SourceAlpha"/><feGaussianBlur stdDeviation="2.5" result="b"/><feFlood flood-opacity="0.161"/><feComposite operator="in" in2="b"/><feComposite in="SourceGraphic"/></filter></defs><g transform="translate(578.568 -1973.329)"><g class="d" transform="matrix(1, 0, 0, 1, -578.57, 1973.33)"><path class="a" d="M-562.757,1988.76a15.281,15.281,0,0,0-4.589,10.263l-3.722,40.436a13.5,13.5,0,0,0,13.505,13.505l80.427.869a4.815,4.815,0,0,0,.814.056,9.68,9.68,0,0,0,1.8-.175,23.858,23.858,0,0,0,4.049-1.122,30.515,30.515,0,0,0,7.185-3.505,25.651,25.651,0,0,0,6.4-6.612,47.842,47.842,0,0,0,5.826-11.335c4.635-12.822,6.222-25.5,4.01-37.973a28.241,28.241,0,0,0-3.741-10.113,15.5,15.5,0,0,0-8.875-6.686,63.094,63.094,0,0,0-13.22-2.436A181.431,181.431,0,0,0-500,1973.74a259.489,259.489,0,0,0-35.366,4.405,151.564,151.564,0,0,0-15.621,3.881,46.174,46.174,0,0,0-4.62,1.668,29.4,29.4,0,0,0-6.526,4.348" transform="translate(578.57 -1973.33)"/></g><path class="b" d="M-461.961,2012.427l.063-2.436,1.062.031a1.962,1.962,0,0,1,.5.062c.125.032.188.125.25.25a.826.826,0,0,1,.094.375.618.618,0,0,1-.187.438.842.842,0,0,1-.531.218.482.482,0,0,1,.187.125.988.988,0,0,1,.25.344l.406.656h-.406l-.312-.5c-.094-.156-.157-.25-.219-.344a.73.73,0,0,0-.156-.156c-.063-.031-.094-.062-.156-.062h-.563l-.031,1.093Zm.344-1.343h.687a1.08,1.08,0,0,0,.344-.031c.093-.031.156-.063.187-.156a.456.456,0,0,0,.062-.219.3.3,0,0,0-.124-.281.694.694,0,0,0-.407-.125l-.78-.031Z"/><path class="b" d="M-464.522,2012.4l.062-2.436h.469l.531,1.718a1.086,1.086,0,0,1,.093.374c.032-.093.063-.218.125-.374l.625-1.687h.437l-.062,2.436h-.312l.031-2.03-.75,2.03h-.281l-.656-2.093-.031,2.062Z"/><path class="c" d="M-522.685,2001.807h4.561l-6.5,24.989h-4.623Z"/><path class="c" d="M-527.4,2037.167l-.75.218v-.655l-.437-.313v-.593l-.75-.594.281-1.468s5.654-3.873,19.523-4.842c14.307-1,20.117-.968,23.709-.531,3.561.438,9.059,1.562,9.059,1.562l2.218-.062-.063.437.594-.219.062.531.906-.156-.812.437.968.531-2.374-.093-.375.218,1.625.594,1.4-.156-.156.312a9.408,9.408,0,0,1,2.437.312c.874.313-.969.157-.969.157a10.877,10.877,0,0,1,2.312.812c.531.375-4.092-.594-5.123-.812s-10.995-1.031-12.838-1.187-15.463-.313-19.4.218-12.62,1.843-17.368,3.78c-4.717,1.905-3.686,1.562-3.686,1.562"/><path class="c" d="M-515.438,2018.269a4.507,4.507,0,0,0,.343,3.248,2.362,2.362,0,0,0,2.062,1.062,3.31,3.31,0,0,0,2.405-1.031,6.052,6.052,0,0,0,1.437-3.342,4.381,4.381,0,0,0-.344-3.186,2.3,2.3,0,0,0-2-1.031,3.3,3.3,0,0,0-2.436,1.062,5.439,5.439,0,0,0-1.468,3.218m-6.31,0a9.819,9.819,0,0,1,3.561-6.185,10.986,10.986,0,0,1,7.247-2.437c3.28,0,5.622.968,6.966,2.874a7.359,7.359,0,0,1,1.093,5.685,9.812,9.812,0,0,1-3.561,6.216,11.1,11.1,0,0,1-7.372,2.437,8.4,8.4,0,0,1-6.06-2,7.2,7.2,0,0,1-1.874-6.591"/><path class="c" d="M-477.142,2018.269a4.5,4.5,0,0,0,.344,3.248,2.343,2.343,0,0,0,2.03,1.062,3.361,3.361,0,0,0,2.4-1.031,6.048,6.048,0,0,0,1.406-3.342,4.381,4.381,0,0,0-.344-3.186,2.264,2.264,0,0,0-2-1.031,3.344,3.344,0,0,0-2.436,1.062,5.413,5.413,0,0,0-1.406,3.218m-6.279,0a9.917,9.917,0,0,1,3.53-6.185,10.844,10.844,0,0,1,7.216-2.437c3.28,0,5.591.968,6.934,2.874a7.354,7.354,0,0,1,1.063,5.685,9.919,9.919,0,0,1-3.53,6.216,10.983,10.983,0,0,1-7.31,2.437,8.361,8.361,0,0,1-6.028-2,7.207,7.207,0,0,1-1.875-6.591"/><path class="c" d="M-532.181,2034.637h-4.655l2.031-7.841h-3.374a8.4,8.4,0,0,1-6.06-2,6.893,6.893,0,0,1-1.9-6.528,9.819,9.819,0,0,1,3.561-6.185,10.986,10.986,0,0,1,7.247-2.437h9.621l-1.125,4.342h-9.121a3.3,3.3,0,0,0-2.436,1.062,5.824,5.824,0,0,0-1.437,3.218,4.508,4.508,0,0,0,.343,3.248,2.363,2.363,0,0,0,2.062,1.062h8.371Z"/><path class="c" d="M-498.477,2001.807h4.623l-2.03,7.84h3.373a8.392,8.392,0,0,1,6.06,2,6.9,6.9,0,0,1,1.906,6.529,9.822,9.822,0,0,1-3.561,6.185,10.99,10.99,0,0,1-7.247,2.436h-9.621l1.125-4.342h9.152a3.291,3.291,0,0,0,2.436-1.062,5.817,5.817,0,0,0,1.437-3.217,4.511,4.511,0,0,0-.343-3.249,2.362,2.362,0,0,0-2.062-1.062H-501.6Z"/><path class="b" d="M-539.991,2009.179l1.562-5.311h-.906l.438-1.53h.906l.093-.344a4.19,4.19,0,0,1,1.375-2.249,3.287,3.287,0,0,1,2.03-.656,2.814,2.814,0,0,1,1.062.156l-.5,1.593a1.7,1.7,0,0,0-.624-.125,1.484,1.484,0,0,0-1.312,1.25l-.094.343h1.374l-.5,1.562h-1.344l-1.53,5.311Z"/><path class="b" d="M-535.586,2009.179l1.343-4.623c.25-.875.437-1.594.562-2.218h1.718l-.25,1.093h.032a3.238,3.238,0,0,1,2.5-1.281,1.318,1.318,0,0,1,1.5,1.312,3.28,3.28,0,0,1,2.5-1.312c1.062,0,1.593.688,1.5,1.843a10.994,10.994,0,0,1-.218,1.187l-1.156,4h-1.968l1.062-3.749a4.252,4.252,0,0,0,.187-.812c.063-.469-.125-.812-.593-.812-.687,0-1.437.906-1.843,2.28l-.906,3.093h-1.968l1.093-3.749c.063-.281.125-.531.157-.781.062-.468-.063-.843-.563-.843-.687,0-1.53.937-1.905,2.311l-.875,3.062Z"/></g></svg>