<svg xmlns="http://www.w3.org/2000/svg" xmlns:xlink="http://www.w3.org/1999/xlink" width="142.999" height="98.56" viewBox="0 0 142.999 98.56"><defs><style>.a{fill:#fff;}.b{fill:#f26311;}.c{fill:#ffa800;}.d{fill:#586eb3;}.e{fill:#b8babc;}.f{filter:url(#a);}</style><filter id="a" x="0" y="0" width="142.999" height="98.56" filterUnits="userSpaceOnUse"><feOffset dy="3" input="SourceAlpha"/><feGaussianBlur stdDeviation="3" result="b"/><feFlood flood-opacity="0.161"/><feComposite operator="in" in2="b"/><feComposite in="SourceGraphic"/></filter></defs><g transform="translate(-752.142 -1277.342)"><g class="f" transform="matrix(1, 0, 0, 1, 752.14, 1277.34)"><path class="a" d="M-961.112,1927.259a15.283,15.283,0,0,0-4.589,10.263l-3.722,40.436a13.5,13.5,0,0,0,13.5,13.505l80.427.87a4.907,4.907,0,0,0,.814.055,9.6,9.6,0,0,0,1.8-.175,23.848,23.848,0,0,0,4.049-1.122,30.514,30.514,0,0,0,7.185-3.5,25.65,25.65,0,0,0,6.4-6.611,47.868,47.868,0,0,0,5.826-11.336c4.635-12.822,6.222-25.5,4.01-37.973a28.248,28.248,0,0,0-3.741-10.113,15.5,15.5,0,0,0-8.875-6.686,63.039,63.039,0,0,0-13.22-2.435,181.3,181.3,0,0,0-27.106-.193,259.49,259.49,0,0,0-35.366,4.406,151.287,151.287,0,0,0-15.621,3.881,46.173,46.173,0,0,0-4.62,1.668,29.432,29.432,0,0,0-6.526,4.347" transform="translate(978.42 -1905.83)"/></g><g transform="translate(1730.565 -628.487)"><path class="b" d="M-879.011,1946.269a11.9,11.9,0,0,1-9.142-4.021,11.87,11.87,0,0,0-9.044-4.037h-.272c-3.96.01-7.164,2.725-7.164,6.034,0,3.423,3.329,6.052,7.327,6.052,2.944,0,4.884-2.013,4.884-4.018,0-2.222-2.157-4.049-5-4.049a4.845,4.845,0,0,0-2.032.411l-.477-.247.375-.311a7.03,7.03,0,0,1,2.259-.363c2.64,0,5.394,1.526,5.959,4.063a4.793,4.793,0,0,1-.272,2.774,12.536,12.536,0,0,0,6.47,1.74,11.642,11.642,0,0,0,9.517-4.468,11.282,11.282,0,0,1-3.39.44"/><path class="c" d="M-915.639,1960.387a11.868,11.868,0,0,0,9.153-4.03,11.959,11.959,0,0,1,9.066-4.036h.245c3.954.035,7.2,2.723,7.2,6.03,0,3.444-3.362,6.073-7.322,6.073-3,0-4.9-2.033-4.9-4.037,0-2.2,2.129-4.03,4.965-4.03a5.079,5.079,0,0,1,2.053.4l.468-.259-.4-.31a6.681,6.681,0,0,0-2.2-.351c-2.689,0-5.432,1.526-5.986,4.057a4.62,4.62,0,0,0,.261,2.779,12.432,12.432,0,0,1-6.47,1.751,11.722,11.722,0,0,1-9.527-4.5,11.485,11.485,0,0,0,3.389.46"/><path class="d" d="M-930.294,1952.321a11.871,11.871,0,0,0,9.169-4.037,11.853,11.853,0,0,1,9.039-4.035h.239c4,.016,7.214,2.712,7.214,6.04,0,3.433-3.363,6.072-7.339,6.072-2.982,0-4.9-2.032-4.9-4.04,0-2.18,2.135-4.037,4.992-4.037a5.141,5.141,0,0,1,2.043.4l.472-.242-.374-.3a6.4,6.4,0,0,0-2.244-.352c-2.667,0-5.421,1.517-5.97,4.044a4.626,4.626,0,0,0,.256,2.779,12.4,12.4,0,0,1-6.476,1.746,11.661,11.661,0,0,1-9.494-4.477,11.914,11.914,0,0,0,3.373.437"/><path class="e" d="M-873.851,1942.531c-7.17-7.544-18.3-12.383-30.782-12.383-11.652,0-22.081,4.178-29.23,10.837a61.723,61.723,0,0,1,28.594-6.817,61.446,61.446,0,0,1,31.418,8.363"/><path d="M-940.452,1972.35a2.411,2.411,0,0,0-2.564-1.69,2.907,2.907,0,0,0-3.139,2.939,2.9,2.9,0,0,0,3.139,2.937,2.656,2.656,0,0,0,2.711-2.238h.44a3.023,3.023,0,0,1-3.151,2.581,3.274,3.274,0,0,1-3.6-3.28,3.272,3.272,0,0,1,3.6-3.273c2.689,0,3.026,1.938,3.026,2.024h-.462"/><path d="M-935.868,1974.168c-.32.306-1.2.258-1.965.364-.973.086-1.489.361-1.489,1.044,0,.532.473.96,1.407.96,1.841,0,2.047-1.289,2.047-1.531v-.837m.4,1.734.364.548.3-.037v.292l-.326.018c-.657,0-.745-.273-.745-.646v-.233h-.016a2.208,2.208,0,0,1-2.042.979c-1.005,0-1.814-.315-1.814-1.247,0-1.054,1.1-1.28,2.01-1.355,1.8-.1,1.874-.2,1.874-.951,0-.176-.283-.864-1.516-.864-.956,0-1.624.426-1.678,1.193h-.408c.044-.967.788-1.494,2.086-1.494.951,0,1.907.273,1.907,1.165Z"/><path d="M-934.7,1972.231h.39v.949h.038a2.046,2.046,0,0,1,1.94-1.068c1.917,0,1.939,1.283,1.939,1.842v2.769h-.4v-2.842c0-.447-.071-1.475-1.537-1.475a1.818,1.818,0,0,0-1.978,1.9v2.42h-.39v-4.492"/><path d="M-926.138,1974.168c-.3.306-1.174.258-1.956.364-.968.086-1.5.361-1.5,1.044,0,.532.472.96,1.433.96,1.82,0,2.022-1.289,2.022-1.531v-.837m.418,1.734.347.548.3-.037v.292l-.326.018c-.642,0-.744-.273-.744-.646v-.233a2.218,2.218,0,0,1-2.032.979c-1.016,0-1.831-.315-1.831-1.247,0-1.054,1.119-1.28,2.01-1.355,1.809-.1,1.874-.2,1.874-.951,0-.176-.283-.864-1.51-.864-.983,0-1.63.426-1.684,1.193h-.4c.059-.967.814-1.494,2.08-1.494.934,0,1.907.273,1.907,1.165Z"/><rect width="0.38" height="6.266" transform="translate(-924.862 1970.457)"/><path d="M-917.111,1974.478a1.943,1.943,0,0,0-2.02-2.072,1.918,1.918,0,0,0-2.032,2.072,1.932,1.932,0,0,0,2.048,2.058,1.92,1.92,0,0,0,2-2.058m0,1.293h-.01a2.241,2.241,0,0,1-2.076,1.057,2.179,2.179,0,0,1-2.357-2.35,2.218,2.218,0,0,1,2.423-2.37,2.106,2.106,0,0,1,2.01,1.121h.01v-2.77h.429v6.264h-.429Z"/><path d="M-911.782,1974.221a1.871,1.871,0,0,0-1.994-1.815,2.006,2.006,0,0,0-2,1.815h3.993m-3.993.311a1.864,1.864,0,0,0,2,2,1.8,1.8,0,0,0,1.951-1.342h.407a2.129,2.129,0,0,1-2.358,1.629,2.178,2.178,0,0,1-2.406-2.263,2.306,2.306,0,0,1,2.406-2.455,2.169,2.169,0,0,1,2.39,2.427Z"/><rect width="0.402" height="6.266" transform="translate(-910.864 1970.457)"/><path d="M-902.2,1972.709c-.092-.618-.69-.96-1.526-.96a1.684,1.684,0,0,0-1.749,1.85,1.692,1.692,0,0,0,1.749,1.876c.929,0,1.456-.437,1.526-1.162h1.967c-.093,1.6-1.527,2.562-3.46,2.562-2.255,0-3.781-1.465-3.781-3.276s1.526-3.249,3.781-3.249c1.629,0,3.411.863,3.46,2.359H-902.2"/><path d="M-897.148,1975.73c.82,0,1.091-.683,1.091-1.28a1.126,1.126,0,0,0-1.091-1.27,1.121,1.121,0,0,0-1.1,1.27c0,.6.261,1.28,1.1,1.28m0-3.667c1.7,0,2.9,1.035,2.9,2.387,0,1.39-1.2,2.425-2.9,2.425s-2.89-1.035-2.89-2.425c0-1.352,1.2-2.387,2.89-2.387"/><path d="M-893.83,1972.173h1.75v.636h.021a2.232,2.232,0,0,1,1.749-.746c1.82,0,1.967,1.1,1.967,1.762v2.9h-1.82v-2.191c0-.616.093-1.262-.89-1.262a.925.925,0,0,0-.973.985v2.468h-1.8v-4.55"/><path d="M-885.149,1973.2a1.022,1.022,0,0,0-1.054,1.148,1,1,0,0,0,1.032,1.064,1,1,0,0,0,1.1-1.064,1.029,1.029,0,0,0-1.081-1.148m2.787,2.966c0,.774-.169,2.154-2.755,2.154-1.265,0-2.471-.233-2.678-1.436h1.788l.315.37.652.115c.885,0,.95-.5.95-1.073v-.431h-.022a1.819,1.819,0,0,1-1.467.664A2.122,2.122,0,0,1-888,1974.3a2.213,2.213,0,0,1,2.417-2.235,1.688,1.688,0,0,1,1.478.687h.011v-.577h1.728Z"/><path d="M-881.662,1972.173h1.749v.82h.022a1.668,1.668,0,0,1,1.635-.907l.424.049v1.359l-.69-.079c-.869,0-1.336.5-1.336,1.063v2.245h-1.8v-4.55"/><path d="M-874.166,1974a1.022,1.022,0,0,0-1.086-.921,1.1,1.1,0,0,0-1.141.921h2.227m-2.227.824a1.075,1.075,0,0,0,1.222,1.034l1.027-.515h1.694a2.628,2.628,0,0,1-2.731,1.532c-1.809,0-3.026-.907-3.026-2.434,0-1.37,1.342-2.378,2.955-2.378,1.977,0,2.982,1.212,2.879,2.761Z"/><path d="M-870.586,1975.224l.293.51.663.173.848-.5-.87-.468c-1.162-.237-2.553-.278-2.553-1.5,0-1.074,1.413-1.379,2.51-1.379,1.173,0,2.46.287,2.526,1.472h-1.668l-.228-.4-.565-.119-.787.344c0,.428,1.216.5,2.053.654,1.108.2,1.374.848,1.374,1.24,0,1.231-1.374,1.623-2.63,1.623-1.287,0-2.639-.362-2.682-1.651h1.716"/><path d="M-864.008,1975.73c.858,0,1.086-.683,1.086-1.28,0-.569-.228-1.27-1.086-1.27-.826,0-1.07.7-1.07,1.27,0,.6.244,1.28,1.07,1.28m0-3.667c1.727,0,2.911,1.035,2.911,2.387,0,1.39-1.184,2.425-2.911,2.425a2.6,2.6,0,0,1-2.89-2.425c0-1.352,1.206-2.387,2.89-2.387"/></g></g></svg>