<svg xmlns="http://www.w3.org/2000/svg" xmlns:xlink="http://www.w3.org/1999/xlink" width="139.999" height="96.06" viewBox="0 0 139.999 96.06"><defs><style>.a{fill:#fff;}.b{fill:#d8006b;}.c{filter:url(#a);}</style><filter id="a" x="0" y="0" width="139.999" height="96.06" filterUnits="userSpaceOnUse"><feOffset dy="8" input="SourceAlpha"/><feGaussianBlur stdDeviation="2.5" result="b"/><feFlood flood-opacity="0.161"/><feComposite operator="in" in2="b"/><feComposite in="SourceGraphic"/></filter></defs><g transform="translate(978.861 -1973.329)"><g class="c" transform="matrix(1, 0, 0, 1, -978.86, 1973.33)"><path class="a" d="M-963.05,1988.76a15.284,15.284,0,0,0-4.588,10.263l-3.723,40.436a13.5,13.5,0,0,0,13.505,13.505l80.427.869a4.816,4.816,0,0,0,.814.056,9.671,9.671,0,0,0,1.8-.175,23.834,23.834,0,0,0,4.049-1.122,30.515,30.515,0,0,0,7.185-3.505,25.635,25.635,0,0,0,6.4-6.612,47.805,47.805,0,0,0,5.826-11.335c4.635-12.822,6.222-25.5,4.01-37.973a28.24,28.24,0,0,0-3.74-10.113,15.5,15.5,0,0,0-8.876-6.686,63.082,63.082,0,0,0-13.22-2.436,181.431,181.431,0,0,0-27.106-.192,259.49,259.49,0,0,0-35.366,4.405,151.7,151.7,0,0,0-15.621,3.881,46.261,46.261,0,0,0-4.62,1.668,29.448,29.448,0,0,0-6.526,4.348" transform="translate(978.86 -1973.33)"/></g><path class="b" d="M-946.533,2011.6a1.112,1.112,0,0,1-.367.856,1.356,1.356,0,0,1-.917.336h-6.14c-.123,0-.153.03-.153.091,0,.031.03.061.061.092l.183.153a1.088,1.088,0,0,1,.306.855,1,1,0,0,1-.581.947c-.122.061-.214.123-.214.153.031.061.031.061.061.061l.245.183a1.08,1.08,0,0,1,.489.917.973.973,0,0,1-.428.886c-.244.153-.367.244-.367.275s.031.061.061.092l.275.152a1.071,1.071,0,0,1,.459.948,1,1,0,0,1-.581,1.008c-.153.061-.214.122-.214.152,0,.062.061.123.184.184a1.066,1.066,0,0,1,.611,1.039,1.024,1.024,0,0,1-.611,1.008c-.092.03-.153.091-.153.153,0,.03.03.091.122.122a1.123,1.123,0,0,1,.672,1.069,1.039,1.039,0,0,1-.519.917c-.061.061-.061.091-.061.122,0,.091.183.122.58.122h5.805a1.353,1.353,0,0,1,.917.336,1.047,1.047,0,0,1,.366.825c0,.794-.458,1.191-1.4,1.191h-7.577a1.015,1.015,0,0,1-.764-.366,1.11,1.11,0,0,1-.336-.825,1.052,1.052,0,0,1,.459-.917c.183-.122.274-.183.274-.244,0-.031-.061-.061-.152-.122a1,1,0,0,1-.581-1.008,1.016,1.016,0,0,1,.489-.978l.214-.122.061-.061a.8.8,0,0,0-.336-.275.984.984,0,0,1-.458-.917,1.132,1.132,0,0,1,.58-1.039c.092-.03.153-.091.153-.152l-.061-.062-.336-.274a.947.947,0,0,1-.336-.825,1.007,1.007,0,0,1,.427-.886l.306-.184.061-.061c0-.061-.031-.091-.061-.091l-.275-.245a.94.94,0,0,1-.428-.886,1.133,1.133,0,0,1,.642-1.039c.091-.061.122-.091.122-.122s-.031-.061-.092-.122a1.253,1.253,0,0,1-.672-1.069.955.955,0,0,1,.4-.886q.367-.23.367-.275a.163.163,0,0,0-.061-.123l-.244-.152a.939.939,0,0,1-.489-.947,1.112,1.112,0,0,1,.366-.856,1.353,1.353,0,0,1,.917-.336h7.454a1.351,1.351,0,0,1,.917.336A1.278,1.278,0,0,1-946.533,2011.6Zm2.352,7.088a1.243,1.243,0,0,1-.641,1.069c-.092.062-.123.092-.123.123s.031.061.061.091l.214.153a1.1,1.1,0,0,1,.489.947,1.066,1.066,0,0,1-.611,1.039c-.092.03-.153.092-.153.122,0,.061.092.153.306.275a.966.966,0,0,1,.458.886c0,.794-.489,1.192-1.436,1.192-1.008,0-1.5-.4-1.5-1.192a1.039,1.039,0,0,1,.611-1.039.154.154,0,0,0,.122-.152c0-.062-.061-.092-.152-.153a.928.928,0,0,1-.581-.917,1.2,1.2,0,0,1,.611-1.13.87.87,0,0,0,.153-.122c0-.031-.061-.092-.183-.153a1.054,1.054,0,0,1-.581-1.008,1.069,1.069,0,0,1,.458-.947l.062-.031c.183-.092.244-.183.244-.214,0-.061-.031-.061-.061-.061l-.306-.214a1.01,1.01,0,0,1-.4-.916.958.958,0,0,1,.581-.978q.183-.092.183-.183c0-.031-.122-.122-.336-.245a1.028,1.028,0,0,1-.428-.916c0-.795.458-1.192,1.344-1.192a2.184,2.184,0,0,1,.978.153,1.116,1.116,0,0,1,.581,1.008,1.146,1.146,0,0,1-.642,1.07c-.092.061-.122.091-.122.122s.03.061.091.122a1.28,1.28,0,0,1,.673,1.069,1.009,1.009,0,0,1-.428.886l-.245.184-.061.061c-.03.03-.061.03-.061.061a1.192,1.192,0,0,0,.275.244A.842.842,0,0,1-944.181,2018.687Z"/><path class="b" d="M-932.755,2018.657a1.067,1.067,0,0,1-.366.855,1.354,1.354,0,0,1-.917.336h-4.674a.989.989,0,0,0-.458.061c-.031,0-.031.031-.031.061s.061.092.183.184a1.161,1.161,0,0,1,.4.916,1.02,1.02,0,0,1-.52.947c-.153.092-.244.153-.244.214,0,.031.091.092.244.183a1.07,1.07,0,0,1,.52.978q0,1.191-1.375,1.192c-1.039,0-1.558-.4-1.558-1.161a1.152,1.152,0,0,1,.672-1.07l.091-.091c0-.061-.091-.153-.3-.245a.94.94,0,0,1-.489-.947.971.971,0,0,1,.611-1.008c.122-.061.183-.092.183-.153a.066.066,0,0,0-.061-.061l-.3-.275a1,1,0,0,1-.4-.947,1.1,1.1,0,0,1,.519-.978l.183-.091c.031-.031.061-.031.061-.061s-.03-.061-.061-.092l-.336-.244a1.068,1.068,0,0,1-.4-.886.985.985,0,0,1,.458-.917l.245-.153c.03-.03.061-.03.061-.061,0-.061,0-.091-.031-.091l-.366-.245a.985.985,0,0,1-.367-.855q0-1.193,1.466-1.192t1.467,1.192a.95.95,0,0,1-.367.855l-.336.245c-.03.03-.061.03-.061.061s.031.061.061.091l.275.184a.96.96,0,0,1,.428.916.986.986,0,0,1-.458.917c-.092.061-.123.122-.123.152,0,.092.153.123.489.123h4.736C-933.152,2017.5-932.755,2017.893-932.755,2018.657Zm2.322-7.088a1.222,1.222,0,0,1-.336.794,1.058,1.058,0,0,1-.733.367h-6.446a1.358,1.358,0,0,1-.917-.336,1.048,1.048,0,0,1-.367-.825,1.236,1.236,0,0,1,.337-.825,1,1,0,0,1,.794-.336h6.416a1.332,1.332,0,0,1,.886.336A1.139,1.139,0,0,1-930.433,2011.569Zm.031,14.145a1.235,1.235,0,0,1-.336.825,1.017,1.017,0,0,1-.764.367h-6.324c-.917,0-1.375-.4-1.375-1.161a1.165,1.165,0,0,1,.336-.8.922.922,0,0,1,.733-.336l6.936.061a.946.946,0,0,1,.58.367A1.04,1.04,0,0,1-930.4,2025.714Z"/><path class="b" d="M-925.331,2023.362c0,.794-.427,1.191-1.313,1.191a2.659,2.659,0,0,1-1.008-.153,1.054,1.054,0,0,1-.581-1.008.9.9,0,0,1,.4-.855l.306-.214.061-.061c0-.061-.092-.123-.275-.245a1.028,1.028,0,0,1-.489-.947,1.113,1.113,0,0,1,.672-1.039.541.541,0,0,0,.092-.122.108.108,0,0,0-.031-.061l-.336-.244a1.048,1.048,0,0,1-.4-.856.989.989,0,0,1,.4-.886l.306-.183c.03-.031.061-.061.061-.092s-.031-.061-.061-.091l-.336-.214a.988.988,0,0,1-.367-.856.961.961,0,0,1,.428-.916c.214-.122.336-.214.336-.245s0-.03-.031-.061l-.366-.275a1.023,1.023,0,0,1-.367-.855,1.043,1.043,0,0,1,.4-.856,1.464,1.464,0,0,1,.978-.336,2.047,2.047,0,0,1,.978.184,1.039,1.039,0,0,1,.58.977,1.084,1.084,0,0,1-.428.947l-.275.153c-.03.031-.061.061-.061.092,0,.061.031.091.061.091l.214.153a.984.984,0,0,1,.458.917,1.027,1.027,0,0,1-.427.916l-.275.214-.061.061c0,.061.03.092.061.092l.275.153a1.036,1.036,0,0,1,.458.947,1.026,1.026,0,0,1-.428.916l-.275.153c-.03.031-.03.031-.03.061s.03.061.061.092l.244.183a1.052,1.052,0,0,1,.459.917.988.988,0,0,1-.367.855l-.367.275c-.03.031-.03.031-.03.061s.091.122.3.245C-925.483,2022.628-925.331,2022.934-925.331,2023.362Zm7.058-11.793a1.069,1.069,0,0,1-.581,1.038,2.447,2.447,0,0,1-1.008.153h-4.46a2.281,2.281,0,0,1-.978-.153,1.054,1.054,0,0,1-.58-1.008c0-.794.458-1.161,1.405-1.161h5.1a1.013,1.013,0,0,1,.764.367A1.094,1.094,0,0,1-918.273,2011.569Zm0,14.145c0,.794-.458,1.192-1.344,1.192h-4a10.6,10.6,0,0,1-1.5-.062,1.046,1.046,0,0,1-.763-1.069,1.049,1.049,0,0,1,.611-1.008,2,2,0,0,1,.886-.122h4.8C-918.7,2024.584-918.273,2024.981-918.273,2025.714Zm2.352-11.762c0,.794-.458,1.191-1.4,1.191a2.153,2.153,0,0,1-.917-.153,1.1,1.1,0,0,1-.58-1.038q0-1.193,1.375-1.192h.183C-916.379,2012.791-915.921,2013.188-915.921,2013.952Zm0,9.44a1.033,1.033,0,0,1-.855,1.1,3.181,3.181,0,0,1-.794.061,1.335,1.335,0,0,1-.917-.3,1.048,1.048,0,0,1-.367-.825c0-.795.489-1.192,1.436-1.192C-916.409,2022.231-915.921,2022.6-915.921,2023.392Z"/><path class="b" d="M-901.684,2025.745c0,.794-.458,1.222-1.374,1.222a2.378,2.378,0,0,1-.978-.153,1.1,1.1,0,0,1-.58-1.039,1.176,1.176,0,0,1,.549-.978l.092-.061c.061-.03.092-.061.092-.122s-.061-.122-.214-.183a1.024,1.024,0,0,1-.55-1.008.934.934,0,0,1,.58-.978c.123-.061.184-.122.184-.153s-.031-.061-.061-.091l-.336-.214a.988.988,0,0,1-.4-.825,1.019,1.019,0,0,1,.306-.825c.183-.183.3-.275.3-.306,0-.061-.03-.122-.091-.122h-7.363c-.153,0-.214.031-.214.122l.061.092.183.153a1.149,1.149,0,0,1,.336.855,1.069,1.069,0,0,1-.519.978c-.183.092-.275.153-.275.214l.031.03.061.061.244.184a.939.939,0,0,1,.428.825,1.071,1.071,0,0,1-.428.977c-.214.123-.305.245-.305.275s.061.092.152.122a1,1,0,0,1,.611,1.009,1.138,1.138,0,0,1-.611,1.069,1.9,1.9,0,0,1-.886.153,1.931,1.931,0,0,1-.855-.153,1.13,1.13,0,0,1-.58-1.039.951.951,0,0,1,.58-1.008c.092-.061.153-.122.153-.153,0-.061-.092-.152-.306-.275a1,1,0,0,1-.458-.947,1.077,1.077,0,0,1,.489-.977c.183-.092.275-.184.275-.214a2.868,2.868,0,0,0-.4-.306,1.024,1.024,0,0,1-.4-.886,1.019,1.019,0,0,1,.581-1.039c.092-.061.153-.091.153-.152a.066.066,0,0,0-.061-.061l-.306-.184a1.01,1.01,0,0,1-.4-.916,1.191,1.191,0,0,1,.3-.8.9.9,0,0,1,.7-.366c.367,0,.581-.061.581-.122a2.4,2.4,0,0,0-.306-.367.931.931,0,0,1-.275-.764,1.054,1.054,0,0,1,.581-1.008,2.209,2.209,0,0,1,.947-.153c.947,0,1.436.4,1.436,1.161a1.132,1.132,0,0,1-.336.825l-.214.214c-.031.03-.061.061-.061.092,0,.061.091.091.275.091h5.132c.245,0,.367-.03.367-.122,0-.031-.061-.092-.153-.183a1.047,1.047,0,0,1-.428-.886c0-.795.459-1.192,1.406-1.192,1.038,0,1.558.367,1.558,1.131a1.124,1.124,0,0,1-.428.947.314.314,0,0,0-.153.214c0,.061.153.091.459.122a1.2,1.2,0,0,1,.763.366,1.133,1.133,0,0,1,.306.8,1.087,1.087,0,0,1-.4.916l-.306.184-.061.061a.167.167,0,0,0,.092.152l.244.153a.99.99,0,0,1,.4.886,1.083,1.083,0,0,1-.4.917c-.244.153-.366.244-.366.244,0,.061.122.153.336.336a.948.948,0,0,1,.4.917,1.048,1.048,0,0,1-.367.886c-.244.183-.366.275-.366.305s.091.092.275.184A.84.84,0,0,1-901.684,2025.745Zm-6.6-11.854c0,.824-.489,1.222-1.466,1.222s-1.467-.4-1.467-1.192c0-.825.459-1.222,1.375-1.222a1.883,1.883,0,0,1,1.039.214A1.1,1.1,0,0,1-908.283,2013.891Zm1.864-2.383c0,.794-.458,1.191-1.4,1.191a2.118,2.118,0,0,1-1.009-.183,1.139,1.139,0,0,1-.55-.978c0-.794.459-1.191,1.406-1.191C-906.938,2010.347-906.419,2010.744-906.419,2011.508Zm1.894,2.413a1.139,1.139,0,0,1-.611,1.069,2.359,2.359,0,0,1-.916.153,1.733,1.733,0,0,1-.795-.153,1.12,1.12,0,0,1-.641-1.008,1.11,1.11,0,0,1,.611-1.069,2.116,2.116,0,0,1,.947-.153C-905.014,2012.73-904.525,2013.127-904.525,2013.921Z"/><path class="b" d="M-888.852,2011.6a1.112,1.112,0,0,1-.366.856,1.358,1.358,0,0,1-.917.336h-6.171c-.123,0-.153.03-.153.091,0,.031.03.061.061.092l.183.153a1.088,1.088,0,0,1,.306.855,1,1,0,0,1-.581.947c-.122.061-.214.123-.214.153.031.061.031.061.062.061l.244.183a1.08,1.08,0,0,1,.489.917.973.973,0,0,1-.428.886c-.244.153-.367.244-.367.275s.031.061.062.092l.274.152a1.071,1.071,0,0,1,.459.948,1,1,0,0,1-.581,1.008c-.152.061-.214.122-.214.152,0,.062.062.123.184.184a1.066,1.066,0,0,1,.611,1.039,1.024,1.024,0,0,1-.611,1.008c-.092.03-.153.091-.153.153,0,.03.031.091.122.122a1.123,1.123,0,0,1,.672,1.069,1.039,1.039,0,0,1-.519.917c-.061.061-.061.091-.061.122,0,.091.183.122.58.122h5.805a1.353,1.353,0,0,1,.917.336,1.047,1.047,0,0,1,.366.825c0,.794-.458,1.191-1.4,1.191h-7.455a1.012,1.012,0,0,1-.763-.366,1.107,1.107,0,0,1-.337-.825,1.052,1.052,0,0,1,.459-.917c.183-.122.275-.183.275-.244,0-.031-.061-.061-.153-.122a1,1,0,0,1-.581-1.008,1.016,1.016,0,0,1,.489-.978l.214-.122.061-.061a.8.8,0,0,0-.336-.275.986.986,0,0,1-.458-.917,1.132,1.132,0,0,1,.58-1.039c.092-.03.153-.091.153-.152l-.061-.062-.336-.274a.95.95,0,0,1-.336-.825,1.007,1.007,0,0,1,.428-.886l.305-.184.061-.061c0-.061-.03-.091-.061-.091l-.275-.245a.94.94,0,0,1-.428-.886,1.133,1.133,0,0,1,.642-1.039c.092-.061.122-.091.122-.122s-.03-.061-.091-.122a1.252,1.252,0,0,1-.673-1.069.956.956,0,0,1,.4-.886q.366-.23.366-.275a.16.16,0,0,0-.061-.123l-.336-.122a.94.94,0,0,1-.489-.947,1.107,1.107,0,0,1,.367-.855,1.351,1.351,0,0,1,.916-.336h7.455a1.353,1.353,0,0,1,.917.336A1.155,1.155,0,0,1-888.852,2011.6Zm2.322,7.088a1.243,1.243,0,0,1-.641,1.069c-.092.062-.123.092-.123.123s.031.061.061.091l.214.153a1.1,1.1,0,0,1,.489.947,1.066,1.066,0,0,1-.611,1.039c-.092.03-.153.092-.153.122,0,.061.092.153.306.275a.966.966,0,0,1,.458.886c0,.794-.489,1.192-1.436,1.192-1.008,0-1.5-.4-1.5-1.192a1.039,1.039,0,0,1,.611-1.039.154.154,0,0,0,.122-.152c0-.062-.061-.092-.152-.153a.928.928,0,0,1-.581-.917,1.2,1.2,0,0,1,.611-1.13.87.87,0,0,0,.153-.122c0-.031-.061-.092-.183-.153a1.054,1.054,0,0,1-.581-1.008,1.069,1.069,0,0,1,.458-.947l.062-.031c.183-.092.244-.183.244-.214,0-.061-.031-.061-.061-.061l-.306-.214a1.01,1.01,0,0,1-.4-.916.958.958,0,0,1,.581-.978q.183-.092.183-.183c0-.031-.122-.122-.336-.245a1.028,1.028,0,0,1-.428-.916c0-.795.458-1.192,1.344-1.192a2.184,2.184,0,0,1,.978.153,1.116,1.116,0,0,1,.581,1.008,1.146,1.146,0,0,1-.642,1.07c-.092.061-.122.091-.122.122s.03.061.091.122a1.28,1.28,0,0,1,.673,1.069,1.009,1.009,0,0,1-.428.886l-.245.184-.061.061c-.03.03-.061.03-.061.061a1.192,1.192,0,0,0,.275.244A.842.842,0,0,1-886.53,2018.687Z"/><path class="b" d="M-875.073,2018.657a1.065,1.065,0,0,1-.367.855,1.351,1.351,0,0,1-.916.336h-4.675a.992.992,0,0,0-.458.061c-.03,0-.03.031-.03.061s.061.092.183.184a1.16,1.16,0,0,1,.4.916,1.019,1.019,0,0,1-.519.947c-.153.092-.245.153-.245.214,0,.031.092.092.245.183a1.07,1.07,0,0,1,.519.978q0,1.191-1.375,1.192c-1.039,0-1.558-.4-1.558-1.161a1.154,1.154,0,0,1,.672-1.07l.092-.091c0-.061-.092-.153-.306-.245a.939.939,0,0,1-.488-.947.97.97,0,0,1,.611-1.008c.122-.061.183-.092.183-.153a.066.066,0,0,0-.061-.061l-.336-.183a1,1,0,0,1-.4-.947,1.1,1.1,0,0,1,.519-.978l.183-.092c.031-.03.061-.03.061-.061s-.03-.061-.061-.091l-.336-.245a1.066,1.066,0,0,1-.4-.886.983.983,0,0,1,.458-.916l.245-.153c.03-.031.061-.031.061-.061,0-.061,0-.092-.031-.092l-.366-.244a.988.988,0,0,1-.367-.856q0-1.191,1.466-1.191t1.467,1.191a.952.952,0,0,1-.367.856l-.336.244c-.03.031-.061.031-.061.061s.031.061.061.092l.275.183a.962.962,0,0,1,.428.917.984.984,0,0,1-.458.916c-.092.061-.123.123-.123.153,0,.092.153.122.489.122h4.736C-875.5,2017.5-875.073,2017.893-875.073,2018.657Zm2.322-7.088a1.222,1.222,0,0,1-.336.794,1.06,1.06,0,0,1-.733.367h-6.447a1.355,1.355,0,0,1-.916-.336,1.045,1.045,0,0,1-.367-.825,1.235,1.235,0,0,1,.336-.825,1,1,0,0,1,.794-.336H-874a1.33,1.33,0,0,1,.886.336A1.137,1.137,0,0,1-872.751,2011.569Zm.03,14.145a1.235,1.235,0,0,1-.336.825,1.013,1.013,0,0,1-.763.367h-6.325c-.916,0-1.374-.4-1.374-1.161a1.165,1.165,0,0,1,.336-.8.922.922,0,0,1,.733-.336l6.935.061a.948.948,0,0,1,.581.367A1.254,1.254,0,0,1-872.721,2025.714Z"/><path class="b" d="M-867.954,2016.365a1.079,1.079,0,0,1-.642.978,1.875,1.875,0,0,1-.825.153h-.214a1.355,1.355,0,0,1-.916-.336,1.157,1.157,0,0,1-.367-.856.983.983,0,0,1,.458-.916l.275-.184.061-.061a.158.158,0,0,0-.061-.122l-.3-.183a.925.925,0,0,1-.4-.886c0-.8.458-1.192,1.405-1.192,1.039,0,1.528.4,1.528,1.222a.951.951,0,0,1-.489.917l-.245.153c-.03.03-.061.061-.061.091a.1.1,0,0,0,.031.061l.366.214A1.193,1.193,0,0,1-867.954,2016.365Zm0,7a1.081,1.081,0,0,1-.612,1.008,1.945,1.945,0,0,1-.855.153,2.059,2.059,0,0,1-.978-.184,1.025,1.025,0,0,1-.519-.886c0-.825.458-1.222,1.405-1.222a2.6,2.6,0,0,1,.978.153A1.061,1.061,0,0,1-867.954,2023.362Zm7-4.705a1.2,1.2,0,0,1-.336.855,1.276,1.276,0,0,1-.886.336h-4.858c-1.008,0-1.528-.4-1.528-1.191a1.147,1.147,0,0,1,.612-1.009,1.651,1.651,0,0,1,.794-.152h5.01a1.273,1.273,0,0,1,.886.336A1.239,1.239,0,0,1-860.958,2018.657Zm0,7.026c0,.8-.428,1.192-1.314,1.192h-5.1a1.2,1.2,0,0,1-.855-.336,1.021,1.021,0,0,1-.337-.825,1.056,1.056,0,0,1,.581-1.008,1.953,1.953,0,0,1,1.008-.183h4.8a1.351,1.351,0,0,1,.916.336A1.235,1.235,0,0,1-860.958,2025.683Zm0-14.084c0,.825-.55,1.222-1.68,1.222a1.407,1.407,0,0,1-.4-.03h-4.185c-.886,0-1.314-.4-1.314-1.161a1.053,1.053,0,0,1,.581-1.008,2.224,2.224,0,0,1,1.038-.153h4.247a3.344,3.344,0,0,1,1.191.153A1.034,1.034,0,0,1-860.958,2011.6Zm2.383,2.353a1.124,1.124,0,0,1-.611,1.038,2.089,2.089,0,0,1-.886.153q-1.467,0-1.467-1.191c0-.764.459-1.161,1.406-1.161C-859.094,2012.791-858.575,2013.188-858.575,2013.952Zm0,9.41a1.251,1.251,0,0,1-.4.916,1.779,1.779,0,0,1-1.192.275c-.916,0-1.344-.4-1.344-1.161a1.07,1.07,0,0,1,.519-.978c.184-.091.245-.152.245-.183,0-.061-.031-.092-.092-.122a1.112,1.112,0,0,1-.672-1.039q0-1.191,1.558-1.191c.947,0,1.405.4,1.405,1.161a1.027,1.027,0,0,1-.427.916l-.275.183-.061.062c0,.061.061.122.214.183A1.006,1.006,0,0,1-858.575,2023.362Z"/></g></svg>