<svg xmlns="http://www.w3.org/2000/svg" xmlns:xlink="http://www.w3.org/1999/xlink" width="140" height="96.06" viewBox="0 0 140 96.06"><defs><style>.a{fill:#fff;}.b{fill:#0090df;}.c{mix-blend-mode:multiply;isolation:isolate;}.d{fill:url(#c);}.e{fill:url(#e);}.f{fill:url(#h);}.g{fill:#0f0e0b;}.h{filter:url(#a);}</style><filter id="a" x="0" y="0" width="140" height="96.06" filterUnits="userSpaceOnUse"><feOffset dy="8" input="SourceAlpha"/><feGaussianBlur stdDeviation="2.5" result="b"/><feFlood flood-opacity="0.161"/><feComposite operator="in" in2="b"/><feComposite in="SourceGraphic"/></filter><linearGradient id="c" x1="0.5" y1="0.358" x2="0.5" y2="1.109" gradientUnits="objectBoundingBox"><stop offset="0" stop-color="#fff"/><stop offset="1" stop-color="#0068b6"/></linearGradient><linearGradient id="e" x1="0.5" y1="0.363" x2="0.5" y2="1.09" xlink:href="#c"/><linearGradient id="h" x1="0.5" y1="0.362" x2="0.5" y2="1.108" xlink:href="#c"/></defs><g transform="translate(1110.971 -1974.65)"><g class="h" transform="matrix(1, 0, 0, 1, -1110.97, 1974.65)"><path class="a" d="M-1095.16,1990.081a15.284,15.284,0,0,0-4.588,10.263l-3.723,40.436a13.505,13.505,0,0,0,13.505,13.5l80.428.869a4.809,4.809,0,0,0,.813.056,9.569,9.569,0,0,0,1.8-.175,23.832,23.832,0,0,0,4.049-1.122,30.525,30.525,0,0,0,7.185-3.505,25.669,25.669,0,0,0,6.4-6.611,47.867,47.867,0,0,0,5.825-11.336c4.635-12.822,6.223-25.5,4.01-37.973a28.246,28.246,0,0,0-3.74-10.113,15.5,15.5,0,0,0-8.876-6.686,63.027,63.027,0,0,0-13.22-2.435,181.269,181.269,0,0,0-27.1-.193,259.355,259.355,0,0,0-35.367,4.406,151.128,151.128,0,0,0-15.621,3.881,46.007,46.007,0,0,0-4.62,1.667,29.483,29.483,0,0,0-6.526,4.348" transform="translate(1110.97 -1974.65)"/></g><path class="b" d="M-1079.888,2006.728h-1.521l3.366-10.908h2.816a5.926,5.926,0,0,1,1.586.194,3.3,3.3,0,0,1,1.165.583,1.935,1.935,0,0,1,.615.971,2.387,2.387,0,0,1-.1,1.327,4.212,4.212,0,0,1-1.327,1.974,5.7,5.7,0,0,1-2.428,1.2l2.428,4.661h-1.845l-2.2-4.4h-1.23Zm6.441-7.8a1.656,1.656,0,0,0,.065-.874.989.989,0,0,0-.421-.582,1.711,1.711,0,0,0-.777-.324,4.846,4.846,0,0,0-1-.1h-1.327l-1.262,4.111h.744a5.962,5.962,0,0,0,1.327-.13,6.121,6.121,0,0,0,1.165-.388,3.9,3.9,0,0,0,.907-.68A3.288,3.288,0,0,0-1073.447,1998.927Z"/><path class="b" d="M-1071.155,2006.728h-1.522l3.367-10.908h1.521Z"/><path class="b" d="M-1058.914,1995.82l-.389,1.23h-3.2l-2.978,9.678h-1.521l2.978-9.678h-3.205l.389-1.23Z"/><path class="b" d="M-1049.038,1995.82h1.36l-2.557,10.908h-1.457l2.1-8.513-5.146,6.538h-1.554l-1.132-6.538-3.14,8.513h-1.456l4.142-10.908h1.36l1.359,7.7Z"/><path class="b" d="M-1044.025,2006.922a4.743,4.743,0,0,1-2.136-.453,2.987,2.987,0,0,1-1.3-1.23,4.071,4.071,0,0,1-.485-1.813,6.534,6.534,0,0,1,.323-2.168,8.347,8.347,0,0,1,1.036-2.169,8.526,8.526,0,0,1,1.586-1.812,7.292,7.292,0,0,1,2.039-1.23,6.6,6.6,0,0,1,2.428-.453,4.632,4.632,0,0,1,2.136.453,2.986,2.986,0,0,1,1.295,1.23,3.952,3.952,0,0,1,.485,1.812,5.9,5.9,0,0,1-.324,2.169,8.305,8.305,0,0,1-1.035,2.168,8.507,8.507,0,0,1-1.586,1.813,7.315,7.315,0,0,1-2.039,1.23A6.748,6.748,0,0,1-1044.025,2006.922Zm.389-1.2a4.549,4.549,0,0,0,1.747-.356,5.492,5.492,0,0,0,1.489-.938,5.607,5.607,0,0,0,1.165-1.424,9.01,9.01,0,0,0,.777-1.716,5.779,5.779,0,0,0,.291-1.715,3.05,3.05,0,0,0-.291-1.392,2.113,2.113,0,0,0-.906-.939,3.249,3.249,0,0,0-1.554-.356,4.563,4.563,0,0,0-1.747.356,5.518,5.518,0,0,0-1.489.939,7.025,7.025,0,0,0-1.166,1.392,9.059,9.059,0,0,0-.776,1.715,5.753,5.753,0,0,0-.292,1.716,3.294,3.294,0,0,0,.292,1.424,1.958,1.958,0,0,0,.906.938A3.239,3.239,0,0,0-1043.636,2005.724Z"/><path class="b" d="M-1081.959,2009.673h7.153c5.567,0,8.221,1.715,5.6,10.293-2.654,8.577-6.344,10.292-11.943,10.292h-7.121Zm1.553,18.093c3.69,0,6.15-1.489,7.865-7.121l.421-1.359c1.748-5.632.162-7.088-3.495-7.088h-4.176l-4.79,15.568Z"/><path class="b" d="M-1064.384,2009.673h2.977l-6.343,20.585h-2.978Z"/><path class="b" d="M-1062.96,2019.966c2.848-9.257,7.023-10.649,12.2-10.649a19.314,19.314,0,0,1,5.858.712l-1.294,2.557a28.511,28.511,0,0,0-5.438-.583c-4.078,0-6.214,1.457-7.962,7.186l-.453,1.456c-1.716,5.6-.55,7.347,3.463,7.347a19.091,19.091,0,0,0,3.949-.356l2.265-7.314h2.784l-2.881,9.386a27.256,27.256,0,0,1-7.088.874C-1062.507,2030.549-1065.808,2029.222-1062.96,2019.966Z"/><path class="b" d="M-1042.181,2009.673h2.978l-6.344,20.585h-2.978Z"/><path class="b" d="M-1032.115,2012.327h-6.8l.809-2.654h16.507l-.809,2.654h-6.765l-5.534,17.931h-2.946Z"/><path class="b" d="M-1028.458,2030.258h-2.913l14.339-20.714h2.654l1.553,20.714h-3.042l-.291-4.434h-9.257Zm11.426-16.6-6.668,9.645h7.315Z"/><path class="b" d="M-1005.9,2009.673h2.945l-5.535,18h10.746l-.809,2.589h-13.691Z"/><g class="c"><path class="d" d="M-1081.959,2009.673h7.153c5.567,0,8.221,1.715,5.6,10.293-2.654,8.577-6.344,10.292-11.943,10.292h-7.121Zm1.553,18.093c3.69,0,6.15-1.489,7.865-7.121l.421-1.359c1.748-5.632.162-7.088-3.495-7.088h-4.176l-4.79,15.568Z"/><path class="d" d="M-1064.384,2009.673h2.977l-6.343,20.585h-2.978Z"/><path class="e" d="M-1062.96,2019.966c2.848-9.257,7.023-10.649,12.2-10.649a19.314,19.314,0,0,1,5.858.712l-1.294,2.557a28.511,28.511,0,0,0-5.438-.583c-4.078,0-6.214,1.457-7.962,7.186l-.453,1.456c-1.716,5.6-.55,7.347,3.463,7.347a19.091,19.091,0,0,0,3.949-.356l2.265-7.314h2.784l-2.881,9.386a27.256,27.256,0,0,1-7.088.874C-1062.507,2030.549-1065.808,2029.222-1062.96,2019.966Z"/><path class="d" d="M-1042.181,2009.673h2.978l-6.344,20.585h-2.978Z"/><path class="d" d="M-1032.115,2012.327h-6.8l.809-2.654h16.507l-.809,2.654h-6.765l-5.534,17.931h-2.946Z"/><path class="f" d="M-1028.458,2030.258h-2.913l14.339-20.714h2.654l1.553,20.714h-3.042l-.291-4.434h-9.257Zm11.426-16.6-6.668,9.645h7.315Z"/><path class="d" d="M-1005.9,2009.673h2.945l-5.535,18h10.746l-.809,2.589h-13.691Z"/></g><path class="g" d="M-1014.456,2032.944h1.36l-2.557,10.908h-1.457l2.1-8.512-5.146,6.538h-1.554l-1.133-6.538-3.139,8.512h-1.457l4.143-10.908h1.36l1.359,7.7Z"/><path class="g" d="M-1012.727,2043.852h-1.521l3.366-10.908h1.522Z"/><path class="g" d="M-1005.482,2039.547l-4.175,4.305h-1.586l5.34-5.47-1.909-5.438h1.586l1.488,4.24,4.079-4.24h1.586l-5.244,5.438,1.942,5.47h-1.586Z"/></g></svg>