<svg xmlns="http://www.w3.org/2000/svg" xmlns:xlink="http://www.w3.org/1999/xlink" width="142.999" height="98.56" viewBox="0 0 142.999 98.56"><defs><style>.a{fill:#fff;}.b,.c{fill:#42a8e1;}.c{font-size:27.502px;font-family:Helvetica;letter-spacing:0.04em;}.d{filter:url(#a);}</style><filter id="a" x="0" y="0" width="142.999" height="98.56" filterUnits="userSpaceOnUse"><feOffset dy="3" input="SourceAlpha"/><feGaussianBlur stdDeviation="3" result="b"/><feFlood flood-opacity="0.161"/><feComposite operator="in" in2="b"/><feComposite in="SourceGraphic"/></filter></defs><g transform="translate(-752.142 -1087.403)"><g class="d" transform="matrix(1, 0, 0, 1, 752.14, 1087.4)"><path class="a" d="M-961.112,1737.32a15.283,15.283,0,0,0-4.589,10.263l-3.722,40.437a13.505,13.505,0,0,0,13.5,13.505l80.427.869a4.954,4.954,0,0,0,.814.056,9.763,9.763,0,0,0,1.8-.175,23.848,23.848,0,0,0,4.049-1.122,30.591,30.591,0,0,0,7.185-3.505,25.651,25.651,0,0,0,6.4-6.612,47.881,47.881,0,0,0,5.826-11.335c4.635-12.822,6.222-25.5,4.01-37.974a28.243,28.243,0,0,0-3.741-10.112,15.5,15.5,0,0,0-8.875-6.687,63.039,63.039,0,0,0-13.22-2.435,181.414,181.414,0,0,0-27.106-.193,259.471,259.471,0,0,0-35.366,4.406,151.287,151.287,0,0,0-15.621,3.881,46.173,46.173,0,0,0-4.62,1.668,29.4,29.4,0,0,0-6.526,4.348" transform="translate(978.42 -1715.89)"/></g><g transform="translate(1730.565 -628.487)"><path class="b" d="M-907.573,1767.16q2.31-2.177,3.739-3.781a21.472,21.472,0,0,0,2.249-2.93,8.667,8.667,0,0,0,1.088-2.525,11.935,11.935,0,0,0,.268-2.553,9.847,9.847,0,0,0-.681-3.677,9.466,9.466,0,0,0-1.914-3,8.5,8.5,0,0,0-2.93-2.006,9.507,9.507,0,0,0-3.744-.711,9.083,9.083,0,0,0-5.553,1.738,8.482,8.482,0,0,0-3.164,4.807,4.532,4.532,0,0,1-.714,1.462,1.563,1.563,0,0,1-1.328.581,1.966,1.966,0,0,1-1.462-.578,1.962,1.962,0,0,1-.581-1.462,7.65,7.65,0,0,1,.915-3.34,11.7,11.7,0,0,1,2.623-3.407,14.618,14.618,0,0,1,4.119-2.625,13.5,13.5,0,0,1,5.485-1.06,11.927,11.927,0,0,1,5.073,1.085,13.634,13.634,0,0,1,4.123,2.927,13.757,13.757,0,0,1,2.8,4.325,13.555,13.555,0,0,1,1.021,5.209,13.528,13.528,0,0,1-1.6,6.4,22.77,22.77,0,0,1-5.067,6.2l-14.3,13.292,18.8-.011a2.072,2.072,0,0,1,1.5.608,2.053,2.053,0,0,1,.614,1.5,1.934,1.934,0,0,1-.614,1.463,2.088,2.088,0,0,1-1.5.583l-22.957.016a4.865,4.865,0,0,1-.648-.067,2.391,2.391,0,0,1-.853-.306,2.723,2.723,0,0,1-.748-.681,1.781,1.781,0,0,1-.34-1.125,3.374,3.374,0,0,1,1.155-1.975Z"/><path class="b" d="M-921.256,1788.558a7.812,7.812,0,0,1-1.072-.1,5.244,5.244,0,0,1-1.863-.664,5.51,5.51,0,0,1-1.574-1.4,4.645,4.645,0,0,1-.938-2.874,6.023,6.023,0,0,1,1.993-3.995l15.178-14.445q2.2-2.081,3.572-3.608a18.631,18.631,0,0,0,1.947-2.528,5.8,5.8,0,0,0,.731-1.665,8.985,8.985,0,0,0,.2-1.909,6.911,6.911,0,0,0-.48-2.62,6.521,6.521,0,0,0-1.328-2.087,5.7,5.7,0,0,0-1.964-1.336,6.671,6.671,0,0,0-2.617-.491h-.011a6.266,6.266,0,0,0-3.867,1.18,5.658,5.658,0,0,0-2.1,3.248,7.605,7.605,0,0,1-1.211,2.463,4.9,4.9,0,0,1-7.081.274,4.777,4.777,0,0,1-1.412-3.474,10.478,10.478,0,0,1,1.211-4.609,14.675,14.675,0,0,1,3.253-4.244,17.521,17.521,0,0,1,4.906-3.139,16.416,16.416,0,0,1,6.629-1.3h.022a14.765,14.765,0,0,1,6.245,1.348,16.515,16.515,0,0,1,4.983,3.538,16.691,16.691,0,0,1,3.382,5.215,16.525,16.525,0,0,1,1.238,6.3,16.482,16.482,0,0,1-1.919,7.729,25.735,25.735,0,0,1-5.687,7l-8.939,8.31,11.529-.006a4.9,4.9,0,0,1,3.5,1.426,4.891,4.891,0,0,1,1.473,3.54,4.746,4.746,0,0,1-1.507,3.538,4.909,4.909,0,0,1-3.46,1.365Zm.056-36.3Z"/><text class="c" transform="translate(-872.079 1790.194) rotate(-90)"><tspan x="0" y="0">DOS</tspan></text></g></g></svg>