<svg xmlns="http://www.w3.org/2000/svg" xmlns:xlink="http://www.w3.org/1999/xlink" width="139.999" height="96.06" viewBox="0 0 139.999 96.06"><defs><style>.a{fill:#fff;}.b{fill:url(#c);}.c{fill:url(#d);}.d{fill:url(#e);}.e{fill:url(#f);}.f{fill:url(#g);}.g{fill:url(#h);}.h{fill:url(#i);}.i{fill:url(#j);}.j{fill:url(#k);}.k{fill:url(#l);}.l{fill:url(#m);}.m{fill:url(#n);}.n{fill:url(#o);}.o{fill:url(#p);}.p{fill:url(#q);}.q{fill:url(#r);}.r{fill:url(#s);}.s{fill:url(#t);}.t{fill:url(#u);}.u{fill:url(#v);}.v{fill:url(#w);}.w{filter:url(#a);}</style><filter id="a" x="0" y="0" width="139.999" height="96.06" filterUnits="userSpaceOnUse"><feOffset dy="8" input="SourceAlpha"/><feGaussianBlur stdDeviation="2.5" result="b"/><feFlood flood-opacity="0.161"/><feComposite operator="in" in2="b"/><feComposite in="SourceGraphic"/></filter><linearGradient id="c" x1="12.405" y1="-196.833" x2="12.91" y2="-196.833" gradientUnits="objectBoundingBox"><stop offset="0" stop-color="#141318"/><stop offset="0.104" stop-color="#122b71"/><stop offset="0.282" stop-color="#003f8b"/><stop offset="0.515" stop-color="#005da4"/><stop offset="0.742" stop-color="#003c88"/><stop offset="0.89" stop-color="#122b71"/><stop offset="1" stop-color="#151424"/></linearGradient><linearGradient id="d" x1="12.411" y1="-199.507" x2="12.916" y2="-199.507" xlink:href="#c"/><linearGradient id="e" x1="25.605" y1="-45.107" x2="26.11" y2="-45.107" xlink:href="#c"/><linearGradient id="f" x1="31.594" y1="-57.502" x2="32.099" y2="-57.502" xlink:href="#c"/><linearGradient id="g" x1="41.602" y1="-79.762" x2="42.107" y2="-79.762" xlink:href="#c"/><linearGradient id="h" x1="60.581" y1="-129.152" x2="61.085" y2="-129.152" xlink:href="#c"/><linearGradient id="i" x1="126.623" y1="-329.286" x2="127.128" y2="-329.286" xlink:href="#c"/><linearGradient id="j" x1="25.111" y1="-47.306" x2="25.616" y2="-47.306" xlink:href="#c"/><linearGradient id="k" x1="31.097" y1="-59.9" x2="31.603" y2="-59.9" xlink:href="#c"/><linearGradient id="l" x1="41.035" y1="-82.561" x2="41.54" y2="-82.561" xlink:href="#c"/><linearGradient id="m" x1="60.02" y1="-132.413" x2="60.524" y2="-132.413" xlink:href="#c"/><linearGradient id="n" x1="126.012" y1="-335.343" x2="126.517" y2="-335.343" xlink:href="#c"/><linearGradient id="o" x1="101.081" y1="-142.975" x2="101.047" y2="-143.455" gradientUnits="objectBoundingBox"><stop offset="0.061" stop-color="#cdcaca"/><stop offset="0.325" stop-color="#6a6665"/><stop offset="0.558" stop-color="#54514f"/><stop offset="0.767" stop-color="#656160"/><stop offset="1" stop-color="#b6b3b3"/></linearGradient><linearGradient id="p" x1="162.949" y1="-116.975" x2="162.893" y2="-117.368" xlink:href="#o"/><linearGradient id="q" x1="96.949" y1="-143.03" x2="96.916" y2="-143.509" xlink:href="#o"/><linearGradient id="r" x1="157.763" y1="-146.145" x2="157.708" y2="-146.635" xlink:href="#o"/><linearGradient id="s" x1="96.535" y1="-143.079" x2="96.501" y2="-143.558" xlink:href="#o"/><linearGradient id="t" x1="88.887" y1="-143.111" x2="88.856" y2="-143.591" xlink:href="#o"/><linearGradient id="u" x1="155.415" y1="-146.229" x2="155.36" y2="-146.719" xlink:href="#o"/><linearGradient id="v" x1="94.67" y1="-143.161" x2="94.636" y2="-143.64" xlink:href="#o"/><linearGradient id="w" x1="89.957" y1="-107.62" x2="89.926" y2="-107.98" xlink:href="#o"/></defs><g transform="translate(983.25 -2073.301)"><g class="w" transform="matrix(1, 0, 0, 1, -983.25, 2073.3)"><path class="a" d="M-967.439,2088.732A15.283,15.283,0,0,0-972.028,2099l-3.722,40.436a13.5,13.5,0,0,0,13.505,13.505l80.427.869a4.826,4.826,0,0,0,.814.056,9.618,9.618,0,0,0,1.8-.175,23.837,23.837,0,0,0,4.049-1.122,30.513,30.513,0,0,0,7.185-3.5,25.651,25.651,0,0,0,6.4-6.611,47.871,47.871,0,0,0,5.826-11.336c4.635-12.822,6.222-25.5,4.01-37.973a28.248,28.248,0,0,0-3.741-10.113,15.5,15.5,0,0,0-8.875-6.686,63.031,63.031,0,0,0-13.22-2.435,181.283,181.283,0,0,0-27.106-.193,259.531,259.531,0,0,0-35.366,4.406A151.032,151.032,0,0,0-955.665,2082a46.137,46.137,0,0,0-4.62,1.668,29.438,29.438,0,0,0-6.526,4.347" transform="translate(983.25 -2073.3)"/></g><path class="b" d="M-939.029,2107.872s.433,1.83,5.322,1.83h45.374s4.091-.2,4.923,3.626c0,0,.066-.533-2.262-.533h-49.1c0-.033-3.193-.133-4.258-4.923Z"/><path class="c" d="M-883.443,2109.7s.4-1.165-4.491-1.165h0l-46.97-.033h0a5.035,5.035,0,0,1-4.125-4.158s.765,1.065,3.127,1.065h0l48.533.033h0c0-.033,2.828-.6,3.926,4.258Z"/><path class="d" d="M-911.053,2085.152a24.917,24.917,0,0,0-19.693,10.745s-3.227,4.491-3.16,7.019a1.259,1.259,0,0,0,.665,1.4h-3.792s-1.2,0-.9-1.4c0,0,.865-7.452,8.05-14.071a31.34,31.34,0,0,1,18.828-7.551h0v3.858Z"/><path class="e" d="M-928.284,2104.313s-.5,0-.632-1.231c0,0,1.064-5.289,7.584-9.68,0,0,5.223-3.493,10.246-3.26h0v-3.958h0a23.877,23.877,0,0,0-13.34,4.59,24.285,24.285,0,0,0-8.382,11.909,1.366,1.366,0,0,0,1.164,1.663h3.36Z"/><path class="f" d="M-923.461,2104.313s-.665-.233-.166-1.231a14.183,14.183,0,0,1,12.574-7.884h0v-4.025h0s-8.516.2-13.572,6.686c0,0-2.661,2.861-2.861,5.19,0,0-.2,1.3.865,1.3.965-.033,3.16-.033,3.16-.033Z"/><path class="g" d="M-917.673,2104.313s-.665-.366.133-1.663c0,0,1.065-2.262,6.487-2.795h0v-3.725h0s-7.718-.167-11.111,6.719c0,0-.532,1.131.466,1.464h4.025Z"/><path class="h" d="M-911.053,2101.119a6.817,6.817,0,0,0-4.025.865c-2.063,1.165-1.53,2.329.2,2.329h3.826v-3.194Z"/><path class="i" d="M-911.053,2133.02a24.855,24.855,0,0,0,19.693-10.777s3.226-4.425,3.16-6.953a1.258,1.258,0,0,0-.666-1.4h3.759s1.2,0,.9,1.4c0,0-.864,7.418-8.05,14.038a31.21,31.21,0,0,1-18.828,7.551h0v-3.859Z"/><path class="j" d="M-893.855,2113.86s.5,0,.632,1.231c0,0-1.065,5.255-7.585,9.646,0,0-5.222,3.493-10.245,3.26h0v3.959h0a23.874,23.874,0,0,0,13.339-4.591,24.3,24.3,0,0,0,8.383-11.875s.266-1.53-1.131-1.663h-3.393Z"/><path class="k" d="M-898.645,2113.86s.665.233.2,1.231a14.114,14.114,0,0,1-12.574,7.817h0v4.058h0s8.516-.2,13.572-6.653c0,0,2.7-2.894,2.894-5.189,0,0,.166-1.3-.865-1.3-1.064.033-3.226.033-3.226.033Z"/><path class="l" d="M-904.434,2113.86s.666.366-.166,1.663c0,0-1.064,2.262-6.487,2.794h0v3.726h0s7.718.2,11.111-6.686c0,0,.565-1.165-.466-1.464h-3.992Z"/><path class="m" d="M-911.053,2117.053a6.923,6.923,0,0,0,4.058-.865c2.029-1.164,1.5-2.328-.233-2.328h-3.825v3.193Z"/><path class="n" d="M-935.835,2143.332c-.1-.465-.267-1-1.331-1s-1.2.4-1.2.732c0,1.165,4.657.333,4.657,3.061,0,2.162-2.1,2.561-3.259,2.561-1.7,0-3.527-.6-3.593-2.595h2.029c0,.632.4,1.1,1.63,1.1,1,0,1.264-.5,1.264-.765,0-1.264-4.624-.3-4.624-3.094,0-1.1.7-2.494,3.027-2.494,1.464,0,3.194.365,3.36,2.461h-1.962Z"/><path class="o" d="M-930.646,2141.07h1.231v1.4h-1.231v4.058h0c0,.432,0,.6.8.6a1.587,1.587,0,0,0,.4-.034h0v1.5h0c-.3,0-.632.034-.931.034h-.266c-1.7,0-2-.633-2-1.6h0V2142.5h-1v-1.4h1v-2.063h1.963v2.029Z"/><path class="p" d="M-922.164,2146.326a3.246,3.246,0,0,1-3.293,2.4h-.166v-1.563h.166a1.274,1.274,0,0,0,1.264-.8h2.029v-.033Zm-3.459-5.455h0c1.5,0,3.526.7,3.526,4.091h0v.366h-3.526v-1.264h1.53a1.513,1.513,0,0,0-1.53-1.563h0Zm0,7.85c-2.029-.066-3.56-1.1-3.56-4.091a3.446,3.446,0,0,1,3.56-3.759v1.6c-.932,0-1.431.6-1.53,1.563h1.53v1.264h-1.6c.067.532.166,1.73,1.6,1.83Z"/><path class="q" d="M-921.4,2141.07h1.863v1.3h.034a2.187,2.187,0,0,1,2.062-1.5,1.26,1.26,0,0,1,.366.033h0v2h0a3.073,3.073,0,0,0-.566-.033,1.584,1.584,0,0,0-1.8,1.8h0v3.892H-921.4v-7.485Z"/><path class="r" d="M-909.889,2146.326a3.246,3.246,0,0,1-3.293,2.4h-.167v-1.563h.167a1.274,1.274,0,0,0,1.264-.8h2.029v-.033Zm-3.46-5.455h.034c1.463,0,3.493.7,3.493,4.091h0v.366h-3.56v-1.264h1.53a1.512,1.512,0,0,0-1.53-1.563h0v-1.63Zm0,7.85c-2.029-.066-3.526-1.1-3.526-4.091a3.438,3.438,0,0,1,3.526-3.759v1.6c-.931,0-1.4.6-1.53,1.563h1.53v1.264h-1.563a1.681,1.681,0,0,0,1.563,1.83Z"/><path class="s" d="M-905.332,2148.721h0v-1.663h0c1.53,0,1.8-1.331,1.8-2.262,0-.965-.267-2.262-1.8-2.262h0v-1.663h0a3.636,3.636,0,0,1,3.826,3.925,3.652,3.652,0,0,1-3.826,3.925Zm0,0a3.61,3.61,0,0,1-3.792-3.925,3.611,3.611,0,0,1,3.792-3.925v1.663c-1.53,0-1.8,1.331-1.8,2.262,0,.965.266,2.262,1.8,2.262Z"/><path class="t" d="M-900.941,2141.07h1.863v1.3h.033a2.189,2.189,0,0,1,2.063-1.5,1.26,1.26,0,0,1,.366.033h0v2h0a3.078,3.078,0,0,0-.566-.033,1.584,1.584,0,0,0-1.8,1.8h0v3.892h-1.963v-7.485Z"/><path class="u" d="M-889.464,2146.326a3.247,3.247,0,0,1-3.294,2.4h-.166v-1.563h.166a1.273,1.273,0,0,0,1.264-.8h2.03v-.033Zm-3.46-5.455h0c1.5,0,3.526.7,3.526,4.091h0v.366h-3.526v-1.264h1.53a1.513,1.513,0,0,0-1.53-1.563h0Zm0,7.85c-2.029-.066-3.559-1.1-3.559-4.091a3.445,3.445,0,0,1,3.559-3.759v1.6c-.931,0-1.43.6-1.53,1.563h1.53v1.264h-1.6c.067.532.167,1.73,1.6,1.83Z"/><path class="v" d="M-884.774,2148.389c-.931,2.761-1.164,3.127-2.894,3.127a8.18,8.18,0,0,1-.9-.034h0v-1.563h0c.1,0,.2.033.366.033.7,0,1.1-.1,1.3-1.131h0l-2.761-7.751h2.2l1.6,5.489h.033l1.531-5.489h2.062l-2.528,7.319Z"/></g></svg>