<svg xmlns="http://www.w3.org/2000/svg" xmlns:xlink="http://www.w3.org/1999/xlink" width="139.999" height="96.06" viewBox="0 0 139.999 96.06"><defs><style>.a{fill:#fff;}.b{fill:#100f0c;}.c{fill:#161310;}.d{filter:url(#a);}</style><filter id="a" x="0" y="0" width="139.999" height="96.06" filterUnits="userSpaceOnUse"><feOffset dy="8" input="SourceAlpha"/><feGaussianBlur stdDeviation="2.5" result="b"/><feFlood flood-opacity="0.161"/><feComposite operator="in" in2="b"/><feComposite in="SourceGraphic"/></filter></defs><g transform="translate(713.32 -1973.329)"><g class="d" transform="matrix(1, 0, 0, 1, -713.32, 1973.33)"><path class="a" d="M-697.509,1988.76a15.281,15.281,0,0,0-4.589,10.263l-3.722,40.436a13.5,13.5,0,0,0,13.505,13.505l80.427.869a4.816,4.816,0,0,0,.814.056,9.68,9.68,0,0,0,1.8-.175,23.857,23.857,0,0,0,4.049-1.122,30.514,30.514,0,0,0,7.185-3.505,25.65,25.65,0,0,0,6.4-6.612,47.842,47.842,0,0,0,5.826-11.335c4.635-12.822,6.222-25.5,4.01-37.973a28.24,28.24,0,0,0-3.741-10.113,15.5,15.5,0,0,0-8.875-6.686,63.1,63.1,0,0,0-13.22-2.436,181.431,181.431,0,0,0-27.106-.192,259.49,259.49,0,0,0-35.366,4.405,151.564,151.564,0,0,0-15.621,3.881,46.173,46.173,0,0,0-4.62,1.668,29.4,29.4,0,0,0-6.526,4.348" transform="translate(713.32 -1973.33)"/></g><path class="b" d="M-599.824,2035.079l.064-2.743,1.227.032a1.2,1.2,0,0,1,.549.1.573.573,0,0,1,.29.258.891.891,0,0,1,.1.42.656.656,0,0,1-.194.484.974.974,0,0,1-.581.258,1.81,1.81,0,0,0,.226.129,2,2,0,0,1,.291.388l.452.774h-.452l-.355-.581c-.1-.161-.194-.29-.259-.387a.553.553,0,0,0-.193-.194c-.065-.032-.1-.064-.162-.064a.571.571,0,0,1-.193-.032h-.42l-.032,1.226Zm.387-1.549.775.032a1.341,1.341,0,0,0,.387-.032.583.583,0,0,0,.226-.161.347.347,0,0,0,.065-.258.416.416,0,0,0-.13-.323.58.58,0,0,0-.451-.129l-.872-.032Z"/><path class="b" d="M-602.729,2035.015l.065-2.744h.548l.614,1.969c.064.194.1.323.129.42.032-.1.1-.258.161-.452l.71-1.9h.484l-.064,2.743h-.355l.064-2.291-.839,2.291h-.323l-.742-2.356-.065,2.356Z"/><path class="b" d="M-613.121,2000.545h2.678l-.451.614h-1.872l-.355.484h1.807l-.452.581h-1.807l-.646.9h-.774Z"/><path class="b" d="M-609.958,2000.545h1.226l-.29,1.646,2.1-1.646h1.2l-1.84,2.582h-.775l1.324-1.839h-.033l-2.356,1.839h-.613l.291-1.839h0l-1.356,1.839h-.742Z"/><path class="c" d="M-602.116,2008.517a16.538,16.538,0,0,0-11.586-4.454h-3.454l2.841-3.518h-18.074l-6.358,7.875-3.551-4.389h-21.527a16.561,16.561,0,0,0-11.619,4.486,14.717,14.717,0,0,0-4.906,11.038,14.717,14.717,0,0,0,4.906,11.038,16.651,16.651,0,0,0,11.49,4.454h3.582l-2.84,3.518h18.074l6.391-7.875,3.55,4.357h21.721a16.639,16.639,0,0,0,11.425-4.454,14.653,14.653,0,0,0,4.906-11.038A14.676,14.676,0,0,0-602.116,2008.517Z"/><path class="a" d="M-609.571,2016.134H-616.7a10.746,10.746,0,0,0-6.971,2.033,6.807,6.807,0,0,0-2.485,5.552,7.4,7.4,0,0,0,3.195,5.971,12.15,12.15,0,0,0,7.649,2.485h1.646a13.511,13.511,0,0,0,9.618-3.712,11.785,11.785,0,0,0,4-8.908,11.509,11.509,0,0,0-4-8.875,13.622,13.622,0,0,0-9.618-3.68h-6.1l-6.326,7.682h12.458A6.052,6.052,0,0,1-609.571,2016.134Zm-4.164,8.811a5.528,5.528,0,0,1-2.678-.549c-.614-.387-.936-.806-.936-1.258,0-.807.645-1.227,1.936-1.227h7.036A5.607,5.607,0,0,1-613.735,2024.945Z"/><path class="a" d="M-673.411,2028.463a13.622,13.622,0,0,0,9.618,3.679h6.132l6.326-7.681h-12.458a6.106,6.106,0,0,1-4.1-1.485h7.133a10.8,10.8,0,0,0,6.971-2.033,6.784,6.784,0,0,0,2.486-5.519,7.27,7.27,0,0,0-3.2-5.971,12.083,12.083,0,0,0-7.649-2.485h-1.646a13.511,13.511,0,0,0-9.618,3.712,11.7,11.7,0,0,0-3.969,8.908A11.42,11.42,0,0,0-673.411,2028.463Zm9.651-14.3a5.528,5.528,0,0,1,2.678.549c.614.387.936.775.936,1.259,0,.807-.645,1.194-1.936,1.194h-7.068A5.717,5.717,0,0,1-663.76,2014.165Z"/><path class="a" d="M-623.191,2032.207l-10.263-12.652,13.039-16.105h-10.554l-7.778,9.586-4.97-6.132H-654.3l10.263,12.652-13.039,16.105h10.554l7.778-9.586,4.97,6.132Z"/><path class="b" d="M-658.919,1996.35a3,3,0,0,0-2.582-.9,4.67,4.67,0,0,0-4.035,1.807,1.325,1.325,0,0,0-.161-1.1,1.725,1.725,0,0,0-1.485-.549h-3.937l-1.969,5.971h1.808l.677-2.065h2.324a2.569,2.569,0,0,0,2.033-.9,2.384,2.384,0,0,0,.162,2.195,3.007,3.007,0,0,0,2.582.9,4.457,4.457,0,0,0,4.68-3.13A2.308,2.308,0,0,0-658.919,1996.35Zm-8.553,1.194c-.226.645-.646.71-1.194.71h-1.485l.452-1.356h1.743c.226,0,.452,0,.516.129C-667.375,1997.124-667.375,1997.286-667.472,1997.544Zm6.778,1a2.616,2.616,0,0,1-2.421,1.84,1.283,1.283,0,0,1-1.1-.42,1.492,1.492,0,0,1-.065-1.355,2.614,2.614,0,0,1,2.421-1.84,1.283,1.283,0,0,1,1.1.42A1.493,1.493,0,0,1-660.694,1998.544Z"/><path class="b" d="M-640.071,1996.931l.452-1.323h-13.136l-1.259,3.776-1.614-3.776H-657.6l-1.969,5.971h1.775l1.259-3.808,1.711,3.808h1.872l1.517-4.647h2l-1.549,4.647h1.84l1.517-4.647h1.936l-1.517,4.647h5.648l.452-1.323h-3.841l.355-1.1h3.583l.42-1.291h-3.583l.29-.936Z"/></g></svg>