<svg xmlns="http://www.w3.org/2000/svg" xmlns:xlink="http://www.w3.org/1999/xlink" width="148.841" height="102.324" viewBox="0 0 148.841 102.324"><defs><style>.a{fill:#fff;}.b{fill:#040505;}.c{fill:url(#c);}.d{fill:#d9b9b3;}.e{fill:#1b1513;}.f{fill:#766a6c;}.g{fill:url(#e);}.h{fill:#521c0c;}.i{fill:#5c1d0e;}.j{fill:#f05913;}.k{fill:#923019;}.l{fill:#1f0f0b;}.m{filter:url(#a);}</style><filter id="a" x="0" y="0" width="148.841" height="102.324" filterUnits="userSpaceOnUse"><feOffset dy="3" input="SourceAlpha"/><feGaussianBlur stdDeviation="3" result="b"/><feFlood flood-opacity="0.161"/><feComposite operator="in" in2="b"/><feComposite in="SourceGraphic"/></filter><linearGradient id="c" y1="0.5" x2="1" y2="0.5" gradientUnits="objectBoundingBox"><stop offset="0.294" stop-color="#695d60"/><stop offset="0.482" stop-color="#766"/><stop offset="0.774" stop-color="#87706d"/><stop offset="1" stop-color="#8d7470"/></linearGradient><linearGradient id="e" y1="0.5" x2="1" y2="0.5" gradientUnits="objectBoundingBox"><stop offset="0" stop-color="#c5a6ae"/><stop offset="0.92" stop-color="#bd867f"/></linearGradient></defs><g transform="translate(-749.221 -988)"><g class="m" transform="matrix(1, 0, 0, 1, 749.22, 988)"><path class="a" d="M-963.644,1638.639a15.993,15.993,0,0,0-4.8,10.742l-3.9,42.326a14.135,14.135,0,0,0,14.136,14.136l84.186.91a5.08,5.08,0,0,0,.852.058,10.093,10.093,0,0,0,1.881-.183,24.86,24.86,0,0,0,4.238-1.174,31.962,31.962,0,0,0,7.52-3.669,26.834,26.834,0,0,0,6.7-6.92,50.135,50.135,0,0,0,6.1-11.865c4.852-13.422,6.513-26.692,4.2-39.748a29.58,29.58,0,0,0-3.916-10.585,16.218,16.218,0,0,0-9.291-7,65.9,65.9,0,0,0-13.837-2.549,189.636,189.636,0,0,0-28.372-.2,271.606,271.606,0,0,0-37.019,4.612,158.167,158.167,0,0,0-16.351,4.062,48.246,48.246,0,0,0-4.836,1.746,30.8,30.8,0,0,0-6.831,4.55" transform="translate(981.34 -1616.49)"/></g><g transform="translate(1730.565 -628.487)"><path class="b" d="M-884.138,1661.844a15.722,15.722,0,0,0-10.823-3.935h-1.673l2.463-3.091-17.639-.151-5.111,6.442-2.84-3.457h-14.891l-5.136.257c-3.92-.022-8.075,1.074-10.9,3.755a13.681,13.681,0,0,0-4.4,10.087,13.705,13.705,0,0,0,4.775,9.963,14.82,14.82,0,0,0,10.205,4.331h3.348l-2.353,3.188h16.884l5.191-6.49,2.985,3.438h19.361a15.548,15.548,0,0,0,10.551-4.071c2.852-2.633,3.908-6.609,3.89-10.425a13.316,13.316,0,0,0-4.421-9.988Z"/><path class="c" d="M-903.323,1683.541l-9.064-10.9-.215.152,9.309,11.089Z"/><path class="c" d="M-917.292,1666.689l-4.736-5.61-.2.087,4.761,5.745Z"/><path class="d" d="M-932.008,1661.166l.144-.085,9.836,0-.065.087Z"/><path class="e" d="M-917.4,1662.387l5.79-7.238-.2-.483-5.586,7.042Z"/><path class="f" d="M-900.524,1657.939l-9.8.015v-.045h9.8Z"/><path class="a" d="M-932.008,1661.166l9.935-.029,4.54,5.668,7.207-8.866h9.8l-12,14.863,9.228,11.071h-9.439l-4.584-5.368-6.755,8.353h-9.469l11.309-14.057Z"/><path class="a" d="M-890.963,1669.4h-6.463a9.766,9.766,0,0,0-6.3,1.834,6.12,6.12,0,0,0-2.25,5.009c0,2.095.965,3.6,2.9,5.1a10.955,10.955,0,0,0,6.92,2.231h1.484a11.733,11.733,0,0,0,8.494-3.245c2.408-2.242,3.819-4.713,3.819-7.854a10.482,10.482,0,0,0-3.616-8.028,12.289,12.289,0,0,0-8.7-3.336l-5.336.057-5.79,6.9h11.126a5.642,5.642,0,0,1,3.713,1.332m-3.741,7.978a4.972,4.972,0,0,1-2.432-.5c-.559-.346-.842-.726-.842-1.144,0-.733.579-1.1,1.74-1.1h6.377a5.09,5.09,0,0,1-4.843,2.739"/><path class="a" d="M-948.353,1680.165a11.806,11.806,0,0,0,8.44,3.407h6.036l5.458-6.844-11.494.1a6.066,6.066,0,0,1-3.464-1.335h6.227c2.687,0,4.88-.442,6.379-1.658a6.393,6.393,0,0,0,2.16-5.181c0-2.1-1.245-3.859-3.186-5.344a10.155,10.155,0,0,0-6.628-2.291h-1.488a12.651,12.651,0,0,0-8.922,3.135,9.839,9.839,0,0,0-3.359,8.266,10.718,10.718,0,0,0,3.841,7.748m8.328-12.562a4.682,4.682,0,0,1,2.342.487c.544.335.822.691.822,1.107,0,.7-.566,1.059-1.68,1.059h-6.173a4.948,4.948,0,0,1,4.689-2.653"/><path class="g" d="M-887.557,1670.424l.219.219h4.976v-.279l-5.034-.025Z"/><path class="b" d="M-885.167,1661.045H-866.6l1.839.543v3.046l2.262-3.287h11.068l1.26.271-15.193,21.562H-873.2l-.753-.754-.362-4.041-1.448,4.8h-9.62l1.056-4.825s1.839-7.056,1.9-7.056a4.334,4.334,0,0,0-.091-.875h-5.036S-885.039,1661.015-885.167,1661.045Z"/><path class="h" d="M-883.29,1663.767l-.318-.182-1.378,4.872.316.264Z"/><path class="i" d="M-879.151,1668.72l-.9,1.651-3.1,10.947.317.52Z"/><path class="a" d="M-883.293,1663.779"/><path class="j" d="M-867.07,1663.6h.452l.189,9.572,5.937-9.572h6.582l-12.387,17.737h-5.036l-1.176-13.993-.287-3.66Z"/><path class="k" d="M-866.486,1670.281l-.125-6.334-6.152.16.254,3.241.1,1.236.45,5.357,1.059-3.637Z"/><path class="l" d="M-866.6,1663.775s-16.7.128-16.7.06-.315-.25-.315-.25h16.5Z"/><path class="j" d="M-883.29,1663.767H-866.6l-1.764,4.863h-4.591l-3.822,13.209h-6.061l3.687-13.118h-5.519Z"/></g></g></svg>