<svg xmlns="http://www.w3.org/2000/svg" width="72.301" height="24.168" viewBox="0 0 72.301 24.168"><defs><style>.a{fill:#a2a2a2;}.b{fill:#fff;}</style></defs><path class="a" d="M66.543,0H5.1c-.185,0-.369,0-.555.008A7.948,7.948,0,0,0,3.333.115,4.06,4.06,0,0,0,2.185.494a3.894,3.894,0,0,0-.978.712,3.8,3.8,0,0,0-.712.979,4,4,0,0,0-.378,1.15,7.9,7.9,0,0,0-.108,1.21C0,4.731,0,4.917,0,5.1V19.068c0,.187,0,.369.009.556a7.888,7.888,0,0,0,.108,1.21,3.992,3.992,0,0,0,.378,1.151,3.766,3.766,0,0,0,.712.975,3.806,3.806,0,0,0,.978.712,4.045,4.045,0,0,0,1.149.381,8.027,8.027,0,0,0,1.211.107c.187,0,.37.007.555.007H67.2c.184,0,.373,0,.557-.007a7.927,7.927,0,0,0,1.208-.107,4.1,4.1,0,0,0,1.153-.381,3.813,3.813,0,0,0,.977-.712,3.873,3.873,0,0,0,.714-.975,4,4,0,0,0,.374-1.151,8.128,8.128,0,0,0,.112-1.21c0-.187,0-.369,0-.556,0-.22,0-.438,0-.661V5.762c0-.221,0-.44,0-.66,0-.185,0-.371,0-.556a8.143,8.143,0,0,0-.112-1.21,4.014,4.014,0,0,0-.374-1.15A3.912,3.912,0,0,0,70.117.494,4.112,4.112,0,0,0,68.964.115,7.85,7.85,0,0,0,67.755.009C67.571.006,67.382,0,67.2,0Z"/><path d="M5.448,23.986c-.184,0-.364,0-.546-.007a7.624,7.624,0,0,1-1.13-.1,3.544,3.544,0,0,1-1-.331,3.247,3.247,0,0,1-.844-.614,3.22,3.22,0,0,1-.617-.844,3.475,3.475,0,0,1-.328-1,7.485,7.485,0,0,1-.1-1.133c0-.127-.009-.552-.009-.552V5.448s.005-.418.009-.54a7.462,7.462,0,0,1,.1-1.131,3.459,3.459,0,0,1,.329-1,3.225,3.225,0,0,1,.613-.845,3.364,3.364,0,0,1,.847-.618,3.515,3.515,0,0,1,1-.329A7.643,7.643,0,0,1,4.9.882L5.448.875H67.541l.552.008a7.467,7.467,0,0,1,1.123.1,3.6,3.6,0,0,1,1.01.331,3.379,3.379,0,0,1,1.459,1.462,3.467,3.467,0,0,1,.323,1,7.744,7.744,0,0,1,.105,1.14c0,.171,0,.355,0,.538,0,.227,0,.442,0,.66V18.753c0,.219,0,.434,0,.65,0,.2,0,.376,0,.562a7.586,7.586,0,0,1-.1,1.12,3.456,3.456,0,0,1-.326,1.009,3.308,3.308,0,0,1-.613.837,3.255,3.255,0,0,1-.846.617,3.524,3.524,0,0,1-1.008.332,7.528,7.528,0,0,1-1.129.1c-.177,0-.362.007-.542.007H5.448Z" transform="translate(-0.346 -0.346)"/><g transform="translate(6.025 5.269)"><path class="b" d="M18.912,17.8a2.989,2.989,0,0,1,1.423-2.509,3.059,3.059,0,0,0-2.411-1.3c-1.014-.106-2,.607-2.515.607s-1.323-.6-2.18-.579a3.211,3.211,0,0,0-2.7,1.648c-1.169,2.023-.3,5,.822,6.632.56.8,1.214,1.695,2.071,1.663.838-.035,1.151-.535,2.162-.535s1.3.535,2.17.515c.9-.015,1.466-.8,2.007-1.613a6.619,6.619,0,0,0,.917-1.868A2.889,2.889,0,0,1,18.912,17.8Z" transform="translate(-9.972 -10.799)"/><path class="b" d="M20.746,10.829A2.945,2.945,0,0,0,21.42,8.72a3,3,0,0,0-1.938,1,2.8,2.8,0,0,0-.691,2.031A2.477,2.477,0,0,0,20.746,10.829Z" transform="translate(-13.456 -8.72)"/><g transform="translate(14.776 5.529)"><path class="b" d="M39.185,23.553h-2.86l-.687,2.028H34.427l2.709-7.5h1.259l2.709,7.5H39.871Zm-2.564-.936h2.267l-1.118-3.291H37.74Z" transform="translate(-34.427 -17.953)"/><path class="b" d="M51.784,24.141c0,1.7-.91,2.792-2.283,2.792a1.854,1.854,0,0,1-1.721-.957h-.026v2.709H46.631V21.4h1.087v.91h.021a1.942,1.942,0,0,1,1.742-.967C50.869,21.348,51.784,22.445,51.784,24.141Zm-1.154,0c0-1.107-.573-1.836-1.446-1.836-.858,0-1.435.743-1.435,1.836s.577,1.84,1.435,1.84C50.057,25.981,50.63,25.258,50.63,24.141Z" transform="translate(-39.257 -19.247)"/><path class="b" d="M61.749,24.141c0,1.7-.91,2.792-2.283,2.792a1.854,1.854,0,0,1-1.721-.957h-.026v2.709H56.6V21.4h1.087v.91H57.7a1.941,1.941,0,0,1,1.742-.967C60.834,21.348,61.749,22.445,61.749,24.141Zm-1.155,0c0-1.107-.572-1.836-1.445-1.836-.858,0-1.435.743-1.435,1.836s.577,1.84,1.435,1.84C60.022,25.981,60.595,25.258,60.595,24.141Z" transform="translate(-43.202 -19.247)"/><path class="b" d="M70.957,23.408c.083.744.806,1.233,1.794,1.233.947,0,1.628-.488,1.628-1.159,0-.582-.411-.931-1.383-1.17l-.973-.234c-1.378-.333-2.017-.977-2.017-2.023,0-1.294,1.128-2.184,2.73-2.184,1.585,0,2.672.889,2.709,2.184H74.311c-.068-.749-.686-1.2-1.591-1.2s-1.523.457-1.523,1.123c0,.53.4.843,1.362,1.082l.827.2c1.539.364,2.179.982,2.179,2.08,0,1.4-1.118,2.283-2.9,2.283-1.664,0-2.788-.859-2.86-2.216Z" transform="translate(-48.431 -17.871)"/><path class="b" d="M82.086,19.3v1.294h1.04v.889h-1.04V24.5c0,.469.208.687.666.687a3.445,3.445,0,0,0,.369-.026v.884a3.071,3.071,0,0,1-.624.052c-1.107,0-1.539-.416-1.539-1.477V21.484h-.8v-.889h.8V19.3Z" transform="translate(-52.529 -18.437)"/><path class="b" d="M86.065,24.134a2.6,2.6,0,1,1,5.189,0,2.6,2.6,0,1,1-5.189,0Zm4.045,0c0-1.181-.541-1.878-1.451-1.878s-1.45.7-1.45,1.878.54,1.877,1.45,1.877S90.11,25.319,90.11,24.134Z" transform="translate(-54.865 -19.24)"/><path class="b" d="M96.186,21.4h1.071v.931h.025a1.305,1.305,0,0,1,1.316-.988,1.743,1.743,0,0,1,.385.042v1.05a1.583,1.583,0,0,0-.5-.068,1.132,1.132,0,0,0-1.17,1.259v3.245H96.186Z" transform="translate(-58.871 -19.247)"/><path class="b" d="M106.151,25.262a2.2,2.2,0,0,1-2.355,1.674,2.49,2.49,0,0,1-2.579-2.776,2.523,2.523,0,0,1,2.532-2.829,2.408,2.408,0,0,1,2.465,2.7v.385H102.35v.068a1.425,1.425,0,0,0,1.472,1.549,1.238,1.238,0,0,0,1.263-.769Zm-3.8-1.633h2.735a1.315,1.315,0,0,0-1.341-1.388A1.385,1.385,0,0,0,102.356,23.629Z" transform="translate(-60.863 -19.24)"/></g></g><g transform="translate(21.552 4.846)"><path class="b" d="M36.973,8.731a1.6,1.6,0,0,1,1.7,1.791,1.6,1.6,0,0,1-1.7,1.814h-1.3V8.731Zm-.742,3.1h.68a1.133,1.133,0,0,0,1.188-1.3A1.136,1.136,0,0,0,36.911,9.24h-.68Z" transform="translate(-35.671 -8.301)"/><path class="b" d="M44.117,12.147a1.1,1.1,0,0,1-1.179.787,1.236,1.236,0,0,1-1.257-1.4,1.254,1.254,0,0,1,1.254-1.421c.757,0,1.214.517,1.214,1.372v.187H42.228v.03a.719.719,0,0,0,.724.779.652.652,0,0,0,.647-.33Zm-1.889-.877H43.6a.656.656,0,0,0-.669-.705A.7.7,0,0,0,42.228,11.27Z" transform="translate(-38.05 -8.846)"/><path class="b" d="M47.866,10.108c.611,0,1.011.285,1.064.764h-.515c-.05-.2-.245-.327-.549-.327s-.528.142-.528.354c0,.163.138.265.433.333l.452.1c.518.12.76.343.76.743,0,.512-.477.854-1.127.854s-1.069-.292-1.117-.775h.538a.552.552,0,0,0,.592.34c.335,0,.573-.15.573-.367,0-.163-.127-.267-.4-.332l-.475-.11c-.517-.123-.757-.355-.757-.759C46.809,10.448,47.251,10.108,47.866,10.108Z" transform="translate(-40.052 -8.846)"/><path class="b" d="M53.344,11.05a.608.608,0,0,0-.643-.462c-.45,0-.724.344-.724.924s.277.942.724.942a.592.592,0,0,0,.643-.448h.522a1.065,1.065,0,0,1-1.162.927,1.25,1.25,0,0,1-1.277-1.422,1.241,1.241,0,0,1,1.274-1.4,1.074,1.074,0,0,1,1.165.942Z" transform="translate(-41.907 -8.846)"/><path class="b" d="M56.345,11.285c0-.489.364-.772,1.012-.812l.737-.042V10.2c0-.287-.19-.45-.557-.45-.3,0-.507.11-.567.3h-.52c.054-.467.494-.767,1.111-.767.682,0,1.067.34,1.067.914v1.859h-.517v-.382h-.043a.914.914,0,0,1-.817.427A.822.822,0,0,1,56.345,11.285Zm1.749-.232v-.228l-.664.042c-.375.025-.545.153-.545.393s.213.387.5.387A.641.641,0,0,0,58.094,11.053Zm-.854-2.174.627-.859h.63l-.7.859Z" transform="translate(-43.854 -8.02)"/><path class="b" d="M61.516,10.165h.517v.417h.04a.737.737,0,0,1,.734-.462,1.129,1.129,0,0,1,.24.022v.53a1.464,1.464,0,0,0-.3-.033.638.638,0,0,0-.695.64v1.607h-.537Z" transform="translate(-45.9 -8.851)"/><path class="b" d="M64.8,13.158h.55c.045.2.272.325.635.325.447,0,.712-.213.712-.572v-.522h-.04a.915.915,0,0,1-.84.457c-.694,0-1.124-.537-1.124-1.351,0-.83.435-1.375,1.13-1.375a.943.943,0,0,1,.854.48h.043v-.434h.514v2.743c0,.622-.488,1.017-1.257,1.017C65.293,13.925,64.853,13.621,64.8,13.158ZM66.7,11.492c0-.542-.28-.889-.738-.889s-.721.347-.721.889.26.889.721.889S66.7,12.037,66.7,11.492Z" transform="translate(-47.156 -8.851)"/><path class="b" d="M70.053,12.112c0-.489.365-.772,1.012-.812l.737-.042v-.235c0-.287-.19-.45-.557-.45-.3,0-.508.11-.567.3h-.52c.055-.467.494-.767,1.112-.767.682,0,1.067.34,1.067.914v1.859H71.82V12.5h-.042a.916.916,0,0,1-.817.427A.822.822,0,0,1,70.053,12.112ZM71.8,11.88v-.228l-.665.042c-.375.025-.544.153-.544.393s.212.387.5.387A.641.641,0,0,0,71.8,11.88Z" transform="translate(-49.279 -8.846)"/><path class="b" d="M75.265,8.437H75.8V12.22h-.537Z" transform="translate(-51.342 -8.185)"/><path class="b" d="M77.389,11.519a1.289,1.289,0,1,1,2.566,0,1.289,1.289,0,1,1-2.566,0Zm2.014,0c0-.59-.265-.935-.73-.935s-.729.345-.729.935.263.937.729.937S79.4,12.112,79.4,11.519Z" transform="translate(-52.183 -8.846)"/><path class="b" d="M87.484,12.147a1.105,1.105,0,0,1-1.179.787,1.236,1.236,0,0,1-1.257-1.4A1.255,1.255,0,0,1,86.3,10.108c.756,0,1.213.517,1.213,1.372v.187H85.6v.03a.719.719,0,0,0,.724.779.652.652,0,0,0,.647-.33ZM85.6,11.27h1.374a.656.656,0,0,0-.669-.705A.7.7,0,0,0,85.6,11.27Z" transform="translate(-55.215 -8.846)"/><path class="b" d="M90.327,10.161h.517v.432h.04a.814.814,0,0,1,.811-.485.885.885,0,0,1,.942,1.012v1.761H92.1V11.255c0-.437-.19-.655-.587-.655a.624.624,0,0,0-.65.689v1.592h-.537Z" transform="translate(-57.304 -8.846)"/><path class="b" d="M100.181,12.147A1.1,1.1,0,0,1,99,12.934a1.236,1.236,0,0,1-1.257-1.4A1.254,1.254,0,0,1,99,10.108c.757,0,1.214.517,1.214,1.372v.187H98.292v.03a.719.719,0,0,0,.724.779.652.652,0,0,0,.647-.33Zm-1.889-.877h1.374A.656.656,0,0,0,99,10.565.7.7,0,0,0,98.292,11.27Z" transform="translate(-60.24 -8.846)"/><path class="b" d="M103.064,8.437h.537V12.22h-.537Z" transform="translate(-62.345 -8.185)"/></g></svg>