<svg xmlns="http://www.w3.org/2000/svg" xmlns:xlink="http://www.w3.org/1999/xlink" width="143" height="98.56" viewBox="0 0 143 98.56"><defs><style>.a{fill:#fff;}.b{fill:#5d1d7d;}.c{filter:url(#a);}</style><filter id="a" x="0" y="0" width="143" height="98.56" filterUnits="userSpaceOnUse"><feOffset dy="3" input="SourceAlpha"/><feGaussianBlur stdDeviation="3" result="b"/><feFlood flood-opacity="0.161"/><feComposite operator="in" in2="b"/><feComposite in="SourceGraphic"/></filter></defs><g transform="translate(-1160 -1181)"><g class="c" transform="matrix(1, 0, 0, 1, 1160, 1181)"><path class="a" d="M-553.5,1830.97a15.286,15.286,0,0,0-4.588,10.263l-3.723,40.437a13.5,13.5,0,0,0,13.505,13.5l80.428.87a4.905,4.905,0,0,0,.813.055,9.589,9.589,0,0,0,1.8-.175,23.822,23.822,0,0,0,4.049-1.122,30.514,30.514,0,0,0,7.185-3.505,25.652,25.652,0,0,0,6.4-6.611,47.879,47.879,0,0,0,5.825-11.335c4.635-12.823,6.223-25.5,4.01-37.974a28.232,28.232,0,0,0-3.74-10.112,15.5,15.5,0,0,0-8.876-6.687,63.027,63.027,0,0,0-13.22-2.435,181.3,181.3,0,0,0-27.106-.193,259.532,259.532,0,0,0-35.366,4.406,151.415,151.415,0,0,0-15.621,3.881,46.261,46.261,0,0,0-4.62,1.668,29.481,29.481,0,0,0-6.526,4.347" transform="translate(570.81 -1809.54)"/></g><path class="b" d="M61.022,257.632h4.3a4.062,4.062,0,0,0,3.867-3.239,8.214,8.214,0,0,0,.241-1.885v-9.631l.725-.726v10.574c0,3.142-1.982,5.632-4.834,5.632H60.3ZM73.074,245.4v8.29a4.329,4.329,0,0,0,8.653,0v-7.565l.725-.726v8.29a5.054,5.054,0,0,1-10.1,0v-7.565Zm11.577,7.186v-3.446c0-2.079,1.942-3.747,5.253-3.747h4.45l-.722.725H89.9c-2.876,0-4.528,1.329-4.528,3.021V251.7h9v2.911c0,2.079-2.127,3.746-5.438,3.746H84.649l.726-.725h3.567c2.876,0,4.713-1.329,4.713-3.021v-2.02ZM96.558,245.4v-2.526l.725-.726V245.4h4.54l-.732.725H97.283v7.686a3.468,3.468,0,0,0,3.7,3.843h.842l-.732.725h-.11c-2.465,0-4.423-1.45-4.423-4.568V245.4Zm8.165,0v12.229l-.725.726V246.129ZM104,245.21l.725-.726V243.5l-.725.726Zm11.819,13.318c-5.463,0-8.194-3.311-8.194-6.647s2.731-6.671,8.194-6.671l.7.006-.7.718c-4.979,0-7.469,3-7.469,5.946s2.49,5.922,7.469,5.922h.728Zm2.9-12.4v12.229l.725-.726V245.4Zm0-.919.725-.726V243.5l-.725.726Zm13.374,13.034V246.1h-2.241c-4.979,0-7.469,2.917-7.469,5.787s2.49,5.763,7.469,5.763h.757l.734.705h-1.491c-5.462,0-8.194-3.223-8.194-6.469s2.731-6.492,8.194-6.492h2.975v13.557Zm4.686-4.43V243.508H140.4l1.361-1.358h-7.6l-1.361,1.358h2.624v10.307c0,3.011,1.815,4.882,4.737,4.882h.239l1.365-1.353h-1.6C139.148,257.344,136.781,257,136.781,253.814Zm20.941-11.648L144.276,255.6V242.153l-1.353,1.354V258.87l16.712-16.705Zm-84.361,22.37a1.341,1.341,0,0,1-.222.02.812.812,0,0,1-.521-.137.727.727,0,0,1-.22-.458,6.534,6.534,0,0,1-.054-.986,6.273,6.273,0,0,1,.056-.981.742.742,0,0,1,.222-.463.8.8,0,0,1,.517-.137,1.526,1.526,0,0,1,.236.018.556.556,0,0,1,.173.049v.454a1.785,1.785,0,0,0-.31-.031.358.358,0,0,0-.245.065.45.45,0,0,0-.09.276q-.021.211-.02.75t.02.75a.45.45,0,0,0,.09.276.358.358,0,0,0,.245.065,1.54,1.54,0,0,0,.319-.031v.449A.922.922,0,0,1,73.361,264.536Zm1.88-.016-.1-.678h-.53l-.1.678h-.534l.508-3.09h.8l.512,3.09Zm-.355-2.533h-.027l-.2,1.379h.422ZM77.4,264.52l-.57-1.743h-.018v1.743H76.3v-3.09h.512l.534,1.621h.027v-1.621h.512v3.09Zm2.263,0-.1-.678h-.53l-.1.678h-.534l.507-3.09h.8l.512,3.09Zm-.355-2.533h-.027l-.2,1.379h.422Zm1.41,2.533v-3.09h.543v2.591h.62v.5Zm2.627-3.09h.723a.906.906,0,0,1,.557.132.638.638,0,0,1,.209.427,11.354,11.354,0,0,1,0,1.969.64.64,0,0,1-.209.429.906.906,0,0,1-.557.132h-.723Zm.723,2.6a.262.262,0,0,0,.188-.052.487.487,0,0,0,.067-.258q.018-.206.018-.745t-.018-.746a.487.487,0,0,0-.067-.258.261.261,0,0,0-.188-.052H83.88v2.111Zm1.423.489v-3.09h1.23v.489h-.687v.795h.6v.489h-.6v.826h.687v.489Zm1.828,0v-3.09h.543v2.591h.62v.5Zm2.627-3.09h.831a.74.74,0,0,1,.453.117.562.562,0,0,1,.2.335,2.763,2.763,0,0,1,.049.586,2.8,2.8,0,0,1-.047.573.59.59,0,0,1-.2.344.708.708,0,0,1-.458.126h-.287v1.01h-.543Zm.741,1.59a.264.264,0,0,0,.168-.043.232.232,0,0,0,.067-.15,4.15,4.15,0,0,0,0-.718.224.224,0,0,0-.067-.148.276.276,0,0,0-.168-.04h-.2v1.1Zm1.538,1.4a.663.663,0,0,1-.207-.438,11.943,11.943,0,0,1,0-2.016.662.662,0,0,1,.207-.438.884.884,0,0,1,.555-.135.9.9,0,0,1,.557.135.658.658,0,0,1,.209.438,11.943,11.943,0,0,1,0,2.016.658.658,0,0,1-.209.438.9.9,0,0,1-.557.135A.884.884,0,0,1,92.226,264.422Zm.739-.409a.5.5,0,0,0,.065-.265q.016-.211.016-.773t-.016-.772a.5.5,0,0,0-.065-.265.246.246,0,0,0-.184-.054.237.237,0,0,0-.182.054.54.54,0,0,0-.065.267q-.018.213-.018.77t.018.77a.539.539,0,0,0,.065.267.237.237,0,0,0,.182.054A.246.246,0,0,0,92.965,264.013Zm1.24-2.582h.723a.905.905,0,0,1,.557.132.638.638,0,0,1,.209.427,11.354,11.354,0,0,1,0,1.969.64.64,0,0,1-.209.429.905.905,0,0,1-.557.132H94.2Zm.723,2.6a.262.262,0,0,0,.189-.052.486.486,0,0,0,.067-.258q.018-.206.018-.745t-.018-.746a.485.485,0,0,0-.067-.258.261.261,0,0,0-.189-.052h-.189v2.111Zm1.424.489v-3.09h1.23v.489h-.687v.795h.6v.489h-.6v.826h.687v.489Zm2.887,0-.26-1.1h-.256v1.1h-.543v-3.09h.849a.752.752,0,0,1,.451.112.538.538,0,0,1,.2.319,3.192,3.192,0,0,1,0,1.12.5.5,0,0,1-.211.317l.328,1.221Zm-.133-1.615a.207.207,0,0,0,.067-.141,3.549,3.549,0,0,0,0-.665.208.208,0,0,0-.067-.142.29.29,0,0,0-.168-.038h-.215v1.024h.215A.289.289,0,0,0,99.106,262.906Zm2.27,1.116a.179.179,0,0,0,.088-.144,2.809,2.809,0,0,0,.02-.418v-2.03h.539v1.751a5.78,5.78,0,0,1-.05.939.4.4,0,0,1-.218.323,1.89,1.89,0,0,1-.631.076v-.463A.709.709,0,0,0,101.376,264.022Zm2.838-2.591v1.729a6.645,6.645,0,0,1-.041.882.575.575,0,0,1-.2.391,1.238,1.238,0,0,1-1.078,0,.576.576,0,0,1-.2-.391,6.683,6.683,0,0,1-.04-.882v-1.729h.539v1.94q0,.346.013.478a.278.278,0,0,0,.061.175.355.355,0,0,0,.337,0,.275.275,0,0,0,.061-.173q.013-.13.013-.481v-1.94Zm.647,0h.723a.905.905,0,0,1,.557.132.638.638,0,0,1,.209.427,11.391,11.391,0,0,1,0,1.969.64.64,0,0,1-.209.429.906.906,0,0,1-.557.132h-.723Zm.723,2.6a.262.262,0,0,0,.188-.052.486.486,0,0,0,.067-.258q.018-.206.018-.745t-.018-.746a.485.485,0,0,0-.067-.258.261.261,0,0,0-.188-.052h-.189v2.111Zm1.433.489v-3.09h.539v3.09Zm2.18.016a1.341,1.341,0,0,1-.222.02.813.813,0,0,1-.521-.137.728.728,0,0,1-.22-.458,6.553,6.553,0,0,1-.054-.986,6.291,6.291,0,0,1,.056-.981.742.742,0,0,1,.222-.463.8.8,0,0,1,.517-.137,1.528,1.528,0,0,1,.236.018.559.559,0,0,1,.173.049v.454a1.787,1.787,0,0,0-.31-.031.358.358,0,0,0-.245.065.45.45,0,0,0-.09.276q-.02.211-.02.75t.02.75a.449.449,0,0,0,.09.276.357.357,0,0,0,.245.065,1.542,1.542,0,0,0,.319-.031v.449A.926.926,0,0,1,109.2,264.536Zm.77-.016v-3.09h.539v3.09Zm2.331,0-.1-.678h-.53l-.1.678h-.534l.507-3.09h.8l.512,3.09Zm-.355-2.533h-.027l-.2,1.379h.422Zm1.41,2.533v-3.09h.543v2.591h.62v.5Zm2.627-3.09h.723a.906.906,0,0,1,.557.132.638.638,0,0,1,.209.427,11.352,11.352,0,0,1,0,1.969.64.64,0,0,1-.209.429.906.906,0,0,1-.557.132h-.723Zm.723,2.6a.262.262,0,0,0,.189-.052.487.487,0,0,0,.067-.258q.018-.206.018-.745t-.018-.746a.487.487,0,0,0-.067-.258.261.261,0,0,0-.189-.052h-.189v2.111Zm1.423.489v-3.09h1.23v.489h-.687v.795h.6v.489h-.6v.826h.687v.489Zm2.78,0v-3.09h.543v2.591h.62v.5Zm2.793,0-.1-.678h-.53l-.1.678h-.534l.508-3.09h.8l.512,3.09Zm-.355-2.533h-.027l-.2,1.379h.422Zm2.362,2.533v-3.09h1.172v.489h-.629v.858h.557v.49h-.557v1.253Zm1.72,0v-3.09h1.23v.489h-.687v.795h.6v.489h-.6v.826h.687v.489Zm1.828-3.09h.723a.9.9,0,0,1,.557.132.638.638,0,0,1,.209.427,11.354,11.354,0,0,1,0,1.969.64.64,0,0,1-.209.429.9.9,0,0,1-.557.132h-.723Zm.723,2.6a.262.262,0,0,0,.189-.052.486.486,0,0,0,.067-.258q.018-.206.018-.745t-.018-.746a.485.485,0,0,0-.067-.258.261.261,0,0,0-.189-.052h-.189v2.111Zm1.424.489v-3.09h1.23v.489h-.687v.795h.6v.489h-.6v.826h.687v.489Zm2.887,0-.26-1.1h-.256v1.1h-.543v-3.09h.849a.753.753,0,0,1,.451.112.539.539,0,0,1,.2.319,3.212,3.212,0,0,1,0,1.12.5.5,0,0,1-.211.317l.328,1.221Zm-.132-1.615a.207.207,0,0,0,.067-.141,3.517,3.517,0,0,0,0-.665.208.208,0,0,0-.067-.142.289.289,0,0,0-.168-.038h-.216v1.024h.216A.288.288,0,0,0,134.155,262.906Zm2.351,1.615-.1-.678h-.53l-.1.678h-.534l.508-3.09h.8l.512,3.09Zm-.355-2.533h-.027l-.2,1.379h.422Zm2.378,2.548a1.341,1.341,0,0,1-.222.02.813.813,0,0,1-.521-.137.726.726,0,0,1-.22-.458,6.515,6.515,0,0,1-.054-.986,6.272,6.272,0,0,1,.056-.981.74.74,0,0,1,.222-.463.8.8,0,0,1,.517-.137,1.526,1.526,0,0,1,.236.018.559.559,0,0,1,.173.049v.454a1.786,1.786,0,0,0-.31-.031.358.358,0,0,0-.245.065.45.45,0,0,0-.09.276q-.02.211-.02.75t.02.75a.449.449,0,0,0,.09.276.357.357,0,0,0,.245.065,1.544,1.544,0,0,0,.319-.031v.449A.932.932,0,0,1,138.529,264.536Zm.77-.016v-3.09h.539v3.09Zm1.412-.1a.662.662,0,0,1-.207-.438,11.983,11.983,0,0,1,0-2.016.662.662,0,0,1,.207-.438.884.884,0,0,1,.555-.135.9.9,0,0,1,.557.135.658.658,0,0,1,.209.438,11.983,11.983,0,0,1,0,2.016.658.658,0,0,1-.209.438.9.9,0,0,1-.557.135A.884.884,0,0,1,140.711,264.422Zm.739-.409a.5.5,0,0,0,.065-.265q.016-.211.016-.773t-.016-.772a.5.5,0,0,0-.065-.265.246.246,0,0,0-.184-.054.238.238,0,0,0-.182.054.543.543,0,0,0-.065.267q-.018.213-.018.77t.018.77a.543.543,0,0,0,.065.267.238.238,0,0,0,.182.054A.246.246,0,0,0,141.45,264.013Zm-.413-2.861v-.023l.162-.629h.5v.022l-.247.629Zm2.757,3.368-.57-1.743h-.018v1.743h-.517v-3.09h.512l.534,1.621h.027v-1.621h.512v3.09Z" transform="translate(1121.704 973.85)"/></g></svg>