<svg xmlns="http://www.w3.org/2000/svg" xmlns:xlink="http://www.w3.org/1999/xlink" width="139.999" height="96.06" viewBox="0 0 139.999 96.06"><defs><style>.a{fill:#fff;}.b{fill:#004593;}.c{fill:#ffe500;}.d{filter:url(#a);}</style><filter id="a" x="0" y="0" width="139.999" height="96.06" filterUnits="userSpaceOnUse"><feOffset dy="8" input="SourceAlpha"/><feGaussianBlur stdDeviation="2.5" result="b"/><feFlood flood-opacity="0.161"/><feComposite operator="in" in2="b"/><feComposite in="SourceGraphic"/></filter></defs><g transform="translate(572.501 -2075.313)"><g class="d" transform="matrix(1, 0, 0, 1, -572.5, 2075.31)"><path class="a" d="M-556.69,2090.744a15.283,15.283,0,0,0-4.589,10.263L-565,2141.443a13.5,13.5,0,0,0,13.505,13.5l80.427.87a4.906,4.906,0,0,0,.814.055,9.618,9.618,0,0,0,1.8-.175,23.811,23.811,0,0,0,4.049-1.122,30.514,30.514,0,0,0,7.185-3.5,25.647,25.647,0,0,0,6.4-6.611A47.832,47.832,0,0,0-445,2133.124c4.635-12.822,6.222-25.5,4.01-37.973a28.264,28.264,0,0,0-3.74-10.113,15.507,15.507,0,0,0-8.876-6.686,63.035,63.035,0,0,0-13.22-2.435,181.284,181.284,0,0,0-27.106-.193,259.489,259.489,0,0,0-35.366,4.406,151.35,151.35,0,0,0-15.621,3.881,46.209,46.209,0,0,0-4.62,1.668,29.44,29.44,0,0,0-6.526,4.347" transform="translate(572.5 -2075.31)"/></g><path class="b" d="M-458.256,2107.879l-.378-2.269,1.008-.158a1.166,1.166,0,0,1,.473,0,.455.455,0,0,1,.284.189.6.6,0,0,1,.157.315.546.546,0,0,1-.094.441.775.775,0,0,1-.441.284.521.521,0,0,1,.189.095c.094.063.189.157.315.252l.5.567-.378.063-.378-.41c-.126-.126-.189-.22-.252-.283a.649.649,0,0,0-.189-.126.282.282,0,0,0-.158-.032.337.337,0,0,0-.158.032l-.346.063.157,1.008Zm.1-1.324.63-.095a1.965,1.965,0,0,0,.315-.094.388.388,0,0,0,.158-.158.473.473,0,0,0,.031-.22.431.431,0,0,0-.157-.252.5.5,0,0,0-.379-.032l-.724.126Z"/><path class="b" d="M-460.651,2108.257l-.378-2.269.441-.063.788,1.512.157.316a2.391,2.391,0,0,1,.063-.379l.284-1.67.41-.063.378,2.269-.284.063-.315-1.891-.315,1.986-.284.031-.977-1.828.316,1.923Z"/><path class="b" d="M-457.783,2116.734l-5.074,1.009h-.032l.473-2.112.189-.031,1.135-.221.252-1.134.693-3.026.221-1.008-.757-.694-2.016-1.891-.662-.63-.914.189-12.7,2.49-3.466.662.063.063-4.57.819a12.483,12.483,0,0,0-1.733.5l.063-.22h-.063a7.008,7.008,0,0,0,.63-1.734l.22-.913.662-2.742-2.143.441.851-3.876.6-2.648-2.679.5-7.469,1.418a4.669,4.669,0,0,0-1.859.819l.977-4.191.63-2.711-2.71.5-6.209,1.166-3.183.6,2.206,2.4,1.009,1.1-1.8,8.54-1.071.221-8.037,1.639-.693.126-.41.567-5.893,8.257-2.395-5.61-.567-1.355-1.45.284-8.667,1.7-3.466.694,2.584,2.4,1.639,1.544-5.641,19.287-1.009,3.4,3.341-1.229,7.815-2.836.946-.347.189-1.009,1.292-6.492,2.521,4.1,1.387,2.269,1.576-2.143,2.8-3.781-.473,2.678-.473,2.616,2.584-.536c1.734-.346,3.625-.725,4.822-.977l-1.166,5.106-.788,3.34,3.183-1.26,17.964-7.154c2.143-.851,2.742-2.963,3.183-4.507.031-.063.031-.157.063-.252a27.783,27.783,0,0,0,.819-3.277l.725.661.662.6.882-.189,6.524-1.292a8.179,8.179,0,0,0,2.3-.788l.063.347,2.71-.536,4.475-.882a7.222,7.222,0,0,0,2.773-1.009l-.031.063,2.9-.567a2.184,2.184,0,0,0,1.229-.694l-.094.5,1.922-.41c.1-.031.221-.063.347-.095v.032l1.828-.378a1.823,1.823,0,0,0,.441-.126v.031l1.859-.378a2.14,2.14,0,0,0,1.765-1.765l.6-2.868Z"/><path class="c" d="M-510.224,2129.34l1.859,1.7,7.123-1.418c2.332-.441,3.057-1.639,3.529-3.939l.315-1.229-4.538.882-.378,1.481-2.742.536.6-2.8,7.343-1.45,1.229-5.357-2.237-2.08-7.28,1.45a3.652,3.652,0,0,0-1.954,1.008,5.364,5.364,0,0,0-.914,2.4Zm6.965-9.769,2.836-.6-.5,2.143-2.837.6Z"/><path class="c" d="M-477.953,2111.692l-6.649,1.324c-2.427.472-3.4,1.544-3.782,3.655-.694,3.719-1.545,6.681-1.954,8.667l1.922,1.765,6.524-1.292c2.426-.473,3.845-1.8,4.254-3.908l1.891-8.194Zm-4.412,11.156-2.868.568,1.828-7.879,2.868-.568Z"/><path class="c" d="M-463.9,2108.856l-12.7,2.489,2.238,2.112-1.765,7.721-.788,3.53,4.507-.883c2.9-.5,3.025-1.513,3.467-3.75l.315-1.324-2.175.442,1.45-6.367,2.679-.535-.568,2.426,4.7-.945.693-3.026Z"/><path class="c" d="M-496.8,2115.379l2.3,2.143-2.994,13.047-13.772,2.931-1.8,7.753,17.964-7.154c1.261-.5,1.67-1.765,2.143-3.34a34.5,34.5,0,0,0,1.009-4l2.993-12.953Z"/><path class="c" d="M-512.682,2133.752c.315-1.449.252-.85.724-3.056l.158-.568,1.7-7.5c1.134-4.885,2.08-9.014,2.395-10.432l-8.036,1.639-7.753,10.9-3.624-8.572-8.667,1.7,2.458,2.3-5.956,20.359,7.816-2.836,2.174-11,4.917,7.973,7.343-9.927-1.8,10.211S-512.651,2133.689-512.682,2133.752Z"/><path class="c" d="M-500.486,2111.849l.221-.913-1.45.283,3.057-13.047-6.209,1.166,1.639,1.8-2.395,11.409-.567,2.679,2.836-.536A3.409,3.409,0,0,0-500.486,2111.849Z"/><path class="c" d="M-498.154,2113.709l7.69-1.418c1.481-.284,2.237-1.292,2.647-2.931l.221-.914-2.08.41,1.449-6.587-7.469,1.418a2.98,2.98,0,0,0-1.481.788,3.267,3.267,0,0,0-1.04,1.67l-1.387,6.3Zm3.75-7.942,2.143-.41-1.292,5.326-2.048.379Z"/><path class="a" d="M-467.521,2123.384l.914-.189a1.341,1.341,0,0,0,1.071-1.135l.1-.346.378-1.734.851-.157.22-.946-.882.189.315-1.512.883-.189.22-1.009-1.324.252a1.342,1.342,0,0,0-1.071,1.135l-.315,1.576-.5.094-.158.946.536-.095-.473,2.048Z"/><path class="a" d="M-458.1,2117.711l-5.3,1.04-.157.914-.379,1.986-.22,1.071.567-.126a1.316,1.316,0,0,0,1.009-1.1l.094-.347.378-1.8.914-.189-.756,3.088.5-.094a1.345,1.345,0,0,0,1.072-1.072l.094-.409.378-1.8.914-.189-.662,3.12.505-.094a1.306,1.306,0,0,0,1.071-1.072l.1-.346.409-2.049Z"/></g></svg>