<svg xmlns="http://www.w3.org/2000/svg" xmlns:xlink="http://www.w3.org/1999/xlink" width="148.84" height="102.324" viewBox="0 0 148.84 102.324"><defs><style>.a{fill:#fff;}.b{fill:#004390;}.c{fill:#0055a4;}.d{fill:#0052a1;}.e{fill:#0d234c;}.f{fill:#003d84;}.g{fill:#00509c;}.h{fill:#062443;}.i{fill:#fec400;}.j{fill:#0b1a3b;}.k{fill:#0a193a;}.l{fill:#2d4423;}.m{fill:#204726;}.n{fill:#528339;}.o{fill:#5d7a2e;}.p{fill:#4d6225;}.q{fill:#5d792a;}.r{fill:url(#c);}.s{fill:#33411a;}.t{fill:#00438f;}.u{fill:#0c2957;}.v{fill:#0e2653;}.w{fill:#32401a;}.x{fill:url(#d);}.y{fill:url(#e);}.z{fill:#6f8a2b;}.aa{fill:#2a5c2f;}.ab{fill:#5e8937;}.ac{fill:#323a17;}.ad{fill:#003575;}.ae{filter:url(#a);}</style><filter id="a" x="0" y="0" width="148.84" height="102.324" filterUnits="userSpaceOnUse"><feOffset dy="3" input="SourceAlpha"/><feGaussianBlur stdDeviation="3" result="b"/><feFlood flood-opacity="0.161"/><feComposite operator="in" in2="b"/><feComposite in="SourceGraphic"/></filter><linearGradient id="c" x1="0.203" y1="0.57" x2="0.735" y2="0.146" gradientUnits="objectBoundingBox"><stop offset="0" stop-color="#293818"/><stop offset="0.471" stop-color="#306432"/><stop offset="1" stop-color="#77992e"/></linearGradient><linearGradient id="d" x1="0.14" y1="0.64" x2="0.899" y2="0.081" xlink:href="#c"/><linearGradient id="e" x1="0.147" y1="0.648" x2="0.903" y2="0.079" gradientUnits="objectBoundingBox"><stop offset="0" stop-color="#293818"/><stop offset="0.352" stop-color="#306432"/><stop offset="1" stop-color="#77992e"/></linearGradient></defs><g transform="translate(-1156.836 -988)"><g class="ae" transform="matrix(1, 0, 0, 1, 1156.84, 988)"><path class="a" d="M-556.03,1638.639a15.993,15.993,0,0,0-4.8,10.742l-3.9,42.326a14.135,14.135,0,0,0,14.136,14.136l84.185.91a5.1,5.1,0,0,0,.852.058,10.085,10.085,0,0,0,1.881-.183,24.86,24.86,0,0,0,4.238-1.174,31.989,31.989,0,0,0,7.521-3.669,26.847,26.847,0,0,0,6.7-6.92,50.063,50.063,0,0,0,6.1-11.865c4.852-13.422,6.513-26.692,4.2-39.748a29.562,29.562,0,0,0-3.916-10.585,16.213,16.213,0,0,0-9.29-7,65.929,65.929,0,0,0-13.837-2.549,189.649,189.649,0,0,0-28.373-.2,271.606,271.606,0,0,0-37.019,4.612,158.233,158.233,0,0,0-16.351,4.062,48.246,48.246,0,0,0-4.836,1.746,30.826,30.826,0,0,0-6.831,4.55" transform="translate(573.73 -1616.49)"/></g><g transform="translate(1730.565 -628.487)"><path class="b" d="M-451.851,1673.156l-.365.409-6.745,1.288-3.587.838-.214.086h-.022l1.461-2.212-3.351,1.911-1.267,1.16-6.745,1.632.645-2.212-1.568,1.568-1.31,1.16c-3.115.752-5.8,1.353-6.251,1.4a2.041,2.041,0,0,1-1.8-1.138s-.193.859-.773,2.556h-.022l-6.465,6.379-1.74,1.611-19.116,8.291,2.942-9.344,2.02-1.568,5.412-16.968,2.191-1.783-.344-.107-1.5.172.709-6.014.064-.666.709-2.256.73-.128,2.921-9.967-.859-1.224,1.59-1.589,5.155,1.267-.6,8.226,2.707-2.663,7.882.15-1.482,9.3-2.019,2.062h7.6l7.389-2.685.494-.6,11.9,1.16-.666,2.6a3.674,3.674,0,0,1-.9,1.267c-.064.043-.15.108-.236.172l-1.933.279s-.172.387-.387.924a7.8,7.8,0,0,1-1.546.236c-2.428.129-2.342,3.2-2.342,3.2s2.385.3,2.427,0c.022-.215.9-2.213,1.461-3.437a5.961,5.961,0,0,0,2.32-1.2l2.921-.408Z"/><path class="c" d="M-498.869,1668.109l.344.107-2.191,1.783-5.412,16.968-2.02,1.568-1.632.344.344-.3,2.277-2.062-2.6-11.04-3.545.8-2.835,7.883v1.5l-4.618,5.477-1.031-1.761,1.7-2.019s.881-5.778,1.117-5.971c.258-.215-5.219-7.217-5.219-7.217l-3.351,11.663,1.546,2.749-1.117,4.167-5.563,2.127,3.05-3.029,4.554-20.834-7.6-3.287-1.868,1.547-2.9-3.029,16.9-2.857,2.964,8.377,8.141-10.482,10.546-1.933-.709,2.256-.064.666-.709,6.014Z"/><path class="d" d="M-493.252,1666.67l-1.011-1.4-2.651,2.211Z"/><path class="e" d="M-542.419,1698.605l-1.633-3.311,9.307-26.243,2.3,2.409Z"/><path class="f" d="M-525.073,1671.009l-4.554,20.835-3.05,3.029h-.021l-9.73,3.737,9.988-27.149-2.1-2.191,1.869-1.547Z"/><path class="b" d="M-518.973,1681.383c-.236.193-1.117,5.971-1.117,5.971l-1.7,2.019-3.007-5.219-1.2,4.424-1.546-2.749,3.351-11.663S-518.715,1681.168-518.973,1681.383Z"/><path class="b" d="M-507.159,1686.516l-2.277,2.062-.344.3-6.766,1.4,1.418-5.821-1.009,1.2v-1.5l2.835-7.883,3.544-.795Z"/><path class="e" d="M-511.09,1697.879l-2.892-2.943,1.446-5.492,4.388-.909Z"/><path class="g" d="M-446.116,1663.92l-.365,1.8-3.652,5.52-1.718,1.911-2.513-6.873-2.921.408c.086-.064.172-.129.236-.172a3.674,3.674,0,0,0,.9-1.267l.666-2.6-11.9-1.16-.494.6-7.389,2.685h-7.6l2.019-2.062,1.482-9.3-7.882-.15-2.707,2.663.6-8.226-5.155-1.267-1.59,1.589-2.255-3.243,13.274-1.848-1.59,5.542-.708,2.47a8.566,8.566,0,0,1,3.716-1.117l8.72-1.353-2.148,7.195,2.148-.257-2.191,6.186,22.381-4.468,2.685,3.608-.6,1.225-1.117,1.954.064,1.7Z"/><path class="b" d="M-476.193,1658.949l17.284-3.01,4.158,1.195-22.381,4.468Z"/><path class="h" d="M-490.234,1687.977l6.465-6.379c-.236.708-.558,1.589-.966,2.6a6.624,6.624,0,0,1-4.21,4.081l-3.029,1.31Z"/><path class="g" d="M-473.609,1677.624l1.568-1.568-.645,2.212c-.752.172-1.5.344-2.233.516Z"/><path class="g" d="M-464.674,1675.476l3.351-1.911-1.461,2.212-.6.236s-1.01.236-2.556.623Z"/><path class="g" d="M-461.151,1668.13a7.8,7.8,0,0,0,1.546-.236c-.558,1.224-1.439,3.222-1.461,3.437-.042.3-2.427,0-2.427,0S-463.579,1668.259-461.151,1668.13Z"/><path class="h" d="M-459.218,1666.97l1.933-.279a5.961,5.961,0,0,1-2.32,1.2C-459.39,1667.357-459.218,1666.97-459.218,1666.97Z"/><path class="i" d="M-532.261,1668.222l2.953,3-8.994,24.88,9.979-3.8,3.535-13.2,5.236,9.218,9.531-11.635-3.043,11.9,6.936-1.611,7.965-24.969-9.308,1.7-10.2,13.111-3.58-10.471Z"/><path class="i" d="M-489.976,1660.892l-.237,1.074-.021.064c-1.289,3.716-6.68,3.587-6.68,3.587l4.919-16.646-1.7-2.363,7.066-.9-4.961,15.272a4.419,4.419,0,0,1,1.2-.451A.412.412,0,0,1-489.976,1660.892Z"/><path class="i" d="M-476.466,1651.226s-5.37,1.074-7.2,1.246c-1.848.172-3.051,1.224-3.888,3.931-.322,1.009-.666,2.105-.967,3.071l-.021.022a.077.077,0,0,1-.022.064,14.93,14.93,0,0,0-.794,3.029l1.31,1.331,8.012-1.331s2.534-.086,3.393-3.673c0,0,.365-.666-.537-.537s-1.568.258-1.568.258l2.277-6.938S-476.23,1651.14-476.466,1651.226Zm-6.487,9.387-2.126.386,2.04-6.1,2.191-.343Z"/><path class="i" d="M-488.129,1674.66l2-5.842-2.083-2.535-7.84,1.611s-2.62.065-3.63,3.544c-1.009,3.5-3.222,10.417-3.222,10.417l1.891,1.934,8.312-1.934s3.157-.429,4.167-5.67l-4.833.966-.537,1.891-3.007.386.924-3.028Zm-3.63-2.212-3.2.537.751-2.385,3.072-.665Z"/><path class="i" d="M-487.245,1665.627l2.551,2.729-4.664,14.588-15.115,3.58-2.685,8.77,19.376-8.368s1.678-.492,2.7-3.445,6.477-19.018,6.477-19.018Z"/><path class="i" d="M-467.6,1662.224s-2.062.322-5.821,1.073-4.618,3.222-4.618,3.222L-481.557,1677l1.783,1.826s3.007-.537,6.358-1.246a6.526,6.526,0,0,0,4.511-3.587l3.222-9.537Zm-5.735,12.092-2.728.537,2.857-8.591,2.792-.537Z"/><path class="i" d="M-452.667,1661.966l-1.053,2.792-4.253.859s.6-1.46.86-2.083c.279-.623-.451-.387-.451-.387l-.838.172-1.289.279-1.869,5.778-.322,1.01a7.44,7.44,0,0,0,1.4-.366.65.65,0,0,1,.28-.085c.3-.022.236.236.236.236l-.365,1.181a4.978,4.978,0,0,1-3.8,4.017l-4.21.9,4.124-11.964-1.976-2.341s5.928-1.1,8.184-1.568a11.532,11.532,0,0,0,2.942-1.01.838.838,0,0,1,.3.043,4.673,4.673,0,0,1,1.31,1.139C-452.345,1661.73-452.667,1661.966-452.667,1661.966Z"/><path class="i" d="M-452.3,1667.271l-.172.688c-.021.107-.043.236-.086.386l-.064.258c-.237.988-.731,1.246-1.1,1.289a.831.831,0,0,1-.408-.022l.344-1.052-.859.128-1.1,4.017.516-.043-.451,1.31-2.685.516s.064-1.031.322-1.246a2.148,2.148,0,0,1,.687-.236c.194-.279,1.2-3.974,1.2-3.974l-.9.215-.344,1.138-.859.151-.386.064.988-2.448,4.36-.924Z"/><path class="i" d="M-446.782,1666.025c0,.28-2.685,5.95-2.685,5.95a2.28,2.28,0,0,1-1.5,1.289c-.6.15-1.246.3-1.246.3l.365-5.134-.344.022.086-.494.129-.752.644-.151.473-.107.859-.215-.58,4.532s.172.236.344-.193,1.289-3.243,1.289-3.243l-.473.107s.3-1.2.365-1.267l.108-.043a16.47,16.47,0,0,1,2.126-.6Z"/><path class="b" d="M-537.44,1666.235l-2.25-2.309,16.848-2.484,2.3,1.947Z"/><path class="b" d="M-498.342,1644.774l-3.49-1.052,12.82-1.812,3.927,1.029Z"/><path class="b" d="M-474.941,1648.477l-8.72,1.353a8.566,8.566,0,0,0-3.716,1.117l.708-2.47,8.055-1.138Z"/><path class="b" d="M-474.941,1655.415l-1.851-.737-.3.995Z"/><path class="b" d="M-446.116,1663.92l-4.939-1.5-2.072.355-.6,1.983,0,.863Z"/><path class="j" d="M-515.128,1684.454l-1.418,5.821-1.856-1.936Z"/><path class="k" d="M-520.756,1691.134l-4.311-5.971.273-1.01Z"/><path class="l" d="M-538.3,1696.1l-.481-1.13,8.831-24.4.644.654Z"/><path class="m" d="M-517.673,1676.813l10.2-13.111-.677-.515-9.9,12.521Z"/><path class="n" d="M-521.253,1666.342l-.984-.716-10.437,2.092.414.5Z"/><path class="o" d="M-507.471,1663.7l-.677-.515,9.033-1.577.951.392Z"/><path class="l" d="M-496.91,1665.626l-1-.761,5.023-16.042.895.157Z"/><path class="p" d="M-491.988,1648.98l-1.7-2.372-.828-.168,1.633,2.383Z"/><path class="q" d="M-493.689,1646.608l-.828-.168,6.813-.973,1.085.246Z"/><path class="r" d="M-476.466,1651.226s-5.37,1.074-7.2,1.246c-1.848.172-3.051,1.224-3.888,3.931-.322,1.009-.666,2.105-.967,3.071l-.021.022a.065.065,0,0,0-.022.043v.021a14.93,14.93,0,0,0-.794,3.029l1.31,1.331-2.191-1.89.021-.064a5.226,5.226,0,0,0,.237-1.074s.966-4.038,1.8-6.207a4.431,4.431,0,0,1,3.093-2.6s4.682-.645,6.615-.881C-476.552,1650.99-476.466,1651.226-476.466,1651.226Z"/><path class="s" d="M-481.9,1654.678l-1.812,5.523-1.136.1-.233.7,2.126-.387,2.105-6.057Z"/><path class="e" d="M-509.436,1661.278l-3.069-1.885-6.461,8.442,1.389,3.925Z"/><path class="t" d="M-512.505,1659.393l11.075-1.825,3.27,1.648-11.276,2.062Z"/><path class="u" d="M-498.16,1659.217l2.921-9.966-3.506-1.232-2.685,9.551Z"/><path class="v" d="M-495.239,1649.25l-3.1-4.477-3.49-1.052,3.088,4.3Z"/><path class="s" d="M-513.064,1688.582l-.765-.782,2.527-9.557,1.281-1.564Z"/><path class="w" d="M-507.158,1695.294l-.837-.882,2.762-8.589.76.7Z"/><path class="q" d="M-504.473,1686.524l-.76-.7,14.864-3.574,1.011.695Z"/><path class="s" d="M-489.358,1682.944l4.664-14.588-2.551-2.729-.714-.237,2.362,2.848-4.772,14.011Z"/><path class="q" d="M-478.609,1664.463l-1.2-.542-8.149,1.469.714.237Z"/><path class="x" d="M-488.215,1666.283l-7.84,1.611s-2.62.065-3.63,3.544c-1.009,3.5-3.222,10.417-3.222,10.417l1.891,1.934-2.664-2.685s2.535-8.678,3.437-11.169c.88-2.492,3.8-2.836,3.8-2.836l7.3-1.353Z"/><path class="s" d="M-492.168,1670.158l-.715,1.688-1.845.4-.231.734,3.2-.537.623-2.513Z"/><path class="s" d="M-488.537,1676.185l-1.137-.7-4.751,1.045-.438,1.583-1.722.235-.329,1.08,3.007-.387.537-1.89Z"/><path class="y" d="M-467.6,1662.224s-2.062.322-5.821,1.073-4.618,3.222-4.618,3.222L-481.557,1677l1.783,1.826-2.685-2.556s2.449-7.131,3.351-9.988a4.445,4.445,0,0,1,3.458-3.157l6.874-1.418Z"/><path class="w" d="M-471.716,1665.976l-2.636,7.816-1.477.374-.228.687,2.728-.537,2.921-8.592Z"/><path class="z" d="M-454.751,1659.388l-.021.043a.838.838,0,0,0-.3-.043,11.532,11.532,0,0,1-2.942,1.01c-2.256.472-8.184,1.568-8.184,1.568l-1.181-.473,11.469-2.105S-454.944,1659.238-454.751,1659.388Z"/><path class="s" d="M-460.206,1669.935a.65.65,0,0,0-.28.085,7.44,7.44,0,0,1-1.4.366l.322-1.01Z"/><path class="s" d="M-456.147,1669.29s-1.009,3.695-1.2,3.974a2.148,2.148,0,0,0-.687.236c-.258.215-.322,1.246-.322,1.246a15.2,15.2,0,0,1-1.547-.58c.022-.065.043-1.267,1.074-1.418l.58-1.954.859-.151.344-1.138Z"/><path class="aa" d="M-458.638,1670.858l-1.267-.763.96-2.343,1.3.658Z"/><path class="ab" d="M-452.3,1667.271l-.988.215-4.36.924-1.289-.666,5.048-1.031.451.15Z"/><path class="ab" d="M-446.825,1666.025a16.47,16.47,0,0,0-2.126.6l-.108.043-1.654-.58,2.578-.473Z"/><path class="ab" d="M-450,1666.734l-.859.215-.472.107-.644.15-1.5-.537,1.933-.451.709.236Z"/><path class="ac" d="M-451.98,1667.207l-.129.752-.086.494-.365-.108c.043-.15.065-.279.086-.386l.172-.688-1.138-.408-.043-.193Z"/><path class="s" d="M-451.851,1668.431l-.365,5.134-1.5-.623v-3.05c.365-.043.859-.3,1.1-1.289l.064-.258.365.108Z"/><path class="s" d="M-448.951,1667.83s-1.117,2.813-1.289,3.243-.344.193-.344.193l.58-4.532-.838-.279.129-.365,1.654.58c-.064.064-.365,1.267-.365,1.267Z"/><path class="s" d="M-468.347,1676.271l-1.133-.786,1.474-4.154,2.508-7.411,1.274.387Z"/><path class="ac" d="M-465.5,1663.92l-1.883-2.427,1.181.473,1.976,2.341Z"/><path class="ac" d="M-457.113,1663.534c-.258.623-.86,2.083-.86,2.083l-1.245-.386.816-1.912.838-.172S-456.834,1662.911-457.113,1663.534Z"/><path class="ad" d="M-457.285,1666.691a5.961,5.961,0,0,1-2.32,1.2c.215-.537.387-.924.387-.924Z"/><path class="e" d="M-452.216,1673.565l-10.546,2.212.215-.086,3.587-.838Z"/><path class="b" d="M-508.148,1663.188l-4.089,3.525-6.165,8.14.35.855Z"/></g></g></svg>