<svg xmlns="http://www.w3.org/2000/svg" width="423.202" height="141.464" viewBox="0 0 423.202 141.464">
  <g id="logo-app-store" transform="translate(0 0)">
    <g id="Grupo_3" data-name="Grupo 3" transform="translate(0 0)">
      <g id="Grupo_1" data-name="Grupo 1">
        <path id="Trazado_1" data-name="Trazado 1" d="M389.5,0H33.72c-1.3,0-2.578,0-3.872.007-1.083.007-2.157.028-3.25.045a46.734,46.734,0,0,0-7.087.625,23.572,23.572,0,0,0-6.723,2.217A22.768,22.768,0,0,0,7.065,7.063,22.133,22.133,0,0,0,2.9,12.8a23.346,23.346,0,0,0-2.21,6.731,45.95,45.95,0,0,0-.634,7.08C.021,27.692.017,28.78,0,29.864V111.61c.017,1.1.021,2.162.054,3.26a45.949,45.949,0,0,0,.634,7.08,23.3,23.3,0,0,0,2.21,6.735,21.954,21.954,0,0,0,4.167,5.709,22.189,22.189,0,0,0,5.724,4.169,23.7,23.7,0,0,0,6.723,2.231,47.584,47.584,0,0,0,7.087.625c1.093.024,2.167.038,3.25.038,1.293.007,2.575.007,3.872.007H389.5c1.271,0,2.563,0,3.834-.007,1.078,0,2.183-.014,3.26-.038a46.96,46.96,0,0,0,7.073-.625,24.064,24.064,0,0,0,6.748-2.231,22.2,22.2,0,0,0,5.719-4.169,22.615,22.615,0,0,0,4.179-5.709,23.355,23.355,0,0,0,2.189-6.735,47.767,47.767,0,0,0,.656-7.08c.014-1.1.014-2.162.014-3.26.028-1.285.028-2.563.028-3.868V33.726c0-1.3,0-2.58-.028-3.861,0-1.084,0-2.172-.014-3.257a47.759,47.759,0,0,0-.656-7.08,23.4,23.4,0,0,0-2.19-6.731,22.868,22.868,0,0,0-9.9-9.9A23.934,23.934,0,0,0,403.668.677a46.131,46.131,0,0,0-7.073-.625c-1.078-.017-2.183-.038-3.26-.045C392.063,0,390.772,0,389.5,0Z" transform="translate(0 0)" fill="#a6a6a6"/>
        <path id="Trazado_2" data-name="Trazado 2" d="M27.651,136.149c-1.078,0-2.129-.014-3.2-.038a44.871,44.871,0,0,1-6.61-.577,20.808,20.808,0,0,1-5.859-1.938A19.118,19.118,0,0,1,7.043,130a18.817,18.817,0,0,1-3.609-4.939,20.236,20.236,0,0,1-1.92-5.861,43.9,43.9,0,0,1-.589-6.631c-.022-.746-.052-3.229-.052-3.229v-81.7S.9,25.2.925,24.481A43.748,43.748,0,0,1,1.51,17.86a20.355,20.355,0,0,1,1.922-5.878,19,19,0,0,1,3.59-4.944,19.683,19.683,0,0,1,4.959-3.616A20.594,20.594,0,0,1,17.829,1.5a44.512,44.512,0,0,1,6.633-.58L27.653.875H391.1l3.229.045a43.8,43.8,0,0,1,6.572.575,21,21,0,0,1,5.909,1.938,19.783,19.783,0,0,1,8.541,8.558,20.38,20.38,0,0,1,1.893,5.832,45.962,45.962,0,0,1,.615,6.674c.01,1,.01,2.077.01,3.148.028,1.326.028,2.589.028,3.861v74.016c0,1.285,0,2.539-.028,3.8,0,1.15,0,2.2-.014,3.288a45.021,45.021,0,0,1-.6,6.555,20.3,20.3,0,0,1-1.91,5.906,19.382,19.382,0,0,1-3.592,4.9,19.142,19.142,0,0,1-4.949,3.616,20.73,20.73,0,0,1-5.9,1.944,44.357,44.357,0,0,1-6.611.577c-1.036.024-2.121.038-3.174.038l-3.834.007Z" transform="translate(2.214 2.22)"/>
      </g>
      <g id="_Group_" data-name="&lt;Group&gt;" transform="translate(35.265 30.84)">
        <g id="_Group_2" data-name="&lt;Group&gt;">
          <g id="_Group_3" data-name="&lt;Group&gt;">
            <path id="_Path_" data-name="&lt;Path&gt;" d="M62.3,36.351a17.5,17.5,0,0,1,8.334-14.684,17.915,17.915,0,0,0-14.115-7.631c-5.939-.623-11.7,3.554-14.722,3.554-3.085,0-7.744-3.492-12.762-3.389A18.8,18.8,0,0,0,13.22,23.849c-6.84,11.842-1.738,29.246,4.814,38.818,3.278,4.687,7.109,9.923,12.122,9.737,4.905-.2,6.738-3.128,12.659-3.128,5.866,0,7.585,3.128,12.7,3.01,5.264-.085,8.58-4.708,11.743-9.44a38.768,38.768,0,0,0,5.37-10.937A16.912,16.912,0,0,1,62.3,36.351Z" transform="translate(-9.972 4.604)" fill="#fff"/>
            <path id="_Path_2" data-name="&lt;Path&gt;" d="M30.272,21.065A17.232,17.232,0,0,0,34.214,8.72,17.532,17.532,0,0,0,22.87,14.59a16.4,16.4,0,0,0-4.045,11.888A14.5,14.5,0,0,0,30.272,21.065Z" transform="translate(12.399 -8.72)" fill="#fff"/>
          </g>
        </g>
        <g id="Grupo_2" data-name="Grupo 2" transform="translate(86.49 32.362)">
          <path id="Trazado_3" data-name="Trazado 3" d="M62.278,50.125H45.538L41.518,62h-7.09L50.283,18.078H57.65L73.506,62H66.294ZM47.272,44.647H60.541L54,25.383h-.183Z" transform="translate(-34.427 -17.346)" fill="#fff"/>
          <path id="Trazado_4" data-name="Trazado 4" d="M76.793,37.7c0,9.95-5.326,16.343-13.362,16.343a10.855,10.855,0,0,1-10.074-5.6H53.2V64.3H46.631V21.687h6.362v5.326h.121a11.358,11.358,0,0,1,10.2-5.661C71.436,21.352,76.793,27.776,76.793,37.7Zm-6.755,0c0-6.483-3.35-10.744-8.462-10.744-5.022,0-8.4,4.352-8.4,10.744,0,6.452,3.378,10.772,8.4,10.772C66.687,48.47,70.037,44.24,70.037,37.7Z" transform="translate(-3.471 -9.057)" fill="#fff"/>
          <path id="Trazado_5" data-name="Trazado 5" d="M86.757,37.7c0,9.95-5.326,16.343-13.362,16.343a10.855,10.855,0,0,1-10.074-5.6h-.152V64.3H56.6V21.687h6.362v5.326h.121a11.358,11.358,0,0,1,10.2-5.661C81.4,21.352,86.757,27.776,86.757,37.7ZM80,37.7c0-6.483-3.35-10.744-8.462-10.744-5.022,0-8.4,4.352-8.4,10.744,0,6.452,3.378,10.772,8.4,10.772C76.652,48.47,80,44.24,80,37.7Z" transform="translate(21.806 -9.057)" fill="#fff"/>
          <path id="Trazado_6" data-name="Trazado 6" d="M76.536,50.284c.487,4.355,4.718,7.215,10.5,7.215,5.54,0,9.525-2.86,9.525-6.787,0-3.409-2.4-5.45-8.1-6.849l-5.692-1.371c-8.064-1.948-11.808-5.719-11.808-11.839,0-7.577,6.6-12.782,15.98-12.782,9.28,0,15.642,5.2,15.856,12.782H96.167c-.4-4.383-4.02-7.028-9.315-7.028S77.935,26.3,77.935,30.2c0,3.1,2.314,4.932,7.975,6.33l4.839,1.188c9.011,2.131,12.755,5.75,12.755,12.174,0,8.216-6.545,13.362-16.954,13.362-9.739,0-16.315-5.025-16.74-12.969Z" transform="translate(55.319 -17.871)" fill="#fff"/>
          <path id="Trazado_7" data-name="Trazado 7" d="M91.422,19.3v7.577h6.089v5.2H91.422V49.734c0,2.742,1.219,4.02,3.9,4.02a20.539,20.539,0,0,0,2.162-.152v5.174a18.049,18.049,0,0,1-3.651.3c-6.483,0-9.011-2.435-9.011-8.645V32.082H80.163v-5.2h4.655V19.3Z" transform="translate(81.584 -14.247)" fill="#fff"/>
          <path id="Trazado_8" data-name="Trazado 8" d="M86.065,37.736c0-10.074,5.933-16.405,15.186-16.405,9.284,0,15.189,6.33,15.189,16.405,0,10.1-5.875,16.405-15.189,16.405S86.065,47.838,86.065,37.736Zm23.679,0c0-6.911-3.167-10.99-8.493-10.99s-8.489,4.11-8.489,10.99c0,6.938,3.164,10.986,8.489,10.986s8.492-4.048,8.492-10.986Z" transform="translate(96.556 -9.094)" fill="#fff"/>
          <path id="Trazado_9" data-name="Trazado 9" d="M96.186,21.687h6.268v5.45h.152a7.637,7.637,0,0,1,7.7-5.785,10.136,10.136,0,0,1,2.252.245v6.148a9.188,9.188,0,0,0-2.953-.4,6.623,6.623,0,0,0-6.849,7.367V53.706H96.186Z" transform="translate(122.229 -9.056)" fill="#fff"/>
          <path id="Trazado_10" data-name="Trazado 10" d="M130.1,44.34c-.884,5.813-6.545,9.8-13.787,9.8-9.315,0-15.1-6.241-15.1-16.253,0-10.043,5.813-16.557,14.82-16.557,8.859,0,14.43,6.085,14.43,15.794v2.252H107.852v.4a8.339,8.339,0,0,0,8.614,9.069,7.244,7.244,0,0,0,7.394-4.5Zm-22.218-9.556h16.008a7.7,7.7,0,0,0-7.854-8.127,8.106,8.106,0,0,0-8.154,8.127Z" transform="translate(134.991 -9.094)" fill="#fff"/>
        </g>
      </g>
    </g>
    <g id="_Group_4" data-name="&lt;Group&gt;" transform="translate(125.293 28.362)">
      <g id="Grupo_4" data-name="Grupo 4">
        <path id="Trazado_11" data-name="Trazado 11" d="M35.428,19.664c0-6.843,3.64-11.071,9.5-11.071a8.432,8.432,0,0,1,8.776,7.313H50.444a5.428,5.428,0,0,0-5.512-4.257c-3.789,0-6.158,3.086-6.158,8.014s2.369,8,6.172,8a5.288,5.288,0,0,0,5.5-3.889h3.264a8.234,8.234,0,0,1-8.762,6.945C39.082,30.72,35.428,26.494,35.428,19.664Z" transform="translate(-35.428 -6.59)" fill="#fff"/>
        <path id="Trazado_12" data-name="Trazado 12" d="M41.636,18.371a7.544,7.544,0,1,1,15.02,0,7.546,7.546,0,1,1-15.02,0Zm11.787,0c0-3.452-1.551-5.471-4.272-5.471s-4.269,2.019-4.269,5.471c0,3.48,1.537,5.483,4.269,5.483s4.272-2.017,4.272-5.483Z" transform="translate(-19.771 -2.722)" fill="#fff"/>
        <path id="Trazado_13" data-name="Trazado 13" d="M47.05,10.427h3.025v2.53h.235a4.767,4.767,0,0,1,4.752-2.837,5.18,5.18,0,0,1,5.512,5.923V26.351H57.432v-9.52C57.432,14.272,56.32,13,54,13a3.653,3.653,0,0,0-3.8,4.036v9.316H47.05Z" transform="translate(-5.947 -2.734)" fill="#fff"/>
        <path id="Trazado_14" data-name="Trazado 14" d="M58.626,10.108c3.581,0,5.923,1.666,6.23,4.474H61.841c-.29-1.169-1.433-1.915-3.215-1.915-1.754,0-3.087.832-3.087,2.076,0,.951.8,1.551,2.532,1.946l2.645.613c3.029.7,4.448,2,4.448,4.345,0,3-2.794,5-6.6,5s-6.258-1.711-6.538-4.533h3.146A3.231,3.231,0,0,0,58.64,24.1c1.958,0,3.35-.877,3.35-2.15,0-.95-.746-1.565-2.342-1.944l-2.777-.644c-3.029-.717-4.431-2.076-4.431-4.445C52.44,12.1,55.027,10.108,58.626,10.108Z" transform="translate(6.683 -2.722)" fill="#fff"/>
        <path id="Trazado_15" data-name="Trazado 15" d="M56.865,13.05l3.671-5.03h3.685l-4.11,5.03Zm.325,2.663h3.129V31.638H57.19Z" transform="translate(18.95 -8.02)" fill="#fff"/>
        <path id="Trazado_16" data-name="Trazado 16" d="M59.676,27.906h3.215c.266,1.155,1.6,1.9,3.716,1.9,2.618,0,4.169-1.243,4.169-3.348V23.4h-.235a5.356,5.356,0,0,1-4.915,2.675c-4.065,0-6.579-3.143-6.579-7.911,0-4.856,2.542-8.044,6.61-8.044a5.519,5.519,0,0,1,5,2.808h.249V10.387h3.012V26.443c0,3.642-2.853,5.952-7.356,5.952C62.584,32.4,60.011,30.612,59.676,27.906Zm11.159-9.755c0-3.172-1.641-5.2-4.317-5.2-2.7,0-4.224,2.033-4.224,5.2s1.52,5.206,4.224,5.206,4.317-2.017,4.317-5.206Z" transform="translate(24.487 -2.694)" fill="#fff"/>
        <path id="Trazado_17" data-name="Trazado 17" d="M78.239,26.12H75.21V23.59h-.249a4.775,4.775,0,0,1-4.811,2.837,5.172,5.172,0,0,1-5.486-5.894V10.195h3.148v9.52c0,2.573,1.036,3.8,3.347,3.8a3.615,3.615,0,0,0,3.934-4.008V10.195h3.146Z" transform="translate(38.601 -2.502)" fill="#fff"/>
        <path id="Trazado_18" data-name="Trazado 18" d="M83.963,22.041a6.465,6.465,0,0,1-6.9,4.607,7.233,7.233,0,0,1-7.356-8.22,7.345,7.345,0,0,1,7.343-8.32c4.431,0,7.1,3.027,7.1,8.028v1.1H72.908v.176a4.209,4.209,0,0,0,4.241,4.562,3.817,3.817,0,0,0,3.789-1.931ZM72.908,16.908h8.044a3.842,3.842,0,0,0-3.92-4.125,4.073,4.073,0,0,0-4.124,4.125Z" transform="translate(51.351 -2.722)" fill="#fff"/>
        <path id="Trazado_19" data-name="Trazado 19" d="M74.977,8.437H78.12V30.579H74.977Z" transform="translate(64.892 -6.961)" fill="#fff"/>
        <path id="Trazado_20" data-name="Trazado 20" d="M77.127,18.371a7.544,7.544,0,1,1,15.02,0,7.546,7.546,0,1,1-15.02,0Zm11.787,0c0-3.452-1.551-5.471-4.272-5.471s-4.269,2.019-4.269,5.471c0,3.48,1.537,5.483,4.269,5.483s4.272-2.017,4.272-5.483Z" transform="translate(70.255 -2.722)" fill="#fff"/>
        <path id="Trazado_21" data-name="Trazado 21" d="M99.066,22.041a6.465,6.465,0,0,1-6.9,4.607,7.233,7.233,0,0,1-7.356-8.22,7.345,7.345,0,0,1,7.343-8.32c4.431,0,7.1,3.027,7.1,8.028v1.1H88.011v.176a4.209,4.209,0,0,0,4.241,4.562,3.817,3.817,0,0,0,3.789-1.931ZM88.011,16.908h8.044a3.842,3.842,0,0,0-3.92-4.125,4.073,4.073,0,0,0-4.124,4.125Z" transform="translate(89.659 -2.722)" fill="#fff"/>
        <path id="Trazado_22" data-name="Trazado 22" d="M90.039,10.427h3.025v2.53H93.3a4.767,4.767,0,0,1,4.752-2.837,5.18,5.18,0,0,1,5.512,5.923V26.351H100.42v-9.52c0-2.559-1.112-3.832-3.436-3.832a3.653,3.653,0,0,0-3.8,4.036v9.316H90.039Z" transform="translate(103.097 -2.734)" fill="#fff"/>
        <path id="Trazado_23" data-name="Trazado 23" d="M111.762,22.041a6.465,6.465,0,0,1-6.9,4.607,7.233,7.233,0,0,1-7.356-8.22,7.345,7.345,0,0,1,7.343-8.32c4.431,0,7.1,3.027,7.1,8.028v1.1H100.707v.176a4.209,4.209,0,0,0,4.241,4.562,3.817,3.817,0,0,0,3.789-1.931Zm-11.055-5.132h8.044a3.842,3.842,0,0,0-3.92-4.125,4.073,4.073,0,0,0-4.124,4.125Z" transform="translate(121.865 -2.722)" fill="#fff"/>
        <path id="Trazado_24" data-name="Trazado 24" d="M102.776,8.437h3.143V30.579h-3.143Z" transform="translate(135.406 -6.961)" fill="#fff"/>
      </g>
    </g>
  </g>
</svg>
