<svg xmlns="http://www.w3.org/2000/svg" xmlns:xlink="http://www.w3.org/1999/xlink" width="477.344" height="141.435" viewBox="0 0 477.344 141.435">
  <defs>
    <linearGradient id="linear-gradient" x1="0.915" y1="6.614" x2="-0.382" y2="5.945" gradientUnits="objectBoundingBox">
      <stop offset="0" stop-color="#00a0ff"/>
      <stop offset="0.01" stop-color="#00a1ff"/>
      <stop offset="0.26" stop-color="#00beff"/>
      <stop offset="0.51" stop-color="#00d2ff"/>
      <stop offset="0.76" stop-color="#00dfff"/>
      <stop offset="1" stop-color="#00e3ff"/>
    </linearGradient>
    <linearGradient id="linear-gradient-2" x1="1.077" y1="17.089" x2="-1.306" y2="17.089" gradientUnits="objectBoundingBox">
      <stop offset="0" stop-color="#ffe000"/>
      <stop offset="0.41" stop-color="#ffbd00"/>
      <stop offset="0.78" stop-color="orange"/>
      <stop offset="1" stop-color="#ff9c00"/>
    </linearGradient>
    <linearGradient id="linear-gradient-3" x1="0.863" y1="10.855" x2="-0.502" y2="9.087" gradientUnits="objectBoundingBox">
      <stop offset="0" stop-color="#ff3a44"/>
      <stop offset="1" stop-color="#c31162"/>
    </linearGradient>
    <linearGradient id="linear-gradient-4" x1="-0.188" y1="13.576" x2="0.421" y2="12.786" gradientUnits="objectBoundingBox">
      <stop offset="0" stop-color="#32a071"/>
      <stop offset="0.07" stop-color="#2da771"/>
      <stop offset="0.48" stop-color="#15cf74"/>
      <stop offset="0.8" stop-color="#06e775"/>
      <stop offset="1" stop-color="#00f076"/>
    </linearGradient>
  </defs>
  <g id="Grupo_5" data-name="Grupo 5" transform="translate(-557.359 -735.359)">
    <rect id="Rectángulo_2" data-name="Rectángulo 2" width="476" height="136" rx="16" transform="translate(558 738)"/>
    <path id="Trazado_25" data-name="Trazado 25" d="M469.665,12.829a14.851,14.851,0,0,1,14.851,14.851V133.756a14.851,14.851,0,0,1-14.851,14.851H27.679a14.851,14.851,0,0,1-14.851-14.851V27.679A14.851,14.851,0,0,1,27.679,12.829H469.665m0-2.829H27.679A17.679,17.679,0,0,0,10,27.679V133.756a17.679,17.679,0,0,0,17.679,17.679H469.665a17.679,17.679,0,0,0,17.679-17.679V27.679A17.679,17.679,0,0,0,469.665,10Z" transform="translate(547.359 725.359)" fill="#a6a6a6"/>
    <path id="Trazado_26" data-name="Trazado 26" d="M147.286,43.681a15.063,15.063,0,1,0,15.1,15.028,14.815,14.815,0,0,0-15.1-15.028Zm0,24.15a9.123,9.123,0,1,1,8.486-9.123,8.7,8.7,0,0,1-8.486,9.123Zm-32.954-24.15a15.063,15.063,0,1,0,15.1,15.028,14.815,14.815,0,0,0-15.1-15.028Zm0,24.15a9.123,9.123,0,1,1,8.486-9.123,8.7,8.7,0,0,1-8.486,9.123ZM75.154,48.313v6.365H90.429A13.33,13.33,0,0,1,86.893,62.7a15.629,15.629,0,0,1-11.81,4.667,16.972,16.972,0,0,1,0-33.945,16.407,16.407,0,0,1,11.6,4.561L91.172,33.5a22.276,22.276,0,0,0-16.018-6.435,23.372,23.372,0,1,0,0,46.709,21.463,21.463,0,0,0,16.3-6.541,21.215,21.215,0,0,0,5.516-14.957,22.169,22.169,0,0,0-.318-3.96Zm160.211,4.95a13.893,13.893,0,0,0-27.014,5.445,14.957,14.957,0,0,0,27.438,8.38l-5.127-3.536a8.521,8.521,0,0,1-7.39,4.137,7.6,7.6,0,0,1-7.284-4.561l20.119-8.309Zm-20.508,5.021a8.274,8.274,0,0,1,7.885-8.8,5.8,5.8,0,0,1,5.551,3.218ZM198.521,72.852h6.612v-44.2h-6.612ZM187.7,47.04h-.247a10.4,10.4,0,0,0-7.92-3.536,15.063,15.063,0,0,0,0,30.09,10.183,10.183,0,0,0,7.92-3.536h.247v2.157c0,5.764-3.076,8.84-8.026,8.84a8.345,8.345,0,0,1-7.6-5.339l-5.728,2.369A14.143,14.143,0,0,0,179.675,87c7.744,0,14.144-4.561,14.144-15.664V44.565H187.7Zm-7.6,20.791a9.123,9.123,0,0,1,0-18.21,8.451,8.451,0,0,1,8.062,9.087,8.415,8.415,0,0,1-8.062,9.123Zm86.24-39.178H250.5v44.2h6.612V56.092h9.229a13.755,13.755,0,1,0,0-27.438Zm0,21.215h-9.229V34.806h9.37a7.567,7.567,0,0,1,0,15.134Zm40.8-6.329a12.34,12.34,0,0,0-11.775,6.754l5.834,2.44a6.294,6.294,0,0,1,6.046-3.218,6.365,6.365,0,0,1,7.072,5.693v.424a14.78,14.78,0,0,0-6.895-1.7c-6.294,0-12.729,3.536-12.729,9.971a10.219,10.219,0,0,0,11,9.724,9.37,9.37,0,0,0,8.415-4.314h.212v3.536h6.365V55.845c0-7.744-5.87-12.234-13.4-12.234Zm-.813,24.221c-2.157,0-5.162-1.1-5.162-3.748,0-3.536,3.748-4.738,7.072-4.738a11.739,11.739,0,0,1,6.011,1.485,7.991,7.991,0,0,1-7.779,7.072Zm37.551-23.2L336.315,63.73H336.1l-7.85-19.164h-7.072l11.775,26.8-6.718,14.886h6.895l18.1-41.688Zm-59.4,28.287h6.577v-44.2h-6.577Z" transform="translate(651.008 768.583)" fill="#fff"/>
    <path id="Trazado_27" data-name="Trazado 27" d="M21.643,17.718a7.072,7.072,0,0,0-1.662,4.95v78.214a6.86,6.86,0,0,0,1.662,4.95l.248.283L65.7,62.305V61.244L21.89,17.47Z" transform="translate(572.631 744.302)" fill="url(#linear-gradient)"/>
    <path id="Trazado_28" data-name="Trazado 28" d="M47.4,55.987l-14.5-14.6V40.323l14.5-14.6.318.212,17.361,9.83c4.95,2.793,4.95,7.39,0,10.219l-17.29,9.83Z" transform="translate(605.431 765.223)" fill="url(#linear-gradient-2)"/>
    <path id="Trazado_29" data-name="Trazado 29" d="M79.419,44.921,64.5,30,20.44,74.057a5.728,5.728,0,0,0,7.319.248L79.419,44.921" transform="translate(573.833 776.077)" fill="url(#linear-gradient-3)"/>
    <path id="Trazado_30" data-name="Trazado 30" d="M79.419,47.709,27.759,18.362a5.693,5.693,0,0,0-7.319.212L64.5,62.631Z" transform="translate(573.833 743.446)" fill="url(#linear-gradient-4)"/>
    <path id="Trazado_31" data-name="Trazado 31" d="M78.994,34.13,27.759,63.3a5.87,5.87,0,0,1-7.072,0h0l-.248.248h0l.248.283h0a5.87,5.87,0,0,0,7.072,0L79.419,34.448Z" transform="translate(573.833 786.55)" opacity="0.2" style="isolation: isolate"/>
    <path id="Trazado_32" data-name="Trazado 32" d="M21.57,45.9a7.072,7.072,0,0,1-1.556-4.986v.53a6.86,6.86,0,0,0,1.662,4.95l.248-.247Z" transform="translate(572.703 803.743)" opacity="0.12" style="isolation: isolate"/>
    <path id="Trazado_33" data-name="Trazado 33" d="M54.679,34.6,37,44.6l.318.318,17.361-9.83A6.188,6.188,0,0,0,58.427,30h0a6.577,6.577,0,0,1-3.748,4.6Z" transform="translate(615.828 776.077)" opacity="0.12" style="isolation: isolate"/>
    <path id="Trazado_34" data-name="Trazado 34" d="M28.951,18.838,97.866,58.016a6.577,6.577,0,0,1,3.748,4.6h0a6.188,6.188,0,0,0-3.748-5.092L28.951,18.343c-4.915-2.829-8.981-.5-8.981,5.162v.53C20.076,18.378,24.036,16.045,28.951,18.838Z" transform="translate(572.642 743.464)" fill="#fff" opacity="0.25" style="isolation: isolate"/>
    <path id="Trazado_35" data-name="Trazado 35" d="M51.28,38.223V17.008h6.506A10.608,10.608,0,0,1,65.6,19.943a10.608,10.608,0,0,1,2.935,7.673A10.608,10.608,0,0,1,65.6,35.288a10.608,10.608,0,0,1-7.814,2.935ZM54,35.606h3.783a7.991,7.991,0,0,0,5.8-2.086,7.885,7.885,0,0,0,2.157-5.9,7.39,7.39,0,0,0-7.956-7.991H54Z" transform="translate(652.04 743.102)" fill="#fff" stroke="#fff" stroke-miterlimit="10" stroke-width="0.2"/>
    <path id="Trazado_36" data-name="Trazado 36" d="M57.24,38.215V17h2.687V38.215Z" transform="translate(667.154 743.11)" fill="#fff" stroke="#fff" stroke-miterlimit="10" stroke-width="0.2"/>
    <path id="Trazado_37" data-name="Trazado 37" d="M66.405,39.012a7.956,7.956,0,0,1-4.526-1.485,7.072,7.072,0,0,1-2.9-4.243l2.51-1.025a5.658,5.658,0,0,0,1.8,2.97,4.7,4.7,0,0,0,3.112,1.2,4.95,4.95,0,0,0,3.041-.955,2.97,2.97,0,0,0,1.238-2.51,3.288,3.288,0,0,0-1.238-2.758,13.825,13.825,0,0,0-4-1.8,10.4,10.4,0,0,1-4.278-2.3,4.774,4.774,0,0,1-1.45-3.536,5.339,5.339,0,0,1,1.8-4,6.754,6.754,0,0,1,4.6-1.7,6.647,6.647,0,0,1,4.385,1.344A6.011,6.011,0,0,1,72.7,21.156l-2.475,1.025a3.536,3.536,0,0,0-1.308-1.839,4.066,4.066,0,0,0-2.723-.884,4.314,4.314,0,0,0-2.687.884,2.687,2.687,0,0,0-1.1,2.192,2.475,2.475,0,0,0,1.025,1.98A9.476,9.476,0,0,0,66.441,26a23.585,23.585,0,0,1,2.617.955,11.244,11.244,0,0,1,2.122,1.273,4.773,4.773,0,0,1,1.626,1.945,6.046,6.046,0,0,1,.566,2.723,5.869,5.869,0,0,1-.636,2.758,4.95,4.95,0,0,1-1.7,1.909,7.885,7.885,0,0,1-2.263,1.1A8.38,8.38,0,0,1,66.405,39.012Z" transform="translate(671.566 742.773)" fill="#fff" stroke="#fff" stroke-miterlimit="10" stroke-width="0.2"/>
    <path id="Trazado_38" data-name="Trazado 38" d="M66.953,38.216H64.23V17H71.3a6.647,6.647,0,0,1,4.667,1.8,6.117,6.117,0,0,1,0,9.017,6.647,6.647,0,0,1-4.667,1.8H66.953Zm0-11.209h4.561a3.536,3.536,0,0,0,2.758-1.131,3.713,3.713,0,0,0,0-5.127,3.536,3.536,0,0,0-2.758-1.131H66.953Z" transform="translate(684.88 743.109)" fill="#fff" stroke="#fff" stroke-miterlimit="10" stroke-width="0.2"/>
    <path id="Trazado_39" data-name="Trazado 39" d="M87.418,35.789a10.4,10.4,0,0,1-7.779,3.218,10.289,10.289,0,0,1-7.779-3.218,11.35,11.35,0,0,1,0-15.7,10.961,10.961,0,0,1,15.523,0,11.421,11.421,0,0,1,0,15.7ZM73.876,34.021a8.062,8.062,0,0,0,11.492,0,8.981,8.981,0,0,0,0-12.163,8.062,8.062,0,0,0-11.492,0,8.981,8.981,0,0,0,0,12.163Z" transform="translate(696.237 742.778)" fill="#fff" stroke="#fff" stroke-miterlimit="10" stroke-width="0.2"/>
    <path id="Trazado_40" data-name="Trazado 40" d="M76,38.215V17h3.324L89.649,33.513h0V17h2.723V38.215H89.507L78.9,20.925h0v17.29Z" transform="translate(714.727 743.11)" fill="#fff" stroke="#fff" stroke-miterlimit="10" stroke-width="0.2"/>
    <path id="Trazado_41" data-name="Trazado 41" d="M82,38.215V17h2.723V38.215Z" transform="translate(729.943 743.11)" fill="#fff" stroke="#fff" stroke-miterlimit="10" stroke-width="0.2"/>
    <path id="Trazado_42" data-name="Trazado 42" d="M84.1,38.215V17h7.673a6.4,6.4,0,0,1,4.314,1.627,5.41,5.41,0,0,1,1.8,4.137,4.632,4.632,0,0,1-.778,2.687,4.986,4.986,0,0,1-2.086,1.733h0a5.375,5.375,0,0,1,2.581,1.839,4.738,4.738,0,0,1,.99,3.006,5.552,5.552,0,0,1-1.909,4.314,6.4,6.4,0,0,1-4.526,1.733Zm2.723-12.128h4.95a3.289,3.289,0,0,0,2.581-5.551,3.006,3.006,0,0,0-2.369-.99H86.823Zm0,9.512H92.3a3.253,3.253,0,0,0,2.546-1.1,3.5,3.5,0,0,0-2.687-5.87H86.823Z" transform="translate(735.268 743.11)" fill="#fff" stroke="#fff" stroke-miterlimit="10" stroke-width="0.2"/>
    <path id="Trazado_43" data-name="Trazado 43" d="M89.24,38.215V17h2.687V35.6h9.193v2.617Z" transform="translate(748.302 743.11)" fill="#fff" stroke="#fff" stroke-miterlimit="10" stroke-width="0.2"/>
    <path id="Trazado_44" data-name="Trazado 44" d="M105.956,19.617H96.3v6.718h8.734v2.546H96.3V35.6h9.653v2.617H93.58V17h12.376Z" transform="translate(759.308 743.11)" fill="#fff" stroke="#fff" stroke-miterlimit="10" stroke-width="0.2"/>
    <path id="Trazado_45" data-name="Trazado 45" d="M112.711,19.617h-9.688v6.718h8.734v2.546h-8.734V35.6h9.688v2.617H100.3V17h12.411Z" transform="translate(776.349 743.11)" fill="#fff" stroke="#fff" stroke-miterlimit="10" stroke-width="0.2"/>
    <path id="Trazado_46" data-name="Trazado 46" d="M105,38.215V17h3.536l10.325,16.513h0V17h2.723V38.215h-2.864l-10.608-17.29h0v17.29Z" transform="translate(788.268 743.11)" fill="#fff" stroke="#fff" stroke-miterlimit="10" stroke-width="0.2"/>
  </g>
</svg>
