<svg xmlns="http://www.w3.org/2000/svg" width="22.872" height="17.971" viewBox="0 0 22.872 17.971"><defs><style>.a{fill:#fff;}</style></defs><g transform="translate(-32 -80)"><path class="a" d="M52.013,80H34.859A2.862,2.862,0,0,0,32,82.859V95.112a2.862,2.862,0,0,0,2.859,2.859H52.013a2.862,2.862,0,0,0,2.859-2.859V82.859A2.862,2.862,0,0,0,52.013,80Zm1.225,15.112a1.227,1.227,0,0,1-1.225,1.225H34.859a1.227,1.227,0,0,1-1.225-1.225V82.859a1.227,1.227,0,0,1,1.225-1.225H52.013a1.227,1.227,0,0,1,1.225,1.225Z"/><path class="a" d="M111.018,144.172l-6.85,5.328-6.85-5.328a.817.817,0,0,0-1,1.29l7.352,5.718a.817.817,0,0,0,1,0l7.352-5.718a.817.817,0,1,0-1-1.29Z" transform="translate(-60.732 -60.732)"/></g></svg>