<svg xmlns="http://www.w3.org/2000/svg" xmlns:xlink="http://www.w3.org/1999/xlink" width="148.841" height="102.324" viewBox="0 0 148.841 102.324"><defs><style>.a{fill:#fff;}.b{filter:url(#a);}</style><filter id="a" x="0" y="0" width="148.841" height="102.324" filterUnits="userSpaceOnUse"><feOffset dy="3" input="SourceAlpha"/><feGaussianBlur stdDeviation="3" result="b"/><feFlood flood-opacity="0.161"/><feComposite operator="in" in2="b"/><feComposite in="SourceGraphic"/></filter></defs><g transform="translate(-886.521 -988)"><g class="b" transform="matrix(1, 0, 0, 1, 886.52, 988)"><path class="a" d="M-826.344,1638.639a15.993,15.993,0,0,0-4.8,10.742l-3.9,42.326a14.135,14.135,0,0,0,14.136,14.136l84.186.91a5.1,5.1,0,0,0,.852.058,10.085,10.085,0,0,0,1.881-.183,24.86,24.86,0,0,0,4.238-1.174,31.989,31.989,0,0,0,7.521-3.669,26.846,26.846,0,0,0,6.7-6.92,50.062,50.062,0,0,0,6.1-11.865c4.852-13.422,6.513-26.692,4.2-39.748a29.58,29.58,0,0,0-3.916-10.585,16.219,16.219,0,0,0-9.29-7,65.926,65.926,0,0,0-13.838-2.549,189.636,189.636,0,0,0-28.372-.2,271.607,271.607,0,0,0-37.019,4.612,158.233,158.233,0,0,0-16.351,4.062,48.251,48.251,0,0,0-4.836,1.746,30.8,30.8,0,0,0-6.831,4.55" transform="translate(844.04 -1616.49)"/></g><path d="M-755.36,1660.674a8.544,8.544,0,0,1,1.252-.979,11.206,11.206,0,0,1,2.037-1.108c8.155-3.365,13.389.467,14.37,4.533.01.039.017.079.026.118h11.745v-.058c.006-5.86-6.437-10.744-6.437-10.744H-759.39a20.845,20.845,0,0,0-3.437,2.317l.579-2.317h-15.244l-10.95,24.653-.711-24.653h-15.416l-8.323,33.463h9.914l5.116-20.65,1.982,20.65h11.422l11.179-20.542-5.009,20.542h9.428l.672-2.781a22.844,22.844,0,0,0,2.141,2.781h29.06c5.187-2.055,9.518-6.863,10.352-11.386H-738.8c-1.9,5.631-9.891,7.856-15.3,5.606a8.225,8.225,0,0,1-2.965-1.842c-.121-.118-.236-.24-.348-.364a12.074,12.074,0,0,1-1.316-1.638C-761.623,1671.991-759.881,1664.7-755.36,1660.674Z" transform="translate(1730.565 -628.487)"/></g></svg>