<svg xmlns="http://www.w3.org/2000/svg" xmlns:xlink="http://www.w3.org/1999/xlink" width="143" height="98.56" viewBox="0 0 143 98.56">
  <defs>
    <filter id="Trazado_2280" x="0" y="0" width="143" height="98.56" filterUnits="userSpaceOnUse">
      <feOffset dy="3" input="SourceAlpha"/>
      <feGaussianBlur stdDeviation="3" result="blur"/>
      <feFlood flood-opacity="0.161"/>
      <feComposite operator="in" in2="blur"/>
      <feComposite in="SourceGraphic"/>
    </filter>
    <clipPath id="clip-path">
      <path id="Trazado_6101" data-name="Trazado 6101" d="M926.263,415.1a15.587,15.587,0,1,1-15.587-15.569A15.578,15.578,0,0,1,926.263,415.1Zm-15.587-7.229a7.229,7.229,0,1,0,7.237,7.229A7.233,7.233,0,0,0,910.676,407.874Z" transform="translate(-895.089 -399.533)" fill="none"/>
    </clipPath>
    <linearGradient id="linear-gradient" x1="0.579" y1="0.044" x2="0.268" y2="1.84" gradientUnits="objectBoundingBox">
      <stop offset="0" stop-color="#d01e4d"/>
      <stop offset="1" stop-color="#6f1d47"/>
    </linearGradient>
    <radialGradient id="radial-gradient" cx="-0.473" cy="0.166" r="3.175" gradientTransform="translate(0.108 -0.505) scale(0.329 0.47)" gradientUnits="objectBoundingBox">
      <stop offset="0.073" stop-color="#3a1021"/>
      <stop offset="0.166" stop-color="#3a1021" stop-opacity="0.843"/>
      <stop offset="0.49" stop-color="#3a1021" stop-opacity="0.38"/>
      <stop offset="0.779" stop-color="#3a1021" stop-opacity="0.098"/>
      <stop offset="1" stop-color="#3a1021" stop-opacity="0"/>
    </radialGradient>
    <clipPath id="clip-path-2">
      <path id="Trazado_6102" data-name="Trazado 6102" d="M1250.52,481.647a7.261,7.261,0,1,1-7.261-7.221A7.241,7.241,0,0,1,1250.52,481.647Zm-7.261-3.384a3.384,3.384,0,1,0,3.4,3.384A3.393,3.393,0,0,0,1243.259,478.263Z" transform="translate(-1235.998 -474.426)" fill="none"/>
    </clipPath>
    <clipPath id="clip-path-3">
      <path id="Trazado_6103" data-name="Trazado 6103" d="M1388.318,481.647a7.259,7.259,0,0,0-14.518.045c0,.015,0,.03,0,.045h0v6.226a.465.465,0,0,0,.47.459h2.986a.465.465,0,0,0,.47-.459V481.7h0v0a3.348,3.348,0,0,1,3.189-3.426,3.3,3.3,0,0,1,3.477,3.38v0h0v6.268a.465.465,0,0,0,.47.459h2.986a.465.465,0,0,0,.47-.459v-6.226h0C1388.317,481.677,1388.318,481.662,1388.318,481.647Z" transform="translate(-1373.8 -474.426)" fill="none"/>
    </clipPath>
    <clipPath id="clip-path-4">
      <path id="Trazado_6104" data-name="Trazado 6104" d="M1519.454,485.03a3.384,3.384,0,1,1,2.451-5.73.441.441,0,0,0,.582.036l2.365-1.8a.44.44,0,0,0,.067-.64,7.221,7.221,0,1,0,0,9.5.44.44,0,0,0-.068-.639l-2.366-1.8a.441.441,0,0,0-.581.036A3.4,3.4,0,0,1,1519.454,485.03Z" transform="translate(-1512.193 -474.425)" fill="none"/>
    </clipPath>
    <clipPath id="clip-path-5">
      <path id="Trazado_6105" data-name="Trazado 6105" d="M1640.671,480.289a7.17,7.17,0,0,0-6.577-5.842,7.223,7.223,0,1,0,5.238,11.587.453.453,0,0,0-.111-.656l-2.482-1.63a.459.459,0,0,0-.6.086,3.335,3.335,0,0,1-3.024,1.171,3.412,3.412,0,0,1-2.692-2h9.413c.744,0,.958-.359.958-.856A10.737,10.737,0,0,0,1640.671,480.289Zm-10.246,0a3.407,3.407,0,0,1,6.229,0Z" transform="translate(-1626.277 -474.426)" fill="none"/>
    </clipPath>
  </defs>
  <g id="Grupo_3972" data-name="Grupo 3972" transform="translate(-618 -1182.374)">
    <g transform="matrix(1, 0, 0, 1, 618, 1182.37)" filter="url(#Trazado_2280)">
      <path id="Trazado_2280-2" data-name="Trazado 2280" d="M-1095.334,1832.291a15.286,15.286,0,0,0-4.588,10.263l-3.723,40.437a13.505,13.505,0,0,0,13.505,13.505l80.427.869a4.928,4.928,0,0,0,.814.055,9.6,9.6,0,0,0,1.8-.175,23.733,23.733,0,0,0,4.049-1.122,30.52,30.52,0,0,0,7.185-3.505,25.635,25.635,0,0,0,6.4-6.611,47.842,47.842,0,0,0,5.826-11.335c4.635-12.823,6.223-25.5,4.01-37.974a28.234,28.234,0,0,0-3.74-10.112,15.5,15.5,0,0,0-8.876-6.687,63.02,63.02,0,0,0-13.22-2.435,181.43,181.43,0,0,0-27.106-.193,259.49,259.49,0,0,0-35.366,4.406,151.412,151.412,0,0,0-15.621,3.881,46.308,46.308,0,0,0-4.62,1.668,29.481,29.481,0,0,0-6.526,4.347" transform="translate(1112.65 -1810.86)" fill="#fff"/>
    </g>
    <g id="Grupo_3971" data-name="Grupo 3971" transform="translate(-255.089 815.421)">
      <g id="Grupo_3954" data-name="Grupo 3954" transform="translate(933.125 425.589)">
        <path id="Trazado_6073" data-name="Trazado 6073" d="M1236.321,634.189a.043.043,0,0,1,.046-.046h.578a.043.043,0,0,1,.046.046v3a.043.043,0,0,1-.046.045h-.578a.043.043,0,0,1-.046-.045Z" transform="translate(-1236.321 -634.047)" fill="#3a1021"/>
        <path id="Trazado_6074" data-name="Trazado 6074" d="M1248.922,643.95a.043.043,0,0,1-.045-.045v-1.265c0-.241-.114-.4-.342-.4s-.346.159-.346.4V643.9a.043.043,0,0,1-.046.045h-.546a.043.043,0,0,1-.045-.045v-2.112a.043.043,0,0,1,.045-.046h.546a.043.043,0,0,1,.046.046v.155h0a.676.676,0,0,1,.569-.25.73.73,0,0,1,.751.819V643.9a.043.043,0,0,1-.046.045Z" transform="translate(-1246.3 -640.759)" fill="#3a1021"/>
        <path id="Trazado_6075" data-name="Trazado 6075" d="M1268.8,643.659a.044.044,0,0,1,0-.064l.3-.332a.044.044,0,0,1,.064,0,1.149,1.149,0,0,0,.674.241c.232,0,.341-.086.341-.209,0-.1-.059-.168-.314-.191l-.246-.027c-.464-.046-.719-.278-.719-.674,0-.432.332-.706.906-.706a1.5,1.5,0,0,1,.892.273.049.049,0,0,1,0,.068l-.255.314a.045.045,0,0,1-.064.009,1.153,1.153,0,0,0-.6-.178c-.187,0-.278.073-.278.182s.055.159.305.182l.241.027c.519.05.733.3.733.669,0,.451-.355.756-.983.756A1.5,1.5,0,0,1,1268.8,643.659Z" transform="translate(-1265.168 -640.759)" fill="#3a1021"/>
        <path id="Trazado_6076" data-name="Trazado 6076" d="M1290.2,639.08c-.51,0-.7-.227-.7-.733v-1a.024.024,0,0,0-.027-.027h-.137a.043.043,0,0,1-.046-.046V636.9a.043.043,0,0,1,.046-.045h.137a.024.024,0,0,0,.027-.027v-.592a.043.043,0,0,1,.046-.046h.542a.043.043,0,0,1,.046.046v.592a.024.024,0,0,0,.027.027h.282a.043.043,0,0,1,.046.045v.378a.043.043,0,0,1-.046.046h-.282a.024.024,0,0,0-.027.027v.974c0,.164.055.219.2.219h.109a.043.043,0,0,1,.046.045v.451a.043.043,0,0,1-.046.045Z" transform="translate(-1283.383 -635.862)" fill="#3a1021"/>
        <path id="Trazado_6077" data-name="Trazado 6077" d="M1304.318,634.685a.043.043,0,0,1-.045-.046v-.451a.043.043,0,0,1,.045-.046h.546a.043.043,0,0,1,.045.046v.451a.043.043,0,0,1-.045.046Zm0,2.554a.043.043,0,0,1-.045-.045v-2.112a.043.043,0,0,1,.045-.046h.546a.043.043,0,0,1,.045.046v2.112a.043.043,0,0,1-.045.045Z" transform="translate(-1296.699 -634.047)" fill="#3a1021"/>
        <path id="Trazado_6078" data-name="Trazado 6078" d="M1314.576,639.08c-.51,0-.7-.227-.7-.733v-1a.024.024,0,0,0-.027-.027h-.137a.043.043,0,0,1-.045-.046V636.9a.043.043,0,0,1,.045-.045h.137a.024.024,0,0,0,.027-.027v-.592a.043.043,0,0,1,.046-.046h.542a.043.043,0,0,1,.046.046v.592a.024.024,0,0,0,.027.027h.282a.043.043,0,0,1,.046.045v.378a.043.043,0,0,1-.046.046h-.282a.024.024,0,0,0-.027.027v.974c0,.164.054.219.2.219h.109a.043.043,0,0,1,.046.045v.451a.043.043,0,0,1-.046.045Z" transform="translate(-1305.045 -635.862)" fill="#3a1021"/>
        <path id="Trazado_6079" data-name="Trazado 6079" d="M1329.805,644.35a.043.043,0,0,1-.046-.045v-.159h0a.658.658,0,0,1-.564.255.725.725,0,0,1-.742-.819v-1.388a.043.043,0,0,1,.045-.045h.546a.043.043,0,0,1,.045.045v1.266c0,.237.114.4.337.4s.337-.159.337-.4v-1.266a.043.043,0,0,1,.046-.045h.546a.043.043,0,0,1,.046.045V644.3a.043.043,0,0,1-.046.045Z" transform="translate(-1318.18 -641.159)" fill="#3a1021"/>
        <path id="Trazado_6080" data-name="Trazado 6080" d="M1350.512,639.08c-.51,0-.7-.227-.7-.733v-1a.024.024,0,0,0-.027-.027h-.137a.043.043,0,0,1-.046-.046V636.9a.043.043,0,0,1,.046-.045h.137a.024.024,0,0,0,.027-.027v-.592a.043.043,0,0,1,.046-.046h.542a.043.043,0,0,1,.045.046v.592a.024.024,0,0,0,.027.027h.282a.043.043,0,0,1,.045.045v.378a.043.043,0,0,1-.045.046h-.282a.024.024,0,0,0-.027.027v.974c0,.164.054.219.2.219h.109a.043.043,0,0,1,.045.045v.451a.043.043,0,0,1-.045.045Z" transform="translate(-1336.975 -635.862)" fill="#3a1021"/>
        <path id="Trazado_6081" data-name="Trazado 6081" d="M1363.682,643.381a1.986,1.986,0,0,1,0-1.065,1.048,1.048,0,0,1,1.912,0,1.986,1.986,0,0,1,0,1.065,1.048,1.048,0,0,1-1.912,0Zm1.3-.155a1.761,1.761,0,0,0,0-.756.365.365,0,0,0-.683,0,1.761,1.761,0,0,0,0,.756.365.365,0,0,0,.683,0Z" transform="translate(-1349.421 -640.759)" fill="#3a1021"/>
        <path id="Trazado_6082" data-name="Trazado 6082" d="M1396,637.238a.043.043,0,0,1-.045-.045v-3a.043.043,0,0,1,.045-.046h1.2a1,1,0,1,1,0,1.989h-.551a.024.024,0,0,0-.027.027v1.033a.043.043,0,0,1-.046.045Zm1.611-2.1a.406.406,0,0,0-.451-.419h-.51a.024.024,0,0,0-.027.027v.778a.024.024,0,0,0,.027.027h.51A.4.4,0,0,0,1397.609,635.14Z" transform="translate(-1378.158 -634.047)" fill="#3a1021"/>
        <path id="Trazado_6083" data-name="Trazado 6083" d="M1419.425,643.381a1.986,1.986,0,0,1,0-1.065,1.047,1.047,0,0,1,1.912,0,1.989,1.989,0,0,1,0,1.065,1.047,1.047,0,0,1-1.912,0Zm1.3-.155a1.761,1.761,0,0,0,0-.756.364.364,0,0,0-.683,0,1.755,1.755,0,0,0,0,.756.364.364,0,0,0,.683,0Z" transform="translate(-1398.95 -640.759)" fill="#3a1021"/>
        <path id="Trazado_6084" data-name="Trazado 6084" d="M1442.577,637.266c-.487,0-.682-.214-.682-.7v-2.376a.043.043,0,0,1,.045-.046h.546a.043.043,0,0,1,.046.046v2.326c0,.15.059.209.191.209h.1a.043.043,0,0,1,.045.045v.451a.043.043,0,0,1-.045.045Z" transform="translate(-1418.979 -634.047)" fill="#3a1021"/>
        <path id="Trazado_6085" data-name="Trazado 6085" d="M1454.435,634.685a.043.043,0,0,1-.046-.046v-.451a.043.043,0,0,1,.046-.046h.546a.043.043,0,0,1,.045.046v.451a.043.043,0,0,1-.045.046Zm0,2.554a.043.043,0,0,1-.046-.045v-2.112a.043.043,0,0,1,.046-.046h.546a.043.043,0,0,1,.045.046v2.112a.043.043,0,0,1-.045.045Z" transform="translate(-1430.082 -634.047)" fill="#3a1021"/>
        <path id="Trazado_6086" data-name="Trazado 6086" d="M1464.691,639.08c-.51,0-.7-.227-.7-.733v-1a.024.024,0,0,0-.027-.027h-.137a.043.043,0,0,1-.045-.046V636.9a.043.043,0,0,1,.045-.045h.137a.024.024,0,0,0,.027-.027v-.592a.043.043,0,0,1,.045-.046h.542a.043.043,0,0,1,.046.046v.592a.024.024,0,0,0,.027.027h.282a.043.043,0,0,1,.046.045v.378a.043.043,0,0,1-.046.046h-.282a.024.024,0,0,0-.027.027v.974c0,.164.055.219.2.219h.109a.043.043,0,0,1,.046.045v.451a.043.043,0,0,1-.046.045Z" transform="translate(-1438.427 -635.862)" fill="#3a1021"/>
        <path id="Trazado_6087" data-name="Trazado 6087" d="M1477.865,635.9a1.591,1.591,0,0,1-.077-.523,1.617,1.617,0,0,1,.073-.528,1.036,1.036,0,0,1,1.9,0,2.107,2.107,0,0,1,.073.678.044.044,0,0,1-.05.046h-1.333a.024.024,0,0,0-.027.027.48.48,0,0,0,.027.123.433.433,0,0,0,.455.291.709.709,0,0,0,.505-.2c.023-.018.045-.023.064,0l.3.282a.041.041,0,0,1,0,.064,1.259,1.259,0,0,1-.938.369A.935.935,0,0,1,1477.865,635.9Zm1.311-.756a.024.024,0,0,0,.027-.027.553.553,0,0,0-.023-.164.4.4,0,0,0-.738,0,.546.546,0,0,0-.023.164.024.024,0,0,0,.027.027Zm-.637-1.174c-.027,0-.041-.018-.027-.046l.35-.592a.087.087,0,0,1,.082-.046h.523c.027,0,.041.023.023.046l-.45.592a.09.09,0,0,1-.087.046Z" transform="translate(-1450.872 -633.285)" fill="#3a1021"/>
        <path id="Trazado_6088" data-name="Trazado 6088" d="M1499.376,643.377a2.077,2.077,0,0,1,0-1.056.92.92,0,0,1,.951-.624.976.976,0,0,1,.833.414.045.045,0,0,1-.009.064l-.4.259a.046.046,0,0,1-.068-.009.39.39,0,0,0-.35-.191.327.327,0,0,0-.341.237,1.761,1.761,0,0,0,0,.756.327.327,0,0,0,.341.237.39.39,0,0,0,.35-.191.046.046,0,0,1,.068-.009l.4.26a.045.045,0,0,1,.009.064.976.976,0,0,1-.833.414A.92.92,0,0,1,1499.376,643.377Z" transform="translate(-1469.994 -640.759)" fill="#3a1021"/>
        <path id="Trazado_6089" data-name="Trazado 6089" d="M1521.3,643.95a.043.043,0,0,1-.046-.045v-1.265c0-.241-.114-.4-.341-.4s-.346.159-.346.4V643.9a.043.043,0,0,1-.045.045h-.546a.043.043,0,0,1-.046-.045v-2.112a.043.043,0,0,1,.046-.046h.546a.043.043,0,0,1,.045.046v.155h0a.675.675,0,0,1,.569-.25.729.729,0,0,1,.751.819V643.9a.043.043,0,0,1-.045.045Z" transform="translate(-1488.318 -640.759)" fill="#3a1021"/>
        <path id="Trazado_6090" data-name="Trazado 6090" d="M1542.559,634.685a.043.043,0,0,1-.045-.046v-.451a.043.043,0,0,1,.045-.046h.546a.043.043,0,0,1,.046.046v.451a.043.043,0,0,1-.046.046Zm0,2.554a.043.043,0,0,1-.045-.045v-2.112a.043.043,0,0,1,.045-.046h.546a.043.043,0,0,1,.046.046v2.112a.043.043,0,0,1-.046.045Z" transform="translate(-1508.384 -634.047)" fill="#3a1021"/>
        <path id="Trazado_6091" data-name="Trazado 6091" d="M1552.464,643.377a2.081,2.081,0,0,1,0-1.056.92.92,0,0,1,.952-.624.975.975,0,0,1,.833.414.045.045,0,0,1-.009.064l-.4.259a.046.046,0,0,1-.068-.009.39.39,0,0,0-.35-.191.327.327,0,0,0-.341.237,1.766,1.766,0,0,0,0,.756.327.327,0,0,0,.341.237.39.39,0,0,0,.35-.191.046.046,0,0,1,.068-.009l.4.26a.044.044,0,0,1,.009.064.975.975,0,0,1-.833.414A.92.92,0,0,1,1552.464,643.377Z" transform="translate(-1517.164 -640.759)" fill="#3a1021"/>
        <path id="Trazado_6092" data-name="Trazado 6092" d="M1571.377,643.381a1.986,1.986,0,0,1,0-1.065,1.047,1.047,0,0,1,1.912,0,1.986,1.986,0,0,1,0,1.065,1.047,1.047,0,0,1-1.912,0Zm1.3-.155a1.766,1.766,0,0,0,0-.756.365.365,0,0,0-.683,0,1.755,1.755,0,0,0,0,.756.365.365,0,0,0,.683,0Z" transform="translate(-1533.964 -640.759)" fill="#3a1021"/>
        <path id="Trazado_6093" data-name="Trazado 6093" d="M1603.646,634.189a.043.043,0,0,1,.046-.046h.546a.085.085,0,0,1,.078.046l1.092,1.948h.023v-1.948a.043.043,0,0,1,.046-.046h.514a.043.043,0,0,1,.046.046v3a.043.043,0,0,1-.046.045h-.542a.08.08,0,0,1-.077-.045l-1.1-1.944h-.023v1.944a.043.043,0,0,1-.046.045h-.514a.043.043,0,0,1-.046-.045Z" transform="translate(-1562.701 -634.047)" fill="#3a1021"/>
        <path id="Trazado_6094" data-name="Trazado 6094" d="M1630.843,643.95a.043.043,0,0,1-.046-.045v-.146h0a.719.719,0,0,1-.605.241.656.656,0,0,1-.733-.674c0-.487.369-.71.915-.71h.391a.024.024,0,0,0,.027-.027v-.082c0-.2-.1-.3-.451-.3a.821.821,0,0,0-.492.141.036.036,0,0,1-.059-.009l-.2-.36a.044.044,0,0,1,.014-.064,1.4,1.4,0,0,1,.819-.219c.719,0,.979.246.979.8V643.9a.043.043,0,0,1-.046.045Zm-.055-.733v-.15a.024.024,0,0,0-.027-.027h-.309c-.269,0-.391.077-.391.25,0,.155.109.232.318.232C1630.652,643.522,1630.789,643.422,1630.789,643.217Z" transform="translate(-1585.634 -640.759)" fill="#3a1021"/>
        <path id="Trazado_6095" data-name="Trazado 6095" d="M1650.963,643.377a2.073,2.073,0,0,1,0-1.056.92.92,0,0,1,.951-.624.976.976,0,0,1,.833.414.045.045,0,0,1-.009.064l-.4.259a.046.046,0,0,1-.068-.009.39.39,0,0,0-.35-.191.327.327,0,0,0-.341.237,1.755,1.755,0,0,0,0,.756.327.327,0,0,0,.341.237.39.39,0,0,0,.35-.191.046.046,0,0,1,.068-.009l.4.26a.044.044,0,0,1,.009.064.976.976,0,0,1-.833.414A.92.92,0,0,1,1650.963,643.377Z" transform="translate(-1604.684 -640.759)" fill="#3a1021"/>
        <path id="Trazado_6096" data-name="Trazado 6096" d="M1671.563,634.685a.043.043,0,0,1-.045-.046v-.451a.043.043,0,0,1,.045-.046h.546a.043.043,0,0,1,.046.046v.451a.043.043,0,0,1-.046.046Zm0,2.554a.043.043,0,0,1-.045-.045v-2.112a.043.043,0,0,1,.045-.046h.546a.043.043,0,0,1,.046.046v2.112a.043.043,0,0,1-.046.045Z" transform="translate(-1623.008 -634.047)" fill="#3a1021"/>
        <path id="Trazado_6097" data-name="Trazado 6097" d="M1681.472,643.381a1.986,1.986,0,0,1,0-1.065,1.048,1.048,0,0,1,1.912,0,1.986,1.986,0,0,1,0,1.065,1.048,1.048,0,0,1-1.912,0Zm1.3-.155a1.761,1.761,0,0,0,0-.756.364.364,0,0,0-.683,0,1.755,1.755,0,0,0,0,.756.364.364,0,0,0,.683,0Z" transform="translate(-1631.787 -640.759)" fill="#3a1021"/>
        <path id="Trazado_6098" data-name="Trazado 6098" d="M1705.394,643.95a.043.043,0,0,1-.046-.045v-1.265c0-.241-.114-.4-.341-.4s-.346.159-.346.4V643.9a.043.043,0,0,1-.046.045h-.546a.043.043,0,0,1-.045-.045v-2.112a.043.043,0,0,1,.045-.046h.546a.043.043,0,0,1,.046.046v.155h0a.676.676,0,0,1,.569-.25.73.73,0,0,1,.751.819V643.9a.043.043,0,0,1-.046.045Z" transform="translate(-1651.891 -640.759)" fill="#3a1021"/>
        <path id="Trazado_6099" data-name="Trazado 6099" d="M1727.137,643.95a.043.043,0,0,1-.046-.045v-.146h0a.719.719,0,0,1-.605.241.656.656,0,0,1-.733-.674c0-.487.369-.71.915-.71h.391a.024.024,0,0,0,.028-.027v-.082c0-.2-.1-.3-.451-.3a.821.821,0,0,0-.492.141.036.036,0,0,1-.059-.009l-.2-.36a.044.044,0,0,1,.014-.064,1.4,1.4,0,0,1,.819-.219c.719,0,.979.246.979.8V643.9a.043.043,0,0,1-.045.045Zm-.055-.733v-.15a.024.024,0,0,0-.028-.027h-.309c-.269,0-.392.077-.392.25,0,.155.109.232.319.232C1726.946,643.522,1727.083,643.422,1727.083,643.217Z" transform="translate(-1671.194 -640.759)" fill="#3a1021"/>
        <path id="Trazado_6100" data-name="Trazado 6100" d="M1748.77,637.266c-.487,0-.683-.214-.683-.7v-2.376a.043.043,0,0,1,.046-.046h.546a.043.043,0,0,1,.045.046v2.326c0,.15.059.209.191.209h.1a.043.043,0,0,1,.045.045v.451a.043.043,0,0,1-.045.045Z" transform="translate(-1691.042 -634.047)" fill="#3a1021"/>
      </g>
      <g id="Grupo_3970" data-name="Grupo 3970" transform="translate(895.089 399.533)">
        <g id="Grupo_3957" data-name="Grupo 3957" transform="translate(0)">
          <g id="Grupo_3956" data-name="Grupo 3956" clip-path="url(#clip-path)">
            <g id="Grupo_3955" data-name="Grupo 3955" transform="translate(-0.463 -0.394)">
              <rect id="Rectángulo_2297" data-name="Rectángulo 2297" width="96.65" height="31.824" transform="translate(0.12)" fill="#d01e4d"/>
              <rect id="Rectángulo_2298" data-name="Rectángulo 2298" width="96.65" height="31.824" transform="translate(0.12)" fill="url(#linear-gradient)"/>
              <rect id="Rectángulo_2299" data-name="Rectángulo 2299" width="96.65" height="31.824" fill="url(#radial-gradient)"/>
            </g>
          </g>
        </g>
        <g id="Grupo_3960" data-name="Grupo 3960" transform="translate(38 8.348)">
          <g id="Grupo_3959" data-name="Grupo 3959" clip-path="url(#clip-path-2)">
            <g id="Grupo_3958" data-name="Grupo 3958" transform="translate(-38.463 -8.742)">
              <rect id="Rectángulo_2300" data-name="Rectángulo 2300" width="96.65" height="31.824" transform="translate(0.12)" fill="#d01e4d"/>
              <rect id="Rectángulo_2301" data-name="Rectángulo 2301" width="96.65" height="31.824" transform="translate(0.12)" fill="url(#linear-gradient)"/>
              <rect id="Rectángulo_2302" data-name="Rectángulo 2302" width="96.65" height="31.824" fill="url(#radial-gradient)"/>
            </g>
          </g>
        </g>
        <g id="Grupo_3963" data-name="Grupo 3963" transform="translate(53.36 8.348)">
          <g id="Grupo_3962" data-name="Grupo 3962" clip-path="url(#clip-path-3)">
            <g id="Grupo_3961" data-name="Grupo 3961" transform="translate(-53.823 -8.742)">
              <rect id="Rectángulo_2303" data-name="Rectángulo 2303" width="96.65" height="31.824" transform="translate(0.12)" fill="#d01e4d"/>
              <rect id="Rectángulo_2304" data-name="Rectángulo 2304" width="96.65" height="31.824" transform="translate(0.12)" fill="url(#linear-gradient)"/>
              <rect id="Rectángulo_2305" data-name="Rectángulo 2305" width="96.65" height="31.824" fill="url(#radial-gradient)"/>
            </g>
          </g>
        </g>
        <g id="Grupo_3966" data-name="Grupo 3966" transform="translate(68.787 8.348)">
          <g id="Grupo_3965" data-name="Grupo 3965" clip-path="url(#clip-path-4)">
            <g id="Grupo_3964" data-name="Grupo 3964" transform="translate(-69.249 -8.742)">
              <rect id="Rectángulo_2306" data-name="Rectángulo 2306" width="96.65" height="31.824" transform="translate(0.12)" fill="#d01e4d"/>
              <rect id="Rectángulo_2307" data-name="Rectángulo 2307" width="96.65" height="31.824" transform="translate(0.12)" fill="url(#linear-gradient)"/>
              <rect id="Rectángulo_2308" data-name="Rectángulo 2308" width="96.65" height="31.824" fill="url(#radial-gradient)"/>
            </g>
          </g>
        </g>
        <g id="Grupo_3969" data-name="Grupo 3969" transform="translate(81.503 8.348)">
          <g id="Grupo_3968" data-name="Grupo 3968" clip-path="url(#clip-path-5)">
            <g id="Grupo_3967" data-name="Grupo 3967" transform="translate(-81.966 -8.742)">
              <rect id="Rectángulo_2309" data-name="Rectángulo 2309" width="96.65" height="31.824" transform="translate(0.12)" fill="#d01e4d"/>
              <rect id="Rectángulo_2310" data-name="Rectángulo 2310" width="96.65" height="31.824" transform="translate(0.12)" fill="url(#linear-gradient)"/>
              <rect id="Rectángulo_2311" data-name="Rectángulo 2311" width="96.65" height="31.824" fill="url(#radial-gradient)"/>
            </g>
          </g>
        </g>
      </g>
    </g>
  </g>
</svg>
