<svg xmlns="http://www.w3.org/2000/svg" xmlns:xlink="http://www.w3.org/1999/xlink" width="142.999" height="98.56" viewBox="0 0 142.999 98.56">
  <defs>
    <filter id="Trazado_2282" x="0" y="0" width="142.999" height="98.56" filterUnits="userSpaceOnUse">
      <feOffset dy="3" input="SourceAlpha"/>
      <feGaussianBlur stdDeviation="3" result="blur"/>
      <feFlood flood-opacity="0.161"/>
      <feComposite operator="in" in2="blur"/>
      <feComposite in="SourceGraphic"/>
    </filter>
    <clipPath id="clip-path">
      <path id="Trazado_5915" data-name="Trazado 5915" d="M289.237,5013.393l-3.844-12.035q-2.133-6.674-6.973-9.116t-11.515-.305a15.541,15.541,0,0,0-2.784,1.2,10.669,10.669,0,0,0-2.439,1.844,4.754,4.754,0,0,0-3.643-.211,5.59,5.59,0,0,0-3.256,2.518,5.469,5.469,0,0,0-.268,4.264,16.482,16.482,0,0,0-13.2-1.25,16.726,16.726,0,0,0-10.889,20.932,16.558,16.558,0,0,0,31.015,1.928,6.245,6.245,0,0,0,2.763,3.5,5.331,5.331,0,0,0,4.038.029,5.027,5.027,0,0,0,3.019-2.611,6.385,6.385,0,0,0,.067-4.967l-3.9-12.209a4.061,4.061,0,0,1,7.825-2.157l3.8,11.9q.994,3.116,2.942,4.039a5.448,5.448,0,0,0,4.134.225,5.167,5.167,0,0,0,3.081-2.53Q290.233,5016.512,289.237,5013.393Zm-32.47,3.035a10.656,10.656,0,0,1-7.388,10.172,10.512,10.512,0,0,1-5.709.2l-.022-.005a10.7,10.7,0,0,1-4.1-18.917c.038-.031.075-.059.113-.087a10.585,10.585,0,0,1,12.836.019c.06.046.119.091.177.138s.132.1.2.158c.084.068.165.139.247.211.1.091.206.187.307.284q.106.1.206.2l0,0c.074.074.146.148.215.224s.143.15.21.229a10.627,10.627,0,0,1,2.667,6.207.007.007,0,0,1,0,.008c.01.108.019.218.024.329.009.139.014.276.017.416,0,.049,0,.1,0,.151Z" transform="translate(-229.645 -4990.941)" fill="none"/>
    </clipPath>
    <clipPath id="clip-path-2">
      <path id="Trazado_6047" data-name="Trazado 6047" d="M320.565,5138.1a1.969,1.969,0,0,1-.261,1.689,25.175,25.175,0,0,1-5.243,5.593,1.939,1.939,0,0,1-.648.339,1.966,1.966,0,0,1-2.355-1.04,25.138,25.138,0,0,1-2.222-7.337,1.966,1.966,0,0,1,1.375-2.17l.006,0a1.951,1.951,0,0,1,.725-.077,25.018,25.018,0,0,1,7.468,1.743A1.972,1.972,0,0,1,320.565,5138.1Z" transform="translate(-309.814 -5135.092)" fill="none"/>
    </clipPath>
  </defs>
  <g id="Grupo_3705" data-name="Grupo 3705" transform="translate(-752.142 -1182.374)">
    <g transform="matrix(1, 0, 0, 1, 752.14, 1182.37)" filter="url(#Trazado_2282)">
      <path id="Trazado_2282-2" data-name="Trazado 2282" d="M-961.112,1832.291a15.283,15.283,0,0,0-4.589,10.263l-3.722,40.437a13.505,13.505,0,0,0,13.5,13.505l80.427.869a4.912,4.912,0,0,0,.814.055,9.607,9.607,0,0,0,1.8-.175,23.758,23.758,0,0,0,4.049-1.122,30.52,30.52,0,0,0,7.185-3.505,25.65,25.65,0,0,0,6.4-6.611,47.879,47.879,0,0,0,5.826-11.335c4.635-12.823,6.222-25.5,4.01-37.974a28.235,28.235,0,0,0-3.741-10.112,15.5,15.5,0,0,0-8.875-6.687,63.031,63.031,0,0,0-13.22-2.435,181.431,181.431,0,0,0-27.106-.193,259.49,259.49,0,0,0-35.366,4.406,151.287,151.287,0,0,0-15.621,3.881,46.2,46.2,0,0,0-4.62,1.668,29.432,29.432,0,0,0-6.526,4.347" transform="translate(978.42 -1810.86)" fill="#fff"/>
    </g>
    <g id="Grupo_3901" data-name="Grupo 3901" transform="translate(622.784 -3727.144)">
      <g id="Grupo_3901-2" data-name="Grupo 3901" transform="translate(213.084 4967.946)">
        <path id="Trazado_5730" data-name="Trazado 5730" d="M517.536,5230.884l-1.505-4.008a2.506,2.506,0,0,0-.567-.88,2.618,2.618,0,1,0-4.287,1.629,2.5,2.5,0,0,0,.158,1.025l1.505,4.008a2.508,2.508,0,0,0,2.274,1.619h.079a2.51,2.51,0,0,0,2.343-3.394Z" transform="translate(-510.25 -5223.004)" fill="#8c2563"/>
      </g>
      <g id="Grupo_3902" data-name="Grupo 3902" transform="translate(225.122 4964.589)">
        <path id="Trazado_5731" data-name="Trazado 5731" d="M603.962,5203.009a5.163,5.163,0,0,0-4.745-3.365,5.131,5.131,0,0,0-4.886,6.888,5.163,5.163,0,0,0,4.745,3.365h.077a5.08,5.08,0,0,0,1.755-.312A5.132,5.132,0,0,0,603.962,5203.009Z" transform="translate(-594.018 -5199.643)" fill="#8c2563"/>
      </g>
      <g id="Grupo_3905" data-name="Grupo 3905" transform="translate(187.229 4932.892)">
        <g id="Grupo_3903" data-name="Grupo 3903" transform="translate(0 0)">
          <path id="Trazado_5732" data-name="Trazado 5732" d="M340.348,4990.877l-9.071-2.646-.955-3.817,7.889-5.351,5.539.869v6.787Z" transform="translate(-330.322 -4979.064)" fill="#8c2563"/>
        </g>
        <g id="Grupo_3904" data-name="Grupo 3904" transform="translate(35.223 29.49)">
          <path id="Trazado_5733" data-name="Trazado 5733" d="M575.436,5190.114l.882-5.831,4.382.717-.477,4.914-1.9,2.987Z" transform="translate(-575.436 -5184.283)" fill="#8c2563"/>
        </g>
      </g>
      <path id="Trazado_5734" data-name="Trazado 5734" d="M279.8,5001.638l-3.844-12.036c-1.575-4.925-4.237-8.363-7.915-10.22a14.357,14.357,0,0,0-6.532-1.5,21.157,21.157,0,0,0-6.4,1.084,17.48,17.48,0,0,0-3.116,1.342,12.606,12.606,0,0,0-1.964,1.34,6.792,6.792,0,0,0-3.785.149,7.451,7.451,0,0,0-4.3,3.356,5.918,5.918,0,0,0-.755,2.226,18.111,18.111,0,0,0-5.856-.967,19.073,19.073,0,0,0-5.809.917,18.552,18.552,0,0,0-10.866,9.153,18.308,18.308,0,0,0-1.241,14.14,18.954,18.954,0,0,0,17.9,13.045,17.869,17.869,0,0,0,14.94-7.983,5.97,5.97,0,0,0,1.926,1.494,6.224,6.224,0,0,0,2.681.59,8.915,8.915,0,0,0,2.729-.471,6.87,6.87,0,0,0,4.117-3.538,8.182,8.182,0,0,0,.187-6.4l-3.874-12.126a2.023,2.023,0,0,1,.256-1.5,2.044,2.044,0,0,1,1.232-1.008,2.328,2.328,0,0,1,.71-.12,2.166,2.166,0,0,1,2.022,1.532l3.8,11.9c.825,2.583,2.146,4.321,3.926,5.164a7.456,7.456,0,0,0,1.517.529,7.139,7.139,0,0,0,1.582.178,7.908,7.908,0,0,0,2.412-.39,7.016,7.016,0,0,0,4.159-3.42C280.575,5006.388,280.629,5004.213,279.8,5001.638Zm-35.934,3.507a8.983,8.983,0,0,1-14.173,7.33,9.084,9.084,0,0,1-1.863-1.772,8.882,8.882,0,0,1-1.925-5.558,8.981,8.981,0,1,1,17.961,0Z" transform="translate(-45.662 -45.158)" fill="#8c2563"/>
      <g id="Grupo_3908" data-name="Grupo 3908" transform="translate(172.761 4934.599)">
        <g id="Grupo_3907" data-name="Grupo 3907" transform="translate(0 0)">
          <g id="Grupo_3906" data-name="Grupo 3906" clip-path="url(#clip-path)">
            <path id="Trazado_5735" data-name="Trazado 5735" d="M269.425,5243.5l.063.013h-.062Z" transform="translate(-263.709 -5207.21)" fill="#ec7534"/>
            <path id="Trazado_5736" data-name="Trazado 5736" d="M269.425,5240.96l1.825.378h-1.762l-.062-.012Z" transform="translate(-263.709 -5205.033)" fill="#ec7534"/>
            <path id="Trazado_5737" data-name="Trazado 5737" d="M269.425,5238.418l3.587.744H271.25l-1.825-.378Z" transform="translate(-263.709 -5202.856)" fill="#ec7634"/>
            <path id="Trazado_5738" data-name="Trazado 5738" d="M269.425,5235.875l5.349,1.11h-1.762l-3.587-.744Z" transform="translate(-263.709 -5200.678)" fill="#ed7633"/>
            <path id="Trazado_5739" data-name="Trazado 5739" d="M269.425,5233.333l7.111,1.475h-1.762l-5.349-1.109Z" transform="translate(-263.709 -5198.501)" fill="#ed7733"/>
            <path id="Trazado_5740" data-name="Trazado 5740" d="M269.425,5230.791l8.874,1.84h-1.762l-7.111-1.474Z" transform="translate(-263.709 -5196.325)" fill="#ed7733"/>
            <path id="Trazado_5741" data-name="Trazado 5741" d="M269.425,5228.248l10.636,2.205H278.3l-8.874-1.839Z" transform="translate(-263.709 -5194.147)" fill="#ed7833"/>
            <path id="Trazado_5742" data-name="Trazado 5742" d="M269.425,5225.706l12.4,2.571h-1.762l-10.636-2.206Z" transform="translate(-263.709 -5191.971)" fill="#ed7832"/>
            <path id="Trazado_5743" data-name="Trazado 5743" d="M269.425,5223.164l14.16,2.936h-1.762l-12.4-2.57Z" transform="translate(-263.709 -5189.793)" fill="#ed7932"/>
            <path id="Trazado_5744" data-name="Trazado 5744" d="M269.425,5220.622l15.922,3.3h-1.762l-14.16-2.935Z" transform="translate(-263.709 -5187.618)" fill="#ed7932"/>
            <path id="Trazado_5745" data-name="Trazado 5745" d="M269.425,5218.079l17.685,3.667h-1.762l-15.922-3.3Z" transform="translate(-263.709 -5185.439)" fill="#ed7a32"/>
            <path id="Trazado_5746" data-name="Trazado 5746" d="M269.425,5215.537l19.447,4.032H287.11l-17.685-3.666Z" transform="translate(-263.709 -5183.263)" fill="#ed7a31"/>
            <path id="Trazado_5747" data-name="Trazado 5747" d="M269.425,5212.995l20.3,4.208-.039.189h-.812l-19.447-4.031Z" transform="translate(-263.709 -5181.086)" fill="#ed7b31"/>
            <path id="Trazado_5748" data-name="Trazado 5748" d="M269.425,5210.452l20.37,4.223-.073.351-20.3-4.208Z" transform="translate(-263.709 -5178.909)" fill="#ed7b31"/>
            <path id="Trazado_5749" data-name="Trazado 5749" d="M269.425,5207.91l20.443,4.238-.073.35-20.37-4.223Z" transform="translate(-263.709 -5176.732)" fill="#ed7c31"/>
            <path id="Trazado_5750" data-name="Trazado 5750" d="M269.425,5205.367l20.515,4.253-.073.351-20.443-4.239Z" transform="translate(-263.709 -5174.555)" fill="#ee7c30"/>
            <path id="Trazado_5751" data-name="Trazado 5751" d="M269.425,5202.825l20.588,4.268-.073.351-20.515-4.253Z" transform="translate(-263.709 -5172.377)" fill="#ee7d30"/>
            <path id="Trazado_5752" data-name="Trazado 5752" d="M269.425,5200.282l20.661,4.284-.073.35-20.588-4.268Z" transform="translate(-263.709 -5170.2)" fill="#ee7d30"/>
            <path id="Trazado_5753" data-name="Trazado 5753" d="M269.425,5197.74l20.733,4.3-.073.351-20.661-4.283Z" transform="translate(-263.709 -5168.023)" fill="#ee7e30"/>
            <path id="Trazado_5754" data-name="Trazado 5754" d="M269.425,5195.2l20.806,4.313-.073.35-20.733-4.3Z" transform="translate(-263.709 -5165.846)" fill="#ee7e2f"/>
            <path id="Trazado_5755" data-name="Trazado 5755" d="M269.425,5192.656l20.878,4.328-.073.351-20.806-4.314Z" transform="translate(-263.709 -5163.67)" fill="#ee7f2f"/>
            <path id="Trazado_5756" data-name="Trazado 5756" d="M269.425,5190.113l20.951,4.344-.073.35-20.878-4.328Z" transform="translate(-263.709 -5161.493)" fill="#ee7f2f"/>
            <path id="Trazado_5757" data-name="Trazado 5757" d="M269.425,5187.571l21.024,4.359-.073.351-20.951-4.344Z" transform="translate(-263.709 -5159.315)" fill="#ee802f"/>
            <path id="Trazado_5758" data-name="Trazado 5758" d="M269.425,5185.028l21.1,4.374-.073.35-21.024-4.358Z" transform="translate(-263.709 -5157.138)" fill="#ee802f"/>
            <path id="Trazado_5759" data-name="Trazado 5759" d="M269.425,5182.486l21.169,4.388-.073.351-21.1-4.374Z" transform="translate(-263.709 -5154.962)" fill="#ee812e"/>
            <path id="Trazado_5760" data-name="Trazado 5760" d="M269.425,5179.944l21.242,4.4-.073.351-21.169-4.389Z" transform="translate(-263.709 -5152.785)" fill="#ee812e"/>
            <path id="Trazado_5761" data-name="Trazado 5761" d="M269.425,5177.4l21.314,4.419-.073.351-21.242-4.4Z" transform="translate(-263.709 -5150.607)" fill="#ee822e"/>
            <path id="Trazado_5762" data-name="Trazado 5762" d="M269.425,5174.859l21.387,4.434-.073.351-21.314-4.419Z" transform="translate(-263.709 -5148.43)" fill="#ee832e"/>
            <path id="Trazado_5763" data-name="Trazado 5763" d="M269.425,5172.316l21.406,4.438v.268l-.019.094-21.387-4.435Z" transform="translate(-263.709 -5146.253)" fill="#ef832d"/>
            <path id="Trazado_5764" data-name="Trazado 5764" d="M269.425,5169.774l21.406,4.438v.365l-21.406-4.438Z" transform="translate(-263.709 -5144.076)" fill="#ef842d"/>
            <path id="Trazado_5765" data-name="Trazado 5765" d="M269.425,5167.231l21.406,4.438v.365l-21.406-4.438Z" transform="translate(-263.709 -5141.899)" fill="#ef842d"/>
            <path id="Trazado_5766" data-name="Trazado 5766" d="M269.425,5164.689l21.406,4.438v.366l-21.406-4.438Z" transform="translate(-263.709 -5139.722)" fill="#ef852d"/>
            <path id="Trazado_5767" data-name="Trazado 5767" d="M269.425,5162.147l21.406,4.438v.366l-21.406-4.438Z" transform="translate(-263.709 -5137.545)" fill="#ef852c"/>
            <path id="Trazado_5768" data-name="Trazado 5768" d="M269.425,5159.6l21.406,4.438v.365l-21.406-4.438Z" transform="translate(-263.709 -5135.369)" fill="#ef862c"/>
            <path id="Trazado_5769" data-name="Trazado 5769" d="M269.425,5157.063l21.406,4.438v.366l-21.406-4.438Z" transform="translate(-263.709 -5133.191)" fill="#ef862c"/>
            <path id="Trazado_5770" data-name="Trazado 5770" d="M269.425,5154.52l21.406,4.438v.366l-21.406-4.438Z" transform="translate(-263.709 -5131.014)" fill="#ef872c"/>
            <path id="Trazado_5771" data-name="Trazado 5771" d="M269.425,5151.978l21.406,4.438v.366l-21.406-4.438Z" transform="translate(-263.709 -5128.837)" fill="#ef872b"/>
            <path id="Trazado_5772" data-name="Trazado 5772" d="M269.425,5149.436l21.406,4.438v.366l-21.406-4.438Z" transform="translate(-263.709 -5126.66)" fill="#ef882b"/>
            <path id="Trazado_5773" data-name="Trazado 5773" d="M269.425,5146.893l21.406,4.438v.365l-21.406-4.437Z" transform="translate(-263.709 -5124.483)" fill="#ef882b"/>
            <path id="Trazado_5774" data-name="Trazado 5774" d="M269.425,5144.351l21.406,4.438v.365l-21.406-4.438Z" transform="translate(-263.709 -5122.306)" fill="#ef892b"/>
            <path id="Trazado_5775" data-name="Trazado 5775" d="M269.425,5141.809l21.406,4.438v.365l-21.406-4.438Z" transform="translate(-263.709 -5120.129)" fill="#f0892a"/>
            <path id="Trazado_5776" data-name="Trazado 5776" d="M269.425,5139.266l21.406,4.438v.365l-21.406-4.437Z" transform="translate(-263.709 -5117.952)" fill="#f08a2a"/>
            <path id="Trazado_5777" data-name="Trazado 5777" d="M269.425,5137.061l.054-.26,21.352,4.427v.365l-21.406-4.438Z" transform="translate(-263.709 -5115.841)" fill="#f08a2a"/>
            <path id="Trazado_5778" data-name="Trazado 5778" d="M269.8,5134.714l.073-.351,21.28,4.412v.365Z" transform="translate(-264.029 -5113.753)" fill="#f08b2a"/>
            <path id="Trazado_5779" data-name="Trazado 5779" d="M270.3,5132.276l.073-.351,21.207,4.4v.365Z" transform="translate(-264.462 -5111.666)" fill="#f08b29"/>
            <path id="Trazado_5780" data-name="Trazado 5780" d="M270.81,5129.839l.073-.351,21.134,4.382v.365Z" transform="translate(-264.895 -5109.579)" fill="#f08c29"/>
            <path id="Trazado_5781" data-name="Trazado 5781" d="M271.315,5127.4l.073-.35,21.062,4.366v.366Z" transform="translate(-265.327 -5107.492)" fill="#f08c29"/>
            <path id="Trazado_5782" data-name="Trazado 5782" d="M271.821,5124.964l.073-.351,20.989,4.352v.366Z" transform="translate(-265.76 -5105.405)" fill="#f08d29"/>
            <path id="Trazado_5783" data-name="Trazado 5783" d="M272.326,5122.526l.073-.351,20.917,4.336v.366Z" transform="translate(-266.193 -5103.317)" fill="#f08d29"/>
            <path id="Trazado_5784" data-name="Trazado 5784" d="M272.831,5120.088l.073-.35,20.844,4.321v.366Z" transform="translate(-266.626 -5101.23)" fill="#f08e28"/>
            <path id="Trazado_5785" data-name="Trazado 5785" d="M273.337,5117.651l.073-.35,20.771,4.306v.366Z" transform="translate(-267.058 -5099.143)" fill="#f08e28"/>
            <path id="Trazado_5786" data-name="Trazado 5786" d="M273.842,5115.213l.073-.351,20.7,4.292v.366Z" transform="translate(-267.491 -5097.055)" fill="#f08f28"/>
            <path id="Trazado_5787" data-name="Trazado 5787" d="M274.348,5112.775l.073-.351,20.626,4.277v.365Z" transform="translate(-267.924 -5094.968)" fill="#f08f28"/>
            <path id="Trazado_5788" data-name="Trazado 5788" d="M274.853,5110.338l.073-.351,20.554,4.261v.366Z" transform="translate(-268.357 -5092.88)" fill="#f19027"/>
            <path id="Trazado_5789" data-name="Trazado 5789" d="M275.358,5107.9l.073-.351,20.481,4.247v.366Z" transform="translate(-268.789 -5090.793)" fill="#f19027"/>
            <path id="Trazado_5790" data-name="Trazado 5790" d="M275.864,5105.463l.073-.351,20.408,4.231v.365Z" transform="translate(-269.222 -5088.707)" fill="#f19127"/>
            <path id="Trazado_5791" data-name="Trazado 5791" d="M276.369,5103.026l.073-.351,20.336,4.216v.366Z" transform="translate(-269.655 -5086.619)" fill="#f19127"/>
            <path id="Trazado_5792" data-name="Trazado 5792" d="M276.874,5100.587l.073-.35,20.263,4.2v.365Z" transform="translate(-270.087 -5084.532)" fill="#f19226"/>
            <path id="Trazado_5793" data-name="Trazado 5793" d="M277.38,5098.15l.073-.35,20.19,4.186v.366Z" transform="translate(-270.52 -5082.445)" fill="#f19226"/>
            <path id="Trazado_5794" data-name="Trazado 5794" d="M277.885,5095.712l.073-.35,20.118,4.171v.366Z" transform="translate(-270.953 -5080.357)" fill="#f19326"/>
            <path id="Trazado_5795" data-name="Trazado 5795" d="M278.39,5093.275l.073-.351,20.045,4.156v.366Z" transform="translate(-271.386 -5078.27)" fill="#f19326"/>
            <path id="Trazado_5796" data-name="Trazado 5796" d="M278.9,5090.837l.073-.351,19.973,4.141v.366Z" transform="translate(-271.818 -5076.181)" fill="#f19425"/>
            <path id="Trazado_5797" data-name="Trazado 5797" d="M279.4,5089.295l.041-.2h.756l19.175,3.976v.366Z" transform="translate(-272.251 -5074.99)" fill="#f19525"/>
            <path id="Trazado_5798" data-name="Trazado 5798" d="M286.711,5089.095l17.413,3.61v.365l-19.175-3.976Z" transform="translate(-277.002 -5074.99)" fill="#f19525"/>
            <path id="Trazado_5799" data-name="Trazado 5799" d="M298.974,5089.095l15.651,3.245v.365l-17.413-3.61Z" transform="translate(-287.503 -5074.99)" fill="#f19625"/>
            <path id="Trazado_5800" data-name="Trazado 5800" d="M311.237,5089.095l13.889,2.88v.365l-15.651-3.245Z" transform="translate(-298.003 -5074.99)" fill="#f29624"/>
            <path id="Trazado_5801" data-name="Trazado 5801" d="M323.5,5089.095l12.127,2.514v.366l-13.889-2.88Z" transform="translate(-308.504 -5074.99)" fill="#f29724"/>
            <path id="Trazado_5802" data-name="Trazado 5802" d="M335.763,5089.095l10.364,2.149v.365L334,5089.095Z" transform="translate(-319.005 -5074.99)" fill="#f29724"/>
            <path id="Trazado_5803" data-name="Trazado 5803" d="M348.027,5089.095l8.6,1.784v.366l-10.364-2.149Z" transform="translate(-329.506 -5074.99)" fill="#f29824"/>
            <path id="Trazado_5804" data-name="Trazado 5804" d="M360.29,5089.095l6.84,1.418v.365l-8.6-1.784Z" transform="translate(-340.007 -5074.99)" fill="#f29823"/>
            <path id="Trazado_5805" data-name="Trazado 5805" d="M372.553,5089.095l5.078,1.053v.366l-6.84-1.418Z" transform="translate(-350.508 -5074.99)" fill="#f29923"/>
            <path id="Trazado_5806" data-name="Trazado 5806" d="M384.816,5089.095l3.316.688v.365l-5.078-1.053Z" transform="translate(-361.009 -5074.99)" fill="#f29923"/>
            <path id="Trazado_5807" data-name="Trazado 5807" d="M397.079,5089.095l1.553.323v.365l-3.316-.688Z" transform="translate(-371.51 -5074.99)" fill="#f29a23"/>
            <path id="Trazado_5808" data-name="Trazado 5808" d="M409.133,5089.417l-1.553-.323h1.553Z" transform="translate(-382.011 -5074.99)" fill="#f29a23"/>
            <path id="Trazado_5809" data-name="Trazado 5809" d="M215.643,5295.911l1.1.228h-1.1Z" transform="translate(-217.655 -5252.087)" fill="#ea683a"/>
            <path id="Trazado_5810" data-name="Trazado 5810" d="M215.643,5293.369l2.859.593H216.74l-1.1-.228Z" transform="translate(-217.655 -5249.91)" fill="#ea683a"/>
            <path id="Trazado_5811" data-name="Trazado 5811" d="M215.643,5290.826l4.621.958H218.5l-2.859-.592Z" transform="translate(-217.655 -5247.733)" fill="#ea693a"/>
            <path id="Trazado_5812" data-name="Trazado 5812" d="M215.643,5288.285l6.384,1.324h-1.762l-4.621-.958Z" transform="translate(-217.655 -5245.557)" fill="#eb6939"/>
            <path id="Trazado_5813" data-name="Trazado 5813" d="M215.643,5285.742l8.146,1.689h-1.762l-6.384-1.324Z" transform="translate(-217.655 -5243.379)" fill="#eb6a39"/>
            <path id="Trazado_5814" data-name="Trazado 5814" d="M215.643,5283.2l9.908,2.053h-1.762l-8.146-1.688Z" transform="translate(-217.655 -5241.203)" fill="#eb6a39"/>
            <path id="Trazado_5815" data-name="Trazado 5815" d="M215.643,5280.657l11.67,2.419h-1.762l-9.908-2.054Z" transform="translate(-217.655 -5239.026)" fill="#eb6b39"/>
            <path id="Trazado_5816" data-name="Trazado 5816" d="M215.643,5278.115l13.432,2.786h-1.762l-11.67-2.42Z" transform="translate(-217.655 -5236.849)" fill="#eb6b38"/>
            <path id="Trazado_5817" data-name="Trazado 5817" d="M215.643,5275.573l15.195,3.15h-1.762l-13.432-2.785Z" transform="translate(-217.655 -5234.671)" fill="#eb6c38"/>
            <path id="Trazado_5818" data-name="Trazado 5818" d="M215.643,5273.03l16.957,3.515h-1.762l-15.195-3.149Z" transform="translate(-217.655 -5232.494)" fill="#eb6c38"/>
            <path id="Trazado_5819" data-name="Trazado 5819" d="M215.643,5270.488l18.719,3.881H232.6l-16.957-3.516Z" transform="translate(-217.655 -5230.318)" fill="#eb6d38"/>
            <path id="Trazado_5820" data-name="Trazado 5820" d="M215.643,5267.946l20.481,4.247h-1.762l-18.719-3.88Z" transform="translate(-217.655 -5228.14)" fill="#eb6d37"/>
            <path id="Trazado_5821" data-name="Trazado 5821" d="M215.643,5265.4l22.244,4.611h-1.762l-20.481-4.246Z" transform="translate(-217.655 -5225.963)" fill="#eb6e37"/>
            <path id="Trazado_5822" data-name="Trazado 5822" d="M215.643,5262.86l24.006,4.978h-1.762l-22.244-4.611Z" transform="translate(-217.655 -5223.786)" fill="#eb6e37"/>
            <path id="Trazado_5823" data-name="Trazado 5823" d="M215.643,5260.318l25.768,5.342h-1.762l-24.006-4.977Z" transform="translate(-217.655 -5221.609)" fill="#eb6f37"/>
            <path id="Trazado_5824" data-name="Trazado 5824" d="M215.643,5257.776l27.53,5.708h-1.762l-25.768-5.342Z" transform="translate(-217.655 -5219.432)" fill="#ec6f36"/>
            <path id="Trazado_5825" data-name="Trazado 5825" d="M215.643,5255.233l29.292,6.073h-1.762l-27.53-5.708Z" transform="translate(-217.655 -5217.254)" fill="#ec7036"/>
            <path id="Trazado_5826" data-name="Trazado 5826" d="M215.643,5252.691l31.055,6.438h-1.762l-29.292-6.073Z" transform="translate(-217.655 -5215.079)" fill="#ec7136"/>
            <path id="Trazado_5827" data-name="Trazado 5827" d="M215.643,5250.149l32.817,6.8H246.7l-31.055-6.439Z" transform="translate(-217.655 -5212.901)" fill="#ec7136"/>
            <path id="Trazado_5828" data-name="Trazado 5828" d="M215.643,5247.607l34.579,7.169H248.46l-32.817-6.8Z" transform="translate(-217.655 -5210.725)" fill="#ec7235"/>
            <path id="Trazado_5829" data-name="Trazado 5829" d="M215.643,5245.064l36.341,7.534h-1.762l-34.579-7.169Z" transform="translate(-217.655 -5208.547)" fill="#ec7235"/>
            <path id="Trazado_5830" data-name="Trazado 5830" d="M215.643,5242.522l38.1,7.9h-1.762l-36.341-7.534Z" transform="translate(-217.655 -5206.37)" fill="#ec7335"/>
            <path id="Trazado_5831" data-name="Trazado 5831" d="M215.643,5239.98l39.866,8.265h-1.762l-38.1-7.9Z" transform="translate(-217.655 -5204.194)" fill="#ec7335"/>
            <path id="Trazado_5832" data-name="Trazado 5832" d="M215.643,5237.438l41.628,8.63h-1.762l-39.866-8.264Z" transform="translate(-217.655 -5202.016)" fill="#ec7435"/>
            <path id="Trazado_5833" data-name="Trazado 5833" d="M215.643,5234.9l43.39,9h-1.762l-41.628-8.629Z" transform="translate(-217.655 -5199.839)" fill="#ec7434"/>
            <path id="Trazado_5834" data-name="Trazado 5834" d="M215.643,5232.352l45.152,9.362h-1.762l-43.39-9Z" transform="translate(-217.655 -5197.662)" fill="#ec7534"/>
            <path id="Trazado_5835" data-name="Trazado 5835" d="M215.643,5229.81l46.914,9.727H260.8l-45.152-9.361Z" transform="translate(-217.655 -5195.484)" fill="#ec7534"/>
            <path id="Trazado_5836" data-name="Trazado 5836" d="M215.643,5227.268l48.677,10.091h-1.762l-46.914-9.726Z" transform="translate(-217.655 -5193.308)" fill="#ec7634"/>
            <path id="Trazado_5837" data-name="Trazado 5837" d="M215.643,5224.725l50.439,10.458H264.32l-48.677-10.091Z" transform="translate(-217.655 -5191.13)" fill="#ed7633"/>
            <path id="Trazado_5838" data-name="Trazado 5838" d="M215.643,5222.183l52.2,10.822h-1.762l-50.439-10.457Z" transform="translate(-217.655 -5188.954)" fill="#ed7733"/>
            <path id="Trazado_5839" data-name="Trazado 5839" d="M215.643,5219.642l53.963,11.187h-1.762l-52.2-10.822Z" transform="translate(-217.655 -5186.778)" fill="#ed7733"/>
            <path id="Trazado_5840" data-name="Trazado 5840" d="M215.643,5217.1l55.725,11.553h-1.762l-53.963-11.187Z" transform="translate(-217.655 -5184.6)" fill="#ed7833"/>
            <path id="Trazado_5841" data-name="Trazado 5841" d="M215.643,5214.556l57.488,11.918h-1.762l-55.725-11.553Z" transform="translate(-217.655 -5182.422)" fill="#ed7832"/>
            <path id="Trazado_5842" data-name="Trazado 5842" d="M215.643,5212.014l58.736,12.177-.022.106h-1.226l-57.488-11.918Z" transform="translate(-217.655 -5180.246)" fill="#ed7932"/>
            <path id="Trazado_5843" data-name="Trazado 5843" d="M215.643,5209.472l58.809,12.192-.073.351-58.736-12.177Z" transform="translate(-217.655 -5178.069)" fill="#ed7932"/>
            <path id="Trazado_5844" data-name="Trazado 5844" d="M215.643,5206.93l58.881,12.207-.073.35L215.643,5207.3Z" transform="translate(-217.655 -5175.892)" fill="#ed7a32"/>
            <path id="Trazado_5845" data-name="Trazado 5845" d="M215.643,5204.387l58.954,12.222-.073.351-58.881-12.207Z" transform="translate(-217.655 -5173.715)" fill="#ed7a31"/>
            <path id="Trazado_5846" data-name="Trazado 5846" d="M215.643,5201.845l59.026,12.237-.073.351-58.954-12.222Z" transform="translate(-217.655 -5171.539)" fill="#ed7b31"/>
            <path id="Trazado_5847" data-name="Trazado 5847" d="M215.643,5199.3l59.1,12.251-.073.351-59.026-12.237Z" transform="translate(-217.655 -5169.361)" fill="#ed7b31"/>
            <path id="Trazado_5848" data-name="Trazado 5848" d="M215.643,5196.759l59.172,12.268-.073.35-59.1-12.252Z" transform="translate(-217.655 -5167.184)" fill="#ed7c31"/>
            <path id="Trazado_5849" data-name="Trazado 5849" d="M215.643,5194.217l59.244,12.283-.073.351-59.172-12.267Z" transform="translate(-217.655 -5165.006)" fill="#ee7c30"/>
            <path id="Trazado_5850" data-name="Trazado 5850" d="M215.643,5191.674l59.317,12.3-.073.35-59.244-12.282Z" transform="translate(-217.655 -5162.829)" fill="#ee7d30"/>
            <path id="Trazado_5851" data-name="Trazado 5851" d="M215.643,5189.133l59.39,12.312-.073.351-59.317-12.3Z" transform="translate(-217.655 -5160.653)" fill="#ee7d30"/>
            <path id="Trazado_5852" data-name="Trazado 5852" d="M215.643,5186.591l59.462,12.327-.073.351-59.39-12.312Z" transform="translate(-217.655 -5158.476)" fill="#ee7e30"/>
            <path id="Trazado_5853" data-name="Trazado 5853" d="M215.643,5184.048l59.535,12.342-.073.351-59.462-12.328Z" transform="translate(-217.655 -5156.298)" fill="#ee7e2f"/>
            <path id="Trazado_5854" data-name="Trazado 5854" d="M215.643,5181.506l59.607,12.357-.073.351-59.535-12.343Z" transform="translate(-217.655 -5154.122)" fill="#ee7f2f"/>
            <path id="Trazado_5855" data-name="Trazado 5855" d="M215.643,5178.964l59.68,12.372-.073.351-59.607-12.358Z" transform="translate(-217.655 -5151.945)" fill="#ee7f2f"/>
            <path id="Trazado_5856" data-name="Trazado 5856" d="M215.643,5176.421l59.753,12.388-.073.351-59.68-12.373Z" transform="translate(-217.655 -5149.768)" fill="#ee802f"/>
            <path id="Trazado_5857" data-name="Trazado 5857" d="M215.643,5173.878l59.825,12.4-.073.351-59.753-12.388Z" transform="translate(-217.655 -5147.591)" fill="#ee802f"/>
            <path id="Trazado_5858" data-name="Trazado 5858" d="M215.643,5171.337l59.9,12.417-.073.351-59.825-12.4Z" transform="translate(-217.655 -5145.415)" fill="#ee812e"/>
            <path id="Trazado_5859" data-name="Trazado 5859" d="M215.643,5168.794l59.971,12.433-.073.351-59.9-12.418Z" transform="translate(-217.655 -5143.237)" fill="#ee812e"/>
            <path id="Trazado_5860" data-name="Trazado 5860" d="M215.643,5166.251l60.043,12.448-.073.351-59.971-12.434Z" transform="translate(-217.655 -5141.06)" fill="#ee822e"/>
            <path id="Trazado_5861" data-name="Trazado 5861" d="M215.643,5163.708l60.116,12.464-.073.35-60.043-12.448Z" transform="translate(-217.655 -5138.882)" fill="#ee832e"/>
            <path id="Trazado_5862" data-name="Trazado 5862" d="M215.643,5161.167l60.188,12.478-.073.351-60.116-12.463Z" transform="translate(-217.655 -5136.705)" fill="#ef832d"/>
            <path id="Trazado_5863" data-name="Trazado 5863" d="M215.643,5158.625l60.261,12.493-.073.35-60.188-12.478Z" transform="translate(-217.655 -5134.529)" fill="#ef842d"/>
            <path id="Trazado_5864" data-name="Trazado 5864" d="M215.643,5156.082l60.334,12.508-.073.35-60.261-12.493Z" transform="translate(-217.655 -5132.351)" fill="#ef842d"/>
            <path id="Trazado_5865" data-name="Trazado 5865" d="M215.643,5153.54l60.406,12.523-.073.35L215.643,5153.9Z" transform="translate(-217.655 -5130.174)" fill="#ef852d"/>
            <path id="Trazado_5866" data-name="Trazado 5866" d="M215.643,5151l60.479,12.539-.073.35-60.406-12.523Z" transform="translate(-217.655 -5127.998)" fill="#ef852c"/>
            <path id="Trazado_5867" data-name="Trazado 5867" d="M215.643,5148.455l60.551,12.553-.073.351-60.479-12.539Z" transform="translate(-217.655 -5125.82)" fill="#ef862c"/>
            <path id="Trazado_5868" data-name="Trazado 5868" d="M215.643,5145.913l60.624,12.567-.073.351-60.551-12.554Z" transform="translate(-217.655 -5123.644)" fill="#ef862c"/>
            <path id="Trazado_5869" data-name="Trazado 5869" d="M215.643,5143.37l60.7,12.583-.073.351-60.624-12.568Z" transform="translate(-217.655 -5121.466)" fill="#ef872c"/>
            <path id="Trazado_5870" data-name="Trazado 5870" d="M215.643,5140.828l60.769,12.6-.073.351-60.7-12.583Z" transform="translate(-217.655 -5119.29)" fill="#ef872b"/>
            <path id="Trazado_5871" data-name="Trazado 5871" d="M215.643,5138.286l60.842,12.614-.073.35-60.769-12.6Z" transform="translate(-217.655 -5117.113)" fill="#ef882b"/>
            <path id="Trazado_5872" data-name="Trazado 5872" d="M215.643,5135.743l60.915,12.629-.073.35-60.842-12.613Z" transform="translate(-217.655 -5114.936)" fill="#ef882b"/>
            <path id="Trazado_5873" data-name="Trazado 5873" d="M215.643,5133.64l.07-.338,60.917,12.629-.073.35-60.915-12.628Z" transform="translate(-217.655 -5112.844)" fill="#ef892b"/>
            <rect id="Rectángulo_2271" data-name="Rectángulo 2271" width="0.358" height="62.212" transform="translate(-1.942 20.457) rotate(-78.288)" fill="#f0892a"/>
            <rect id="Rectángulo_2272" data-name="Rectángulo 2272" width="0.358" height="62.212" transform="translate(-1.869 20.107) rotate(-78.288)" fill="#f08a2a"/>
            <rect id="Rectángulo_2273" data-name="Rectángulo 2273" width="0.358" height="62.212" transform="translate(-1.797 19.757) rotate(-78.288)" fill="#f08a2a"/>
            <rect id="Rectángulo_2274" data-name="Rectángulo 2274" width="0.358" height="62.212" transform="translate(-1.724 19.406) rotate(-78.288)" fill="#f08b2a"/>
            <rect id="Rectángulo_2275" data-name="Rectángulo 2275" width="0.358" height="62.212" transform="translate(-1.651 19.056) rotate(-78.288)" fill="#f08b29"/>
            <rect id="Rectángulo_2276" data-name="Rectángulo 2276" width="0.358" height="62.212" transform="translate(-1.579 18.706) rotate(-78.288)" fill="#f08c29"/>
            <rect id="Rectángulo_2277" data-name="Rectángulo 2277" width="0.358" height="62.212" transform="translate(-1.506 18.355) rotate(-78.288)" fill="#f08c29"/>
            <rect id="Rectángulo_2278" data-name="Rectángulo 2278" width="0.358" height="62.212" transform="translate(-1.434 18.005) rotate(-78.288)" fill="#f08d29"/>
            <rect id="Rectángulo_2279" data-name="Rectángulo 2279" width="0.358" height="62.212" transform="translate(-1.361 17.655) rotate(-78.288)" fill="#f08d29"/>
            <rect id="Rectángulo_2280" data-name="Rectángulo 2280" width="0.358" height="62.212" transform="translate(-1.288 17.305) rotate(-78.288)" fill="#f08e28"/>
            <rect id="Rectángulo_2281" data-name="Rectángulo 2281" width="0.358" height="62.212" transform="translate(-1.216 16.954) rotate(-78.288)" fill="#f08e28"/>
            <rect id="Rectángulo_2282" data-name="Rectángulo 2282" width="0.358" height="62.212" transform="translate(-1.143 16.604) rotate(-78.288)" fill="#f08f28"/>
            <rect id="Rectángulo_2283" data-name="Rectángulo 2283" width="0.358" height="62.212" transform="translate(-1.071 16.254) rotate(-78.288)" fill="#f08f28"/>
            <rect id="Rectángulo_2284" data-name="Rectángulo 2284" width="0.358" height="62.212" transform="translate(-0.998 15.903) rotate(-78.288)" fill="#f19027"/>
            <rect id="Rectángulo_2285" data-name="Rectángulo 2285" width="0.358" height="62.212" transform="translate(-0.925 15.553) rotate(-78.288)" fill="#f19027"/>
            <rect id="Rectángulo_2286" data-name="Rectángulo 2286" width="0.358" height="62.212" transform="translate(-0.853 15.203) rotate(-78.288)" fill="#f19127"/>
            <rect id="Rectángulo_2287" data-name="Rectángulo 2287" width="0.358" height="62.212" transform="translate(-0.78 14.853) rotate(-78.288)" fill="#f19127"/>
            <path id="Trazado_5874" data-name="Trazado 5874" d="M224.722,5089.775l.073-.351,60.892,12.624v.128l-.047.228Z" transform="translate(-225.429 -5075.273)" fill="#f19226"/>
            <path id="Trazado_5875" data-name="Trazado 5875" d="M225.227,5087.338l.073-.351,60.819,12.609v.366Z" transform="translate(-225.862 -5073.186)" fill="#f19226"/>
            <path id="Trazado_5876" data-name="Trazado 5876" d="M225.733,5084.9l.073-.351,60.747,12.594v.364Z" transform="translate(-226.295 -5071.098)" fill="#f19326"/>
            <path id="Trazado_5877" data-name="Trazado 5877" d="M226.238,5082.463l.073-.351,60.674,12.58v.364Z" transform="translate(-226.727 -5069.012)" fill="#f19326"/>
            <path id="Trazado_5878" data-name="Trazado 5878" d="M226.743,5080.025l.073-.351,60.6,12.564v.365Z" transform="translate(-227.16 -5066.924)" fill="#f19425"/>
            <path id="Trazado_5879" data-name="Trazado 5879" d="M227.249,5077.587l.073-.35,60.529,12.549v.365Z" transform="translate(-227.593 -5064.837)" fill="#f19525"/>
            <path id="Trazado_5880" data-name="Trazado 5880" d="M227.754,5075.15l.073-.35,60.456,12.534v.365Z" transform="translate(-228.026 -5062.75)" fill="#f19525"/>
            <path id="Trazado_5881" data-name="Trazado 5881" d="M228.259,5072.712l.073-.35,60.383,12.519v.365Z" transform="translate(-228.458 -5060.662)" fill="#f19625"/>
            <path id="Trazado_5882" data-name="Trazado 5882" d="M228.765,5070.275l.073-.35,60.311,12.5v.365Z" transform="translate(-228.891 -5058.575)" fill="#f29624"/>
            <path id="Trazado_5883" data-name="Trazado 5883" d="M229.27,5067.837l.073-.351,60.238,12.489v.365Z" transform="translate(-229.324 -5056.487)" fill="#f29724"/>
            <path id="Trazado_5884" data-name="Trazado 5884" d="M229.775,5065.4l.073-.35,60.166,12.473v.365Z" transform="translate(-229.757 -5054.4)" fill="#f29724"/>
            <path id="Trazado_5885" data-name="Trazado 5885" d="M230.281,5062.963l.073-.351,60.093,12.458v.365Z" transform="translate(-230.189 -5052.313)" fill="#f29824"/>
            <path id="Trazado_5886" data-name="Trazado 5886" d="M230.786,5060.525l.073-.35,60.02,12.443v.364Z" transform="translate(-230.622 -5050.226)" fill="#f29823"/>
            <path id="Trazado_5887" data-name="Trazado 5887" d="M231.291,5058.087l.073-.35,59.948,12.428v.366Z" transform="translate(-231.055 -5048.139)" fill="#f29923"/>
            <path id="Trazado_5888" data-name="Trazado 5888" d="M231.8,5055.649l.073-.35,59.875,12.412v.365Z" transform="translate(-231.488 -5046.052)" fill="#f29923"/>
            <path id="Trazado_5889" data-name="Trazado 5889" d="M232.3,5053.211l.073-.35,59.8,12.4v.366Z" transform="translate(-231.92 -5043.963)" fill="#f29a23"/>
            <path id="Trazado_5890" data-name="Trazado 5890" d="M232.807,5050.774l.073-.35,59.73,12.383v.366Z" transform="translate(-232.353 -5041.876)" fill="#f29a23"/>
            <path id="Trazado_5891" data-name="Trazado 5891" d="M233.313,5048.336l.073-.351,59.657,12.368v.366Z" transform="translate(-232.786 -5039.789)" fill="#f29b22"/>
            <path id="Trazado_5892" data-name="Trazado 5892" d="M233.818,5045.9l.073-.351,59.585,12.353v.366Z" transform="translate(-233.218 -5037.702)" fill="#f29b22"/>
            <path id="Trazado_5893" data-name="Trazado 5893" d="M234.324,5043.462l.073-.351,59.512,12.338v.366Z" transform="translate(-233.651 -5035.614)" fill="#f29c22"/>
            <path id="Trazado_5894" data-name="Trazado 5894" d="M234.829,5041.024l.073-.35L294.341,5053v.366Z" transform="translate(-234.084 -5033.527)" fill="#f29c22"/>
            <path id="Trazado_5895" data-name="Trazado 5895" d="M235.334,5038.586l.073-.35,59.367,12.307v.366Z" transform="translate(-234.517 -5031.44)" fill="#f39d21"/>
            <path id="Trazado_5896" data-name="Trazado 5896" d="M235.84,5036.148l.073-.35,59.294,12.292v.365Z" transform="translate(-234.949 -5029.353)" fill="#f39d21"/>
            <path id="Trazado_5897" data-name="Trazado 5897" d="M236.345,5033.711l.073-.35,59.222,12.278V5046Z" transform="translate(-235.382 -5027.266)" fill="#f39e21"/>
            <path id="Trazado_5898" data-name="Trazado 5898" d="M236.85,5031.273l.073-.35,59.149,12.262v.365Z" transform="translate(-235.815 -5025.178)" fill="#f39e21"/>
            <path id="Trazado_5899" data-name="Trazado 5899" d="M237.356,5028.836l.073-.35,59.076,12.247v.365Z" transform="translate(-236.248 -5023.092)" fill="#f39f20"/>
            <path id="Trazado_5900" data-name="Trazado 5900" d="M237.861,5026.4l.073-.35,59,12.232v.365Z" transform="translate(-236.68 -5021.003)" fill="#f39f20"/>
            <path id="Trazado_5901" data-name="Trazado 5901" d="M238.366,5023.961l.073-.351,58.931,12.217v.365Z" transform="translate(-237.113 -5018.916)" fill="#f3a020"/>
            <path id="Trazado_5902" data-name="Trazado 5902" d="M238.872,5021.523l.073-.351,58.858,12.2v.365Z" transform="translate(-237.546 -5016.829)" fill="#f3a020"/>
            <path id="Trazado_5903" data-name="Trazado 5903" d="M239.377,5019.086l.073-.351,58.786,12.187v.365Z" transform="translate(-237.979 -5014.742)" fill="#f3a11f"/>
            <path id="Trazado_5904" data-name="Trazado 5904" d="M239.882,5016.648l.073-.351,58.713,12.173v.365Z" transform="translate(-238.411 -5012.654)" fill="#f3a11f"/>
            <path id="Trazado_5905" data-name="Trazado 5905" d="M240.388,5014.21l.073-.35,58.641,12.157v.365Z" transform="translate(-238.844 -5010.566)" fill="#f3a21f"/>
            <path id="Trazado_5906" data-name="Trazado 5906" d="M240.893,5011.773l.073-.351,58.568,12.142v.365Z" transform="translate(-239.277 -5008.479)" fill="#f3a21f"/>
            <path id="Trazado_5907" data-name="Trazado 5907" d="M241.4,5009.335l.073-.351,58.5,12.128v.365Z" transform="translate(-239.709 -5006.392)" fill="#f4a31e"/>
            <path id="Trazado_5908" data-name="Trazado 5908" d="M241.9,5006.9l.073-.351,58.423,12.112v.365Z" transform="translate(-240.142 -5004.304)" fill="#f4a31e"/>
            <path id="Trazado_5909" data-name="Trazado 5909" d="M242.409,5004.459l.073-.351,58.35,12.1v.365Z" transform="translate(-240.575 -5002.217)" fill="#f4a41e"/>
            <path id="Trazado_5910" data-name="Trazado 5910" d="M242.915,5002.023l.073-.351,58.278,12.082v.365Z" transform="translate(-241.008 -5000.131)" fill="#f4a41e"/>
            <path id="Trazado_5911" data-name="Trazado 5911" d="M243.42,4999.585l.073-.351,58.2,12.067v.365Z" transform="translate(-241.44 -4998.043)" fill="#f4a51d"/>
            <path id="Trazado_5912" data-name="Trazado 5912" d="M243.925,4997.147l.073-.351,58.132,12.052v.366Z" transform="translate(-241.873 -4995.956)" fill="#f4a51d"/>
            <path id="Trazado_5913" data-name="Trazado 5913" d="M244.431,4994.709l.073-.35,58.06,12.037v.365Z" transform="translate(-242.306 -4993.868)" fill="#f4a61d"/>
            <path id="Trazado_5914" data-name="Trazado 5914" d="M244.936,4988.89l.19-.918H303v12.955Z" transform="translate(-242.739 -4988.398)" fill="#f4a61d"/>
          </g>
        </g>
      </g>
      <g id="Grupo_3909" data-name="Grupo 3909" transform="translate(182.667 4932.881)">
        <path id="Trazado_5916" data-name="Trazado 5916" d="M305.673,4979.383a5.1,5.1,0,0,0-1.8-.389,5.127,5.127,0,0,0-2.133,9.858,5.087,5.087,0,0,0,1.8.39l.158,0a5.127,5.127,0,0,0,1.976-9.862Z" transform="translate(-298.576 -4978.992)" fill="#8c2563"/>
      </g>
      <g id="Grupo_3910" data-name="Grupo 3910" transform="translate(178.171 4974.613)">
        <path id="Trazado_5917" data-name="Trazado 5917" d="M278.435,5272.667a2.7,2.7,0,0,0-2.307-1.676,5.1,5.1,0,0,0-3.92-1.588q-.161.007-.344.025a5.136,5.136,0,0,0-4.544,5.651,5.153,5.153,0,0,0,4.3,4.512,2.709,2.709,0,0,0,2.365,1.4h.118a2.712,2.712,0,0,0,2.372-1.647l1.943-4.606A2.68,2.68,0,0,0,278.435,5272.667Z" transform="translate(-267.289 -5269.399)" fill="#8c2563"/>
      </g>
      <g id="Grupo_3911" data-name="Grupo 3911" transform="translate(201.824 4930.757)">
        <path id="Trazado_5918" data-name="Trazado 5918" d="M436.06,4967.715a.684.684,0,0,0-.269.052.612.612,0,0,0,.2,1.181.637.637,0,0,0,.6-.38,2.03,2.03,0,0,1,.436-.628H437a1.905,1.905,0,0,1-.762-.184A.457.457,0,0,0,436.06,4967.715Z" transform="translate(-434.898 -4967.21)" fill="#8c2563"/>
        <path id="Trazado_5919" data-name="Trazado 5919" d="M433.007,4966.448h-.035a1.115,1.115,0,0,1-.371-2.153,1.183,1.183,0,0,1,.469-.087h0a.974.974,0,0,1,.366.083l.01,0a1.41,1.41,0,0,0,.562.135h.02l1.21.02-.866.845a1.521,1.521,0,0,0-.327.473l0,.009a1.143,1.143,0,0,1-1.034.669Zm.027-1.233a.363.363,0,0,0-.063.017.108.108,0,0,0,.033.208.1.1,0,0,0,.046-.009.126.126,0,0,0,.078-.077c.012-.029.025-.056.039-.083C433.122,4965.254,433.077,4965.235,433.034,4965.214Z" transform="translate(-431.894 -4964.207)" fill="#8c2563"/>
      </g>
      <g id="Grupo_3912" data-name="Grupo 3912" transform="translate(197.812 4926.754)">
        <path id="Trazado_5920" data-name="Trazado 5920" d="M413.842,4941.607a2.478,2.478,0,0,1-1.359-3.451,2.532,2.532,0,0,0-1.335-1.377,5.127,5.127,0,1,0-2.2,9.826l.156,0a5.076,5.076,0,0,0,1.874-.357,5.162,5.162,0,0,0,2.824-2.727A2.487,2.487,0,0,0,413.842,4941.607Z" transform="translate(-403.974 -4936.353)" fill="#8c2563"/>
      </g>
      <g id="Grupo_3913" data-name="Grupo 3913" transform="translate(167.595 4966.241)">
        <path id="Trazado_5921" data-name="Trazado 5921" d="M203.606,5212.211a2.619,2.619,0,0,0-4.489.46,2.48,2.48,0,0,0-.948.427l-3.455,2.527a2.508,2.508,0,0,0,1.49,4.53l.1,0a2.5,2.5,0,0,0,1.377-.481l3.455-2.528a2.508,2.508,0,0,0,.693-.78,2.622,2.622,0,0,0,1.771-4.152Z" transform="translate(-193.693 -5211.144)" fill="#8c2563"/>
      </g>
      <g id="Grupo_3914" data-name="Grupo 3914" transform="translate(170.473 4969.095)">
        <path id="Trazado_5922" data-name="Trazado 5922" d="M225.942,5233.31a2.32,2.32,0,0,0-.92-.5,2.642,2.642,0,0,0-.641-.9,3.5,3.5,0,0,0-2.662-.9l-.051,0a2.282,2.282,0,0,0-1.248.492,2.627,2.627,0,0,0-3.239,1.89,5.077,5.077,0,0,0-1.072.906l-1.749,1.947a2.516,2.516,0,0,0,.19,3.545,2.518,2.518,0,0,0,3.545-.19l1.749-1.947a.1.1,0,0,1,.071-.038.105.105,0,0,1,.08.03.107.107,0,0,1,.037.073.105.105,0,0,1-.03.078l-1.748,1.946a2.508,2.508,0,0,0,1.868,4.186c.065,0,.13,0,.195-.008h0a2.5,2.5,0,0,0,1.671-.822l1.749-1.947a5.092,5.092,0,0,0,1.3-3.7c0-.076-.01-.152-.017-.228a2.294,2.294,0,0,0,.92-3.916Z" transform="translate(-213.719 -5231.002)" fill="#8c2563"/>
      </g>
      <g id="Grupo_3915" data-name="Grupo 3915" transform="translate(186.674 4976.588)">
        <path id="Trazado_5923" data-name="Trazado 5923" d="M335.131,5287.365a2.5,2.5,0,0,0-1.819-4.07l-2.614-.143a3.635,3.635,0,0,0-.365,0,3.85,3.85,0,0,0-3.656,3.608,3.8,3.8,0,0,0,.576,2.232,2.5,2.5,0,0,0,1.58,4.331l3.049.167c.069,0,.139.006.208.006.053,0,.1,0,.157,0a3.817,3.817,0,0,0,2.883-6.124Z" transform="translate(-326.461 -5283.146)" fill="#8c2563"/>
      </g>
      <g id="Grupo_3916" data-name="Grupo 3916" transform="translate(189 4929.511)">
        <path id="Trazado_5924" data-name="Trazado 5924" d="M354.462,4961l-1.05-2.4a5.155,5.155,0,0,0-4.545-3.067,5.079,5.079,0,0,0-3.4,1.164l-.117-.007a2.623,2.623,0,0,0-1.71,4.673,5.08,5.08,0,0,0,.381,1.351l1.05,2.4a2.526,2.526,0,0,0,2.227,1.5h.08a2.467,2.467,0,0,0,1-.21,2.514,2.514,0,0,0,1.293-3.308l-1.05-2.4a.1.1,0,0,1,.055-.141.111.111,0,0,1,.049-.01.1.1,0,0,1,.091.066l1.05,2.4a2.526,2.526,0,0,0,2.227,1.5,2.474,2.474,0,0,0,1.079-.208A2.514,2.514,0,0,0,354.462,4961Z" transform="translate(-342.646 -4955.537)" fill="#8c2563"/>
      </g>
      <g id="Grupo_3917" data-name="Grupo 3917" transform="translate(204.647 4925.144)">
        <path id="Trazado_5925" data-name="Trazado 5925" d="M461.654,4929.079a5.127,5.127,0,1,0-5.143,6.317l.158,0a5.126,5.126,0,0,0,1.19-.14l.848-.2a2.513,2.513,0,0,0,1.858-3.025c-.017-.072-.038-.144-.062-.215A2.528,2.528,0,0,0,461.654,4929.079Z" transform="translate(-451.539 -4925.144)" fill="#8c2563"/>
      </g>
      <g id="Grupo_3918" data-name="Grupo 3918" transform="translate(231.838 4961.328)">
        <path id="Trazado_5926" data-name="Trazado 5926" d="M650.7,5182.1a3.824,3.824,0,0,0-1.714-1.991,2.51,2.51,0,0,0-3.306-3l-2.451.92a3.818,3.818,0,0,0-.81,6.729,2.505,2.505,0,0,0,1.8,3.439h0a2.568,2.568,0,0,0,.51.053,2.505,2.505,0,0,0,.877-.16l2.858-1.074a3.824,3.824,0,0,0,2.232-4.918Z" transform="translate(-640.755 -5176.951)" fill="#8c2563"/>
      </g>
      <g id="Grupo_3919" data-name="Grupo 3919" transform="translate(205.603 4971.305)">
        <path id="Trazado_5927" data-name="Trazado 5927" d="M469.865,5252.247l-.88-2.464a5.132,5.132,0,0,0-6.553-3.1,5.044,5.044,0,0,0-1.242.651,2.57,2.57,0,0,0-.267-.025,2.618,2.618,0,0,0-2.578,3.5,2.624,2.624,0,0,0,.7,1.054,5.059,5.059,0,0,0,.286,1.375l.88,2.464a2.506,2.506,0,0,0,2.262,1.664l.108,0a2.512,2.512,0,0,0,2.357-3.354l-.88-2.464a.1.1,0,0,1,.064-.137.116.116,0,0,1,.046-.008.1.1,0,0,1,.092.073l.88,2.464a2.5,2.5,0,0,0,2.262,1.663,2.512,2.512,0,0,0,2.465-3.352Z" transform="translate(-458.19 -5246.38)" fill="#8c2563"/>
      </g>
      <g id="Grupo_3920" data-name="Grupo 3920" transform="translate(163.216 4959.771)">
        <path id="Trazado_5928" data-name="Trazado 5928" d="M173.708,5169.679a5.039,5.039,0,0,0-.885-1.088,2.622,2.622,0,0,0-4.863-1.206,5.042,5.042,0,0,0-1.29.553l-2.24,1.352a2.51,2.51,0,0,0,2.594,4.3l2.24-1.352a.108.108,0,0,1,.053-.017.1.1,0,0,1,.094.053.107.107,0,0,1,.015.082.109.109,0,0,1-.051.066l-2.24,1.352a2.508,2.508,0,0,0,1.3,4.657l.1,0h0a2.514,2.514,0,0,0,1.19-.357l2.24-1.352A5.134,5.134,0,0,0,173.708,5169.679Z" transform="translate(-163.216 -5166.115)" fill="#8c2563"/>
      </g>
      <g id="Grupo_3921" data-name="Grupo 3921" transform="translate(216.619 4964.743)">
        <path id="Trazado_5929" data-name="Trazado 5929" d="M546.473,5209.113l-.827-2.482a5.16,5.16,0,0,0-2.779-3.058,2.29,2.29,0,0,0-2.948-2.738,2.322,2.322,0,0,0-.891.55c-.056-.005-.111-.009-.165-.012a2.588,2.588,0,0,0-.935.125,3.5,3.5,0,0,0-2.094,1.864,2.275,2.275,0,0,0-.215,1.377,2.629,2.629,0,0,0,.041,3.753,5.067,5.067,0,0,0,.256,1.38l.827,2.482a2.529,2.529,0,0,0,2.276,1.715l.111,0a2.511,2.511,0,0,0,2.376-3.3l-.827-2.482a.1.1,0,0,1,.068-.135.111.111,0,0,1,.042-.007.1.1,0,0,1,.093.074l.827,2.483a2.53,2.53,0,0,0,2.277,1.714,2.514,2.514,0,0,0,2.486-3.3Z" transform="translate(-534.85 -5200.715)" fill="#8c2563"/>
      </g>
      <g id="Grupo_3922" data-name="Grupo 3922" transform="translate(196.584 4974.205)">
        <path id="Trazado_5930" data-name="Trazado 5930" d="M404.269,5268.277a2.346,2.346,0,0,0-2.379-1.715,2.676,2.676,0,0,0-.667.1,2.54,2.54,0,0,0-1.751,1.588,2.454,2.454,0,0,0-1.487-.456,2.664,2.664,0,0,0-.837.164,2.6,2.6,0,0,0-1.5,1.324,2.294,2.294,0,0,0-.088,1.76,3.771,3.771,0,0,0,.98,1.4l1.923,1.962-.105.533a3.688,3.688,0,0,0-.016,1.774,2.343,2.343,0,0,0,2.307,1.717h.073a2.715,2.715,0,0,0,.667-.1,2.585,2.585,0,0,0,1.9-2.2l.982-6.147A3.772,3.772,0,0,0,404.269,5268.277Z" transform="translate(-395.427 -5266.561)" fill="#8c2563"/>
      </g>
      <g id="Grupo_3930" data-name="Grupo 3930" transform="translate(183.085 4954.155)">
        <g id="Grupo_3925" data-name="Grupo 3925" transform="translate(0 0)">
          <g id="Grupo_3924" data-name="Grupo 3924">
            <g id="Grupo_3923" data-name="Grupo 3923">
              <path id="Trazado_5931" data-name="Trazado 5931" d="M314.518,5130.872a3.132,3.132,0,0,1-.416,2.687,26.369,26.369,0,0,1-5.485,5.854,3.137,3.137,0,0,1-1.02.534l-.009,0a3.145,3.145,0,0,1-3.745-1.651,26.4,26.4,0,0,1-2.326-7.677,3.143,3.143,0,0,1,2.19-3.45l.008,0,.058-.017a3.126,3.126,0,0,1,1.094-.108,26.245,26.245,0,0,1,7.815,1.824A3.133,3.133,0,0,1,314.518,5130.872Z" transform="translate(-301.485 -5127.033)" fill="#8c2563"/>
            </g>
          </g>
        </g>
        <g id="Grupo_3929" data-name="Grupo 3929" transform="translate(1.197 1.158)">
          <g id="Grupo_3928" data-name="Grupo 3928">
            <g id="Grupo_3927" data-name="Grupo 3927">
              <g id="Grupo_3926" data-name="Grupo 3926" clip-path="url(#clip-path-2)">
                <path id="Trazado_5932" data-name="Trazado 5932" d="M308.988,5195.172l3.956,2.284h-3.956Z" transform="translate(-309.106 -5186.539)" fill="#ef8325"/>
                <path id="Trazado_5933" data-name="Trazado 5933" d="M308.988,5194.642l4.087,2.36h-.132l-3.956-2.283Z" transform="translate(-309.106 -5186.084)" fill="#ef8325"/>
                <path id="Trazado_5934" data-name="Trazado 5934" d="M308.988,5194.114l4.219,2.436h-.132l-4.087-2.36Z" transform="translate(-309.106 -5185.632)" fill="#ef8525"/>
                <path id="Trazado_5935" data-name="Trazado 5935" d="M308.988,5193.585l4.351,2.511h-.132l-4.219-2.435Z" transform="translate(-309.106 -5185.18)" fill="#ef8624"/>
                <path id="Trazado_5936" data-name="Trazado 5936" d="M308.988,5193.055l4.483,2.588h-.132l-4.351-2.511Z" transform="translate(-309.106 -5184.726)" fill="#f08824"/>
                <path id="Trazado_5937" data-name="Trazado 5937" d="M308.988,5192.526l4.614,2.664h-.132l-4.483-2.588Z" transform="translate(-309.106 -5184.273)" fill="#f08924"/>
                <path id="Trazado_5938" data-name="Trazado 5938" d="M308.988,5192l4.746,2.74H313.6l-4.614-2.664Z" transform="translate(-309.106 -5183.819)" fill="#f08a23"/>
                <path id="Trazado_5939" data-name="Trazado 5939" d="M308.988,5191.468l4.878,2.816h-.132l-4.746-2.74Z" transform="translate(-309.106 -5183.367)" fill="#f08c23"/>
                <path id="Trazado_5940" data-name="Trazado 5940" d="M308.988,5190.938l5.01,2.893h-.132l-4.878-2.816Z" transform="translate(-309.106 -5182.912)" fill="#f08d23"/>
                <path id="Trazado_5941" data-name="Trazado 5941" d="M308.988,5190.409l5.141,2.969H314l-5.01-2.893Z" transform="translate(-309.106 -5182.459)" fill="#f18e22"/>
                <path id="Trazado_5942" data-name="Trazado 5942" d="M308.988,5189.879l5.273,3.045h-.132l-5.141-2.968Z" transform="translate(-309.106 -5182.007)" fill="#f18f22"/>
                <path id="Trazado_5943" data-name="Trazado 5943" d="M308.988,5189.351l5.4,3.12h-.132l-5.273-3.044Z" transform="translate(-309.106 -5181.554)" fill="#f19122"/>
                <path id="Trazado_5944" data-name="Trazado 5944" d="M308.988,5188.821l5.537,3.2h-.132l-5.4-3.122Z" transform="translate(-309.106 -5181.101)" fill="#f19222"/>
                <path id="Trazado_5945" data-name="Trazado 5945" d="M308.988,5188.292l5.668,3.272h-.132l-5.537-3.2Z" transform="translate(-309.106 -5180.647)" fill="#f19321"/>
                <path id="Trazado_5946" data-name="Trazado 5946" d="M308.988,5187.762l5.8,3.349h-.132l-5.668-3.273Z" transform="translate(-309.106 -5180.194)" fill="#f19421"/>
                <path id="Trazado_5947" data-name="Trazado 5947" d="M308.988,5187.232l5.932,3.425h-.132l-5.8-3.349Z" transform="translate(-309.106 -5179.74)" fill="#f29521"/>
                <path id="Trazado_5948" data-name="Trazado 5948" d="M308.988,5186.7l6.064,3.5h-.132l-5.932-3.425Z" transform="translate(-309.106 -5179.287)" fill="#f29621"/>
                <path id="Trazado_5949" data-name="Trazado 5949" d="M308.988,5186.174l6.2,3.577h-.132l-6.064-3.5Z" transform="translate(-309.106 -5178.834)" fill="#f29721"/>
                <path id="Trazado_5950" data-name="Trazado 5950" d="M308.988,5185.645l6.327,3.653h-.132l-6.2-3.577Z" transform="translate(-309.106 -5178.38)" fill="#f29820"/>
                <path id="Trazado_5951" data-name="Trazado 5951" d="M308.988,5185.115l6.459,3.729h-.132l-6.327-3.653Z" transform="translate(-309.106 -5177.927)" fill="#f29820"/>
                <path id="Trazado_5952" data-name="Trazado 5952" d="M308.988,5184.586l6.59,3.805h-.132l-6.459-3.729Z" transform="translate(-309.106 -5177.474)" fill="#f29920"/>
                <path id="Trazado_5953" data-name="Trazado 5953" d="M308.988,5184.057l6.722,3.881h-.132l-6.59-3.805Z" transform="translate(-309.106 -5177.02)" fill="#f29a20"/>
                <path id="Trazado_5954" data-name="Trazado 5954" d="M308.988,5183.528l6.854,3.957h-.132l-6.722-3.881Z" transform="translate(-309.106 -5176.568)" fill="#f29b20"/>
                <path id="Trazado_5955" data-name="Trazado 5955" d="M308.988,5183l6.986,4.033h-.132l-6.854-3.957Z" transform="translate(-309.106 -5176.115)" fill="#f29b1f"/>
                <path id="Trazado_5956" data-name="Trazado 5956" d="M308.988,5182.47l7.117,4.108h-.132l-6.986-4.032Z" transform="translate(-309.106 -5175.662)" fill="#f39c1f"/>
                <path id="Trazado_5957" data-name="Trazado 5957" d="M308.988,5181.94l7.247,4.185h-.13l-7.117-4.109Z" transform="translate(-309.106 -5175.208)" fill="#f39d1f"/>
                <path id="Trazado_5958" data-name="Trazado 5958" d="M308.988,5181.41l7.28,4.2-.033.058-7.247-4.185Z" transform="translate(-309.106 -5174.754)" fill="#f39d1f"/>
                <path id="Trazado_5959" data-name="Trazado 5959" d="M308.988,5180.881l7.313,4.221-.033.058-7.28-4.2Z" transform="translate(-309.106 -5174.302)" fill="#f39e1f"/>
                <path id="Trazado_5960" data-name="Trazado 5960" d="M308.988,5180.353l7.346,4.24-.033.059-7.313-4.223Z" transform="translate(-309.106 -5173.849)" fill="#f39f1f"/>
                <path id="Trazado_5961" data-name="Trazado 5961" d="M308.988,5179.823l7.379,4.26-.033.057-7.346-4.241Z" transform="translate(-309.106 -5173.396)" fill="#f39f1f"/>
                <path id="Trazado_5962" data-name="Trazado 5962" d="M308.988,5179.293l7.412,4.28-.033.056-7.379-4.26Z" transform="translate(-309.106 -5172.942)" fill="#f3a01e"/>
                <path id="Trazado_5963" data-name="Trazado 5963" d="M308.988,5178.765l7.445,4.3-.033.057-7.412-4.28Z" transform="translate(-309.106 -5172.489)" fill="#f3a01e"/>
                <path id="Trazado_5964" data-name="Trazado 5964" d="M308.988,5178.235l7.478,4.317-.033.057-7.445-4.3Z" transform="translate(-309.106 -5172.035)" fill="#f3a11e"/>
                <path id="Trazado_5965" data-name="Trazado 5965" d="M308.988,5177.706l7.511,4.337-.033.057-7.478-4.317Z" transform="translate(-309.106 -5171.582)" fill="#f3a11e"/>
                <path id="Trazado_5966" data-name="Trazado 5966" d="M308.988,5177.176l7.544,4.356-.033.057-7.511-4.336Z" transform="translate(-309.106 -5171.128)" fill="#f3a11e"/>
                <path id="Trazado_5967" data-name="Trazado 5967" d="M308.988,5176.647l7.577,4.375-.033.057-7.544-4.355Z" transform="translate(-309.106 -5170.676)" fill="#f3a21e"/>
                <path id="Trazado_5968" data-name="Trazado 5968" d="M308.988,5176.118l7.61,4.394-.033.057-7.577-4.374Z" transform="translate(-309.106 -5170.222)" fill="#f3a21e"/>
                <path id="Trazado_5969" data-name="Trazado 5969" d="M308.988,5175.588,316.63,5180l-.033.058-7.61-4.393Z" transform="translate(-309.106 -5169.769)" fill="#f4a31e"/>
                <path id="Trazado_5970" data-name="Trazado 5970" d="M308.988,5175.06l7.675,4.431-.033.058-7.643-4.413Z" transform="translate(-309.106 -5169.316)" fill="#f4a31e"/>
                <path id="Trazado_5971" data-name="Trazado 5971" d="M308.988,5174.53l7.708,4.451-.033.057-7.675-4.431Z" transform="translate(-309.106 -5168.863)" fill="#f4a31e"/>
                <path id="Trazado_5972" data-name="Trazado 5972" d="M308.988,5174l7.741,4.47-.033.057-7.708-4.45Z" transform="translate(-309.106 -5168.41)" fill="#f4a31e"/>
                <path id="Trazado_5973" data-name="Trazado 5973" d="M308.988,5173.471l7.774,4.489-.033.057-7.741-4.469Z" transform="translate(-309.106 -5167.955)" fill="#f4a41e"/>
                <path id="Trazado_5974" data-name="Trazado 5974" d="M308.988,5172.942l7.807,4.508-.033.057-7.774-4.489Z" transform="translate(-309.106 -5167.503)" fill="#f4a41d"/>
                <path id="Trazado_5975" data-name="Trazado 5975" d="M308.988,5172.413l7.84,4.527-.033.057-7.807-4.508Z" transform="translate(-309.106 -5167.05)" fill="#f4a41d"/>
                <path id="Trazado_5976" data-name="Trazado 5976" d="M308.988,5171.884l7.873,4.545-.033.058-7.84-4.527Z" transform="translate(-309.106 -5166.596)" fill="#f4a41d"/>
                <path id="Trazado_5977" data-name="Trazado 5977" d="M308.988,5171.354l7.906,4.564-.033.057-7.873-4.546Z" transform="translate(-309.106 -5166.144)" fill="#f4a51d"/>
                <path id="Trazado_5978" data-name="Trazado 5978" d="M308.988,5170.825l7.939,4.583-.033.057-7.906-4.564Z" transform="translate(-309.106 -5165.69)" fill="#f4a51d"/>
                <path id="Trazado_5979" data-name="Trazado 5979" d="M308.988,5170.3l7.972,4.6-.033.057-7.939-4.583Z" transform="translate(-309.106 -5165.237)" fill="#f4a51d"/>
                <path id="Trazado_5980" data-name="Trazado 5980" d="M308.988,5169.766l8,4.622-.033.057-7.972-4.6Z" transform="translate(-309.106 -5164.783)" fill="#f4a51d"/>
                <path id="Trazado_5981" data-name="Trazado 5981" d="M308.988,5169.237l8.038,4.64-.033.058-8-4.622Z" transform="translate(-309.106 -5164.331)" fill="#f4a51d"/>
                <path id="Trazado_5982" data-name="Trazado 5982" d="M308.988,5168.708l8.071,4.66-.033.057-8.038-4.64Z" transform="translate(-309.106 -5163.878)" fill="#f4a51d"/>
                <path id="Trazado_5983" data-name="Trazado 5983" d="M308.988,5168.179l8.1,4.679-.033.057-8.071-4.659Z" transform="translate(-309.106 -5163.424)" fill="#f4a51d"/>
                <path id="Trazado_5984" data-name="Trazado 5984" d="M308.988,5167.649l8.137,4.7-.033.056-8.1-4.678Z" transform="translate(-309.106 -5162.971)" fill="#f4a61d"/>
                <path id="Trazado_5985" data-name="Trazado 5985" d="M308.988,5167.12l8.17,4.716-.033.057-8.137-4.7Z" transform="translate(-309.106 -5162.518)" fill="#f4a61d"/>
                <path id="Trazado_5986" data-name="Trazado 5986" d="M308.988,5166.59l8.2,4.736-.033.057-8.17-4.716Z" transform="translate(-309.106 -5162.064)" fill="#f4a61d"/>
                <path id="Trazado_5987" data-name="Trazado 5987" d="M308.988,5166.062l8.235,4.755-.033.057-8.2-4.735Z" transform="translate(-309.106 -5161.611)" fill="#f4a61d"/>
                <path id="Trazado_5988" data-name="Trazado 5988" d="M308.988,5165.532l8.268,4.774-.033.057-8.235-4.755Z" transform="translate(-309.106 -5161.158)" fill="#f4a61d"/>
                <path id="Trazado_5989" data-name="Trazado 5989" d="M308.988,5165l8.3,4.792-.033.058-8.268-4.774Z" transform="translate(-309.106 -5160.705)" fill="#f4a61d"/>
                <path id="Trazado_5990" data-name="Trazado 5990" d="M308.988,5164.474l8.334,4.813-.033.056-8.3-4.792Z" transform="translate(-309.106 -5160.251)" fill="#f4a61d"/>
                <path id="Trazado_5991" data-name="Trazado 5991" d="M308.988,5163.944l8.367,4.832-.033.057-8.334-4.812Z" transform="translate(-309.106 -5159.798)" fill="#f4a61d"/>
                <path id="Trazado_5992" data-name="Trazado 5992" d="M308.988,5163.415l8.4,4.849-.033.058-8.367-4.831Z" transform="translate(-309.106 -5159.345)" fill="#f4a61d"/>
                <path id="Trazado_5993" data-name="Trazado 5993" d="M308.988,5162.886l8.433,4.869-.033.058-8.4-4.85Z" transform="translate(-309.106 -5158.892)" fill="#f4a61d"/>
                <path id="Trazado_5994" data-name="Trazado 5994" d="M308.988,5162.356l8.466,4.889-.033.057-8.433-4.869Z" transform="translate(-309.106 -5158.438)" fill="#f4a61d"/>
                <path id="Trazado_5995" data-name="Trazado 5995" d="M308.988,5161.827l8.5,4.908-.033.057-8.466-4.888Z" transform="translate(-309.106 -5157.984)" fill="#f4a61d"/>
                <path id="Trazado_5996" data-name="Trazado 5996" d="M308.988,5161.3l8.532,4.926-.033.058-8.5-4.907Z" transform="translate(-309.106 -5157.532)" fill="#f4a61d"/>
                <path id="Trazado_5997" data-name="Trazado 5997" d="M308.988,5160.769l8.565,4.945-.033.057-8.532-4.926Z" transform="translate(-309.106 -5157.079)" fill="#f4a61d"/>
                <path id="Trazado_5998" data-name="Trazado 5998" d="M308.988,5160.239l8.6,4.964-.033.057-8.565-4.946Z" transform="translate(-309.106 -5156.626)" fill="#f4a61d"/>
                <path id="Trazado_5999" data-name="Trazado 5999" d="M308.988,5159.71l8.631,4.982-.033.058-8.6-4.964Z" transform="translate(-309.106 -5156.172)" fill="#f4a61d"/>
                <path id="Trazado_6000" data-name="Trazado 6000" d="M308.988,5159.181l8.664,5-.033.057-8.631-4.983Z" transform="translate(-309.106 -5155.719)" fill="#f4a61d"/>
                <path id="Trazado_6001" data-name="Trazado 6001" d="M308.988,5158.651l8.7,5.021-.033.056-8.664-5Z" transform="translate(-309.106 -5155.266)" fill="#f4a61d"/>
                <path id="Trazado_6002" data-name="Trazado 6002" d="M308.988,5157.7l8.756,5.056-.059.1-8.7-5.021Z" transform="translate(-309.106 -5154.449)" fill="#f4a61d"/>
                <path id="Trazado_6003" data-name="Trazado 6003" d="M308.988,5156.743l8.815,5.089-.059.1-8.756-5.055Z" transform="translate(-309.106 -5153.632)" fill="#f4a61d"/>
                <path id="Trazado_6004" data-name="Trazado 6004" d="M308.988,5155.789l8.875,5.124-.059.1-8.815-5.09Z" transform="translate(-309.106 -5152.815)" fill="#f4a61d"/>
                <path id="Trazado_6005" data-name="Trazado 6005" d="M308.988,5154.834l8.934,5.158-.059.1-8.875-5.124Z" transform="translate(-309.106 -5151.997)" fill="#f4a61d"/>
                <path id="Trazado_6006" data-name="Trazado 6006" d="M308.988,5153.88l8.993,5.192-.059.1-8.934-5.158Z" transform="translate(-309.106 -5151.181)" fill="#f4a61d"/>
                <path id="Trazado_6007" data-name="Trazado 6007" d="M308.988,5152.926l9.053,5.227-.059.1-8.993-5.192Z" transform="translate(-309.106 -5150.363)" fill="#f4a61d"/>
                <path id="Trazado_6008" data-name="Trazado 6008" d="M308.988,5151.972l9.112,5.261-.059.1-9.053-5.227Z" transform="translate(-309.106 -5149.546)" fill="#f4a71d"/>
                <path id="Trazado_6009" data-name="Trazado 6009" d="M308.988,5151.019l9.171,5.295-.059.1-9.112-5.261Z" transform="translate(-309.106 -5148.73)" fill="#f4a71d"/>
                <path id="Trazado_6010" data-name="Trazado 6010" d="M308.988,5150.064l9.231,5.329-.059.1-9.171-5.3Z" transform="translate(-309.106 -5147.913)" fill="#f4a71d"/>
                <path id="Trazado_6011" data-name="Trazado 6011" d="M308.988,5149.11l9.29,5.364-.059.1-9.231-5.329Z" transform="translate(-309.106 -5147.096)" fill="#f4a71d"/>
                <path id="Trazado_6012" data-name="Trazado 6012" d="M308.988,5148.155l9.35,5.4-.059.1-9.29-5.363Z" transform="translate(-309.106 -5146.278)" fill="#f4a71d"/>
                <path id="Trazado_6013" data-name="Trazado 6013" d="M308.988,5147.2l9.409,5.433-.059.1-9.35-5.4Z" transform="translate(-309.106 -5145.461)" fill="#f4a81c"/>
                <path id="Trazado_6014" data-name="Trazado 6014" d="M308.988,5146.247l9.468,5.467-.059.1-9.409-5.432Z" transform="translate(-309.106 -5144.645)" fill="#f4a81c"/>
                <path id="Trazado_6015" data-name="Trazado 6015" d="M308.988,5145.293l9.528,5.5-.059.1-9.468-5.466Z" transform="translate(-309.106 -5143.827)" fill="#f4a81c"/>
                <path id="Trazado_6016" data-name="Trazado 6016" d="M308.988,5144.339l9.587,5.535-.059.1-9.528-5.5Z" transform="translate(-309.106 -5143.01)" fill="#f4a91c"/>
                <path id="Trazado_6017" data-name="Trazado 6017" d="M308.988,5143.385l9.646,5.57-.059.1-9.587-5.535Z" transform="translate(-309.106 -5142.193)" fill="#f4a91c"/>
                <path id="Trazado_6018" data-name="Trazado 6018" d="M308.988,5142.431l9.706,5.6-.059.1-9.646-5.568Z" transform="translate(-309.106 -5141.376)" fill="#f4a91c"/>
                <path id="Trazado_6019" data-name="Trazado 6019" d="M308.988,5141.633l.027-.047,9.738,5.623-.059.1-9.706-5.6Z" transform="translate(-309.106 -5140.653)" fill="#f4aa1c"/>
                <rect id="Rectángulo_2288" data-name="Rectángulo 2288" width="0.119" height="11.244" transform="matrix(0.5, -0.866, 0.866, 0.5, -0.092, 0.933)" fill="#f4aa1c"/>
                <rect id="Rectángulo_2289" data-name="Rectángulo 2289" width="0.119" height="11.244" transform="matrix(0.5, -0.866, 0.866, 0.5, -0.032, 0.83)" fill="#f5ab1b"/>
                <rect id="Rectángulo_2290" data-name="Rectángulo 2290" width="0.119" height="11.244" transform="translate(0.027 0.727) rotate(-60)" fill="#f5ab1b"/>
                <rect id="Rectángulo_2291" data-name="Rectángulo 2291" width="0.119" height="11.244" transform="matrix(0.5, -0.866, 0.866, 0.5, 0.087, 0.625)" fill="#f5ab1b"/>
                <rect id="Rectángulo_2292" data-name="Rectángulo 2292" width="0.119" height="11.244" transform="translate(0.146 0.522) rotate(-60)" fill="#f5ac1b"/>
                <rect id="Rectángulo_2293" data-name="Rectángulo 2293" width="0.119" height="11.244" transform="matrix(0.5, -0.866, 0.866, 0.5, 0.205, 0.419)" fill="#f5ac1b"/>
                <rect id="Rectángulo_2294" data-name="Rectángulo 2294" width="0.119" height="11.244" transform="matrix(0.5, -0.866, 0.866, 0.5, 0.265, 0.316)" fill="#f5ad1b"/>
                <rect id="Rectángulo_2295" data-name="Rectángulo 2295" width="0.119" height="11.244" transform="translate(0.324 0.213) rotate(-60)" fill="#f5ad1b"/>
                <rect id="Rectángulo_2296" data-name="Rectángulo 2296" width="0.119" height="11.244" transform="matrix(0.5, -0.866, 0.866, 0.5, 0.383, 0.111)" fill="#f5ae1a"/>
                <path id="Trazado_6020" data-name="Trazado 6020" d="M312.9,5135.02l.012-.021h.189l9.6,5.541-.059.1Z" transform="translate(-312.453 -5135.012)" fill="#f5af1a"/>
                <path id="Trazado_6021" data-name="Trazado 6021" d="M314.532,5135l9.418,5.438-.059.1-9.6-5.541Z" transform="translate(-313.651 -5135.012)" fill="#f5af1a"/>
                <path id="Trazado_6022" data-name="Trazado 6022" d="M316.184,5135l9.24,5.335-.059.1L315.947,5135Z" transform="translate(-315.066 -5135.012)" fill="#f5b01a"/>
                <path id="Trazado_6023" data-name="Trazado 6023" d="M317.837,5135l9.062,5.232-.059.1L317.6,5135Z" transform="translate(-316.481 -5135.012)" fill="#f5b01a"/>
                <path id="Trazado_6024" data-name="Trazado 6024" d="M319.49,5135l8.884,5.129-.059.1L319.252,5135Z" transform="translate(-317.896 -5135.012)" fill="#f5b119"/>
                <path id="Trazado_6025" data-name="Trazado 6025" d="M321.142,5135l8.706,5.027-.059.1L320.9,5135Z" transform="translate(-319.311 -5135.012)" fill="#f5b219"/>
                <path id="Trazado_6026" data-name="Trazado 6026" d="M322.8,5135l8.528,4.923-.059.1L322.558,5135Z" transform="translate(-320.726 -5135.012)" fill="#f5b219"/>
                <path id="Trazado_6027" data-name="Trazado 6027" d="M324.448,5135l8.35,4.82-.059.1L324.21,5135Z" transform="translate(-322.142 -5135.012)" fill="#f5b319"/>
                <path id="Trazado_6028" data-name="Trazado 6028" d="M326.1,5135l8.171,4.718-.059.1-8.35-4.82Z" transform="translate(-323.557 -5135.012)" fill="#f5b319"/>
                <path id="Trazado_6029" data-name="Trazado 6029" d="M327.753,5135l7.993,4.615-.059.1L327.516,5135Z" transform="translate(-324.972 -5135.012)" fill="#f6b418"/>
                <path id="Trazado_6030" data-name="Trazado 6030" d="M329.406,5135l7.815,4.512-.059.1L329.168,5135Z" transform="translate(-326.387 -5135.012)" fill="#f6b518"/>
                <path id="Trazado_6031" data-name="Trazado 6031" d="M331.058,5135l7.637,4.409-.059.1L330.821,5135Z" transform="translate(-327.802 -5135.012)" fill="#f6b618"/>
                <path id="Trazado_6032" data-name="Trazado 6032" d="M332.711,5135l7.431,4.291v.064l-.032.055L332.474,5135Z" transform="translate(-329.217 -5135.012)" fill="#f6b618"/>
                <path id="Trazado_6033" data-name="Trazado 6033" d="M334.364,5135l7.194,4.153v.137L334.126,5135Z" transform="translate(-330.633 -5135.012)" fill="#f6b717"/>
                <path id="Trazado_6034" data-name="Trazado 6034" d="M336.016,5135l6.956,4.017v.137L335.779,5135Z" transform="translate(-332.048 -5135.012)" fill="#f6b817"/>
                <path id="Trazado_6035" data-name="Trazado 6035" d="M337.669,5135l6.719,3.879v.138L337.432,5135Z" transform="translate(-333.463 -5135.012)" fill="#f6b917"/>
                <path id="Trazado_6036" data-name="Trazado 6036" d="M339.322,5135l6.481,3.742v.137L339.084,5135Z" transform="translate(-334.878 -5135.012)" fill="#f6b917"/>
                <path id="Trazado_6037" data-name="Trazado 6037" d="M340.974,5135l6.244,3.6v.137L340.737,5135Z" transform="translate(-336.293 -5135.012)" fill="#f6ba16"/>
                <path id="Trazado_6038" data-name="Trazado 6038" d="M342.627,5135l6.006,3.468v.137l-6.244-3.6Z" transform="translate(-337.709 -5135.012)" fill="#f6bb16"/>
                <path id="Trazado_6039" data-name="Trazado 6039" d="M344.28,5135l5.769,3.331v.137L344.042,5135Z" transform="translate(-339.124 -5135.012)" fill="#f6bc16"/>
                <path id="Trazado_6040" data-name="Trazado 6040" d="M345.932,5135l5.531,3.193v.138L345.695,5135Z" transform="translate(-340.539 -5135.012)" fill="#f7bd15"/>
                <path id="Trazado_6041" data-name="Trazado 6041" d="M347.585,5135l5.294,3.057v.136L347.348,5135Z" transform="translate(-341.954 -5135.012)" fill="#f7bd15"/>
                <path id="Trazado_6042" data-name="Trazado 6042" d="M349.238,5135l5.056,2.919v.138L349,5135Z" transform="translate(-343.369 -5135.012)" fill="#f7be15"/>
                <path id="Trazado_6043" data-name="Trazado 6043" d="M350.89,5135l4.819,2.783v.137L350.653,5135Z" transform="translate(-344.784 -5135.012)" fill="#f7bf15"/>
                <path id="Trazado_6044" data-name="Trazado 6044" d="M352.543,5135l4.581,2.645v.138L352.306,5135Z" transform="translate(-346.2 -5135.012)" fill="#f7c014"/>
                <path id="Trazado_6045" data-name="Trazado 6045" d="M354.2,5135l4.344,2.509v.136L353.958,5135Z" transform="translate(-347.615 -5135.012)" fill="#f7c114"/>
                <path id="Trazado_6046" data-name="Trazado 6046" d="M359.955,5137.507,355.611,5135h4.344Z" transform="translate(-349.03 -5135.012)" fill="#f7c114"/>
              </g>
            </g>
          </g>
        </g>
      </g>
      <g id="Grupo_3935" data-name="Grupo 3935" transform="translate(184.305 4926.781)">
        <g id="Grupo_3931" data-name="Grupo 3931" transform="translate(0 7.738)">
          <path id="Trazado_6048" data-name="Trazado 6048" d="M314.808,4990.656a3.489,3.489,0,1,1-4.562,1.883A3.5,3.5,0,0,1,314.808,4990.656Zm-2.009,4.833a1.745,1.745,0,1,0-.941-2.281A1.74,1.74,0,0,0,312.8,4995.489Z" transform="translate(-309.979 -4990.389)" fill="#f5ea14"/>
        </g>
        <g id="Grupo_3932" data-name="Grupo 3932" transform="translate(15.147 1.611)">
          <path id="Trazado_6049" data-name="Trazado 6049" d="M420.152,4954.488a3.49,3.49,0,1,1,.113-6.447.867.867,0,0,1-.026,1.607.813.813,0,0,1-.666-.016,1.687,1.687,0,0,0-1.339-.014,1.745,1.745,0,1,0,1.279,3.247,1.769,1.769,0,0,0,.969-.924.864.864,0,0,1,.477-.466.9.9,0,0,1,1.131.492.867.867,0,0,1-.016.665A3.5,3.5,0,0,1,420.152,4954.488Z" transform="translate(-415.384 -4947.751)" fill="#f5ea14"/>
        </g>
        <g id="Grupo_3933" data-name="Grupo 3933" transform="translate(6.333 4.367)">
          <path id="Trazado_6050" data-name="Trazado 6050" d="M354.641,4968.176a.962.962,0,0,1,1.041.169,3.575,3.575,0,0,1,1.4-1.119,3.5,3.5,0,0,1,4.6,1.8l1.05,2.4a.872.872,0,1,1-1.6.7l-1.05-2.4a1.745,1.745,0,0,0-3.2,1.4l1.05,2.4a.872.872,0,1,1-1.6.7l-1.05-2.4a3.337,3.337,0,0,1-.265-1.759,1,1,0,0,1-.886-.595A.979.979,0,0,1,354.641,4968.176Z" transform="translate(-354.052 -4966.934)" fill="#f5ea14"/>
        </g>
        <g id="Grupo_3934" data-name="Grupo 3934" transform="translate(21.981 0)">
          <path id="Trazado_6051" data-name="Trazado 6051" d="M467.245,4943.424a3.49,3.49,0,1,1,2.583-4.2.878.878,0,0,1-.646,1.051l-4.017.96a1.717,1.717,0,0,0,1.675.5l.848-.2a.873.873,0,1,1,.405,1.7Zm-2.485-3.891,2.944-.7a1.749,1.749,0,0,0-2.944.7Z" transform="translate(-462.944 -4936.541)" fill="#f5ea14"/>
        </g>
      </g>
      <g id="Grupo_3941" data-name="Grupo 3941" transform="translate(164.855 4961.409)">
        <g id="Grupo_3936" data-name="Grupo 3936" transform="translate(14.955 14.842)">
          <path id="Trazado_6052" data-name="Trazado 6052" d="M286.11,5282.468a1.059,1.059,0,0,0-.926.049,3.489,3.489,0,1,0-2.628,5.24c.063-.007.125-.016.187-.025a1.061,1.061,0,0,0,1.988.731l1.943-4.605A1.06,1.06,0,0,0,286.11,5282.468Zm-3.742,3.555a1.745,1.745,0,1,1,1.546-1.923A1.74,1.74,0,0,1,282.368,5286.022Z" transform="translate(-278.69 -5280.798)" fill="#f5ea14"/>
        </g>
        <g id="Grupo_3937" data-name="Grupo 3937" transform="translate(4.379 6.471)">
          <path id="Trazado_6053" data-name="Trazado 6053" d="M212.049,5222.941a.981.981,0,1,1-1.372-.208A.977.977,0,0,1,212.049,5222.941Zm-5.568,5.167a.872.872,0,1,1-1.034-1.4l3.451-2.525a.872.872,0,0,1,1.034,1.405Z" transform="translate(-205.094 -5222.541)" fill="#f5ea14"/>
        </g>
        <g id="Grupo_3938" data-name="Grupo 3938" transform="translate(7.256 9.324)">
          <path id="Trazado_6054" data-name="Trazado 6054" d="M230.141,5243.061a.962.962,0,0,1,.276,1.018,3.584,3.584,0,0,1,1.6.813,3.5,3.5,0,0,1,.264,4.928l-1.749,1.947a.872.872,0,1,1-1.3-1.166l1.749-1.946a1.745,1.745,0,0,0-2.6-2.333l-1.749,1.946a.872.872,0,1,1-1.3-1.165l1.749-1.947a3.334,3.334,0,0,1,1.492-.968,1,1,0,0,1,.175-1.053A.979.979,0,0,1,230.141,5243.061Zm1.5.653a.673.673,0,0,1-.472-.168.646.646,0,0,1-.05-.924.653.653,0,0,1,.452-.217,1.9,1.9,0,0,1,1.473.481c.355.318.347.9.56,1.09a.6.6,0,0,0,.53.145.678.678,0,0,1,.472.167.655.655,0,0,1-.4,1.141,1.893,1.893,0,0,1-1.473-.481c-.354-.319-.348-.9-.56-1.089A.6.6,0,0,0,231.643,5243.714Z" transform="translate(-225.117 -5242.399)" fill="#f5ea14"/>
        </g>
        <g id="Grupo_3939" data-name="Grupo 3939" transform="translate(23.457 16.818)">
          <path id="Trazado_6055" data-name="Trazado 6055" d="M341.827,5299.87a.437.437,0,0,0,.048-.872l-1.742-.1a2.18,2.18,0,1,1,.237-4.354l2.614.143a.873.873,0,0,1-.095,1.743l-2.614-.143a.436.436,0,0,0-.047.871l1.742.095a2.181,2.181,0,0,1-.237,4.355l-3.049-.166a.873.873,0,0,1,.095-1.743Z" transform="translate(-337.858 -5294.544)" fill="#f5ea14"/>
        </g>
        <g id="Grupo_3940" data-name="Grupo 3940" transform="translate(0)">
          <path id="Trazado_6056" data-name="Trazado 6056" d="M180.815,5177.987a.964.964,0,0,1-.033,1.055,3.568,3.568,0,0,1,1.291,1.243,3.5,3.5,0,0,1-1.185,4.79l-2.24,1.353a.872.872,0,1,1-.9-1.494l2.24-1.352a1.745,1.745,0,0,0-1.8-2.988l-2.24,1.353a.873.873,0,1,1-.9-1.494l2.24-1.352a3.34,3.34,0,0,1,1.71-.49,1,1,0,0,1,.475-.955A.978.978,0,0,1,180.815,5177.987Z" transform="translate(-174.622 -5177.512)" fill="#f5ea14"/>
        </g>
      </g>
      <g id="Grupo_3947" data-name="Grupo 3947" transform="translate(207.242 4962.76)">
        <g id="Grupo_3942" data-name="Grupo 3942" transform="translate(7.481 6.824)">
          <path id="Trazado_6057" data-name="Trazado 6057" d="M522.29,5234.468a.98.98,0,1,1-.57,1.265A.975.975,0,0,1,522.29,5234.468Zm3.479,6.751a.872.872,0,0,1-1.631.619l-1.5-4a.872.872,0,0,1,1.631-.618Z" transform="translate(-521.655 -5234.402)" fill="#f5ea14"/>
        </g>
        <g id="Grupo_3943" data-name="Grupo 3943" transform="translate(26.146 0)">
          <path id="Trazado_6058" data-name="Trazado 6058" d="M656.462,5192.163a.436.436,0,0,0-.319-.812l-1.624.638a2.181,2.181,0,0,1-1.594-4.06l2.436-.957A.873.873,0,0,1,656,5188.6l-2.436.958a.436.436,0,1,0,.319.811l1.624-.638a2.181,2.181,0,0,1,1.595,4.06l-2.842,1.116a.872.872,0,1,1-.638-1.624Z" transform="translate(-651.542 -5186.913)" fill="#f5ea14"/>
        </g>
        <g id="Grupo_3944" data-name="Grupo 3944" transform="translate(0 10.183)">
          <path id="Trazado_6059" data-name="Trazado 6059" d="M470.248,5258.756a.966.966,0,0,1,1.027.242,3.572,3.572,0,0,1,1.474-1.018,3.5,3.5,0,0,1,4.46,2.113l.88,2.464a.872.872,0,1,1-1.643.587l-.88-2.465a1.745,1.745,0,0,0-3.286,1.175l.88,2.463a.872.872,0,1,1-1.643.587l-.88-2.464a3.338,3.338,0,0,1-.141-1.774,1,1,0,0,1-.842-.654A.979.979,0,0,1,470.248,5258.756Z" transform="translate(-469.595 -5257.777)" fill="#f5ea14"/>
        </g>
        <g id="Grupo_3945" data-name="Grupo 3945" transform="translate(11.016 3.621)">
          <path id="Trazado_6060" data-name="Trazado 6060" d="M546.927,5215.423a.964.964,0,0,1,1.022.263,3.58,3.58,0,0,1,1.5-.986,3.5,3.5,0,0,1,4.414,2.208l.827,2.482a.872.872,0,1,1-1.655.552l-.827-2.482a1.745,1.745,0,0,0-3.311,1.1l.827,2.482a.872.872,0,1,1-1.656.551l-.827-2.481a3.34,3.34,0,0,1-.1-1.776,1,1,0,0,1-.828-.674A.978.978,0,0,1,546.927,5215.423Zm1.311-.982a.673.673,0,0,1-.38.327.655.655,0,0,1-.793-.914,1.893,1.893,0,0,1,1.146-1.043c.453-.151.953.143,1.224.053.221-.074.284-.182.388-.389a.675.675,0,0,1,.379-.328.646.646,0,0,1,.828.414.653.653,0,0,1-.035.5,1.9,1.9,0,0,1-1.147,1.042c-.452.15-.953-.142-1.224-.052C548.406,5214.126,548.341,5214.234,548.238,5214.441Z" transform="translate(-546.254 -5212.112)" fill="#f5ea14"/>
        </g>
        <g id="Grupo_3946" data-name="Grupo 3946" transform="translate(19.519 3.467)">
          <path id="Trazado_6061" data-name="Trazado 6061" d="M607.719,5211.252a3.49,3.49,0,1,1-2.078,4.477A3.5,3.5,0,0,1,607.719,5211.252Zm1.8,4.916a1.745,1.745,0,1,0-2.238-1.039A1.739,1.739,0,0,0,609.517,5216.168Z" transform="translate(-605.428 -5211.041)" fill="#f5ea14"/>
        </g>
      </g>
      <g id="Grupo_3950" data-name="Grupo 3950" transform="translate(198.222 4975.843)">
        <g id="Grupo_3949" data-name="Grupo 3949">
          <g id="Grupo_3948" data-name="Grupo 3948">
            <path id="Trazado_6062" data-name="Trazado 6062" d="M410,5283.636l-2.528-2.579a2.466,2.466,0,0,1-.6-.792.8.8,0,0,1,.586-1,.9.9,0,0,1,1.076.3l1.817,2,.349-2.69a.929.929,0,0,1,.726-.875.773.773,0,0,1,1.033.485,2.464,2.464,0,0,1-.035.994l-.982,6.149a.95.95,0,0,1-.726.875.774.774,0,0,1-1.033-.485,2.268,2.268,0,0,1,.047-1Z" transform="translate(-406.827 -5277.959)" fill="#f5ea14"/>
          </g>
        </g>
      </g>
    </g>
  </g>
</svg>
