<svg xmlns="http://www.w3.org/2000/svg" xmlns:xlink="http://www.w3.org/1999/xlink" width="139.999" height="96.06" viewBox="0 0 139.999 96.06"><defs><style>.a{fill:#fff;}.b{fill:#0f0e0b;}.c{filter:url(#a);}</style><filter id="a" x="0" y="0" width="139.999" height="96.06" filterUnits="userSpaceOnUse"><feOffset dy="8" input="SourceAlpha"/><feGaussianBlur stdDeviation="2.5" result="b"/><feFlood flood-opacity="0.161"/><feComposite operator="in" in2="b"/><feComposite in="SourceGraphic"/></filter></defs><g transform="translate(846.751 -1973.329)"><g class="c" transform="matrix(1, 0, 0, 1, -846.75, 1973.33)"><path class="a" d="M-830.94,1988.76a15.281,15.281,0,0,0-4.589,10.263l-3.722,40.436a13.5,13.5,0,0,0,13.505,13.505l80.427.869a4.814,4.814,0,0,0,.814.056,9.679,9.679,0,0,0,1.8-.175,23.859,23.859,0,0,0,4.049-1.122,30.515,30.515,0,0,0,7.185-3.505,25.634,25.634,0,0,0,6.4-6.612,47.842,47.842,0,0,0,5.826-11.335c4.635-12.822,6.222-25.5,4.01-37.973a28.241,28.241,0,0,0-3.741-10.113,15.5,15.5,0,0,0-8.875-6.686,63.094,63.094,0,0,0-13.22-2.436,181.432,181.432,0,0,0-27.106-.192,259.487,259.487,0,0,0-35.366,4.405,151.569,151.569,0,0,0-15.621,3.881,46.178,46.178,0,0,0-4.62,1.668,29.4,29.4,0,0,0-6.526,4.348" transform="translate(846.75 -1973.33)"/></g><path class="b" d="M-802.662,2036.471v-7.021l1.645-1.645h4.553l1.645,1.645v2.291h-2.849v-1.292l-.323-.323h-1.528l-.323.323v5.023l.352.353h1.5l.323-.323v-1.263h2.849v2.232l-1.645,1.645h-4.553Zm1.762,1.41h4.378l1.468-1.469v-1.938h-2.35v1.057l-.529.529h-1.615l-.529-.529v-5.141l.529-.529h1.615l.529.529v1.146h2.35v-2.027l-1.468-1.469h-4.407l-1.469,1.469v6.845Zm-1.2-1.674v-6.463l1.351-1.352h4l1.351,1.352v1.469h-1.7v-1l-.646-.646h-2.027l-.647.646v5.552l.647.646h2.027l.646-.646v-.94h1.733v1.41l-1.351,1.352h-4.025Z"/><path class="b" d="M-794,2038.116v-2.32h.617v-5.67H-794v-2.321h4.054v2.321h-.617v5.67h1.851v-.617h2.321v2.937Zm7.374-.235v-2.409h-1.822v.617h-2.379v-6.169h.646v-1.851h-3.584v1.822h.617v6.169h-.617v1.821Zm-6.816-.323v-1.175h.617v-6.815h-.617v-1.176h2.938v1.176h-.617v6.815h2.967v-.617h1.205v1.792Z"/><path class="b" d="M-785.829,2038.116v-2.32h.617l1.88-5.67h-.47v-2.321h5.494v2.321h-.529l1.88,5.67h.617v2.32h-3.937v-2.32h.353l-.176-.5h-1.969l-.176.5h.353v2.32Zm3.7-.235v-1.821h-.382l.235-.97h2.409l.235.97h-.382v1.821h3.466v-1.821h-.587l-1.969-6.169h.588v-1.822h-4.994v1.822h.5l-1.968,6.169h-.588v1.821Zm-3.144-.323v-1.175h.441l2.262-6.815h-.646v-1.176h4.347v1.176h-.734l2.262,6.815h.441v1.175h-2.821v-1.175h.559l-.529-1.616h-2.82l-.529,1.616h.558v1.175Zm5.288-3.643-1.116-3.349-1.146,3.349Zm-1.733-.293.646-2.057.617,2.057Zm.969-.265-.352-1-.323,1Z"/><path class="b" d="M-775.694,2036.471V2034.5h2.82v.969l.353.353h1.469l.352-.323v-1.028l-.323-.324h-3.026l-1.645-1.645v-3.055l1.645-1.645h4.554l1.645,1.645v2.027h-2.85v-1.028l-.323-.323h-1.527l-.324.323v1.057l.324.324h3.025l1.646,1.645v3l-1.646,1.645h-4.553Zm1.733,1.41h4.378l1.469-1.469v-2.879l-1.469-1.439h-3.026l-.5-.529v-1.175l.5-.529h1.645l.529.529v.852h2.35v-1.733l-1.469-1.469h-4.436l-1.469,1.469v2.938l1.469,1.468h3.026l.529.5v1.116l-.529.529h-1.616l-.529-.529v-.793h-2.35v1.674Zm-1.175-1.674v-1.146h1.7v.676l.647.646h2.027l.646-.646v-1.469l-.646-.676h-2.968l-1.38-1.381v-2.467l1.351-1.352h3.966l1.381,1.381v1.175h-1.7v-.7l-.646-.675h-2.027l-.647.646v1.557l.647.646h3l1.381,1.381v2.409l-1.352,1.351h-4.024Z"/><path class="b" d="M-767.028,2038.116v-2.32h.617v-5.67h-.617v-2.321h4.055v2.321h-.617v5.67h.617v2.32Zm3.82-.235v-1.821h-.647v-6.169h.647v-1.822h-3.555v1.822h.617v6.169h-.617v1.821Zm-3.261-.323v-1.175h.617v-6.815h-.617v-1.176h2.937v1.176h-.617v6.815h.617v1.175Z"/><path class="b" d="M-762.239,2036.471v-7.021l1.645-1.645h4.554l1.645,1.645v2.291h-2.85v-1.292l-.323-.323H-759.1l-.323.323v5.023l.353.353h1.5l.323-.323v-1.263h2.85v2.232l-1.645,1.645h-4.554Zm1.763,1.41h4.377l1.469-1.469v-1.938h-2.35v1.057l-.529.529h-1.616l-.529-.529v-5.141l.529-.529h1.616l.529.529v1.146h2.35v-2.027l-1.469-1.469h-4.407l-1.469,1.469v6.845Zm-1.205-1.674v-6.463l1.352-1.352h3.995l1.351,1.352v1.469h-1.7v-1l-.646-.646h-2.027l-.646.646v5.552l.646.646h2.027l.646-.646v-.94h1.734v1.41l-1.352,1.352h-4.024Z"/><path class="b" d="M-753.279,2036.471v-7.021l1.645-1.645h4.554l1.645,1.645v7.021l-1.645,1.645h-4.554Zm1.763,1.381h4.377l1.469-1.469v-6.815l-1.5-1.5h-4.348l-1.469,1.469v6.845Zm-1.175-1.645v-6.463l1.351-1.352h4l1.352,1.352v6.463l-1.352,1.351h-4Zm2.32.176h2.027l.647-.646v-5.523l-.647-.646h-2.027l-.646.646v5.552Zm-.323-.822v-5.171l.529-.529h1.645l.529.529v5.171l-.529.528h-1.645Zm.588.264h1.5l.323-.323v-5.024l-.323-.323h-1.528l-.323.323v5.024Z"/><path class="b" d="M-812.269,2023.516v-4.789h1.293v-11.751h-1.293v-4.818h13.22l3.408,3.408v5.494l-1.41,1.381,1.41,1.41v4.876h1.293v4.789h-7.139v-8.02l-.676-.647h-2.967v3.878h1.293v4.789Zm7.9-.529v-3.79h-1.293v-4.876h3.731l.94.94v7.726h6.081v-3.79h-1.263v-5.141l-1.616-1.645,1.616-1.645v-4.994l-3.114-3.114H-811.74v3.79h1.234V2019.2h-1.263v3.79Zm-6.7-.676v-2.438h1.263v-14.1h-1.263v-2.438h11.457l2.761,2.82v4.289l-1.909,1.939,1.909,1.939v5.523h1.293v2.438h-4.788v-7.315l-1.322-1.322h-4.613v6.2h1.293v2.438h-6.081Zm9.371-11.075,1.352-1.351v-2.85l-1.322-1.293h-4.613v5.465h4.583Zm-3.966-.676v-4.112h3.555l1.087,1.086v1.939l-1.087,1.058h-3.555Zm3.467-.5.705-.676v-1.7l-.705-.705h-2.938v3.085Z"/><path class="b" d="M-793.291,2020.079v-14.513l3.408-3.408h9.4l3.407,3.408v14.513l-3.407,3.407h-9.4Zm3.584,2.879h9.048l3.056-3.056v-14.13l-3.114-3.114h-8.99l-3.055,3.055V2019.9Zm-2.409-3.438v-13.366l2.82-2.82h8.255l2.821,2.82v13.366l-2.821,2.821H-789.3Zm4.818.353h4.2l1.322-1.322v-11.428l-1.351-1.351H-787.3l-1.322,1.322v11.457Zm-.646-1.7v-10.693l1.057-1.058h3.408l1.058,1.058v10.664l-1.058,1.057h-3.408Zm1.2.558h3.114l.676-.675v-10.4l-.676-.676h-3.143l-.676.676v10.37Z"/><path class="b" d="M-774.93,2020.079v-14.513l3.408-3.408h9.4l3.408,3.408v4.759h-5.875v-2.673l-.676-.676h-3.143l-.676.676v10.37l.7.705h3.114l.676-.675V2015.5h5.875v4.612l-3.408,3.408h-9.4Zm3.643,2.908h9.048l3.026-3.026v-4h-4.847v2.174l-1.058,1.057H-768.5l-1.058-1.057v-10.635l1.058-1.057h3.349l1.057,1.057v2.35h4.847v-4.171l-3.055-3.056h-9.107l-3.026,3.056v14.189Zm-2.439-3.467v-13.366l2.821-2.82h8.255l2.82,2.82v3.026h-3.525v-2.057l-1.352-1.351h-4.171l-1.322,1.322v11.457l1.322,1.322h4.171l1.352-1.351v-1.91h3.613v2.908l-2.82,2.821h-8.314Z"/><path class="b" d="M-757.421,2023.516v-4.789h1.292v-11.751h-1.292v-4.818h8.431v4.818h-1.292V2010l3.025-3.026h-.528v-4.818h10.135v4.818h-1.763l-5.787,5.788,5.934,5.934h1.616v4.788h-10.135V2018.7h.587l-2.086-2.086-.969.97v1.087h1.293v4.788h-8.461Zm7.932-.529v-3.79h-1.322v-1.7l1.527-1.527,3.232,3.231h-1.234v3.79h9.048v-3.79h-1.292l-6.434-6.433,6.316-6.316h1.44v-3.79h-9.078v3.79h1.234l-4.759,4.759v-4.759h1.292v-3.79h-7.373v3.79h1.263V2019.2h-1.263v3.79Zm-6.728-.676v-2.438h1.264v-14.1h-1.264v-2.438h6.081v2.438h-1.292v7.08l7.08-7.08h-2.262v-2.438h7.785v2.438h-1.293l-7.05,7.05,7.05,7.051h1.293v2.438h-7.785v-2.438h2.291l-4.906-4.935-2.2,2.232v2.7h1.322v2.438Z"/><path class="b" d="M-778.514,2027.012h-1.175l1.146-1.028h1.263Z"/><path class="b" d="M-778.367,2027.54h-2.615l2.321-2.056h2.615Zm-2.115-.176h2.027l1.88-1.674H-778.6Z"/></g></svg>