<svg xmlns="http://www.w3.org/2000/svg" xmlns:xlink="http://www.w3.org/1999/xlink" width="143" height="98.56" viewBox="0 0 143 98.56">
  <defs>
    <filter id="Trazado_2281" x="0" y="0" width="143" height="98.56" filterUnits="userSpaceOnUse">
      <feOffset dy="3" input="SourceAlpha"/>
      <feGaussianBlur stdDeviation="3" result="blur"/>
      <feFlood flood-opacity="0.161"/>
      <feComposite operator="in" in2="blur"/>
      <feComposite in="SourceGraphic"/>
    </filter>
  </defs>
  <g id="Grupo_3953" data-name="Grupo 3953" transform="translate(-617.92 -1276.172)">
    <g transform="matrix(1, 0, 0, 1, 617.92, 1276.17)" filter="url(#Trazado_2281)">
      <path id="Trazado_2281-2" data-name="Trazado 2281" d="M-1095.334,1926.089a15.286,15.286,0,0,0-4.588,10.263l-3.723,40.437a13.505,13.505,0,0,0,13.505,13.505l80.427.869a4.928,4.928,0,0,0,.814.055,9.589,9.589,0,0,0,1.8-.175,23.733,23.733,0,0,0,4.049-1.122,30.52,30.52,0,0,0,7.185-3.505,25.637,25.637,0,0,0,6.4-6.611,47.845,47.845,0,0,0,5.826-11.335c4.635-12.823,6.223-25.5,4.01-37.974a28.234,28.234,0,0,0-3.74-10.112,15.5,15.5,0,0,0-8.876-6.687,63.028,63.028,0,0,0-13.22-2.435,181.43,181.43,0,0,0-27.106-.193,259.509,259.509,0,0,0-35.366,4.406,151.444,151.444,0,0,0-15.621,3.881,46.309,46.309,0,0,0-4.62,1.668,29.485,29.485,0,0,0-6.526,4.347" transform="translate(1112.65 -1904.66)" fill="#fff"/>
    </g>
    <g id="Grupo_3952" data-name="Grupo 3952" transform="translate(57.516 1061.25)">
      <path id="Trazado_6063" data-name="Trazado 6063" d="M718.318,560.74l-34.011,9.923-.445-18.35,34.282-8.994Z" transform="translate(-86.901 -283.258)" fill="#cbab32"/>
      <path id="Trazado_6064" data-name="Trazado 6064" d="M714.039,567.143,686.5,581.925l-.164-7.968,21.746-17.932Z" transform="translate(-89.095 -294.522)" fill="#a98631"/>
      <circle id="Elipse_29" data-name="Elipse 29" cx="26.522" cy="26.522" r="26.522" transform="translate(606.818 261.258) rotate(-45)" fill="#1e1a19"/>
      <path id="Trazado_6065" data-name="Trazado 6065" d="M624.944,499.566l-38.617,11.266L585.822,490l38.925-10.212Z" transform="translate(0 -226.944)" fill="#f4cf00"/>
      <path id="Trazado_6066" data-name="Trazado 6066" d="M951.753,312.382a11.1,11.1,0,0,0-7.441,6.1l-.254.066c-.246-6.515,1.985-12.871,8.886-16.186a39.158,39.158,0,0,1,4.429-1.711l-2.067-7.969a43.517,43.517,0,0,0-5.444,1.974,26.824,26.824,0,0,0-11.727,10.1c-3.825,6.127-5.907,14.45-3.138,25.125,3.14,12.1,11.567,18.5,21.967,15.8,10.737-2.785,13.379-12.778,11.156-21.348C965.722,315.1,959.193,310.451,951.753,312.382Zm3.268,26.463c-3.4.883-7.3-2.768-8.7-8.155s.23-10.47,3.634-11.354,7.3,2.768,8.7,8.155S958.425,337.961,955.021,338.844Z" transform="translate(-308.377 -61.103)" fill="#2f292b" opacity="0.2"/>
      <path id="Trazado_6067" data-name="Trazado 6067" d="M967.473,322.148a10.781,10.781,0,0,0-7.224,5.925l-.246.064c-.239-6.326,1.927-12.5,8.627-15.714a38.025,38.025,0,0,1,4.3-1.661l-2.007-7.736a42.259,42.259,0,0,0-5.285,1.916,26.044,26.044,0,0,0-11.385,9.808c-3.713,5.949-5.735,14.029-3.046,24.393,3.048,11.751,11.231,17.963,21.327,15.344,10.425-2.7,12.99-12.406,10.831-20.726C981.036,324.784,974.7,320.274,967.473,322.148Zm3.172,25.692c-3.306.857-7.085-2.687-8.442-7.918s.223-10.166,3.529-11.023,7.085,2.687,8.442,7.918S973.951,346.982,970.646,347.84Z" transform="translate(-322.777 -70.268)" fill="#fff"/>
      <g id="Grupo_3951" data-name="Grupo 3951" transform="translate(589.908 255.279)">
        <path id="Trazado_6068" data-name="Trazado 6068" d="M628.385,584.459a3.454,3.454,0,0,1-2.782,3.983q-2.494.658-3.053-1.461a5.1,5.1,0,0,1-.147-.945l-.606-9.283a3.44,3.44,0,0,1,2.777-3.974q2.5-.659,3.06,1.459a5.063,5.063,0,0,1,.145.937l.13,2.043-2.082.549-.129-2.043q-.072-1.02-.979-.788l-.015,0a1.068,1.068,0,0,0-.824,1.264l.606,9.283q.066,1.029.972.79a1.085,1.085,0,0,0,.846-1.269l-.13-2.043,2.082-.549Z" transform="translate(-621.783 -564.513)" fill="#1e1a19"/>
        <path id="Trazado_6069" data-name="Trazado 6069" d="M691.043,592.258l-1.464.386-.555-1.089a2.49,2.49,0,0,1-1.568,1.9A1.77,1.77,0,0,1,685.035,592a5.9,5.9,0,0,1-.167-1.113l-.066-1q-.211-3.186,2.076-3.8a2.321,2.321,0,0,1,1.645.062l-.181-2.714q-.067-1.029-.964-.792l-.015,0a1.05,1.05,0,0,0-.757,1.246l.031.417-2.082.549-.031-.417a3.411,3.411,0,0,1,2.71-3.956q2.487-.656,3.042,1.449a5.221,5.221,0,0,1,.149.952Zm-4.094-1.919q.067,1.029.979.789a1.081,1.081,0,0,0,.838-1.268l-.068-1q-.072-1.02-.97-.783a1.085,1.085,0,0,0-.846,1.269Z" transform="translate(-677.383 -571.349)" fill="#1e1a19"/>
        <path id="Trazado_6070" data-name="Trazado 6070" d="M744.1,576.556l-.813-12.3,1.464-.386.562,1.087a2.472,2.472,0,0,1,1.561-1.9,1.77,1.77,0,0,1,2.422,1.455,5.914,5.914,0,0,1,.167,1.113l.618,9.358-2.082.549-.618-9.358q-.067-1.029-.979-.789a1.081,1.081,0,0,0-.839,1.268l.618,9.358Z" transform="translate(-729.48 -555.942)" fill="#1e1a19"/>
        <path id="Trazado_6071" data-name="Trazado 6071" d="M812.011,558.151l-1.464.386-.555-1.089a2.49,2.49,0,0,1-1.568,1.9A1.77,1.77,0,0,1,806,557.894a5.907,5.907,0,0,1-.167-1.113l-.066-1q-.21-3.186,2.076-3.8a2.321,2.321,0,0,1,1.645.062l-.181-2.714q-.067-1.029-.964-.792l-.015,0a1.05,1.05,0,0,0-.757,1.246l.031.417-2.082.549-.031-.417a3.411,3.411,0,0,1,2.71-3.956q2.487-.656,3.042,1.449a5.221,5.221,0,0,1,.149.952Zm-4.094-1.919q.067,1.029.979.788a1.081,1.081,0,0,0,.838-1.268l-.068-1q-.072-1.02-.969-.783a1.085,1.085,0,0,0-.846,1.27Z" transform="translate(-784.606 -541.118)" fill="#1e1a19"/>
        <path id="Trazado_6072" data-name="Trazado 6072" d="M864.206,501.245l1.055,16.057-2.082.549-1.055-16.058Z" transform="translate(-834.817 -501.245)" fill="#1e1a19"/>
      </g>
    </g>
  </g>
</svg>
