<svg xmlns="http://www.w3.org/2000/svg" xmlns:xlink="http://www.w3.org/1999/xlink" width="143" height="98.56" viewBox="0 0 143 98.56"><defs><style>.a{fill:#fff;}.b,.c{fill:#f5720e;}.c{font-size:23.281px;font-family:Helvetica;letter-spacing:0.04em;}.d{filter:url(#a);}</style><filter id="a" x="0" y="0" width="143" height="98.56" filterUnits="userSpaceOnUse"><feOffset dy="3" input="SourceAlpha"/><feGaussianBlur stdDeviation="3" result="b"/><feFlood flood-opacity="0.161"/><feComposite operator="in" in2="b"/><feComposite in="SourceGraphic"/></filter></defs><g transform="translate(-1024.336 -1087.403)"><g class="d" transform="matrix(1, 0, 0, 1, 1024.34, 1087.4)"><path class="a" d="M-688.918,1737.32a15.287,15.287,0,0,0-4.588,10.263l-3.723,40.437a13.506,13.506,0,0,0,13.505,13.505l80.428.869a4.948,4.948,0,0,0,.813.056,9.755,9.755,0,0,0,1.8-.175,23.82,23.82,0,0,0,4.049-1.122,30.59,30.59,0,0,0,7.185-3.505,25.656,25.656,0,0,0,6.4-6.612,47.879,47.879,0,0,0,5.825-11.335c4.635-12.822,6.223-25.5,4.01-37.974a28.24,28.24,0,0,0-3.74-10.112,15.5,15.5,0,0,0-8.876-6.687,63.027,63.027,0,0,0-13.22-2.435,181.4,181.4,0,0,0-27.1-.193,259.506,259.506,0,0,0-35.367,4.406,151.41,151.41,0,0,0-15.621,3.881,46.261,46.261,0,0,0-4.62,1.668,29.448,29.448,0,0,0-6.526,4.348" transform="translate(706.23 -1715.89)"/></g><g transform="translate(1731.565 -622.487)"><path class="b" d="M-648.45,1746.6a2.065,2.065,0,0,1-1.515-.619,2.066,2.066,0,0,1-.62-1.513,2.068,2.068,0,0,1,.62-1.513,2.054,2.054,0,0,1,1.515-.619h20.356a1.958,1.958,0,0,1,1.583.653,2.24,2.24,0,0,1,.546,1.479,2.615,2.615,0,0,1-.2,1.031l-17.949,39.612a2.162,2.162,0,0,1-1.927,1.1,1.929,1.929,0,0,1-1.549-.687,2.214,2.214,0,0,1-.586-1.445,2.082,2.082,0,0,1,.276-1.031l16.231-36.449Z"/><path class="b" d="M-646.044,1789.1a4.832,4.832,0,0,1-3.752-1.707,5.11,5.11,0,0,1-1.268-3.31,4.929,4.929,0,0,1,.648-2.442l14.3-32.153H-648.45a4.923,4.923,0,0,1-3.555-1.465,4.922,4.922,0,0,1-1.464-3.552,4.925,4.925,0,0,1,1.464-3.552,4.909,4.909,0,0,1,3.555-1.465h20.356a4.779,4.779,0,0,1,3.78,1.668,5.151,5.151,0,0,1,1.234,3.349,5.565,5.565,0,0,1-.428,2.149l-17.984,39.685A5.161,5.161,0,0,1-646.044,1789.1Z"/><text class="c" transform="translate(-600.199 1791.22) rotate(-90)"><tspan x="0" y="0">SIETE</tspan></text></g></g></svg>