<svg xmlns="http://www.w3.org/2000/svg" xmlns:xlink="http://www.w3.org/1999/xlink" width="143" height="98.56" viewBox="0 0 143 98.56"><defs><style>.a{fill:#fff;}.b{fill:#c1831a;}.c{fill:#0e1e4a;}.d{filter:url(#a);}</style><filter id="a" x="0" y="0" width="143" height="98.56" filterUnits="userSpaceOnUse"><feOffset dy="3" input="SourceAlpha"/><feGaussianBlur stdDeviation="3" result="b"/><feFlood flood-opacity="0.161"/><feComposite operator="in" in2="b"/><feComposite in="SourceGraphic"/></filter></defs><g transform="translate(-1159.756 -1275.554)"><g class="d" transform="matrix(1, 0, 0, 1, 1159.76, 1275.55)"><path class="a" d="M-553.5,1925.471a15.287,15.287,0,0,0-4.588,10.263l-3.723,40.437a13.5,13.5,0,0,0,13.505,13.5l80.428.87a4.9,4.9,0,0,0,.813.055,9.589,9.589,0,0,0,1.8-.175,23.821,23.821,0,0,0,4.049-1.122,30.514,30.514,0,0,0,7.185-3.505,25.652,25.652,0,0,0,6.4-6.611,47.864,47.864,0,0,0,5.825-11.336c4.635-12.822,6.223-25.5,4.01-37.973a28.244,28.244,0,0,0-3.74-10.113,15.5,15.5,0,0,0-8.876-6.686,63.027,63.027,0,0,0-13.22-2.435,181.282,181.282,0,0,0-27.106-.193,259.493,259.493,0,0,0-35.366,4.406,151.383,151.383,0,0,0-15.621,3.881,46.261,46.261,0,0,0-4.62,1.668,29.477,29.477,0,0,0-6.526,4.347" transform="translate(570.81 -1904.04)"/></g><g transform="translate(1730.565 -628.487)"><path class="b" d="M-541.139,1942.861l.987,3.066a10.416,10.416,0,0,1,1.393-.446l-.989-3.068A13.832,13.832,0,0,0-541.139,1942.861Zm-1.511,4.438-2.05-2.485c-.39.291-.767.6-1.128.929l2.054,2.487A11.472,11.472,0,0,1-542.65,1947.3Zm-4.524,7.125-3.194-.391a14.112,14.112,0,0,0-.18,1.451l3.2.391A11.37,11.37,0,0,1-547.174,1954.424Zm10.548-9.271-.393-3.2q-.737.054-1.453.177l.394,3.2A11.508,11.508,0,0,1-536.626,1945.153Zm-9.947,7.191-3.066-.991c-.172.452-.32.919-.448,1.392l3.064.989A11.811,11.811,0,0,1-546.573,1952.344Zm.981-1.923-2.823-1.549c-.256.414-.493.843-.708,1.281l2.825,1.551A11.717,11.717,0,0,1-545.592,1950.421Zm1.324-1.7-2.482-2.054a14.291,14.291,0,0,0-.932,1.125l2.482,2.055A11.072,11.072,0,0,1-544.268,1948.721Zm19.362,5.024,3.065-.99a13.319,13.319,0,0,0-.448-1.39l-3.065.987A11.19,11.19,0,0,1-524.906,1953.745Zm-.725-2.032,2.829-1.549c-.214-.441-.448-.866-.7-1.283l-2.827,1.548A11.584,11.584,0,0,1-525.631,1951.713Zm-9.672-6.56a11.537,11.537,0,0,1,1.451.178l.394-3.2c-.479-.082-.962-.141-1.452-.177Zm10.721,10.722,3.2-.391a13.342,13.342,0,0,0-.176-1.451l-3.2.391A11.744,11.744,0,0,1-524.582,1955.875Zm-2.142-6.021,2.483-2.05a14.193,14.193,0,0,0-.93-1.127l-2.486,2.051A11.557,11.557,0,0,1-526.724,1949.854Zm-1.427-1.617,2.057-2.485c-.362-.329-.736-.639-1.128-.93l-2.052,2.48A10.8,10.8,0,0,1-528.151,1948.237Zm-2.631-5.373q-.68-.258-1.391-.451l-.988,3.068a11.978,11.978,0,0,1,1.389.448Zm.933,4.048,1.549-2.827c-.416-.254-.842-.492-1.28-.7l-1.551,2.829A10.993,10.993,0,0,1-529.849,1946.912Zm-10.941-.711-1.55-2.826a14.452,14.452,0,0,0-1.28.706l1.55,2.823A11.889,11.889,0,0,1-540.79,1946.2Zm11.509,19.577,2.05,2.484c.392-.294.764-.6,1.127-.932l-2.051-2.484A12.093,12.093,0,0,1-529.281,1965.778Zm-1.86,1.094,1.546,2.825a13.5,13.5,0,0,0,1.285-.7l-1.55-2.827A11.008,11.008,0,0,1-531.141,1966.872Zm3.479-2.517,2.482,2.053q.493-.539.933-1.125l-2.483-2.054A12.393,12.393,0,0,1-527.662,1964.355Zm-5.512,3.241.989,3.067c.473-.128.94-.278,1.392-.446l-.988-3.067A11.227,11.227,0,0,1-533.174,1967.6Zm8.418-8.948,3.2.4a13.336,13.336,0,0,0,.176-1.451l-3.2-.393A11.686,11.686,0,0,1-524.756,1958.648Zm-10.547,9.273.393,3.2c.49-.036.973-.095,1.452-.177l-.394-3.2A10.858,10.858,0,0,1-535.3,1967.921Zm8.964-5.268,2.824,1.546a13.564,13.564,0,0,0,.7-1.279l-2.823-1.547A11.906,11.906,0,0,1-526.339,1962.653Zm.98-1.921,3.064.989a13.751,13.751,0,0,0,.451-1.391l-3.067-.99A10.966,10.966,0,0,1-525.359,1960.732Zm-15.789,9.476a13.013,13.013,0,0,0,1.39.449l.99-3.066a10.746,10.746,0,0,1-1.393-.448Zm-2.635-5.369-2.052,2.482a14.366,14.366,0,0,0,1.125.934l2.054-2.482A11.545,11.545,0,0,1-543.783,1964.839Zm-1.423-1.618-2.485,2.051c.293.391.6.764.93,1.124l2.487-2.049A12.231,12.231,0,0,1-545.206,1963.221Zm-1.093-1.858-2.829,1.547c.215.438.449.866.7,1.28l2.828-1.546A11.6,11.6,0,0,1-546.3,1961.363Zm-.726-2.031-3.065.986a13.624,13.624,0,0,0,.449,1.393l3.066-.988A11.025,11.025,0,0,1-547.025,1959.332Zm4.945,6.832-1.551,2.824c.414.254.843.49,1.281.7l1.55-2.826A11.65,11.65,0,0,1-542.08,1966.164Zm3.608,4.78q.717.123,1.453.177l.393-3.2a10.833,10.833,0,0,1-1.452-.179Zm-8.876-13.745-3.2.393a14.105,14.105,0,0,0,.18,1.451l3.194-.4A11.314,11.314,0,0,1-547.348,1957.2Z"/><path class="c" d="M-511.9,1951.484v2.217h2.152v1.665h-2.17v3.371a.969.969,0,0,0,1.016,1.108,2.2,2.2,0,0,0,.934-.238l.54,1.646a4.318,4.318,0,0,1-1.6.337,2.528,2.528,0,0,1-2.806-2.853v-3.371h-1.454V1953.7h1.454v-2.013Z"/><path class="c" d="M-499.874,1953.614l-3.325,7.856h-2.09l-3.341-7.856h2.108l1.074,2.584,1.2,3.29,1.186-3.259,1.077-2.615Z"/><path class="c" d="M-491.423,1953.657v4.086a1.86,1.86,0,0,0,1.883,2.087,2.051,2.051,0,0,0,2-2.185v-3.988h1.916v7.824h-1.321l-.528-1.065a3.476,3.476,0,0,1-2.647,1.174c-1.869,0-3.229-1.409-3.229-3.833v-4.1Z"/><path class="c" d="M-477.717,1961.465v-4.088a1.859,1.859,0,0,0-1.878-2.092,2.057,2.057,0,0,0-2,2.19v3.99h-1.916v-7.828h1.322l.531,1.061a3.523,3.523,0,0,1,2.568-1.168c1.833,0,3.307,1.375,3.307,3.833v4.1Z"/><path class="c" d="M-458.441,1961.465v-4.183c0-1.031-.536-1.962-1.594-1.962a1.779,1.779,0,0,0-1.663,1.962v4.183h-1.931v-7.828h1.385l.546.953a2.261,2.261,0,0,1,2.058-1.074,2.334,2.334,0,0,1,2.31,1.454,2.826,2.826,0,0,1,2.613-1.421c2.221,0,3.31,1.356,3.31,3.7v4.212h-1.932v-4.212c0-1.031-.427-1.9-1.472-1.9a1.775,1.775,0,0,0-1.7,1.93v4.183Z"/><path class="c" d="M-467.291,1953.549l-.468,1.073a2.855,2.855,0,0,0-2.481-1.267,3.8,3.8,0,0,0-4.072,4.083,3.776,3.776,0,0,0,4.021,4.152,2.962,2.962,0,0,0,2.532-1.376l.1,1.25h1.822v-7.915Zm-2.949,6.422a2.454,2.454,0,0,1-2.454-2.458,2.454,2.454,0,0,1,2.454-2.456,2.453,2.453,0,0,1,2.452,2.456A2.454,2.454,0,0,1-470.24,1959.971Z"/><path class="b" d="M-497.29,1958.966a1.644,1.644,0,0,1-1.644-1.643,1.641,1.641,0,0,1,1.644-1.642,1.638,1.638,0,0,1,1.639,1.642A1.641,1.641,0,0,1-497.29,1958.966Z"/></g></g></svg>