<svg xmlns="http://www.w3.org/2000/svg" xmlns:xlink="http://www.w3.org/1999/xlink" width="138" height="110" viewBox="0 0 138 110">
  <defs>
    <linearGradient id="linear-gradient" x1="0.5" y1="0.31" x2="0.5" y2="1" gradientUnits="objectBoundingBox">
      <stop offset="0" stop-color="#fff"/>
      <stop offset="1" stop-color="#bfbfbf"/>
    </linearGradient>
    <filter id="Rectángulo_3581" x="0" y="0" width="138" height="110" filterUnits="userSpaceOnUse">
      <feOffset dy="3" input="SourceAlpha"/>
      <feGaussianBlur stdDeviation="4" result="blur"/>
      <feFlood flood-opacity="0.424"/>
      <feComposite operator="in" in2="blur"/>
      <feComposite in="SourceGraphic"/>
    </filter>
    <filter id="Rectángulo_3581-2" x="0" y="69" width="138" height="41" filterUnits="userSpaceOnUse">
      <feOffset dy="3" input="SourceAlpha"/>
      <feGaussianBlur stdDeviation="4" result="blur-2"/>
      <feFlood flood-opacity="0.424"/>
      <feComposite operator="in" in2="blur-2"/>
      <feComposite in="SourceGraphic"/>
    </filter>
  </defs>
  <g id="Grupo_5193" data-name="Grupo 5193" transform="translate(-591 -1051)">
    <g id="Componente_19_169" data-name="Componente 19 – 169" transform="translate(603 1060)">
      <g transform="matrix(1, 0, 0, 1, -12, -9)" filter="url(#Rectángulo_3581)">
        <rect id="Rectángulo_3581-3" data-name="Rectángulo 3581" width="114" height="86" rx="5" transform="translate(12 9)" fill="url(#linear-gradient)"/>
      </g>
    </g>
    <g id="Grupo_5178" data-name="Grupo 5178" transform="translate(367.449 624.292)">
      <path id="Trazado_8568" data-name="Trazado 8568" d="M322.881,458.708H308.238l-4.5,8.245-4.6-8.245-36.589.005V495.6h12.837v-12.02h12.549V473.563H275.388V469.1h16.167l4.876,7.247L284.606,495.6h14.51l4.621-8.737L308.5,495.6h14.438l-11.823-19.256,11.761-17.641" transform="translate(0 0)" fill="#161615"/>
    </g>
    <g id="Grupo_5180" data-name="Grupo 5180" transform="translate(62)">
      <g transform="matrix(1, 0, 0, 1, 529, 1051)" filter="url(#Rectángulo_3581-2)">
      </g>
    </g>
  </g>
</svg>
