<svg xmlns="http://www.w3.org/2000/svg" xmlns:xlink="http://www.w3.org/1999/xlink" width="138" height="110" viewBox="0 0 138 110"><defs><style>.a{fill:none;}.b{fill:url(#a);}.c{clip-path:url(#d);}.d{fill:#002d5e;}.e{fill:#29cbb9;}.f{filter:url(#b);}</style><linearGradient id="a" x1="0.5" y1="0.31" x2="0.5" y2="1" gradientUnits="objectBoundingBox"><stop offset="0" stop-color="#fff"/><stop offset="1" stop-color="#bfbfbf"/></linearGradient><filter id="b" x="0" y="0" width="138" height="110" filterUnits="userSpaceOnUse"><feOffset dy="3" input="SourceAlpha"/><feGaussianBlur stdDeviation="4" result="c"/><feFlood flood-opacity="0.424"/><feComposite operator="in" in2="c"/><feComposite in="SourceGraphic"/></filter><clipPath id="d"><rect class="a" width="86.281" height="20.969"/></clipPath></defs><g transform="translate(-894 -1051)"><g transform="translate(906 1060)"><g class="f" transform="matrix(1, 0, 0, 1, -12, -9)"><rect class="b" width="114" height="86" rx="5" transform="translate(12 9)"/></g></g><g transform="translate(783.356 616.779)"><g transform="translate(136.644 476.221)"><g class="c"><g class="c"><path class="d" d="M193.557,486.5a7.036,7.036,0,0,0-1.7-1.232,14.63,14.63,0,0,0-2.286-.954,8.4,8.4,0,0,1-1.565-.644.957.957,0,0,1-.529-.868,1.1,1.1,0,0,1,.629-1.037,2.953,2.953,0,0,1,1.415-.337h.018a6.315,6.315,0,0,1,2.593.614,6.5,6.5,0,0,1,1.9,1.329l2.635-4.687a5.725,5.725,0,0,0-1.317-1.01,10.3,10.3,0,0,0-1.71-.771,12.692,12.692,0,0,0-1.961-.5,12.123,12.123,0,0,0-2.1-.183,11.013,11.013,0,0,0-3.544.546,9.258,9.258,0,0,0-1.746.794l.446-.78h-7.543l-6.014,12.541h-.115l-.9-12.541H155.594l-5.2,10.961h-.142l-1.752-10.961h-8.332l-3.53,20h6.1l1.725-11.578h.139l1.781,11.578h4.6l5.9-11.578h.168l-2.23,11.578h6.353l2.652-15.019L166,496.778h7.287l7.546-13.194a5.127,5.127,0,0,0,.39,1.979,4.489,4.489,0,0,0,1.078,1.512,6.568,6.568,0,0,0,1.624,1.081,15.577,15.577,0,0,0,2,.783,6.088,6.088,0,0,1,1.834.812,1.136,1.136,0,0,1,.49.9,1.012,1.012,0,0,1-.588.936,3.262,3.262,0,0,1-1.568.322,4.34,4.34,0,0,1-.981-.124c-.213-.05-.425-.112-.635-.183h0a6.478,6.478,0,0,1-1.6-.824,6.19,6.19,0,0,1-1.893-2.073l-2.98,5.334a10.475,10.475,0,0,0,7.5,3.125h.035c.195.009.39.012.585.012a12.585,12.585,0,0,0,3.048-.39,9.5,9.5,0,0,0,2.859-1.235,6.916,6.916,0,0,0,2.135-2.183,6.032,6.032,0,0,0,.836-3.252,5.153,5.153,0,0,0-.375-2.014,5.028,5.028,0,0,0-1.075-1.6" transform="translate(-136.643 -476.222)"/><path class="e" d="M177.081,479.822l-3.6,8.483h-.106l-.543-8.483h-7.626l.452-2.768h-5.133l-3.851,6.829h2.112l-1.048,6.259c-.035.233-.065.484-.095.756s-.038.517-.038.73a3.993,3.993,0,0,0,.419,1.952,3.249,3.249,0,0,0,1.1,1.2,4.345,4.345,0,0,0,1.542.611,8.736,8.736,0,0,0,1.757.177,10.7,10.7,0,0,0,1.731-.148,3.416,3.416,0,0,0,1.246-.378l.73-4.49q-.217.057-.54.115a3.474,3.474,0,0,1-.65.059,1.5,1.5,0,0,1-.88-.219,1.029,1.029,0,0,1-.31-.889c0-.1,0-.221.012-.378s.024-.292.041-.408l.83-4.947h2.46l1.769,11.271h6.6l8.332-15.332Z" transform="translate(-97.511 -474.594)"/></g></g></g></g></g></svg>