<svg xmlns="http://www.w3.org/2000/svg" xmlns:xlink="http://www.w3.org/1999/xlink" width="138" height="110" viewBox="0 0 138 110"><defs><style>.a{fill:url(#a);}.b{fill:#100f0c;}.c{filter:url(#b);}</style><linearGradient id="a" x1="0.5" y1="0.31" x2="0.5" y2="1" gradientUnits="objectBoundingBox"><stop offset="0" stop-color="#fff"/><stop offset="1" stop-color="#bfbfbf"/></linearGradient><filter id="b" x="0" y="0" width="138" height="110" filterUnits="userSpaceOnUse"><feOffset dy="3" input="SourceAlpha"/><feGaussianBlur stdDeviation="4" result="c"/><feFlood flood-opacity="0.424"/><feComposite operator="in" in2="c"/><feComposite in="SourceGraphic"/></filter></defs><g transform="translate(-771 -1051)"><g transform="translate(783 1060)"><g class="c" transform="matrix(1, 0, 0, 1, -12, -9)"><rect class="a" width="114" height="86" rx="5" transform="translate(12 9)"/></g></g><g transform="translate(662.2 592.588)"><g transform="translate(135.8 495.412)"><path class="b" d="M151.14,507.712a3.474,3.474,0,1,0,3.5,3.475,3.489,3.489,0,0,0-3.5-3.475m0-12.3a15.341,15.341,0,1,0,15.342,15.342,15.34,15.34,0,0,0-15.342-15.342m0,23.679a7.893,7.893,0,0,1-3.376-15.061v-1.706a3.377,3.377,0,0,1,6.755,0L154.46,504a7.894,7.894,0,0,1-3.321,15.089" transform="translate(-135.8 -495.412)"/><path class="b" d="M166.013,503.069a4.033,4.033,0,0,0-4.261-3.974H158.17v11.473h2.494v-3.533h1.089a4.028,4.028,0,0,0,4.261-3.966m-4.55,1.709h-.8v-3.426h.8c2.053,0,2.053,1.3,2.053,1.717s0,1.709-2.053,1.709m-7.411-.967-1.524-.493c-1.364-.435-1.364-.879-1.364-1.094,0-.331.157-1.094,1.6-1.094a5.064,5.064,0,0,1,3.384,1.3,12.292,12.292,0,0,1,1.086-1.874,5.861,5.861,0,0,0-4.454-1.736c-2.494,0-4.3,1.45-4.3,3.448,0,1.585,1.011,2.7,3.087,3.387l1.541.515c.984.331,1.483.717,1.483,1.138,0,.593-.741,1.056-1.692,1.056-1.549,0-1.841-.708-1.918-1.405h-2.7l.005.118c.209,2.254,1.9,3.6,4.531,3.6s4.462-1.433,4.462-3.472c0-1.571-1.083-2.712-3.222-3.39m44.247,5.17-.331.65-.328-.65h-.353v1.466h.355v-.7l.209.361h.234l.2-.361v.7h.364v-1.466H198.3m-11.735,1.587h7.695v-2.34h-5.082v-2.282h5.082V503.61h-5.082v-2.177h5.082V499.1h-7.695v11.473M169.235,499.1l-3.682,8.557-1.163,2.709-.088.207h2.731s.785-1.907.992-2.417h4.363c.209.51.995,2.417.995,2.417h2.723l-4.93-11.473h-1.94m-.278,6.8c.317-.788.783-1.921,1.251-3.062.463,1.141.929,2.274,1.248,3.062h-2.5M196,509.3h.361v1.144h.356V509.3h.367v-.322H196v.322m-18.115-4.842a3.454,3.454,0,0,1,1.039-2.1l.1-.094a1.029,1.029,0,0,1,.1-.086,4.007,4.007,0,0,1,1.83-.852l.039-.006c.094-.017.19-.028.287-.039q.178-.017.364-.017h.088c.1.005.2.014.309.019a3.844,3.844,0,0,1,2.067.907l.4.342,1.709-1.767-.444-.383a6.525,6.525,0,0,0-4.126-1.461,6.074,6.074,0,0,0-6.366,5.9v.006a6.074,6.074,0,0,0,6.366,5.895,6.523,6.523,0,0,0,4.126-1.458l.444-.383-1.709-1.767-.4.342a3.8,3.8,0,0,1-2.067.9c-.107.008-.209.019-.309.019l-.088,0a3.166,3.166,0,0,1-.364-.017c-.1-.008-.193-.022-.287-.036l-.039-.011a4.053,4.053,0,0,1-1.83-.846c-.036-.033-.072-.058-.1-.091s-.069-.063-.1-.091a3.462,3.462,0,0,1-1.039-2.1,2.682,2.682,0,0,1-.019-.336l0-.036,0-.028a2.729,2.729,0,0,1,.019-.339" transform="translate(-113.893 -489.433)"/></g></g></g></svg>