<svg xmlns="http://www.w3.org/2000/svg" xmlns:xlink="http://www.w3.org/1999/xlink" width="138" height="110" viewBox="0 0 138 110"><defs><style>.a{fill:#ed4d55;}.b{fill:url(#a);}.c{clip-path:url(#d);}.d{filter:url(#b);}</style><linearGradient id="a" x1="0.5" y1="0.31" x2="0.5" y2="1" gradientUnits="objectBoundingBox"><stop offset="0" stop-color="#fff"/><stop offset="1" stop-color="#bfbfbf"/></linearGradient><filter id="b" x="0" y="0" width="138" height="110" filterUnits="userSpaceOnUse"><feOffset dy="3" input="SourceAlpha"/><feGaussianBlur stdDeviation="4" result="c"/><feFlood flood-opacity="0.424"/><feComposite operator="in" in2="c"/><feComposite in="SourceGraphic"/></filter><clipPath id="d"><rect class="a" width="38.214" height="50.453"/></clipPath></defs><g transform="translate(-528 -1051)"><g transform="translate(540 1060)"><g class="d" transform="matrix(1, 0, 0, 1, -12, -9)"><rect class="b" width="114" height="86" rx="5" transform="translate(12 9)"/></g></g><g transform="translate(578 1078)"><g class="c" transform="translate(0 0)"><path class="a" d="M178.32,381.152h3.745a1.87,1.87,0,0,1,1.883,1.044l3.872,6.021h.13v-7.065h15.332a19.113,19.113,0,0,0-36.48,0Z" transform="translate(-165.935 -367.753)"/><path class="a" d="M200.31,373.1v11.291h-3.805V373.1h-4.353v11.291h-2.54a1.885,1.885,0,0,1-1.883-1.044l-4.925-7.374h-.079v8.418h-3.7V373.1h-4.335v11.291H170.82V373.1H166.74a19.107,19.107,0,1,0,37.766,0Z" transform="translate(-166.515 -356.92)"/><path class="a" d="M172.633,384.116h-1.51c0-.814-.227-1.123-.72-1.123a.724.724,0,0,0-.8.793c0,.627.605.945,1.3,1.317.854.463,1.831,1.005,1.831,2.3,0,1.553-.9,2.146-2.543,2.146-1.8,0-2.249-.944-2.249-1.952v-.463h1.55v.194c0,.745.206,1.114.884,1.114a.745.745,0,0,0,.784-.845c0-.575-.536-.9-1.483-1.438-.829-.481-1.641-1.06-1.641-2.192,0-1.368.769-2.086,2.446-2.086,1.78,0,2.158.942,2.158,1.962Z" transform="translate(-163.639 -339.102)"/><path class="a" d="M173.935,381.925v1.144h-2.5V384.9h2.307v1.141h-2.307v2.17h2.582v1.141h-4.132v-7.426Z" transform="translate(-159.686 -339.022)"/><path class="a" d="M174.434,381.924c1,0,1.747.6,1.747,1.946a1.6,1.6,0,0,1-1.377,1.822v.018a1.309,1.309,0,0,1,1.347,1.459,7.965,7.965,0,0,0,.173,2.182H174.8a2.551,2.551,0,0,1-.166-1.123v-.751c0-.893-.3-1.2-1.12-1.2h-.391v3.075h-1.553v-7.428Zm-1.308,3.212h.69c.521,0,.79-.463.79-1.09,0-.648-.245-.981-.79-.981h-.69Z" transform="translate(-156.264 -339.023)"/><rect class="a" width="1.553" height="7.422" transform="translate(21.057 42.906)"/><path class="a" d="M178.466,381.925v1.144h-2.5V384.9h2.307v1.141h-2.307v2.17h2.582v1.141h-4.132v-7.426Z" transform="translate(-150.501 -339.022)"/><path class="a" d="M180.751,384.116h-1.51c0-.814-.227-1.123-.721-1.123a.724.724,0,0,0-.8.793c0,.627.605.945,1.3,1.317.854.463,1.831,1.005,1.831,2.3,0,1.553-.9,2.146-2.543,2.146-1.8,0-2.249-.944-2.249-1.952v-.463h1.553v.194c0,.745.2,1.114.881,1.114a.745.745,0,0,0,.784-.845c0-.575-.536-.9-1.48-1.438-.832-.481-1.644-1.06-1.644-2.192,0-1.368.769-2.086,2.446-2.086,1.78,0,2.158.942,2.158,1.962Z" transform="translate(-147.183 -339.102)"/><path class="a" d="M178.6,381.942v.179h-.251v.893h-.224v-.893h-.248v-.179Z" transform="translate(-143.492 -338.986)"/><path class="a" d="M178.508,381.942l.17.73.179-.73h.348v1.072h-.215v-.826h0l-.209.826h-.212l-.2-.826h0v.826h-.221v-1.072Z" transform="translate(-142.942 -338.986)"/></g></g></g></svg>