<svg xmlns="http://www.w3.org/2000/svg" xmlns:xlink="http://www.w3.org/1999/xlink" width="138" height="110" viewBox="0 0 138 110">
  <defs>
    <linearGradient id="linear-gradient" x1="0.5" y1="0.31" x2="0.5" y2="1" gradientUnits="objectBoundingBox">
      <stop offset="0" stop-color="#fff"/>
      <stop offset="1" stop-color="#bfbfbf"/>
    </linearGradient>
    <filter id="Rectángulo_3581" x="0" y="0" width="138" height="110" filterUnits="userSpaceOnUse">
      <feOffset dy="3" input="SourceAlpha"/>
      <feGaussianBlur stdDeviation="4" result="blur"/>
      <feFlood flood-opacity="0.424"/>
      <feComposite operator="in" in2="blur"/>
      <feComposite in="SourceGraphic"/>
    </filter>
  </defs>
  <g id="Grupo_5317" data-name="Grupo 5317" transform="translate(-152 -1240)">
    <g id="Componente_19_56" data-name="Componente 19 – 56" transform="translate(164 1249)">
      <g transform="matrix(1, 0, 0, 1, -12, -9)" filter="url(#Rectángulo_3581)">
        <rect id="Rectángulo_3581-2" data-name="Rectángulo 3581" width="114" height="86" rx="5" transform="translate(12 9)" fill="url(#linear-gradient)"/>
      </g>
    </g>
    <g id="Grupo_5316" data-name="Grupo 5316" transform="translate(6.84 7.516)">
      <g id="Grupo_5316-2" data-name="Grupo 5316" transform="translate(172.16 1272.484)">
        <path id="Trazado_8835" data-name="Trazado 8835" d="M-460.014-174.241l10.043-12.659-8.013-9.453c.259-.026.419-.055.579-.056,2.329-.015,4.657-.018,6.986-.049a.948.948,0,0,1,.829.41c1.013,1.252,2.045,2.488,3.071,3.729.133.161.271.319.439.515l3.934-4.956c.567-.714,1.125-1.436,1.709-2.135a.8.8,0,0,1,.512-.293c2.736-.016,5.472-.008,8.208,0a.918.918,0,0,1,.191.071L-441.717-186.5l7.977,9.673c-.306.015-.491.031-.677.031-2.135,0-4.269-.012-6.4.012a1.122,1.122,0,0,1-.978-.466c-1.224-1.478-2.476-2.932-3.775-4.462-.195.234-.364.432-.528.635-1.732,2.143-3.467,4.282-5.187,6.434a1.058,1.058,0,0,1-.929.447c-2.387-.019-4.773-.009-7.16-.011C-459.547-174.209-459.716-174.226-460.014-174.241Z" transform="translate(476.012 199.197)" fill="#231f20"/>
        <path id="Trazado_8836" data-name="Trazado 8836" d="M-520.885-175.374a3.525,3.525,0,0,0,2.853,1.177q4.569-.041,9.138-.087c.209,0,.418,0,.71,0a4.926,4.926,0,0,1-.268.427q-2.027,2.552-4.066,5.094c-.133.164-.356.37-.532.366a44.919,44.919,0,0,1-6.9-.275,9.952,9.952,0,0,1-8.408-7.576c-1.5-5.779,2.275-10.047,6.907-11.2a13.931,13.931,0,0,1,8.408.433,9.025,9.025,0,0,1,3.59,2.6c2.246,2.536,1.485,8.1-3.483,8.783a57.908,57.908,0,0,1-5.861.258C-519.492-175.354-520.189-175.374-520.885-175.374Zm-1.252-4.542c1.936,0,3.813,0,5.69-.005a1.225,1.225,0,0,0,.448-.115.78.78,0,0,0,.357-1.277,1.788,1.788,0,0,0-.768-.582,6.653,6.653,0,0,0-1.53-.289A4.194,4.194,0,0,0-522.137-179.916Z" transform="translate(528.691 190.53)" fill="#231f20"/>
        <path id="Trazado_8837" data-name="Trazado 8837" d="M-358.129-181.362c1.24-1.557,2.467-2.941,3.5-4.455a3.091,3.091,0,0,1,3.069-1.5c2.065.125,4.147-.059,6.183.494a10.84,10.84,0,0,1,4.3,2.341.624.624,0,0,1,.2.754c-.414,1.433-.808,2.871-1.207,4.308-.051.184-.089.371-.148.615h4.485a8.96,8.96,0,0,1-.158,4.17,9.014,9.014,0,0,1-6.449,6.3,13.678,13.678,0,0,1-8.853-.3,8.969,8.969,0,0,1-3.59-2.6,5.409,5.409,0,0,1,3.484-8.788,47.375,47.375,0,0,1,5.047-.251c.966-.032,1.935-.006,3.038-.006A3.241,3.241,0,0,0-347-181.309a6.131,6.131,0,0,0-1.442-.136c-2.968.017-5.937.053-8.905.082C-357.56-181.36-357.769-181.362-358.129-181.362Zm14.061,5.619c-1.939,0-3.761-.014-5.584.009-.491.006-1.008.125-1.116.725s.3.925.747,1.195a1.013,1.013,0,0,0,.431.164,13.626,13.626,0,0,0,2.532.092A3.877,3.877,0,0,0-344.068-175.743Z" transform="translate(397.861 190.089)" fill="#231f20"/>
        <path id="Trazado_8838" data-name="Trazado 8838" d="M-275.719-162.313l3.184-11.367H-277.3c.382-1.38.722-2.646,1.1-3.9.035-.117.3-.234.46-.234,4.464-.013,8.929,0,13.393-.018.474,0,.477.265.482.6q.056,3.317.122,6.635a1.758,1.758,0,0,0,.2.818c.123-.184.253-.364.369-.552,1.473-2.373,2.951-4.743,4.408-7.126a.89.89,0,0,1,.881-.494c1.436.026,2.872.009,4.309.011.167,0,.335.018.594.034-.25.407-.455.75-.668,1.088-2.905,4.612-5.82,9.218-8.705,13.843a1.244,1.244,0,0,1-1.252.683c-1.3-.046-2.6-.034-3.9,0-.487.011-.613-.15-.632-.626q-.2-5.142-.474-10.282a.655.655,0,0,0-.319-.495c-.378-.13-.475.183-.561.48q-1.448,5.021-2.9,10.04c-.3,1.052-.173.861-1.164.87-1.165.01-2.329,0-3.494,0Z" transform="translate(335.86 182.904)" fill="#ff682e"/>
      </g>
    </g>
  </g>
</svg>
